<svg width="112" height="112" viewBox="0 0 112 112" fill="none" xmlns="http://www.w3.org/2000/svg">
<rect width="112" height="112" rx="31.1899" fill="#FFC009"/>
<path d="M47.8944 34.6847C43.5114 32.8763 39.5897 34.8241 38.5744 40.0848C38.5622 40.1476 38.5527 40.2115 38.5455 40.2751C38.4385 41.2255 37.5695 49.1394 37.5695 55.646C37.5696 62.1525 38.4384 70.0662 38.5455 71.0169C38.5527 71.0805 38.5622 71.1444 38.5744 71.2073C39.5897 76.4668 43.5112 78.4142 47.8941 76.6075L47.9063 76.6024C48.0889 76.5253 55.4175 73.4265 62.2381 69.514C68.7843 65.759 74.2598 61.5984 74.8143 61.1737C74.8475 61.1483 74.8772 61.1242 74.909 61.097C78.9964 57.6108 78.9963 53.6832 74.9093 50.1953C74.8773 50.168 74.8473 50.1437 74.8139 50.1181C74.2571 49.6917 68.7827 45.5327 62.2381 41.7786C55.4144 37.8643 48.0824 34.764 47.9061 34.6896L47.8944 34.6847Z" fill="white"/>
</svg>
