<?xml version="1.0" encoding="UTF-8" standalone="no"?><!DOCTYPE svg PUBLIC "-//W3C//DTD SVG 1.1//EN" "http://www.w3.org/Graphics/SVG/1.1/DTD/svg11.dtd"><svg width="100%" height="100%" viewBox="0 0 10542 4325" version="1.1" xmlns="http://www.w3.org/2000/svg" xmlns:xlink="http://www.w3.org/1999/xlink" xml:space="preserve" xmlns:serif="http://www.serif.com/" style="fill-rule:evenodd;clip-rule:evenodd;stroke-linejoin:round;stroke-miterlimit:2;"><g><path d="M4062.5,190.45c251.563,-5.729 502.258,82.121 697.05,240.975c133.679,105.033 230.9,241.492 307.813,391.667c257.637,-158.334 591.491,-170.488 860.241,-31.6c235.592,119.27 407.292,343.75 464.063,601.391c52.604,-64.583 93.404,-135.591 156.596,-191.841c44.27,-49.134 108.854,-76.909 148.612,-128.992c81.25,-115.625 189.929,-210.417 315.104,-275.696c245.833,-130.033 548.438,-134.896 798.613,-13.887c209.375,100.521 375.345,283.158 453.125,502.083c63.366,175 69.271,367.358 17.187,546.004c121.875,-39.583 243.054,-47.396 368.229,-17.708c65.971,-132.117 192.88,-220.659 343.921,-211.804c183.508,6.596 337.329,167.883 332.467,352.258c68.229,-14.758 135.762,-26.042 205.904,-17.708c163.542,16.146 314.063,113.191 396.354,255.208c88.713,149.65 94.792,342.358 14.584,497.046c-52.955,105.904 -140.626,186.287 -246.355,238.021c-99.479,211.112 -332.812,338.371 -564.237,295.312c-150.521,-23.958 -267.013,-113.887 -355.384,-234.2c-120.483,210.417 -359.895,330.034 -600.866,306.425c-43.229,14.584 -88.888,57.463 -119.446,92.359c-121.875,165.625 -294.963,292.187 -489.408,358.854c-198.092,68.579 -418.23,73.091 -619.446,14.583c-237.671,-68.75 -445.484,-226.212 -577.95,-435.242c-224.134,146.355 -503.821,192.013 -762.154,119.967c-234.025,-63.717 -434.896,-222.225 -557.117,-430.904c-192.363,130.383 -441.492,166.492 -658.679,78.646c-45.663,31.075 -98.613,65.104 -130.384,110.937c-66.841,94.446 -153.125,173.438 -252.429,232.813c-275,167.012 -637.85,157.987 -903.3,-23.959c-54.166,29.688 -106.075,61.805 -163.021,86.284c-244.445,110.246 -528.82,130.383 -786.979,59.204c-250.696,-68.579 -474.654,-223.613 -628.646,-432.642c-144.966,123.788 -328.125,191.496 -519.791,177.779c-291.146,-15.279 -551.563,-223.958 -632.292,-503.646c-77.083,-258.854 3.646,-546.529 205.904,-725.52c43.4,-44.792 109.2,-66.842 139.584,-119.792c85.937,-130.208 216.491,-231.771 364.929,-280.729c137.5,-46.354 283.854,-47.917 423.437,-8.679c-39.929,-143.405 -13.716,-292.363 69.617,-414.759c52.604,-79.341 126.042,-130.383 208.333,-175c33.163,-53.821 60.938,-108.158 107.988,-151.908c139.237,-138.021 354.687,-183.683 536.458,-106.946c101.738,39.238 175.696,112.675 239.583,198.783c61.634,-3.295 122.742,-2.083 183.68,8.163c79.862,-129.688 167.537,-249.829 290.625,-341.842c57.641,-38.716 86.287,-95.487 134.55,-143.925c199.654,-216.146 488.366,-346.004 783.333,-345.833Z" style="fill:#393939;fill-rule:nonzero;"/><path d="M4044.79,225.346c252.604,-9.025 504.862,77.954 699.479,238.892c136.283,109.545 234.375,252.254 306.771,410.241c200.696,-134.375 452.95,-177.95 686.979,-117.533c318.575,80.208 573.092,353.646 624.654,678.817c72.221,25.695 139.063,56.25 207.638,90.104c20.658,-298.959 201.041,-569.792 468.75,-704.167c280.729,-143.4 633.158,-115.796 887.5,70.833c233.854,166.667 371.008,452.605 352.429,739.759c-1.734,90.279 -28.992,172.396 -50.692,258.679c152.604,-67.188 282.813,-78.817 444.963,-36.458c35.07,-98.263 111.808,-177.255 213.195,-206.421c137.675,-42.017 290.971,20.833 362.155,145.137c40.275,65.625 43.575,136.634 41.316,211.634c88.892,-33.163 182.467,-48.438 276.563,-28.475c175,30.558 324.133,163.195 375.521,333.162c59.895,189.583 -7.117,403.992 -165.105,524.825c-171.004,136.804 -426.387,136.633 -597.566,0.346c-65.454,-46.525 -101.042,-110.938 -146.875,-174.129c-58.684,120.658 -152.78,221.875 -273.788,281.42c-121.525,62.155 -262.5,75.871 -395.137,46.53c-123.784,221.179 -323.263,393.229 -565.625,471.354c-266.492,87.154 -567.013,55.383 -808.334,-88.196c-148.612,-86.108 -263.366,-210.067 -355.554,-353.817c-184.725,133.334 -419.271,192.013 -644.791,159.721c-216.321,-29.687 -419.271,-141.321 -559.55,-308.679c-44.967,-50.521 -76.909,-108.683 -114.584,-164.413c-207.812,165.455 -501.387,188.542 -735.071,63.196c-53.47,115.8 -125,220.834 -223.608,302.95c-148.612,125.871 -341.321,197.05 -536.633,191.496c-165.104,0.521 -321.529,-55.729 -457.292,-147.746c-61.979,30.559 -118.404,71.704 -184.2,97.571c-228.125,100.521 -488.371,122.917 -730.037,61.458c-267.359,-65.8 -504.338,-232.637 -660.067,-459.029c-64.238,59.896 -135.246,110.938 -216.667,144.792c-213.371,91.667 -467.708,62.675 -655.208,-74.129c-207.988,-147.571 -314.934,-411.979 -267.884,-662.85c47.221,-274.129 274.655,-498.263 549.305,-541.667c164.933,-30.554 324.654,10.071 469.446,89.063c40.104,-105.73 98.783,-199.65 163.887,-291.492c-87.325,-171.529 -53.646,-384.2 79.342,-522.396c131.771,-138.021 343.054,-181.596 518.054,-103.821c96.875,40.8 164.933,114.063 223.437,198.959c132.642,-12.846 258.684,10.416 387.675,37.85c38.196,-208.855 139.063,-404.688 290.28,-553.996c186.804,-190.275 448.262,-303.646 714.929,-309.375Z" style="fill:#fff;fill-rule:nonzero;"/></g></svg>