<svg xmlns="http://www.w3.org/2000/svg" xml:space="preserve" style="fill-rule:evenodd;clip-rule:evenodd;stroke-linejoin:round;stroke-miterlimit:2" viewBox="0 0 2530 1038">
  <path d="M975 45.708c60.375-1.375 120.542 19.709 167.292 57.834 32.083 25.208 55.416 57.958 73.875 94 61.833-38 141.958-40.917 206.458-7.584 56.542 28.625 97.75 82.5 111.375 144.334 12.625-15.5 22.417-32.542 37.583-46.042 10.625-11.792 26.125-18.458 35.667-30.958 19.5-27.75 45.583-50.5 75.625-66.167 59-31.208 131.625-32.375 191.667-3.333 50.25 24.125 90.083 67.958 108.75 120.5 15.208 42 16.625 88.166 4.125 131.041 29.25-9.5 58.333-11.375 88.375-4.25 15.833-31.708 46.291-52.958 82.541-50.833 44.042 1.583 80.959 40.292 79.792 84.542 16.375-3.542 32.583-6.25 49.417-4.25 39.25 3.875 75.375 27.166 95.125 61.25 21.291 35.916 22.75 82.166 3.5 119.291-12.709 25.417-33.75 44.709-59.125 57.125-23.875 50.667-79.875 81.209-135.417 70.875-36.125-5.75-64.083-27.333-85.292-56.208-28.916 50.5-86.375 79.208-144.208 73.542-10.375 3.5-21.333 13.791-28.667 22.166-29.25 39.75-70.791 70.125-117.458 86.125-47.542 16.459-100.375 17.542-148.667 3.5-57.041-16.5-106.916-54.291-138.708-104.458-53.792 35.125-120.917 46.083-182.917 28.792-56.166-15.292-104.375-53.334-133.708-103.417-46.167 31.292-105.958 39.958-158.083 18.875-10.959 7.458-23.667 15.625-31.292 26.625-16.042 22.667-36.75 41.625-60.583 55.875-66 40.083-153.084 37.917-216.792-5.75-13 7.125-25.458 14.833-39.125 20.708-58.667 26.459-126.917 31.292-188.875 14.209C457.083 837.208 403.333 800 366.375 749.833c-34.792 29.709-78.75 45.959-124.75 42.667-69.875-3.667-132.375-53.75-151.75-120.875-18.5-62.125.875-131.167 49.417-174.125 10.416-10.75 26.208-16.042 33.5-28.75 20.625-31.25 51.958-55.625 87.583-67.375 33-11.125 68.125-11.5 101.625-2.083-9.583-34.417-3.292-70.167 16.708-99.542 12.625-19.042 30.25-31.292 50-42 7.959-12.917 14.625-25.958 25.917-36.458 33.417-33.125 85.125-44.084 128.75-25.667 24.417 9.417 42.167 27.042 57.5 47.708 14.792-.791 29.458-.5 44.083 1.959 19.167-31.125 40.209-59.959 69.75-82.042 13.834-9.292 20.709-22.917 32.292-34.542 47.917-51.875 117.208-83.041 188-83Z" style="fill:#393939;fill-rule:nonzero"/>
  <path d="M422.16 323.447c1.857 9.483 1.726 10.315-5.328 16.7-15.869 13.934-30.628 29.134-47.065 42.379-.045-7.035-4.805-17.028 3.123-21.401 16.397-12.55 32.209-25.976 49.27-37.678Z" style="fill:#fff;fill-rule:nonzero"/>
  <path d="M970.75 54.083c60.625-2.166 121.167 18.709 167.875 57.334 32.708 26.291 56.25 60.541 73.625 98.458 48.167-32.25 108.708-42.708 164.875-28.208 76.458 19.25 137.542 84.875 149.917 162.916 17.333 6.167 33.375 13.5 49.833 21.625 4.958-71.75 48.25-136.75 112.5-169 67.375-34.416 151.958-27.791 213 17 56.125 40 89.042 108.625 84.583 177.542-.416 21.667-6.958 41.375-12.166 62.083 36.625-16.125 67.875-18.916 106.791-8.75 8.417-23.583 26.834-42.541 51.167-49.541 33.042-10.084 69.833 5 86.917 34.833 9.666 15.75 10.458 32.792 9.916 50.792 21.334-7.959 43.792-11.625 66.375-6.834 42 7.334 77.792 39.167 90.125 79.959 14.375 45.5-1.708 96.958-39.625 125.958-41.041 32.833-102.333 32.792-143.416.083-15.709-11.166-24.25-26.625-35.25-41.791-14.084 28.958-36.667 53.25-65.709 67.541-29.166 14.917-63 18.209-94.833 11.167-29.708 53.083-77.583 94.375-135.75 113.125-63.958 20.917-136.083 13.292-194-21.167-35.667-20.666-63.208-50.416-85.333-84.916-44.334 32-100.625 46.083-154.75 38.333-51.917-7.125-100.625-33.917-134.292-74.083-10.792-12.125-18.458-26.084-27.5-39.459-49.875 39.709-120.333 45.25-176.417 15.167-12.833 27.792-30 53-53.666 72.708-35.667 30.209-81.917 47.292-128.792 45.959-39.625.125-77.167-13.375-109.75-35.459-14.875 7.334-28.417 17.209-44.208 23.417-54.75 24.125-117.209 29.5-175.209 14.75-64.166-15.792-121.041-55.833-158.416-110.167-15.417 14.375-32.459 26.625-52 34.75-51.209 22-112.25 15.042-157.25-17.791C170 657 144.333 593.542 155.625 533.333c11.333-65.791 65.917-119.583 131.833-130 39.584-7.333 77.917 2.417 112.667 21.375 9.625-25.375 23.708-47.916 39.333-69.958-20.958-41.167-12.875-92.208 19.042-125.375 31.625-33.125 82.333-43.583 124.333-24.917 23.25 9.792 39.584 27.375 53.625 47.75 31.834-3.083 62.084 2.5 93.042 9.084 9.167-50.125 33.375-97.125 69.667-132.959C844 82.667 906.75 55.458 970.75 54.083Z" style="fill:#fff;fill-rule:nonzero"/>
  <path d="M749.417 179.292c-8.167 23.125-21.25 38.541-40.375 53.416 13.791-17.541 26.416-36.041 40.375-53.416ZM730.375 223c-2.542 7.25-7.25 12.833-10.875 19.542 1.042 1.291 2 2.625 2.792 4.041-6 .667-12.042 1.25-18 2.292 7.416-9.542 16-19.083 26.083-25.875ZM425.292 270.542c-2.334 6.333-5 11-9.959 15.666-9.166 8.792-17.458 19.042-27.75 26.459 10.042-13.917 20.334-37.042 37.709-42.125ZM1591.33 282.875c-4.208 9.75-8.375 19.458-12.291 29.292-3.625 9.041-12.959 16.083-19.625 22.875l3.791 3.375-3.791-2.75c-3.125 3.125-6.334 6.208-9.542 9.25.875-8.959 8.458-16.292 13.208-23.834 9.25-12.5 16.584-27.833 28.25-38.208ZM421.54 302.068c-9.125 16.042-43.915 40.057-54.54 55.182.5-8.042.75-14.833 6.958-20.75 8.125-8.208 37.165-29.265 47.582-34.432Z" style="fill:#fff;fill-rule:nonzero"/>
  <path d="M1572.08 333.625c.25 3.208-1 6.375-3.75 9.458-1.875 2.292-8.375 10.417-10 3.667 1-3 2.625-5.792 4.875-8.333 2.75-2.334 5.709-3.917 8.875-4.792ZM413.542 345.292l-4.834 4.208 4.834-4.208ZM427.125 344.333c-1.125 8-7.875 14.042-12.75 20.167-12.083 13.667-22.667 28.458-35.292 41.542-3.625-1.5-6.458-3.584-8.458-6.292 7.667-10.083 18-18.208 26.667-27.458 10-9.167 18.541-20.5 29.833-27.959ZM408.708 349.5c-2.75 4.958-2.75 4.958 0 0ZM403.875 395.625c-4.083 6.75-4.75 19.5-15.375 16.208 4.583-5.916 9.5-11.5 15.375-16.208Z" style="fill:#fff;fill-rule:nonzero"/>
  <path d="M118.5 543.292c-.083.291-.083.291 0 0Z" style="fill:#393939;fill-rule:nonzero"/>
  <path d="M146.708 590.167c3.209 10.5 3.167 11.458-3.791 19.583-15.709 17.792-30.042 36.875-46.459 53.958-.916-7.958-7.375-18.666.792-24.625 16.458-16.291 32.167-33.5 49.458-48.916ZM154.667 618.417c-1 7.5-6.375 11.5-11 16.916-14.625 15.25-27.959 31.667-42.459 47.042-.416-3.708-.875-7.375-1.291-11.083 18.75-17.042 35.458-36.542 54.75-52.875ZM162.542 634.458l.25 6.75c-8.167 12.334-19.542 22.75-29.125 34.042-7.917 8.083-14.417 18.458-23.75 24.917-1.5-3.709-3-7.417-4.459-11.125 19.25-17.75 36.625-38.417 57.084-54.584ZM174.792 654.25c-16.334 21.625-36.959 40.208-54.959 60.542-3.583-4.292-4.458-7.5-2.708-9.667 12.917-13.583 27.042-26.042 40.042-39.625 5.833-5.125 8.875-11.833 17.625-11.25ZM2173.92 658.917c.875 4.333-.375 8.083-3.792 11.25-15.792 17.958-31.167 36.291-46.833 54.416-2.5-3.5-4.875-7.083-7.209-10.708 20.667-16.792 37.334-38.375 57.834-54.958ZM1275.58 661.5c-1.208 7.083-5.958 11-10.375 16.125-14.333 15.583-27.791 32.125-42.791 47.042-2.834-5.125-5.709-10.209-8.625-15.292 10.291-9.125 19.5-19.292 29.5-28.708 9.583-7.917 21.083-13.875 32.291-19.167ZM183.25 666.375c.542 6.542-3.333 9.417-7.292 13.75-15.583 15.917-30.416 32.5-45.666 48.708-1.917-2.708-3.875-5.416-5.834-8.166 16.292-15.792 32.542-31.625 48.459-47.792 2.791-3.042 6.208-5.208 10.333-6.5ZM1282.42 675.375c2.583 3.625 5.041 7.375 7.375 11.25-17.875 18.958-35.5 38.167-53.334 57.167-3.541-4.417-6.666-8.959-9.541-13.792 18.916-17.75 36.916-36.5 55.5-54.625ZM2183.08 674.708c4.584 1.292 5.709 3.75 3.375 7.292-15.625 19.542-31.916 38.75-48.208 57.75-3.375-3.5-6.792-6.958-10.167-10.458 18.25-18.042 35.75-37.75 55-54.584ZM191.333 678.667c2 2.625 10.417 6.916 6 10.625-16.375 18.625-34.333 35.875-50.125 55.083-4.375-3-8.166-6.625-11.833-10.458 18.792-18.25 36.75-37.459 55.958-55.25ZM1113.97 679.409c3.417.208 14.782 5.258 18.199 5.549-16.792 19.292-34.667 38.625-53 56.417-3.875-.875-7.75-1.792-11.625-2.667 16.25-19.416 28.843-40.882 46.426-59.299ZM1223.62 685c-12.833 12.667-24.125 26.625-36.167 40-5.865 7.019-16.144 9.847-25.45 12.922-2.792.922-5.495 1.867-7.966 2.953-1.25-2.792-2.917-7.708-4.167-10.5-10.833 13.917-22.375 14.5-38.208 15.083 16.208-18.75 35-35.291 51.916-53.458 7-.042 13.959-.083 20.917-.042-10.625 13.542-22.458 26.209-34.625 38.417 1.58 3.256 3.206 8.422 4.167 10.5 11.291-14.25 29.208-31.958 41.833-45.083 6.667-7.625 18.167-7.792 27.75-10.792ZM2191.46 687.792c3.334-3.917 3.334-3.917 0 0ZM1142.17 688.833c3.458.209 6.958.417 10.416.709-11.125 12.666-22.875 24.75-34.125 37.333-10 9.208-13.708 21.833-30.041 16.333 16.666-18.833 35.5-37 53.75-54.375ZM2191.46 687.792l-3.708 3.666 3.708-3.666ZM2203.88 688.375c-1.375 3.625-3.25 6.875-5.625 9.667-15.083 17.166-30.125 34.291-44.75 51.833-2.917-1.625-5.833-3.208-8.75-4.833 9.667-12.459 22.25-22.459 33.083-33.875 8.25-7.5 15.792-18.209 26.042-22.792ZM428.792 688.458c3.958 4.625 5.166 8.084 3.625 10.417-16.625 19.083-35.042 36.875-52.292 55.458-2.583-3.625-5.667-7.166-7.583-11.208C391 724.75 409 705.417 428.792 688.458ZM2187.75 691.458c-3.458 3.417-3.458 3.417 0 0ZM213.167 695.917c-16.584 19.541-34.917 38-52.625 56.541-5.125 4.959-9.584-5.75-4.125-8.458 14.041-13.792 28.208-27.375 41.875-41.542 4.916-4.333 7.291-9.666 14.875-6.541ZM1296.38 694.375c3.042 3.125 6 6.333 8.75 9.667-16.917 19.833-35.667 38.041-52.583 57.916-3.959-4.041-7.875-8.083-11.75-12.25 18.125-18.708 36.875-37.125 55.583-55.333ZM2214.25 698.667l1.208.583 3.667 1.792c-16.542 18.833-32.917 37.958-48.875 57.291-3.583-1.625-7.167-3.25-10.792-4.916 18.292-18.209 36.875-36.125 54.792-54.75ZM220.667 703.917c4.25 2 8.5 4.041 12.708 6.125-16.083 20.291-35.417 39.208-53.792 57.541-4.75-3-9.5-6.041-14.166-9.166 18.25-18.292 36.5-36.75 55.25-54.5ZM439.75 706.167c3.333-2.334 8.958 8.291 11.375 10.166-17.75 18.959-35.833 37.584-53.5 56.667-4.583-4.333-8.792-8.875-12.792-13.708 18.917-17.084 36.459-35.625 54.917-53.125ZM2230.38 706.667c8.809 9.086 12.068 8.343 24.792 4.75-4.625 7.083 4.666 7.833 8.666 11.666 6.375-6 10-12.125 20.334-9.791a504.621 504.621 0 0 1-10.125 13.125c4.583 5.083 6.958 6.125 13.708 6.708 8.292-9.125 15.667-18.042 25.792-25.208-9.417 19.5-28.042 35.208-46.584 45.75 3.875-4.709 15.792-17 20.792-20.542-3.432-.458-8.268-.054-13.708-6.708-5.334 10.25-15.25 24.375-23.209 32.833-8.25 5.458-20.875 5.542-30.416 7.292 13.833-14.959 29.916-28.209 43.416-43.459-2.699-2.775-7.657-3.037-9.669-6.922-12.291 16.958-30.039 33.422-43.039 49.881-3.958.083-7.917.166-11.875.25 13.333-17.292 33.28-36.812 48.113-52.77-4.411 1.483-10.622-.388-13.867-3.853-11.334 17.292-29.913 36.956-42.163 53.664-4.333-.458-8.708-.916-13.041-1.416 1.875-3.75 4.208-7.042 7.041-9.875 15.042-15.084 30.25-30.042 45.042-45.375ZM390.375 713.458c-23.833 26.042-48.75 49.25-82.583 61.584 14.291-16.209 30.666-31.167 46.166-46.209 11.125-6.666 24.834-9.083 36.417-15.375ZM1312.33 712.167c5.334 1.666 6.375 4.083 3.125 7.25-17.166 18.208-34.125 37.208-52.333 54.333l-5.042-7.417c17.459-18.416 35.375-37.333 54.25-54.166ZM248.667 716c.166 5.792-6.125 10.458-9.667 14.667-13.75 14.416-27.875 28.583-40.958 43.583-3.834-1.625-9.292.125-9.042-5.375 14.292-13.708 28.583-27.375 42.458-41.542 5.459-5.041 9.084-10.791 17.209-11.333ZM2095.83 718.625c-16.333 23.583-40.666 45.542-68.5 54 11.334-14.625 25.792-26.708 38.459-40.208 7.416-8.75 19.5-10.125 30.041-13.792ZM258.5 722.667c5.333 1.125 10.708 2.333 16.042 3.625-17.834 18.25-34.042 38.25-52.792 55.541-5.875-1.458-11.75-2.875-17.625-4.291 17.333-18.959 36.042-36.875 54.375-54.875ZM457.5 722.375l9.125 8c-17.875 19.167-36.083 38.083-54.25 56.958-3.5-2.958-7-5.958-10.5-8.916 17.333-19.667 37.125-37.5 55.625-56.042ZM1325.88 723.25c4.25 2.75 8.167 5.875 12 9.167-18.333 18.375-35.292 38.208-54.083 56.083-4.584-3.333-9.209-6.667-13.875-9.958 18.166-18.834 37.333-36.834 55.958-55.292ZM284.375 729.792c6.625-.334 13.375.416 20 .875-12.5 14.833-26.292 28.291-39 42.958-3.458 3.542-6.667 8.458-11.292 10.417-7.5.541-15.291-.292-22.791-.875 16.916-18.375 35.125-36 53.083-53.375ZM337.208 729.708c-14.083 14.875-28.125 29.75-41.541 45.292-6.209 8.792-19.5 7.083-29.042 8.25 16.25-15.708 32.167-31.833 48.417-47.542 6.166-6.5 13.875-4.75 22.166-6ZM2012.21 727.25l11 1.625c-14.208 18.5-30.291 35.75-45.375 53.583-3.333-.041-6.666-.083-10-.166 17.625-16.417 30.25-35.875 44.375-55.042ZM2033 734.042c6.5-3.5 13.25-4.709 20.5-5.667-10.208 15.542-24.458 28.542-36.292 42.917-7.5 10.541-18.208 9.041-29.583 11.458 13.917-16.042 32.708-29.542 44.333-47.083l.292-.542.75-1.083ZM476.667 736.5l.5 5.167c-16.709 18.875-34.792 36.958-52.5 54.875l-7.625-4.75c14.208-13.5 28.333-27.084 42.125-40.959 5.5-5.5 10.083-11.208 17.5-14.333ZM1347.04 738.792c2.625 1.041 5.25 2.208 7.791 3.458-2.458 6.625-8.041 11.25-12.75 16.458-13.125 13.667-25.333 28.084-38.083 42.084-4.708-2.459-9.125-5.084-13.083-8.667 19.208-17.25 37.166-35.875 56.125-53.333ZM1591 736.667c2.333 2.708 3.583 5.416 3.875 8.125-16.958 19.666-35.5 38-52.625 57.541-2.75-3.791-5.458-7.583-8.208-11.333 18.916-17.708 35.791-39.5 56.958-54.333ZM490.167 747.292c.083 2.916-.667 5.25-2.334 7.041-16.333 17.334-33.333 34.459-48.208 53.084-3.208-1.459-6.458-2.959-9.708-4.417 14.75-15.167 30.541-29.25 45.333-44.375 4.708-4.583 8.375-9.375 14.917-11.333ZM1363.96 750.958c4.834-1.458 8.084-.666 9.75 2.375-16.791 18.084-33.625 36-50.25 54.209-2.958 2.041-13.875-1.042-10.125-6 16.584-17.084 33.584-33.959 50.625-50.584ZM1558.71 753.917c-8.416 9.833-17.375 19.166-26.25 28.625-10.958 11.416-25.625 18.375-39.75 25.125 14.959-13.625 28.792-28.417 43.417-42.334 6.458-6.208 14.292-8.708 22.583-11.416ZM1606.83 758.917c-15.75 20.208-35.708 39.208-52.958 58.5-1.458-2.292-9.667-8.125-5.542-10.792 15.209-15.333 31.25-29.792 46.209-45.417 4.5-3.291 8.5-11.75 12.291-2.291ZM497.625 760c2.458-4.458 12.75-.917 9.25 4.75-17.458 17.833-33.875 36.833-51.792 54.208-3.291-2.291-6.583-4.625-9.916-6.916 17.333-17.5 34.916-34.792 52.458-52.042ZM804.542 758.083c4 .292 8.041 1.875 12.083 4.792-17 19.375-35.458 37.667-51.792 57.625a405.2804 405.2804 0 0 1-15.5-8.625c17.917-18.167 35.334-37.75 55.209-53.792ZM1383.88 758.042c5.542 1.291 10.958 3 16.292 4.833-16.25 17-32.334 34.167-48.584 51.125-5.708 7.583-15.208-.125-22.333-1.875 18.292-17.958 36.542-35.958 54.625-54.083ZM518.208 767.667c2.584 1.041 5.125 2.208 7.625 3.416-15.291 20.584-35.041 37.959-51.166 58-4.084-2.291-8.125-4.625-12.167-6.916 19.083-17.625 36.667-36.875 55.708-54.5ZM1409.62 767.333c5.708-.75 11.875 1 17.625 1.667-16.833 17.917-32.917 36.583-50 54.208-6.375 1.917-14.958-1.875-21.5-2.833 17.625-17.958 36-35.25 53.875-53.042ZM1520.54 766.708c-13.459 14.209-26.625 28.75-40.084 42.917-7.583 7.875-16.958 8.5-27.166 10.583 14.875-15.75 31.041-30.291 46.333-45.666 5.792-5.959 13.25-5.959 20.917-7.834ZM1615.17 767.792c1.875 2.458 3.75 4.958 5.541 7.458-17.375 19.542-35.708 38.25-53.458 57.417-3.083-2.959-6.167-5.959-9.25-8.959 18.583-18.916 37.375-38.333 57.167-55.916ZM826.5 771.708c3.125-.916 6.583-.208 10.292 2.084-16.125 17.416-32.459 34.541-48.334 52.125-5.041 7.041-11.083.208-17.125-1.625 18.792-17.125 36.792-35.042 55.167-52.584ZM1008 771.5c-9.375 9.75-18.625 19.667-28.208 29.208-11.625 11.709-27.667 20-42.334 27.292C950 814.583 963.167 801.708 976 788.5c7.875-8.75 21.375-12 32-17ZM1441.88 771.875c6.542.125 13.083.458 19.583.708-16.666 17.042-32.208 35.292-49 52.167-7.333 2.5-16.75.792-24.5.958 3.834-7.5 10.209-11.541 16.084-17.541 12.75-11.917 24.458-25.125 37.833-36.292ZM1486.46 771.625c-15.416 16-30.416 32.333-45.583 48.5-5.042 6-11.458 3.792-18.583 5 14.75-16.625 31.125-32.042 46.708-47.833 4.958-5.375 10.792-4.542 17.458-5.667ZM774.167 775.333c-19.625 19.709-34.792 40.75-61.292 52.084 13.625-13.459 27.375-26.834 41-40.292 5.75-5.833 12.875-8.75 20.292-11.792ZM551.083 783.333c-15.958 19.375-34.666 36.542-51.5 55.167-5.666-1.792-11.291-3.667-16.875-5.708 17.542-17.125 35.334-34.042 52.875-51.209 4.417-5.5 10.75-.458 15.5 1.75ZM845.958 778.875c3.667.542 7.292 1.125 10.917 1.75-17.583 19-35.917 37.25-53.375 56.375-3.917-1.375-7.875-2.75-11.792-4.125 18.292-17.792 35.917-36.292 54.25-54ZM1625.88 782.625l4.083.292 2.042 4c-17.292 19.416-35.5 38.083-53.125 57.208-2.708-2.917-9.375-6.667-4-10.667 17.25-16.666 33.75-34.166 51-50.833ZM562.458 787.083c1.959 1.167 15.709 2.417 11.292 6.917-16.083 17.75-32.625 35.292-48.917 52.875-5.916-1.625-11.833-3.292-17.75-5.042 17.334-19 36.709-37.083 55.375-54.75ZM866.708 785.25c3.834.292 7.625 1.208 11.334 2.75-16.834 17.625-34.209 34.833-50.334 53.167-5.166-.209-10.291-.5-15.416-.834 4.791-9 12.291-14.041 19.333-21.208 11.833-11.125 22.708-23.375 35.083-33.875ZM963.25 787.167c-11.417 13.833-24.042 26.625-35.667 40.291-7.833 10.542-19.666 10.125-31.416 13.709 16.083-15.625 31.708-31.709 47.791-47.25 5.5-5.75 12-5.292 19.292-6.75ZM732.083 791.875c-10.458 11.333-21.125 22.458-30.833 34.417-9.167 14.916-31.25 16.291-46.75 22.333 14.667-15.333 29.917-30.083 44.792-45.208 7.416-9 22.083-8.959 32.791-11.542ZM887.708 790.292c4.542-.625 9.209-.459 14.042.5-15.25 18.833-32.833 35.833-49.042 53.875-6.125-.375-12.25-.75-18.375-1.167 17.834-17.625 35-36.167 53.375-53.208ZM931.917 791.542C921 805.083 908.042 816.792 896.708 830c-4.041 4.167-7.75 9.583-12.833 12.458-6.5 1.875-13.667 1.792-20.375 2.417 17.583-15.125 33.958-31.375 50.5-47.583 5.25-6.25 10.292-5.417 17.917-5.75ZM587.417 794.833c5.791.792 11.541 1.667 17.25 2.667-15.584 19.292-34.209 36.208-50.542 54.917-7.125-.959-14.208-2.042-21.292-3.25 17.709-18.417 35.584-37.334 54.584-54.334ZM1638.25 795.083c2.25-1.666 5.917 0 11 5-17.875 19.209-34.875 39.25-53.042 58.125-3.916-3.25-7.833-6.458-11.791-9.666 18.041-17.709 35.458-36.167 53.833-53.459ZM616.875 800.25c6.625.25 13.292.708 19.917 1.167-17.167 16.958-32.834 35.416-49.959 52.375-7.208 2.708-16.541.083-24.166-.209 18.416-17.416 35.875-35.833 54.208-53.333ZM691.5 800.167c-15.042 15.375-30 30.875-44.917 46.416-5.666 6.375-17.875 5.875-25.708 7.334 17-16.292 33.583-33.042 50.708-49.125 4.875-5.459 13.167-3.667 19.917-4.625ZM658.625 801.5c-12.542 17.167-29.25 31.125-43.167 47.292-5.833 7.791-13.125 5.916-21.708 7.166 16.042-15.791 31.792-31.875 47.667-47.791 4.125-4.792 9.875-7 17.208-6.667ZM1663.92 808.042c-1.25 5.791-5.042 9.458-8.875 13.625-14.584 15.458-28.542 31.458-43 47.041-4.459-3.833-11.875-4.958-4.709-11.208 14.959-14.292 29.709-28.75 44.209-43.5 3.208-3.792 7.333-5.792 12.375-5.958ZM1674.62 817.5c4.083 1.833 8.083 3.75 12.083 5.75-14.5 20.458-34.291 37.792-49.875 57.708-6.625-2.25-12.041-4.875-17.583-9.125 18.917-17.625 36.375-36.833 55.375-54.333ZM1912.38 821.542c-18.125 21.583-37.458 40.875-63.208 53.166 9.791-12.375 22.25-22.583 33.041-34.125 8.459-9 19.334-13.083 30.167-19.041ZM1697.71 829.917c4.834.958 9.542 2.041 12.834 5.958-18.042 17.542-34.584 36.5-52.334 54.375-5.083-1.75-10.208-3.458-15.333-5.167 17.625-18.958 36.583-36.833 54.833-55.166ZM1728.08 838.25c-13.833 17.333-30.583 32.167-45.083 48.958-5.083 5.084-9.75 12.167-16.875 4.667 13.458-13.208 26.958-26.292 40.208-39.667 7.25-6.541 10.792-14.25 21.75-13.958ZM1869.42 839.417c-15.167 14.208-27.209 31.541-42.375 45.625-11.959 6.291-25.917 9.125-38.709 13.375 17.292-16.5 33.584-34.292 51.292-50.334 9.542-3.833 20.083-5.083 29.792-8.666ZM1745.29 842.875c-13.792 20.833-34.917 37.167-50.209 57.208-4.041-1-8.125-2.041-12.166-3.125 16.25-16.25 32.666-32.333 48.875-48.666 3.833-4.625 7.916-4.625 13.5-5.417ZM1770.29 848.375c-13.125 17.417-29.75 32.208-43.75 49.083-6.167 8.542-13.375 4.5-22.334 4.584 14-18.042 32.5-33.042 48.125-49.792 5.292-6.542 10.667-4.042 17.959-3.875ZM1824.04 848.208c-11.75 16.917-28.625 30.542-42.042 46.25-5.167 6.667-11.333 6.5-19.167 7.834 12.292-15.875 28.167-28.834 41.792-43.5 6.125-6.625 10.458-9.334 19.417-10.584ZM1799.79 850.375c-16.792 17.083-32.084 35.792-49.167 52.458-6.208.625-12.458.792-18.75.5 16.75-16.833 34.042-33.083 50.833-49.833 3.625-4.458 11.917-2.583 17.084-3.125ZM147.354 563.69c2.017 10.792 1.868 11.74-5.953 19.038-17.595 15.929-33.967 33.294-52.187 48.44-.023-8.011-5.247-19.373 3.533-24.383 18.173-14.355 35.703-29.703 54.607-43.095ZM147.011 535.089c1.858 9.484 1.726 10.315-5.327 16.701-15.869 13.934-30.628 29.134-47.065 42.379-.046-7.035-4.805-17.028 3.123-21.401 16.397-12.55 32.209-25.976 49.269-37.679ZM148.602 512.729c1.4 6.204 1.312 6.746-3.695 10.862-11.267 8.98-21.73 18.794-33.409 27.32-.084-4.592-3.566-11.148 2.082-13.945 11.655-8.073 22.885-16.722 35.022-24.237Z" style="fill:#fff;fill-rule:nonzero"/>
</svg>
