<svg xmlns="http://www.w3.org/2000/svg" xml:space="preserve" style="fill-rule:evenodd;clip-rule:evenodd;stroke-linejoin:round;stroke-miterlimit:2" viewBox="0 0 1813 1105">
  <path d="M1007.58 151.458c24.959 10.375 44.5 28.5 59.542 50.709 21.958-20.375 46.792-37.084 75.042-47.459 57.375-21.541 124.416-17.083 178.125 12.625 51.166 27.75 89.625 76.417 104.75 132.667 5.833 20.167 6.625 40.042 8.75 60.792 37 8.583 72.416 25.083 101.208 50.083 27.708 24.208 47.708 56.167 51.792 93.25 3.166 25.042-3.417 47.917-13 70.708 32.25 6.084 63 11.875 93.416 24.875 13.292 5.834 27.959 13.625 36.542 25.709 6.292 8.541 6.5 19.958.125 28.541-10.958 15.417-29.125 22.584-45.792 30-.916 11.5-2.25 21.292-11.791 29-22.834 19.875-57.75 27.917-86.125 36.292.083-4 20.541-28.375 28.416-40.625 3.042.875 6.084 1.708 9.167 2.5 0 0-10.083 16.917-17.75 25.375 16.292-3.75 22.458-14.125 31.708-26.667 0 0-50.375 34.375-51.541 39.417-2.75 2.333-179.125 20.417-259.667 14.958-10.75 8.042-19.042 19.042-29.917 27.042-31.583 25.792-72.166 37.042-112.625 33.792-10.958 16.958-23.875 31.375-40.916 42.416-12.834 7.834-16.917 20.292-26.959 30.834-21.291 22.708-49 36.625-78.291 46.166-60.917 18.875-127.292 18.75-187.875-1.5-32.542-11.458-62.709-28.041-83.334-56.5-47.333 13.334-95.416 22.417-144.75 23.167-66.708 2.375-136-4.958-199.166-27.417-9.417-2.875-19.209-9.291-29-5.75-33.125 8.75-66.875 12.875-101 15.375-65.209 2.709-134.417 1.959-198.042-13.916-16.792-4.459-36.25-10.375-49.5-22.084-7.917-6.916-9.542-18.5-2.208-26.458 11.041-12.125 34.916-44.833 50.083-49.792 0 0 30.667-19.25 46.208-24 52.25-14.083 108.209-17.166 162.125-17.166 7.5-15.709 16.167-30.417 29.042-42.334 11.792-11.958 25.542-17.458 34.833-31.625 10.625-15.708 24.709-28.208 40.334-38.791 50.875-34.167 116.083-50.5 176.291-57.542-9.416-37.958-10.291-78.167-.25-116.083 9.917-38.125 30.292-73.042 57.875-101.084 11.292-11.5 24.459-19.458 34.584-32.208 20.833-26.667 48.208-48.25 78.708-62.875 26.333-13.292 54.208-18.167 83.125-22.125 11.292-9.208 22.708-18.042 34.083-27.125 9.375-11.792 16.959-24.292 28.834-33.958 36.25-32.334 90.333-40.25 134.791-21.209Z" style="fill:#424242;fill-rule:nonzero"/>
  <path d="M1007.42 159.417c25.666 11.25 43.958 31 58.375 54.541 44.208-46.375 107.833-71.041 171.791-64.458 67.084 6.042 128.917 46.792 161.375 105.708 19.209 33.917 27.125 71.875 26.375 110.667 43.375 10.417 83.542 27.958 115.084 60.375 26.041 26.25 42.125 61.292 39.25 98.792-.834 20.541-9 37.583-17.125 55.958 33.416 4.708 67.666 11.625 99.083 24.292 13.083 5.541 28.75 13.25 36.875 25.375 4.25 6.791 3.292 14.333-1.5 20.5-9.75 12.208-26.583 19.666-40.792 25.291-39 14.584-81.75 21.292-122.958 26-62.5 6.459-125.833 7.584-188.458 2.209-4.709 5.208-9.375 10.5-13.834 15.916 1.875 7.042 19.417-7.291 26.584-8.625-11.375 13.584-23.625 26.417-35.334 39.667-4.25 5.333-8.791 5.833-15.25 6.917 6.584-10.375 24.843-35.038 24-37.959-35.041 36.209-95.291 53.709-143.5 42-15.958-3.791-29.375-10.958-44.375-17.25 7.75 13.209 14.125 26.25 16.167 41.709 7.958-10.084 9.208-21.417 24.792-20-4.375 6.625-9.25 12.875-14.25 19.041-3.459.375-7.084.584-10.542.959-1.708 14.125-3.583 27.708-11.583 39.833-18.292 29.667-54 48.708-86.292 59.208-58.542 18.334-124.667 18.209-182.958-1.041-34.292-11.167-63.542-29.75-85.25-58.875-12.584 4.375-25.25 7.916-38.25 10.791-1.417 5.75-2.042 11.042-6.667 15.292-8.75 9.417-17.125 19.167-26 28.417-6 6.666-16.375 6.5-24.625 8.458 14.667-15.292 29.5-36.833 50.083-43.875 2.375-1.667 5.223-5.171 7.209-8.292-31.834 6.917-72.334 13.042-104.917 14.167-71.708 2.792-147.375-5.833-214.375-32.625-7.083-2.875-10.917-2.792-18.25-.708-20.125 5.666-40.25 9.291-61.042 11.583 1.417 2.042 12.709 6.25 12.709 6.25-8.875 9.125-17.5 18.458-26.375 27.625 2.25 1.542 4.5 3.125 6.75 4.708 16.583-16.125 26.916-36 51.458-39-10.042 12.459-21 24.25-32.167 35.667-5.416 6.083-15.333 7.583-22.75 10.292-1.958-2.334-3.916-4.709-5.875-7.042-9.125 9.583-14.291 10.667-27.25 11.667 13-14.959 44.959-47.459 43.5-50.167-21.125 4.292-47.375 4.125-68.833 5-56.5 1.083-115.167-1.708-170.125-15.958-15.208-4.542-35.792-10.375-45.792-23.542-4.166-9.458 5.209-15.208 11.917-19.708 19.375-10.792 42.75-15.75 64.375-19.917 63-10.917 128.833-11.417 192.458-6.292-8.708-19.75-13.708-39.416-5.625-60.458 11.959-33.25 46.25-57.708 76.667-73 69.208-34.167 150.792-44.667 227.208-44.25-25.166-42.875-36.541-92.042-29.958-141.542 7.458-60.125 41.583-116 91.667-150.041 40.208-27.959 89-41 137.833-37.542 8.125-25.833 20.542-49.042 42.042-66.125 34.916-29.25 85.958-35.708 127.25-16.583Z" style="fill:#fff;fill-rule:nonzero"/>
  <path d="M608.5 395.125c-3.208 8.458-7 14.792-12.875 21.458-11.167 12.75-21.375 26.25-33.208 38.292 3.375-23.042 18.041-35.083 33.875-50.208 3.958-3.292 8.041-6.459 12.208-9.542ZM601.208 428.083C599.375 434 597 438.25 592.792 442.75c-11.625 12.5-22.667 25.75-35.167 37.333 1.417-6.125 1.167-11.666 6.25-16.125 12.167-12.166 23.875-25.125 37.333-35.875ZM600.042 449.167c-.209 4.208-.5 8.416-.834 12.625-12.416 15.916-27.041 30.166-39.75 45.916 1.459 3.584 3.584 4.334 6.417 2.125 11.917-10.958 21.958-23.5 34.875-33.416-.917 7.458-2.208 11.666-7.417 17-11.833 12.958-23.458 26.166-35.916 38.541 1.666-13-2.25-25.708-1.125-38.458 12.791-16.042 28.958-30.042 43.75-44.333ZM604.833 498.667c-1.5 9.5-8.083 14.5-14.166 21.166-11.209 11.125-19.209 22.959-32.417 31.834-1-13.709 8.667-17.834 16.792-26.542 9.958-9.292 18.041-19.208 29.791-26.458ZM608.125 514.792c.833 4.958.625 9.5-.625 13.625-10 12.375-22.708 25.75-34.292 36.708-3.791.917-7.666 1.708-11.583 2.292 1.208-6.25 2.292-10.834 7.208-15.209 12.917-12.541 25.084-26.375 39.292-37.416ZM614.417 535.292l.291 1.333c.625 2.958 1.209 5.958 1.792 8.958-5.667 6.834-11.833 13.042-18.083 19.334-5 .333-10 .666-15 1.041 10.291-10.291 20.541-20.541 31-30.666ZM326.042 688.583c-.25 17.542-12.584 24.167-23 36-1.959-1.833-14.167 7.417-18.709 13.625 3.792-8.75 6.292-17.041 15.417-21.666 12-7 16.625-18 26.292-27.959ZM1640.5 695.292c4.625-2.209-1.792 10.958-4.542 15.583-6.416 6.5-16.083 10.292-24.25 14.208 8.875-10.458 18.209-21.041 28.792-29.791ZM1603.38 706.208l8.333 3.625c-9.25 12.542-15.416 22.917-31.708 26.667 2.647-9.76 8.509-18.385 15.342-27.552l8.033-2.74ZM323.375 711.458c-.625 7.667-1.042 15.334-1.583 23 3.416 1.667 6.208 3.917 8.333 6.792-13.083.375-21.958-2.75-32.958-1.292 7.583-10.583 16.916-19.416 26.208-28.5ZM1377.75 712.5c-11.833 14.083-24.375 27.625-36.542 41.417-4.375 5.75-9.75 3.5-16.083 4.416 12.417-12.583 24.958-25 37.542-37.375 4.208-4.5 9.416-6.458 15.083-8.458ZM1399.21 712.958c-11.083 15.5-24.916 30.709-38.375 44.209-4.458 1.125-9.125 1.666-13.958 1.625 11.708-13.125 24.292-25.5 36.792-37.792 4.416-4.5 9.875-5.833 15.541-8.042ZM1444.75 712.917c-11.083 15.458-24.125 30.75-37.292 44.416l-11.25 1.584c15.125-15.75 29.709-34.709 48.542-46ZM1465.88 712.333c-10.333 16.375-24.625 30.667-36.958 45.667-4.167 0-8.292-.042-12.459-.042 16.459-14.708 30.167-34.708 49.417-45.625ZM1513.54 711.25c-9.084 13.542-19.542 26.333-30 38.833-3.375 5-12.417 3.709-17.709 4.834 10.709-12 22.334-23.125 33.625-34.625 4.167-4.417 8.375-6.917 14.084-9.042ZM1537.46 708.625c-7.708 14.833-19 28-30.125 40.417-4.958 1.708-10.125 2.875-15.5 3.583 9.917-12.75 22.125-24.083 33.667-35.458 3.917-2.959 7.875-5.834 11.958-8.542ZM1573.81 704.484c-7.708 14.834-19 28-30.125 40.417-4.958 1.708-10.125 2.875-15.5 3.583 9.917-12.75 22.125-24.083 33.667-35.458 3.917-2.958 7.875-5.833 11.958-8.542ZM1423.08 715.042c-10.625 15.541-23.708 28.791-35.666 43.5-6.042 0-12.084 0-18.125-.042 11.375-12.708 23.416-25.042 35.583-36.958 5.25-5.834 10.792-5.917 18.208-6.5ZM1488.29 712.375c-8.167 13.875-18.584 26.417-29.125 38.5-5.334 7.208-13.584 5.583-21.625 7.208 10.75-11.375 21.875-22.375 32.791-33.583 6-5.958 9.667-8.917 17.959-12.125ZM1288.54 761.208c-14.334 19.209-32.5 35.084-55.209 43.459 16.709-15.875 32-39.042 55.209-43.459ZM1207.12 771.917c-15.042 15.125-27.75 35.625-45.958 46.75 1.916-19.75 15.833-28.417 28.458-41.584 4.875-5.791 10.708-4.25 17.5-5.166ZM1253.83 770.833c-12.625 13.459-24.333 28.459-38.333 40.459-5.25 1.875-10.625 3.416-16.125 4.583 9.75-13.333 22.292-24.917 34.083-36.583 5.709-6.084 12.75-6.584 20.375-8.459ZM1227.42 773.917c-9.834 13.25-21.917 24.958-33.334 36.875-5.208 6.25-10.25 6.375-18.041 7.375 10.458-13.084 23.041-24.584 34.791-36.542 5.042-5.542 9.25-6.625 16.584-7.708ZM53.042 817.125c-8 8.25-16.25 16.25-25.209 23.458 1.834-16.666 12.125-18 25.209-23.458ZM89.542 817.833c3.75.625 7.5 1.542 11.166 2.709-4.875 5.333-21.416 22.416-24.791 25.708 0 0 8.708-22.75 13.625-28.417ZM68.119 804.788c3.75.625 7.5 1.541 11.167 2.708-4.875 5.333-21.417 22.417-24.792 25.708 0 0 8.709-22.75 13.625-28.416ZM119.25 824.208c-2.958 4.667-5.917 9.25-9 13.792l-1.25 1.875s-6.417 3.75-10.583 5.042c6.375-8.375 9.25-18.792 20.833-20.709ZM430.833 823.042c-13.291 17.083-29.458 31.833-43.875 47.958-3.5-1.625-7.041-3.292-10.541-4.917 11.958-12.291 23.583-25.041 36.25-36.583 5.208-5.125 11.416-5 18.166-6.458ZM75.25 827.708s-13.583 27.834-19.583 36.917c-4.25 1.292-10.084-2.083-14.417-2.792 11.125-11.583 22.208-23.25 34-34.125ZM137 829.083c-.542 7-4.917 11.709-11.792 12.959.167-7.5 3.75-13 11.792-12.959ZM437.583 828.375c4.375.792 8.709 1.625 13.042 2.5-12.75 17.125-28.542 31.792-42.292 48.083-5.041-2.166-10.083-4.291-15.125-6.416 15.084-14.417 28.959-30.125 44.375-44.167ZM47.792 831.083c-3.334 9.209-7.542 17.959-11.875 26.75-3.5-1.666-7.042-3.333-10.542-5 6.958-7.833 14.167-15.333 22.417-21.75ZM159.917 835.25c2.333 2.083 4.583 4.25 6.791 6.458-3.166.5-6.333 1.084-9.458 1.75C147 852.958 140 866 130.375 876.25c-4.292 5.5-8.625 2.958-14.375 2.208 15.167-13.833 28.625-29.541 43.917-43.208Z" style="fill:#fff;fill-rule:nonzero"/>
  <path d="m53.292 838.125-.875 1.125.875-1.125Z" style="fill:#424242;fill-rule:nonzero"/>
  <path d="m90.542 839.833 6.5-2.708C89.625 848.542 81.875 859.792 74.083 871c-4.083-.583-8.166-1.167-12.25-1.75 8.459-10.917 18.417-20.292 28.709-29.417Z" style="fill:#fff;fill-rule:nonzero"/>
  <path d="m109 839.875 1.25-1.875 2.125 1.292-3.375.583Z" style="fill:#424242;fill-rule:nonzero"/>
  <path d="m112.375 839.292 8.167-1.125c-9.709 12.208-18.709 24.916-28.209 37.25-4.041-.584-8.125-1.125-12.166-1.709 10.833-11.125 21.844-20.197 31.011-32.364l1.197-2.052ZM181.333 836.208c-6.666 14.167-17.916 26.167-27.125 38.792-4.375 7.042-10.666 9.458-18.916 7.292 14.416-16.042 29.416-32.334 46.041-46.084ZM191.75 837.5c.292 5.75-2.5 8.583-8.333 8.583-.209-5.708 2.583-8.541 8.333-8.583ZM199.583 840.292c4.584 1.791 9.209 3.625 13.792 5.458-4.833.333-9.625.708-14.417 1-7.75 9.708-15.166 19.583-23.125 29.042 2.25 1.583 4.5 3.166 6.75 4.708 12.084-14 25.292-26.375 38.375-39.458 3.334 1.416 6.625 2.833 9.959 4.291 3.958-1.541 7.958-3 11.958-4.458-4.75 6-9.792 11.625-15.167 17.042-1.25-2.917-2.833-5.459-4.791-7.584-9 8.875-15.75 24.959-25.375 34.542-8.792 2.167-16.292-.375-24.5-3.125-5.5.667-11 1.417-16.459 2.167 13.209-15.334 28-30.042 43-43.625ZM340.917 837.458c-11.625 13.209-23.375 26.334-35.292 39.25-4.708 5.584-12.417 5.125-19.042 6.959 11.75-13.625 24.875-26.042 37.792-38.542 4.583-4.875 10.417-5.792 16.542-7.667ZM152.898 830.84c-11.625 13.208-23.375 26.333-35.291 39.25-4.709 5.583-12.417 5.125-19.042 6.958 11.75-13.625 24.875-26.042 37.792-38.542 4.583-4.875 10.416-5.791 16.541-7.666ZM458.958 837.833c4-.833 8.167-.958 12.542-.375-14.167 15.292-28.333 30.959-43.375 45.417-4.208-.125-8.375-.792-12.583-1.917 14.375-14.375 28.083-29.833 43.416-43.125ZM782.625 837.125c-10.292 11.75-21.167 23.083-31.792 34.583-5.458 6.584-12.583 7.209-20.166 9.917 17.041-13.875 31-37.25 51.958-44.5ZM259.208 840.833c-12.041 16-26.333 30.417-39.916 45.084-4.5.125-9 .208-13.542.291 10.375-9.5 20.542-19.166 30.292-29.333 7.291-7.042 12.291-14.625 23.166-16.042ZM272.667 843.375c4.25-1.083 8.583-1.792 13-2.125-10.625 13.75-22.584 26.583-34.542 39.125-5.208 6.375-14.292 4.875-21.708 6.292 14.083-14.625 28.25-29.625 43.25-43.292ZM297.208 842.792c5.042-1.042 10.167-1.834 15.334-2.334-9.959 13.75-21.5 26.375-32.917 38.917-4.667 6.333-15.958 3.875-22.917 5.042 12.917-14.292 26.25-28.709 40.5-41.625ZM487.333 841.125c-11.5 13.625-24.125 26.25-35.666 39.875-5.334 6.958-8.834 6.25-17.417 6.667 11.875-14.125 25.917-26.459 38.875-39.584 4.25-4.5 8.208-5.875 14.208-6.958ZM800.042 841.042c-13.542 17.5-29.875 34.875-45.375 50.666-2.167-2.333-4.25-4.75-6.209-7.25 10.625-9.666 21.167-19.458 31.292-29.666 6.333-6 11.125-12.292 20.292-13.75ZM497.083 846.792c3.959-.334 7.959-.542 11.959-.584-12.917 16.459-28.042 31.209-42.209 46.625-4.583-.708-9.208-1.375-13.791-2.083 13.958-15.208 28.583-30.333 44.041-43.958ZM526.292 849c-7.209 11.708-17 20.25-26.167 30.25-8.375 8.167-12.25 17.292-25.583 16.958 9.291-10.5 19.625-19.791 29.416-29.791 6.959-6.875 12.792-13.959 22.334-17.417ZM723.333 850.625c-12.125 12.125-23.416 24.958-35.291 37.333-6 6.875-13.5 5.959-21.834 7.459 12-12.959 24.417-25.75 37.167-38 4.708-4.834 13.667-5.125 19.958-6.792ZM805.083 851.833c2.334 1.042 4.584 2.209 6.834 3.417-9.542 12.25-20.375 22.375-31.042 34.042-8.083 6.5-10.5 18.25-22.25 9.708 14.792-16.25 30-32.667 46.458-47.167ZM534.208 855.083c3.917-1.333 8.209-1.833 12.792-1.458-13.583 15.167-27.375 30.875-42.625 44.375l-12.042-.042c13-14.958 27.125-29.625 41.875-42.875ZM558.792 857.333c4.458-1.25 9.25-1.5 14.458-.708-10.958 13.875-23.708 26.333-36.042 38.958-6.416 7.667-14.625 4-23.416 4.417 14.833-14.292 29.333-29.292 45-42.667Z" style="fill:#fff;fill-rule:nonzero"/>
  <path d="M587.25 862.625c-8.375 12.917-21.417 23.125-32 34.333-5.375 6.167-10.375 6.5-18.167 7.375 11.709-14.708 25.542-27.708 39.042-40.75 2.667-2.583 12.125-9.708 11.125-.958Z" style="fill:#424242;fill-rule:nonzero"/>
  <path d="M604.292 858.833c4.166-.125 8.333-.208 12.541-.25-13.291 14.625-26.708 29.167-39.541 44.167-6.5.083-13 .083-19.542.083 15.833-14.333 30.458-29.958 46.542-44ZM637.875 857.375c-10.583 13.375-22.833 25.417-34.125 38.167-4.583 5.75-10 7.083-16.792 8.916 10.584-13.041 23.417-24.375 35.125-36.541 4.792-5.084 9.25-8.042 15.792-10.542ZM651.417 859.458c4.791-.791 9.625-1.333 14.5-1.625-11.792 14.5-25.25 27.542-37.042 42.125-6.583.542-13.125 1-19.708 1.459 13.375-14.542 27.5-28.834 42.25-41.959ZM695.875 854.875c-11.625 13.083-23.708 25.958-36.333 38.042-6 6.083-13.667 5.333-21.584 6.916 12.292-12.458 24.584-25 37.084-37.208 6.083-6.417 12.375-6.833 20.833-7.75ZM816.75 863.042l8.542 3.166c-15 15.417-29.417 31.875-45.542 46.125l-8.875-3.958c15.25-15.083 29.792-31.167 45.875-45.333ZM836.958 871.875c-8.458 13.625-21.916 24.5-32.625 36.583-6.375 5.334-9.791 14.167-19.5 10 10.709-13.125 23.292-23.916 34.917-36.166 5.5-5 8.958-10.792 17.208-10.417ZM845.083 879c3.25 1.542 6.5 3.167 9.75 4.792-14.333 15.041-27.666 31.25-42.666 45.583-4.834-1.292-9.584-2.792-14.25-4.542 15.375-15.583 30.916-31.166 47.166-45.833ZM871.208 888.125c-6.916 13.75-21.083 23.625-31.041 35.333-6.292 5.125-12.459 17.25-21.375 9.584 11.25-14.125 25.041-26.209 37.5-39.292 5.083-5.25 7.541-5.875 14.916-5.625ZM1070.12 891.167c-6.292 9.791-12.417 20.916-21.083 28.75-10.5 7.5-23.792 11.625-35.625 16.5 11.583-11.334 22.75-23.209 34.416-34.5 6.209-6.542 14.042-8.167 22.292-10.75ZM879.375 893.75c4.083.875 8.167 1.792 12.25 2.708-14.333 15.209-29.042 30-42.958 45.625-4.625-1.25-9.209-2.541-13.792-3.875 14.25-15.291 29.083-30.291 44.5-44.458ZM908.333 899.542c-11.791 13.416-24.333 26.25-36.916 38.916 2.416 1.584 4.833 3.167 7.25 4.75 10.208-11.333 21.083-22 31.958-32.625 4.5-4.75 8.792-6.333 15.167-7.625-13.875 15.5-28.125 31.875-44 45.25-10-3.791-15.584-4.875-26.75-3.041 11.875-13.875 25.416-26.334 38.333-39.292 4.542-5 8.417-5.667 14.958-6.333ZM948.458 905.125c-13.833 14.875-28.25 29.125-41.541 44.542-5.375.083-10.75.208-16.084.291 12.792-13.833 26-27.416 39.459-40.625 5.083-6 11.125-3.458 18.166-4.208ZM975.292 906.333c-11.834 15.584-26.584 28.459-39.125 43.5a831.21 831.21 0 0 1-20.334.5c12.5-12.875 25.209-25.625 38.084-38.166 6.041-6.834 13.166-4.75 21.375-5.834ZM1031.29 901.333c-8.125 11.5-16.584 22.875-25.792 33.5-6.25 8.292-17.5 7.584-26.708 10.209 10.625-12.75 22.541-24.459 34.458-35.959 5-5.458 11.167-6.208 18.042-7.75ZM987.708 907.375c5.834-1.292 11.75-2.125 17.792-2.458-10.542 13.166-22.25 25.375-34.083 37.416-6.042 7.417-17.75 6.167-26.459 7.875 13.75-14.541 27.292-30.083 42.75-42.833Z" style="fill:#fff;fill-rule:nonzero"/>
</svg>
