<?xml version="1.0" encoding="UTF-8" standalone="no"?><!DOCTYPE svg PUBLIC "-//W3C//DTD SVG 1.1//EN" "http://www.w3.org/Graphics/SVG/1.1/DTD/svg11.dtd"><svg width="100%" height="100%" viewBox="0 0 7555 4605" version="1.1" xmlns="http://www.w3.org/2000/svg" xmlns:xlink="http://www.w3.org/1999/xlink" xml:space="preserve" xmlns:serif="http://www.serif.com/" style="fill-rule:evenodd;clip-rule:evenodd;stroke-linejoin:round;stroke-miterlimit:2;"><path d="M4198.25,631.075c103.996,43.229 185.417,118.75 248.092,211.288c91.491,-84.896 194.966,-154.517 312.675,-197.746c239.062,-89.755 518.4,-71.18 742.187,52.604c213.192,115.625 373.438,318.404 436.459,552.779c24.304,84.029 27.604,166.842 36.458,253.3c154.167,35.763 301.733,104.513 421.7,208.679c115.45,100.867 198.783,234.029 215.8,388.542c13.192,104.342 -14.238,199.654 -54.167,294.616c134.375,25.35 262.5,49.48 389.234,103.646c55.383,24.309 116.495,56.771 152.258,107.121c26.217,35.588 27.083,83.158 0.521,118.921c-20.429,82.578 -200.175,213.717 -239.929,245.833c-95.142,82.813 -240.625,116.321 -358.855,151.217c-7.26,2.143 -746.354,85.071 -1081.94,62.325c-44.792,33.508 -79.342,79.342 -124.655,112.675c-131.595,107.467 -213.433,147.055 -382.012,133.514c-45.658,70.658 -151.888,185.367 -222.892,231.371c-41.846,54.137 -351.346,233.727 -473.391,273.482c-253.821,78.646 -530.384,78.125 -782.813,-6.25c-135.592,-47.742 -261.287,-116.838 -347.225,-235.417c-197.221,55.558 -397.567,93.404 -603.125,96.529c-277.95,9.896 -566.667,-20.658 -829.858,-114.237c-39.238,-11.979 -80.038,-38.713 -120.834,-23.959c-138.02,36.459 -278.645,53.646 -420.833,64.063c-271.704,11.287 -560.071,8.162 -825.175,-57.984c-69.967,-18.579 -151.042,-43.229 -206.25,-92.016c-32.987,-28.817 -39.758,-77.084 -9.2,-110.242c46.004,-50.521 145.483,-186.804 208.679,-207.467c0,0.001 127.779,-80.208 192.534,-99.999c217.708,-58.68 450.87,-71.526 675.52,-71.526c31.25,-65.454 67.363,-126.737 121.009,-176.391c49.133,-49.825 106.425,-72.742 145.137,-131.771c44.271,-65.45 102.954,-117.533 168.059,-161.629c211.979,-142.363 483.679,-210.417 734.545,-239.759c-39.233,-158.158 -42.879,-325.695 -1.041,-483.679c41.321,-158.854 126.216,-304.341 241.146,-421.183c47.05,-47.917 101.912,-81.075 144.1,-134.2c86.804,-111.113 200.866,-201.042 327.95,-261.979c109.72,-55.384 225.866,-75.696 346.354,-92.188c47.05,-38.366 94.616,-75.175 142.012,-113.021c39.063,-49.133 70.663,-101.216 120.142,-141.491c151.042,-134.725 376.387,-167.709 561.629,-88.371Z" style="fill:#424242;fill-rule:nonzero;"/><path d="M4197.58,664.238c106.942,46.875 183.159,129.166 243.23,227.254c184.2,-193.23 449.304,-296.005 715.795,-268.575c279.517,25.175 537.154,194.966 672.396,440.45c80.038,141.32 113.021,299.479 109.896,461.112c180.729,43.404 348.092,116.492 479.517,251.563c108.504,109.375 175.521,255.383 163.541,411.633c-3.475,85.588 -37.5,156.596 -71.354,233.158c139.234,19.617 281.942,48.438 412.846,101.217c54.513,23.088 119.792,55.208 153.646,105.729c17.708,28.296 13.717,59.721 -6.25,85.417c-40.625,50.867 -110.763,81.942 -169.967,105.379c-162.5,60.767 -340.625,88.717 -512.325,108.333c-260.416,26.913 -524.304,31.6 -785.241,9.205c-19.621,21.7 -39.063,43.75 -57.642,66.316c-16.123,19.583 -397.046,223.788 -597.917,175c-66.491,-15.796 -122.396,-45.658 -184.896,-71.875c32.292,55.038 58.855,109.375 67.363,173.788c1.132,8.571 -14.929,115.45 -48.263,165.971c-76.216,123.612 -225,202.95 -359.55,246.7c-243.925,76.391 -519.445,75.87 -762.325,-4.338c-142.883,-46.529 -264.758,-123.958 -355.208,-245.312c-52.433,18.229 -105.208,32.983 -159.375,44.962c-13.335,2.43 -301.392,54.342 -437.154,59.029c-298.784,11.634 -614.063,-24.304 -893.229,-135.937c-29.513,-11.979 -45.488,-11.634 -76.042,-2.95c-83.854,23.608 -167.708,38.712 -254.342,48.262c-11.486,1.266 -197.396,17.188 -286.804,20.834c-235.417,4.512 -479.862,-7.117 -708.854,-66.492c-63.367,-18.925 -149.133,-43.229 -190.8,-98.092c-17.358,-39.408 21.704,-63.366 49.654,-82.116c80.729,-44.967 178.125,-65.625 268.229,-82.988c262.5,-45.487 536.804,-47.571 801.909,-26.217c-36.284,-82.291 -57.117,-164.233 -23.438,-251.908c49.829,-138.542 192.708,-240.45 319.446,-304.167c288.367,-142.362 628.3,-186.112 946.7,-184.375c-104.858,-178.645 -152.254,-383.508 -124.825,-589.758c31.075,-250.521 173.262,-483.333 381.946,-625.171c167.533,-116.496 370.833,-170.833 574.304,-156.425c33.854,-107.637 85.592,-204.341 175.175,-275.521c145.483,-121.875 358.158,-148.783 530.208,-69.095Z" style="fill:#fff;fill-rule:nonzero;"/><path d="M454.167,3499.48l5.208,-7.812l8.854,5.383l-14.062,2.429Z" style="fill:#424242;fill-rule:nonzero;"/></svg>