<svg xmlns="http://www.w3.org/2000/svg" xml:space="preserve" style="fill-rule:evenodd;clip-rule:evenodd;stroke-linejoin:round;stroke-miterlimit:2" viewBox="0 0 1346 1084">
  <path d="M612.5 75.083c29.583-2.625 59.042 6.625 79 29.125 19.208 20.584 26.875 46.209 30.208 73.542 53-48.917 117.959-85.667 190.75-92.917 31.334.459 64.125 9.875 86.709 32.667 10.291 10.083 14.916 22.958 18.875 36.5 8.958 31.875 7 66.292-9.459 95.458 13.584-7.708 27.125-15.083 42.25-19.416 34.375-10.25 71.584-18.667 107.5-13.292 26.084 4.042 50.125 16.917 65.5 38.708 17.375 25.042 17.709 60.834 1.917 86.709-11.542 19.208-28.417 32.791-46.667 45.166-11.5 6.834-16.541 21.334-25.291 31.792 29.208 7.042 55.083 21.75 78.583 40.167 14.167 10.458 24.292 27.416 32.542 42.708 18.25 35.333 23.291 78.625 11.666 116.792-11.666 36.166-37.333 67.791-68.375 89.333-9.625 6.5-14.375 15.708-21.5 24.5-33.916 40.75-81.625 68.792-136.208 63.958-18.042 30.959-42.708 57.042-71.292 78.5-15.625 19.334-33.125 40.375-53.583 54.834-28.75 17.958-61.792 33.291-96.542 29.666-28.125-2.666-49.375-17.458-69.916-35.583-14.25 18.75-31.75 32.958-50 47.542-25.834 33.958-58.875 67.125-101.375 78.375-34.167 7.833-72.417 2.75-99.875-20.167-32.917-25.875-51.25-63.292-58.5-103.958-13.917 9.625-22.959 23-34 35.458-23.709 26.208-54.334 50.667-90.417 55.583-20.083 3.584-39.583-4.833-56.958-13.958-17.375-9.5-31.042-24.458-36.75-43.625-19.75-59.583-13.584-128.292 7.583-186.75-31 18.083-71.625 15.375-98.708-8.542-15.584-14.708-20.084-39.208-18.667-59.708 1.75-34.417 19.5-67.792 38.875-95.542-33.083 2.292-64.917 1.25-93.833-16.875-16.75-10.75-30.084-26.125-34.459-45.916-8.958-36.209 1.542-76.917 24.792-105.75 11.833-14.334 27-23.167 42.25-33.209 6.292-7.625 9.875-17.25 16.208-24.958 23.125-27.083 55.084-44.625 90.792-47.583.75-26.292 2.125-51.542 9.167-77.042 8.625-28.208 26.083-53.958 48.666-72.792 10.375-9 22-12.375 29.125-24.791 18.167-28.834 46.959-51.917 79.667-61.917 22.75-6.583 48.542-5.792 69.5 6 22.25 12.375 35.625 32.833 44.833 56 15.75-9.708 22.25-24.875 35.042-37.75C546.25 95.917 575.792 76.25 612.5 75.083Z" style="fill:#383838;fill-rule:nonzero"/>
  <path d="M85.549 452.502c.734 2.48 1.428 4.995 2.085 7.507-15.874 18.298-32.26 36.228-48.707 54.033-1.997-5.172-3.261-10.675-2.752-16.037 17.351-15.545 31.701-30.386 49.374-45.503ZM85.244 428.4c.524 1.771 1.02 3.567 1.49 5.361-11.343 13.068-23.052 25.873-34.805 38.589-2.64-2.352-4.08-7.286-2.955-11.079 12.398-11.102 23.641-22.075 36.27-32.871ZM641.792 84.875c29.958 5.833 52.041 28.417 63.041 56.042 6.959 17.875 7.875 35.541 9.959 54.375 49.041-47 104.416-84.167 171.916-98.209 37.792-10.166 87.75 1.042 112.375 33.125 23.625 41.125 23.375 101.125-14.583 134.125 26.708-2.625 44.5-20.041 69.583-26.666 33.75-9.875 72.667-18.875 107.75-11.917 26.75 5.083 53.334 22.917 62.917 49.208 7.875 23 4.75 49.292-9.958 68.959-24.709 34.583-71.125 51.208-98.584 78.583 45.084 1.083 86.125 20.542 119.209 50.375 31.208 35.5 45.625 84.75 36.5 131.375-7.542 35.417-29.917 66.25-57.542 89.042-21.375 17.083-45.125 30.25-72.625 33.833-29.042 4.333-58.625-.583-80.5-21.292 5.333 53.417-19.333 100.042-56.583 136.334-18.042 20.083-41.417 32.541-66.334 42.083-24.125 9.125-52.458 10.333-76.125-.833-28.25-12.917-47.958-35.459-63.291-61.875-13.209 58.791-49.375 115.291-101.5 146.666-38 24.084-94.292 22.625-128.125-8.416-28.875-24.584-46.292-59.834-51.125-97.209-.834-7.541-2.5-13.583-5.959-20.333-14.333 14.625-24.083 33.167-38.291 48.125-25.584 29.708-61.792 59.875-103.25 58.542-17.667-2.25-40.459-12.375-53.709-24.375-15.958-14.167-19.791-33.834-24.416-53.75-11.167-58.167-2-116.209 19.916-170.667-18.291 2.25-31.625 14.708-49.958 15.333-21.083 1.375-43.083-4.458-58.333-19.666-11.917-12.875-15.167-33.084-14.292-49.959 1.708-39.291 25-78.291 49.417-108-29.167 3.75-61.167 6.209-89.334-4.166-19.416-6.834-38.291-20.792-46.583-40.167-13.167-33.958-4.333-74.125 16.125-103.333 26.875-34.209 72.375-54.667 115.833-45.375 20.584 4.458 35.292 15.916 53 26.25-13.708-46.417-16.958-93.209-10.791-141.209 4.125-58.166 48.25-113.208 105.666-126.041 27.917-6.459 57.5 2.458 76.042 24.5 16 17.333 21.875 38.666 24.125 61.625C505.458 156 524.5 124 559.208 100.875c23.875-16.375 54.417-21.042 82.584-16Z" style="fill:#fff;fill-rule:nonzero"/>
  <path d="M267.167 266.792c-.709 10.708-7.834 16-14.167 23.666-13.125 14.5-25.25 30.167-39.25 43.834 1-7.292-.292-13.709 5.333-19.334 15.875-16.125 31.584-32.708 48.084-48.166ZM271.755 218.716c-.711 8.825-7.866 13.186-14.226 19.504-13.18 11.951-25.356 24.862-39.414 36.126 1.004-6.01-.293-11.298 5.355-15.934 15.942-13.289 31.716-26.956 48.285-39.696ZM267.292 292.792c-.459 5.875-2.5 10.583-6.042 14.208-8.375 9.708-17.042 19.167-25.5 28.792-3.625-.084-7.292-.167-10.917-.292 13.417-14.75 27.792-29.208 42.459-42.708ZM277.011 191.779c-.891 5.826-3.274 10.37-7.073 13.724-9.069 9.065-18.409 17.858-27.555 26.833-3.609-.351-7.259-.704-10.865-1.096 14.468-13.721 29.87-27.079 45.493-39.461ZM269.542 316.125c0 3.708 0 7.417-.042 11.125-4.042 4.833-8.042 9.708-12.042 14.583-4-.541-8-1.125-11.958-1.708 7.042-9.125 14.708-17.167 24.042-24Z" style="fill:#fff;fill-rule:nonzero"/>
  <path d="M55.583 462.542c2.209 1 2.209 1 0 0Z" style="fill:#383838;fill-rule:nonzero"/>
  <path d="M92 471.208c-2.042 6.167-4.667 11.167-8.917 16.125-14.958 18-29.541 36.292-44.333 54.375-.458-5.666-.917-11.333-1.375-17 18.292-17.666 35.25-37.083 54.625-53.5ZM95.167 495.167c1.125 2.541 2.208 5.125 3.25 7.708-15.875 21.083-32.375 41.833-48.959 62.458-2.875-5.25-5.75-10.5-8.583-15.75 17.875-18.333 36-36.5 54.292-54.416ZM108.417 515.417l5.083 8c-15.833 19.416-31.542 39-47.75 58.083-4.042-3.625-8.042-7.25-12.042-10.875 18-18.583 36.459-36.833 54.709-55.208ZM125.667 531.917c3.791 1.791 7.625 3.583 11.458 5.375C120 555.5 103.792 574.5 87 593c-5.208-2.333-10.417-4.708-15.583-7.083 18.208-17.875 36.625-35.542 54.25-54ZM261.421 246.978c2.197 2.303 4.422 4.613 6.647 6.922-15.686 14.662-30.92 30.222-46.444 45.214-3.749-.639-6.533-5.521-6.274-9.694 16.354-14.174 29.988-27.621 46.071-42.442ZM150.042 542.292c3.791 1.041 7.583 2.083 11.375 3.166-16.042 18.417-33 35.959-48.875 54.584-5.834-1.417-11.667-2.834-17.5-4.25 18.375-17.667 35.791-36.75 55-53.5ZM190.042 548.667c-13.875 16.5-28.834 32.083-43.25 48.083-5.584 7.5-16.167 3.458-24.334 4.167 10.792-11.209 22.25-21.75 33.25-32.709 11.542-10.125 16.375-22.583 34.334-19.541ZM220.792 547.75c-11.209 16.792-25.5 31.667-39.542 46.083-5.708 7.167-19.083 5.125-27.167 6.75 9.417-10.25 19.542-19.75 29.334-29.625 12.25-11.375 18.166-24.083 37.375-23.208ZM195.958 590.833c-4.541 10.959-8.208 21.417-16.916 29.959-12.75 12.875-24.959 26.291-38.084 38.833 5.792-12.333 11.042-25.542 20.834-35.292 11.291-11.208 22.625-22.5 34.166-33.5ZM188.167 678.5c-2.875 5.958-6.417 10.625-11.084 15.25-14.75 15.083-29.25 30.417-42.916 46.542-.792-3.125-1.584-6.209-2.375-9.334 19.125-16.958 36.083-36.916 56.375-52.458ZM183.752 662.343c-2.875 5.958-6.417 10.625-11.083 15.25-14.75 15.083-29.25 30.417-42.917 46.542-.792-3.125-1.583-6.209-2.375-9.334 19.125-16.958 36.083-36.916 56.375-52.458ZM196.625 695c-3.958 10.417-11.792 16.208-19.125 24.083-11.833 12.084-22.625 25.042-34.75 36.834-1.708-3.042-3.417-6.042-5.167-9.042 14.625-13.458 28.875-27.292 42.875-41.458 5.125-4.709 8.542-9.917 16.167-10.417ZM203.167 706.167l5.041 3.083-.541 2.833c-15.959 18.667-34.709 35.209-51.084 53.584-2.708-2.042-5.375-4.084-8.083-6.167 18.708-17.208 35.417-36.75 54.667-53.333ZM181.313 637.786l5.042 3.084-.542 2.833c-15.958 18.667-34.708 35.208-51.083 53.583-3.586.211-6.358-2.237-5.254-6.592 18.708-17.209 32.587-36.324 51.837-52.908ZM224.792 717.083c-16.542 18.542-34.334 35.875-50.417 54.875-4.208-.708-8.417-1.416-12.625-2.125 15.083-16.708 31.708-32 47.375-48.166 6.125-5.959 6.958-6.542 15.667-4.584ZM234.333 722.042c3.5.083 7 .166 10.5.333-16.5 17.542-31.958 36.542-49.25 53.167-4.875.041-9.75-.084-14.625-.417 17.542-17.875 35.334-35.667 53.375-53.083ZM1183.83 722.792c-14.708 19.916-34.5 36.458-55.875 48.833 10.375-12.417 22.459-23.375 33.667-35 6.167-6.75 13.833-10.5 22.208-13.833ZM270.042 721.833c-11.834 13.917-24.584 27.084-36.834 40.667-6.791 7.833-15.625 10.75-25.375 13.125 14.334-15.167 29.667-29.458 44.25-44.417 5-5.625 10.959-7.208 17.959-9.375ZM1084.21 730.417c2.959.875 5.875 1.791 8.834 2.708-9.875 12.583-20.584 24.458-30.709 36.875 3.25-18.25 7.209-27.792 21.875-39.583ZM290.167 742.208c-2.542 9.084-3.709 17.584-10.75 24.542-14.667 15.167-28.834 30.75-43.834 45.542 2.792-8.834 3.625-21.667 11.084-28.125 14.666-13.834 29.291-27.667 43.5-41.959ZM283.042 775.417c-1.584 8.583-.334 18.916-7.209 25.25-15.583 16.291-31.125 32.583-46.625 48.916 1.792-8.916.959-22.375 8.292-28.791 15.083-15.209 30.542-30.084 45.542-45.375ZM279.5 811.083c-.083 6.042-.167 12.042-.292 18.084-17.458 17.958-34.416 36.375-52 54.166 1.25-9.083-1.875-22.416 6.542-28.541 15.542-14.25 30.375-29.25 45.75-43.709ZM281.792 841.958c-1.209 12.5-9.542 18.25-17.25 26.792-12.334 12.667-24.042 25.875-35.875 39.042-.542-5.375-.417-10.584.333-15.667 13.667-14.208 28.625-27.25 42.417-41.417 3.375-3 6.833-5.916 10.375-8.75ZM809.417 852.917c2.916 2.916 5.791 5.916 8.625 8.916-18.167 18.834-35.042 39.25-54.292 57.042 16.625-22.792 23.583-47.625 45.667-65.958ZM509.625 859.042c1.417 5.916 1.417 11.083-.042 15.458-16.083 19.375-34 37.458-51.208 55.875-.75-8.375-1.25-11.083 5.083-16.917 14.167-13.916 26.542-28.833 38.25-44.833 2.625-3.25 5.25-6.417 7.917-9.583ZM283.292 864.5c1 8.375 2.791 12.833-4 19-15.834 16.25-31.542 32.625-46.875 49.333-.709-5.416-1.417-10.791-2.084-16.208 17.834-17.208 34.959-35.125 52.959-52.125ZM830.625 870.458c-15.792 20.959-35.792 38.417-52.292 58.875-2.708-2.458-5.416-4.916-8.125-7.333 15.584-14.125 30.334-29.25 45.084-44.208 5.041-4.334 7.666-9.375 15.333-7.334ZM1149.85 734.936c-13.468 17.575-23.573 28.553-39.863 43.867-2.445 2.298-9.353 1.38-11.663-.646 9.005-14.369 21.264-25.076 33.844-37.619 4.3-3.634 11.144-7.314 17.682-5.602ZM837.458 879c3.917 2.208 7.834 4.5 11.709 6.833-16.834 18.75-34.459 36.792-51.125 55.75-4.959-2.708-9.875-5.458-14.834-8.208 18.167-18.042 35.875-36.583 54.25-54.375ZM962.167 883.042c-14.584 16.958-30.709 34.875-50.459 45.875 16.042-15.167 30.584-36 50.459-45.875ZM516.292 886.625c2.166 13.208-8.25 17.667-15.584 26.583-12.625 12.375-23.416 26.917-37 38.167-.791-4.417-1.541-8.833-2.333-13.25 18.75-16.583 35.208-36.083 54.917-51.5ZM288.167 888.25c1.125 3.583 2.25 7.208 3.375 10.792-17.625 19.083-36.167 37.666-52.5 57.791-1.5-5.291-3-10.625-4.5-15.916 15.083-14.792 30.291-29.5 45.166-44.459l8.459-8.208ZM871.5 895.667c-16.542 18.125-32.417 37.75-50.458 54.291-5.875-1.333-11.625-3.166-17.417-5 16.583-16.625 33.083-33.416 49.708-50 5.542-6.625 11.375-.666 18.167.709ZM896.083 899.375c-13 16.25-27.875 31.042-41.916 46.458-6.667 8.209-14.709 5.459-24.084 6.417 11.917-12.125 24.334-23.75 36.292-35.875 9.875-8.833 14.167-19.708 29.708-17ZM925.375 896c-9.292 12.875-18.958 25.542-29.042 37.75-7.916 10.208-25.583 12.5-36.875 16.417 14.834-15.375 30.042-30.417 45.125-45.542 5.667-6.083 13.125-5.958 20.792-8.625ZM1124.76 733.766c-9.291 12.875-18.958 25.542-29.041 37.75-7.917 10.208-25.584 12.5-36.875 16.417 14.833-15.375 30.041-30.417 45.125-45.542 5.666-6.083 13.125-5.958 20.791-8.625ZM522.875 908.292c1.167 3.875 2.292 7.75 3.458 11.625-17.75 18.291-34.958 37.083-52.208 55.791-2.375-5.291-4.708-10.541-7.042-15.833 19.417-16.292 36.417-35.25 55.792-51.583ZM296 911.5c2.625 3.625 5.167 7.375 7.667 11.083-18.084 18.334-35.334 37.542-53.042 56.25-3.083-4.916-6.167-9.875-9.208-14.833 18.916-16.792 36.125-35.292 54.583-52.5ZM531.25 929.417c2.167 1.916 4.292 3.833 6.333 5.875-18.041 18.791-35.708 38.041-53.958 56.666-1.958-3.125-3.917-6.25-5.875-9.375 17.333-18.125 35.542-35.625 53.5-53.166ZM311.042 930.208l8 6.875c-17.209 18.667-34.5 37.292-51.75 55.875-3.917-3-7.834-6.041-11.75-9.083 19-17.375 37.166-35.625 55.5-53.667ZM328.042 942.625c4.75 2.417 9.5 4.833 14.25 7.25-17.167 18.042-34 36.333-50.709 54.833-6-2.5-11.875-5.333-17.625-8.375 18.167-17.791 35.959-35.916 54.084-53.708ZM542.417 943.5c3.041 3.667 6.041 7.375 9 11.083-17.292 18.709-35.167 36.875-52.667 55.417-3.75-4.167-7.5-8.333-11.25-12.5 18.583-17.708 36.292-36.333 54.917-54ZM416.125 947.417c-14.875 19.208-33.75 35.458-54.25 48.416 10.833-12.875 23.25-24.458 34.958-36.541 5.625-5.917 11.584-9.125 19.292-11.875ZM358.667 953.542c-12.125 14.541-25.917 27.625-38.125 42.125-7.25 7.25-9.792 15.333-21.959 12.458 12.125-14.583 26.5-27 39.459-40.917 6.625-6.208 10.625-13.375 20.625-13.666ZM390.667 955.333c-14.542 13.959-28 28.917-42 43.375-7.917 8.917-18.375 8.167-29.292 10.5 15.375-16 31.292-31.5 47-47.125 5.333-6.291 16.75-5.125 24.292-6.75ZM563.375 961.708c-2.5 4.959-5.25 9.334-9.208 13.292-14.5 15-29.709 30-42.959 46.083-2.666-1.833-5.291-3.708-7.916-5.541 15.791-14.667 31.458-29.459 46.583-44.875 4.042-4.209 8.042-6.75 13.5-8.959ZM570 971.125c2.792 1.75 5.5 3.542 8.25 5.375-17.75 18.542-35.542 37-53.292 55.458-3.041-2.291-6.083-4.625-9.125-6.958 18.459-17.583 35.584-36.5 54.167-53.875ZM592.833 982.875c-12.166 14.667-26.083 27.833-38.75 42.083-7.333 6.667-10.166 15.75-21.875 12.125 9.167-15.041 25.167-25.625 36.834-38.75 7.208-6.083 13.166-17.291 23.791-15.458ZM616.167 990.708c-16.084 18.625-33.459 36.25-50.125 54.375-5.792-1.25-11.625-2.5-17.417-3.75 16.917-16.833 33.958-33.541 50.875-50.375 3.042-4.708 12-.166 16.667-.25ZM638.167 991.583c-14.209 19.042-32.25 35.209-48.042 53.042l-14.25.75c16.083-15.5 31.833-31.292 47.792-46.917 4.125-4.416 8.791-5.583 14.5-6.875ZM668.968 988.582c-14.208 19.041-29.127 35.954-48.458 52.3-3.729 3.152-10.26 4.058-13.833 1.491 16.083-15.5 31.833-31.291 47.791-46.916 4.125-4.417 8.792-5.584 14.5-6.875Z" style="fill:#fff;fill-rule:nonzero"/>
</svg>
