<?xml version="1.0" encoding="UTF-8" standalone="no"?><!DOCTYPE svg PUBLIC "-//W3C//DTD SVG 1.1//EN" "http://www.w3.org/Graphics/SVG/1.1/DTD/svg11.dtd"><svg width="100%" height="100%" viewBox="0 0 5609 4517" version="1.1" xmlns="http://www.w3.org/2000/svg" xmlns:xlink="http://www.w3.org/1999/xlink" xml:space="preserve" xmlns:serif="http://www.serif.com/" style="fill-rule:evenodd;clip-rule:evenodd;stroke-linejoin:round;stroke-miterlimit:2;"><path d="M2552.08,312.846c123.263,-10.938 246.009,27.604 329.167,121.354c80.033,85.767 111.979,192.538 125.867,306.425c220.833,-203.821 491.495,-356.946 794.791,-387.154c130.559,1.912 267.188,41.146 361.288,136.112c42.879,42.013 62.15,95.659 78.646,152.084c37.325,132.812 29.166,276.216 -39.413,397.741c56.6,-32.116 113.021,-62.845 176.042,-80.9c143.229,-42.708 298.267,-77.779 447.917,-55.383c108.683,16.842 208.854,70.488 272.916,161.283c72.396,104.342 73.788,253.475 7.988,361.288c-48.092,80.033 -118.405,136.629 -194.446,188.192c-47.917,28.475 -68.921,88.891 -105.379,132.466c121.7,29.342 229.512,90.625 327.429,167.363c59.029,43.575 101.216,114.233 135.591,177.95c76.042,147.22 97.046,327.604 48.609,486.633c-48.609,150.692 -155.554,282.463 -284.896,372.221c-40.104,27.083 -59.896,65.45 -89.583,102.083c-141.317,169.792 -340.105,286.633 -567.534,266.492c-75.175,128.996 -177.95,237.675 -297.05,327.083c-65.104,80.558 -138.021,168.229 -223.262,228.475c-119.792,74.825 -257.467,138.713 -402.259,123.608c-117.187,-11.108 -205.729,-72.741 -291.316,-148.262c-59.375,78.125 -132.292,137.325 -208.334,198.092c-107.641,141.491 -245.312,279.687 -422.395,326.562c-142.363,32.638 -301.738,11.458 -416.146,-84.029c-137.154,-107.813 -213.542,-263.717 -243.75,-433.158c-57.988,40.104 -95.663,95.833 -141.667,147.741c-98.787,109.2 -226.392,211.113 -376.737,231.596c-83.68,14.934 -164.93,-20.137 -237.325,-58.158c-72.396,-39.583 -129.342,-101.908 -153.125,-181.771c-82.292,-248.262 -56.6,-534.55 31.595,-778.125c-129.166,75.346 -298.437,64.063 -411.283,-35.592c-64.933,-61.283 -83.683,-163.366 -77.779,-248.783c7.292,-143.404 81.25,-282.467 161.979,-398.092c-137.846,9.55 -270.487,5.209 -390.971,-70.312c-69.791,-44.792 -125.35,-108.854 -143.579,-191.317c-37.325,-150.871 6.425,-320.487 103.3,-440.625c49.304,-59.725 112.5,-96.529 176.042,-138.371c26.216,-31.77 41.146,-71.875 67.533,-103.991c96.354,-112.846 229.517,-185.938 378.3,-198.263c3.125,-109.55 8.854,-214.758 38.196,-321.008c35.937,-117.533 108.679,-224.825 202.775,-303.3c43.229,-37.5 91.667,-51.563 121.354,-103.296c75.696,-120.142 195.663,-216.321 331.946,-257.987c94.792,-27.43 202.258,-24.134 289.583,25c92.709,51.562 148.438,136.804 186.804,233.333c65.625,-40.45 92.709,-103.646 146.009,-157.292c100.521,-109.2 223.612,-191.146 376.562,-196.008Z" style="fill:#383838;fill-rule:nonzero;"/><path d="M2674.13,353.646c124.825,24.304 216.838,118.404 262.671,233.508c28.996,74.479 32.813,148.088 41.496,226.563c204.338,-195.834 435.067,-350.696 716.317,-409.204c157.466,-42.359 365.625,4.341 468.229,138.02c98.437,171.355 97.396,421.355 -60.763,558.855c111.284,-10.938 185.417,-83.505 289.93,-111.109c140.624,-41.146 302.779,-78.646 448.958,-49.654c111.458,21.179 222.225,95.488 262.154,205.033c32.813,95.834 19.792,205.384 -41.492,287.33c-102.954,144.095 -296.354,213.366 -410.766,327.429c187.85,4.512 358.854,85.591 496.704,209.896c130.033,147.916 190.104,353.125 152.083,547.395c-31.425,147.571 -124.654,276.042 -239.758,371.009c-89.063,71.179 -188.021,126.041 -302.604,140.971c-121.009,18.054 -244.271,-2.43 -335.417,-88.717c22.221,222.571 -80.554,416.842 -235.762,568.058c-75.175,83.679 -172.571,135.588 -276.392,175.346c-100.521,38.021 -218.575,43.054 -317.188,-3.471c-117.708,-53.821 -199.825,-147.746 -263.712,-257.812c-55.038,244.962 -205.729,480.379 -422.917,611.108c-158.333,100.35 -392.883,94.271 -533.854,-35.067c-120.312,-102.433 -192.883,-249.308 -213.021,-405.037c-3.475,-31.421 -10.416,-56.596 -24.829,-84.721c-59.721,60.938 -100.346,138.196 -159.546,200.521c-106.6,123.783 -257.466,249.479 -430.208,243.925c-73.613,-9.375 -168.579,-51.563 -223.788,-101.563c-66.491,-59.029 -82.462,-140.975 -101.733,-223.958c-46.529,-242.363 -8.333,-484.204 82.983,-711.113c-76.212,9.375 -131.77,61.284 -208.158,63.888c-87.846,5.729 -179.512,-18.575 -243.054,-81.942c-49.654,-53.646 -63.196,-137.85 -59.55,-208.162c7.117,-163.713 104.167,-326.213 205.904,-450c-121.529,15.625 -254.862,25.871 -372.225,-17.359c-80.9,-28.475 -159.546,-86.633 -194.096,-167.362c-54.862,-141.492 -18.054,-308.854 67.188,-430.554c111.979,-142.538 301.562,-227.779 482.637,-189.063c85.767,18.575 147.05,66.317 220.834,109.375c-57.117,-193.404 -70.659,-388.371 -44.963,-588.371c17.188,-242.358 201.042,-471.7 440.275,-525.17c116.321,-26.913 239.583,10.241 316.842,102.083c66.666,72.221 91.146,161.108 100.521,256.771c92.012,-141.321 171.354,-274.654 315.97,-371.008c99.48,-68.23 226.738,-87.675 344.1,-66.667Z" style="fill:#fff;fill-rule:nonzero;"/><path d="M231.596,1927.26c9.204,4.167 9.204,4.167 -0,0Z" style="fill:#383838;fill-rule:nonzero;"/></svg>