<svg xmlns="http://www.w3.org/2000/svg" xml:space="preserve" style="fill-rule:evenodd;clip-rule:evenodd;stroke-linejoin:round;stroke-miterlimit:2" viewBox="0 0 1492 1050">
  <path d="M945.792 17.042C981.625 19.417 1016.167 33 1043.042 57c50.041 44.875 67.166 119.833 52.708 184.042 16.042-9.125 31.208-17.709 50-19.375 36.417-4.084 75 19.5 85.333 55.208 3.625 11 3.042 21.875 2.584 33.25 11.875 1.208 23.125 3.542 33.166 10.417 29.875 19.208 43.542 55.708 40.334 90.333 42.25-14.208 89.916-8.083 125.708 18.792 18.292 13.875 29.583 34.708 29.625 57.875.417 41.25-27.792 80.125-63.375 99.083-11.708 5.125-14.917 20.875-23.875 30.167-16.375 17.75-27 38.75-45.542 54.625-10.333 10.708-26.083 16.166-33.791 28.625-18.667 28.833-46.75 54.208-80.084 64.416-15.333 3.875-23.458 14.625-36.75 22.917-14.458 8.792-20.125 25.875-32.666 38.208-22 24.834-51.875 37.667-83.917 43.834-42.417 7.791-85.917 4.458-123.125-18.834-15.417 19.834-31.375 38.792-51.5 54.042-16.625 12-25.708 28.958-40.292 43-36.625 36.458-82.833 63.917-135.166 68.542-66 5.25-132.792-17.917-187.917-53.042-53-33.708-101.375-83.75-123.542-143.375-18.25 32.167-46.416 56.875-84.208 61.25-35.833 4.333-69.333-11.833-93.083-37.958-20.084-24.334-31.042-53.042-37.167-83.75-17.792 1.333-34.958.708-51.417-6.834-36.333-15.916-63.791-51.375-80.291-86.5C39.5 634.208 30.875 598.5 33.75 563.208c4.708-44.166 31.417-85.75 73.042-103.375 10.041-18.5 20.791-35.625 38-48.375 19.666-15.458 42.416-22.166 67.25-22.291 12.666-26.834 32.416-43.542 59.416-55.125 8.792-20.75 21.334-39.084 40.667-51.25C344.708 262.208 383.5 259 421.042 260.458c10.666-8.416 22.083-15.458 34.041-21.916 17.834-45.334 71.375-78.5 120.084-68.25 23.291 3.791 43.416 15.416 59.416 32.541 11.334-19.625 25.417-26.541 47.375-29.5 13.959-16.625 28.417-32.5 46.209-45.125 13.166-8.791 18.916-21.625 29.583-32.875C804.375 43.917 876 11.958 945.792 17.042Z" style="fill:#2f2f2f;fill-rule:nonzero"/>
  <path d="M941.625 25.25c38.958 1.625 76.792 17.667 103.917 45.833 47.041 50.167 57.625 126.667 35.666 190.5 18-12.708 35.084-24.958 57-30.125 34.209-7.791 72.792 11.834 84.084 45.584 5.458 14.458 3.208 28.291.166 42.875 10.417-.792 20-1.959 29.875 2.5 37.25 15.75 55.75 64.125 42.375 101.541 37.625-15.25 83.5-16.75 119.542 3.625 21.167 11.334 38.542 30.625 39.333 55.709 3.709 49.208-38.75 95.916-85.416 106.125-6.792 39.333-33 71.125-65.917 92.166-22.167 13.75-45.417 19-71.458 17.334-4.375 44.916-44.875 83.041-87.042 94.25-45.208 13.333-99.292 13-139.333-14.5-11.167-6.917-17.625-18.792-28.792-25.417-12.292 51-41.917 98.208-80.083 133.917-35.167 32.166-80.375 56.625-128.834 58-54.458 2.916-110.5-15.375-157.625-41.792-54.458-30.792-104.833-77.292-131.25-134.75-5.708-11.375-7.875-23.833-14.25-34.875-10.875 32.875-33.583 60.417-66.958 71.875-39.75 14.333-82.75-4.333-107.792-36.292-18.083-24.458-28.5-53.875-32.208-83.958-24 6.542-45.375 2.958-66.625-9.417-33.833-20.083-58.125-57.333-72-93.416-14.542-37.667-20.5-83.5-2.125-120.875 15.5-33.959 46.125-59.917 84.083-63.417 25.875-1.333 52.875 4.917 77.084 13.667-9.459-35.834-4.459-74.125 18.916-103.542 21.084-25.375 51.417-34.667 83.125-38.458 27.25-3.709 53.042.75 79.834 4.666.208-17.666 2.291-34.416 12.208-49.458 22.542-32.167 61.5-54.417 101.583-46.708 27.667 4.083 49.667 20.333 65.792 42.541 3.583-11.291 5.667-21.583 15.75-29.041 20.25-14.792 45.667-11.375 64.375 4.166 5.083-32.916 17.792-62.5 39.292-88.041 44.041-52.917 114.541-86.459 183.708-82.792Z" style="fill:#fff;fill-rule:nonzero"/>
  <path d="M728.042 138.833c-6.292 13.25-11.375 26.959-16.875 40.584-4.859-1.375-8.284-5.787-7.75-5.292 7.208-12.542 15.5-24.083 24.625-35.292ZM453 249.708c-1.25 5-2.583 10-3.958 15-5.375-.833-10.709-1.666-16.042-2.625 6.375-4.625 13-8.708 20-12.375ZM269.417 345.917c-3.417 7.125-7.125 13.458-12.959 18.833-10.416 10.083-18.541 20.25-30.166 28 11.375-19.708 18.458-41.167 43.125-46.833ZM266.583 370.833c-4.291 12.042-9.916 17.875-20.541 25.084 5.916-9.209 12.458-17.667 20.541-25.084ZM102.458 470.583C99.125 482.75 99.25 497 89.375 506c-11.833 12.333-24.042 24.333-36.25 36.292 10.333-18.125 20.625-36.25 30.917-54.375 4.208-8 11-12.5 18.416-17.334ZM96.917 507.625c-3.709 16.708-18.959 30.208-28.167 44.458-8.833 10.542-15.458 25.959-27.583 32.792.166-7-.625-14.917 1.666-21.583 3.542-6.75 10.125-12.125 15.375-17.584 13.084-12.5 25.125-26.166 38.709-38.083ZM96.333 529.25c.625 8.667-6.583 16.167-14.833 17.5 3.583-7.042 6.708-14.792 14.833-17.5ZM100.625 541.042c-8.375 15.916-21.833 28.333-33.458 42.666-8.042 9.084-13.25 18.5-23.417 25.084a499.482 499.482 0 0 1-.25-11.084c15-15.5 30.25-30.791 45.375-46.166 3.875-3.584 7.75-7.084 11.75-10.5ZM102.208 562.292c2.584 7.708 3.167 10.416-2.291 16.833-15.917 19.708-31.667 39.5-47.459 59.292-1.916-6.292-3.833-12.542-5.75-18.792 14.625-16.5 30.625-31.792 45.959-47.625 3.166-3.208 6.375-6.458 9.541-9.708ZM102.5 596.917s5.542-2.375 9.75-7.875c1.583 4.833 3.125 9.666 4.667 14.5-18.125 20.125-35.875 40.625-53.875 60.833-2.667-6.333-5.292-12.708-7.917-19.042 15.625-16.375 32.417-31.458 47.375-48.416ZM124.5 613.708c2.25 5.542 1.542 9.834-2.167 12.875-16.791 18.125-33.75 36.167-50.875 53.959-1.541-3.25-3.125-6.5-4.666-9.75 19.416-18.792 37.75-38.834 57.708-57.084ZM138.042 636.958c-19.125 19.625-36.917 41.042-57.334 59.25l-3.958-9.625c16.875-18.333 35.458-35.291 52.875-53.166 3.292-5.375 5.458 1.708 8.417 3.541ZM144.542 645.833c2.125 2.917 4.166 5.834 6.208 8.834-17.667 20.125-36.292 39.416-54.542 59-3.291-4.167-6.583-8.334-9.833-12.5 20.208-17.625 38.583-37.084 58.167-55.334ZM158.792 662.083l6.083 6.125c-16.833 20.292-36.292 38.459-53.458 58.459-3.5-2.334-6.917-4.667-10.334-7.084 19.042-19.375 38.584-38.208 57.709-57.5ZM172.375 675.375c4.667 2.208 9.083 5.042 13.5 7.667-17.667 19.791-36.417 38.541-54.125 58.291-5.292-3.041-10.583-6.083-15.875-9.166 18.208-19.417 37.375-38.292 56.5-56.792ZM195.625 688.625c4.292 1.542 8.542 3.083 12.833 4.625-17.208 18.583-34.083 37.667-51.791 55.792-5.917 1.041-12.834-2.667-18.667-4 19.292-18.709 38.375-37.667 57.625-56.417ZM228.875 695.75c-10.167 12-21.375 22.875-31.917 34.542-11 10.916-15.375 23.333-33.208 22.333 16.708-17.083 33.625-34 50.417-51 4.125-4.792 9-4.708 14.708-5.875ZM250.792 694.958c-15.667 22.167-37.334 40.125-55.209 60.625l-2.291-7.416c8.083-9.959 18.5-18.167 27.416-27.459 10.125-9.583 17.459-19.75 30.084-25.75ZM1254.62 712.917c5.25-5.042 2.25 15.125-5.458 23.875-8.917 9.208-22.667 14.75-34.167 19.958 11.75-15.958 25.458-29.667 39.625-43.833ZM253.292 711.833c.75 4.209 1.5 8.417 2.166 12.625-17.875 20.042-36.25 39.667-54.416 59.417-1.5-5.875-2.959-11.708-4.417-17.583 18.917-18.125 37.333-36.834 56.667-54.459ZM261.125 737.167c1.833 3.958 3.625 7.916 5.417 11.875-18.459 19.833-37.375 39.125-54.875 59.791-2.417-5.5-4.875-11.041-7.25-16.541 19.375-17.917 37.791-36.792 56.708-55.125ZM466.083 757.833c2.209 10.709-5.708 14.375-11.666 21.542-14.875 14.667-27.625 31.292-42.542 45.833-1.792-4.5-3.542-9-5.292-13.541 18.167-9.917 34.625-20.792 46.167-38.417 4-5.375 7.083-12.667 13.333-15.417ZM275.5 760.292c1.042 8.5-4.583 12.458-9.458 18.25-15.084 15.791-30.167 31.583-44.584 48-1.916-3.5-3.833-7-5.75-10.542 13.834-14.042 28.292-27.417 41.959-41.667 5.583-5.5 10.208-11.208 17.833-14.041ZM288.458 778.708c-17.458 21.459-38 40.334-55.958 61.417l-6.375-7.417c15.667-15.666 31.625-31.083 47.125-46.916 5.125-4.125 7.625-10.209 15.208-7.084ZM471.75 774.958c1.583 3.834 3.125 7.667 4.708 11.5-18.666 18.875-37 38.167-55.375 57.375-1.833-3.583-3.625-7.208-5.458-10.791 15-17.084 31.625-32.709 47.292-49.084 2.958-3.041 5.875-6 8.833-9ZM988.583 779.708c3.042.334 6.042 1.417 9 3.334C982.5 800.75 966 817.333 949.917 834.167c12.5-19.917 18.791-39.875 38.666-54.459ZM1009.79 793.625c-17.792 18.458-35.292 37.208-51.917 56.75-3.333-1.458-6.625-2.917-9.958-4.417 16.25-16.458 32.583-32.833 48.541-49.583 5.084-3.583 8.75-11.75 13.334-2.75ZM294.917 788.542c3.041 2.458 6.125 4.958 9.166 7.416-18.625 19.125-36.708 38.709-54.625 58.5-3.916-2.958-7.833-5.875-11.75-8.833 19.125-18.958 38.167-38.042 57.209-57.083ZM482.292 795c2.416 4.042 4.833 8.083 7.166 12.167-18.208 19.875-36.583 39.625-55 59.291-3.291-5.458-6.625-10.916-9.875-16.375 19.584-17.75 36.792-39.125 57.709-55.083ZM1156.58 797.583c-10.291 13.25-21.333 26.375-33.791 37.709-11.417 10.25-24.959 14.916-39.209 20.166 14.334-15.125 29.084-29.916 43.834-44.625 7.5-7.791 19.125-9.791 29.166-13.25ZM1029.46 799.625c-16.791 20-35.208 38.625-52.416 58.25-4-1.167-8-2.333-12-3.542 14.791-15 30.125-29.416 44.708-44.583 6.542-5.708 9.708-12.667 19.708-10.125ZM318.625 803.875c-15.708 18.333-33.208 35-48.917 53.333-5.5 7.459-7.416 4-15.125 2.042 15.959-16.167 32.459-31.75 48.334-48 5.166-4.375 7.875-9.667 15.708-7.375ZM1041.75 804.875c4.125.75 8.25 1.542 12.333 2.375-15.416 16.875-31.25 33.333-46.375 50.5-5.541 8.25-15.166 3.292-23.375 3.167 19.375-18.417 37.667-38.042 57.417-56.042ZM1085.62 810.083c-16.792 17.25-31.042 37.125-48.5 53.625-8.667 1.709-17.958.959-26.75 1.167 16.917-16.583 33.417-33.542 50.167-50.25 6.708-7.917 15.791-3.833 25.083-4.542ZM1117.71 807.333c-13.958 15.834-28.125 31.584-42.708 46.834-5.875 7-16.917 6.791-25.292 8.75 16.125-16.084 32.209-32.292 48.625-48.084 5.459-5.791 12.042-5.833 19.375-7.5ZM327.958 810.5c4.709 1.625 9.375 3.25 14.042 4.958-17.375 18.625-35 36.417-50.958 56.375-6.834-1.458-13.625-3-20.375-4.666 19.041-18.875 37.291-38.792 57.291-56.667ZM373.583 818.333c-15.541 15.459-29.833 32.042-44.791 48.042-7.125 8.625-19.209 6.083-29.125 7.417 17.541-16.959 34.666-34.334 52.125-51.334 4.958-6.25 14.541-3.375 21.791-4.125ZM392.5 816.792c-12.042 22.75-28.875 38.166-51.708 49.833 17.166-16.667 34.125-33.625 51.708-49.833ZM494.208 818.542c5.334-3.625 9.625 6.375 4.75 8.958-16.791 19.208-34.666 37.5-51.75 56.458-2.75-3.958-5.458-7.875-8.208-11.833 18.917-17.333 36.417-36.208 55.208-53.583ZM512.083 832.708c1.042 4.334.25 7.75-2.375 10.167C492.75 861.292 475 879 457.792 897.167c-1.584-2.834-2.75-5.709-3.459-8.709 18.75-18.791 37.584-38.5 57.75-55.75ZM520.417 845.583c2.958 2.75 5.916 5.542 8.833 8.334-18.542 19.5-36.292 39.708-54.292 59.75-4-4.042-7.958-8.084-11.875-12.167 19.959-17.667 38-37.583 57.334-55.917ZM541.583 862.208c-.375 4.75-2.166 8.584-5.333 11.542-16.417 17.125-32.542 34.5-48.833 51.75l-6.334-6.25c10.959-12.75 23.875-23.833 35.5-36 8.334-7.958 14.209-16.792 25-21.042ZM550.708 874.542c3.25 1.958 6.459 3.875 9.709 5.791-18.084 19.875-37.125 38.959-55.667 58.459-3.75-2.792-7.542-5.625-11.292-8.417 19.5-18.167 38.459-36.917 57.25-55.833ZM567.167 886.792c2.541 1.583 5.083 3.25 7.541 4.958-16.916 20.292-36.375 38.833-54.291 58.292-3.459-2.209-6.959-4.375-10.459-6.542 19.125-18.875 37.959-37.958 57.209-56.708ZM583.583 897.833c3.792 2.375 7.584 4.75 11.375 7.125C576.5 924 558.333 943.292 540.333 962.75c-4.833-2.833-9.666-5.75-14.5-8.667 19.5-18.5 38.5-37.5 57.75-56.25ZM603.792 909.875c3.25 2.083 6.5 4.208 9.708 6.375-18.5 18.667-35.5 38.708-53.958 57.417-4.5-2.417-9-4.834-13.5-7.292 19.458-18.625 38.083-38.167 57.75-56.5ZM624.958 921.458c3.792 1.667 7.584 3.375 11.375 5.167-18.375 18.625-35.916 37.958-53.958 56.958-5.125-1.916-10.292-3.833-15.458-5.791 19.791-18.334 38.458-37.834 58.041-56.334ZM643.958 931.083c4.875-.166 10.084 2.834 14.709 4.125-17.542 19.5-35.625 38.625-53.459 57.875-5.708-2.166-11.416-4.291-17.125-6.416 18.625-18.459 36.625-37.834 55.875-55.584ZM670.375 939.917c4.25 1.25 8.5 2.583 12.75 3.958-17.208 18.458-34.75 36.792-50.667 56.417-6.375-1.417-12.708-2.917-19.041-4.459 19.083-18.5 37.375-37.958 56.958-55.916ZM825.792 940.958c-8.584 11.292-17.375 22.417-26.834 33-9 10.459-24.5 15.792-36.708 21.875 13.958-13.958 27.708-28.041 41.583-42.083 6.084-6.583 13.875-9.5 21.959-12.792ZM696.417 948.875c4.875-.875 10.083-.708 15.625.417-14.625 15.958-29.167 32.083-44.875 46.958 2.375 2.25 4.75 4.458 7.125 6.708 10.458-13.083 23.125-23.666 34.541-35.75 7.459-7.25 12.667-14.791 24.042-15.666-16.5 18.958-34.042 37.416-51.667 55.333-12.666-.542-27-3.75-41-3.917 19.209-17.541 36.875-36.75 56.209-54.083ZM793.25 950.5c-13.167 14.958-26.917 29.417-40.083 44.375-6.917 8.958-21.75 9.458-32.084 12.583 17-15.958 33.084-32.833 49.834-49.041 6.333-6.584 13.958-6.125 22.333-7.917ZM745.625 954.667c5.5-.167 11-.25 16.5-.292-15.792 16.042-30.958 32.708-46.75 48.667-5.875 6.791-16.958 5.5-25.167 6.583 18.042-18.625 36.5-37.292 55.417-54.958Z" style="fill:#fff;fill-rule:nonzero"/>
</svg>
