<?xml version="1.0" encoding="UTF-8" standalone="no"?><!DOCTYPE svg PUBLIC "-//W3C//DTD SVG 1.1//EN" "http://www.w3.org/Graphics/SVG/1.1/DTD/svg11.dtd"><svg width="100%" height="100%" viewBox="0 0 6217 4375" version="1.1" xmlns="http://www.w3.org/2000/svg" xmlns:xlink="http://www.w3.org/1999/xlink" xml:space="preserve" xmlns:serif="http://www.serif.com/" style="fill-rule:evenodd;clip-rule:evenodd;stroke-linejoin:round;stroke-miterlimit:2;"><path d="M3940.8,71.008c149.304,9.896 293.229,66.492 405.208,166.492c208.505,186.979 279.859,499.304 219.617,766.842c66.842,-38.021 130.033,-73.788 208.333,-80.729c151.738,-17.017 312.5,81.25 355.555,230.033c15.104,45.833 12.675,91.146 10.766,138.542c49.479,5.033 96.354,14.758 138.192,43.404c124.479,80.033 181.425,232.116 168.058,376.387c176.042,-59.2 374.65,-33.679 523.784,78.3c76.216,57.813 123.262,144.617 123.437,241.146c1.738,171.875 -115.8,333.854 -264.062,412.846c-48.784,21.354 -62.155,86.979 -99.48,125.696c-68.229,73.958 -112.5,161.458 -189.758,227.604c-43.054,44.617 -108.679,67.358 -140.796,119.271c-77.779,120.137 -194.791,225.866 -333.683,268.4c-63.888,16.146 -97.742,60.937 -153.125,95.487c-60.242,36.634 -83.854,107.813 -136.108,159.2c-91.667,103.475 -216.146,156.946 -349.655,182.642c-176.737,32.462 -357.987,18.575 -513.02,-78.475c-64.238,82.642 -130.73,161.633 -214.584,225.175c-69.271,50 -107.116,120.658 -167.883,179.167c-152.604,151.908 -345.138,266.32 -563.192,285.591c-275,21.875 -553.3,-74.654 -782.987,-221.008c-220.834,-140.45 -422.396,-348.958 -514.759,-597.396c-76.041,134.029 -193.4,236.979 -350.866,255.208c-149.304,18.055 -288.888,-49.304 -387.846,-158.158c-83.683,-101.392 -129.342,-221.008 -154.863,-348.958c-74.133,5.554 -145.658,2.95 -214.237,-28.475c-151.388,-66.317 -265.796,-214.063 -334.546,-360.417c-63.717,-132.292 -99.654,-281.075 -87.675,-428.125c19.617,-184.025 130.904,-357.292 304.342,-430.729c41.837,-77.084 86.629,-148.438 158.333,-201.563c81.942,-64.408 176.733,-92.358 280.208,-92.879c52.775,-111.808 135.067,-181.425 247.567,-229.687c36.633,-86.459 88.892,-162.85 169.446,-213.542c135.762,-85.767 297.396,-99.133 453.821,-93.058c44.441,-35.067 92.012,-64.409 141.837,-91.317c74.309,-188.892 297.396,-327.083 500.35,-284.375c97.046,15.796 180.9,64.233 247.567,135.587c47.225,-81.77 105.904,-110.587 197.396,-122.916c58.162,-69.271 118.404,-135.417 192.537,-188.021c54.859,-36.629 78.817,-90.104 123.263,-136.979c194.271,-214.234 492.708,-347.396 783.508,-326.213Z" style="fill:#2f2f2f;fill-rule:nonzero;"/><path d="M3923.44,105.208c162.325,6.771 319.966,73.613 432.987,190.971c196.004,209.029 240.104,527.779 148.608,793.75c75,-52.95 146.184,-103.992 237.5,-125.521c142.538,-32.462 303.3,49.309 350.35,189.934c22.742,60.241 13.367,117.879 0.692,178.645c43.404,-3.3 83.333,-8.162 124.479,10.417c155.208,65.625 232.292,267.188 176.563,423.088c156.77,-63.542 347.916,-69.792 498.091,15.104c88.196,47.225 160.592,127.604 163.888,232.121c15.454,205.033 -161.459,399.65 -355.9,442.187c-28.3,163.888 -137.5,296.354 -274.654,384.025c-92.363,57.292 -189.238,79.167 -297.742,72.225c-18.229,187.15 -186.979,346.004 -362.675,392.708c-188.367,55.555 -413.717,54.167 -580.554,-60.416c-46.529,-28.821 -73.438,-78.3 -119.967,-105.904c-51.217,212.5 -174.654,409.2 -333.679,557.987c-146.529,134.025 -334.896,235.938 -536.808,241.667c-226.909,12.15 -460.417,-64.063 -656.771,-174.134c-226.909,-128.3 -436.804,-322.05 -546.875,-561.458c-23.784,-47.396 -32.813,-99.304 -59.375,-145.312c-45.313,136.979 -139.929,251.737 -278.992,299.479c-165.625,59.721 -344.792,-18.054 -449.133,-151.217c-75.346,-101.908 -118.75,-224.479 -134.2,-349.825c-100,27.258 -189.063,12.325 -277.604,-39.237c-140.971,-83.68 -242.188,-238.888 -300,-389.234c-60.592,-156.946 -85.417,-347.916 -8.854,-503.646c64.583,-141.495 192.187,-249.654 350.345,-264.237c107.813,-5.554 220.313,20.487 321.184,56.946c-39.413,-149.309 -18.579,-308.854 78.816,-431.425c87.85,-105.729 214.238,-144.446 346.355,-160.242c113.541,-15.454 221.008,3.125 332.641,19.442c0.867,-73.609 9.546,-143.4 50.867,-206.075c93.925,-134.029 256.25,-226.738 423.262,-194.617c115.28,17.013 206.946,84.721 274.134,177.254c14.929,-47.046 23.612,-89.929 65.625,-121.004c84.375,-61.633 190.279,-47.396 268.229,17.358c21.179,-137.15 74.133,-260.416 163.717,-366.837c183.504,-220.488 477.254,-360.246 765.45,-344.967Z" style="fill:#fff;fill-rule:nonzero;"/></svg>