<svg xmlns="http://www.w3.org/2000/svg" xml:space="preserve" style="fill-rule:evenodd;clip-rule:evenodd;stroke-linejoin:round;stroke-miterlimit:2" viewBox="0 0 1655 1038">
  <path d="M786.708 109.75c41.167 14.333 77.125 38.542 102.25 74.583 8.625-24.75 25.667-45 52.625-49.375 29.959-3.333 60.25 13.709 81.25 33.917 27.75 27.083 47.834 60.792 47.917 100.625 38.917-9.875 82.75-10 116.708 13.875 36.042 26.667 52.25 69.625 55.709 113.125 60.208-21.375 127.25-23.25 183.541 10.125 29.5 16.667 48.917 46.833 50.709 80.875 1.75 23.833-5.875 45.583-18.084 65.667 30.709 27.541 45.792 70.791 28.959 109.958-11.75 25.208-34.25 34.792-59.292 42.583-3.375 14.584-6.833 28.084-17.208 39.417-15.167 16.625-34.792 22.875-56.209 27.208-4.166 13.042-9.041 25.292-18.958 35.167-40.625 42.167-112.25 46.875-158.167 10.292-39.041 42.5-96.083 68.125-153.458 71.583-46.833 2.833-92.083-13.833-126.583-45.375-15.334 21.083-36.042 36.125-60.917 43.958-55.083 17.667-120.333-.166-153.375-49.125-29.625 17.625-65.75 24.542-97.417 7.875-12-5.958-18.833-16.125-25.416-27.375-18.375 29.625-47.709 47.125-79.959 58.334-48.416 15.916-102 18.291-152.125 9.833-34.916-6.125-70.125-20.875-88.875-52.708-10.291-16-10.958-33.5-9.541-51.959-46.875-13.416-81.209-50.333-97.875-95.291-16.959-44.125-18.125-101.292 8.375-141.959 12.041-19.125 30.458-29.375 51.666-35.625 9-24.833 21.709-46.75 46.375-58.75 31.792-14.666 66.25-8.875 98.917-1.5 10.458-2.208 20.458-8.291 30.333-12.416 2.917-10.084 5.209-19.5 11.209-28.334 8.291-12.166 19.5-19.5 31.416-27.625-1.375-20.291-1.958-40.375 1.542-60.5 6.625-43.291 30.292-83.041 63.375-111.375 11.75-10.333 24.458-15.916 33.25-29.291 29.833-43.75 76.792-72.542 128.208-83.542 49.667-10.708 101.584-3.417 149.125 13.125Z" style="fill:#2b2b2b;fill-rule:nonzero"/>
  <path d="M690.958 100.25c45.5 1.667 91.834 13.125 131.709 35.417 31.208 17.458 53.208 40.75 69.041 72.833 4.792-16.25 7.875-34.167 19.667-47.083 11.833-13.417 29.042-20.917 47.042-17.5 36.166 5.541 67.333 35.166 85.833 65.333 14.292 23.417 19.958 45.542 16.083 73.083 38.542-13.583 82.459-16.333 118.459 5.625 39.583 26.667 55.666 75.542 55.875 121.5 61.5-25.583 132.541-29.625 190.791 6.625 31.625 18.917 48.375 56 42.334 92.292-2.375 17.458-10.625 32.125-20.625 46.292 13.5 11.583 25.541 23.791 32.333 40.583 10.25 23.792 10.5 56.542-7.333 76.958-15.25 17.25-35.709 23.042-57.959 25.417-3.041 12.833-5.833 24.833-15.125 34.792-38.916 43.833-112.291 47.291-155.125 6.958-38.333 45.417-97.416 72.625-156.458 75.292-47.167 2-92.917-17.334-125.25-51.542-8.25 15.042-18 28.083-33 36.958-56.583 37.292-144.042 20.667-176.375-41-27.292 22.75-70.708 31.167-101.333 10.292-15.25-10.292-18.042-28.958-23.375-45.208-5.167 15.291-9.167 29.625-20.875 41.458-26.875 27.833-67.709 42.208-105.25 47.917-39.709 5.708-81.584 5.5-120.709-4.167-29.041-7.667-56-22.125-69.916-49.958-8.334-15.917-6.625-31.959-3.875-49.042-33.334-8.167-60.709-25.958-80.292-54.25-27.625-39.583-39-92.5-26.708-139.5 5.958-22.417 18.5-44.375 39.375-55.833 18.416-10.292 39.708-10.75 60.208-9.375 29.375 2.666 56 14.125 80.417 30.25-3.417-21-6.959-41 2.541-61.125 10.167-20.459 33.875-34.25 55.125-40.459 21.584-6.208 42-1.958 62.625 5.334-12.75-45.459-21.666-93.417-11.166-140.292 10.166-45.458 39.833-84.958 78.458-110.458 36.333-23.959 79.458-35.209 122.833-34.417Z" style="fill:#fff;fill-rule:nonzero"/>
  <path d="M494.292 205.375c-7.917 24.708-18.459 38.042-39.042 53.583 11.583-18.791 24.917-36.625 39.042-53.583ZM482.167 244.208c-4.834 11.417-12.084 21.125-19.917 30.625-14.167 17.167-26.917 35.334-41.708 51.875 1.791-9.25 2.875-19.791 7.125-28.333 4.625-7.375 11.708-13.417 17.75-19.625 12.541-12.042 22.875-24.292 36.75-34.542ZM479.792 265.625c-5.125 11.042-13.334 19.25-22.584 26.833 5.917-10.416 13.125-19.416 22.584-26.833ZM478.042 282.833c-3.25 9.375-7.125 16.042-13.75 23.25-15.75 17.334-30.125 35.792-46.584 52.417 1.5-9.5.125-17.708 7.667-24.792 13.667-14.083 27.625-27.916 41.542-41.791 3.625-3.125 7.333-6.125 11.125-9.084ZM478.958 310.458l-2.375 14.209c-10 13.958-22.041 26.666-33.166 39.75-6.959 8.125-16 9.833-25.584 13.541 2.334-6.541 4-12.625 9.292-17.416 13.292-13.084 26.542-26.125 39.75-39.334 3.958-3.625 8-7.208 12.083-10.75ZM482.708 340.333c-.75 8 2.292 15.584-4.166 21.625-6.542 9.334-15.5 5.75-25.459 7.209 9.292-10.25 19.042-19.959 29.625-28.834ZM368.542 446.875c-.292 5.5-.625 11.042-.959 16.583-5.833-2.75-11.666-5.541-17.458-8.333 6.125-2.792 12.25-5.542 18.417-8.25ZM184.125 549.458c-17.167 26-37.083 50.25-55.125 75.709 1.333-11.417-1.375-21.25 8.167-29.542 15.708-15.333 30.583-31.542 46.958-46.167ZM166.551 535.292c-.125 16.959-11.875 24.209-23.959 33.375 4-8.625 9.25-16.416 15.25-23.791 2.834-3.25 5.75-6.459 8.709-9.584ZM715.35 790.738c-.125 16.958-11.875 24.208-23.958 33.375 4-8.625 9.25-16.417 15.25-23.792 2.833-3.25 5.75-6.458 8.708-9.583ZM190.625 577.917c-5 15.166-15.083 26-24.5 38.416-10.917 14.25-21.5 28.75-32.875 42.667-1.208-7.875-2.25-15.75-3.25-23.667 15.792-15.166 31.167-30.708 46.5-46.333 4.542-3.917 9.25-7.625 14.125-11.083ZM164.208 590.667l.292.416-.542.125.25-.541ZM197.292 607.208c-4.792 12.417-13.375 20.75-21.667 30.792-12.083 14.333-23.667 28.958-36.5 42.625-1.083-4.625-2.208-9.208-3.292-13.792 20.5-19.708 39.334-41.791 61.459-59.625ZM200.971 624.346c4.564 12.694-10.363 23.975-18.054 33.821-11.209 14.054-21.954 28.394-33.859 41.795-1.005-4.535-2.049-9.029-3.054-13.523 19.017-19.325 34.443-44.607 54.967-62.093ZM232.292 674.875c1.791 2.667 3.541 5.375 5.208 8.125-18.833 20.625-38.625 40.292-56.833 61.5-3.417-3.458-6.834-6.875-10.25-10.292 21.208-19.208 40.541-40.333 61.875-59.333ZM216.196 652.41c1.792 2.667 3.542 5.375 5.208 8.125-18.833 20.625-38.625 40.292-56.833 61.5-3.417-3.458-6.833-6.875-10.25-10.292 21.208-19.208 40.542-40.333 61.875-59.333ZM246.417 690.583c4.375 2.875 8.666 5.875 12.958 8.917-19.542 19.917-36.958 42.667-58.042 60.875-5.458-3.25-10.666-6.917-15.875-10.542 20.459-19.583 40.334-39.875 60.959-59.25ZM275.083 704.458c-5.791 12.25-15.291 19.792-24.333 29.584-8.958 9.166-17.042 19.083-26.125 28.083-5.333 6.333-9.25 5-16.917 4.792 12.542-14.292 26.5-26.625 39.792-40.292 8.917-8.667 15.542-17.667 27.583-22.167Z" style="fill:#fff;fill-rule:nonzero"/>
  <path d="M275.083 704.458c-5.791 12.25-15.291 19.792-24.333 29.584-8.958 9.166-17.042 19.083-26.125 28.083-5.333 6.333-9.25 5-16.917 4.792 12.542-14.292 26.5-26.625 39.792-40.292 8.917-8.667 15.542-17.667 27.583-22.167Z" style="fill:#fff;fill-rule:nonzero"/>
  <path d="M275.083 704.458c-5.791 12.25-15.291 19.792-24.333 29.584-8.958 9.166-17.042 19.083-26.125 28.083-5.333 6.333-9.25 5-16.917 4.792 12.542-14.292 26.5-26.625 39.792-40.292 8.917-8.667 15.542-17.667 27.583-22.167ZM294.792 714.042c.916 6.375-4.625 9.625-8.209 14.208-15.125 15.542-30.041 31.292-44.875 47.125-5.291-1-10.583-1.958-15.875-2.958 18.584-17.834 36.709-36.084 55.084-54.125 4.458-5.084 7.583-4.375 13.875-4.25ZM296.125 733.042c.542 5.5 1.042 10.958 1.583 16.458-19.666 20.833-38.791 42.125-58.541 62.875.75-11.042-3.584-21.75 6.083-29.542 17-16.541 34-33.083 50.875-49.791ZM1251.08 753.083c-3.375 9.459-9.958 15.875-16.458 23.25-12.958 14.25-25.667 28.75-38.417 43.25-3.375-2.458-6.75-4.916-10.125-7.375 15.917-16.375 32.459-32.166 48.5-48.458 5.125-4.833 9-9.792 16.5-10.667ZM305.083 761.208c.584 6.042-.958 10.792-4.625 14.25-17.291 18.709-34.916 37.125-51.916 56.084-1.959-3.709-3.959-7.375-5.959-11.042 21.167-19.375 40.459-40.958 62.5-59.292ZM1262.33 763.917c3.5.958 7.042 1.916 10.584 2.958-17.042 21.208-34.834 41.792-51.917 62.958-6.042-2.083-12.042-4.166-18.083-6.25 19.333-20.25 39.125-40.375 59.416-59.666ZM1287.17 773.25c4.041.458 8.083.958 12.125 1.542-16.292 19.625-32.917 39-49.417 58.416-7.125-.291-14.292-.625-21.458-.958 19.208-19.958 38.25-40.375 58.75-59ZM1315.88 773.334c4.042.458 8.084.958 12.125 1.542-16.291 19.625-32.916 39-49.416 58.416-7.125-.291-14.292-.625-21.459-.958 19.209-19.958 38.25-40.375 58.75-59ZM1346.17 775.458c-8.834 23.917-27.167 38.709-49.5 49.625 16.416-16.625 32.583-33.541 49.5-49.625ZM313.125 776.417l4.458 8.958c-17.541 21.625-37.875 41.25-55.958 62.542-3.083-3.459-6.167-6.917-9.208-10.417 20.083-20.458 40.208-40.958 60.708-61.083ZM971.167 778.708c-17.084 24-39.084 44.5-57.875 67.209-4.5-4.292-9.042-8.584-13.542-12.917 13.667-15.458 32.208-22.708 47.458-35.833 8-6.5 13.042-17.875 23.959-18.459ZM674.042 787.292C660.458 802.625 645.875 817 632.458 832.5c-4.625 4.875-9.375 11-15.416 14.083-5.917-.625-11.75-1.458-17.584-2.5 18.459-18.625 37.625-36.583 56.292-55 5.5-6.666 10.875-2 18.292-1.791ZM648.228 770.844c-13.583 15.333-28.167 29.708-41.583 45.208-4.625 4.875-9.375 11-15.417 14.084-5.917-.625-14.817-3.589-18.237-11.648 18.458-18.625 32.304-31.904 53.8-49.902 5.718-4.788 14.02 2.05 21.437 2.258ZM756.917 780.958c2.5 3.042 4.958 6.125 7.458 9.209-19.625 20.291-38.458 41.333-57.458 62.166-3.625-3.833-7.25-7.666-10.875-11.458 20.375-19.875 39.916-40.667 60.875-59.917ZM327.083 794.208l6.125 1.417c-19.416 20.917-39.125 41.5-58.083 62.875-2.625-1.833-5.292-3.625-7.917-5.458 20.25-19.292 39.334-39.875 59.875-58.834ZM700.312 787.838c-13 18.25-29.917 33.542-44.625 50.459-5.708 7.375-12.875 8-21.458 10.375 13.25-15.375 28.541-28.709 42.5-43.5 7-7.459 14-13.334 23.583-17.334ZM986.75 790.917c-18.083 23.333-39.458 44.166-59 66.291-2.25-2.583-4.458-5.25-6.583-7.916 11.25-13.25 24.791-24.584 36.708-37.25 9.458-8.792 15.208-18.959 28.875-21.125ZM1195.29 792.083c-24.709 20.959-45.917 44.125-74.042 60.667 25.042-23.125 40.792-48.583 74.042-60.667ZM772.875 799.375l9.25 3.875c-19 20.5-38.042 41.25-58.167 60.625-4.291-1.708-8.5-3.542-12.625-5.542 20.792-19.166 39.834-40.958 61.542-58.958ZM995 801c5.042 1.917 10 4.042 14.917 6.375-18.167 21-37.25 41.167-55.334 62.25-6.458-3.208-12.916-6.417-19.375-9.667C955.417 840.75 973.75 818.917 995 801ZM343.458 805.167c4.875 1.208 9.584 3.125 14.334 4.791-19.25 20.417-38.417 40.917-57.709 61.25-5.916-2.75-11.833-5.5-17.75-8.291 20.709-18.834 40.125-39.292 61.125-57.75ZM555.375 808.125c-8.042 24.292-30.583 39.167-51.958 50.875 16.666-17.417 33.166-35.75 51.958-50.875ZM788.625 810.083c5.333 2.042 10.583 4.292 15.875 6.5-19.292 20.209-37.75 41.25-57.583 60.959-5.917-2.75-11.834-5.5-17.709-8.209 19.792-19.75 39.459-39.625 59.417-59.25ZM861.724 827.053c-17.833 20.917-29.417 36.319-47.958 56.611-5.763 2.942-18.875 1.598-24.792-.069 18.75-17.917 36.833-36.583 55.542-54.542 5.166-6.083 10.333-2.125 17.208-2ZM895.747 824.018c-18.256 23.436-39.739 46.617-67.864 63.159 14.773-24.772 34.614-51.076 67.864-63.159ZM1035.58 816.125c-17.833 20.917-36.5 41.333-55.041 61.625-5.917-1.708-11.792-3.417-17.709-5.083 18.75-17.917 36.834-36.584 55.542-54.542 5.167-6.083 10.333-2.125 17.208-2ZM1144.96 813.333c-12.791 13.125-24.166 27.417-36.416 41.042-11 13.292-33.042 16.417-48.542 21.375 15.333-16.292 31.375-31.958 47.292-47.667 8.791-9.75 25.5-10.833 37.666-14.75ZM384.25 818.042c-17.917 20.625-36.958 40.208-54.792 60.875-7.125-1.625-14.208-3.25-21.333-4.917 18.375-17.458 36.208-35.458 54.333-53.125 6.375-7.708 13.25-2.958 21.792-2.833ZM515.134 823.497c-12.5 15.958-17.799 24.305-31.549 39.222-7.792 8.875-17.833 10.291-28.458 14.125 15.791-16.417 21.938-32.532 38.105-48.615 5.833-6.083 13.941-3.912 21.902-4.732ZM409.333 821.292c-16.958 21.583-37.458 40.458-55.958 60.791-4.875-.5-9.792-.958-14.667-1.458 17.709-17.125 34.875-34.792 52.459-52.083 5.083-5.75 11.041-5.959 18.166-7.25ZM473.203 829.155c-12.551 24.074-25.022 33.018-38.588 51.016-3.811 5.055-17.68 1.561-22.128 1.061 3.74-7.747 12.741-14.522 19.005-23.57 6.989-10.096 13.545-17.583 23.239-29.6 4.638-5.75 11.971.83 18.472 1.093ZM812.542 820.958c6.666 1.292 13.25 2.875 19.875 4.459-18.125 19.166-34.792 40.083-53.792 58.333-7.958 1.25-16.958-2.292-24.833-3.625 19.333-19.917 38.708-39.958 58.75-59.167ZM1039.03 823.841c4.333-.292 8.349-.674 12.599-1.133 4.625-.416 9.208-.791 13.792-1.083-16.375 17.625-32.084 35.917-48.417 53.625-6.042 8.667-17.417 3.708-26.292 4.542 11.167-11.584 20.648-24.28 32.273-35.405 4.733-5.673 8.674-11.858 14.889-19.239l.4-1.133.756-.174ZM1096.58 822c-14.5 17.25-30 33.75-44.958 50.583-6.542 8.459-20.375 7.125-30.042 9 17.917-17.416 35.167-35.5 53.167-52.833 5.542-6.083 14.292-5.083 21.833-6.75ZM420.667 825.25c8.208 0 16.416.333 24.583.583-18.333 18.667-35.917 38.042-53.875 57.084-9.583 0-19.208-.042-28.833-.084 19.666-18.916 38.208-39 58.125-57.583Z" style="fill:#fff;fill-rule:nonzero"/>
</svg>
