<?xml version="1.0" encoding="UTF-8" standalone="no"?><!DOCTYPE svg PUBLIC "-//W3C//DTD SVG 1.1//EN" "http://www.w3.org/Graphics/SVG/1.1/DTD/svg11.dtd"><svg width="100%" height="100%" viewBox="0 0 6896 4325" version="1.1" xmlns="http://www.w3.org/2000/svg" xmlns:xlink="http://www.w3.org/1999/xlink" xml:space="preserve" xmlns:serif="http://www.serif.com/" style="fill-rule:evenodd;clip-rule:evenodd;stroke-linejoin:round;stroke-miterlimit:2;"><path d="M3277.95,457.292c171.529,59.721 321.354,160.591 426.042,310.762c35.937,-103.125 106.946,-187.5 219.271,-205.729c124.829,-13.888 251.041,57.121 338.541,141.321c115.625,112.846 199.309,253.3 199.654,419.271c162.154,-41.146 344.792,-41.667 486.284,57.812c150.175,111.113 217.708,290.104 232.121,471.354c250.866,-89.062 530.208,-96.875 764.754,42.188c122.916,69.446 203.82,195.137 211.287,336.979c7.292,99.304 -24.479,189.929 -75.35,273.612c127.954,114.755 190.8,294.963 120.663,458.159c-48.959,105.033 -142.709,144.967 -247.05,177.429c-14.063,60.767 -28.471,117.017 -71.7,164.237c-63.196,69.271 -144.967,95.313 -234.204,113.367c-17.359,54.342 -37.671,105.383 -78.992,146.529c-169.271,175.696 -467.708,195.313 -659.029,42.884c-162.671,177.083 -400.346,283.854 -639.409,298.262c-195.137,11.804 -383.679,-57.637 -527.429,-189.062c-63.891,87.845 -150.175,150.52 -253.821,183.158c-229.512,73.612 -501.387,-0.692 -639.062,-204.688c-123.438,73.438 -273.959,102.259 -405.904,32.813c-50,-24.825 -78.471,-67.188 -105.9,-114.063c-76.563,123.438 -198.788,196.355 -333.163,243.059c-201.733,66.316 -425,76.212 -633.854,40.971c-145.483,-25.521 -292.188,-86.98 -370.313,-219.617c-42.879,-66.667 -45.658,-139.583 -39.754,-216.496c-195.312,-55.9 -338.371,-209.721 -407.812,-397.046c-70.663,-183.854 -75.521,-422.05 34.896,-591.496c50.17,-79.687 126.908,-122.395 215.275,-148.437c37.5,-103.471 90.454,-194.792 193.229,-244.792c132.466,-61.108 276.041,-36.979 412.154,-6.25c43.575,-9.2 85.242,-34.546 126.387,-51.733c12.155,-42.017 21.705,-81.25 46.705,-118.058c34.545,-50.692 81.25,-81.25 130.9,-115.105c-5.73,-84.545 -8.159,-168.229 6.425,-252.083c27.604,-180.379 126.216,-346.004 264.062,-464.062c48.958,-43.055 101.908,-66.317 138.542,-122.046c124.304,-182.292 319.966,-302.259 534.2,-348.092c206.946,-44.617 423.266,-14.237 621.354,54.688Z" style="fill:#2b2b2b;fill-rule:nonzero;"/><path d="M2878.99,417.708c189.583,6.946 382.641,54.688 548.787,147.571c130.033,72.742 221.7,169.792 287.671,303.471c19.967,-67.708 32.812,-142.362 81.946,-196.179c49.304,-55.904 121.008,-87.154 196.008,-72.917c150.692,23.088 280.554,146.525 357.638,272.221c59.55,97.571 83.158,189.758 67.012,304.513c160.592,-56.596 343.579,-68.055 493.579,23.437c164.93,111.113 231.942,314.758 232.813,506.25c256.25,-106.596 552.254,-123.437 794.962,27.604c131.771,78.821 201.563,233.334 176.392,384.55c-9.896,72.742 -44.271,133.854 -85.937,192.884c56.25,48.262 106.42,99.129 134.72,169.095c42.709,99.134 43.75,235.592 -30.554,320.659c-63.541,71.875 -148.787,96.008 -241.496,105.904c-12.67,53.471 -24.304,103.471 -63.02,144.967c-162.15,182.637 -467.88,197.045 -646.355,28.991c-159.72,189.238 -405.9,302.604 -651.908,313.717c-196.529,8.333 -387.154,-72.225 -521.875,-214.758c-34.375,62.675 -75,117.012 -137.5,153.991c-235.762,155.384 -600.175,86.113 -734.896,-170.833c-113.716,94.792 -294.616,129.862 -422.221,42.883c-63.541,-42.883 -75.175,-120.658 -97.395,-188.366c-21.53,63.712 -38.196,123.437 -86.98,172.741c-111.979,115.971 -282.12,175.867 -438.541,199.654c-165.454,23.784 -339.934,22.917 -502.954,-17.362c-121.005,-31.946 -233.334,-92.188 -291.317,-208.158c-34.725,-66.321 -27.604,-133.163 -16.146,-204.342c-138.892,-34.029 -252.954,-108.158 -334.55,-226.042c-115.104,-164.929 -162.5,-385.416 -111.283,-581.25c24.825,-93.404 77.083,-184.896 164.062,-232.637c76.734,-42.884 165.45,-44.792 250.867,-39.063c122.396,11.109 233.333,58.854 335.071,126.042c-14.238,-87.5 -28.996,-170.833 10.587,-254.688c42.363,-85.245 141.146,-142.708 229.688,-168.579c89.933,-25.866 175,-8.158 260.937,22.225c-53.125,-189.412 -90.275,-389.237 -46.525,-584.55c42.359,-189.408 165.971,-353.991 326.909,-460.241c151.387,-99.83 331.075,-146.705 511.804,-143.405Z" style="fill:#fff;fill-rule:nonzero;"/></svg>