<svg xmlns="http://www.w3.org/2000/svg" xml:space="preserve" style="fill-rule:evenodd;clip-rule:evenodd;stroke-linejoin:round;stroke-miterlimit:2" viewBox="0 0 2134 1600">
  <path d="M1007.18 460.387c14.321 4.986 26.83 13.408 35.57 25.945 3.001-8.609 8.929-15.654 18.307-17.176 10.423-1.159 20.96 4.769 28.265 11.799 9.654 9.422 16.641 21.148 16.67 35.005 13.538-3.435 28.786-3.479 40.6 4.827 12.538 9.277 18.176 24.221 19.379 39.353 20.945-7.436 44.268-8.088 63.85 3.523 10.262 5.798 17.017 16.292 17.641 28.134.608 8.291-2.044 15.857-6.291 22.844 10.682 9.581 15.929 24.627 10.074 38.252-4.088 8.769-11.915 12.103-20.627 14.814-1.174 5.073-2.377 9.769-5.986 13.712-5.276 5.783-12.103 7.957-19.554 9.465-1.449 4.537-3.145 8.798-6.595 12.234-14.132 14.668-39.049 16.306-55.022 3.58-13.582 14.785-33.425 23.699-53.385 24.902-16.292.985-32.033-4.812-44.035-15.785-5.334 7.334-12.538 12.567-21.192 15.292-19.162 6.146-41.861-.058-53.355-17.089-10.306 6.131-22.873 8.537-33.889 2.739-4.175-2.073-6.552-5.609-8.842-9.523-6.392 10.306-16.597 16.394-27.816 20.293-16.842 5.537-35.483 6.363-52.92 3.421-12.147-2.131-24.395-7.262-30.918-18.336-3.58-5.566-3.812-11.654-3.319-18.075-16.307-4.668-28.251-17.51-34.048-33.15-5.9-15.35-6.306-35.237 2.913-49.384 4.189-6.653 10.596-10.219 17.973-12.393 3.131-8.639 7.553-16.264 16.133-20.438 11.06-5.102 23.047-3.087 34.411-.522 3.638-.768 7.117-2.884 10.552-4.319 1.015-3.508 1.812-6.784 3.9-9.857 2.884-4.232 6.783-6.783 10.928-9.61-.478-7.059-.681-14.045.537-21.046 2.305-15.06 10.538-28.888 22.047-38.745 4.087-3.595 8.508-5.537 11.566-10.19 10.379-15.219 26.715-25.235 44.601-29.062 17.278-3.725 35.339-1.189 51.877 4.566Z" style="fill:#2b2b2b;fill-rule:nonzero"/>
  <path d="M973.871 457.082c15.828.58 31.947 4.566 45.818 12.321 10.857 6.073 18.51 14.176 24.018 25.337 1.667-5.653 2.74-11.886 6.842-16.379 4.116-4.668 10.103-7.277 16.365-6.088 12.581 1.927 23.423 12.233 29.859 22.727 4.972 8.147 6.943 15.843 5.595 25.424 13.408-4.725 28.685-5.682 41.209 1.957 13.77 9.277 19.365 26.279 19.438 42.267 21.394-8.9 46.107-10.306 66.371 2.305 11.002 6.581 16.829 19.481 14.727 32.106-.826 6.073-3.696 11.176-7.175 16.104 4.697 4.029 8.885 8.276 11.248 14.118 3.566 8.276 3.653 19.669-2.551 26.772-5.305 6.001-12.422 8.015-20.162 8.842-1.058 4.464-2.03 8.638-5.262 12.103-13.538 15.248-39.063 16.451-53.964 2.42-13.336 15.8-33.889 25.265-54.428 26.193-16.409.696-32.324-6.03-43.572-17.93-2.87 5.232-6.262 9.769-11.48 12.856-19.684 12.973-50.109 7.19-61.357-14.263-9.494 7.915-24.597 10.843-35.251 3.581-5.305-3.581-6.276-10.074-8.132-15.727-1.797 5.319-3.189 10.306-7.261 14.422-9.35 9.683-23.555 14.683-36.614 16.669-13.814 1.986-28.382 1.914-41.992-1.449-10.103-2.667-19.481-7.697-24.322-17.379-2.9-5.538-2.305-11.118-1.348-17.061-11.597-2.841-21.12-9.03-27.932-18.872-9.61-13.77-13.567-32.179-9.291-48.529 2.072-7.798 6.435-15.437 13.697-19.423 6.407-3.58 13.814-3.74 20.945-3.261 10.219.927 19.481 4.913 27.976 10.523-1.189-7.305-2.421-14.263.883-21.264 3.537-7.117 11.785-11.915 19.177-14.075 7.509-2.159 14.611-.681 21.786 1.856-4.435-15.814-7.537-32.498-3.884-48.804 3.536-15.814 13.857-29.555 27.293-38.426 12.64-8.335 27.642-12.249 42.731-11.973Z" style="fill:#fff;fill-rule:nonzero"/>
  <path d="M905.455 493.652c-2.754 8.596-6.421 13.234-13.581 18.641 4.029-6.537 8.668-12.741 13.581-18.641Zm-4.218 13.51c-1.681 3.971-4.203 7.348-6.928 10.653-4.929 5.972-9.364 12.292-14.509 18.046.623-3.218 1-6.884 2.478-9.856 1.609-2.566 4.073-4.667 6.175-6.827 4.363-4.189 7.958-8.451 12.784-12.016Zm-.826 7.45c-1.783 3.841-4.638 6.697-7.856 9.335 2.058-3.624 4.566-6.755 7.856-9.335Zm-.609 5.986c-1.13 3.262-2.478 5.581-4.783 8.088-5.479 6.03-10.48 12.452-16.205 18.235.522-3.305.043-6.16 2.667-8.625 4.754-4.899 9.61-9.711 14.451-14.538 1.261-1.087 2.551-2.13 3.87-3.16Zm.319 9.61-.826 4.943c-3.479 4.856-7.668 9.277-11.538 13.828-2.421 2.827-5.566 3.421-8.9 4.711.812-2.275 1.392-4.392 3.233-6.059 4.624-4.551 9.233-9.088 13.828-13.683 1.377-1.261 2.783-2.507 4.203-3.74Zm1.305 10.393c-.261 2.783.797 5.421-1.45 7.523-2.275 3.247-5.392 2-8.856 2.508 3.232-3.566 6.624-6.943 10.306-10.031Zm-39.716 37.064c-.102 1.913-.217 3.841-.334 5.768-2.029-.956-4.058-1.927-6.073-2.898 2.131-.972 4.262-1.928 6.407-2.87Zm-64.154 35.686c-5.972 9.045-12.901 17.481-19.177 26.337.464-3.971-.478-7.392 2.841-10.277 5.465-5.334 10.639-10.972 16.336-16.06Zm-6.114-4.928c-.043 5.899-4.131 8.422-8.335 11.61 1.392-3 3.218-5.711 5.305-8.276.986-1.131 2.001-2.247 3.03-3.334Zm190.914 88.863c-.043 5.9-4.131 8.422-8.334 11.611 1.391-3.001 3.218-5.711 5.305-8.277.986-1.13 2-2.246 3.029-3.334Zm-182.539-74.035c-1.74 5.276-5.247 9.045-8.523 13.364-3.798 4.957-7.479 10.002-11.437 14.843-.42-2.74-.782-5.479-1.13-8.233 5.494-5.276 10.842-10.683 16.176-16.118 1.58-1.363 3.218-2.653 4.914-3.856Zm-9.19 4.435.102.145-.189.044.087-.189Zm11.509 5.755c-1.667 4.319-4.653 7.218-7.537 10.712-4.204 4.986-8.233 10.073-12.698 14.828-.377-1.609-.768-3.203-1.145-4.798 7.131-6.856 13.683-14.538 21.38-20.742Zm1.28 5.962c1.588 4.416-3.605 8.34-6.281 11.765-3.899 4.889-7.637 9.878-11.778 14.54-.35-1.578-.713-3.141-1.063-4.705 6.616-6.722 11.982-15.517 19.122-21.6Zm10.896 17.577c.623.928 1.232 1.87 1.812 2.827-6.552 7.175-13.437 14.017-19.771 21.394-1.189-1.203-2.378-2.391-3.566-3.58 7.378-6.682 14.103-14.031 21.525-20.641Zm-5.6-7.815c.624.928 1.233 1.87 1.812 2.827-6.551 7.175-13.437 14.017-19.771 21.394-1.188-1.203-2.377-2.391-3.565-3.58 7.377-6.682 14.103-14.031 21.524-20.641Zm10.514 13.28c1.522 1 3.014 2.044 4.507 3.102-6.798 6.929-12.856 14.843-20.191 21.177-1.899-1.131-3.711-2.406-5.523-3.667 7.118-6.813 14.032-13.872 21.207-20.612Zm9.972 4.827c-2.015 4.261-5.32 6.885-8.465 10.291-3.116 3.189-5.929 6.639-9.088 9.77-1.856 2.203-3.218 1.739-5.885 1.667 4.363-4.972 9.218-9.263 13.842-14.017 3.102-3.015 5.407-6.146 9.596-7.711Z" style="fill:#fff;fill-rule:nonzero"/>
  <path d="M829.198 667.272c-2.015 4.261-5.32 6.885-8.465 10.291-3.116 3.189-5.929 6.639-9.088 9.77-1.856 2.203-3.218 1.739-5.885 1.667 4.363-4.972 9.218-9.263 13.842-14.017 3.102-3.015 5.407-6.146 9.596-7.711Z" style="fill:#fff;fill-rule:nonzero"/>
  <path d="M829.198 667.272c-2.015 4.261-5.32 6.885-8.465 10.291-3.116 3.189-5.929 6.639-9.088 9.77-1.856 2.203-3.218 1.739-5.885 1.667 4.363-4.972 9.218-9.263 13.842-14.017 3.102-3.015 5.407-6.146 9.596-7.711Zm6.856 3.334c.319 2.217-1.609 3.348-2.856 4.942-5.261 5.407-10.45 10.886-15.611 16.394-1.84-.348-3.681-.681-5.522-1.029 6.465-6.204 12.77-12.553 19.162-18.829 1.551-1.768 2.638-1.522 4.827-1.478Zm.464 6.609c.188 1.914.362 3.812.551 5.726-6.842 7.247-13.495 14.654-20.366 21.872.261-3.841-1.246-7.566 2.117-10.276 5.914-5.755 11.827-11.509 17.698-17.322Zm332.206 6.972c-1.174 3.291-3.464 5.523-5.725 8.088-4.508 4.958-8.929 10.002-13.365 15.046-1.174-.855-2.348-1.71-3.522-2.566 5.537-5.696 11.292-11.189 16.872-16.857 1.783-1.681 3.131-3.406 5.74-3.711Zm-329.09 2.827c.203 2.102-.333 3.754-1.609 4.957-6.015 6.508-12.146 12.915-18.06 19.51-.682-1.29-1.377-2.565-2.073-3.841 7.363-6.74 14.075-14.248 21.742-20.626Zm333.004.942c1.217.333 2.45.667 3.682 1.029-5.929 7.378-12.118 14.539-18.061 21.902-2.102-.725-4.189-1.45-6.291-2.175 6.726-7.044 13.611-14.045 20.67-20.756Zm8.641 3.247c1.406.159 2.812.333 4.218.536-5.668 6.827-11.451 13.567-17.191 20.322-2.479-.101-4.972-.218-7.465-.333 6.682-6.943 13.307-14.046 20.438-20.525Zm9.988.029c1.406.159 2.812.333 4.218.536-5.668 6.828-11.451 13.568-17.191 20.322-2.479-.101-4.972-.217-7.465-.333 6.682-6.943 13.306-14.046 20.438-20.525Zm10.537.739c-3.073 8.32-9.451 13.466-17.22 17.263 5.711-5.783 11.335-11.668 17.22-17.263Zm-359.372.334 1.551 3.116c-6.103 7.523-13.176 14.35-19.467 21.757-1.072-1.204-2.145-2.407-3.203-3.624 6.986-7.117 13.987-14.248 21.119-21.249Zm228.917.797c-5.943 8.349-13.596 15.48-20.133 23.38-1.566-1.493-3.146-2.986-4.711-4.494 4.754-5.377 11.204-7.899 16.509-12.465 2.783-2.261 4.537-6.218 8.335-6.421Zm-103.363 2.986c-4.725 5.334-9.798 10.334-14.466 15.726-1.609 1.696-3.261 3.827-5.363 4.9a86.8818 86.8818 0 0 1-6.117-.87c6.422-6.479 13.089-12.726 19.583-19.133 1.913-2.319 3.783-.696 6.363-.623Zm-8.98-5.722c-4.725 5.334-9.798 10.335-14.466 15.727-1.608 1.696-3.261 3.826-5.363 4.899-2.058-.217-5.154-1.248-6.344-4.052 6.421-6.479 11.238-11.099 18.716-17.36 1.989-1.665 4.877.713 7.457.786Zm37.811 3.518c.869 1.058 1.724 2.131 2.594 3.204-6.827 7.059-13.379 14.379-19.988 21.626-1.261-1.333-2.522-2.667-3.783-3.986 7.088-6.914 13.885-14.147 21.177-20.844Zm-149.53 4.61 2.131.493c-6.754 7.276-13.611 14.436-20.206 21.872-.913-.637-1.841-1.261-2.754-1.898 7.045-6.712 13.684-13.872 20.829-20.467Zm129.838-2.216c-4.522 6.348-10.407 11.668-15.524 17.553-1.986 2.566-4.479 2.783-7.465 3.609 4.61-5.348 9.929-9.987 14.785-15.132 2.435-2.595 4.87-4.639 8.204-6.03Zm99.645 1.071c-6.291 8.117-13.726 15.364-20.525 23.061-.782-.899-1.551-1.827-2.29-2.754 3.914-4.609 8.624-8.552 12.77-12.958 3.29-3.059 5.291-6.596 10.045-7.349Zm72.546.405c-8.596 7.292-15.973 15.35-25.757 21.105 8.711-8.045 14.19-16.901 25.757-21.105Zm-146.948 2.537 3.218 1.348c-6.61 7.132-13.234 14.35-20.235 21.09-1.493-.594-2.957-1.232-4.392-1.928 7.233-6.667 13.857-14.248 21.409-20.51Zm77.272.565c1.754.667 3.479 1.406 5.189 2.218-6.32 7.305-12.958 14.321-19.249 21.655-2.247-1.116-4.493-2.232-6.74-3.363 7.03-6.682 13.408-14.277 20.8-20.51Zm-226.656 1.45c1.696.42 3.334 1.087 4.986 1.667-6.696 7.102-13.364 14.234-20.075 21.307-2.058-.957-4.117-1.913-6.175-2.884 7.204-6.552 13.958-13.669 21.264-20.09Zm73.721 1.029c-2.798 8.451-10.639 13.625-18.075 17.698 5.798-6.059 11.538-12.436 18.075-17.698Zm81.142.681c1.855.711 3.682 1.493 5.523 2.261-6.712 7.031-13.133 14.35-20.032 21.207-2.059-.957-4.117-1.914-6.161-2.856 6.885-6.871 13.727-13.785 20.67-20.612Zm25.429 5.904c-6.203 7.276-10.233 12.634-16.683 19.693-2.005 1.024-6.566.556-8.625-.024 6.523-6.233 12.814-12.726 19.322-18.974 1.797-2.116 3.595-.739 5.986-.695Zm11.836-1.056c-6.351 8.153-13.824 16.217-23.608 21.971 5.139-8.617 12.041-17.768 23.608-21.971Zm48.645-2.746c-6.204 7.277-12.698 14.379-19.148 21.438-2.058-.594-4.102-1.189-6.16-1.768 6.522-6.233 12.813-12.727 19.322-18.974 1.797-2.116 3.594-.739 5.986-.696Zm38.051-.971c-4.45 4.566-8.407 9.537-12.669 14.277-3.826 4.624-11.494 5.711-16.886 7.436 5.334-5.667 10.914-11.117 16.451-16.582 3.059-3.392 8.871-3.769 13.104-5.131Zm-264.634 1.638c-6.232 7.175-12.856 13.987-19.06 21.177-2.479-.565-4.943-1.131-7.422-1.711 6.393-6.073 12.596-12.335 18.902-18.481 2.217-2.681 4.609-1.029 7.58-.985Zm45.532 1.898c-4.349 5.551-6.192 8.455-10.975 13.644-2.711 3.087-6.204 3.58-9.9 4.914 5.493-5.711 7.632-11.317 13.256-16.912 2.029-2.116 4.849-1.361 7.619-1.646Zm-36.806-.768c-5.899 7.509-13.031 14.075-19.466 21.148-1.696-.174-3.407-.333-5.103-.507 6.161-5.957 12.133-12.103 18.25-18.118 1.768-2.001 3.841-2.073 6.319-2.523Zm22.219 2.736c-4.366 8.375-8.704 11.486-13.424 17.747-1.326 1.759-6.15.543-7.698.369 1.301-2.695 4.433-5.052 6.612-8.199 2.431-3.512 4.712-6.117 8.084-10.297 1.614-2.001 4.165.288 6.426.38Zm118.048-2.852c2.319.45 4.61 1 6.914 1.551-6.305 6.668-12.103 13.944-18.713 20.293-2.768.435-5.899-.797-8.639-1.261 6.726-6.929 13.466-13.9 20.438-20.583Zm78.79 1.003c1.507-.101 2.904-.234 4.383-.394 1.609-.145 3.203-.275 4.798-.377-5.697 6.132-11.161 12.495-16.843 18.655-2.102 3.015-6.059 1.29-9.147 1.58 3.885-4.03 7.183-8.446 11.227-12.316 1.647-1.974 3.018-4.125 5.18-6.693l.139-.394.263-.061Zm20.02-.64c-5.044 6.001-10.436 11.741-15.64 17.596-2.275 2.943-7.088 2.479-10.45 3.131 6.232-6.058 12.233-12.349 18.495-18.379 1.928-2.116 4.972-1.768 7.595-2.348Zm-235.134 1.13c2.855 0 5.711.116 8.552.203-6.378 6.494-12.495 13.234-18.742 19.858-3.334 0-6.682-.014-10.03-.029 6.841-6.58 13.291-13.567 20.22-20.032Z" style="fill:#fff;fill-rule:nonzero"/>
  <path d="M1911.13 15.099c14.378-1.276 28.695 3.219 38.395 14.154 9.335 10.004 13.061 22.458 14.681 35.742 25.758-23.774 57.328-41.634 92.705-45.158 15.229.223 31.165 4.799 42.141 15.876 5.002 4.901 7.249 11.158 9.173 17.74 4.354 15.491 3.402 32.218-4.597 46.392 6.602-3.746 13.183-7.33 20.534-9.436 16.706-4.981 34.79-9.072 52.245-6.46 12.677 1.965 24.361 8.222 31.834 18.813 8.444 12.17 8.606 29.565.931 42.14-5.609 9.336-13.81 15.937-22.68 21.951-5.589 3.322-8.039 10.369-12.292 15.451 14.196 3.423 26.771 10.571 38.192 19.522 6.885 5.082 11.806 13.324 15.816 20.756 8.869 17.172 11.319 38.212 5.669 56.761-5.669 17.577-18.144 32.947-33.23 43.416-4.678 3.159-6.986 7.635-10.449 11.908-16.484 19.804-39.67 33.433-66.198 31.083-8.768 15.047-20.756 27.723-34.648 38.152-7.594 9.396-16.099 19.622-26.042 26.649-13.972 8.728-30.031 16.18-46.919 14.418-13.669-1.296-23.997-8.485-33.98-17.294-6.925 9.113-15.43 16.018-24.3 23.106-12.555 16.504-28.613 32.623-49.269 38.091-16.605 3.807-35.195 1.336-48.539-9.802-15.998-12.575-24.908-30.76-28.432-50.524-6.763 4.678-11.158 11.178-16.524 17.233-11.522 12.737-26.406 24.624-43.943 27.014-9.76 1.742-19.237-2.349-27.681-6.784-8.445-4.617-15.087-11.887-17.861-21.202-9.599-28.957-6.602-62.35 3.685-90.761-15.066 8.788-34.81 7.472-47.972-4.152-7.574-7.148-9.761-19.055-9.072-29.018.85-16.727 9.477-32.947 18.893-46.434-16.078 1.114-31.55.608-45.603-8.201-8.141-5.224-14.621-12.697-16.747-22.315-4.354-17.598.749-37.382 12.049-51.395 5.75-6.967 13.122-11.259 20.533-16.14 3.058-3.706 4.8-8.383 7.877-12.13 11.239-13.162 26.771-21.688 44.126-23.125.364-12.778 1.032-25.05 4.455-37.443 4.192-13.709 12.676-26.224 23.652-35.377 5.042-4.374 10.692-6.014 14.155-12.049 8.829-14.013 22.822-25.231 38.718-30.091 11.057-3.2 23.592-2.815 33.777 2.916 10.814 6.014 17.314 15.957 21.789 27.216 7.655-4.718 10.814-12.09 17.031-18.347 11.725-12.737 26.082-22.295 43.922-22.862Z" style="fill:#383838;fill-rule:nonzero"/>
  <path d="M1655.03 198.526c.357 1.205.694 2.427 1.014 3.648-7.715 8.893-15.679 17.607-23.672 26.26-.971-2.513-1.585-5.188-1.338-7.794 8.433-7.555 15.407-14.767 23.996-22.114Zm-.148-11.714c.255.861.496 1.734.724 2.605-5.513 6.352-11.203 12.575-16.915 18.755-1.283-1.143-1.983-3.541-1.436-5.385 6.025-5.395 11.489-10.728 17.627-15.975Zm270.484-166.954c14.56 2.834 25.293 13.81 30.639 27.236 3.382 8.687 3.827 17.273 4.84 26.427 23.834-22.843 50.746-40.906 83.552-47.73 18.367-4.941 42.646.506 54.614 16.099 11.482 19.986 11.361 49.147-7.087 65.185 12.98-1.276 21.627-9.74 33.817-12.96 16.403-4.799 35.317-9.173 52.367-5.792 13.001 2.471 25.921 11.138 30.578 23.916 3.828 11.178 2.309 23.956-4.839 33.514-12.009 16.807-34.567 24.887-47.913 38.192 21.911.526 41.858 9.983 57.937 24.482 15.167 17.253 22.173 41.189 17.739 63.849-3.666 17.213-14.54 32.198-27.966 43.275-10.388 8.302-21.931 14.701-35.296 16.442-14.115 2.106-28.492-.283-39.123-10.348 2.592 25.961-9.396 48.621-27.5 66.259-8.768 9.761-20.129 15.815-32.238 20.453-11.725 4.435-25.495 5.022-36.997-.405-13.73-6.278-23.308-17.233-30.76-30.071-6.42 28.572-23.997 56.031-49.33 71.28-18.468 11.705-45.826 10.996-62.269-4.09-14.033-11.948-22.498-29.08-24.847-47.244-.405-3.665-1.215-6.602-2.896-9.882-6.966 7.107-11.704 16.119-18.609 23.389-12.434 14.438-30.032 29.099-50.18 28.451-8.587-1.093-19.664-6.014-26.103-11.846-7.756-6.885-9.619-16.444-11.866-26.123-5.428-28.269-.972-56.478 9.679-82.945-8.89 1.094-15.37 7.149-24.28 7.452-10.246.669-20.938-2.166-28.35-9.557-5.792-6.258-7.371-16.079-6.946-24.281.83-19.095 12.15-38.049 24.017-52.488-14.175 1.822-29.727 3.017-43.417-2.025-9.436-3.321-18.609-10.105-22.639-19.521-6.399-16.504-2.106-36.025 7.837-50.22 13.061-16.626 35.174-26.569 56.295-22.053 10.004 2.167 17.152 7.735 25.758 12.758-6.662-22.559-8.242-45.3-5.244-68.628 2.004-28.269 23.449-55.02 51.354-61.257 13.567-3.139 27.945 1.195 36.956 11.907 7.776 8.424 10.632 18.792 11.725 29.95 10.733-16.483 19.987-32.036 36.855-43.274 11.604-7.959 26.447-10.227 40.136-7.776Z" style="fill:#fff;fill-rule:nonzero"/>
  <path d="M1743.29 108.27c-.344 5.204-3.807 7.776-6.885 11.502-6.379 7.047-12.272 14.661-19.076 21.303.486-3.544-.141-6.662 2.592-9.396 7.716-7.837 15.35-15.896 23.369-23.409Zm2.23-23.365c-.345 4.289-3.823 6.408-6.914 9.479-6.405 5.808-12.323 12.083-19.155 17.557.488-2.921-.143-5.491 2.602-7.744 7.748-6.458 15.414-13.101 23.467-19.292Zm-2.169 36.001c-.223 2.855-1.215 5.143-2.936 6.905-4.071 4.718-8.283 9.315-12.393 13.993-1.762-.041-3.544-.081-5.306-.142 6.521-7.168 13.507-14.195 20.635-20.756Zm4.724-49.093c-.434 2.832-1.592 5.04-3.438 6.67-4.408 4.406-8.947 8.679-13.392 13.041-1.754-.17-3.528-.342-5.28-.533 7.031-6.668 14.517-13.16 22.11-19.178Zm-3.63 60.433c0 1.802 0 3.605-.021 5.407-1.964 2.349-3.908 4.718-5.852 7.087-1.944-.263-3.888-.547-5.812-.83 3.422-4.435 7.148-8.343 11.685-11.664Z" style="fill:#fff;fill-rule:nonzero"/>
  <path d="M1640.46 203.405c1.073.486 1.073.486 0 0Z" style="fill:#383838;fill-rule:nonzero"/>
  <path d="M1658.16 207.617c-.992 2.997-2.268 5.427-4.333 7.837-7.27 8.748-14.357 17.638-21.546 26.426-.223-2.754-.446-5.508-.668-8.262 8.889-8.586 17.131-18.022 26.547-26.001Zm1.54 11.644c.546 1.235 1.073 2.491 1.579 3.746-7.715 10.247-15.734 20.331-23.794 30.355-1.397-2.552-2.795-5.103-4.171-7.655 8.687-8.91 17.496-17.739 26.386-26.446Zm6.439 9.842 2.471 3.888c-7.695 9.436-15.33 18.954-23.207 28.228-1.965-1.762-3.909-3.523-5.853-5.285 8.748-9.032 17.72-17.901 26.589-26.831Zm8.384 8.019c1.842.87 3.706 1.741 5.568 2.612-8.322 8.849-16.2 18.083-24.361 27.074-2.531-1.134-5.062-2.288-7.573-3.442 8.849-8.687 17.8-17.274 26.366-26.244ZM1740.5 98.64c1.067 1.119 2.149 2.242 3.23 3.364-7.623 7.126-15.027 14.688-22.572 21.975-1.822-.311-3.175-2.684-3.049-4.712 7.948-6.888 14.574-13.424 22.391-20.627Zm-54.131 143.524c1.843.506 3.685 1.012 5.528 1.539-7.796 8.95-16.038 17.476-23.753 26.528-2.835-.689-5.67-1.378-8.505-2.066 8.93-8.586 17.394-17.86 26.73-26.001Zm19.44 3.098c-6.743 8.019-14.013 15.593-21.019 23.369-2.714 3.645-7.858 1.68-11.827 2.025 5.245-5.448 10.814-10.571 16.16-15.897 5.609-4.921 7.958-10.975 16.686-9.497Zm14.945-.445c-5.448 8.161-12.393 15.39-19.218 22.396-2.774 3.483-9.274 2.491-13.203 3.281 4.577-4.982 9.498-9.599 14.256-14.398 5.954-5.529 8.829-11.705 18.165-11.279Zm-12.07 20.938c-2.206 5.326-3.989 10.409-8.221 14.56-6.196 6.258-12.13 12.778-18.509 18.873 2.815-5.994 5.367-12.413 10.126-17.152 5.487-5.447 10.995-10.935 16.604-16.281Zm-3.786 42.607c-1.397 2.895-3.119 5.163-5.387 7.411-7.168 7.331-14.215 14.783-20.857 22.62-.385-1.519-.77-3.018-1.154-4.537 9.294-8.241 17.536-17.941 27.398-25.494Zm-2.146-7.853c-1.397 2.896-3.118 5.164-5.386 7.412-7.169 7.33-14.216 14.783-20.858 22.619-.385-1.518-.769-3.017-1.154-4.536 9.295-8.242 17.536-17.941 27.398-25.495Zm6.257 15.872c-1.924 5.062-5.731 7.877-9.295 11.704-5.751 5.873-10.996 12.171-16.889 17.902-.83-1.479-1.661-2.937-2.511-4.395 7.108-6.541 14.033-13.264 20.837-20.149 2.491-2.288 4.152-4.819 7.858-5.062Zm3.179 5.427 2.45 1.498-.263 1.377c-7.756 9.072-16.869 17.112-24.827 26.042-1.316-.992-2.612-1.985-3.928-2.997 9.092-8.363 17.212-17.861 26.568-25.92Zm-10.621-33.234 2.45 1.499-.263 1.377c-7.756 9.072-16.868 17.111-24.827 26.042-1.742.102-3.09-1.088-2.553-3.204 9.092-8.364 15.837-17.654 25.193-25.714Zm21.131 38.539c-8.04 9.012-16.687 17.435-24.503 26.669l-6.136-1.032c7.331-8.12 15.41-15.552 23.025-23.409 2.976-2.896 3.381-3.18 7.614-2.228Zm4.637 2.41c1.701.04 3.402.081 5.103.162-8.019 8.525-15.532 17.76-23.936 25.839-2.369.02-4.738-.04-7.108-.202 8.526-8.688 17.173-17.335 25.941-25.799Zm461.459.365c-7.148 9.679-16.767 17.718-27.155 23.733 5.042-6.035 10.915-11.361 16.362-17.01 2.997-3.281 6.723-5.104 10.793-6.723Zm-444.104-.466c-5.752 6.763-11.948 13.162-17.902 19.764-3.3 3.807-7.594 5.224-12.332 6.379 6.966-7.372 14.418-14.317 21.505-21.587 2.43-2.734 5.327-3.503 8.729-4.556Zm395.688 4.171c1.438.426 2.856.871 4.294 1.317-4.8 6.115-10.004 11.886-14.925 17.921 1.58-8.87 3.504-13.507 10.631-19.238Zm-385.908 5.731c-1.235 4.415-1.802 8.546-5.224 11.927-7.128 7.372-14.014 14.945-21.304 22.134 1.357-4.293 1.762-10.53 5.387-13.669 7.128-6.723 14.236-13.446 21.141-20.392Zm-3.462 16.14c-.77 4.171-.163 9.193-3.504 12.271-7.573 7.918-15.127 15.836-22.66 23.774.871-4.334.466-10.875 4.03-13.993 7.33-7.392 14.844-14.621 22.134-22.052Zm-1.722 17.333c-.04 2.937-.081 5.853-.142 8.789-8.484 8.728-16.726 17.679-25.272 26.325.608-4.414-.911-10.894 3.18-13.871 7.553-6.925 14.762-14.215 22.234-21.243Zm1.114 15.006c-.587 6.075-4.637 8.869-8.383 13.021-5.995 6.156-11.685 12.575-17.436 18.974-.263-2.612-.203-5.144.162-7.614 6.642-6.905 13.912-13.243 20.615-20.129 1.64-1.458 3.321-2.875 5.042-4.252Zm256.428 5.326c1.417 1.417 2.814 2.875 4.192 4.333-8.83 9.153-17.031 19.076-26.386 27.723 8.079-11.077 11.461-23.146 22.194-32.056Zm-145.7 2.977c.688 2.875.688 5.386-.021 7.512-7.816 9.417-16.524 18.205-24.887 27.156-.364-4.071-.607-5.387 2.47-8.222 6.886-6.763 12.9-14.013 18.59-21.789 1.276-1.579 2.552-3.119 3.848-4.657Zm-109.999 2.652c.486 4.071 1.357 6.237-1.944 9.234-7.695 7.898-15.329 15.856-22.781 23.976-.345-2.632-.689-5.244-1.013-7.877 8.667-8.363 16.99-17.071 25.738-25.333Zm266.006 2.896c-7.675 10.186-17.395 18.671-25.414 28.613-1.316-1.194-2.632-2.389-3.949-3.564 7.574-6.864 14.743-14.215 21.911-21.485 2.45-2.106 3.726-4.556 7.452-3.564Zm155.145-65.864c-6.546 8.541-11.457 13.877-19.374 21.319-1.188 1.117-4.546.671-5.668-.314 4.376-6.983 10.334-12.187 16.448-18.283 2.09-1.766 5.416-3.554 8.594-2.722Zm-151.824 70.015c1.904 1.073 3.807 2.187 5.691 3.321-8.182 9.113-16.748 17.881-24.847 27.095-2.411-1.316-4.8-2.653-7.21-3.989 8.829-8.769 17.436-17.78 26.366-26.427Zm60.609 1.965c-7.088 8.241-14.925 16.949-24.523 22.295 7.796-7.371 14.864-17.496 24.523-22.295Zm-216.697 1.741c1.053 6.419-4.01 8.586-7.574 12.92-6.136 6.014-11.38 13.081-17.982 18.549-.384-2.147-.749-4.293-1.134-6.44 9.113-8.059 17.111-17.536 26.69-25.029Zm-110.87.79c.547 1.741 1.094 3.503 1.641 5.245-8.566 9.274-17.578 18.306-25.516 28.086-.729-2.571-1.458-5.163-2.187-7.735 7.331-7.189 14.722-14.337 21.951-21.607l4.111-3.989ZM2037 413.906c-8.039 8.808-15.754 18.346-24.522 26.385-2.856-.648-5.65-1.539-8.465-2.43 8.059-8.08 16.078-16.24 24.158-24.3 2.694-3.22 5.529-.324 8.829.345Zm11.948 1.802c-6.318 7.897-13.547 15.086-20.371 22.578-3.241 3.99-7.149 2.654-11.705 3.119 5.791-5.893 11.826-11.542 17.638-17.435 4.799-4.293 6.885-9.578 14.438-8.262Zm14.236-1.641c-4.516 6.258-9.214 12.414-14.115 18.347-3.847 4.961-12.433 6.075-17.921 7.979 7.209-7.473 14.601-14.783 21.931-22.134 2.754-2.956 6.379-2.895 10.105-4.192Zm96.902-78.846c-4.516 6.257-9.214 12.414-14.114 18.347-3.848 4.961-12.434 6.075-17.922 7.978 7.209-7.472 14.6-14.782 21.931-22.133 2.754-2.957 6.379-2.896 10.105-4.192Zm-292.519 84.82c.568 1.884 1.114 3.767 1.681 5.65-8.627 8.89-16.99 18.023-25.373 27.115-1.155-2.572-2.288-5.123-3.423-7.695 9.437-7.918 17.699-17.132 27.115-25.07Zm-110.262 1.559c1.276 1.762 2.511 3.585 3.726 5.387-8.788 8.91-17.172 18.245-25.778 27.338-1.499-2.39-2.997-4.8-4.475-7.209 9.193-8.161 17.557-17.152 26.527-25.516Zm114.333 8.708c1.053.931 2.086 1.863 3.078 2.855-8.768 9.133-17.355 18.489-26.224 27.54-.952-1.518-1.904-3.037-2.856-4.556 8.424-8.809 17.274-17.314 26.002-25.839Zm-107.022.385 3.888 3.341c-8.364 9.072-16.767 18.124-25.151 27.155-1.904-1.458-3.807-2.936-5.71-4.414 9.234-8.444 18.062-17.314 26.973-26.082Zm8.262 6.034c2.308 1.175 4.617 2.349 6.925 3.524-8.343 8.768-16.524 17.658-24.644 26.649-2.916-1.215-5.772-2.592-8.566-4.07 8.829-8.647 17.476-17.456 26.285-26.103Zm104.187.426c1.478 1.782 2.936 3.584 4.374 5.386-8.404 9.093-17.091 17.921-25.596 26.933-1.823-2.025-3.646-4.05-5.468-6.075 9.031-8.606 17.638-17.658 26.69-26.244Zm-61.379 1.903c-7.229 9.335-16.402 17.233-26.365 23.531 5.265-6.258 11.299-11.887 16.989-17.759 2.734-2.876 5.63-4.435 9.376-5.772Zm-27.924 2.977c-5.893 7.067-12.596 13.426-18.529 20.473-3.524 3.523-4.759 7.452-10.672 6.055 5.892-7.088 12.879-13.123 19.177-19.886 3.22-3.017 5.164-6.501 10.024-6.642Zm15.552.87c-7.068 6.785-13.608 14.054-20.412 21.081-3.848 4.334-8.931 3.969-14.236 5.103 7.472-7.776 15.208-15.309 22.842-22.903 2.592-3.057 8.14-2.491 11.806-3.281Zm83.937 3.099c-1.215 2.41-2.552 4.536-4.476 6.46-7.047 7.29-14.438 14.58-20.878 22.396-1.296-.891-2.571-1.802-3.847-2.693 7.674-7.128 15.289-14.317 22.639-21.809 1.965-2.046 3.909-3.281 6.562-4.354Zm3.219 4.576c1.357.851 2.673 1.722 4.01 2.613-8.627 9.011-17.274 17.982-25.9 26.952-1.478-1.113-2.957-2.247-4.435-3.381 8.971-8.546 17.294-17.739 26.325-26.184Zm11.097 5.711c-5.913 7.128-12.676 13.527-18.832 20.452-3.564 3.241-4.941 7.655-10.632 5.893 4.455-7.31 12.231-12.454 17.902-18.832 3.503-2.957 6.398-8.404 11.562-7.513Zm11.341 3.807c-7.817 9.052-16.262 17.617-24.361 26.426-2.815-.607-5.65-1.215-8.465-1.822 8.222-8.181 16.504-16.301 24.725-24.483 1.479-2.288 5.832-.08 8.101-.121Zm10.692.425c-6.906 9.255-15.674 17.112-23.349 25.779l-6.925.364c7.816-7.533 15.471-15.208 23.227-22.802 2.004-2.146 4.272-2.713 7.047-3.341Zm14.969-1.458c-6.905 9.254-14.156 17.473-23.551 25.418-1.812 1.531-4.986 1.972-6.723.724 7.817-7.533 15.471-15.207 23.227-22.801 2.005-2.147 4.273-2.714 7.047-3.341Z" style="fill:#fff;fill-rule:nonzero"/>
  <clipPath id="a">
    <path d="M714.662 696.998 2118.17-15.123l730.4 1439.533-1403.51 712.12L714.662 696.998z"/>
  </clipPath>
  <g clip-path="url(#a)">
    <path d="M714.662 696.998 2118.142-15.11l730.302 1439.34-1403.48 712.108-730.302-1439.34Z" style="fill:none"/>
    <path d="M1219.43 469.018c6.693-4.796 13.783-7.965 21.087-11.71 17.572-8.819 35.088-17.901 52.951-26.147 17.126-5.634 33.209-14.204 50.58-19.009 27.338-9.668 55.935-16.394 84.344-22.033 5.31-.962 10.639-1.506 16.027-1.126 14.137.863 28.789.901 42.732 3.108 36.904 5.658 73.418 17.681 105.658 36.659 11.862 7.194 22.924 14.269 31.187 25.722 2.325-1.745 4.683-3.311 6.415-5.727 6.061-7.92 13.079-15.256 20.967-21.38 8.991-7.247 20.106-12.069 30.752-16.361 4.233-.669 8.396-1.362 12.581-2.395 14.645-1.204 27.958 3.444 40.94 9.7 6.185 2.718 11.793 6.178 17.241 10.127 6.444 5.72 12.643 10.767 16.756 18.565 9.245 17.453 18.555 32.889 20.963 52.936 1.403 14.309-3.25 28.073-9.811 40.606-3.907 7.295-7.153 14.819-11.683 21.768 4.341 7.098 10.133 12.799 15.293 19.249 1.601 1.737 3.164 3.512 4.703 5.28 12.746 13.693 26.501 26.075 42.36 36.086 17.956 12.8 37.4 19.98 57.671 28.063 7.257 2.759 8.932 11.697 9.438 18.563 2.519 20.612-.805 41.174-3.448 61.584-1.554 14.118-4.538 27.91-7.172 41.895-2.763 10.586-5.285 21.109-7.472 31.831 1.857 3.047 3.272 6.065 6.434 8.002 8.688 5.963 16.749 13.413 21.647 22.875 6.765 12.757 13.585 25.623 19.173 38.938 7.93 22.265 16.902 44.702 18.191 68.566 1.905 19.057 5.979 37.479 8 56.496.304 9.342 1.478 17.6 7.529 25.193 14.95 18.879 32.665 35.615 47.846 54.298 1.231-.449 2.455-.876 3.686-1.325.197 8.442 8.38 11.568 13.504 17.179 14.514 14.877 30.693 27.742 45.94 41.8 15.973 14.798 33.548 27.422 48.58 43.281 5.653 5.888 11.114 11.972 16.69 17.938 7.619 8.84 13.94 18.845 19.487 29.088 7.225 15.773 12.749 32.488 15.752 49.606 3.34 21.655 3.31 44.068-.358 65.679-1.885 6.716-3.99 12.999-4.049 20.093-3.739 16.179-6.584 32.392-12.204 48.086-4.419 15.105-12.228 28.018-18.408 42.07l1.418 2.219c-1.297-.101-2.601-.14-3.912-.155-1.811 2.144-3.436 4.389-5.083 6.665-5.725 8.392-10.631 17.361-16.542 25.614-16.146 21.716-34.972 41.756-53.886 61.199-12.45 12.699-26.143 24.142-39.155 36.387-5.031 4.849-10.751 8.685-16.565 12.491-1.385 2.065-3.727 4.927-3.378 7.532.821 2.386 2.425 4.549 3.78 6.644-3.201-.594-6.44-.994-9.685-1.293l-1.518.576c-4.363-.316-6.701 2.018-9.813 4.59-10.022 6.057-18.762 13.645-29.035 19.285-28.538 15.356-57.548 29.744-86.683 43.962-2.693 1.211-5.481 2.159-8.309 3.029-8.036 3.26-15.538 7.65-23.709 10.376-5.011 1.667-9.842 3.729-14.696 5.783-37.127 13.039-74.177 26-112.515 35.12-5.113 1.465-10.274 2.683-15.452 3.792-4.092.987-8.199 1.904-12.251 3.006-9.332 2.011-18.648 4.091-28.044 5.861-3.534.821-7.115 1.47-10.681 2.19-4.163.808-8.326 1.423-12.449 2.464-4.109.644-8.171 1.421-12.208 2.438.035 2.057.047 4.113.036 6.17-1.843-1.906-3.632-3.975-5.698-5.632-1.738.142-3.467.378-5.172.737-17.67 4.178-35.861 6.715-53.771 9.575-22.523 3.586-45.201 6.025-67.989 6.71-13.161.295-26.14-1.623-39.344-2.298-7.988-.325-15.213-2.984-22.822-4.98-2.975-.417-5.948-.446-8.943-.366-.609-.703-1.227-1.421-1.836-2.124-24.089-5.329-45.87-15.39-67.229-27.495-23.411-14.04-45.1-30.823-65.03-49.432-27.363-24.975-54.705-50.292-73.111-82.847-5.324-10.609-11.191-19.832-14.084-31.441-4.925-16.57-1.452-34.269.747-51.03 4.552-29.377 7.435-59.055 8.572-88.761.204-14.094.106-28.132 1.311-42.171.785-10.419-.362-20.695-.253-31.102-.239-2.312.646-6.244-1.944-7.362-13.487-7.712-25.994-16.446-36.532-27.971-5.481-5.664-9.849-12.165-15.068-18.078-7.619-12.869-14.234-26.481-20.29-40.143-3.592-11.642-9.237-22.769-12.915-34.427-4.938-11.037-8.886-22.422-14.064-33.357-4.636-12.359-7.311-25.07-10.047-37.595-4.543-17.776-6.686-36.265-8.632-54.483-1.074-9.748-.822-19.606 1.147-29.225 3.243-17.232 13.025-32.391 25.09-44.817 1.35-1.367 2.708-2.717 4.065-4.068 3.825-2.933 7.305-6.236 10.879-9.47 4.276-2.656 8.646-5.126 13.102-7.504-3.986-4.826-8.064-9.335-12.621-13.638-1.315-1.901-2.661-3.787-4.015-5.65-6.091-6.521-10.397-14.086-15.669-21.218-6.827-10.157-14.458-19.673-20.914-30.096-7.384-12.56-15.728-24.594-23.174-37.122-6.525-12.859-13.623-25.506-19.598-38.625-.035-3.329-.179-6.642-.377-9.947 9.775-5.854 17.17-12.565 24.328-21.353 8.675-10.823 17.598-21.616 25.197-33.255 12.949-20.308 28.074-41.35 33.693-65.061.896-3.296.097-5.867-1.046-8.965-13.427-1.419-26.456-6.58-37.583-14.167-13.63-9.643-21.882-23.261-28.11-38.489-.778-4.217-1.54-8.404-2.504-12.565-1.74-24.025 7.186-48.81 26.21-64.125 7.157-5.11 15.368-8.945 23.528-12.191 13.581-3.991 29.034-2.336 42.778.167 3.142-5.311 5.088-10.949 6.924-16.803 6.309-17.134 13.203-33.767 22.578-49.499 11.11-17.798 25.61-32.977 42.071-45.903Z" style="fill:#59361a;fill-rule:nonzero"/>
    <path d="M1256.18 465.163c33.229-17.541 67.713-29.959 103.107-42.196 28.841-9.964 58.805-16.411 89.237-18.678 23.85-1.01 47.787 2.256 70.863 8.158 14.47 3.36 28.479 8.764 42.01 14.8-2.851.863-5.377 1.56-8.361.856-7.785-1.576-15.507-2.912-23.463-3.059-18.644-.542-36.588-2.237-55.192-1.126-25.582.78-51.923 3.054-76.774 9.339-26.693 5.838-52.073 15.874-76.368 28.279-21.668 11.753-42.043 25.555-61.699 40.393-9.008 6.866-18.215 12.997-26.371 20.93-11.691 11.36-25.094 23.026-34.031 36.745-14.387 23.956-19.417 54.003-23.874 81.269-2.271 12.205-3.471 24.567-5.867 36.757-2.668 13.574-3.506 26.764-8.24 39.907-9.348 26.907-25.28 51.959-43.802 73.479-2.234 2.807-5.231 3.803-8.452 5.087 6.461-9.817 12.135-20.109 17.358-30.64 8.824-17.087 15.732-33.96 13.242-53.634-7.532-2.035-15.28-1.237-22.758-3.319-9.793-2.542-19.075-6.376-26.943-12.871-8.068-6.123-12.917-16.446-16.999-25.487-7.119-16.332-3.874-35.901 5.149-50.831 9.549-16.578 28.933-27.309 48.055-26.133 13.862 1.664 28.394 7.678 41.302 11.948.976-2.831 1.945-5.676 2.875-8.523-2.457-3.462-5.823-7.027-7.026-11.125.446-7.252 4.322-14.491 6.703-21.304 7.852-21.341 17.907-41.64 32.65-59.103 13.464-19.752 32.792-29.636 53.669-39.918Z" style="fill:#7f5c43;fill-rule:nonzero"/>
    <path d="M1321.24 461.536c24.295-12.405 49.675-22.441 76.368-28.279 24.851-6.285 51.192-8.559 76.774-9.339 18.604-1.111 36.548.584 55.192 1.126 7.956.147 15.678 1.483 23.463 3.059 2.984.704 5.51.007 8.361-.856 16.074 6.866 31.304 15.484 45.588 25.535 4.21 3.196 8.631 6.81 11.598 11.239 1.229 3.035 1.134 6.566 2.161 9.703 1.507 1.668 4.266 2.234 6.327 2.959 6.767 1.411 10.676 3.515 15.701 8.281 22.235 21.156 43.722 41.874 60.977 67.483 9.372 12.758 15.494 27.009 23.25 40.684 19.469 31.315 35.261 66.696 38.615 103.795 2.09 17.62.056 34.588-2.907 51.989-.806 5.313-3.705 11.259-2.921 16.602 4.983 15.918 13.712 31.435 16.41 47.988-11.004 8.151-21.125 17.003-28.881 28.41-7.339 10.846-13.911 22.976-17.056 35.761-6.023 27.554-3.395 54.747 2.826 82.004 2.787 10.553 6.185 20.933 9.436 31.328.58 2.333 1.542 4.919 1.238 7.311-1.495 3.036-4.064 5.682-6.495 7.985-10.128 9.186-21.706 15.975-33.869 22.069-6.083 2.93-9.475 8.057-12.896 13.626-3.087 5.381-4.553 10.775-10.167 14.207-9.68 6.118-20.41 10.628-30.49 16.073-10.806 5.97-22.804 8.749-33.468 15.036 10.835.223 21.357-1.282 32.018-2.975 16.685-2.589 30.915-10.977 48.04-12.738 14.962-1.424 30.192-.9 45.189-.143 5.371.116 10.015 1.905 14.785 4.174 2.16.461 4.312.712 6.469.745 4.42-4.596 4.731-12.421 5.308-18.455.546-10.122 1.538-20.9-.166-30.932-1.399-8.28-5.495-14.472-8.443-22.238-6.311-17.502-12.143-35.131-16.696-53.194-2.97-12.795-4.266-26.011-5.065-39.091-.678-11.078 1.184-21.674 3.612-32.421 3.022-13.793 11.706-26.975 19.632-38.469 12.698 1.555 25.114 6.813 35.765 13.805 10.843 6.952 21.878 12.133 32.045 20.206 20.275 16.488 35.534 36.552 49.493 58.463 14.062 23.805 23.599 50.041 30.462 76.759 6.327 22.709 9.252 46.268 7.543 69.824-.78 7.167.981 13.629 2.581 20.504.325 2.481.72 4.947 1.216 7.419 7.873 9.802 18.698 16.296 28.533 24.635 15.027 12.243 30.976 23.045 46.834 34.126 18.556 14.597 38.09 27.784 55.72 43.317 13.719 11.623 28.167 24.296 38.668 38.971 8.677 11.962 14.227 25.316 18.376 39.44 3.613 12.449 7.499 25.325 9.429 38.142 3.379 22.997 3.277 46.419-.864 69.322-3.337 17.163-3.786 34.455-8.474 51.409-4.038 14.21-7.77 28.674-13.067 42.473-6.259 8.488-13.221 16.359-20.377 24.077-30.381 33.239-63.765 63.818-99.574 91.113-9.455 6.257-17.768 13.958-27.23 20.16-15.357 9.349-31.155 17.715-47.627 24.943-17.022 8.676-34.567 16.897-52.225 24.203.955-1.069 1.92-2.122 2.907-3.168 10.613-5.852 21.856-10.116 32.885-15.071 24.938-12.711 50.111-23.577 73.103-39.776 2.426-3.236 1.787-8.827 1.501-12.652-1.774-16.534-10.074-29.174-17.23-43.776-8.389-17.148-17.321-34.021-25.895-51.075-5.224-10.64-12.639-19.195-19.116-29.16-9.78-13.484-21.84-25.403-33.543-37.193-22.134-20-46.656-35.54-72.823-49.681-13.72-7.866-28.248-13.22-42.903-19.016-11.389-4.535-23.366-7.739-35.417-10.012-18.921-2.853-36.816-6.674-56.127-5.847-34.964.851-69.387 15.806-95.349 38.962-9.984 8.626-18.813 18.301-26.705 28.863-32.911 41.022-49.967 91.512-56.755 143.175-1.037 9.73-3.008 19.039-3.083 28.67-.045 12.146-.758 24.125.415 36.255 2.038 23.192 2.953 47.966 7.821 70.715 4.235 16.784 8.264 35.463 16.348 50.821 2.036.523 4.11.813 6.214.972-46.487 4.984-94.126-5.033-136.334-24.52-14.615-6.828-27.89-15.504-40.944-24.895-20.571-14.003-38.938-32.101-57.784-48.496-18.879-18.111-38.032-37.795-51.799-60.134-7.47-13.995-17.31-30.972-16.746-47.272.774-22.712 5.885-45.543 8.071-68.387 1.64-20.699 4.019-41.015 4.308-61.846-.232-19.516 1.355-38.749-.561-58.248-.872-7.049-.069-14.286-1.157-21.264-3.906-3.02-8.567-5.072-12.673-7.872-16.636-11.388-30.839-25.995-41.564-43.106-6.382-9.779-9.998-20.243-14.717-30.808-6.731-14.993-11.784-30.818-17.81-46.109-3.071-7.548-6.909-14.689-9.693-22.363-5.494-14.395-7.766-28.614-11.323-43.525-3.023-12.593-4.425-25.211-6.037-38.014-1.288-11.897-2.596-23.065.447-34.824 4.335-17.689 15.876-31.912 29.623-43.362 9.674-8.47 21.231-14.762 34.201-15.738 9.842.298 19.744 2.902 29.25 5.337 20.355 5.258 38.497 16.66 53.052 31.731 16.711 17.673 26.202 38.718 34.174 61.371 7.059 19.321 10.379 38.788 13.982 58.928 1.839 10.374 2.675 21.955 7.077 31.513 4.986 11.053 12.023 21.395 18.741 31.452 2.436 3.765 5.719 6.516 9.243 9.204 1.372-1.63 2.93-3.277 4.005-5.107.856-2.341-.784-5.342-1.627-7.502-3.687-7.957-6.698-15.886-6.657-24.779-.923-11.83 3.767-21.76 4.724-33.337.72-5.522.918-12.647 5.942-16.169 7.495-4.289 16.184-5.993 23.717-10.36 8.292-4.674 17.033-8.195 25.82-11.778-7.132-4.008-14.873-5.88-22.479-8.753l2.616-2.514c3.359-.168 6.726-.358 10.093-.626-11.126-7.237-23.678-13.186-36.838-15.459-20.583-4.365-38.915-13.763-56.282-25.403-6.691-4.252-9.723-13.104-14.115-19.613-21.609-34.764-60.421-56.071-100.953-58.486-4.596-.276-9.759.632-14.182-.607-3.305-2.41-5.933-5.98-8.567-9.099-7.248-9.146-14.834-17.77-21.201-27.596-11.089-17.024-23.613-32.541-33.621-50.308-12.198-19.632-24.092-38.893-34.048-59.819 8.273-6.552 16.516-12.856 23.25-21.06 11.65-12.974 21.789-26.894 31.747-41.17 3.221-1.284 6.218-2.28 8.452-5.087 18.522-21.52 34.454-46.572 43.802-73.479 4.734-13.143 5.572-26.333 8.24-39.907 2.396-12.19 3.596-24.552 5.867-36.757 4.457-27.266 9.487-57.313 23.874-81.269 8.937-13.719 22.34-25.385 34.031-36.745 8.156-7.933 17.363-14.064 26.371-20.93 19.656-14.838 40.031-28.64 61.699-40.393Z" style="fill:#775237;fill-rule:nonzero"/>
    <path d="M1099.6 620.807c8.517-6.072 19.481-6.284 29.535-5.723 6.435.451 14.377.917 19.816 4.734.712 2.207 1.129 4.525 1.229 6.946-9.71 4.985-17.773 1.137-27.861 1.274-6.396-.296-13.437 1.895-18.013 6.416-9.339 12.658-11.567 30.97-1.417 43.956 3.468 5.109 9.119 5.316 14.026 8.431.581 2.449.201 5.19.209 7.697-5.997.454-11.456-.181-16.521-3.682-14.791-10.437-19.78-31.353-14.268-48.101 2.546-7.83 6.583-16.825 13.265-21.948Z" style="fill:#573418;fill-rule:nonzero"/>
    <path d="M1288.4 588.761c3.37-3.674 9.184-6.138 14.15-6.245 7.188.323 12.684 5.824 16.774 11.24 5.062 6.869 10.59 15.117 10.525 23.964.189 8.272-3.9 16.32-11.124 20.531-8.112 4.797-16.819 8.883-25.497 12.528-5.258 1.87-12.126 4.557-17.361 1.258-3.786-2.399-5.129-5.2-4.86-9.617.681-10.892 4.605-21.912 7.772-32.315 2.356-7.091 4.704-15.579 9.621-21.344Zm121.055-53.151c4.951-4.011 10.722-7.172 17.251-5.464 13.094 3.027 25.755 8.881 37.864 14.646 5.091 2.593 11.736 5.604 14.878 10.567 2.372 4.829.275 9.94-3.687 13.137-6.273 4.896-14.014 8.162-21.149 11.626-6.649 2.965-14.317 6.759-21.738 6.36-6.731-.418-13.697-2.527-17.952-8.113-5.481-7.045-8.353-16.309-9.677-25.056-.866-5.924-.281-13.284 4.21-17.703Zm264.326-106.504c8.663-3.559 18.404-5.952 27.829-5.441 15.24 1.121 30.37 8.428 41.975 18.184 12.013 10.522 23.707 23.406 28.756 38.843 3.821 10.827 6.736 23.63 3.451 34.949-5.266 16.506-13.772 30.96-22.858 45.572 12.674 18.729 28.249 35.734 44.499 51.384 8.195 7.984 17.528 14.029 26.733 20.703 15.364 11.527 34.337 19.277 52.027 26.53 2.88 1.419 5.618 2.403 6.6 5.796 3.014 8.318 3.419 17.861 2.928 26.633-1.291 19.355-4.528 37.712-7.371 56.998-3.731 17.421-6.837 35.499-13.437 52.098-13.018-3.26-26.654-7.277-40.16-7.78-7.172-.252-13.807 1.13-20.285 4.202-9.612 4.527-19.866 9.244-28.272 15.727-2.697-16.553-11.426-32.07-16.409-47.988-.784-5.342 2.114-11.289 2.921-16.602 2.963-17.401 4.997-34.369 2.907-51.989-3.354-37.099-19.146-72.48-38.616-103.795-7.755-13.675-13.877-27.926-23.249-40.684-17.255-25.609-38.742-46.327-60.977-67.483-5.025-4.766-8.934-6.87-15.701-8.281 3.364-4.645 6.229-9.582 9.305-14.412 5.321-8.265 13.125-14.209 20.342-20.693 5.467-4.797 10.188-9.645 17.062-12.471Z" style="fill:#654233;fill-rule:nonzero"/>
    <path d="M1692.73 458.741c13.256-3.749 29.573-3.076 40.615 6.032 7.611 6.101 15.164 14.353 18.153 23.811 3.271 12.506 1.063 26.333-8.225 35.793-3.392 3.9-7.725 4.679-12.372 6.297a78.9815 78.9815 0 0 1-2.145-4.457c.526-5.521 5.346-10.788 7.925-15.599 5.014-7.72 4.835-18.39-.657-25.839-4.779-6.428-11.695-13.194-19.937-14.48-7.939-1.303-16.579-.383-24.168 2.183-5.407 1.809-9.427 7.04-14.056 10.304-2.563-.334-5.049-2.05-7.399-3.076 2.465-11.174 11.674-18.066 22.266-20.969Z" style="fill:#583519;fill-rule:nonzero"/>
    <path d="M1279.24 671.791c8.339-4.582 18.74-8.244 28.358-6.353 16.787 2.672 30.485 11.99 42.566 23.489 16.249 15.495 27.405 37.252 35.93 57.814 7.933 22.692 13.519 46.127 12.443 70.315-.422 13.972-2.614 30.32-12.454 41.034-7.129 8.384-14.241 17.033-24.473 21.757-7.794 3.546-16.309 7.127-24.863 8.101-23.989 2.539-47.801 3.355-71.54-1.783-17.925-3.611-34.749-12.801-48.478-24.749-16.764-15.935-28.013-38.949-30.143-62.016-2.628-19.331 9.593-39.387 24.91-50.272 11.976-7.614 27.599-10.112 41.565-7.897.337-8.694-.979-17.385-.254-26.043 1.907-17.449 11.534-33.911 26.433-43.397Z" style="fill:#573417;fill-rule:nonzero"/>
    <path d="M1305.47 676.029c13.299.938 24.665 8.229 34.524 16.692 9.924 8.897 19.399 19.403 25.344 31.428 5.34 10.6 11.994 21.682 14.988 33.142 5.693 20.54 10.356 40.201 8.287 61.702-1.103 13.052-7.407 25.863-14.887 36.431-7.08 10.247-19.047 16.844-30.8 20.219-13.664 2.866-28.122 2.982-42.05 3.259-23.273.269-49.134-4.142-68.514-17.756-9.914-5.964-17.115-14.978-23.55-24.4-7.515-11.015-10.973-24.963-12.439-38.055-1.313-13.324 5.883-24.954 14.277-34.603 8.393-9.843 22.174-14.247 34.734-14.919 5.764-.336 12.677 3.278 17.276-1.118 1.33-7.465-.301-15.589-.176-23.203-.49-14.773 6.574-30.188 17.677-39.83 7.009-5.016 16.391-10.418 25.309-8.989Z" style="fill:#a76163;fill-rule:nonzero"/>
    <path d="M1490.77 585.202c7.525-1.892 15.091-1.936 22.697-.561 12.513 1.96 24.417 5.708 34.059 14.281 7.832 6.806 12.428 14.943 18.352 23.282 7.184-5.669 13.938-13.143 22.817-15.625 15.884-4.323 31.171-7.059 47.046-1.007 15.616 5.582 25.046 18.874 31.674 33.433 5.173 14.031 8.075 29.722 6.324 44.679-2.477 15.597-7.131 31.697-15.168 45.387-7.494 12.267-18.248 23.211-28.277 33.436-10.607 10.734-22.649 17.72-34.516 26.776-7.988 6.232-17.172 9.491-26.779 12.381-11.49 3.164-22.852.406-34.264-1.645-10.799-1.916-19.178-8.114-27.336-15.065-15.378-13.817-26.24-30.43-36.356-48.259-7.326-13.211-12.195-28.215-16.339-42.711-4.77-16.649-6.495-34.084-5.153-51.344.846-10.567 4.369-21.072 8.837-30.636 6.243-12.664 18.181-24.033 32.382-26.802Z" style="fill:#583517;fill-rule:nonzero"/>
    <path d="M1511.39 594.998c13.214 2.383 26.103 7.304 35.104 17.681 6.8 6.805 10.258 15.5 17.829 21.563 5.588-2.563 8.938-6.929 13.44-10.789 8.213-4.906 17.866-10.233 27.578-10.957 13.517-1.624 27.626 2.289 38.684 10.124 8.244 6.928 13.97 17.255 16.755 27.576 4.115 14.782 5.175 30.142.832 45.014-4.051 13.224-9.177 25.788-17.757 36.758-10.769 13.636-23.206 26.173-37.191 36.499-10.816 8.29-21.443 15.725-34.313 20.582-17.795 5.195-34.803.476-50.569-8.2-20.746-10.859-34.909-34.593-44.862-54.937-5.587-13.16-11.72-26.743-14.325-40.852-4.094-17.693-4.946-37.245.095-54.845 3.083-10.339 8.126-20.954 16.926-27.618 8.159-7.506 21.18-9.034 31.774-7.599Z" style="fill:#a76163;fill-rule:nonzero"/>
    <path d="M1474.18 632.654c4.192-7.537 17.82-4.917 21.214 2.156 2.729 4.843 6.39 11.022 5.136 16.795-1.148 5.486-2.844 11.27-8.55 13.562-5.493 2.981-12.452-.649-15.631-5.418-5.142-7.335-7.338-19.219-2.169-27.095ZM1210.061 802.04c2.3-4.747 7.061-5.412 11.671-4.151 10.722 3.491 16.483 18.451 10.557 28.093-2.362 4.779-8.653 4.079-12.623 2.007-8.696-4.791-14.889-16.574-9.605-25.949Z" style="fill:#ce7f82;fill-rule:nonzero"/>
    <path d="M1485.15 687.604c4.414.952 4.151 6.3 5.188 9.802 1.262 8.778 4.228 16.885 7.35 25.147-2.218-1.034-5.085-1.584-6.456-3.788-4.736-6.995-8.45-15.579-8.973-24.09.249-2.539-.481-6.547 2.891-7.071Z" style="fill:#cb7d80;fill-rule:nonzero"/>
    <path d="M1252.26 846.656c6.038 1.236 11.619 4.106 17.794 5.04 7.006 1.076 14.145.879 21.16 2.048-11.437 9.598-27.816 7.614-40.216 1.199-3.214-1.424-1.776-7.641 1.262-8.287Z" style="fill:#cc7e80;fill-rule:nonzero"/>
    <path d="M1998.42 512.895c6.393-3.01 12.416-6.824 19.088-8.439 12.025-4.681 24.568-8.301 37.202-10.898 1.193-.333 2.386-.666 3.587-.984 2.374-.153 4.732-.338 7.098-.546 2.566-.387 5.149-.705 7.731-1.023 3.127-.244 6.26-.472 9.378-.769 4.902-.541 9.83-.532 14.756-.832 15.345-.859 30.668-.266 45.907 1.887 12.538 2.044 24.745 6.047 37.2 8.464 19.52 2.997 38.76 7.168 57.932 11.859 15.455 3.191 29.843 8.5 44.863 12.905 28.258 9.596 55.989 23.254 79.535 41.702 2.909 2.552 5.858 5.026 8.798 7.561 3.85 4.021 7.852 7.575 12.234 10.995 2.417 2.042 4.789 4.108 7.122 6.252 4.49 7.431 8.107 15.326 12.559 22.757 6.628 8.079 9.389 17.088 13.054 26.573 5.068 10.602 8.331 21.711 12.013 32.842 2.053 9.913 4.927 19.605 6.53 29.63.236 1.807.472 3.613.684 5.413.329 1.798.642 3.604.94 5.419.236 1.807.472 3.614.692 5.428.282 1.783.549 3.575.807 5.35.244 3.126.488 6.252.746 9.371.357 2.582.675 5.164 1.047 7.738.215 2.343.447 4.677.654 7.004.287 2.559.558 5.127.83 7.694.23 6.246.942 12.442 1.77 18.638.305 4.398.455 8.759.908 13.141.186 6.502.154 13.076-.645 19.553-2.973 23.671-6.045 47.491-10.836 70.879-2.803 16.794-5.762 33.551-9.505 50.181-5.35 19.332-11.377 38.365-18.296 57.21-4.268 14.599-10.815 28.234-15.417 42.712-18.735 47.294-38.795 96.234-64.316 140.317-12.356 22.167-26.713 43.267-40.751 64.381-7.454 9.931-14.214 20.308-22.237 29.807-.992 1.613-1.975 3.202-2.967 4.814l-1.523 1.103c-1.547 2.166-3.054 4.372-4.563 6.577-5.403 6.302-10.128 13.136-15.663 19.331-1.526 1.786-3.068 3.58-4.617 5.358-2.082 2.341-4.186 4.674-6.307 6.976-1.242 1.311-2.483 2.621-3.71 3.964-4.829 4.785-9.472 9.71-14.13 14.68-2.199 2.225-4.429 4.427-6.721 6.544a1046.286 1046.286 0 0 0-4.601 5.505c-1.02.713-2.032 1.44-3.045 2.168-1.525 1.864-3.066 3.735-4.576 5.63-1.02.712-2.041 1.425-3.069 2.121-1.358 1.312-2.591 2.755-3.707 4.314-1.312 1.249-2.609 2.491-3.936 3.709-2.945 3.285-6.42 4.989-10.406 6.72.059-7.093 2.164-13.376 4.049-20.092 3.667-21.612 3.698-44.024.358-65.68-3.004-17.118-8.527-33.833-15.752-49.606-5.547-10.242-11.869-20.247-19.487-29.088-1.254-2.166-2.455-4.339-3.647-6.536 27.153-9.38 56.964-11.488 85.528-10.647 6.631.527 12.937-.084 17.395 5.826 9.146 11.199 18.577 22.156 27.862 33.245 2.5 2.857 5.317 5.378 8.149 7.891 3.603-4.786 6.81-9.74 9.791-14.95-6.588-8.994-14.588-16.708-21.368-25.507 11.402.267 21.49 5.383 32.557 6.832 5.214-2.841 8.28-10.681 11.3-15.658-4.145-1.497-8.328-2.877-12.648-3.798-13.342-2.785-26.194-6.83-39.793-8.512-4.614-.811-10.397-1.048-13.809-4.629-6.05-6.056-11.298-12.909-17.078-19.239-31.539-36.808-64.594-71.621-102.166-102.372-7.603-6.203-15.88-10.896-22.273-18.51 6.86-4.006 13.877-7.703 21.302-10.595 10.36-3.972 20.117-9.058 30.658-12.597 13.879-4.63 27.522-9.995 41.465-14.423 29.307-8.74 59.091-16.77 89.025-23.084 6.332-1.287 12.825-3.142 19.288-3.444 2.792-.21 4.517 1.425 6.644 2.934 9.739 7.804 18.649 17.08 27.879 25.453 8.667 7.725 17.258 15.528 25.856 23.347 5.643 5.407 11.131 10.892 17.405 15.589 3.646-5.625 5.555-10.991 6.851-17.525-18.868-18.739-39.634-35.581-58.771-54.048 11.605-3.436 23.643-4.485 35.651-6.744 15.481-2.776 31.245-3.653 46.623-6.941 2.384-6.424 4.178-12.783 5.341-19.541-10.354-.157-20 2.461-30.182 3.794-22.362 3.213-44.693 6.526-66.863 10.925-4.529.546-8.695 2.077-12.563-1.214-12.171-9.645-23.126-20.88-35.127-30.765-13.717-11.196-26.532-23.335-40.479-34.219-12.808-9.788-25-20.317-38.047-29.809-7.713-6.341-16.338-10.8-23.357-17.921 16.9-16.242 34.979-31.272 52.699-46.587 24.892-20.549 49.716-40.578 75.921-59.381 5.616-4.348 11.328-8.238 17.587-11.589 24.985 20.364 48.499 42.622 72.026 64.64 15.689 14.008 30.153 29.475 46.251 43.023 2.049-6.468 2.817-13.124 1.668-19.838-.46-2.899-3.33-5.374-5.282-7.38-12.633-11.706-25.351-23.311-37.754-35.251-11.416-10.689-23.318-20.839-34.658-31.606-8.687-8.338-18.437-15.436-27.124-23.774 4.009-3.337 8.025-6.62 12.463-9.378 15.348-9.558 30.477-19.511 45.959-28.845 6.628-3.811 13.069-7.838 19.282-12.314-2.456-5.953-5.306-11.415-8.791-16.827-29.116 16.096-56.983 34.653-84.548 53.27-9.421-5.222-16.643-12.668-25.179-19.059-35.807-27.696-73.714-53.509-113.552-75.035-1.463-.697-2.191-1.71-2.19-3.014 2.865-3.633 6.564-6.736 9.984-9.852 15.385-13.858 30.684-27.847 45.936-41.852 2.485-2.351 4.324-5.016 6.365-7.744-7.254-2.254-14.426-3.811-21.974-4.573-20.375 17.907-39.827 36.864-59.968 55.003-7.992-2.483-15.04-6.671-22.565-10.15-36.043-15.045-71.454-28.037-110.374-33.488-6.003-.71-12.563-2.363-18.587-1.466-6.554 2.041-12.646 7.175-17.922 11.428 5.162 1.545 10.272 2.183 15.652 2.391 18.344 1.064 35.869 5.268 53.544 9.999 29.689 8.695 59.39 19.486 86.846 33.789-14.855 16.897-31.606 32.09-46.39 49.088-24.283 27.615-46.91 57.114-67.56 87.557-4.164 5.868-7.579 12.407-12.234 17.882-1.409 1.98-3.71 1.279-5.752 1.129-12.164-1.846-26.633-6.355-38.76-3.218.788 4.543 1.753 9.054 2.828 13.549 10.943 1.472 21.334 1.473 31.78 5.493-6.2 11.98-13.94 23.263-20.023 35.359-4.596 7.663.398 18.77 2.656 26.595 11.133-18.978 21.681-38.418 33.656-56.889 9.571 1.798 17.97 6.041 26.9 9.682 15.178 6.251 30.002 14.374 44.351 22.291 7.731 4.153 15.492 8.212 22.839 13.027 8.211 5.407 16.759 9.982 24.401 16.184-7.413 8.821-16.053 16.299-23.959 24.688-12.838 12.703-24.538 26.383-36.682 39.725-12.743 14.502-25.338 29.104-36.669 44.778-4.548 6.491-10.759 12.697-13.851 20.026-.791 5.344 2.668 11.664 4.452 16.674 4.048-4.486 7.815-9.18 11.395-14.052 10.048-13.484 21.205-25.858 32.087-38.657 24.905-28.69 51.254-56.147 78.727-82.385 6.265 3.145 11.722 7.343 17.204 11.664 30.426 21.961 59.286 46.703 87.74 71.144 8.763 8.066 18.279 14.971 26.502 23.544-3.02 1.143-5.962 2.286-9.14 3.003-43.098 8.674-85.57 20.728-126.71 36.252-8.727 3.279-17.069 7.395-25.74 10.783-14.572 5.681-27.432 13.548-41.594 20.345-14.975-6.159-28.561-17.634-44.305-21.088 1.184 5.937 1.682 15.433 7.831 18.501 7.007 3.8 14.258 6.815 20.565 11.846-4.663 4.001-9.627 7.219-15.018 10.169-3.851 2.421-8.447 4.753-9.902 9.403-2.769 8.118-5.475 16.36-7.374 24.737 14.779-11.293 28.556-22.992 45.048-31.944 2.861-1.724 4.94-.658 7.44.934 17.954 12.489 33.568 26.886 49.919 41.357 28.584 27.955 56.214 57.251 81.463 88.262-9.81 1.183-19.632.387-29.459 1.384-12.434 1.035-24.65 3.42-36.834 6.177-10.036 2.31-18.819 6.591-28.632 9.916-15.032-15.859-32.607-28.483-48.58-43.282-15.247-14.057-31.426-26.922-45.94-41.799-5.124-5.612-13.307-8.737-13.504-17.18 3.424-10.28 9.157-19.804 12.526-30.115 3.175-10.503 4.632-21.322 4.761-32.265-.854-5.482-1.585-10.988-2.673-16.429-6.536-20.054-12.042-40.416-19.136-60.303-1.458-3.794-2.892-7.581-4.335-11.382-3.33-10.628-6.799-21.263-10.33-31.828-1.895-6.802-3.938-13.55-5.886-20.344-4.302-13.463-7.782-27.303-11.115-41.043-.754-2.828-1.531-5.663-2.293-8.507-.476-1.743-.967-3.479-1.443-5.222-1.052-4.681-1.926-9.394-3.132-14.036-1.459-6.44-2.808-12.897-3.995-19.378-1.171-6.488-2.568-12.922-4.072-19.338-1.333-8.917-3.108-17.746-5.061-26.543-.417-2.356-.881-4.69-1.43-6.999-.248-1.217-.488-2.418-.728-3.62-.521-2.907-1.082-5.814-1.611-8.737-.979-4.115-1.601-8.294-2.286-12.481-.309-1.185-.603-2.378-.913-3.564-.197-1.846-.418-3.661-.677-5.475-.665-3.651-1.238-7.311-1.802-10.955-.534-3.621-1.037-7.258-1.671-10.847-.231-2.335-.438-4.662-.607-6.989-.368-4.406-.689-8.796-1.017-13.202-.244-3.126-.503-6.245-.808-9.378-.439-9.916-.443-19.857-.386-29.791 1.004-18.002.138-34.667 6.026-52.093 3.018-10.774 9.19-19.549 16.147-28.118 1.211-1.335 2.468-2.653 3.717-3.949 3.243-2.852 5.916-6.174 8.886-9.295 6.599-4.828 13.355-9.307 20.769-12.796Z" style="fill:#221811;fill-rule:nonzero"/>
    <path d="M1999.71 527.656c6.025-.897 12.584.756 18.587 1.466 38.921 5.451 74.331 18.443 110.374 33.488 7.525 3.479 14.573 7.667 22.566 10.15 20.14-18.139 39.592-37.096 59.967-55.003 7.548.762 14.72 2.318 21.974 4.573-2.04 2.728-3.88 5.393-6.365 7.744-15.252 14.004-30.551 27.993-45.936 41.852-3.419 3.116-7.119 6.219-9.984 9.852 0 1.304.727 2.316 2.19 3.014 39.838 21.526 77.745 47.339 113.553 75.035 8.535 6.391 15.758 13.837 25.179 19.059 27.564-18.617 55.431-37.174 84.547-53.27 3.486 5.412 6.335 10.874 8.791 16.827-6.213 4.476-12.653 8.503-19.282 12.314-15.481 9.334-30.61 19.287-45.959 28.845-4.438 2.758-8.454 6.04-12.462 9.378 8.687 8.338 18.437 15.436 27.123 23.774 11.34 10.767 23.242 20.917 34.659 31.606 12.402 11.94 25.12 23.545 37.753 35.251 1.952 2.006 4.823 4.481 5.282 7.38 1.149 6.714.382 13.37-1.668 19.838-16.097-13.548-30.561-29.015-46.25-43.023-23.528-22.018-47.042-44.276-72.027-64.64-6.258 3.35-11.97 7.241-17.587 11.589-26.205 18.803-51.029 38.832-75.92 59.381-17.721 15.315-35.799 30.345-52.699 46.587 7.018 7.121 15.643 11.579 23.356 17.921 13.047 9.492 25.239 20.021 38.047 29.809 13.948 10.883 26.762 23.023 40.479 34.218 12.002 9.886 22.956 21.121 35.127 30.765 3.868 3.291 8.035 1.761 12.564 1.215 22.169-4.399 44.5-7.712 66.862-10.925 10.182-1.333 19.829-3.951 30.182-3.795-1.163 6.759-2.957 13.118-5.341 19.542-15.377 3.288-31.141 4.165-46.623 6.941-12.007 2.259-24.046 3.308-35.651 6.744 19.138 18.467 39.904 35.309 58.771 54.048-1.296 6.534-3.205 11.9-6.85 17.525-6.275-4.697-11.763-10.182-17.406-15.59-8.598-7.818-17.188-15.621-25.856-23.346-9.23-8.373-18.139-17.649-27.878-25.453-2.127-1.509-3.852-3.144-6.645-2.934-6.463.302-12.955 2.157-19.288 3.443-29.934 6.315-59.718 14.344-89.025 23.085-13.943 4.428-27.585 9.793-41.465 14.423-10.541 3.539-20.297 8.625-30.657 12.597-7.426 2.892-14.443 6.589-21.303 10.595 6.393 7.614 14.671 12.307 22.273 18.509 37.572 30.751 70.627 65.564 102.166 102.373 5.78 6.33 11.028 13.182 17.078 19.239 3.412 3.581 9.195 3.818 13.81 4.629 13.599 1.681 26.451 5.727 39.792 8.512 4.32.921 8.503 2.301 12.649 3.798-3.021 4.977-6.087 12.817-11.3 15.657-11.068-1.448-21.156-6.565-32.557-6.831 6.78 8.799 14.78 16.512 21.367 25.507-2.98 5.209-6.187 10.164-9.791 14.95-2.832-2.513-5.648-5.034-8.149-7.891-9.284-11.089-18.716-22.046-27.862-33.245-4.458-5.91-10.764-5.299-17.394-5.826-28.564-.841-58.376 1.267-85.529 10.647 1.193 2.197 2.393 4.37 3.647 6.536-5.576-5.966-11.036-12.049-16.69-17.938 9.813-3.324 18.596-7.606 28.633-9.915 12.183-2.757 24.4-5.142 36.834-6.178 9.827-.996 19.648-.2 29.458-1.384-25.249-31.01-52.878-60.306-81.462-88.261-16.351-14.471-31.965-28.868-49.919-41.357-2.501-1.592-4.579-2.659-7.44-.934-16.493 8.952-30.269 20.65-45.048 31.944 1.898-8.377 4.604-16.619 7.374-24.738 1.455-4.649 6.051-6.981 9.901-9.402 5.392-2.95 10.355-6.169 15.019-10.169-6.308-5.031-13.558-8.046-20.565-11.846-6.149-3.068-6.648-12.564-7.831-18.502 15.743 3.454 29.329 14.93 44.305 21.089 14.162-6.797 27.021-14.664 41.593-20.345 8.672-3.388 17.013-7.504 25.74-10.784 41.141-15.523 83.613-27.577 126.711-36.251 3.177-.717 6.119-1.86 9.139-3.003-8.222-8.573-17.739-15.478-26.501-23.544-28.455-24.441-57.314-49.183-87.741-71.144-5.481-4.322-10.938-8.519-17.204-11.664-27.473 26.237-53.821 53.694-78.726 82.384-10.883 12.799-22.04 25.174-32.088 38.658-3.58 4.872-7.347 9.566-11.395 14.052-1.783-5.01-5.243-11.331-4.452-16.674 3.093-7.329 9.303-13.535 13.851-20.027 11.332-15.673 23.926-30.275 36.669-44.777 12.144-13.342 23.844-27.023 36.683-39.725 7.905-8.389 16.545-15.867 23.959-24.688-7.642-6.202-16.19-10.777-24.402-16.184-7.347-4.815-15.108-8.875-22.838-13.028-14.35-7.916-29.173-16.039-44.351-22.29-8.931-3.642-17.329-7.884-26.901-9.682-11.974 18.471-22.523 37.911-33.656 56.889-2.258-7.825-7.251-18.932-2.656-26.595 6.083-12.096 13.824-23.379 20.024-35.359-10.446-4.021-20.838-4.021-31.781-5.493-1.074-4.495-2.04-9.006-2.827-13.549 12.127-3.137 26.596 1.372 38.759 3.217 2.042.151 4.343.851 5.752-1.128 4.655-5.476 8.07-12.014 12.234-17.883 20.65-30.442 43.277-59.941 67.56-87.556 14.784-16.998 31.535-32.191 46.39-49.088-27.456-14.303-57.157-25.094-86.846-33.789-17.675-4.731-35.2-8.935-53.544-9.999-5.379-.209-10.49-.846-15.652-2.391 5.276-4.253 11.369-9.387 17.922-11.428Z" style="fill:#3d2c1e;fill-rule:nonzero"/>
    <path d="M1481.85 808.929c11.136-.066 22.472.876 33.276 3.684 15.631 4.308 30.406 11.951 43.231 21.847 14.143 11.116 26.389 24.283 33.89 40.831-1.861 2.89-3.73 5.765-5.583 8.631 1.466 2.545 2.924 5.113 4.375 7.665-.024 5.052 1.102 10.571.006 15.506-1.817 3.704-5.517 6.691-8.277 9.764-5.586 5.598-11.222 13.167-18.294 16.832-9.823 4.226-19.544 3.282-29.7 1.138-11.503-1.655-22.487-4.625-33.527-8.169-5.207-7.768-10.666-14.922-13.281-24.064 9.828-4.715 14.518-13.535 18.186-23.257 1.929-5.824 3.009-12.093 2.702-18.261-.526-7.517-3.442-13.763-6.586-20.496-7.083-2.341-14.76-6.54-22.302-3.764-6.583 2.444-13.109 5.113-19.667 7.643-11.795 5.44-23.099 9.93-30.163 21.512-1.725 3.58-4.591 7.097-1.411 10.757 4.844 6.901 10.886 14.091 18.353 18.222 10.282 5.271 19.936 10.452 31.825 10.568 2.886 6.339 6.632 12.533 8.728 19.195-3.071 8.291-9.111 15.831-14.346 22.924-7.379 8.161-12.597 18.125-24.39 20.042-14.333 2.7-26.001-3.27-37.179-11.569-2.776-3.67-5.507-7.364-8.291-11.01-2.025.151-4.042.28-6.066.431-2.742-10.926-5.51-21.138-5.446-32.516.005-20.239 6.204-39.087 15.263-56.974 14.267-27.223 43.633-46.891 74.674-47.112Z" style="fill:#b78657;fill-rule:nonzero"/>
    <path d="M1247.78 922.811c8.471-5.816 18.352-8.241 28.553-7.579 12.738.444 24.207 5.445 34.647 12.484 9.296 6.433 15.446 16.136 19.008 26.724 3.664 10.711 1.618 22.977-4.559 32.357-4.939 7.371-13.363 12.015-21.722 14.408-21.357 5.232-45.03-1.884-59.755-18.289-7.915-9.041-12.323-20.912-11.517-32.938.627-10.729 6.542-21.046 15.345-27.167Z" style="fill:#8f5a4d;fill-rule:nonzero"/>
    <path d="M1460.3 844.461c6.559-2.53 13.085-5.2 19.667-7.644 7.543-2.776 15.219 1.423 22.303 3.764 3.144 6.733 6.06 12.979 6.585 20.496.308 6.168-.773 12.437-2.702 18.261-3.668 9.722-8.357 18.543-18.185 23.257 2.614 9.142 8.074 16.296 13.28 24.065 11.041 3.543 22.024 6.513 33.527 8.168 10.156 2.144 19.878 3.088 29.701-1.137 7.071-3.666 12.708-11.235 18.293-16.832 2.761-3.074 6.46-6.06 8.278-9.765 1.096-4.934-.031-10.454-.007-15.506l.011-2.165c-.294-2.497-.828-4.969-1.115-7.49 1.656-2.183 4.075-3.858 6.105-5.686 2.59 4.835 5.215 9.243 5.357 14.892.355 8.713 2.033 18.35-3.72 25.764-6.872 8.662-14.919 16.618-23.227 23.907-5.758 5.218-12.338 5.404-19.593 6.945-1.504 14.715-4.165 29.259-5.351 44.026-12.615 7.276-25.97 12.632-39.686 17.354-3.191 1.035-7.285-2.278-10.04-3.565-7.076-3.59-10.729-9.871-16.911-14.576-7.047-5.414-12.273-12.492-18.989-18.327-6.693 4.68-13.358 8.918-21.896 8.658-7.538-.359-15.177-4.792-22.124-7.553-9.132-3.578-16.592-9.346-23.516-16.166.984-4.197 2.588-7.326 5.089-10.871 3.104 3.893 6.108 6.708 10.284 9.376 11.177 8.3 22.846 14.269 37.179 11.569 11.792-1.916 17.011-11.881 24.39-20.042 5.235-7.093 11.274-14.633 14.346-22.924-2.096-6.662-5.842-12.855-8.728-19.195-11.89-.116-21.543-5.297-31.826-10.568-7.467-4.131-13.508-11.321-18.352-18.222-3.181-3.66-.314-7.177 1.411-10.757 7.063-11.581 18.367-16.072 30.162-21.511Z" style="fill:#27170b;fill-rule:nonzero"/>
    <path d="M1670.43 754.892c13.277-10.843 33.616-16.201 49.473-7.882 14.6 8.218 23.681 26.805 19.657 43.344-4.907 24.575-26.635 44.609-51.68 46.906-14.358 1.272-28.661-6.784-35.394-19.441-5.106-10.33-5.821-22.479-2.277-33.403 3.789-11.555 10.518-22.033 20.221-29.524Z" style="fill:#8f5a4d;fill-rule:nonzero"/>
    <path d="M2156.63 595.237c10.08 3.72 19.375 9.959 28.687 15.275 19.497 12.115 39.038 24.052 57.411 37.866 18.319 12.596 35.652 26.393 52.855 40.471-4.655 5.475-10.571 9.041-16.336 13.172-40.401 30.287-79.756 61.678-116.508 96.359-4.166 4.099-8.427 8.012-12.844 11.809-9.303-5.066-17.869-11.248-26.98-16.626-23.354-13.622-46.829-26.599-71.756-37.185-7.554-3.114-15.246-5.886-22.761-9.117 2.891-5.922 6.327-11.383 10.223-16.706 28.118-40.653 60.102-78.208 94.708-113.475 7.57-7.362 14.801-15.584 23.301-21.843Z" style="fill:#221811;fill-rule:nonzero"/>
    <path d="M1496.64 943.611c4.594 10.512 9.459 20.866 15.059 30.868a358.847 358.847 0 0 0 5.186-3.624c1.954 4.924 4 9.801 5.892 14.757-2.072 1.363-4.159 2.733-6.239 4.08-4.304-11.321-11.19-21.097-16.315-32.002-6.119 4.623-12.493 8.168-17.158 14.466 2.095 3.977 4.013 8.063 6 12.095-6.109-5.482-12.241-10.971-18.342-16.477 5.761-4.868 11.998-9.181 16.761-14.789 2.914-3.269 5.969-6.375 9.156-9.374Z" style="fill:#c6c5c6;fill-rule:nonzero"/>
    <path d="M1506.83 942.141c12.461-.407 23.632 4.005 35.792 5.229.353.696.715 1.408 1.052 2.112-1.605 8.151-2.107 16.364-3.409 24.575-3.954-5.836-5.907-12.103-7.275-18.939-5.817-.727-11.64-1.197-17.493-1.496-.743 1.681-1.494 3.346-2.244 5.011-.678-1.719-1.355-3.438-2.049-5.149l.239-1.716c-1.563-3.196-3.127-6.392-4.613-9.627Z" style="fill:#c6c6c7;fill-rule:nonzero"/>
    <path d="M1500.22 957.691c5.124 10.904 12.011 20.681 16.315 32.001 2.08-1.347 4.167-2.717 6.239-4.08-1.892-4.955-3.938-9.832-5.892-14.756-1.104-2.982-1.898-6.043-2.522-9.151-.37-1.037-.734-2.06-1.112-3.074.751-1.665 1.501-3.331 2.244-5.011 5.853.299 11.677.769 17.494 1.496 1.367 6.836 3.321 13.103 7.274 18.939-.416 3.168-.754 6.337-1.1 9.528-9.917 5.422-20.107 10.689-30.589 14.957-7.402-2.277-13.629-9.411-19.509-14.289-1.987-4.031-3.905-8.118-6.001-12.094 4.666-6.298 11.04-9.844 17.159-14.466Z" style="fill:#e5e3e4;fill-rule:nonzero"/>
    <path d="M1787.14 817.545c10.971-8.368 24.787-10.63 38.261-10.306 18.02 1.384 36.063 6.609 51.647 15.845 13.933 8.4 23.498 22.189 29.39 37.101 3.388 8.711 7.706 17.028 10.939 25.778 6.068 18.21 12.62 35.686 14.387 54.969 2.691 28.853 9.859 55.981 10.316 84.723.395 11.825-.335 23.501-4.025 34.83-4.665 14.237-10.075 28.54-19.107 40.654-1.601-6.875-3.362-13.337-2.581-20.504 1.708-23.556-1.217-47.115-7.543-69.824-6.863-26.718-16.4-52.954-30.463-76.759-13.958-21.911-29.217-41.975-49.492-58.463-10.167-8.073-21.202-13.254-32.046-20.206-10.65-6.992-23.067-12.25-35.764-13.805 7.108-9.386 16.717-17.024 26.081-24.033Z" style="fill:#654233;fill-rule:nonzero"/>
    <path d="M1284.59 1099.29c8.297 3.963 15.801 9.203 24.181 12.91 17.436 7.635 35.787 12.354 54.851 13.149l-2.616 2.514c7.607 2.874 15.348 4.745 22.48 8.754-8.787 3.583-17.528 7.103-25.82 11.778-7.533 4.366-16.222 6.071-23.717 10.36-5.024 3.522-5.222 10.647-5.943 16.169-.956 11.577-5.647 21.507-4.723 33.336-.041 8.894 2.97 16.823 6.657 24.779-7.456-11.511-16.493-21.306-21.289-34.556-3.463-9.393-2.982-18.725-4.796-28.896-2.343-13.093-5.756-25.994-8.882-38.905-2.509-10.85-7.045-20.827-10.383-31.392Zm464.492-89.448c7.467 10.805 9.082 23.997 8.389 36.821-.453 10.153-3.685 18.74-1.064 28.969-4.77-2.269-9.414-4.058-14.785-4.174-14.997-.757-30.227-1.281-45.188.142-17.125 1.762-31.355 10.15-48.041 12.739-10.66 1.693-21.183 3.198-32.018 2.975 10.665-6.287 22.662-9.066 33.468-15.036 10.08-5.445 20.81-9.955 30.49-16.073 5.614-3.432 7.08-8.827 10.168-14.207.396 1.433.801 2.882 1.182 4.323 11.816-5.781 23.593-11.717 35.119-18.033 8.857-4.863 14.901-11.744 22.28-18.446Z" style="fill:#6e4a35;fill-rule:nonzero"/>
    <path d="M1956.3 1037.92c5.539 3.591 8.626 8.641 12.861 13.497 6.072 7.057 12.668 13.654 18.956 20.524 22.672 25.662 48.016 49.074 73.265 72.145 7.749 7.179 16.298 13.252 24.416 19.971 19.196 16.51 37.509 31.931 52.276 52.868 18.96 29.083 26.697 64.581 24.929 99.025-1.99 20.468-4.591 41.421-10.831 61.069-6.735 23.927-14.997 48.181-27.293 69.89-8.695 15.269-18.263 30.009-29.56 43.485 5.297-13.798 9.029-28.262 13.067-42.472 4.688-16.954 5.137-34.247 8.474-51.41 4.141-22.902 4.243-46.324.864-69.322-1.93-12.817-5.816-25.692-9.429-38.142-4.149-14.123-9.699-27.477-18.376-39.439-10.501-14.676-24.948-27.349-38.668-38.971-17.63-15.534-37.164-28.72-55.72-43.317-15.858-11.082-31.807-21.884-46.834-34.127-9.835-8.339-20.66-14.832-28.533-24.634 3.133-.345 6.219.56 8.486-2.068 4.822-4.723 8.363-11.015 11.587-16.893 8.891-16.342 12.343-33.699 16.063-51.679Z" style="fill:#654233;fill-rule:nonzero"/>
    <path d="M1655.62 1358.46c19.312-.828 37.207 2.994 56.128 5.847 12.05 2.273 24.028 5.477 35.416 10.012 14.655 5.796 29.184 11.15 42.904 19.016 26.167 14.141 50.688 29.681 72.823 49.681 11.702 11.789 23.763 23.708 33.543 37.193 6.477 9.965 13.892 18.52 19.115 29.16 8.575 17.054 17.506 33.927 25.895 51.075 7.156 14.602 15.457 27.241 17.231 43.776.286 3.825.924 9.416-1.501 12.651-22.992 16.2-48.165 27.066-73.103 39.777-11.03 4.954-22.273 9.219-32.886 15.071-6.847 3.532-13.861 6.507-21.101 9.111-69.358 27.407-141.478 46.993-214.903 59.788-25.199 3.835-49.872 9.894-75.24 12.783-11.754 1.877-23.587 2.297-35.415 3.491-2.103-.158-4.177-.448-6.214-.972-8.084-15.357-12.113-34.036-16.348-50.82-4.868-22.749-5.782-47.523-7.82-70.715-1.173-12.131-.46-24.109-.415-36.255.075-9.631 2.045-18.94 3.082-28.67 6.789-51.663 23.844-102.153 56.755-143.175 7.893-10.562 16.722-20.237 26.705-28.864 25.962-23.155 60.385-38.111 95.349-38.961Z" style="fill:#b2875c;fill-rule:nonzero"/>
    <path d="M2135.44 1454.8c1.312.016 2.616.055 3.912.156 11.938 6.922 22.69 15.457 35.066 21.67 21.274 12.284 44.828 21.582 67.956 29.734 14.385 6.108 29.741 12.21 42.16 21.846 2.917 2.528 5.943 4.963 8.868 7.507 3.08 3.691 6.66 6.875 9.871 10.441 9.101 14.179 16.42 28.796 17.514 45.87.876 14.345-1.174 28.597-6.349 42.022-3.962 12.363-11.074 22.354-18.245 32.958-2.828 3.362-5.711 6.692-8.399 10.139-3.386 3.605-7.075 6.917-10.547 10.43-2.247 1.899-4.581 3.667-6.937 5.427-2.27 1.969-4.486 3.968-6.615 6.1-12.137 6.722-24.365 13.685-37.248 18.899-6.479 1.497-12.904 2.869-19.584 3.165-26.55 2.554-53.989-10.221-75.824-24.224-17.758-10.838-34.468-23.024-51.741-34.517-11.488-8.259-23.768-15.319-35.248-23.64-6.343-4.254-12.623-8.579-19.104-12.646-7.15-4.389-13.345-10.119-20.334-14.804-1.355-2.095-2.959-4.258-3.78-6.644-.349-2.605 1.993-5.467 3.378-7.532 10.263 5.884 19.363 13.118 29.018 19.913 21.696 15.339 43.514 30.46 65.01 46.056 21.906 14.221 44.786 31.664 69.209 40.871 12.478 5.227 25.788 7.95 39.328 6.334 25.262-2.485 48.443-16.932 66.493-34.127 17.348-16.663 31.883-37.873 36.095-61.94 5.041-22.854-2.127-46.186-16.59-64.183-6.93-7.867-15.714-14.21-24.747-19.473-26.543-14.767-55.582-21.262-82.649-35.413-18.754-10.002-38.303-20.612-55.019-33.729 1.647-2.276 3.271-4.521 5.082-6.666Z" style="fill:#2a190d;fill-rule:nonzero"/>
    <path d="M2130.36 1461.47c16.716 13.117 36.265 23.727 55.019 33.729 27.067 14.151 56.106 20.646 82.649 35.413 9.033 5.263 17.817 11.606 24.747 19.473 14.463 17.997 21.632 41.329 16.59 64.182-4.212 24.068-18.747 45.278-36.094 61.941-18.051 17.195-41.232 31.642-66.493 34.127-13.541 1.616-26.851-1.107-39.329-6.334-24.423-9.207-47.303-26.65-69.209-40.871-21.496-15.596-43.314-30.717-65.01-46.056-9.655-6.795-18.754-14.029-29.018-19.913 5.814-3.806 11.534-7.642 16.565-12.491 13.012-12.246 26.705-23.688 39.155-36.387 18.914-19.443 37.74-39.483 53.886-61.199 5.911-8.253 10.817-17.223 16.542-25.614Z" style="fill:#4b3423;fill-rule:nonzero"/>
  </g>
  <path d="M462.455 69c22.012 7.664 41.239 20.609 54.673 39.88 4.612-13.234 13.725-24.062 28.139-26.401 16.019-1.782 32.216 7.33 43.445 18.135 14.838 14.482 25.577 32.506 25.621 53.805 20.809-5.28 44.247-5.347 62.404 7.419 19.272 14.259 27.938 37.229 29.788 60.488 32.193-11.429 68.041-12.432 98.14 5.414 15.774 8.912 26.156 25.042 27.114 43.244.936 12.744-3.141 24.373-9.669 35.112 16.42 14.727 24.485 37.853 15.484 58.795-6.283 13.479-18.313 18.604-31.704 22.77-1.804 7.798-3.653 15.016-9.201 21.076-8.11 8.889-18.603 12.231-30.055 14.548-2.227 6.974-4.834 13.524-10.137 18.804-21.722 22.547-60.02 25.064-84.572 5.503-20.875 22.725-51.376 36.427-82.055 38.276-25.041 1.515-49.237-7.397-67.684-24.262-8.199 11.273-19.272 19.316-32.572 23.504-29.453 9.447-64.343-.089-82.01-26.267-15.841 9.424-35.157 13.123-52.09 4.211-6.416-3.186-10.07-8.622-13.59-14.638-9.825 15.841-25.51 25.198-42.754 31.192-25.888 8.51-54.54 9.78-81.342 5.257-18.669-3.275-37.496-11.162-47.521-28.183-5.503-8.555-5.86-17.912-5.102-27.782-25.064-7.174-43.423-26.914-52.334-50.953-9.068-23.594-9.691-54.161 4.478-75.906 6.439-10.226 16.286-15.707 27.626-19.049 4.813-13.278 11.608-24.997 24.797-31.413 16.999-7.842 35.424-4.746 52.891-.802 5.592-1.181 10.939-4.434 16.219-6.639 1.56-5.392 2.786-10.427 5.994-15.151 4.433-6.505 10.427-10.426 16.798-14.771-.735-10.849-1.047-21.588.825-32.349 3.542-23.148 16.197-44.403 33.886-59.553 6.283-5.525 13.078-8.51 17.779-15.662 15.952-23.393 41.061-38.788 68.553-44.67 26.558-5.726 54.318-1.827 79.738 7.018Z" style="fill:#2b2b2b;fill-rule:nonzero"/>
  <path d="M411.257 63.92c24.329.892 49.104 7.018 70.425 18.938 16.687 9.335 28.451 21.789 36.917 38.944 2.562-8.689 4.211-18.269 10.516-25.175 6.327-7.175 15.529-11.185 25.153-9.358 19.338 2.963 36.004 18.804 45.896 34.934 7.642 12.521 10.671 24.351 8.599 39.078 20.609-7.263 44.091-8.734 63.341 3.007 21.165 14.259 29.764 40.393 29.876 64.967 32.884-13.679 70.87-15.841 102.017 3.542 16.91 10.115 25.866 29.944 22.636 49.349-1.27 9.335-5.682 17.177-11.029 24.752 7.219 6.194 13.657 12.722 17.289 21.7 5.481 12.722 5.614 30.234-3.921 41.15-8.154 9.224-19.094 12.321-30.991 13.591-1.626 6.861-3.119 13.278-8.087 18.603-20.809 23.438-60.043 25.287-82.946 3.72-20.497 24.285-52.089 38.833-83.659 40.259-25.22 1.07-49.683-9.268-66.971-27.559-4.411 8.043-9.625 15.016-17.645 19.761-30.255 19.94-77.02 11.051-94.309-21.923-14.593 12.165-37.807 16.665-54.183 5.503-8.154-5.503-9.647-15.483-12.498-24.172-2.763 8.176-4.902 15.84-11.162 22.167-14.37 14.883-36.204 22.569-56.278 25.622-21.232 3.052-43.623 2.941-64.543-2.228-15.528-4.1-29.943-11.831-37.384-26.713-4.457-8.511-3.543-17.089-2.072-26.223-17.824-4.367-32.462-13.88-42.933-29.008-14.771-21.165-20.853-49.46-14.281-74.591 3.186-11.986 9.892-23.727 21.054-29.854 9.847-5.503 21.232-5.748 32.194-5.013 15.707 1.426 29.943 7.553 42.999 16.175-1.827-11.229-3.721-21.923 1.359-32.684 5.436-10.939 18.113-18.313 29.475-21.633 11.541-3.32 22.458-1.047 33.486 2.852-6.818-24.307-11.585-49.95-5.971-75.015 5.436-24.306 21.299-45.427 41.952-59.062 19.427-12.811 42.487-18.826 65.679-18.403Z" style="fill:#fff;fill-rule:nonzero"/>
  <path d="M306.099 120.131c-4.233 13.211-9.87 20.341-20.875 28.651 6.193-10.048 13.323-19.583 20.875-28.651Zm-6.483 20.764c-2.585 6.105-6.461 11.296-10.65 16.375-7.575 9.18-14.392 18.894-22.301 27.738.958-4.946 1.537-10.582 3.81-15.15 2.473-3.943 6.26-7.174 9.491-10.493 6.705-6.439 12.231-12.989 19.65-18.47Zm-1.27 11.452c-2.74 5.904-7.13 10.293-12.076 14.348 3.164-5.57 7.018-10.382 12.076-14.348Zm-.936 9.201c-1.737 5.013-3.809 8.578-7.352 12.432-8.421 9.268-16.108 19.138-24.908 28.027.802-5.079.067-9.468 4.099-13.256 7.308-7.53 14.771-14.927 22.213-22.346 1.938-1.671 3.921-3.275 5.948-4.857Zm.49 14.771-1.27 7.598c-5.347 7.463-11.785 14.258-17.734 21.254-3.721 4.345-8.555 5.258-13.679 7.241 1.248-3.498 2.138-6.751 4.968-9.313 7.107-6.996 14.192-13.969 21.254-21.032 2.117-1.938 4.278-3.854 6.461-5.748Zm2.005 15.974c-.401 4.278 1.226 8.333-2.227 11.563-3.498 4.991-8.288 3.075-13.613 3.855 4.968-5.481 10.182-10.672 15.84-15.418Zm-61.045 56.969c-.156 2.941-.334 5.904-.512 8.867-3.119-1.471-6.238-2.963-9.335-4.456 3.275-1.493 6.55-2.963 9.847-4.411Zm-98.608 54.851c-9.179 13.902-19.828 26.869-29.475 40.482.712-6.105-.736-11.362 4.367-15.796 8.399-8.199 16.352-16.866 25.108-24.686Zm-9.397-7.574c-.067 9.068-6.349 12.944-12.811 17.845 2.139-4.611 4.946-8.777 8.155-12.721 1.515-1.738 3.074-3.453 4.656-5.124ZM424.3 433.126c-.067 9.068-6.35 12.944-12.811 17.846 2.139-4.612 4.946-8.778 8.155-12.722 1.514-1.737 3.074-3.453 4.656-5.124ZM143.728 319.33c-2.674 8.11-8.065 13.903-13.1 20.541-5.838 7.62-11.497 15.373-17.579 22.815-.646-4.211-1.203-8.422-1.738-12.655 8.444-8.109 16.665-16.42 24.864-24.775 2.429-2.094 4.946-4.077 7.553-5.926Zm-14.126 6.818.157.222-.29.067.133-.289Zm17.691 8.844c-2.563 6.64-7.152 11.095-11.586 16.465-6.461 7.664-12.655 15.484-19.516 22.792-.58-2.473-1.181-4.924-1.761-7.375 10.962-10.538 21.032-22.346 32.863-31.882Zm1.967 9.164c2.44 6.788-5.541 12.82-9.654 18.084-5.993 7.515-11.739 15.183-18.104 22.348-.538-2.425-1.096-4.828-1.633-7.231 10.168-10.333 18.417-23.851 29.391-33.201Zm16.747 27.018c.958 1.426 1.894 2.874 2.785 4.345-10.07 11.028-20.653 21.544-30.389 32.884-1.827-1.849-3.654-3.676-5.481-5.503 11.34-10.271 21.678-21.567 33.085-31.726Zm-8.606-12.012c.958 1.426 1.894 2.874 2.784 4.344-10.07 11.029-20.653 21.545-30.388 32.885-1.827-1.849-3.654-3.676-5.481-5.504 11.34-10.27 21.678-21.566 33.085-31.725Zm16.159 20.411c2.339 1.537 4.634 3.142 6.929 4.768-10.45 10.65-19.762 22.814-31.036 32.55-2.918-1.738-5.703-3.698-8.488-5.637 10.939-10.471 21.567-21.321 32.595-31.681Zm15.328 7.419c-3.097 6.55-8.176 10.583-13.011 15.819-4.79 4.901-9.113 10.204-13.969 15.016-2.852 3.386-4.946 2.673-9.046 2.562 6.706-7.642 14.17-14.236 21.277-21.544 4.768-4.634 8.31-9.447 14.749-11.853Z" style="fill:#fff;fill-rule:nonzero"/>
  <path d="M188.888 386.992c-3.097 6.55-8.176 10.583-13.011 15.819-4.79 4.901-9.113 10.204-13.969 15.016-2.852 3.386-4.946 2.673-9.046 2.562 6.706-7.642 14.17-14.236 21.277-21.544 4.768-4.634 8.31-9.447 14.749-11.853Z" style="fill:#fff;fill-rule:nonzero"/>
  <path d="M188.888 386.992c-3.097 6.55-8.176 10.583-13.011 15.819-4.79 4.901-9.113 10.204-13.969 15.016-2.852 3.386-4.946 2.673-9.046 2.562 6.706-7.642 14.17-14.236 21.277-21.544 4.768-4.634 8.31-9.447 14.749-11.853Zm10.538 5.125c.49 3.408-2.473 5.146-4.389 7.597-8.088 8.31-16.063 16.732-23.995 25.198-2.829-.535-5.659-1.047-8.488-1.582 9.936-9.536 19.628-19.294 29.453-28.941 2.384-2.718 4.055-2.339 7.419-2.272Zm.713 10.159c.29 2.941.557 5.859.846 8.8-10.515 11.14-20.741 22.525-31.302 33.62.401-5.904-1.916-11.63 3.253-15.796 9.09-8.845 18.18-17.69 27.203-26.624Zm510.617 10.716c-1.804 5.058-5.324 8.489-8.8 12.432-6.929 7.619-13.724 15.373-20.542 23.126-1.804-1.314-3.609-2.629-5.414-3.944 8.511-8.755 17.356-17.199 25.934-25.91 2.74-2.584 4.812-5.236 8.822-5.704Zm-505.827 4.345c.312 3.23-.512 5.77-2.473 7.619-9.246 10.004-18.67 19.851-27.76 29.988-1.047-1.983-2.117-3.943-3.186-5.904 11.318-10.36 21.633-21.9 33.419-31.703Zm511.843 1.448c1.871.512 3.765 1.025 5.659 1.582-9.113 11.34-18.626 22.346-27.76 33.664-3.231-1.114-6.439-2.228-9.669-3.342 10.337-10.828 20.92-21.589 31.77-31.904Zm13.282 4.99c2.16.245 4.322.513 6.483.825-8.712 10.494-17.601 20.853-26.424 31.235-3.809-.155-7.642-.334-11.473-.512 10.27-10.672 20.452-21.589 31.414-31.548Zm15.351.045c2.161.245 4.322.513 6.483.825-8.711 10.493-17.6 20.853-26.423 31.235-3.809-.156-7.642-.334-11.474-.512 10.271-10.672 20.452-21.589 31.414-31.548Zm16.196 1.136c-4.724 12.789-14.526 20.698-26.468 26.535 8.778-8.89 17.422-17.935 26.468-26.535Zm-552.372.513 2.384 4.79c-9.38 11.563-20.252 22.056-29.921 33.441-1.649-1.849-3.298-3.698-4.924-5.57 10.739-10.939 21.499-21.9 32.461-32.661Zm351.857 1.225c-9.135 12.833-20.898 23.794-30.946 35.937-2.406-2.295-4.835-4.59-7.241-6.907 7.308-8.265 17.222-12.142 25.376-19.16 4.278-3.476 6.973-9.558 12.811-9.87Zm-158.874 4.59c-7.263 8.198-15.061 15.885-22.235 24.173-2.473 2.606-5.013 5.881-8.243 7.53-3.164-.334-6.283-.78-9.402-1.337 9.87-9.959 20.118-19.561 30.099-29.409 2.941-3.564 5.815-1.069 9.781-.957Zm-13.803-8.795c-7.262 8.199-15.061 15.885-22.234 24.173-2.473 2.606-5.013 5.882-8.244 7.531-3.163-.335-7.922-1.919-9.751-6.229 9.87-9.958 17.273-17.059 28.767-26.682 3.057-2.561 7.497 1.096 11.462 1.207Zm58.117 5.408c1.336 1.627 2.651 3.275 3.988 4.924-10.494 10.85-20.564 22.101-30.723 33.24-1.939-2.049-3.877-4.099-5.815-6.126 10.894-10.627 21.343-21.745 32.55-32.038Zm-229.834 7.085 3.275.757c-10.381 11.185-20.92 22.191-31.057 33.62-1.403-.98-2.83-1.938-4.233-2.919 10.828-10.315 21.032-21.321 32.015-31.458Zm199.567-3.406c-6.951 9.758-15.997 17.935-23.861 26.98-3.052 3.944-6.885 4.278-11.474 5.548 7.085-8.221 15.261-15.351 22.725-23.26 3.743-3.988 7.486-7.129 12.61-9.268Zm153.159 1.646c-9.669 12.476-21.098 23.616-31.547 35.446-1.203-1.381-2.384-2.807-3.52-4.233 6.015-7.084 13.256-13.145 19.628-19.917 5.057-4.701 8.131-10.138 15.439-11.296Zm111.507.624c-13.212 11.206-24.552 23.593-39.59 32.438 13.39-12.365 21.811-25.977 39.59-32.438Zm-225.866 3.899 4.946 2.072c-10.16 10.961-20.342 22.056-31.103 32.416-2.294-.913-4.545-1.894-6.75-2.963 11.117-10.249 21.299-21.901 32.907-31.525Zm118.77.868c2.696 1.025 5.347 2.162 7.977 3.409-9.714 11.229-19.918 22.012-29.588 33.285-3.453-1.715-6.906-3.431-10.36-5.169 10.806-10.27 20.609-21.944 31.971-31.525Zm-348.381 2.229c2.607.645 5.125 1.671 7.664 2.561-10.293 10.917-20.541 21.879-30.857 32.751-3.163-1.471-6.327-2.941-9.491-4.433 11.073-10.071 21.455-21.01 32.684-30.879Zm113.313 1.581c-4.3 12.989-16.353 20.943-27.782 27.203 8.911-9.313 17.733-19.115 27.782-27.203Zm124.719 1.047c2.852 1.092 5.659 2.295 8.489 3.476-10.316 10.806-20.186 22.056-30.79 32.595-3.164-1.471-6.328-2.941-9.469-4.39 10.582-10.56 21.098-21.187 31.77-31.681Zm39.086 9.074c-9.535 11.184-15.729 19.42-25.643 30.27-3.081 1.573-10.092.855-13.256-.037 10.025-9.58 19.694-19.561 29.698-29.164 2.762-3.252 5.525-1.136 9.201-1.069Zm18.193-1.623c-9.762 12.532-21.249 24.926-36.288 33.772 7.9-13.246 18.509-27.311 36.288-33.772Zm74.769-4.22c-9.536 11.184-19.517 22.101-29.431 32.951-3.164-.913-6.305-1.827-9.469-2.718 10.026-9.58 19.695-19.562 29.698-29.164 2.763-3.252 5.526-1.136 9.202-1.069Zm58.485-1.493c-6.839 7.018-12.921 14.66-19.471 21.945-5.882 7.107-17.668 8.778-25.956 11.43 8.199-8.712 16.776-17.089 25.287-25.488 4.701-5.214 13.635-5.793 20.14-7.887Zm-406.753 2.518c-9.581 11.028-19.762 21.499-29.298 32.55-3.81-.869-7.597-1.738-11.407-2.629 9.826-9.335 19.361-18.96 29.052-28.406 3.409-4.122 7.085-1.582 11.653-1.515Zm69.984 2.917c-6.684 8.532-9.518 12.996-16.87 20.972-4.166 4.745-9.535 5.502-15.216 7.552 8.443-8.778 11.73-17.394 20.375-25.994 3.119-3.253 7.454-2.092 11.711-2.53Zm-56.572-1.179c-9.068 11.54-20.029 21.633-29.921 32.505-2.607-.268-5.236-.512-7.843-.78 9.469-9.157 18.648-18.603 28.05-27.849 2.718-3.074 5.904-3.186 9.714-3.876Zm34.151 4.204c-6.711 12.872-13.379 17.655-20.633 27.278-2.038 2.703-9.454.835-11.832.568 2-4.143 6.813-7.765 10.162-12.603 3.737-5.399 7.243-9.402 12.426-15.827 2.48-3.075 6.401.443 9.877.584Zm181.446-4.383c3.564.691 7.084 1.537 10.627 2.384-9.692 10.248-18.604 21.433-28.763 31.191-4.255.669-9.067-1.225-13.278-1.938 10.337-10.65 20.697-21.366 31.414-31.637Zm121.103 1.542c2.317-.157 4.465-.361 6.737-.606 2.473-.223 4.924-.423 7.375-.579-8.756 9.424-17.156 19.205-25.889 28.673-3.231 4.634-9.313 1.983-14.058 2.429 5.971-6.194 11.04-12.983 17.256-18.931 2.531-3.034 4.638-6.341 7.961-10.288l.214-.605.404-.093Zm30.773-.985c-7.754 9.224-16.042 18.046-24.04 27.047-3.498 4.523-10.894 3.81-16.063 4.812 9.58-9.312 18.804-18.982 28.428-28.25 2.964-3.252 7.642-2.717 11.675-3.609Zm-361.413 1.738c4.389 0 8.778.178 13.144.312-9.802 9.981-19.204 20.341-28.807 30.523-5.124 0-10.27-.023-15.417-.045 10.516-10.115 20.43-20.854 31.08-30.79Z" style="fill:#fff;fill-rule:nonzero"/>
  <path d="M280.905 759.081c21.75 9.041 38.778 24.835 51.885 44.188 19.135-17.754 40.775-32.315 65.392-41.356 49.997-18.77 108.417-14.886 155.219 11.002 44.586 24.181 78.099 66.59 91.279 115.606 5.083 17.574 5.773 34.893 7.625 52.975 32.242 7.479 63.104 21.857 88.193 43.642 24.145 21.095 41.573 48.944 45.132 81.258 2.759 21.822-2.978 41.755-11.328 61.616 28.102 5.301 54.898 10.348 81.403 21.676 11.582 5.084 24.363 11.873 31.842 22.403 5.483 7.442 5.664 17.391.109 24.87-9.549 13.435-25.379 19.68-39.903 26.142-.798 10.022-1.961 18.554-10.275 25.271-19.897 17.319-50.323 24.327-75.049 31.625.072-3.486 17.899-24.726 24.761-35.401 2.651.763 5.302 1.489 7.989 2.179 0 0-8.787 14.741-15.468 22.112 14.197-3.268 19.57-12.309 27.631-23.238 0 0-43.897 29.954-44.913 34.348-2.397 2.033-156.09 17.792-226.275 13.035-9.367 7.007-16.593 16.593-26.07 23.564-27.521 22.475-62.885 32.279-98.141 29.446-9.549 14.778-20.805 27.341-35.655 36.962-11.183 6.826-14.741 17.682-23.492 26.869-18.553 19.788-42.699 31.915-68.223 40.229-53.083 16.448-110.922 16.339-163.715-1.307-28.357-9.985-54.644-24.435-72.617-49.234-41.246 11.619-83.146 19.534-126.136 20.187-58.129 2.07-118.511-4.32-173.554-23.891-8.206-2.505-16.738-8.096-25.27-5.01-28.865 7.624-58.275 11.219-88.012 13.397-56.823 2.361-117.131 1.707-172.574-12.126-14.633-3.886-31.589-9.041-43.135-19.244-6.899-6.027-8.315-16.121-1.924-23.056 9.621-10.566 30.426-39.067 43.643-43.389 0 0 26.723-16.774 40.265-20.913 45.531-12.272 94.294-14.959 141.277-14.959 6.535-13.689 14.088-26.505 25.307-36.89 10.275-10.42 22.257-15.213 30.353-27.558 9.259-13.688 21.532-24.58 35.148-33.803 44.332-29.773 101.155-44.005 153.62-50.142-8.205-33.076-8.967-68.115-.218-101.155 8.642-33.222 26.397-63.649 50.433-88.085 9.84-10.021 21.313-16.955 30.136-28.066 18.154-23.238 42.009-42.045 68.587-54.789 22.946-11.583 47.237-15.831 72.435-19.28 9.84-8.024 19.788-15.722 29.7-23.637 8.17-10.275 14.778-21.168 25.126-29.591 31.588-28.176 78.717-35.074 117.457-18.482Z" style="fill:#424242;fill-rule:nonzero"/>
  <path d="M280.766 766.017c22.365 9.803 38.305 27.013 50.868 47.527 38.523-40.411 93.966-61.905 149.699-56.169 58.457 5.265 112.339 40.775 140.623 92.114 16.739 29.556 23.637 62.633 22.983 96.436 37.797 9.077 72.799 24.363 100.285 52.611 22.692 22.874 36.708 53.41 34.202 86.088-.726 17.899-7.842 32.75-14.922 48.762 29.118 4.102 58.964 10.13 86.341 21.168 11.4 4.828 25.053 11.546 32.133 22.112 3.703 5.917 2.868 12.489-1.307 17.863-8.497 10.638-23.165 17.137-35.547 22.039-33.984 12.708-71.237 18.554-107.146 22.656-54.462 5.629-109.651 6.609-164.222 1.925-4.104 4.539-8.17 9.15-12.055 13.87 1.633 6.136 16.92-6.354 23.165-7.516-9.912 11.837-20.587 23.02-30.79 34.566-3.704 4.647-7.661 5.083-13.289 6.027 5.737-9.041 21.648-30.532 20.914-33.077-30.535 31.552-83.037 46.802-125.047 36.598-13.906-3.303-25.597-9.548-38.668-15.031 6.753 11.51 12.308 22.874 14.088 36.345 6.934-8.787 8.024-18.663 21.604-17.428-3.813 5.773-8.061 11.219-12.418 16.592-3.014.327-6.173.509-9.186.836-1.489 12.309-3.123 24.145-10.094 34.711-15.939 25.852-47.056 42.444-75.195 51.594-51.014 15.976-108.635 15.867-159.43-.907-29.882-9.731-55.371-25.925-74.287-51.304-10.966 3.812-22.003 6.898-33.331 9.403-1.235 5.011-1.78 9.622-5.81 13.326-7.625 8.206-14.923 16.702-22.656 24.762-5.229 5.809-14.27 5.664-21.459 7.371 12.781-13.326 25.707-32.097 43.643-38.233 2.069-1.453 4.551-4.506 6.282-7.226-27.74 6.028-63.032 11.365-91.425 12.345-62.487 2.433-128.423-5.083-186.807-28.429-6.172-2.506-9.513-2.433-15.903-.617-17.537 4.937-35.074 8.096-53.193 10.093 1.235 1.78 11.075 5.447 11.075 5.447-7.734 7.951-15.249 16.084-22.983 24.072 1.961 1.344 3.921 2.723 5.882 4.103 14.45-14.052 23.455-31.371 44.841-33.985-8.751 10.857-18.3 21.131-28.031 31.08-4.719 5.301-13.361 6.608-19.824 8.969-1.707-2.034-3.413-4.104-5.12-6.137-7.951 8.351-12.453 9.296-23.746 10.167 11.329-13.035 39.178-41.356 37.906-43.716-18.408 3.74-41.282 3.595-59.981 4.357-49.234.944-100.357-1.488-148.247-13.906-13.253-3.958-31.189-9.04-39.903-20.514-3.631-8.242 4.539-13.252 10.384-17.174 16.883-9.404 37.252-13.724 56.097-17.356 54.898-9.513 112.265-9.948 167.708-5.482-7.588-17.211-11.945-34.348-4.902-52.684 10.422-28.974 40.303-50.287 66.808-63.612 60.308-29.773 131.401-38.923 197.99-38.56-21.93-37.361-31.842-80.205-26.106-123.34 6.499-52.393 36.236-101.082 79.879-130.746 35.038-24.363 77.555-35.727 120.108-32.714 7.081-22.511 17.901-42.735 36.636-57.622 30.426-25.488 74.904-31.116 110.886-14.45Z" style="fill:#fff;fill-rule:nonzero"/>
  <path d="M-66.854 971.414c-2.796 7.37-6.1 12.889-11.219 18.698-9.731 11.11-18.627 22.874-28.938 33.368 2.941-20.079 15.721-30.572 29.519-43.752 3.449-2.868 7.007-5.628 10.638-8.314Zm-6.354 28.719c-1.598 5.156-3.667 8.86-7.334 12.781-10.13 10.893-19.752 22.439-30.645 32.532 1.235-5.337 1.017-10.166 5.447-14.051 10.602-10.602 20.804-21.894 32.532-31.262Zm-1.016 18.373c-.183 3.667-.436 7.334-.727 11.001-10.819 13.87-23.564 26.287-34.638 40.012 1.271 3.123 3.123 3.776 5.591 1.851 10.385-9.548 19.135-20.478 30.391-29.118-.8 6.499-1.925 10.165-6.464 14.813-10.311 11.292-20.441 22.802-31.297 33.585 1.452-11.328-1.961-22.402-.98-33.512 11.146-13.979 25.234-26.179 38.124-38.632Zm4.174 43.134c-1.307 8.279-7.043 12.636-12.344 18.444-9.767 9.695-16.739 20.007-28.248 27.741-.871-11.946 7.552-15.541 14.633-23.129 8.677-8.097 15.721-16.738 25.959-23.056Zm2.869 14.052c.726 4.32.545 8.278-.544 11.873-8.715 10.783-19.788 22.438-29.883 31.987-3.303.799-6.68 1.488-10.093 1.997 1.053-5.446 1.997-9.44 6.281-13.253 11.256-10.928 21.858-22.983 34.239-32.604Zm5.483 17.863.254 1.162c.544 2.578 1.053 5.192 1.561 7.806-4.938 5.955-10.311 11.365-15.757 16.848-4.357.29-8.714.58-13.071.907 8.967-8.968 17.899-17.9 27.013-26.723Zm-251.291 133.579c-.218 15.286-10.966 21.059-20.042 31.37-1.707-1.597-12.345 6.463-16.303 11.873 3.304-7.625 5.483-14.85 13.434-18.88 10.457-6.1 14.487-15.685 22.911-24.363Zm1145.42 5.846c4.03-1.925-1.562 9.549-3.958 13.579-5.591 5.664-14.015 8.968-21.132 12.381 7.734-9.113 15.868-18.335 25.09-25.96Zm-32.347 9.512 7.262 3.159c-8.061 10.929-13.434 19.97-27.631 23.238 2.307-8.505 7.415-16.021 13.369-24.009l7-2.388Zm-1115.4 4.575c-.544 6.681-.908 13.362-1.379 20.042 2.976 1.453 5.409 3.414 7.261 5.919-11.4.327-19.134-2.396-28.72-1.126 6.608-9.222 14.741-16.919 22.838-24.835Zm918.786.908c-10.312 12.272-21.241 24.073-31.843 36.091-3.813 5.01-8.496 3.05-14.015 3.848 10.82-10.965 21.749-21.785 32.714-32.569 3.667-3.921 8.205-5.627 13.144-7.37Zm18.7.399c-9.658 13.507-21.712 26.76-33.44 38.524-3.885.98-7.952 1.452-12.163 1.416 10.202-11.437 21.168-22.221 32.06-32.932 3.849-3.921 8.606-5.083 13.543-7.008Zm39.684-.036c-9.658 13.471-21.023 26.796-32.497 38.705l-9.803 1.38c13.18-13.725 25.888-30.246 42.3-40.085Zm18.412-.508c-9.004 14.269-21.458 26.723-32.205 39.794-3.631 0-7.226-.037-10.857-.037 14.343-12.816 26.288-30.244 43.062-39.757Zm41.531-.944c-7.915 11.8-17.029 22.946-26.142 33.839-2.941 4.357-10.82 3.232-15.431 4.212 9.332-10.457 19.462-20.151 29.301-30.172 3.631-3.849 7.298-6.027 12.272-7.879Zm20.844-2.288c-6.716 12.926-16.556 24.4-26.251 35.22-4.32 1.488-8.823 2.505-13.506 3.122 8.641-11.11 19.279-20.986 29.337-30.898 3.413-2.579 6.862-5.084 10.42-7.444Zm31.676-3.608c-6.717 12.926-16.557 24.399-26.251 35.219-4.321 1.489-8.823 2.506-13.507 3.123 8.642-11.111 19.28-20.986 29.338-30.899 3.413-2.577 6.862-5.083 10.42-7.443Zm-131.347 9.2c-9.258 13.543-20.659 25.089-31.079 37.906-5.265 0-10.53 0-15.794-.036 9.912-11.074 20.404-21.822 31.007-32.206 4.575-5.084 9.404-5.156 15.866-5.664Zm56.824-2.324c-7.116 12.091-16.194 23.02-25.379 33.549-4.648 6.281-11.837 4.865-18.844 6.281 9.367-9.912 19.062-19.497 28.574-29.264 5.228-5.192 8.424-7.77 15.649-10.566Zm-174.062 42.553c-12.491 16.739-28.321 30.573-48.11 37.871 14.561-13.834 27.885-34.022 48.11-37.871Zm-70.95 9.332c-13.108 13.18-24.181 31.044-40.048 40.738 1.67-17.21 13.797-24.762 24.799-36.236 4.248-5.046 9.331-3.704 15.249-4.502Zm40.703-.944c-11.001 11.728-21.203 24.799-33.403 35.256-4.575 1.634-9.259 2.976-14.051 3.993 8.496-11.618 19.425-21.712 29.7-31.878 4.974-5.302 11.11-5.738 17.754-7.371Zm-23.013 2.687c-8.57 11.546-19.099 21.748-29.048 32.133-4.538 5.446-8.932 5.555-15.721 6.427 9.113-11.402 20.078-21.423 30.317-31.843 4.394-4.83 8.061-5.773 14.452-6.717Zm-1023.36 37.652c-6.971 7.189-14.16 14.16-21.967 20.441 1.598-14.523 10.566-15.685 21.967-20.441Zm31.806.617c3.268.544 6.536 1.343 9.731 2.36-4.249 4.647-18.662 19.534-21.603 22.402 0 0 7.588-19.824 11.872-24.762Zm-18.668-11.368c3.268.545 6.536 1.343 9.731 2.36-4.248 4.647-18.663 19.534-21.604 22.402 0 0 7.59-19.825 11.873-24.762Zm44.556 16.923c-2.578 4.067-5.156 8.06-7.843 12.018l-1.089 1.634s-5.592 3.268-9.222 4.394c5.555-7.298 8.061-16.376 18.154-18.046Zm271.514-1.016c-11.581 14.886-25.669 27.739-38.232 41.79-3.05-1.416-6.136-2.868-9.186-4.284 10.42-10.711 20.55-21.821 31.588-31.879 4.539-4.466 9.948-4.357 15.83-5.627Zm-309.856 4.066s-11.836 24.254-17.064 32.169c-3.704 1.126-8.788-1.815-12.563-2.433 9.694-10.093 19.352-20.26 29.627-29.736Zm53.809 1.198c-.472 6.1-4.284 10.203-10.275 11.292.145-6.535 3.268-11.328 10.275-11.292Zm261.929-.617c3.813.69 7.589 1.416 11.365 2.178-11.11 14.923-24.871 27.704-36.853 41.9-4.393-1.887-8.787-3.739-13.18-5.591 13.144-12.563 25.235-26.251 38.668-38.487Zm-339.665 2.36c-2.905 8.024-6.572 15.649-10.348 23.31-3.049-1.452-6.136-2.905-9.186-4.357 6.063-6.826 12.345-13.362 19.534-18.953Zm97.706 3.631c2.033 1.815 3.994 3.703 5.918 5.627-2.759.436-5.518.945-8.242 1.525-8.932 8.279-15.031 19.643-23.419 28.575-3.74 4.793-7.515 2.578-12.526 1.924 13.217-12.054 24.944-25.742 38.269-37.651ZM-499.179 1358.46l7.117-.98c-8.461 10.638-16.303 21.711-24.581 32.459-3.522-.509-7.081-.98-10.602-1.489 9.44-9.694 19.035-17.6 27.023-28.202l1.043-1.788Zm60.09-2.687c-5.808 12.345-15.612 22.802-23.636 33.803-3.813 6.136-9.295 8.242-16.484 6.354 12.562-13.979 25.633-28.176 40.12-40.157Zm9.078 1.125c.254 5.011-2.179 7.48-7.262 7.48-.182-4.974 2.251-7.443 7.262-7.48Zm6.825 2.433c3.995 1.561 8.025 3.159 12.019 4.756-4.212.291-8.387.617-12.563.872-6.754 8.459-13.216 17.065-20.151 25.307 1.96 1.38 3.921 2.759 5.882 4.103 10.53-12.2 22.039-22.984 33.44-34.384a900.217 900.217 0 0 1 8.678 3.739c3.449-1.343 6.935-2.614 10.42-3.885-4.139 5.229-8.533 10.13-13.216 14.851-1.09-2.542-2.469-4.757-4.175-6.609-7.843 7.734-13.725 21.749-22.112 30.1-7.661 1.888-14.197-.327-21.349-2.723-4.793.581-9.586 1.235-14.343 1.888 11.511-13.362 24.399-26.178 37.47-38.015Zm123.159-2.469c-10.13 11.51-20.369 22.947-30.753 34.202-4.103 4.866-10.82 4.466-16.593 6.064 10.239-11.872 21.676-22.693 32.932-33.585 3.993-4.248 9.077-5.047 14.414-6.681Zm-163.84-5.767c-10.13 11.509-20.369 22.946-30.753 34.202-4.103 4.865-10.82 4.466-16.593 6.064 10.239-11.873 21.676-22.693 32.932-33.586 3.994-4.248 9.077-5.046 14.414-6.68Zm266.702 6.094c3.485-.726 7.116-.835 10.929-.327-12.345 13.325-24.69 26.978-37.797 39.576-3.667-.109-7.298-.69-10.965-1.67 12.526-12.527 24.471-25.997 37.833-37.579Zm282.044-.617c-8.969 10.239-18.445 20.114-27.704 30.135-4.756 5.738-10.965 6.282-17.572 8.642 14.849-12.091 27.013-32.46 45.276-38.777Zm-456.107 3.231c-10.493 13.942-22.947 26.505-34.783 39.286-3.921.109-7.843.181-11.801.254 9.041-8.279 17.901-16.702 26.397-25.561 6.353-6.137 10.71-12.744 20.187-13.979Zm11.728 2.215c3.704-.944 7.479-1.562 11.328-1.852-9.258 11.982-19.679 23.165-30.1 34.094-4.538 5.555-12.454 4.248-18.916 5.483 12.272-12.745 24.617-25.816 37.688-37.725Zm21.385-.508c4.394-.908 8.86-1.598 13.362-2.034-8.678 11.982-18.735 22.983-28.684 33.912-4.067 5.519-13.906 3.377-19.97 4.394 11.256-12.454 22.875-25.017 35.292-36.272Zm165.676-1.453c-10.021 11.873-21.023 22.875-31.08 34.747-4.648 6.064-7.698 5.447-15.177 5.81 10.348-12.309 22.584-23.056 33.876-34.494 3.703-3.921 7.152-5.119 12.381-6.063Zm272.495-.072c-11.8 15.249-26.033 30.39-39.54 44.15-1.888-2.033-3.703-4.139-5.41-6.317 9.258-8.423 18.445-16.956 27.268-25.851 5.518-5.229 9.694-10.712 17.682-11.982Zm-263.999 5.01c3.45-.291 6.935-.472 10.421-.508-11.256 14.342-24.436 27.195-36.781 40.629-3.994-.617-8.024-1.198-12.018-1.815 12.163-13.253 24.908-26.433 38.378-38.306Zm25.453 1.925c-6.282 10.202-14.814 17.645-22.802 26.359-7.298 7.117-10.675 15.069-22.293 14.778 8.096-9.15 17.101-17.246 25.633-25.96 6.064-5.991 11.147-12.164 19.462-15.177Zm171.702 1.416c-10.566 10.565-20.405 21.748-30.753 32.532-5.228 5.991-11.764 5.192-19.026 6.499 10.457-11.292 21.277-22.438 32.387-33.113 4.103-4.212 11.91-4.466 17.392-5.918Zm71.237 1.052c2.034.908 3.994 1.925 5.955 2.978-8.315 10.674-17.755 19.497-27.05 29.664-7.044 5.664-9.15 15.903-19.389 8.46 12.89-14.161 26.142-28.466 40.484-41.102Zm-236.041 2.832c3.413-1.161 7.153-1.597 11.147-1.27-11.837 13.216-23.855 26.904-37.144 38.668l-10.493-.036c11.328-13.035 23.636-25.816 36.49-37.362Zm21.422 1.961c3.885-1.089 8.061-1.307 12.599-.617-9.549 12.091-20.659 22.947-31.407 33.948-5.591 6.681-12.744 3.486-20.405 3.849 12.926-12.454 25.561-25.525 39.213-37.18ZM-70.521 1375.49c3.63-.109 7.261-.181 10.928-.218-11.581 12.744-23.273 25.416-34.456 38.487-5.664.073-11.328.073-17.029.073 13.797-12.49 26.541-26.106 40.557-38.342Zm29.264-1.27c-9.222 11.655-19.896 22.148-29.736 33.258-3.994 5.011-8.714 6.173-14.633 7.77 9.223-11.364 20.406-21.241 30.608-31.842 4.176-4.43 8.061-7.008 13.761-9.186Zm11.801 1.815a122.15 122.15 0 0 1 12.635-1.416c-10.275 12.635-22.003 24-32.278 36.707-5.737.473-11.437.872-17.174 1.272 11.655-12.672 23.964-25.126 36.817-36.563Zm38.741-3.994c-10.13 11.401-20.659 22.62-31.661 33.15-5.228 5.301-11.909 4.647-18.808 6.027 10.711-10.856 21.422-21.786 32.315-32.424 5.301-5.591 10.783-5.954 18.154-6.753Zm105.331 7.117 7.443 2.759c-13.071 13.434-25.634 27.776-39.685 40.193l-7.734-3.449c13.289-13.143 25.961-27.159 39.976-39.503Zm17.609 7.697c-7.37 11.873-19.098 21.349-28.43 31.878-5.555 4.648-8.532 12.346-16.992 8.714 9.332-11.437 20.297-20.84 30.427-31.515 4.793-4.357 7.806-9.404 14.995-9.077Zm7.08 6.209c2.832 1.343 5.664 2.759 8.496 4.175-12.49 13.107-24.108 27.232-37.179 39.722-4.212-1.126-8.352-2.433-12.418-3.958 13.398-13.579 26.941-27.159 41.101-39.939Zm22.765 7.951c-6.026 11.982-18.371 20.587-27.049 30.789-5.483 4.466-10.857 15.032-18.626 8.352 9.803-12.309 21.821-22.839 32.678-34.239 4.429-4.575 6.571-5.12 12.997-4.902Zm173.333 2.651c-5.483 8.532-10.82 18.226-18.372 25.053-9.15 6.535-20.732 10.13-31.044 14.378 10.094-9.877 19.825-20.224 29.991-30.063 5.41-5.701 12.236-7.117 19.425-9.368Zm-166.216 2.251c3.558.762 7.117 1.561 10.675 2.36-12.49 13.253-25.307 26.142-37.434 39.757-4.03-1.089-8.025-2.214-12.018-3.376 12.417-13.325 25.343-26.396 38.777-38.741Zm25.234 5.047c-10.274 11.691-21.204 22.874-32.168 33.911 2.105 1.381 4.211 2.76 6.317 4.14 8.896-9.876 18.372-19.171 27.849-28.43 3.921-4.139 7.661-5.518 13.216-6.644-12.091 13.506-24.508 27.776-38.342 39.431-8.714-3.304-13.58-4.248-23.31-2.65 10.348-12.091 22.148-22.948 33.404-34.239 3.958-4.357 7.334-4.939 13.034-5.519Zm34.965 4.865c-12.054 12.962-24.617 25.38-36.199 38.814-4.683.072-9.367.181-14.015.254 11.147-12.055 22.656-23.891 34.384-35.401 4.43-5.229 9.695-3.013 15.83-3.667Zm23.384 1.053c-10.313 13.58-23.166 24.799-34.094 37.906-5.904.217-11.811.362-17.719.435 10.892-11.219 21.967-22.329 33.186-33.258 5.264-5.955 11.473-4.139 18.627-5.083Zm48.796-4.357c-7.08 10.021-14.451 19.933-22.475 29.192-5.446 7.225-15.249 6.608-23.273 8.896 9.258-11.111 19.642-21.314 30.027-31.335 4.357-4.756 9.73-5.41 15.721-6.753Zm-37.977 5.265c5.084-1.126 10.239-1.852 15.504-2.142-9.186 11.473-19.389 22.112-29.7 32.604-5.265 6.463-15.468 5.374-23.057 6.862 11.982-12.671 23.783-26.214 37.253-37.324Z" style="fill:#fff;fill-rule:nonzero"/>
</svg>
