<svg xmlns="http://www.w3.org/2000/svg" xml:space="preserve" style="fill-rule:evenodd;clip-rule:evenodd;stroke-linejoin:round;stroke-miterlimit:2" viewBox="0 0 3374 4272">
  <path d="M0 0h3373.43v4271.31H0z" style="fill:none"/>
  <path d="M1716 76.433c9.417 1.792 21.75-1.791 29.917 3.167 8.75.75 17.541.125 26.291 1 22.375-.583 42.959 6.375 65.542 4.708 13.5 6.334 30.833 2.5 45.417 4.875l3.083 4.5c-10.5 6.417-28.417.042-40.375-.833-22.417-1.625-44.083-5.458-66.625-5.708-58.708-8.209-120.75-.417-179.25-7.042-24 4.458-49.083 2.208-73.458 2.875l-4.625-3 6.291-3.917c63.792-1.791 124.125-.625 187.792-.625Z" style="fill:#97806e;fill-rule:nonzero"/>
  <path d="m1480.17 84.308 2.291-3.333c13.125.5 26.292-.292 39.459 0l4.625 3c24.375-.667 49.458 1.583 73.458-2.875 58.5 6.625 120.542-1.167 179.25 7.042 22.542.25 44.208 4.083 66.625 5.708 11.958.875 29.875 7.25 40.375.833 9.583 4.5 24.75 1.75 35.667 3l1.708 3.75c6.625-1.333 12.833 1.292 19.458.042 1.584 8.917 23.667-.667 26.75 7.875 5 1.542 19.25-2.208 20.542 4.208 6.5-.666 12.75 1.292 19.25.584 1.208 9.125 20.542-1.292 22.5 8.291 8.375-2.666 18.125 9.5 27.208 8.459l2.292 3.208c12.208 1.5 23.208 12.292 35.125 13.583.833 3.334 3.708 4.542 8.625 3.709l1.833 3.791c16.542 2.667 32.625 16.834 49.042 22 18.417 12.959 40.042 23.334 58.292 36.625 37.541 27 78.5 56.25 111.083 89 10.417 6.709 16.167 16.75 24.833 25.209 39.417 39.25 78.625 88.583 101.542 138.625-.625 9.625 5.042 11.083 4.625 21.083 3.625 1.458 7 3.542 10.125 6.208 13.708-11.875 30.625-18.041 46.792-25.75 6.833-.25 9.208-5.625 16.833-4.666 8.375-5.125 14.542-9.542 24.875-8.25 2.208-7.459 11.25-.75 15.708-6.042 4.792-3.875 10.125-.417 15.334-5.875 34.125-2.125 67.833-2.083 101.958.292 2.542 7.916 17.417-1 18.875 7.583 5.333-.833 9.417.5 12.25 4 13.083 1.5 27.917 12.125 38.625 19.542 14.792 12.041 29.625 21.875 40.667 38.666 11.791 12.084 23.25 23.292 32.083 37.875 1.125 8.75 10.667 9.792 9.167 19.75 4.541 5.834 9.25 8.75 8.166 16.959 5.792 10.708 9.875 16.208 8.375 29.208l3.667 1.75c1.625 43.833 2.75 87.625 0 131.458-6.833 7.292-1.375 16.459-5.708 24.042-7.542 25.792-21.625 50.958-41.584 71-26.583 29.458-57.583 47.75-87.125 73.208.584-8 2.334-15.833 4.792-23.416 1.083-2.875 2-5.75 2.75-8.709-19.583 5.334-37.583 18.375-57.5 20.75.542-7.041 2.083-8.125 7.917-11.541 38.166-20.959 72.416-49.834 103.458-80.167 28.542-28.417 33.458-65.75 38.625-103.792 3-25.791-2.417-50.041-9.958-74.5-9.334-28.041-19.625-54.958-37.25-79.041-21.875-30.375-53.209-57.959-89.375-69.375-28.5-10.25-59.459-10.25-89.167-6.875-43.917 14.416-87.25 22.875-127.5 48.291-14.542 8.917-19 23.084-38.75 19.709-3.917-5-8.25-10.917-9.625-17.25 3.208-5.75 7.25-11 10.417-16.792-4.375-14.542-9.334-29.458-16.75-42.708-29.167-44.875-61.834-86.375-99.25-124.625-66-66.375-144.709-120.875-230.417-158.584-21.25-8.541-40.708-18.125-62.833-23.75-65.25-17.875-132.75-31.958-200.292-36.75-23.75-4.666-47-2.166-70.875-4.25-39.75-5.916-80.875-1.125-120.75-5-12.708-2.708-24.833-1.541-37.5.417-45.708 1.792-92.25-.917-137.75 3.625-57.292 4.208-122.667 8.792-175.375 33.75-15.125 8.708-30.208 17-45.875 24.75-40.333 22.792-74.708 51.125-109.625 81.208-21.417 21.584-43.583 42.875-62.792 66.459-9.916 10.208-1.166 29.916.334 42.041-4.375 7.542-10.459 16.292-18.792 19.667-7.125-4.417-12.792-10.208-18.708-16-12.334-12.542-27.292-22.75-41.375-33.792-16.292-12.666-31.959-24.541-52-30.75-22.084-8.5-48-7-71.417-5.958-42.833 3.833-77.625 27.375-105.833 58.5-18.875 22.917-34.625 46.417-38 76.75-2.084 33.083-2.417 64.458 12.041 95.083 19.209 36.084 49.417 61 83.917 81.709 10.667 5.875 26.042 7.375 32.833 17.875 2 6-.375 11.666-2.5 17.291-15.125 36.125-39.916 67.167-74.541 86.292-8.334-1.208-16.375-3.875-24.709-5.083-8.083 1.916-15.458 8.208-23.125 11.708l-8-6.208c25.25-15.792 49.917-41.084 70.167-63.25 1.208-5.209 6.125-9.167 9.208-13.459.417-4.875.625-9.75.584-14.708-14.167-9.083-25.334-17.167-38.25-26.292-21.459-20.416-42.042-38.666-54.959-65.916-3.083-7.417-8.583-11.542-8.083-20.084-7.167-3.083-.25-11.916-7.417-14.625-1.375-4.875 2.209-16.083-4.333-16.625-1.333-7.041 2.25-22.166-3.958-25.75-.375-13.041.291-26.041-.167-39.083 8.792-1.333-1.25-21.792 7.917-22.5-2.584-11.708 5-13.417 4.333-23.333l3.542-2.209c5-17.458 16.208-36 28.958-49.416 17.625-25.167 43.583-41.334 68.708-57.209 7.584.334 10.459-4.375 16.042-8.375 11 1.792 14.042-6 23.792-4.541 1.125-8.542 16.416-.709 22.375-7.834 20.166-1.416 40.25-.25 60.416-.416 6.334 7.458 20.584-.125 22.709 8.166 10.458-1.125 22.333 5.084 31.791 9.209 12.334 6.333 24.709 9.916 35.209 19.541l6.5.542c.708 7.083 15.083 4.167 20.166 4.333 37.334-35.166 73.75-76.958 114-108.458 28.459-23.5 58-43.083 91.209-59 8.791-4.042 19.208-12.458 28.75-11.958.708-3.334 3.541-4.792 8.541-4.375 4.875-7.125 12.125-.459 13.959-8 14.833 2.416 20.875-11 35.5-8.834 2.041-8.583 17.166 1.125 18.708-8.041h7.083c6.709-8.625 27.042.75 30.375-7.959 14.667 0 29.292-.708 43.959-.625l1.958-3.583c18.667 1 37.583-.958 56.292-.667Z" style="fill:#5a371a;fill-rule:nonzero"/>
  <path d="M1633.38 120.308c39.875 3.875 81-.916 120.75 5 23.875 2.084 47.125-.416 70.875 4.25 67.542 4.792 135.042 18.875 200.292 36.75 22.125 5.625 41.583 15.209 62.833 23.75 85.708 37.709 164.417 92.209 230.417 158.584l-3.209 8.166c-18-8.083-31.75-22.958-49.958-31.166-86.792-41.792-177-78.542-269.542-105.542-21.666-5.083-43.583-8.667-65.125-14.625-53.666-11.25-108.666-18.333-163.458-20.625-27.667-4.125-56.083-3.125-83.958-2-23.584 3.833-47.334 2.167-70.792 6.542-34.25 5.75-67.917 7.125-101.708 15.75-41.417 8.083-82.292 18.625-123.75 26.583-46.667 9.208-87.917 27.292-132.334 43.417-23.708 10.083-47.75 20.75-69.541 34.583-47.292 34.542-82.959 77.208-117.5 123.917-12.084 19.625-25.875 38.041-38.542 57.25-23.625 31.166-41.125 66.333-64.625 97.75-20.958 30.041-39.417 61.291-63.75 88.916 4.125.792 8.25 1.542 12.417 2.167-35.75 7.042-68.542 13.208-100.417 32.458l2.75 5.875.542 1.084c-6.917 2.916-13.584 6.25-19.625 10.708-9.292 6.333-13.75 12.917-26 9.375 34.625-19.125 59.416-50.167 74.541-86.292 2.125-5.625 4.5-11.291 2.5-17.291-6.791-10.5-22.166-12-32.833-17.875-34.5-20.709-64.708-45.625-83.917-81.709-14.458-30.625-14.125-62-12.041-95.083 3.375-30.333 19.125-53.833 38-76.75 28.208-31.125 63-54.667 105.833-58.5 23.417-1.042 49.333-2.542 71.417 5.958 20.041 6.209 35.708 18.084 52 30.75 14.083 11.042 29.041 21.25 41.375 33.792 5.916 5.792 11.583 11.583 18.708 16 8.333-3.375 14.417-12.125 18.792-19.667-1.5-12.125-10.25-31.833-.334-42.041 19.209-23.584 41.375-44.875 62.792-66.459 34.917-30.083 69.292-58.416 109.625-81.208 15.667-7.75 30.75-16.042 45.875-24.75 52.708-24.958 118.083-29.542 175.375-33.75 45.5-4.542 92.042-1.833 137.75-3.625 12.667-1.958 24.792-3.125 37.5-.417Z" style="fill:#7f5c43;fill-rule:nonzero"/>
  <path d="M1683.29 182.85c27.875-1.125 56.291-2.125 83.958 2 54.792 2.292 109.792 9.375 163.458 20.625 21.542 5.958 43.459 9.542 65.125 14.625 92.542 27 182.75 63.75 269.542 105.542 18.208 8.208 31.958 23.083 49.958 31.166l3.209-8.166c37.416 38.25 70.083 79.75 99.25 124.625 7.416 13.25 12.375 28.166 16.75 42.708-3.167 5.792-7.209 11.042-10.417 16.792 1.375 6.333 5.708 12.25 9.625 17.25 6.667 3.375 16.875 4.875 20.792 11.541 22.583 34.834 36.583 75.25 52.875 113.334 15.166 40.541 32.125 82.458 37.75 125.541 11.083 42.209 14.625 84.917 18.833 128.167-.208 9.417 2.375 15.667 7.125 23.625-5.542 2.667-11.167 5-16.875 7.167-10.5-1.084-19.375-10.167-29.958-12-8.667-1.625-17.834-2.084-26.334-4.5-10.041-13.709-17.083-29.292-28.166-42.375-31.375-41.292-76.75-68.084-123-89.709-55.792-23.333-115.625-38.125-175.417-46.5-46.5-9.083-90.875-7.666-138.042-8.083-20.541-.25-40.416 1.958-60.708 5-6.292-2.583-11.958-5.458-18.792-6.25-69.375-9.25-141.708 8.583-198.416 49.667-42.584 31.208-75.375 75.625-90.625 126.291-2.209 5.709-.542 10.459.458 16.167-4.708 17.042-11.833 33.667-19.292 49.667-33.666-12.667-68.916-20.042-103.333-5.042-3.917-18.875-6.333-37.542-12.292-56-17.333-52.25-46.333-100.625-89.25-135.792-27.708-23.208-60.75-40-95.166-50.666-7.292-2.584-14.417-2.667-21.959-1.792-45.666-26.375-98.583-42.208-149.416-55.417-54.417-9.875-110.75-19.5-166.209-18.166-31.666-.709-63.875.916-95.166 5.833-4.167-.625-8.292-1.375-12.417-2.167 24.333-27.625 42.792-58.875 63.75-88.916 23.5-31.417 41-66.584 64.625-97.75 12.667-19.209 26.458-37.625 38.542-57.25 34.541-46.709 70.208-89.375 117.5-123.917 21.791-13.833 45.833-24.5 69.541-34.583 44.417-16.125 85.667-34.209 132.334-43.417 41.458-7.958 82.333-18.5 123.75-26.583 33.791-8.625 67.458-10 101.708-15.75 23.458-4.375 47.208-2.709 70.792-6.542Z" style="fill:#775237;fill-rule:nonzero"/>
  <path d="M866.667 359.558c36.333 1.584 65.375 18.334 96.916 34.584 7.75 5.083 20.5 13.625 17.875 24.416-3.5 11.459-12.208 13.667-23.291 11.625-25.792-6.083-49-27.291-75.584-32.625-15.333-.916-34.875-3.25-47.041 8.084-20.792 18.5-42.042 39.75-48.75 67.708-3.084 18.042-.917 36.708 7.791 52.917 6.167 9 19.125 13.166 24.209 22.708-2.75 5.167-5.375 14.042-11.084 16.5-21.25-.583-36.125-16.167-43.791-34.875-10.959-22.792-9.959-48.458-6.625-72.875 7.791-25.417 20.208-51.125 40.916-68.5 18.875-16 42.959-30.25 68.459-29.667Z" style="fill:#573418;fill-rule:nonzero"/>
  <path d="M1784.96 459.642c22.125-7.459 47.75 2.375 67.875 11.833 30.125 15.5 57.917 36.375 84.292 57.458 14.167 11.875 30.125 25.667 35.292 44.042 3 13.375 2.083 27.25-5.875 38.792-12.042 18.416-33.459 25.666-54 29.916-30.167 5.542-61.125 7-91.709 4.75-18.916-1.375-36.958-8.041-50.625-21.458-18.625-18.167-28.375-45.708-27.583-71.5.458-18.083-1.083-37.375 2.583-55.083 7.792-16.292 22.25-32.875 39.75-38.75Z" style="fill:#5d381b;fill-rule:nonzero"/>
  <path d="M2689.17 488.892c36.166 11.416 67.5 39 89.375 69.375 17.625 24.083 27.916 51 37.25 79.041 7.541 24.459 12.958 48.709 9.958 74.5-5.167 38.042-10.083 75.375-38.625 103.792-31.042 30.333-65.292 59.208-103.458 80.167-5.834 3.416-7.375 4.5-7.917 11.541 19.917-2.375 37.917-15.416 57.5-20.75-.75 2.959-1.667 5.834-2.75 8.709-17.333 4.875-33.125 13.125-50.25 18.541-5.125-.041-10.708-.583-15.667.875-31.583 11.542-62.208 25.25-93.458 37.542-4.75-7.958-7.333-14.208-7.125-23.625-4.208-43.25-7.75-85.958-18.833-128.167-5.625-43.083-22.584-85-37.75-125.541-16.292-38.084-30.292-78.5-52.875-113.334-3.917-6.666-14.125-8.166-20.792-11.541 19.75 3.375 24.208-10.792 38.75-19.709 40.25-25.416 83.583-33.875 127.5-48.291 29.708-3.375 60.667-3.375 89.167 6.875Z" style="fill:#654233;fill-rule:nonzero"/>
  <path d="M1382.04 584.183c28.958 4.875 60.75 3.042 89.083 10.375 18.5 5.042 33.417 19.917 35.458 39.417 2.75 22.667-11.583 46.708-23.958 64.708-18.125 26.042-41.5 47.375-74.208 51.459-33.375 2.583-64.75-10.959-90.75-30.959-25.584-19.208-54.584-45-65.667-75.75-10.375-28.833 5.583-61.416 35.042-70 34.791-10.791 62.125 2.709 95 10.75Z" style="fill:#5d381b;fill-rule:nonzero"/>
  <path d="M2625 576.6c22.708-1.375 41.5 6.958 62.542 13.708 26.958 8.75 48.958 32.334 59.166 58.417 7.875 18.875 15.875 40.958 13.834 61.625-1.834 18.917-10.792 37.583-21.375 53.125-14.125 21.167-39.042 35.292-64.125 37.833-8.25-.875-23.875 2.459-22.417-10.333 9.417-16.333 23.875-23.583 39.167-33.125 17.583-10.125 28.708-31.083 32.125-50.542 1.541-19.458-7.25-40.125-16.959-56.583-14.416-23.708-44.333-32.375-69.75-38.125-23.666-5.375-45.416-.458-66.583 10.25-8.333-.417-21.167-19-10.292-25.5 15.792-15.833 43.25-20.083 64.667-20.75Z" style="fill:#583518;fill-rule:nonzero"/>
  <path d="M1008.33 673.892c55.459-1.334 111.792 8.291 166.209 18.166 50.833 13.209 103.75 29.042 149.416 55.417 42.5 21.167 80.875 48.958 112.084 84.917-5.042-1.042-9.334-3.125-12.875-6.25-23.125-19.584-43.875-39.334-70.042-54.834-78.792-47.041-170.75-73.916-261.5-84.5-22.417-4.25-45.125-4.666-67.833-3.083-53.959-.792-105.625-2.625-157.834 13.917-17.75 4.666-34.083 12.333-50.458 20.416l-2.75-5.875c31.875-19.25 64.667-25.416 100.417-32.458 31.291-4.917 63.5-6.542 95.166-5.833Z" style="fill:#7b6861;fill-rule:nonzero"/>
  <path d="M1023.79 683.725c7.375 1.708 14.708 3.208 21.916 5.583-12.458 1.042-24.333.709-36.625 2.25l.792 2.084c25.917 4.833 50.042 14.083 72.667 27.541 6.125 5.584 9.166 16.167 16.625 20.209 10.416 6.291 20.291 13.041 30.083 20.25 15.208 8.666 29.833 15.75 42.375 28.5 2.25 3.458 1.292 8.791 1.875 12.791 19.292 13.459 40.583 31.917 63.5 38.709 14.5 3.583 23.458 15.791 37.833 20.416 18.167 6.209 25.709 21.542 45.125 19.375 7.75 8.167 11.75 15.167 24.292 16.084 9.583 2.458 14.875-6.167 22.875-10.125 14.583.541 25.5 11.541 38.292 17.083 12.083 5.125 26.625 3.333 37.791 9.833 8.875 4.584 18.042 7.584 27.625 10.25 14.459 3.834 22.5 15.834 38.542 15.542 6.417 14.417 11.5 29.292 13.583 45 1.125 6.625 1.792 14.875 5.917 20.333 13.833-6.666 26.25-14.041 41.875-16 21.875-1.875 43.208-1.041 63.25 8.875 6.042 2.459 12.417 7.625 19.042 8 1.75-2.291 3.416-4.625 5-7.083.166 5.125.416 10.25.75 15.333 8.416-8.875 13.25-2.583 22.458.5 4.292 3.584 6.042 11.292 11.833 11.5 20.5-1.041 40.584 2.75 61.125 2 13.5-.25 25.084 4.917 38.084 7.167 5.208.625 10.458-4.125 15.5-5.583 8.75 4.583 12.625 7.208 22.791 5.041 23.584-5.041 46.709 2.334 70-1.875 16.084-4.208 32.542 2.125 49.167-1.208 2.833-.083 5.167-1.583 7-4.583.542-6.125-4.875-19.667 5.792-18.709 16.5 3.542 29.708-1.541 45.75-3.291 22.166 2 45.666-3.334 67.166-8.459 10.459-.666 19.959-.416 29.584-5.5 6.208-3.583 9.458.25 15.541 1.792 14.25-11.5 23.292 3.75 38.709-1.292 12.041-4.083 23.833-7.625 36.666-7.5 11.75 0 19.834-9.75 31.584-8.083 16.458 3.083 28.791-12 46.041-11.792 14.5-.333 24.792-9.5 38.792-11.875 19.333-4.333 35.833-12.708 53.917-20.375 30.125-11.833 61.875-22.333 89.666-39.125 12.542 14.584 25 28.709 32.959 46.209-10.334 5.916-20.209 12.166-31.292 16.625-18.125 7-34.75 18.375-51.125 28.666-9.708 7.167-23.583 7.334-35.083 11.292-16.792 6.25-32.25 17.458-50.542 19.542-31.208 3.708-58.167 18.333-88.792 24.416-18.833 6.75-37.041 11.75-57.25 10.584-25.375 2.291-57.333-3.25-79 11.416-12.875-1.5-22.666-4.416-35 1.584-22.625 9.875-43.333-1.792-67.083 5-3.083 1.458-5.75 3.708-8 6.833 1.917 5.917 4.375 11.708 6.417 17.625-14.334-1-27.709-4.208-42.209-1.708-23.625 3.25-47.083-.334-70.75 3.416-16.333 3.375-31.208-4-47.375-1.333-11.041 1.958-21.041-.458-31.791-2.75-11.25-2.542-21.625-1-32.959-1.125-10.333.292-19.5-4.75-29.583-4.458-11.417 0-21.917 1.208-32.958-3.125-8.125-2.375-13.209-12.167-19.375-17.75-10.875-2.334-23.334 1.208-34.417.916-4.458-3.833-8.208-8.583-12.125-12.958-11.208-11.667-22.208-23.583-39.292-25.458-19.958-.25-38.875 1.458-52.75 17.416-2.416-6.958-7.75-5.25-13.625-7.083-17.875-2.875-31.916-11.583-48.333-18.167-6.875-2.5-15.042-.5-21.917-3-9.875-4.75-17.708-11.416-28.916-13.125-20.292-4.291-39.459-11.625-58.209-20.375-26.416-2-44.916-19.708-70.75-27.083-2.416 5.75-4.291 11.708-6.5 17.458-8.958-6.666-16.708-12.208-28.083-14.291-16.25-3.25-28.167-13-42.792-19.834-19.041-6.458-34.666-18.166-52.75-26.708-12.416-7.792-26.041-11.208-37.208-20.958-8.833-8.084-20.417-8.209-27.75-17.5-4.25-4.5-11.333-6.292-16.75-9.167.125-6.042 1.167-12.042 1.167-18.042-9-13.708-27.875-20.833-41.792-28.208-13.083-6.5-22.042-16.417-32.958-25.625-17.667-12.25-36.667-24.583-51.792-39.958-11.333-11.084-24.083-19.75-34.5-31.917-4.042-4.042-8.167-9.583-13.542-11.708-11.625-3.167-25.083-1.25-37.041-2.5-.875-2.167-1.709-4.334-2.5-6.459-4.584-1.125-9.292-1.916-14.084-2.291 52.209-16.542 103.875-14.709 157.834-13.917Z" style="fill:#1f1d1d;fill-rule:nonzero;stroke:#1f1d1d;stroke-width:2.92px"/>
  <path d="M1023.79 683.725c22.708-1.583 45.416-1.167 67.833 3.083 90.75 10.584 182.708 37.459 261.5 84.5 26.167 15.5 46.917 35.25 70.042 54.834 3.541 3.125 7.833 5.208 12.875 6.25 6.333 5.875 12.291 12.166 18.041 18.625 1.417 6.291 3.334 10.875 7.542 15.708 18.542 22 36.542 46.75 47.75 73.375-16.042.292-24.083-11.708-38.542-15.542-9.583-2.666-18.75-5.666-27.625-10.25-11.166-6.5-25.708-4.708-37.791-9.833-12.792-5.542-23.709-16.542-38.292-17.083-8 3.958-13.292 12.583-22.875 10.125-12.542-.917-16.542-7.917-24.292-16.084-19.416 2.167-26.958-13.166-45.125-19.375-14.375-4.625-23.333-16.833-37.833-20.416-22.917-6.792-44.208-25.25-63.5-38.709-.583-4 .375-9.333-1.875-12.791-12.542-12.75-27.167-19.834-42.375-28.5-9.792-7.209-19.667-13.959-30.083-20.25-7.459-4.042-10.5-14.625-16.625-20.209-22.625-13.458-46.75-22.708-72.667-27.541l-.792-2.084c12.292-1.541 24.167-1.208 36.625-2.25-7.208-2.375-14.541-3.875-21.916-5.583Z" style="fill:#1f1d1d;fill-rule:nonzero;stroke:#1f1d1d;stroke-width:3.33px"/>
  <path d="M865.958 697.642c4.792.375 9.5 1.166 14.084 2.291.791 2.125 1.625 4.292 2.5 6.459 11.958 1.25 25.416-.667 37.041 2.5 5.375 2.125 9.5 7.666 13.542 11.708 10.417 12.167 23.167 20.833 34.5 31.917 15.125 15.375 34.125 27.708 51.792 39.958 10.916 9.208 19.875 19.125 32.958 25.625 13.917 7.375 32.792 14.5 41.792 28.208 0 6-1.042 12-1.167 18.042 5.417 2.875 12.5 4.667 16.75 9.167 7.333 9.291 18.917 9.416 27.75 17.5 11.167 9.75 24.792 13.166 37.208 20.958 18.084 8.542 33.709 20.25 52.75 26.708 14.625 6.834 26.542 16.584 42.792 19.834 11.375 2.083 19.125 7.625 28.083 14.291 2.209-5.75 4.084-11.708 6.5-17.458 25.834 7.375 44.334 25.083 70.75 27.083 18.75 8.75 37.917 16.084 58.209 20.375 11.208 1.709 19.041 8.375 28.916 13.125 6.875 2.5 15.042.5 21.917 3 16.417 6.584 30.458 15.292 48.333 18.167 5.875 1.833 11.209.125 13.625 7.083-6.125 12.167-12 23.459-12.791 37.292-2.042-2.75-4.125-5.458-6.292-8.125-5.875 2.792-9.542-.5-15.208-2.25-12.084-4.667-26.292-5.5-37.875-10.958-.959-1.75-1.917-3.459-2.917-5.209-10.792.459-16.167-.5-26-5.375-6.25-4.041-9.292 3.25-15.417-.833-14.916-7.75-31.291-9.792-46.5-16.5-14.833-6.792-30.708-11.167-46.125-16.417-8.541-3.25-12.625-10.083-22.708-7.291-1.417 5.041-2.792 10.083-4.167 15.125-9.541-2.709-17.166-9.875-27.25-11.75-20.541-4.125-35.541-18.042-55.5-23.917-17.541-5.125-31.125-16.958-48.625-22.208-27.875-13.125-54.958-31.334-80.5-48.417-10.25-6.792-23.291-13.417-30.458-23.625-1.125-5.25 2.25-14.75-3.875-17.167-14.458-7.875-30-13.291-43.833-22.458-15.125-8.292-24.5-22.458-38.959-31.583-20.25-13.125-37.458-29.209-55.625-45-13.666-11.875-23.5-27.375-38.583-37-9.792-7.084-17.083-20.292-29.375-23.375-15.667 2.791-26.083 10-41.958 2l-.542-1.084c16.375-8.083 32.708-15.75 50.458-20.416Z" style="fill:#1f1d1d;fill-rule:nonzero;stroke:#1f1d1d;stroke-width:20.83px"/>
  <path d="M858 717.142c12.292 3.083 19.583 16.291 29.375 23.375 15.083 9.625 24.917 25.125 38.583 37 18.167 15.791 35.375 31.875 55.625 45 14.459 9.125 23.834 23.291 38.959 31.583 13.833 9.167 29.375 14.583 43.833 22.458 6.125 2.417 2.75 11.917 3.875 17.167 7.167 10.208 20.208 16.833 30.458 23.625 25.542 17.083 52.625 35.292 80.5 48.417 17.5 5.25 31.084 17.083 48.625 22.208 19.959 5.875 34.959 19.792 55.5 23.917 10.084 1.875 17.709 9.041 27.25 11.75 1.375-5.042 2.75-10.084 4.167-15.125 10.083-2.792 14.167 4.041 22.708 7.291 15.417 5.25 31.292 9.625 46.125 16.417 15.209 6.708 31.584 8.75 46.5 16.5 6.125 4.083 9.167-3.208 15.417.833 9.833 4.875 15.208 5.834 26 5.375 1 1.75 1.958 3.459 2.917 5.209 11.583 5.458 25.791 6.291 37.875 10.958 5.666 1.75 9.333 5.042 15.208 2.25 2.167 2.667 4.25 5.375 6.292 8.125 9.625 12.375 22.75 26.708 8.416 41.583-5.958.959-12 1.292-18.208.959-5.792-2.542-9.875-7.25-15.833-9.542-14.209 24.333-24.834 48.292-45.917 67.917-16.792 18-37.125 29.625-57.875 42.375-2.667-2.542-5.125-5.209-7.375-8.084 16.667-14.833 40.667-26.666 43.667-51.25-19.417 9.459-33.834 23.542-57.042 27.834-7.333-2.417-10.583-3.959-18.25-1.75-6.458-2.959-11.292-3.459-18.333-3 .208-3 .458-6 .708-9-19.583-2.292-41.458-8.334-57.917-19.417-5.416-.625-10.916-.25-16.375-.667-9.791-3.083-18.333-10.541-28.166-13.416-24.584-5.292-44.292-21.792-69.167-27.209-10-1.208-14.958-8.666-23.375-13.125-4.125-.583-8.417.292-12.458-.458-8.5-10.5-17.625-23.333-32.959-20.042-.958-2.458-1.833-4.916-2.75-7.375-16.208-.791-22-14.291-36.416-18.375-8.25-2-11.959-9.375-16.417-15.958-11.625-18.417-11.417-43.542-16.083-63.583-2.542-5.084-7.167-9.5-12.084-12.25-5.208-.542-10.833.125-15.916-1.25-14.417-7.709-22.709-22.125-38.042-28.917-10.708-8.792-20.25-19.958-29.625-30.25-5-2.583-10.292-4.792-15.042-7.667-4.75-6.583-5.041-16-9.5-22.791-7.416-1.875-14.958-1.875-22.333-5.084.25-3.833.792-7.708.833-11.541-18.041-7.917-26.375-23.084-37.625-38.25-3.958-4.834-3-9.875-3.916-15.625-2.875-.375-5.709-.75-8.584-1.084-4.083-5.583-7.208-10.291-13.25-13.958-1.375-5.25-1.541-10.917-2.583-16.25-9.083-12.833-21.5-21.583-34.042-30.25.875-5.167 3.209-9.458 2.459-14.875 6.041-4.458 12.708-7.792 19.625-10.708 15.875 8 26.291.791 41.958-2Z" style="fill:#1f1d1d;fill-rule:nonzero;stroke:#1f1d1d;stroke-width:3.13px"/>
  <path d="M1501.04 716.808c2.541-1.833 5.916-1.625 10.083.625-1.083 13.125-8.542 24.625-16.833 34.417-10.167 10.833-19.209 21.333-35.25 21.583 5.041-11.625 14.583-16.75 22.958-25.541 8.333-8.417 12.25-21.709 19.042-31.084Z" style="fill:#5c371a;fill-rule:nonzero"/>
  <path d="M745.708 734.142c8.334 1.208 16.375 3.875 24.709 5.083 12.25 3.542 16.708-3.042 26-9.375.75 5.417-1.584 9.708-2.459 14.875 12.542 8.667 24.959 17.417 34.042 30.25 1.042 5.333 1.208 11 2.583 16.25 6.042 3.667 9.167 8.375 13.25 13.958 2.875.334 5.709.709 8.584 1.084.916 5.75-.042 10.791 3.916 15.625 11.25 15.166 19.584 30.333 37.625 38.25-.041 3.833-.583 7.708-.833 11.541 7.375 3.209 14.917 3.209 22.333 5.084 4.459 6.791 4.75 16.208 9.5 22.791 4.75 2.875 10.042 5.084 15.042 7.667 9.375 10.292 18.917 21.458 29.625 30.25 15.333 6.792 23.625 21.208 38.042 28.917 5.083 1.375 10.708.708 15.916 1.25 4.917 2.75 9.542 7.166 12.084 12.25 4.666 20.041 4.458 45.166 16.083 63.583 4.458 6.583 8.167 13.958 16.417 15.958 14.416 4.084 20.208 17.584 36.416 18.375.917 2.459 1.792 4.917 2.75 7.375 15.334-3.291 24.459 9.542 32.959 20.042 4.041.75 8.333-.125 12.458.458 8.417 4.459 13.375 11.917 23.375 13.125 24.875 5.417 44.583 21.917 69.167 27.209 9.833 2.875 18.375 10.333 28.166 13.416 5.459.417 10.959.042 16.375.667 16.459 11.083 38.334 17.125 57.917 19.417-.25 3-.5 6-.708 9 7.041-.459 11.875.041 18.333 3 7.667-2.209 10.917-.667 18.25 1.75 23.208-4.292 37.625-18.375 57.042-27.834-3 24.584-27 36.417-43.667 51.25 2.25 2.875 4.708 5.542 7.375 8.084-21.208 10.916-44.792 17.125-66.75 26.458-66.5 24.875-135.542 37.083-206.333 26-52.042-5.25-103.709-17.958-152.834-35.833-45.583-13.25-87.208-32.667-129.833-53.167-22.417-12.792-43.333-28.5-63-45.208-23.75-22.792-45.167-47.709-62.417-75.875-18.833-32.75-32.541-67.167-34.625-105.292-.083-23.125-1.708-45.792 1.917-68.833.667-7.167 4.375-14.375 1.125-20.875-6.417-14.917-15.333-26.417-14.167-43.625.334-17.834-5.208-42.959 6.25-57.959 11.209-10 26-17 38.875-24.708 7.667-3.5 15.042-9.792 23.125-11.708Z" style="fill:#1f1d1d;fill-rule:nonzero;stroke:#1f1d1d;stroke-width:3.13px"/>
  <path d="m714.583 739.642 8 6.208c-12.875 7.708-27.666 14.708-38.875 24.708-11.458 15-5.916 40.125-6.25 57.959-1.166 17.208 7.75 28.708 14.167 43.625-10.833 12.875-9.958 27.875-12.208 43.75-3.959 34.708 3.458 66.583 12.541 99.75 6.125 18.208 15.042 37.375 25.292 53.666l5.958-2.166c17.25 28.166 38.667 53.083 62.417 75.875-3.958 8.5 3.583 10.833 8.667 16.083 14.291 10.792 28.583 21.958 43.916 31.292 42.209 22.625 85.959 41.5 131.542 56.208 56.958 21.667 116.25 34.208 176.458 42.583 64.209 1.834 126.084-2.25 185.375-29.208 2.542-2.25 4.542-5.167 6.042-8.75 21.958-9.333 45.542-15.542 66.75-26.458 20.75-12.75 41.083-24.375 57.875-42.375 21.083-19.625 31.708-43.584 45.917-67.917 5.958 2.292 10.041 7 15.833 9.542 6.208.333 12.25 0 18.208-.959 14.334-14.875 1.209-29.208-8.416-41.583.791-13.833 6.666-25.125 12.791-37.292 13.875-15.958 32.792-17.666 52.75-17.416 17.084 1.875 28.084 13.791 39.292 25.458.417 10.958-1.458 20.167-4.833 30.458-3.75 9.75-.417 18 1.125 27.792l-1 6.208c7.625 12.917 24.291 8 35.375 13.209 9.125 13.625 13.708 29.583 23.708 42.875 11 14.875 23.542 29.625 36.708 42.583 26.834 23.167 56.625 42 88.459 57.5 25.875 15.458 52.541 28.75 80.333 40.417 78.125 29.083 161.625 36.791 244.292 28-18.417 16.041-37.5 28.666-51.625 49.208-16.375 24.083-26.959 54.958-21.875 84.208 2.958 19.959 14.291 38 30.291 50.125 24.5 17.834 48.292 33.5 79.5 35.667 79.625 5.875 165.959-35.583 204.709-106.792 23.5-42.75 8.375-100.333-32.542-126.458-9.5-6.833-20.417-8.667-30.958-13.083-2.084-4.584-3-6.959-7.959-9.167 42.709-13 85.75-32.083 121.042-59.75 11.625-10.5 24.083-20.375 34.875-31.75 21.083-25.542 38.5-53.417 47.417-85.625 3.875-10.792 2.541-22.542 12.708-29.333 15.417-10.875 30.292-21.75 43.25-35.584 2.792 6.167 3.792 13 3.5 19.709-1.75 78.583-18.167 159.583-53.25 230.333-14.708 26.375-30.708 52.167-47.667 77.167-11.666 17.75-31.625 31.083-49.041 42.791-11.625 8.084-25.959 12.542-36.875 21.417l-.667 2.708c10.875 12.125 22.208 22.917 29.333 37.875 11.75 23.792 23.042 49.084 28.542 75.167 5.917 49.583-4.708 102.708-21.25 149.5-11.417 33.583-28.417 64.5-41.583 97.25-22.709 1.583-45.5.125-68.167 2.042-32.125 4.375-67.667 9.291-97.583 22.291-8.959 4.375-19.875 10.584-14.709 22.375 7.917 6.667 21.75 2.75 31.209 1.917 38.375-6.5 77.708-9.917 116.583-8.333 122.958 3.291 246.083 36.083 356.5 89.833 55.792 27.625 111.75 67.375 147.417 119.125 42.5 62.667 57.416 141.917 55.458 216.542-5.167 90.958-36.375 181.166-84.417 258.291-16.083 28.375-47.25 48.5-76.75 60.667-50.791 20.375-111.583 19-164.791 10.583-27.292-5.041-56.5-7.375-81.167-19.208-16.5-7.042-31.917-17.042-48.875-22.708 15.75 18.75 41.625 30 62.417 42.583 3.125 11.5 6.375 22.792 12.541 33.125 13.292 22.417 23.709 46.167 34 70.042 35.042 78.083 64.459 159.291 87.625 241.666 12.959 42.417 12.75 85 13.625 129.125.834 37.334-3.416 74.042-7.25 111.084-4.333 39.833-7.083 77.625-21.25 115.541-11.166 29.5-17.208 57.875-33.791 83.042-17.209 26.75-36 52.417-56.542 76.75-22.708 28.5-51.125 52.917-74.25 80.75-11.25 6.833-22.708 13.167-34.792 18.375-36.875 15.875-73.583 31.542-112.458 41.917-63.25 23.75-127.917 42.666-192.667 61.833-52.541 15.375-105.708 28.125-159.333 39.042 11.458-12.542 17.125-30.875 21.375-47.042 2-23.042 7.125-42.375 3.542-65.417-6-32.541.458-66.875-6.042-99.166-2.208-17.25.708-33.667-3-50.209-4.083-21.291.583-41.75-5.125-62.416-5.667-24.084-9.625-48.542-14.917-72.709-10.458-35.708-22.875-70.833-38.333-104.75-7.917-21.875-20.292-40.458-32.083-60.291-14.459-25.25-30.875-49.667-48.042-73.125-17.625-28.5-41.458-53.167-62.5-79.25-19.625-25.125-43.125-45.459-65.5-67.917-15.333-14.875-33.5-27.833-49.583-42-33.459-28.792-70.417-46.542-109-70.333-69.542-39.417-152.5-64.792-232.875-61.084-58.209-.416-117.042 10.75-171.334 32-26.333 11.667-52.75 22.167-77.333 37.417-27.125 14-53.125 29.333-77.208 48.208-12.792 9.917-27 17.542-38.875 28.375-24.542 23.792-51.292 41.792-72.75 69.292-11.375 14.875-24.625 27.792-37.209 41.542-14.708 17.333-27.458 36.958-40.5 55.5-15.583 19.666-27.041 42.125-40.875 63.208-14.125 20.625-22.791 43.333-34.583 65.292-19.458 37.208-28.083 76.125-43.75 114.708-11.333 27.25-19.208 55.458-28.167 83.5-8.291 28.583-11.75 58.833-16.583 88.167-4.625 23.333-1.167 47.958-4.625 71.041-1.333 5.459 2.042 11.459 3.542 16.709-21.25-7.75-42.959-13.959-63.709-23.125-50.875-19.542-98.666-50.5-143.583-81.084-49.625-36.625-97.583-78-136.292-126.208-33.083-42.542-64.041-87.625-90.125-134.792-21.416-40.916-43.5-81.625-64.041-122.958-17.167-39.5-34.5-78.667-47.25-119.875-14.417-36.833-19.334-77.708-19.125-117.042.291-22.166-2.084-42.416 6.875-63.25 16.458-38.333 44-66 66.875-103.291 36-54.917 74.458-107.25 105.291-165.459 24.917-48.916 55.875-93.916 83.667-141.375 17.167-28.291 36.917-54.75 55.042-82.416 37.458-60 73.458-120.959 110.541-181.167 40.584-62.75 78.75-126.917 117.334-190.875 28.833-45.25 53.916-92.667 83.125-137.667 6.333-10 11.375-19.833 19.458-28.625 14.792 14.042 27.417 29.834 44 42.125 24.417 18.375 51.667 44.25 81.583 52.167-8.125-15.875-20.958-29.5-31.25-44.083-39.916-54.292-83.625-105.5-124.291-159.125-23.917-33.167-48.417-66.167-69.917-100.959-41.875-67.083-68.208-138-97.417-211-8.208-20.291-15.791-40.5-20.166-62-5.209-29.916-13.625-59.041-20.167-88.708-10.792-39-13.542-78.958-22.125-118.333-7.917-41-10.625-83-16.875-124.334.042-7.083-2.625-19.416 1.583-25.25 26.667-4.333 52.542-11.375 77.125-22.708 44-20.417 87.125-41.667 127.334-68.875 4.875-3.625 7.791-5.583 7.75-12.208.625-10.667.5-21.375.166-32.084-8.208 3-15.083 7.292-23.375 8.5.375-5 3.209-7.666 8.542-8.041 19.833-13.375 39.833-26.375 59.083-40.625Z" style="fill:#775237;fill-rule:nonzero"/>
  <path d="M1345.92 749.267c34.416 10.666 67.458 27.458 95.166 50.666 42.917 35.167 71.917 83.542 89.25 135.792 5.959 18.458 8.375 37.125 12.292 56l-6.042 5.667-3.708-1.834c-3.167-12.666-4.333-24.916-9-37.208-5.708-15.333-14.125-29.833-22.292-44-12.916-22.375-27.625-46.417-47.5-63.333-5.75-6.459-11.708-12.75-18.041-18.625-31.209-35.959-69.584-63.75-112.084-84.917 7.542-.875 14.667-.792 21.959 1.792ZM1953.83 754.975c6.834.792 12.5 3.667 18.792 6.25-39.792 5.458-81.375 13.542-118.542 29.25-46.291 18.833-89.25 44.792-126.916 77.708-23 23.625-46.917 49.334-61.917 78.917-1-5.708-2.667-10.458-.458-16.167 15.25-50.666 48.041-95.083 90.625-126.291 56.708-41.084 129.041-58.917 198.416-49.667Z" style="fill:#5d381b;fill-rule:nonzero"/>
  <path d="M2033.33 756.225c47.167.417 91.542-1 138.042 8.083 59.792 8.375 119.625 23.167 175.417 46.5 46.25 21.625 91.625 48.417 123 89.709 11.083 13.083 18.125 28.666 28.166 42.375 8.5 2.416 17.667 2.875 26.334 4.5 10.583 1.833 19.458 10.916 29.958 12 5.708-2.167 11.333-4.5 16.875-7.167 31.25-12.292 61.875-26 93.458-37.542 4.959-1.458 10.542-.916 15.667-.875-41 16.042-84.083 30.042-123 50.667-12 1.625-17.917-6.542-28.542-10.667-8.291-4.25-19.791-2.583-28.875-3.291-4.75-2.667-7.708-6.75-10.916-11-7.959-17.5-20.417-31.625-32.959-46.209-7.583-9.041-16.291-17.291-25.583-24.541a211.242 211.242 0 0 0-28.5-20.417c-41.958-29-94.292-45.083-143.167-58.208-66.458-17.209-135.791-27.084-204.541-25.542-54.917-.25-111.25 5.583-164.25 20.375-32 8.875-61 23.375-89.75 39.667-16.792 9.583-33.042 20-47.959 32.375-22.208 17.291-45.375 36.791-60.708 60.666-6.25 8.917-12.75 16.75-17 26.917-6.917 17.5-15.333 32.458-15.875 51.75l-.583 2.875c-1.584 2.458-3.25 4.792-5 7.083-6.625-.375-13-5.541-19.042-8-20.042-9.916-41.375-10.75-63.25-8.875-15.625 1.959-28.042 9.334-41.875 16-4.125-5.458-4.792-13.708-5.917-20.333-2.083-15.708-7.166-30.583-13.583-45-11.208-26.625-29.208-51.375-47.75-73.375-4.208-4.833-6.125-9.417-7.542-15.708 19.875 16.916 34.584 40.958 47.5 63.333 8.167 14.167 16.584 28.667 22.292 44 4.667 12.292 5.833 24.542 9 37.208l3.708 1.834 6.042-5.667c34.417-15 69.667-7.625 103.333 5.042 7.459-16 14.584-32.625 19.292-49.667 15-29.583 38.917-55.292 61.917-78.917 37.666-32.916 80.625-58.875 126.916-77.708 37.167-15.708 78.75-23.792 118.542-29.25 20.292-3.042 40.167-5.25 60.708-5Z" style="fill:#766562;fill-rule:nonzero"/>
  <path d="M2054.17 764.6c68.75-1.542 138.083 8.333 204.541 25.542-3.166.625-6.25 1.458-9.208 2.541-2.417 3.875-2.167 6.792-7.625 7.125-15.833 2.5-31.667-1.375-46.625 2.75-14.417 4.084-28.708 5.292-42.25 12-21.125 5.709-42.125 9.292-63.958 11.584-31.625 8.791-64 5.333-95.834 12.708-10.333 4.708-17.041 17.958-27.875 21.708-9.125.542-17.833-2.958-27.125-1.583-23.666 3.75-47.666 4.958-71.541 3.25-15.334-1-30.417 1.208-45.75-1.042-22.959-3.791-45.709.584-68.709-4.166 14.917-12.375 31.167-22.792 47.959-32.375 28.75-16.292 57.75-30.792 89.75-39.667 53-14.792 109.333-20.625 164.25-20.375Z" style="fill:#1f1d1d;fill-rule:nonzero;stroke:#1f1d1d;stroke-width:4.17px"/>
  <path d="M670.333 779.808c.334 10.709.459 21.417-.166 32.084.041 6.625-2.875 8.583-7.75 12.208-40.209 27.208-83.334 48.458-127.334 68.875-24.583 11.333-50.458 18.375-77.125 22.708-4.208 5.834-1.541 18.167-1.583 25.25 6.25 41.334 8.958 83.334 16.875 124.334 8.583 39.375 11.333 79.333 22.125 118.333 6.542 29.667 14.958 58.792 20.167 88.708 4.375 21.5 11.958 41.709 20.166 62 29.209 73 55.542 143.917 97.417 211 21.5 34.792 46 67.792 69.917 100.959 40.666 53.625 84.375 104.833 124.291 159.125 10.292 14.583 23.125 28.208 31.25 44.083-29.916-7.917-57.166-33.792-81.583-52.167-16.583-12.291-29.208-28.083-44-42.125-8.083 8.792-13.125 18.625-19.458 28.625-29.209 45-54.292 92.417-83.125 137.667-38.584 63.958-76.75 128.125-117.334 190.875C476 2172.558 440 2233.517 402.542 2293.517c-18.125 27.666-37.875 54.125-55.042 82.416-27.792 47.459-58.75 92.459-83.667 141.375-30.833 58.209-69.291 110.542-105.291 165.459-22.875 37.291-50.417 64.958-66.875 103.291-8.959 20.834-6.584 41.084-6.875 63.25-.209 39.334 4.708 80.209 19.125 117.042 12.75 41.208 30.083 80.375 47.25 119.875 20.541 41.333 42.625 82.042 64.041 122.958 26.084 47.167 57.042 92.25 90.125 134.792 38.709 48.208 86.667 89.583 136.292 126.208 44.917 30.584 92.708 61.542 143.583 81.084 20.75 9.166 42.459 15.375 63.709 23.125 36.625 9.958 70.958 24.416 108.375 32.458 60.333 17.75 119.458 27.5 180.208 41.167 97 24.416 197.333 40.291 295.792 56.666 17.041 1 32.958 5.5 50.208 5.625 15.417 4.084 31.25 2.5 46.5 6.792 11.833 1.5 23.167-.333 34.75 3.542 17.625 2.791 36.75-.25 54.042 4.583 15 2.542 29.666-.583 44.458 4.333 30.167 2.084 61-.416 90.875 4.084 47.208.5 94.5 1.166 141.708.291 17.959-.291 36.417.75 54.167-1.875 33.375-2.541 66.417-.125 99.625-5.166 40.875-4.75 81.25-4.25 121.625-11.75 53.625-10.917 106.792-23.667 159.333-39.042 64.75-19.167 129.417-38.083 192.667-61.833 38.875-10.375 75.583-26.042 112.458-41.917 12.084-5.208 23.542-11.542 34.792-18.375 41.417-16.917 80-42.125 117.125-66.958 21.167-13.709 38.75-31.375 61.208-43.167 36.25-25.792 69.459-59.375 98.75-92.75 32.875-39.167 57.334-81.75 82.334-126.042 37.25-59.833 62.333-129.375 57.291-200.75-6.25-103.333-48.458-200.416-106.041-285.208-10.709-15.042-20.125-30.083-28.959-46.292-6.375-13.041-22.875-18.25-35.833-22.083-40.5-9.792-81.167-18.75-121.667-28.5-27.666-6.583-53.208-17.542-78.916-29.375-20.792-12.583-46.667-23.833-62.417-42.583 16.958 5.666 32.375 15.666 48.875 22.708 24.667 11.833 53.875 14.167 81.167 19.208 53.208 8.417 114 9.792 164.791-10.583 29.5-12.167 60.667-32.292 76.75-60.667 48.042-77.125 79.25-167.333 84.417-258.291 1.958-74.625-12.958-153.875-55.458-216.542-35.667-51.75-91.625-91.5-147.417-119.125-110.417-53.75-233.542-86.542-356.5-89.833-38.875-1.584-78.208 1.833-116.583 8.333-9.459.833-23.292 4.75-31.209-1.917-5.166-11.791 5.75-18 14.709-22.375 29.916-13 65.458-17.916 97.583-22.291 22.667-1.917 45.458-.459 68.167-2.042 21.958 2.083 44 2.708 65.916 5.542 6.917.541 14.542 2.208 21.375.708 7.792-4 14.625-10.292 21.459-15.792 38.833-32.166 79.125-62.416 118.083-94.416 64.042-54.625 124.583-107.5 171.417-178.5 17.625-28.667 36.666-55.917 50.916-86.584 20.417-42.083 47.875-81.75 58.209-125.958 1.541-7.208 3.791-15.208 2.708-22.542-4.083-6.958-10.292-12.75-16.125-18.291-28.958-26.667-55.833-55.625-80.167-86.584-13.125-16.833-22.375-35.375-34.375-52.958-24.958-36.375-39.791-75.5-54.5-116.708-3.75-11.375-11.625-24.625-10.5-36.709 3.709-5 8.417-9.125 12-14.25 7-11.833 6.834-28.208 10.542-41.416-.125 4.375-.167 8.791-.125 13.208l3 2.708c-1.625 10.917 5.375 13.667 4.75 23.417 5.167 5.25 4 9.292 4.333 16.083 7.042 2.709.875 11.417 5.917 15.75 3.917 7.792 7.542 12.417 6.625 21.834 3.667.458 4.833 3.333 3.5 8.625l4.208 1.583c-1.541 9.292 5.917 9.917 4.584 18.958 3.291.792 4.708 3.875 4.291 9.209 15.375 28.666 29.917 57.25 49.292 83.875 12.333 19.083 23.042 36.041 39.708 51.833 23.25 28.792 49.584 52.792 77 77.333 13.084 13 8.792 27.792 8.5 44.542-3.208 3.542-4.625 7.667-4.166 12.458l-3.542 2c1.292 8.875-5.833 10.209-4.917 18.959-3.208 5.125-6.666 11.708-8.166 17.5-10.292 22.958-22.25 37.875-34.042 61.958-21.125 27.167-38.667 61.5-59.667 87.25-2.958 3.292-3.5 8.708-5.541 12.667-5.375 2.291-9.5 4.083-12.625 9.25-18.875 26.333-37.042 55.083-59.25 78.416-14.042 15.084-28.334 29.959-42.459 45-19.166 20.584-41.041 38.25-61.541 57.625-28.625 26.292-56.75 53.25-83.917 80.959-10.5 9.125-22 17.416-31.75 27.25 3.5 3.291 8.292 5.25 14.292 5.875 13.666 2.625 27 6.208 40.416 9.958 29.209 6.833 58 17.292 86.042 27.958 62.667 24.834 123.5 54.209 174.042 99.667 11.333 9.667 22.083 19.708 32 30.833 42.458 47.042 68.291 105.459 80.208 167.334 12.667 61.875 11.917 126.125-2.083 187.708-3.084 16.208-6.584 32.208-11.084 48.083-3.833 13.25-8.125 26.292-12.875 39.25-7 16.542-12.791 33.584-20.166 49.959-25.792 48.041-50.209 96.916-76.292 144.791-4.542 8.542-9.333 17.167-12.917 26.167.334 5.667 3.417 11.25 5.667 16.458 13.583 28.209 26.042 56.834 40.625 84.542 4.917 9.208 9.667 18.25 12.083 28.5 4.542 18.542 11.834 35.917 17.75 54 6.042 17.958 10.584 36.333 16.292 54.375 7.583 30.25 12.167 60.833 16.292 91.708 5.875 35.125 1.291 72.625-4.334 107.584-6.5 40.416-17.458 79.041-39.083 114.125-3.958 8.5-11.708 13.583-5.083 23.125-8.667 8.875-18.084 15.958-23.5 27.458-11.375 21.542-24.5 41.25-39.375 60.542-54.25 69.416-121.584 129.291-193.25 180.166-7.709 7.959-19.459 10.292-28.417 17.084-36.75 24.208-75 43.25-114.5 62.5-35.083 15.666-71.875 27.166-106.958 42.916-33.542 11.875-66.375 25.667-100.084 37-29.125 8-57.208 18.834-86.416 26.584-23.459 6.75-45.5 15.625-70.042 17.916-8.625.417-14.083 7.167-19.542 13.084-.5 6.541 2.625 12.083 3.375 18.625-7.708-.084-10.291-5.625-16.375-9.209-5.458.584-9.666-.958-12.666-4.666-7.792.041-19.167-1.834-25.959 2.041-16.462 2.578-40.458 6.75-46.458 7.042-12.244.595-44.651 4.957-58.667 8.208 0 0-35.333 2.167-50.875 7.292-17.791 0-55.666 4.125-55.666 4.125-113.167 2.042-382 .042-400.5-6.667-15.709-.625-77.875-1.75-91.042-8.875-10.667-.916-23.625.959-33.25-4.083-10.417.083-20.75-1.5-31.125-1.25-18.201-5.895-44.923-2.944-60.833-11.458-9.25-1.25-47.959-1.792-49.917-8.375-22.757-.756-59.583-8.084-68.375-9.25-10.215-1.356-41.083-6.709-48.042-11.542-13.25.708-55.083-4.792-58.875-12.333-5.458-1.75-18.625 1.75-20.375-4.834-5.041-.041-10.083 0-15.166.209 2.5 6.416-2.125 10.25-5.667 14.791-1.75-9.083-1.417-16.958-9-23.458-58.917-6.25-117.375-22.292-174.875-36.25-42.417-9.917-84.333-23.208-126-36-33-10.083-63.375-24.792-94.833-38.75-13.292-5.833-24.709-14.417-38.459-19.417-21.208-7.541-40.041-22.625-57.583-36.416-8.625-6.959-13-9.125-23.958-7.5l.75-8.542c-32.042-22.167-58.5-45.083-87.334-71.208-18.083-16.959-32.375-36.75-50-54.125-52.333-64.667-94.416-132.084-130.125-207.542-12.291-21.458-20.75-41.542-31.833-64.25-2.75-8-10.292-14.875-9-23.417l-4.417-1.208c2-11.333-6.375-4.583-4.083-19.25-4.875-5.333-9.125-9.125-8.417-17-6.416-4.958-.833-12.792-8.25-13.75 2-8.625-4.958-10.958-4.291-19.708-3.125-3.25-4.542-7.292-4.292-12.125-4.417-5.667-3.417-10.667-4.042-17.334-3.416-3.166-4.75-7.125-3.958-11.833-7.625-1.625-1.542-14.583-6-19.583-4.292-5.625-.375-15-4.5-20.834-4.083-6.958.25-18.333-5.208-24.666-2.75-32.459-2-64.709-.5-97.167l3.208-2.458c-1.167-10.417 4.917-13.667 5.083-22.875 26.25-56.25 59.584-99.75 91.375-155.042 34.125-58.25 76.25-110.833 109.334-169.667 12.375-20.333 23.458-41.583 36.666-61.416-1.25-13.417-6.166-28.25-11.291-41-15.792-60.792-34.417-116.459-41-179.917-5.667-49.458-4.042-102.292 6.5-150.875 23.125-98.625 87.833-188.708 171-246.208 45.958-30 98.375-54.959 151.625-67.584 36.125-7.666 71.291-5.666 108-5-18.167-27.833-37.625-54.875-54.917-83.375-46.875-76.916-97.542-156.333-122.583-243.25-6.417-12.166-9.417-30.75-15.334-40.5 1.167-13-10.708-25.708-8.916-39.541-7.084-.5-2.875-15.167-4.792-20.709-4.833-4.958-3.458-10.25-3.75-16.583-8.708-1.333.792-17.125-7.875-18.542-1.75-5 2.833-20.125-4.375-20.708 1.875-12.042-6.375-15.583-4.083-27.708-7.834.708-2.959-15.584-4.75-20.417-7.125-3.25-.917-18.292-5.667-24-5.083-5.25 1.542-22.333-6.125-23.792-1.125-5.333 2.125-18.875-3.917-21.125-1.25-7.916 1.917-18.458-4.25-24.208-.416-6.542-.541-13.083-.708-19.625-8.375-8.583.458-28.833-7.542-35.333-1.416-11.584 1.959-27.042-4.083-37.209 0-21.166-2.167-42.583-1.667-63.708-.041-10.917 7.209-15.083 5.792-26.625 4.542-.083 8.833-1.5 12.875-4.25 4.375-1.5 17.25 2.833 16.25-4.625 3.667 0 7.333.042 11 .042 1.458-6.292 12.042-3.084 17.25-4.5 2.833-2.5 5.708-4.959 8.625-7.375 3.583-.5 7.167-.917 10.75-1.167 1.5-2.833 4.417-4.292 8.75-4.292 7.875-6.458 19-10.541 27.375-15.125 35.417-18.333 68.292-34.708 100.458-58.75l6-1c8.292-1.208 15.167-5.5 23.375-8.5Z" style="fill:#593619;fill-rule:nonzero"/>
  <path d="M2249.5 792.683c2.958-1.083 6.042-1.916 9.208-2.541 48.875 13.125 101.209 29.208 143.167 58.208-19.125 10.5-37.958-14.167-57.458-4.583-19.709 8.708-40.167 14.833-60.042 23.166-21.125 2.834-37.917 15.625-59.333 16.5-13.5 1-25.417 6.334-38.125 10.375-20.375 6.375-41.584 4.209-62 9.667-5.959 2.333-12.959-3.417-19.167-2.125-30.167 8.333-61.708 12.333-92.792 15.75-8.791 1.833-16.625 8.25-25 11.583-9.958 4.667-20.333 5.625-31.125 5.75-8.875-1.125-15.125 10.875-23.416 10.084-20.75-.75-41.334-1-61.959 1.958-26.208 4.25-49.416-3.25-75.625-1.5-19.625 2.042-38.25-3.583-57.916-1.708-11-3.25-19.625-4.792-31.084-4.917-11.375.042-11.25-12.917-15.333-20.667 15.333-23.875 38.5-43.375 60.708-60.666 23 4.75 45.75.375 68.709 4.166 15.333 2.25 30.416.042 45.75 1.042 23.875 1.708 47.875.5 71.541-3.25 9.292-1.375 18 2.125 27.125 1.583 10.834-3.75 17.542-17 27.875-21.708 31.834-7.375 64.209-3.917 95.834-12.708 21.833-2.292 42.833-5.875 63.958-11.584 13.542-6.708 27.833-7.916 42.25-12 14.958-4.125 30.792-.25 46.625-2.75 5.458-.333 5.208-3.25 7.625-7.125Z" style="fill:#1f1d1d;fill-rule:nonzero;stroke:#1f1d1d;stroke-width:2.92px"/>
  <path d="M2401.88 848.35a211.242 211.242 0 0 1 28.5 20.417c-17.375 9-35.708 16.375-53.917 23.541-30.125 6.667-58.458 20.542-88.416 28.584-14.542 3.25-27.334 10.5-42.167 12.5-16 2.083-29.542 10.541-45.833 11.416-11.625 1-21.667 6.5-33.5 5.792-9.334.167-15.584 6.333-24.917 2.917-10.792-3.542-20 .25-30.625 2.458-12.917 3.292-25.958 4.125-38.583 8.625-9.25 3.667-16.959-1.75-26.542.833-31.5 7.209-64.958 2.625-94.75 11.959-3.875 6.583-5.875 14.458-10.292 20.625-23.5-4.917-45.333-.209-68.625 2.666-12.916 1.625-24.791-1.25-37.541-2.666-12.084-1.042-22 4.791-33.917 1.041-17-3.083-34.917-.666-52.083-2.583-7.459-1.083-14.834-3.5-22.334-4.083-8.25.875-13.458 6.375-22.25 3.208-16.041-1.792-20.208-17.417-35.416-20-2.584 7.667-4.459 14.667-10.042 20.75.542-19.292 8.958-34.25 15.875-51.75 4.25-10.167 10.75-18 17-26.917 4.083 7.75 3.958 20.709 15.333 20.667 11.459.125 20.084 1.667 31.084 4.917 19.666-1.875 38.291 3.75 57.916 1.708 26.209-1.75 49.417 5.75 75.625 1.5 20.625-2.958 41.209-2.708 61.959-1.958 8.291.791 14.541-11.209 23.416-10.084 10.792-.125 21.167-1.083 31.125-5.75 8.375-3.333 16.209-9.75 25-11.583 31.084-3.417 62.625-7.417 92.792-15.75 6.208-1.292 13.208 4.458 19.167 2.125 20.416-5.458 41.625-3.292 62-9.667 12.708-4.041 24.625-9.375 38.125-10.375 21.416-.875 38.208-13.666 59.333-16.5 19.875-8.333 40.333-14.458 60.042-23.166 19.5-9.584 38.333 15.083 57.458 4.583Z" style="fill:#1f1d1d;fill-rule:nonzero;stroke:#1f1d1d;stroke-width:2.92px"/>
  <path d="M2430.38 868.767c9.292 7.25 18 15.5 25.583 24.541-27.791 16.792-59.541 27.292-89.666 39.125-18.084 7.667-34.584 16.042-53.917 20.375-14 2.375-24.292 11.542-38.792 11.875-17.25-.208-29.583 14.875-46.041 11.792-11.75-1.667-19.834 8.083-31.584 8.083-12.833-.125-24.625 3.417-36.666 7.5-15.417 5.042-24.459-10.208-38.709 1.292-6.083-1.542-9.333-5.375-15.541-1.792-9.625 5.084-19.125 4.834-29.584 5.5-21.5 5.125-45 10.459-67.166 8.459-16.042 1.75-29.25 6.833-45.75 3.291-10.667-.958-5.25 12.584-5.792 18.709-1.833 3-4.167 4.5-7 4.583-16.625 3.333-33.083-3-49.167 1.208-23.291 4.209-46.416-3.166-70 1.875-10.166 2.167-14.041-.458-22.791-5.041-5.042 1.458-10.292 6.208-15.5 5.583-13-2.25-24.584-7.417-38.084-7.167-20.541.75-40.625-3.041-61.125-2-5.791-.208-7.541-7.916-11.833-11.5-9.208-3.083-14.042-9.375-22.458-.5-.334-5.083-.584-10.208-.75-15.333l.583-2.875c5.583-6.083 7.458-13.083 10.042-20.75 15.208 2.583 19.375 18.208 35.416 20 8.792 3.167 14-2.333 22.25-3.208 7.5.583 14.875 3 22.334 4.083 17.166 1.917 35.083-.5 52.083 2.583 11.917 3.75 21.833-2.083 33.917-1.041 12.75 1.416 24.625 4.291 37.541 2.666 23.292-2.875 45.125-7.583 68.625-2.666 4.417-6.167 6.417-14.042 10.292-20.625 29.792-9.334 63.25-4.75 94.75-11.959 9.583-2.583 17.292 2.834 26.542-.833 12.625-4.5 25.666-5.333 38.583-8.625 10.625-2.208 19.833-6 30.625-2.458 9.333 3.416 15.583-2.75 24.917-2.917 11.833.708 21.875-4.792 33.5-5.792 16.291-.875 29.833-9.333 45.833-11.416 14.833-2 27.625-9.25 42.167-12.5 29.958-8.042 58.291-21.917 88.416-28.584 18.209-7.166 36.542-14.541 53.917-23.541Z" style="fill:#1f1d1d;fill-rule:nonzero;stroke:#1f1d1d;stroke-width:3.75px"/>
  <path d="M691.625 872.142c3.25 6.5-.458 13.708-1.125 20.875-3.625 23.041-2 45.708-1.917 68.833 2.084 38.125 15.792 72.542 34.625 105.292l-5.958 2.166c-10.25-16.291-19.167-35.458-25.292-53.666-9.083-33.167-16.5-65.042-12.541-99.75 2.25-15.875 1.375-30.875 12.208-43.75Z" style="fill:#786150;fill-rule:nonzero"/>
  <path d="M2730.5 895.267c-2.458 7.583-4.208 15.416-4.792 23.416-3.333 3.709-4 9-6.083 13.709-3.708 13.208-3.542 29.583-10.542 41.416-42.208 16.292-84.333 35.042-124.375 55.959-3.916 11.416-6.708 22.708-13.083 33.166-12.958 13.834-27.833 24.709-43.25 35.584-10.167 6.791-8.833 18.541-12.708 29.333-8.917 32.208-26.334 60.083-47.417 85.625-10.792 11.375-23.25 21.25-34.875 31.75-35.292 27.667-78.333 46.75-121.042 59.75l-6.333 2c-5.708 1.125-11.458 2.208-17.25 3.125-4.833-1.542-18.583-1.208-21.167-5.25 7.834-1.75 17.417-1.083 23.709-6.167-14.375-21.541-35.375-33.791-58.667-43.666-7.417-3.125-15.792-5.667-21.958-10.792 2.916-10.542 8.25-18.458 2.875-29.417-5.042-8.291-17.459-6.541-25.959-8.833 7.459-11.083 16.959-3.667 27.75-4.125 6.75-5.042 12.209-11.917 16.834-18.875-8.667-7.208-18.625-9.125-29-12.375-4.25-7.875-5-18.625-6.459-27.458 16.584 3.5 28 .125 42.959-6.75-3.792-6-6.834-10.875-6.542-18.334 4.458.375 8.958 1.084 13.458 1.209 2.292-11.417 18.459-9.084 26.959-6.875 7.833-6.875 13.916-13.917 24.833-15.75 11.125-4.292 27.375-.834 32.458-14.084 9.334-2.666 18.959-4.625 28.167-7.666 4.625-.834 4.833-4.167 7.125-7.542 14.75-1 22.542-5.917 34.833-13 15.5-5.208 27.042-15.625 43.792-16.75 12.833-6.917 23.083-17.625 37.208-22.833 21.5-8.084 39.792-21.125 60-31.875 5.834-5.584 8.625-13.292 15.292-18.417 38.917-20.625 82-34.625 123-50.667 17.125-5.416 32.917-13.666 50.25-18.541Z" style="fill:#1f1d1d;fill-rule:nonzero;stroke:#1f1d1d;stroke-width:3.96px"/>
  <path d="M2488.92 939.517c3.208 4.25 6.166 8.333 10.916 11 9.084.708 20.584-.959 28.875 3.291 10.625 4.125 16.542 12.292 28.542 10.667-6.667 5.125-9.458 12.833-15.292 18.417-20.208 10.75-38.5 23.791-60 31.875-14.125 5.208-24.375 15.916-37.208 22.833-16.75 1.125-28.292 11.542-43.792 16.75-12.291 7.083-20.083 12-34.833 13-2.292 3.375-2.5 6.708-7.125 7.542-9.208 3.041-18.833 5-28.167 7.666-16.083 0-30.125 5.375-45.041 10.542-24.417 6.167-48.209 13.75-72.667 19.792-21.125 7.958-43.167 2.208-63.333 11.291-4.5 2.334-10.375-1.083-15.25-1.166-16.209 5.291-35.084 4-51.542 8.875-3.167 1.875-10.542 3.833-11 7.791 9 5.334 20.125 7.542 28.417 13.75-30 38.375-78.667 63.792-125.5 74.75-24.084 6.459-47.042 3.709-71.375 1.584-19.834-1.167-37.75-9.584-57.75-10.25-8.959.166-8.459-11.125-16.542-14.209-3.042 1.75-6.125 3.417-9.208 5-38.625-14.041-73.625-41.875-98.834-74.25-4.708-7.666-12.291-5.833-20-5.458.167 3.667.375 7.375.667 11.042-7.875-4.792-14.5-10.917-21.583-16.75l-2.292 8.208c-2.625-3.958-5.333-7.958-8.333-11.667-15.084.25-23.834 1-34.75-10.958-1.542-9.792-4.875-18.042-1.125-27.792 3.375-10.291 5.25-19.5 4.833-30.458 3.917 4.375 7.667 9.125 12.125 12.958 11.083.292 23.542-3.25 34.417-.916 6.166 5.583 11.25 15.375 19.375 17.75 11.041 4.333 21.541 3.125 32.958 3.125 10.083-.292 19.25 4.75 29.583 4.458 11.334.125 21.709-1.417 32.959 1.125 10.75 2.292 20.75 4.708 31.791 2.75 16.167-2.667 31.042 4.708 47.375 1.333 23.667-3.75 47.125-.166 70.75-3.416 14.5-2.5 27.875.708 42.209 1.708-2.042-5.917-4.5-11.708-6.417-17.625 2.25-3.125 4.917-5.375 8-6.833 23.75-6.792 44.458 4.875 67.083-5 12.334-6 22.125-3.084 35-1.584 21.667-14.666 53.625-9.125 79-11.416 20.209 1.166 38.417-3.834 57.25-10.584 30.625-6.083 57.584-20.708 88.792-24.416 18.292-2.084 33.75-13.292 50.542-19.542 11.5-3.958 25.375-4.125 35.083-11.292 16.375-10.291 33-21.666 51.125-28.666 11.083-4.459 20.958-10.709 31.292-16.625Z" style="fill:#1f1d1d;fill-rule:nonzero;stroke:#1f1d1d;stroke-width:3.54px"/>
  <path d="M2709.08 973.808c-3.583 5.125-8.291 9.25-12 14.25-1.125 12.084 6.75 25.334 10.5 36.709 14.709 41.208 29.542 80.333 54.5 116.708 12 17.583 21.25 36.125 34.375 52.958 24.334 30.959 51.209 59.917 80.167 86.584 5.833 5.541 12.042 11.333 16.125 18.291 1.083 7.334-1.167 15.334-2.708 22.542-10.334 44.208-37.792 83.875-58.209 125.958-14.25 30.667-33.291 57.917-50.916 86.584-46.834 71-107.375 123.875-171.417 178.5-38.958 32-79.25 62.25-118.083 94.416-6.834 5.5-13.667 11.792-21.459 15.792-6.833 1.5-14.458-.167-21.375-.708-21.916-2.834-43.958-3.459-65.916-5.542 13.166-32.75 30.166-63.667 41.583-97.25 16.542-46.792 27.167-99.917 21.25-149.5-5.5-26.083-16.792-51.375-28.542-75.167-7.125-14.958-18.458-25.75-29.333-37.875l.667-2.708c10.916-8.875 25.25-13.333 36.875-21.417 17.416-11.708 37.375-25.041 49.041-42.791 16.959-25 32.959-50.792 47.667-77.167 35.083-70.75 51.5-151.75 53.25-230.333.292-6.709-.708-13.542-3.5-19.709 6.375-10.458 9.167-21.75 13.083-33.166 40.042-20.917 82.167-39.667 124.375-55.959Z" style="fill:#654233;fill-rule:nonzero"/>
  <path d="M2330.83 1082.56c-5.083 13.25-21.333 9.792-32.458 14.084-10.917 1.833-17 8.875-24.833 15.75-8.5-2.209-24.667-4.542-26.959 6.875-4.5-.125-9-.834-13.458-1.209-.292 7.459 2.75 12.334 6.542 18.334-14.959 6.875-26.375 10.25-42.959 6.75 1.459 8.833 2.209 19.583 6.459 27.458 10.375 3.25 20.333 5.167 29 12.375-4.625 6.958-10.084 13.833-16.834 18.875-10.791.458-20.291-6.958-27.75 4.125 8.5 2.292 20.917.542 25.959 8.833 5.375 10.959.041 18.875-2.875 29.417 6.166 5.125 14.541 7.667 21.958 10.792 23.292 9.875 44.292 22.125 58.667 43.666-6.292 5.084-15.875 4.417-23.709 6.167 2.584 4.042 16.334 3.708 21.167 5.25-39 9.708-78.375 14-117.958 20.292-95.625 11.416-197.667 7.833-287.042-31.417-24.375-9.292-45.417-24-68.75-35.417-39.75-20.458-76.333-43.416-104.667-78.75-14.166-15.416-22.375-33.625-32.333-51.708l2.292-8.208c7.083 5.833 13.708 11.958 21.583 16.75-.292-3.667-.5-7.375-.667-11.042 7.709-.375 15.292-2.208 20 5.458 25.209 32.375 60.209 60.209 98.834 74.25 3.083-1.583 6.166-3.25 9.208-5 8.083 3.084 7.583 14.375 16.542 14.209 20 .666 37.916 9.083 57.75 10.25 24.333 2.125 47.291 4.875 71.375-1.584 46.833-10.958 95.5-36.375 125.5-74.75-8.292-6.208-19.417-8.416-28.417-13.75.458-3.958 7.833-5.916 11-7.791 16.458-4.875 35.333-3.584 51.542-8.875 4.875.083 10.75 3.5 15.25 1.166 20.166-9.083 42.208-3.333 63.333-11.291 24.458-6.042 48.25-13.625 72.667-19.792 14.916-5.167 28.958-10.542 45.041-10.542Z" style="fill:#1f1d1d;fill-rule:nonzero;stroke:#1f1d1d;stroke-width:3.75px"/>
  <path d="M1634.92 1110.48c10.916 11.958 19.666 11.208 34.75 10.958 3 3.709 5.708 7.709 8.333 11.667 9.958 18.083 18.167 36.292 32.333 51.708 28.334 35.334 64.917 58.292 104.667 78.75 23.333 11.417 44.375 26.125 68.75 35.417 89.375 39.25 191.417 42.833 287.042 31.417 39.583-6.292 78.958-10.584 117.958-20.292 5.792-.917 11.542-2 17.25-3.125-5.542 11.708-24.792 11.875-35.917 14.958-42.416 6.417-84.583 15.584-127.291 19.334-82.667 8.791-166.167 1.083-244.292-28-27.792-11.667-54.458-24.959-80.333-40.417-31.834-15.5-61.625-34.333-88.459-57.5-13.166-12.958-25.708-27.708-36.708-42.583-10-13.292-14.583-29.25-23.708-42.875-11.084-5.209-27.75-.292-35.375-13.209l1-6.208Z" style="fill:#7b6356;fill-rule:nonzero"/>
  <path d="M785.625 1143.02c19.667 16.708 40.583 32.416 63 45.208 42.625 20.5 84.25 39.917 129.833 53.167 49.125 17.875 100.792 30.583 152.834 35.833 70.791 11.083 139.833-1.125 206.333-26-1.5 3.583-3.5 6.5-6.042 8.75-59.291 26.958-121.166 31.042-185.375 29.208-60.208-8.375-119.5-20.916-176.458-42.583-45.583-14.708-89.333-33.583-131.542-56.208-15.333-9.334-29.625-20.5-43.916-31.292-5.084-5.25-12.625-7.583-8.667-16.083Z" style="fill:#756051;fill-rule:nonzero"/>
  <path d="M1600.12 1231.23c29.917 5.917 60.167 14 87.833 27.125 23.584 13.208 47.125 25.25 66.834 44.167 24.791 18.041 39.5 43.875 65.625 59.833 22 13.542 41.375 30.375 60.083 48.167 18.417 18.75 35.917 38.583 43.5 64.375 5.542 16.416 2.667 36.416 1.125 53.458-24.333 19.5-49.167 36.792-79.25 46.208-30.958 9.5-63.542 14.917-95.875 16.042-21.5 3.708-41.25-.542-62.625-1.542-41.792-3.416-80.042-17.625-117.958-34.666-.667-6.25-1.209-11.75-4.209-17.417-.416-15.708-1.791-31.417-1.458-47.083 4.25-7.667 14.583-3.084 21.583-6.084 32.25-11.75 59.75-37.75 76.292-67.583 9.958-16.042 11.208-32.792 11.958-51.125 5.709-5.458-1.166-10.917-.666-17.083-11.834-13.917-26.959-27.375-44.417-33.625-41.417-1.584-83.083-1.625-124.5-.042-16.833 3.542-32 8.083-47.167 16.667-7.333 6.625-14.541 13.541-20.791 21.25-2.75 4.625-2.125 10.208 1.375 14.291 4.583 5.417.916 14.5 4.708 20.584 5.625 9.875 9.75 20.166 14.833 30.25 14.542 17.125 30.709 32.875 46.875 48.458 9.709 9.458 21.625 12.375 32.5 19.542-1.083 18.791.542 37.625-.625 56.416-7.291 11.709-23.25 18.417-34.625 25.834-27.166 11.166-59.541 12.541-88.625 13.916-40.833 1.625-81-3.041-120.958-10.916-29.042-5.5-56.208-25.167-80.208-41.709 2.166-13.041 3.5-25.375 10.541-36.916 17.709-29.875 43.625-46.834 67.667-69.875 18.917-30.459 36.958-68.292 64.667-93.667 19.291-19.875 40.166-37.917 63-53.583 22.833-16.625 52.041-26.459 78.666-35.25 34.125-10.709 68.917-10.834 104.292-8.417Z" style="fill:#b78657;fill-rule:nonzero"/>
  <path d="M901.5 1284.85c30.583-7.625 63.042.708 90.958 13.833 30 14.375 53.834 37.625 72.334 64.959 21.875 33.666 27.916 76.458 13.875 114.333-17.459 42.083-62.834 67.792-107.917 62.792-49.208-5.625-95.5-30.25-124.708-70.709-30.959-38.833-38.5-93.708-12.5-137.208 14.875-24.25 40.166-41.875 67.958-48ZM2306 1306.98l6.333-2c4.959 2.208 5.875 4.583 7.959 9.167 10.541 4.416 21.458 6.25 30.958 13.083 40.917 26.125 56.042 83.708 32.542 126.458-38.75 71.209-125.084 112.667-204.709 106.792-31.208-2.167-55-17.833-79.5-35.667-16-12.125-27.333-30.166-30.291-50.125-5.084-29.25 5.5-60.125 21.875-84.208 14.125-20.542 33.208-33.167 51.625-49.208 42.708-3.75 84.875-12.917 127.291-19.334 11.125-3.083 30.375-3.25 35.917-14.958Z" style="fill:#8f5a4d;fill-rule:nonzero"/>
  <path d="M1504 1314.35c41.417-1.583 83.083-1.542 124.5.042 17.458 6.25 32.583 19.708 44.417 33.625-.5 6.166 6.375 11.625.666 17.083-.75 18.333-2 35.083-11.958 51.125-16.542 29.833-44.042 55.833-76.292 67.583-7 3-17.333-1.583-21.583 6.084-.333 15.666 1.042 31.375 1.458 47.083 3 5.667 3.542 11.167 4.209 17.417 37.916 17.041 76.166 31.25 117.958 34.666 21.375 1 41.125 5.25 62.625 1.542 32.333-1.125 64.917-6.542 95.875-16.042 30.083-9.416 54.917-26.708 79.25-46.208 17.458-12.333 20.458-34.25 41.583-39.458 6.542 2.208 15.459 6.166 15.125 14.375 1.792 12.5-9.083 23.416-16.041 32.708-7.917 11.708-20.042 10.917-30.667 19.125-20.708 15.208-40.667 29.917-64.958 39.167-32.375 13.25-64.625 16.75-98.292 23.333-15.417 4.125-31.125 6.75-46.667 10.333-16.541 14.834-27.708 37.875-40.625 56-17.583 25-33.708 53.167-55.333 74.792-41.333 1.708-83.583-2.75-125.25-4.167-15.333.792-18.25-15.125-25.75-25.25-20-30.958-30.25-66.125-47.917-98.041-22.208-4.375-44.625-6-66.375-12.875-22.166-7.334-45.375-9.084-67.708-15.709-48.542-16.333-94.083-25-138.667-52.583-11.291-7.667-21.791-17.208-30.166-28-3.667-4.792-6.709-13-2.459-18.25 5.917-12 22.834-5.292 33.625-5.75 19.042 5.333 35.25 21.375 52.709 30.833 24 16.542 51.166 36.209 80.208 41.709 39.958 7.875 80.125 12.541 120.958 10.916 29.084-1.375 61.459-2.75 88.625-13.916 11.375-7.417 27.334-14.125 34.625-25.834 1.167-18.791-.458-37.625.625-56.416-10.875-7.167-22.791-10.084-32.5-19.542-16.166-15.583-32.333-31.333-46.875-48.458-5.083-10.084-9.208-20.375-14.833-30.25-3.792-6.084-.125-15.167-4.708-20.584-3.5-4.083-4.125-9.666-1.375-14.291 6.25-7.709 13.458-14.625 20.791-21.25 15.167-8.584 30.334-13.125 47.167-16.667Z" style="fill:#28180c;fill-rule:nonzero"/>
  <path d="M2820.71 1521.48c.542 2.75 1.042 5.542 1.5 8.292 13.709 2.208 17.356.683 30.917.083 19.792-.875 98.5 8.458 105.833 9.792 7.588 1.379 12 2.458 17.167 3.916 8.38 2.366 79.542 30.74 84.083 33.125 8.281 4.35 36.173 15.759 43.792 22.625 19 17.125 35.5 36.709 54.167 54.209 10.045 9.417 14.5 18.458 23.041 27.791 8.859 9.681 36.167 61.834 45.459 69.917.541 9.083 14.083 22.542 13.208 32.792 4.292-.25 17.458 46.25 24.417 51.5 3.455 10.34 9.583 24.166 8.666 31.833 7.438 15.863 30.209 82.042 29.417 95.417 3.5 5.083 16.667 57.583 16.75 62.416 4.464 8.923 7.354 19.426 7.458 31.167.5 56.333-3.041 174.958-3.041 174.958 0 24.417-1.334 48.792-1.25 73.209.06 17.632-.792 36.875-5.5 53.083-3.179 10.943-5.877 54.765-11 67.792-4.834 6.458-26.667 117.291-32.334 118.916-.083 12.417-8.083 23.667-9.166 35.75-1.085 12.098-12.259 41.743-20.25 59.834-5.894 13.342-15.625 48.208-20.792 62.5.208 4.375-25.792 64.583-25.458 69.208-3.25 3.583-24.75 54.875-28.667 63.708.042 4.792-16.292 34.25-17.708 40.625-7.125 11.292-10.667 23.5-19.5 33.875-1.792 10.459-12.834 17.709-13.75 28.125-14.834 23.167-34.125 56.375-50.917 78.334-26.958 42.875-43.75 62.416-73.75 101.541-5.708 6.625-13.333 13.042-17.125 20.917-7.792 9.417-16.292 16.708-22.708 27.083-12.459 13.75-25.459 27.042-37.459 41.209-14 11.666-27.5 24.958-40.791 37.625-6.625-9.542 1.125-14.625 5.083-23.125 21.625-35.084 32.583-73.709 39.083-114.125 5.625-34.959 10.209-72.459 4.334-107.584 0-5.916.333-11.875.875-17.833 11.666 7.458 20.416 19 30.083 29.125 13.5 14.292 26.833 28.833 40.708 42.75 2.125 2.208 4.542 3.083 7.209 2.542 6.291-8.125 19.166-21.459 18.625-31.75-15.667-19.084-35.667-34.917-50.667-54.542 26.667.833 52.833 13.208 79.083 17.5 8.834-9.75 16.834-21.625 21.917-33.75-2.875-4.792-11.25-4.875-16.25-6.458-39.542-7.334-77.417-20.167-117.625-24.542-13.792-1.583-20.5-5.167-30.25-14.75-5.708-18.042-10.25-36.417-16.292-54.375-5.916-18.083-13.208-35.458-17.75-54-2.416-10.25-7.166-19.292-12.083-28.5-14.583-27.708-27.042-56.333-40.625-84.542-2.25-5.208-5.333-10.791-5.667-16.458 3.584-9 8.375-17.625 12.917-26.167 26.083-47.875 50.5-96.75 76.292-144.791 34.083-9.292 67.125-22 101.25-31.25 7.166-1.542 13.75-2.959 20.375 1.125 32.291 19.041 60.541 42.25 91.583 62.583 26.042 18.458 53 35.458 78.375 54.792 8.292 5.583 17.417 14.041 27.458 15.791 5.209-12.583 9.75-26.166 12.25-39.583-5.416-6.542-13.791-11.125-20.791-15.792-21.25-13.291-40.75-29.041-62.25-42-22.417-13.458-42.334-30.333-65-43.416-3.25-2.792-12.834-6.792-11.75-11.75l2-1.5c61.166-17.084 122.5-32 184.625-45.375 5.416-1.584 13.541-2.125 15-8.875 3.291-13.375 8.458-30 5-43.542-18.542 2.25-36.709 9.042-54.875 13.333-65.292 15.625-129.959 33.167-194.334 52.042-10.25 3.542-16.875-3.167-25.166-7.958-16.417-11.584-34.167-21.292-50.375-33.084-4.834-3.25-7.042-7.625-9.25-12.833 14-61.583 14.75-125.833 2.083-187.708-11.917-61.875-37.75-120.292-80.208-167.334 24.125-32.125 53.083-60.708 79.375-91.125 4.833-4.625 10-12.958 16.875-14 16 5.417 30.75 14.875 45.791 22.5 90.042 49.292 178.292 101.917 266.584 154.292 4.416 1.833 11.541 7.875 15.833 3.792.667-15-.625-30.584-4.542-45.167-.916-6-7.958-8.542-12.5-11.542-57.416-31.041-112.833-65.541-170.416-96.25-22.75-11.875-44.042-26.041-67.292-36.916-14.458-7.417-30.25-13.792-43.375-23.417 3.5-7.458 10.333-13.583 16.042-19.5 44.375-44.542 88.208-89.5 134-132.625 3.666-3.875 8.833-8.167 10.416-13.417-6.875-10.958-16.166-25.25-28-30.958-7.583 2.292-13.333 10.75-19.125 15.958-46.75 46.417-93.333 92.792-137.5 141.667-5.541 5.5-11 13.292-18.291 16.417-15.5-3.875-30.625-12.084-44.875-19.167-80.25-36.833-161.5-67.667-247-90-9.25-3.375-20.209-1.5-23.125-13.042 20.5-19.375 42.375-37.041 61.541-57.625 14.125-15.041 28.417-29.916 42.459-45 22.208-23.333 40.375-52.083 59.25-78.416 3.125-5.167 7.25-6.959 12.625-9.25 2.041-3.959 2.583-9.375 5.541-12.667Z" style="fill:#221811;fill-rule:nonzero"/>
  <path d="M1560.08 1588.06c8.167-2.416 6.584 7.667 8.25 12.959.625 20.541 3.125 46.041-5.916 65-2 1.166-4.042 2.166-6.167 3-1.625-26.875 2.5-54.084 3.833-80.959Z" style="fill:#0f0200;fill-rule:nonzero"/>
  <path d="M1536.92 1589.02c4.958-1.375 10.166-1.834 15.583-1.375 1.833 11.958-5.917 19.166-3.958 31.166-22.417 9.209-46.167 12.125-69.292 18.834-3.458-3.959-2-10.875-3.083-15.875-5.459-1.167-11.084-2.167-16.792-2.959 7.583-6.833 16.667-2.875 24.625-8.458 10.375-.083 18.042-7.542 28.292-9.417 8.375-3.333 16.541-7.833 24.625-11.916Z" style="fill:#c2c2c3;fill-rule:nonzero"/>
  <path d="M1580.42 1591.81c9.583 0 12.25 2.792 18.416 8.917 14.042.583 29.459 12.542 41.167 21.042 10.042 3.25 18.5 13 29.042 13.5 2.208 9.291-.334 12.875-7.25 18.208-3.125 10.833-10.959 18.375-15.5 28.208-8.667 8.75-12.334 25.584-22.834 32.792l-3.666-8.75c-8.209 4.292-13.875 10.333-23.834 9.75-13.333-.042-24.958 2.667-37.625 6.375-11.083.5-22.125-3.625-33.375-3.833-6.208-.167-8.291-1.709-11.875-6.667-9.5-14.333-13.916-30.958-24.416-44.875-.917 6.333-1.917 12.667-2.917 18.958-12.292.959-4.792-14.875-12.5-19.708 2.417-13.333-9.792-14.458-8.625-26.708-6.083-6.084-5.25-12-5.25-20.209 5.708.792 11.333 1.792 16.792 2.959 1.083 5-.375 11.916 3.083 15.875 23.125-6.709 46.875-9.625 69.292-18.834-.292 16.042.125 32.042-.125 48.084 3.416 1.791 4.833 6.208 4.208 13.333 2.583-.042 5.167-.125 7.75-.208 4-4.167 9.542-10.417 8.25-16.542l4.375-.208c1.583 4.416 3 8.916 4.208 13.541l4.209-.083c4.666-11.208 7.625-23.167 11.125-34.792 1.333-4.833 2.333-8.541-1.084-12.833a166.482 166.482 0 0 0-11-5.25c.292-10.667-.375-21.375-.041-32.042Z" style="fill:#e2e0e0;fill-rule:nonzero"/>
  <path d="M1614.04 1618.68c12.25 9.084 26 15.292 38.708 23.5 1.667 9.625-11 23.792-18.833 28.417.541-7.875 2.958-16.167 1.958-23.958-11.292-8.125-25.458-12-37.333-17.292-4.084-3.583-6.917-8.958-9.459-13.667 7.667-13.083 16.25-1.416 24.959 3Z" style="fill:#b8b7b7;fill-rule:nonzero"/>
  <path d="M1541.33 1624.23c1.667 18 2 36.458-.25 54.458-9.125-2.458-7.666-13.666-9.041-21.041.75-13.292-7.417-27.75 9.291-33.417Z" style="fill:#f6f5f7;fill-rule:nonzero"/>
  <path d="M1580.46 1623.85a166.482 166.482 0 0 1 11 5.25c3.417 4.292 2.417 8 1.084 12.833-3.5 11.625-6.459 23.584-11.125 34.792l-4.209.083c-1.208-4.625-2.625-9.125-4.208-13.541 0-4.834-2.792-11.625 2.875-14.042.417-6.333 1.792-12.375 1.083-18.708l3.5-1.417v-5.25Z" style="fill:#fefdfe;fill-rule:nonzero"/>
  <path d="M1488.67 1666.48c10.5 13.917 14.916 30.542 24.416 44.875 3.584 4.958 5.667 6.5 11.875 6.667 11.25.208 22.292 4.333 33.375 3.833 12.667-3.708 24.292-6.417 37.625-6.375 9.959.583 15.625-5.458 23.834-9.75l3.666 8.75c.167 5.083-1.375 7.75-4.666 7.917l-.709 4.166-4.5.709c-4.458 9.041-16.375-2.542-16.25 7.125-28.791-.375-57.625 1.083-86.375.166-4.458-4.5-8.416-6.291-8.916-13.208-5.25-4.667-8.792-6.625-8.25-14.5l-4.084-2.667c.042-3.625-.041-7.291-.291-10.958l-4.75-.708 1.083-7.084c1-6.291 2-12.625 2.917-18.958Z" style="fill:#f6f5f5;fill-rule:nonzero"/>
  <path d="M3129.21 1672.6c11.834 5.708 21.125 20 28 30.958-1.583 5.25-6.75 9.542-10.416 13.417-45.792 43.125-89.625 88.083-134 132.625-5.709 5.917-12.542 12.042-16.042 19.5 13.125 9.625 28.917 16 43.375 23.417 23.25 10.875 44.542 25.041 67.292 36.916 57.583 30.709 113 65.209 170.416 96.25 4.542 3 11.584 5.542 12.5 11.542 3.917 14.583 5.209 30.167 4.542 45.167-4.292 4.083-11.417-1.959-15.833-3.792-88.292-52.375-176.542-105-266.584-154.292-15.041-7.625-29.791-17.083-45.791-22.5-6.875 1.042-12.042 9.375-16.875 14-26.292 30.417-55.25 59-79.375 91.125-9.917-11.125-20.667-21.166-32-30.833 4.875-2.333 9.5-4.375 12.916-8.708 19.625-22.334 37.584-45.875 57.834-67.25 5.708-6.334 11.958-12.375 14.916-20.584-34.333-17.583-68.875-35.5-105-49.208-29-11.625-57.25-24.208-87.083-33.75-36.042-11.542-73.667-26.292-111.208-31.625-7.167 5.292-11.125 15.292-15.75 22.75-9.459 17.917-21.334 34.958-29.125 53.625.791 2.417 1.583 4.792 2.416 7.125-13.416-3.75-26.75-7.333-40.416-9.958 7.75-8.417 19.291-20.792 17.458-33.125 27.167-27.709 55.292-54.667 83.917-80.959 2.916 11.542 13.875 9.667 23.125 13.042 85.5 22.333 166.75 53.167 247 90 14.25 7.083 29.375 15.292 44.875 19.167 7.291-3.125 12.75-10.917 18.291-16.417 44.167-48.875 90.75-95.25 137.5-141.667 5.792-5.208 11.542-13.666 19.125-15.958Z" style="fill:#3e2d1e;fill-rule:nonzero"/>
  <path d="M679.042 1733.93c-.417 14.459-8.5 29.25-15.084 41.875-23.541 41.542-47.458 82.834-71.625 124.042-39.5 70.208-79.25 140.167-119.083 210.208-42.875 72-91.083 140.417-133.583 212.667-2.375-.583-3.834-1.833-4.25-3.75-26.959-88.75-49.167-175.958-34.5-269.458 10.083-73.875 48.25-138.75 98.166-192.792 26.125-27.708 55.625-51.042 89.209-69.083 28.625-15.667 58.916-30.209 90.166-39.667 32.042-9.958 67.167-12.833 100.584-14.042Z" style="fill:#6d4935;fill-rule:nonzero"/>
  <path d="M2620.79 1764.98c37.541 5.333 75.166 20.083 111.208 31.625 29.833 9.542 58.083 22.125 87.083 33.75 36.125 13.708 70.667 31.625 105 49.208-2.958 8.209-9.208 14.25-14.916 20.584-20.25 21.375-38.209 44.916-57.834 67.25-3.416 4.333-8.041 6.375-12.916 8.708-50.542-45.458-111.375-74.833-174.042-99.667-28.042-10.666-56.833-21.125-86.042-27.958-.833-2.333-1.625-4.708-2.416-7.125 7.791-18.667 19.666-35.708 29.125-53.625 4.625-7.458 8.583-17.458 15.75-22.75Z" style="fill:#221811;fill-rule:nonzero"/>
  <path d="M2555.38 1805.39c1.833 12.333-9.708 24.708-17.458 33.125-6-.625-10.792-2.584-14.292-5.875 9.75-9.834 21.25-18.125 31.75-27.25Z" style="fill:#291c13;fill-rule:nonzero"/>
  <path d="M1977.25 2175.22c20.75 51.125 49.542 98.667 84.875 141.042 23.208 25.625 51.667 46.041 78.458 67.458 28.959 22.292 59 45.042 90.375 63.792 6.959 4.125 13.667 8.416 19.459 14.166-6.5-1.583-12.5-3.791-18.459-6.75-53.666-28-105.916-57.875-149.291-100.791-10.417-10.292-23-13.417-36.417-18-44-13.875-88.208-27.875-132.958-39.167-12.917-3.5-27.209-4.917-38.084-12.792 20.334-2.125 34.167 8.167 53.917 12.459 32.708 7.75 66.375 12.708 100 13.958l2.042-3.167c-6.209-21.416-18.959-41-28-61.375-8.917-19.875-20.875-38.333-29.417-58.333-2.208-6.375-1.333-8.25 3.5-12.5Z" style="fill:#593619;fill-rule:nonzero"/>
  <path d="M3282.54 2350.47c3.458 13.542-1.709 30.167-5 43.542-1.459 6.75-9.584 7.291-15 8.875-62.125 13.375-123.459 28.291-184.625 45.375l-2 1.5c-1.084 4.958 8.5 8.958 11.75 11.75 22.666 13.083 42.583 29.958 65 43.416 21.5 12.959 41 28.709 62.25 42 7 4.667 15.375 9.25 20.791 15.792-2.5 13.417-7.041 27-12.25 39.583-10.041-1.75-19.166-10.208-27.458-15.791-25.375-19.334-52.333-36.334-78.375-54.792-31.042-20.333-59.292-43.542-91.583-62.583-6.625-4.084-13.209-2.667-20.375-1.125-34.125 9.25-67.167 21.958-101.25 31.25 7.375-16.375 13.166-33.417 20.166-49.959 15.792-3.833 34-7.208 47.542-16.541-9.958-10.25-21.917-16.625-34.667-22.709 4.5-15.875 8-31.875 11.084-48.083 2.208 5.208 4.416 9.583 9.25 12.833 16.208 11.792 33.958 21.5 50.375 33.084 8.291 4.791 14.916 11.5 25.166 7.958 64.375-18.875 129.042-36.417 194.334-52.042 18.166-4.291 36.333-11.083 54.875-13.333Z" style="fill:#3e2d1e;fill-rule:nonzero"/>
  <path d="M2937.46 2410.06c12.75 6.084 24.709 12.459 34.667 22.709-13.542 9.333-31.75 12.708-47.542 16.541 4.75-12.958 9.042-26 12.875-39.25Z" style="fill:#1e160f;fill-rule:nonzero"/>
  <path d="M2515.79 2612.85c25.708 11.833 51.25 22.792 78.916 29.375 40.5 9.75 81.167 18.708 121.667 28.5 12.958 3.833 29.458 9.042 35.833 22.083 8.834 16.209 18.25 31.25 28.959 46.292 57.583 84.792 99.791 181.875 106.041 285.208 5.042 71.375-20.041 140.917-57.291 200.75-25 44.292-49.459 86.875-82.334 126.042-29.291 33.375-62.5 66.958-98.75 92.75-22.458 11.792-40.041 29.458-61.208 43.167-37.125 24.833-75.708 50.041-117.125 66.958 23.125-27.833 51.542-52.25 74.25-80.75 20.542-24.333 39.333-50 56.542-76.75 16.583-25.167 22.625-53.542 33.791-83.042 14.167-37.916 16.917-75.708 21.25-115.541 3.834-37.042 8.084-73.75 7.25-111.084-.875-44.125-.666-86.708-13.625-129.125-23.166-82.375-52.583-163.583-87.625-241.666-10.291-23.875-20.708-47.625-34-70.042-6.166-10.333-9.416-21.625-12.541-33.125Z" style="fill:#654233;fill-rule:nonzero"/>
  <path d="M1329.17 2759.43c80.375-3.708 163.333 21.667 232.875 61.084 38.583 23.791 75.541 41.541 109 70.333 16.083 14.167 34.25 27.125 49.583 42 22.375 22.458 45.875 42.792 65.5 67.917 21.042 26.083 44.875 50.75 62.5 79.25 17.167 23.458 33.583 47.875 48.042 73.125 11.791 19.833 24.166 38.416 32.083 60.291 15.458 33.917 27.875 69.042 38.333 104.75 5.292 24.167 9.25 48.625 14.917 72.709 5.708 20.666 1.042 41.125 5.125 62.416 3.708 16.542.792 32.959 3 50.209 6.5 32.291.042 66.625 6.042 99.166 3.583 23.042-1.542 42.375-3.542 65.417-4.25 16.167-9.917 34.5-21.375 47.042-40.375 7.5-80.75 7-121.625 11.75-33.208 5.041-66.25 2.625-99.625 5.166-17.75 2.625-36.208 1.584-54.167 1.875-47.208.875-94.5.209-141.708-.291-29.875-4.5-60.708-2-90.875-4.084-14.792-4.916-29.458-1.791-44.458-4.333-17.292-4.833-36.417-1.792-54.042-4.583-11.583-3.875-22.917-2.042-34.75-3.542-15.25-4.292-31.083-2.708-46.5-6.792-17.25-.125-33.167-4.625-50.208-5.625-98.459-16.375-198.792-32.25-295.792-56.666-60.75-13.667-119.875-23.417-180.208-41.167-37.417-8.042-71.75-22.5-108.375-32.458-1.5-5.25-4.875-11.25-3.542-16.709 3.458-23.083 0-47.708 4.625-71.041 4.833-29.334 8.292-59.584 16.583-88.167 8.959-28.042 16.834-56.25 28.167-83.5 15.667-38.583 24.292-77.5 43.75-114.708 11.792-21.959 20.458-44.667 34.583-65.292 13.834-21.083 25.292-43.542 40.875-63.208 13.042-18.542 25.792-38.167 40.5-55.5 12.584-13.75 25.834-26.667 37.209-41.542 21.458-27.5 48.208-45.5 72.75-69.292 11.875-10.833 26.083-18.458 38.875-28.375 24.083-18.875 50.083-34.208 77.208-48.208 24.583-15.25 51-25.75 77.333-37.417 54.292-21.25 113.125-32.416 171.334-32Z" style="fill:#b2875c;fill-rule:nonzero"/>
  <path d="M2907.62 2908.1c9.75 9.583 16.458 13.167 30.25 14.75 40.208 4.375 78.083 17.208 117.625 24.542 5 1.583 13.375 1.666 16.25 6.458-5.083 12.125-13.083 24-21.917 33.75-26.25-4.292-52.416-16.667-79.083-17.5 15 19.625 35 35.458 50.667 54.542.541 10.291-12.334 23.625-18.625 31.75-2.667.541-5.084-.334-7.209-2.542-13.875-13.917-27.208-28.458-40.708-42.75-9.667-10.125-18.417-21.667-30.083-29.125-.542 5.958-.875 11.917-.875 17.833-4.125-30.875-8.709-61.458-16.292-91.708Z" style="fill:#3e2c1e;fill-rule:nonzero"/>
  <path d="M446.125 3509.39c1.25 10.583-11.917 18.875-18.125 26.208-36.583 39.25-81.125 72.958-123.917 105.208-30.625 24.792-64.458 51.292-87.125 83.834-19.083 29.875-38.25 67.5-36.333 103.833-.042 21.75-.5 42.583 6.417 63.5 21.291 60.958 64.041 112.875 116.958 149.25 19.5 12.917 40 24.417 60.792 35.167 40.25 21.208 85.75 33.375 131.041 36.333 27.792-1.208 58.209-4.875 83.334-17.5 37.75-15.208 69.5-48.792 97.583-77.5 38.208-48.042 73.333-98.625 111.625-146.542 39.25-53.791 78.292-107.958 118.667-160.708 6.5-8.125 10.625-17.333 15.208-26.5 2.75-6.708 9.625-6.083 15.625-7.75 7.583 6.5 7.25 14.375 9 23.458-5.708 8.209-12.833 14.667-19.25 22.375-.625 7.334-8.917 9.209-9.542 16.584-10.541 15.333-22.166 29.25-30.666 44.166-7.5 7.542-16.875 26.917-26.584 35.084.084 8.291-9.583 9.083-9.25 17.166-3.291 4.959-8.125 5.209-8.125 12.417-3.25 4.625-8.416 6.75-8.5 12.667-40.375 37.958-57.458 72.708-90.583 112.041-8.292 16.667-22.5 28.792-32.25 43.709-7.375 8.291-15.167 15.166-20.833 24.708-23.167 24.042-41.375 45.792-70.084 63.417-3.5 4.541-56.852 28.754-61.375 30.666-28.833 1.292-58.75 3.667-87.458.25-35.417-5.708-111.014-22.722-111.014-22.722l-5.444-3.111-8-4.542-8.334-3.916-8.333-4.584-7.958-3.291c-3.709 1.166-21.5-17.084-30.084-16.75-3.25-3.917-17.25-12.542-19.958-16.75-22.417-20.959-42.583-43.209-62.208-66.709-3.909-4.679-5.292-7.458-8.459-11.833-4.96-6.852-3.577-7.849-9.25-16.667-3.833-5.958-17.041-25.75-17.041-25.75l-3.417-8.083c-4.518-10.93-11.046-21.816-11.046-21.816-3.215-13.394-5.704-28.101-5.704-28.101.042-30.25-1.958-60.291.417-90.666.538-6.881 1.927-10.649 4.041-16.709 0 0 13.917-26.166 16.959-38.708 26.125-48.375 65.916-84.833 108.291-119.667 8-1.666 11.959-12.458 19.959-13.791 11.708-12.167 22.041-17.084 34.125-27.875 9.333-3.084 14.958-15.084 24.416-17.959 19.709-17 36.959-37.666 57.834-53.041 10.958-1.625 15.333.541 23.958 7.5Z" style="fill:#29180c;fill-rule:nonzero"/>
  <path d="M446.125 3509.39c17.542 13.791 36.375 28.875 57.583 36.416 13.75 5 25.167 13.584 38.459 19.417 31.458 13.958 61.833 28.667 94.833 38.75 41.667 12.792 83.583 26.083 126 36 57.5 13.958 115.958 30 174.875 36.25-6 1.667-12.875 1.042-15.625 7.75-4.583 9.167-8.708 18.375-15.208 26.5-40.375 52.75-79.417 106.917-118.667 160.708-38.292 47.917-73.417 98.5-111.625 146.542-28.083 28.708-59.833 62.292-97.583 77.5-25.125 12.625-55.542 16.292-83.334 17.5-45.291-2.958-90.791-15.125-131.041-36.333C344 4065.64 323.5 4054.14 304 4041.223c-52.917-36.375-95.667-88.292-116.958-149.25-6.917-20.917-6.459-41.75-6.417-63.5-1.917-36.333 17.25-73.958 36.333-103.833 22.667-32.542 56.5-59.042 87.125-83.834 42.792-32.25 87.334-65.958 123.917-105.208 6.208-7.333 19.375-15.625 18.125-26.208Z" style="fill:#4b3423;fill-rule:nonzero"/>
  <path d="m2619.29 3512.81-.959 8.584 4.542.625.625 4.291c7.5 6.792 10.958 15.917 17.792 23.209 22.833 37.041 48.208 64.708 76.125 99.041 35.458 38.417 68.291 66.792 106.083 102.084 10 5.5 14.708 16.083 22.875 23.125 17.833 17.291 30.083 32.125 45.125 50.333 7.208 13.667 15.5 26.792 23.042 40.375 3.366 6.064 16.541 41.542 16.541 41.542 1.459 31.666 2.25 63.041-.208 94.791-.638 8.239-12.565 39.404-16.5 45.459-6.417 9.875-9.167 19.791-18 28.5-15.083 27.041-37.083 44.541-59 65.916-12.625 7.042-24.042 19.084-37.583 24.542-7.959 5.5-15.709 7.667-22.709 14.75-7.416.583-25.583 13.792-25.583 13.792l-8.042 3.333c-3.875.167-12.916 4.958-12.916 4.958s-15.246 4.967-24.709 8.042c-11.064 3.596-41.833 11.833-41.833 11.833-7.958-.125-25.208 4.209-25.208 4.209-42.667 1-85.136 3.687-127.75-.125-13.545-1.212-25.084-8.125-28.709-8.25-10.158-4.31-38.044-15.648-45.833-20.917-4.25-2.875-8-7.167-12.917-8.833-51.458-35.375-89.625-84.084-123.583-134.584-23.917-32.5-49.75-75.625-72.417-106-.625-7.375-9-9.541-9.333-17-8.625-7.125-11.042-17.541-19.833-25.125-.334-4.083-2.834-7.375-7.5-9.875-2.584-12.166-18.75-21.666-18.75-34.541l-6.875-2.125c.791-9.334-7.5-12.917-12.542-20.417-4.042-9.625-9.292-17.125-16.875-24.542-.25-5.958-5.042-7.666-8.458-11.791.291-6.292-4.917-8-8.25-12.459-2.292-11.208-11.25-17.833-15-27.791-3.959-4.5-7-6.834-7.459-13.25-.75-6.542-3.875-12.084-3.375-18.625 5.459-5.917 10.917-12.667 19.542-13.084 44.875 65.959 86.25 134.959 130.875 201.125 11.667 17.709 21.667 36.459 33.583 54.042 38.834 53.708 73.209 114.75 123.084 160.25 23.166 23.75 51.166 44.583 83.083 54.708 19.708 6.542 41.375 14 62.208 14.75 38.875 1.584 76.167 1.542 113.834-9.333 58.791-13.708 117.833-38.667 164.958-76.958 24.458-22.375 48.5-48.375 63.292-78.292 18.666-42.167 25.708-88.625 11.333-133.25-14.125-37.5-37.792-71.833-65.875-100.25-50.875-54.5-109.375-96.542-156.167-156.292-31.333-37.333-61.291-75.416-86.208-117.416 8.958-6.792 20.708-9.125 28.417-17.084Z" style="fill:#29190d;fill-rule:nonzero"/>
  <path d="M2590.88 3529.89c24.917 42 54.875 80.083 86.208 117.416 46.792 59.75 105.292 101.792 156.167 156.292 28.083 28.417 51.75 62.75 65.875 100.25 14.375 44.625 7.333 91.083-11.333 133.25-14.792 29.917-38.834 55.917-63.292 78.292-47.125 38.291-106.167 63.25-164.958 76.958-37.667 10.875-74.959 10.917-113.834 9.333-20.833-.75-42.5-8.208-62.208-14.75-31.917-10.125-59.917-30.958-83.083-54.708-49.875-45.5-84.25-106.542-123.084-160.25-11.916-17.583-21.916-36.333-33.583-54.042-44.625-66.166-86-135.166-130.875-201.125 24.542-2.291 46.583-11.166 70.042-17.916 29.208-7.75 57.291-18.584 86.416-26.584 33.709-11.333 66.542-25.125 100.084-37 35.083-15.75 71.875-27.25 106.958-42.916 39.5-19.25 77.75-38.292 114.5-62.5Z" style="fill:#4b3423;fill-rule:nonzero"/>
</svg>
