<svg xmlns="http://www.w3.org/2000/svg" xml:space="preserve" style="fill-rule:evenodd;clip-rule:evenodd;stroke-linejoin:round;stroke-miterlimit:2" viewBox="0 0 1250 1250">
  <path d="M.519 208.415h1233.57v1041.01H.519z" style="fill:none"/>
  <path d="M487.091 218.639c31.027 1.976 60.986 9.749 89.843 21.053 14.575 5.473 26.882 14.056 41.067 21.764 5.344-5.862 10.785-12.437 17.263-17.003 12.663-9.361 31.124-10.17 45.667-5.41 24.064 8.195 38.022 33.716 38.574 58.136.453 22.089-12.826 42.363-29.344 56.031 15.838 23.902 33.522 46.412 50.234 69.698 6.607 8.129 4.275 16.712 4.275 26.493-4.373 56.354-17.134 110.571-46.315 159.509-4.113 7.06-10.04 13.603-12.923 21.279 3.207 8.809 8.907 16.938 13.344 25.229 12.243 23.093 22.606 47.189 34.169 70.573 49.229-128.676 124.433-251.684 223.701-347.875 20.243-19.951 45.991-41.035 74.103-47.966 29.602-6.834 57.358 4.502 83.948 16.291 15.514 6.769 26.98 17.489 39.222 28.89 35.529 36.727 57.229 82.944 68.597 132.433 6.542 30.671 6.542 62.929 3.821 94.053-9.068 66.46-39.512 126.538-81.745 178.002-73.521 90.038-174.926 157.76-280.315 204.981-23.805 11.595-49.035 19.919-73.423 30.315-6.056 15.157-13.44 29.57-21.343 43.82 34.039 16.065 66.556 34.72 96.547 57.521 8.486 7.028 13.149 18.363 14.218 29.116 1.263 13.83-4.469 27.303-10.817 39.286-10.817 18.947-25.975 35.335-46.347 44.079-14.995 7.223-32.323 8.875-47.383.908-18.331-9.684-34.622-24.097-50.492-37.344-18.072-16.29-35.335-32.258-48.193-53.148-3.627 1.393-7.158 2.915-10.687 4.567 2.558 3.628 10.299 7.547 6.704 12.826-19.951 31.254-41.846 61.536-61.99 92.661h-7.936c-13.764-6.964-25.391-16.065-37.828-25.036-16.777 5.701-34.007 12.016-51.982 7.967-11.627-2.461-25.554-9.489-29.278-21.667-4.794-12.826-.616-24.453 2.17-37.116-7.126-4.275-12.826-9.165-21.667-8.907-18.008-.227-36.016.033-54.023.195 4.016 12.955 12.404 29.246 9.262 42.881-2.234 13.279-15.449 20.663-27.173 24.355-16.323 5.28-32.516.324-47.868-5.571-10.851-4.598-22.413-9.23-30.769-17.78-15.74-16.81-26.298-36.307-36.144-56.938-22.898-2.299-43.918-9.845-65.844-16.096-13.02 23.352-30.477 42.622-50.913 59.69-14.153 11.595-28.663 24.161-44.792 33.003-12.923 7.19-28.372 8.486-42.363 3.692-28.307-9.327-51.238-34.168-61.18-61.892-7.256-18.331-4.049-43.27 12.598-55.513 30.671-21.926 62.314-41.844 97.13-56.549-6.088-11.983-12.242-23.61-16.646-36.403-10.915-30.379-12.081-64.71-7.773-96.45 1.586-13.733 8.744-25.23 2.915-38.185-10.365-27.821-20.793-55.48-29.376-83.917 20.274-.615 39.512 4.114 59.658 5.118 10.04-31.06 20.695-61.795 33.974-91.624 12.631-31.19 29.57-60.015 45.991-89.228-6.186-12.502-15.061-23.514-20.988-36.242-13.343-24.809-23.74-50.784-31.48-77.86-3.951-11.66 3.109-21.376 6.866-32.096 8.064-21.505 17.36-42.492 25.1-64.127-10.105-5.668-19.724-10.656-27.594-19.433-21.603-22.444-22.056-62.475-1.133-85.438 11.659-12.89 29.602-19.854 46.864-16.518 10.396 1.943 20.372 8.55 29.408 13.797 36.242-40.452 85.147-67.172 137.777-79.446 36.145-9.036 73.811-13.474 111.057-11.434Z" style="fill:#040103;fill-rule:nonzero"/>
  <path d="M568.772 251.06c21.409 9.23 44.21 21.019 59.691 38.865-19.498-4.372-36.08-14.543-54.93-20.761-17.845-6.121-36.533-12.76-55.123-15.935-35.627-6.121-70.378-3.303-105.843 2.138-40.128 6.867-81.616 19.562-115.397 42.881-17.942 12.307-33.618 27.433-44.371 46.509-14.93 26.136-23.416 57.164-34.59 85.179-11.238 29.635-27.011 57.261-46.055 82.523-1.91-12.468 6.477-25.488 10.753-37.083 13.052-33.391 26.428-66.751 38.444-100.564 5.441-15.06 9.198-29.926 18.234-43.301 12.437-18.235 29.213-33.976 47.157-46.704 36.273-25.391 79.349-41.553 123.169-47.48 53.116-8.064 108.564-6.834 158.861 13.733Z" style="fill:#85644e;fill-rule:nonzero"/>
  <path d="M518.41 253.229c18.59 3.175 37.278 9.814 55.123 15.935 18.85 6.218 35.432 16.389 54.93 20.761 2.591 3.206 4.987 6.542 7.319 9.942 9.231 30.121 23.935 57.877 32.55 88.224 7.384 23.352 8.81 46.801 10.332 71.059 1.619 28.663-.778 57.131-9.847 84.467-18.59 55.641-47.965 105-82.555 152.027 21.311-3.465 39.804-13.344 57.682-25.004 12.988 18.85 21.344 39.514 31.805 59.755 26.169 56.679 45.407 119.479 47.318 182.181 2.623 41.229-2.526 81.973-24.194 117.826-12.015 18.623-25.392 35.821-42.946 49.52l-1.457-9.197c5.02-15.158 9.069-30.186 10.04-46.185-3.141 8.744-6.056 17.522-9.327 26.234-11.854 14.736-17.522 32.161-27.044 48.225-12.372 21.537-24.874 43.788-40.42 63.22-15.837 20.599-46.217 30.282-70.799 21.538-7.028-2.105-8.939-8.712-12.793-14.315 10.656-21.7 21.602-41.457 24.939-65.876 5.958-41.651 7.999-84.111 7.87-126.15-1.069 6.769-2.203 13.603-2.98 20.404-1.425-16.453.227-33.068-1.328-49.456-36.857-45.31-110.41-49.844-153.679-10.947-14.834-10.332-29.894-20.372-44.857-30.509-19.919-11.756-23.902-41.683-38.152-58.946-10.105-7.222-24.161-9.91-35.951-13.44.583 7.416.972 14.833 1.231 22.25-11.854-8.842-24.517-16.485-36.274-25.489-7.384-5.344-13.538-11.044-22.769-12.858-18.46-3.821-37.31-5.927-55.933-8.971 5.7-24.809 15.384-47.286 24.485-71.059 14.024-33.845 29.927-66.686 49.165-97.907 15.124 16.938 30.023 33.618 48.678 46.832 30.768 22.963 67.269 35.011 105.584 36.371-37.181-5.538-72.387-19.238-101.211-43.755-51.205-42.104-81.326-105.39-100.791-167.477 19.044-25.262 34.817-52.888 46.055-82.523 11.174-28.015 19.66-59.043 34.59-85.179 10.753-19.076 26.429-34.202 44.371-46.509 33.781-23.319 75.269-36.014 115.397-42.881 35.465-5.441 70.216-8.259 105.843-2.138Z" style="fill:#765337;fill-rule:nonzero"/>
  <path d="M665.061 249.44c27.918 1.555 45.245 31.74 40.29 57.65-2.332 14.639-11.466 23.611-21.117 33.91-20.275-23.158-32.614-50.946-54.605-72.775 10.688-10.072 19.206-20.145 35.432-18.785Zm-29.279 50.427c31.578 44.728 62.573 90.038 96.03 133.373-.195 16.906-1.425 33.618-4.081 50.298-6.866 43.884-19.368 89.908-43.108 127.866-22.866 37.505-57.683 67.56-98.361 84.24 34.59-47.027 63.965-96.386 82.555-152.027 9.069-27.336 11.466-55.804 9.847-84.467-1.522-24.258-2.948-47.707-10.332-71.059-8.615-30.347-23.319-58.103-32.55-88.224Z" style="fill:#54322d;fill-rule:nonzero"/>
  <path d="M198.744 308.45c10.915-.518 20.923 6.219 30.153 11.239-3.271 5.635-6.542 11.109-9.457 16.939-7.416-6.64-12.599-15.093-23.902-13.862-17.521 1.101-23.578 13.991-33.133 26.266l-.712-7.222c3.627-17.814 18.72-32.097 37.051-33.36Z" style="fill:#84644f;fill-rule:nonzero"/>
  <path d="M195.538 322.766c11.303-1.231 16.486 7.222 23.902 13.862-8.939 22.217-15.772 45.213-24.906 67.398-10.04-6.024-19.465-11.303-25.942-21.505-8.453-12.178-9.458-26.494-6.899-40.711l.712 7.222c9.555-12.275 15.612-25.165 33.133-26.266Z" style="fill:#765137;fill-rule:nonzero"/>
  <path d="M1060.06 343.493c23.545 3.661 47.447 12.146 66.654 26.526 29.278 22.25 51.042 56.225 66.426 89.195-31.513 3.855-62.734 9.555-94.183 13.927-28.08-40.387-58.232-83.463-95.867-115.462 17.165-11.205 36.306-17.295 56.97-14.186Z" style="fill:#201710;fill-rule:nonzero"/>
  <path d="M1003.09 357.679c37.634 31.999 67.787 75.075 95.867 115.462 31.449-4.372 62.67-10.072 94.183-13.927 1.457 3.207 2.785 6.446 3.984 9.685-.259 2.688-.551 5.375-.842 8.096-28.857 4.988-57.974 7.353-86.572 13.635 20.08 38.121 39.124 75.787 50.589 117.567 2.04 5.83 3.304 13.862 7.643 18.364 13.085 2.105 26.397 2.397 39.448 5.117-1.36 5.344-2.785 10.656-4.404 15.903-10.364-.194-20.793-.486-31.157-.163 2.203 17.749 5.732 35.336 9.425 52.825-4.696 9.457-9.846 18.526-15.578 27.4-6.349-24.615-5.15-49.521-11.531-74.071-.518-2.979-1.684-5.344-3.498-7.028-9.327-1.911-19.302-1.522-28.792-1.555-38.8.616-77.147.195-115.883 3.628 3.595 11.595 7.514 23.125 11.562 34.59 9.976 28.404 16.68 57.456 23.838 86.637 31.059 2.688 61.665-2.3 92.693 1.684-5.182 6.316-10.591 12.437-16.032 18.494-24.064-2.009-48.484-2.301-72.516 0 1.523 21.375 5.538 42.46 6.575 63.933-5.085 4.209-10.267 8.29-15.481 12.339-4.534-25.295-5.765-50.946-10.235-76.241-23.351-2.202-46.347.26-69.697.292-28.372.842-56.809 1.393-85.148 3.012 2.688 22.671 7.903 44.825 10.947 67.431 2.235 16.194 4.146 32.42 6.445 48.581 25.813 1.943 49.326-.712 74.2 8.097-6.477 4.114-12.922 8.195-19.659 11.887-17.716.129-35.399-1.166-53.116-.616.713 9.295 1.393 18.623 2.041 27.95-5.765 2.981-11.563 5.927-17.424 8.778-1.005-12.113-2.106-24.194-3.239-36.275-24.68.195-49.035 3.531-73.682 4.438l-.972-7.45c0-3.271.033-6.51.097-9.748 23.999-2.85 48.096-4.178 72.192-5.732-1.619-38.801-9.359-77.472-16.42-115.592-30.25-.421-61.31 3.53-91.398 7.352-1.101-3.142-2.137-6.251-3.109-9.424-.033-2.915-.065-5.83-.065-8.778 29.797-3.595 59.69-5.635 89.584-8.161-4.988-33.716-14.38-67.075-24.064-99.754-20.76 4.275-40.128 12.469-60.435 18.299l-1.749-4.761c2.3-5.506 4.923-10.85 7.547-16.227 16.712-5.117 33.424-10.136 49.876-16.096-5.279-17.359-10.655-34.687-15.611-52.112 3.595-6.51 7.32-12.922 11.141-19.303 9.491 21.862 14.575 44.89 22.542 67.27 23.773-3.304 47.092-8.939 70.832-12.437 23.352-3.725 46.898-5.733 70.281-9.263-16.906-36.792-35.432-74.168-59.69-106.749-26.493 4.761-51.011 15.577-77.698 17.586 4.697-7.417 9.619-14.607 14.704-21.764 17.457-3.369 34.558-7.547 51.626-12.503-6.996-9.845-14.154-19.529-22.639-28.177 4.113-5.247 8.258-10.461 12.502-15.578 10.137 13.312 20.08 26.687 30.832 39.513 34.461-6.218 68.597-14.024 103.22-19.53 15.416-2.364 30.833-4.761 46.152-7.74-10.364-21.959-25.91-38.865-41.23-58.169-14.347-18.072-31.189-33.812-45.989-51.561 4.242-3.239 8.485-6.477 12.987-9.36Z" style="fill:#413023;fill-rule:nonzero"/>
  <path d="M990.102 367.039c14.801 17.749 31.642 33.489 45.99 51.561 15.32 19.304 30.866 36.21 41.229 58.169-15.319 2.979-30.736 5.376-46.152 7.74-34.622 5.506-68.758 13.312-103.219 19.53-10.753-12.826-20.696-26.201-30.833-39.513 28.858-34.719 58.395-68.305 92.985-97.487Z" style="fill:#201710;fill-rule:nonzero"/>
  <path d="M523.916 386.051c13.246-5.473 29.343-4.534 39.61 6.315 13.473 13.377 18.007 39.902 6.185 55.448-14.055 18.72-48.807 15.773-59.269-5.409-10.331-18.428-7.546-46.832 13.474-56.354Z" style="fill:#010001;fill-rule:nonzero"/>
  <path d="M523.883 402.18c6.64-4.404 15.19-1.458 18.656 5.409 4.307 8.485-3.854 19.367-13.376 17.715-11.66-.971-16.421-17.521-5.28-23.124Z" style="fill:#fcfcfc;fill-rule:nonzero"/>
  <path d="M329.817 409.5c9.587-2.041 19.789-2.041 28.08 3.853 21.797 14.025 23.578 52.501 1.037 66.687-15.223 10.266-39.578 8.356-49.165-8.712-11.368-21.085-6.866-55.545 20.048-61.828Z" style="fill:#010001;fill-rule:nonzero"/>
  <path d="M358.901 425.564c.389 7.935 3.595 15.643-5.085 20.307-12.048 6.963-23.772-8.453-15.384-18.818 6.251-7.643 12.599-2.979 20.469-1.489Z" style="fill:#fcfcfc;fill-rule:nonzero"/>
  <path d="M507.204 481.076c15.028 10.688 23.222 27.691 23.028 46.088.517 17.716-7.029 31.319-14.349 46.735-11.788 6.024-24.225 10.526-36.695 14.866-4.242-7.223-8.841-14.51-12.209-22.186-3.434-8.259-3.822-18.364-4.794-27.205 13.7-9.943 26.623-21.505 32.388-37.958.032-10.915-11.045-15.482-20.243-16.842-20.857-2.98-45.439-.065-63.091 12.275-5.441 3.757-8.647 8.842-6.639 15.579 10.267 14.541 24.808 23.416 41.326 29.472 2.106 19.044.94 34.493-3.821 52.986-8.453-.616-16.972-1.004-25.392-2.105-14.769-9.879-27.659-21.376-35.497-37.634-7.222-15.061-9.457-32.388-1.328-47.61 10.721-19.757 31.157-32.711 52.63-37.926 25.651-5.862 52.727-4.178 74.686 11.465Z" style="fill:#b2875d;fill-rule:nonzero"/>
  <path d="M1197.12 468.899c6.574 17.197 10.137 35.658 13.861 53.665 6.51 36.436 4.049 73.099-3.595 109.114-13.051-2.72-26.363-3.012-39.448-5.117-4.339-4.502-5.602-12.534-7.643-18.364-11.465-41.78-30.509-79.446-50.589-117.567 28.598-6.282 57.715-8.647 86.572-13.635.291-2.721.583-5.408.842-8.096Z" style="fill:#201710;fill-rule:nonzero"/>
  <path d="M610.974 475.894c17.618-4.178 39.868-3.433 53.925 9.457 9.068 9.587 6.996 24.226-1.004 33.781-19.789 23.578-56.938 33.261-85.05 19.627-10.494-5.183-17.975-17.944-12.566-29.376 7.125-19.627 25.748-28.469 44.695-33.489Z" style="fill:#9e5837;fill-rule:nonzero"/>
  <path d="M884.614 480.104c8.486 8.648 15.644 18.332 22.639 28.177-17.068 4.956-34.168 9.134-51.625 12.503 9.813-13.83 18.461-27.497 28.986-40.68Z" style="fill:#1f150e;fill-rule:nonzero"/>
  <path d="M474.33 484.574c9.198 1.36 20.275 5.927 20.243 16.842-5.765 16.453-18.688 28.015-32.388 37.958.972 8.841 1.36 18.946 4.794 27.205 3.368 7.676 7.967 14.963 12.209 22.186 12.47-4.34 24.907-8.842 36.695-14.866 10.3-5.797 12.308-16.356 19.401-25.587l7.935-.388c4.339 10.235-2.754 19.271-7.644 27.821-5.895 10.008-19.368 14.121-29.343 18.979-3.789 13.895-8.356 27.238-13.797 40.549-17.263.583-35.205 5.765-52.273 4.114-8.778-9.814-15.126-21.797-23.061-32.291-10.526-1.749-21.667-1.749-30.12-9.004-6.996-5.7-13.991-12.469-18.364-20.436-1.976-6.38 1.522-11.206 8.226-9.134 8.454 5.377 14.283 14.932 22.51 20.567 5.376 2.267 11.627 2.721 17.36 3.692 8.42 1.101 16.939 1.489 25.392 2.105 4.761-18.493 5.927-33.942 3.821-52.986-16.518-6.056-31.059-14.931-41.326-29.472-2.008-6.737 1.198-11.822 6.639-15.579 17.652-12.34 42.234-15.255 63.091-12.275Z" style="fill:#020102;fill-rule:nonzero"/>
  <path d="M1089.4 493.61c10.429 17.425 20.242 35.173 28.566 53.699 11.692 26.007 22.995 51.561 28.274 79.641-49.229-1.069-98.393.259-147.525 3.659-9.781-18.461-17.911-37.666-28.048-55.933-9.587-18.396-21.052-35.658-31.124-53.795 25.295-6.154 50.946-10.202 76.499-15.093 24.42-4.437 48.711-9.231 73.358-12.178Z" style="fill:#201710;fill-rule:nonzero"/>
  <path d="M274.111 515.018c24.873-5.149 51.01-2.526 69.73 16.129 9.198 9.004 8.517 24.647-.486 33.521-12.858 13.15-33.003 16.68-50.655 15.871-19.075-.227-42.977-10.332-50.2-29.246-4.858-18.947 15.19-33.23 31.611-36.275Z" style="fill:#9e5837;fill-rule:nonzero"/>
  <path d="M918.621 524.962c24.259 32.581 42.785 69.957 59.691 106.749-23.384 3.53-46.93 5.538-70.281 9.263-23.74 3.498-47.059 9.133-70.832 12.437-7.967-22.38-13.052-45.408-22.542-67.27 8.745-14.509 17.392-29.116 26.267-43.593 26.687-2.009 51.205-12.825 77.697-17.586Z" style="fill:#201710;fill-rule:nonzero"/>
  <path d="M460.469 585.202c3.529 6.316 6.963 13.052 11.691 18.526 6.543 2.332 14.769-2.041 21.15-3.854-2.495 8.615-5.118 17.198-7.968 25.716-4.696.258-9.424.485-14.121.712-2.785-9.068-5.603-18.137-8.55-27.141-.907 9.614-1.749 19.233-2.526 28.858-4.923.615-9.847 1.198-14.769 1.781-4.664-6.964-9.328-13.894-14.089-20.793 7.06.389 14.121.809 21.182 1.069 2.817-8.259 5.408-16.55 8-24.874Z" style="fill:#fcfcfc;fill-rule:nonzero"/>
  <path d="M462.671 599.161c2.947 9.004 5.765 18.073 8.55 27.141 4.697-.227 9.425-.454 14.121-.712-8.388.712-16.809 1.424-25.197 2.429.777-9.62 1.619-19.239 2.526-28.858Z" style="fill:#9f9f9f;fill-rule:nonzero"/>
  <path d="M803.518 605.444c4.956 17.425 10.332 34.753 15.611 52.112-16.452 5.96-33.164 10.979-49.876 16.096 10.719-23.124 22.314-45.698 34.265-68.208Z" style="fill:#1f160e;fill-rule:nonzero"/>
  <path d="M675.684 643.014c3.077 4.534 5.927 9.165 8.648 13.926 29.796 54.897 52.176 112.45 70.928 171.947 9.878 31.415 20.631 60.888 26.169 93.502 4.178 22.413 6.284 44.695 1.846 67.269-7.125 41.813-33.294 78.475-64.386 106.264-18.526 17.392-43.011 28.339-65.715 39.513-5.408-4.794-10.882-9.522-16.42-14.218 6.381-16.68 11.951-33.586 17.716-50.492l1.457 9.197c17.554-13.699 30.931-30.897 42.946-49.52 21.668-35.853 26.817-76.597 24.194-117.826-1.911-62.702-21.149-125.502-47.318-182.181-10.461-20.241-18.817-40.905-31.805-59.755 11.822-7.967 21.408-18.007 31.74-27.626Z" style="fill:#54332e;fill-rule:nonzero"/>
  <path d="M1121.86 644.989c9.489.033 19.464-.356 28.792 1.555 1.814 1.684 2.98 4.049 3.498 7.028 6.38 24.55 5.182 49.456 11.53 74.071-9.879 15.092-20.664 29.602-31.61 43.885-31.028-3.984-61.634 1.004-92.694-1.684-7.157-29.181-13.861-58.233-23.837-86.637-4.048-11.465-7.968-22.995-11.563-34.59 38.736-3.433 77.083-3.012 115.884-3.628Z" style="fill:#201710;fill-rule:nonzero"/>
  <path d="M1171.83 647.418c10.365-.323 20.793-.031 31.158.163-5.604 18.201-13.214 35.626-21.733 52.662-3.692-17.489-7.222-35.076-9.425-52.825Z" style="fill:#1e150d;fill-rule:nonzero"/>
  <path d="M985.796 650.496c16.161 38.088 28.598 79.608 36.468 120.222-51.593.745-103.057 2.915-154.618 4.438-7.773-34.364-17.004-68.371-24.809-102.734 46.249-11.53 95.382-19.206 142.959-21.926Zm-161.904 25.845c9.684 32.679 19.076 66.038 24.064 99.754-29.894 2.526-59.788 4.566-89.584 8.161 0 2.948.032 5.863.064 8.778-4.339-13.571-9.813-26.817-13.764-40.517-2.85-9.231.389-17.166 3.206-25.911 4.405-12.307 8.777-24.679 13.829-36.727l1.749 4.761c20.307-5.83 39.675-14.024 60.436-18.299Zm132.786 114.004c23.351-.032 46.347-2.494 69.698-.292 4.469 25.295 5.7 50.946 10.234 76.241-23.546 18.202-48.484 35.043-73.487 51.172-24.874-8.809-48.387-6.154-74.2-8.097-2.299-16.161-4.211-32.387-6.445-48.581-3.044-22.606-8.259-44.76-10.947-67.431 28.339-1.619 56.775-2.17 85.147-3.012Z" style="fill:#201710;fill-rule:nonzero"/>
  <path d="M1045.52 790.022c24.032-2.301 48.452-2.009 72.516 0-19.757 23.189-42.946 43.399-65.941 63.933-1.037-21.473-5.052-42.558-6.575-63.933Z" style="fill:#1f160f;fill-rule:nonzero"/>
  <path d="M852.939 795.106c7.061 38.12 14.802 76.791 16.421 115.592-24.097 1.554-48.193 2.882-72.192 5.732-.065 3.249-.097 6.499-.097 9.748-2.818-16.161-5.895-32.031-10.753-47.707-8-25.488-14.833-51.204-24.776-76.013 30.088-3.822 61.148-7.773 91.397-7.352Z" style="fill:#201710;fill-rule:nonzero"/>
  <path d="M130.471 817.033c20.793 1.91 41.165 5.991 61.763 9.23 8.324 1.619 16.162 2.526 21.83 9.522 8.939 11.141 14.898 24.906 21.893 37.343-16.517-8.097-32.452-17.198-48.807-25.586-.033 4.793 0 9.554.097 14.315-21.376-8.194-38.703-22.768-59.464-32.193 1.004-4.178 1.814-8.421 2.688-12.631Z" style="fill:#8a613b;fill-rule:nonzero"/>
  <path d="M127.783 829.664c20.761 9.425 38.088 23.999 59.464 32.193.129 3.497.389 6.963.648 10.461-10.397.032-20.761.129-31.157.486 4.469 14.866 17.327 18.59 25.974 30.088 3.369 6.899 4.341 15.19 5.96 22.672-14.996.097-30.088 1.133-45.084.453-10.655-.324-21.408-7.126-24.776-17.522-6.737-17.36-12.89-34.914-19.465-52.306 11.886-7.255 23.19-12.566 28.436-26.525Z" style="fill:#a67b52;fill-rule:nonzero"/>
  <path d="M235.277 850.748c8.486 4.858 18.138 9.554 25.134 16.453 4.761 5.7 6.347 14.348 8.776 21.278 1.62-.097 3.206-.194 4.794-.291 1.522-3.887 3.012-7.741 4.534-11.627 6.154-1.782 12.308-3.563 18.429-5.377 10.914 19.401 18.784 39.934 31.448 58.363 3.076-3.206 6.186-6.413 9.263-9.619 8.906 5.862 19.206 11.368 26.493 19.206 1.749 11.562-1.458 24.129-2.105 35.788-26.98-18.008-53.861-36.144-80.905-54.022-24.841-16.292-50.459-35.206-76.887-49.1-1.847 3.045-3.693 6.121-5.539 9.166.162-5.538.259-11.077.389-16.615 17.715 8.421 34.007 18.914 52.371 26.007-.616-15.482-9.911-25.521-16.195-39.61Z" style="fill:#401f0a;fill-rule:nonzero"/>
  <path d="M271.519 848.675c5.118 1.911 10.235 3.822 15.352 5.765-1.101 3.595-2.202 7.19-3.304 10.785-3.109-.777-6.186-1.554-9.295-2.331-.939-4.73-1.846-9.491-2.753-14.219Z" style="fill:#856a58;fill-rule:nonzero"/>
  <path d="M204.251 871.8c26.428 13.894 52.046 32.808 76.887 49.1 27.044 17.878 53.925 36.014 80.905 54.022-.389 6.802-.486 13.7-.583 20.502 18.428 8.809 32.678 20.404 54.151 20.533 19.368 4.308 33.554 17.749 49.942 28.307 15.967 11.109 33.359 20.468 48.581 32.549 4.859 3.563 5.766 8.324 7.126 13.895-4.048 27.464-16.032 51.463-31.125 74.426-32.938-22.023-65.779-44.176-98.587-66.426-.81-4.6-1.619-9.199-2.429-13.798-20.632-1.846-41.327-2.785-61.893-5.215-2.753-6.607-5.441-13.214-8-19.885 6.964-3.077 10.656-4.243 14.024-11.53-9.781-1.166-18.525-.454-26.655-6.899-51.075-35.27-102.96-69.342-153.938-104.741 16.226-.097 32.258.097 48.29-2.72-2.429-10.98-4.146-22.283-7.514-33.036-2.268-7.093-9.781-12.664-14.996-17.716 6.737-.648 13.571-1.166 20.275-2.202 1.846-3.045 3.692-6.121 5.539-9.166Z" style="fill:#603813;fill-rule:nonzero"/>
  <path d="M532.628 948.364c1.555 16.388-.097 33.003 1.328 49.456-.842 14.38-2.656 28.663-4.405 42.946-50.59-33.845-100.045-69.407-150.602-103.349 43.269-38.897 116.822-34.363 153.679 10.947Z" style="fill:#b2875d;fill-rule:nonzero"/>
  <path d="M111.589 922.649c7.45 3.789 14.575 8.712 21.473 13.473 56.323 38.768 113.616 76.208 169.614 115.429-7.902 1.813-15.805 3.595-23.675 5.377 3.627 12.371 12.307 20.89 22.055 28.792 4.147 3.368 9.134 3.077 14.219 3.66 16.55 1.036 33.23 1.91 49.715 3.821l2.008 3.109c.875 21.603 5.636 44.209 2.526 65.618-1.749 10.591-7.578 25.198-18.915 28.533-12.307 2.915-26.687-.389-39.123-2.04-20.016-25.651-29.797-54.152-42.752-83.431-11.66-26.363-21.538-53.083-30.801-80.353 4.502 40.776 20.988 74.459 32.939 112.806-23.805-3.854-46.671-10.85-68.144-21.926-39.124-19.433-68.111-54.477-82.977-95.285-12.437-30.509-12.89-65.391-8.162-97.583Z" style="fill:#765337;fill-rule:nonzero"/>
  <path d="M871.727 929.19c1.133 12.081 2.234 24.162 3.239 36.275-25.198 11.206-50.331 23.319-76.597 31.805 1.652-21.344 3.336-42.363-.324-63.642 24.647-.907 49.002-4.243 73.682-4.438Z" style="fill:#1f160f;fill-rule:nonzero"/>
  <path d="M890.351 928.737c17.716-.55 35.4.745 53.116.616-16.68 9.781-33.813 18.622-51.076 27.334-.647-9.327-1.327-18.655-2.04-27.95Z" style="fill:#1f150d;fill-rule:nonzero"/>
  <path d="M374.933 947.328c26.364 18.267 52.889 36.306 79.187 54.67-.712 1.943-1.424 3.886-2.137 5.862-14.25-.939-28.599-1.587-42.816-3.044-13.214-.907-26.202-10.364-37.829-16.356 1.133-13.7 2.332-27.4 3.595-41.132Z" style="fill:#a57b54;fill-rule:nonzero"/>
  <path d="M467.529 1009.18c20.34 13.538 40.938 27.206 60.402 42.007-2.104 13.182-4.307 26.363-6.671 39.513-1.36-5.571-2.267-10.332-7.126-13.895-15.222-12.08-32.614-21.44-48.581-32.549-16.388-10.558-30.574-23.999-49.942-28.307 11.563.713 23.644 2.85 35.206 1.49 5.83-1.846 11.206-5.538 16.712-8.259Z" style="fill:#401f0a;fill-rule:nonzero"/>
  <path d="M655.183 1050.77c-8.486 28.533-21.7 56.484-33.36 83.981-7.74 18.364-17.295 35.885-28.695 52.241-14.963 22.509-44.015 34.914-70.508 33.748-12.113-.551-24.323-5.895-27.4-18.655-1.813-10.656 4.697-23.06 8.907-32.647 3.854 5.603 5.765 12.21 12.793 14.315 24.582 8.745 54.962-.939 70.799-21.538 15.546-19.432 28.048-41.682 40.42-63.22 9.522-16.064 15.19-33.489 27.044-48.225Z" style="fill:#53322d;fill-rule:nonzero"/>
  <path d="M295.584 1061.59c12.08 1.846 16.646 7.416 22.184 17.715-12.339-1.263-18.719-5.732-22.184-17.715Z" style="fill:#765e50;fill-rule:nonzero"/>
  <path d="M124.253 1073.31c11.53 10.785 20.663 22.994 32.905 33.165 12.114 10.072 25.684 18.59 38.737 27.431-13.636 26.72-39.514 47.934-62.897 66.039-11.951 8.485-25.49 21.441-41.036 20.793-15.189.292-27.95-6.737-38.929-16.615-15.288-13.149-28.436-32.258-30.865-52.597-.422-16.13 10.59-25.263 22.638-33.716 25.036-16.582 51.27-33.813 79.447-44.5Zm641.144-.257c27.4 11.206 52.954 27.691 77.536 44.015 10.591 7.481 21.635 14.574 23.384 28.597 1.684 15.029-7.158 31.125-15.773 42.882-12.566 16.679-30.541 32.161-52.565 32.225-16.647.551-29.473-10.752-41.715-20.404-23.319-19.238-48.516-39.577-66.103-64.354 12.243-8.55 25.003-16.485 36.728-25.716 14.347-11.271 24.874-25.327 38.508-37.245Z" style="fill:#201710;fill-rule:nonzero"/>
  <path d="M366.998 1096.31c9.36 14.024 14.089 29.181 21.635 44.209 7.19 15.74 14.995 31.902 19.076 48.776 1.198 7.028 2.558 17.197-3.789 22.218-10.138 9.262-23.708 10.525-36.793 8.712-21.861-3.854-42.363-13.408-55.641-31.805 12.436 1.652 26.816 4.955 39.123 2.041 11.337-3.336 17.166-17.943 18.915-28.534 3.11-21.408-1.651-44.014-2.526-65.617Z" style="fill:#54322d;fill-rule:nonzero"/>
  <path d="M385.977 1107.68c21.991 14.024 43.205 29.311 65.067 43.562-15.482.291-30.963.258-46.444.227-6.315-14.543-12.858-29.02-18.623-43.789Z" style="fill:#b08660;fill-rule:nonzero"/>
  <path d="M634.649 1131.41c10.72 6.866 20.534 14.704 30.606 22.444-5.279 9.134-10.915 18.04-17.295 26.493-8.486-7.708-17.198-14.315-27.011-20.242 4.081-9.781 8.42-19.465 13.7-28.695Z" style="fill:#41200c;fill-rule:nonzero"/>
  <path d="M620.949 1160.11c9.813 5.927 18.525 12.534 27.011 20.242-14.444 19.529-27.497 40.096-41.424 60.046-10.525-6.218-20.922-12.566-31.124-19.27 22.056-15.287 34.396-37.279 45.537-61.018Z" style="fill:#603714;fill-rule:nonzero"/>
  <path d="M1032.73 1143.38c0-7.69 6.256-13.947 13.944-13.947 7.69 0 13.945 6.257 13.945 13.947 0 1.184-.163 2.328-.443 3.424 9.091-3.401 18.581-7.392 28.09-12.049-3.537-2.532-5.854-6.665-5.854-11.336 0-7.69 6.257-13.945 13.947-13.945 7.434 0 13.51 5.852 13.906 13.189 13.043-8.047 25.531-17.524 36.401-28.652-5.502-1.231-8.898-4.469-11.734-7.188-3.206-3.072-5.738-5.498-11.032-5.498-5.292 0-7.822 2.425-11.027 5.497-3.582 3.433-8.038 7.704-16.519 7.704-8.482 0-12.938-4.272-16.519-7.704-3.204-3.072-5.735-5.498-11.027-5.498-5.292 0-7.823 2.426-11.029 5.498-3.58 3.432-8.037 7.704-16.518 7.704-.484 0-.953-.017-1.411-.044-9.31 22.547-22.049 50.302-34.727 68.128 7.708-1.561 19.273-4.216 32.884-8.328-3.211-2.554-5.277-6.489-5.277-10.902Zm87.452-49.989c.741-.74 1.763-1.163 2.804-1.163 1.049 0 2.071.423 2.803 1.163.741.74 1.163 1.763 1.163 2.803 0 1.05-.423 2.072-1.163 2.812-.732.732-1.754 1.155-2.803 1.155-1.041 0-2.063-.423-2.804-1.155-.74-.74-1.163-1.762-1.163-2.812 0-1.04.423-2.063 1.163-2.803Zm-54.631 0c.74-.74 1.762-1.163 2.812-1.163 1.04 0 2.062.423 2.803 1.163.74.741 1.163 1.763 1.163 2.803 0 1.05-.423 2.072-1.163 2.803-.74.741-1.763 1.164-2.803 1.164-1.05 0-2.073-.423-2.812-1.164-.732-.731-1.155-1.753-1.155-2.803.001-1.04.423-2.063 1.155-2.803Zm-2.204 23.754c.75-.74 1.762-1.163 2.812-1.163 1.04 0 2.062.423 2.803 1.163.74.741 1.163 1.763 1.163 2.804 0 1.049-.423 2.062-1.163 2.803-.74.74-1.763 1.163-2.803 1.163-1.05 0-2.073-.423-2.812-1.163-.732-.74-1.155-1.763-1.155-2.803.001-1.041.423-2.063 1.155-2.804Zm-19.479-6.504c.74-.74 1.762-1.164 2.803-1.164 1.05 0 2.072.423 2.812 1.164.732.731 1.163 1.754 1.163 2.803 0 1.04-.431 2.062-1.163 2.803-.74.74-1.762 1.163-2.812 1.163-1.041 0-2.063-.422-2.803-1.163-.74-.74-1.164-1.763-1.164-2.803 0-1.049.424-2.072 1.164-2.803Z" style="fill:#129a58;fill-rule:nonzero"/>
  <path d="M1052.29 1081.1c3.581-3.432 8.038-7.704 16.518-7.704 8.481 0 12.937 4.271 16.518 7.704 3.204 3.072 5.735 5.498 11.028 5.498 5.294 0 7.826-2.426 11.031-5.498 3.58-3.432 8.037-7.704 16.516-7.704 8.482 0 12.94 4.272 16.52 7.704 3.206 3.072 5.738 5.498 11.031 5.498 8.043 0 19.719-3.285 24.924-5.902-61.448-19.463-104.293-62.691-117.531-77.381-10.382 24.459-24.333 53.889-37.758 71.369 4.03 1.528 6.784 4.151 9.146 6.416 3.205 3.072 5.736 5.498 11.029 5.498s7.824-2.426 11.028-5.498Zm41.264-19.798c.74-.74 1.763-1.164 2.803-1.164 1.049 0 2.071.423 2.803 1.164.742.74 1.164 1.762 1.164 2.803 0 1.049-.423 2.062-1.164 2.803-.731.74-1.753 1.163-2.803 1.163-1.04 0-2.062-.423-2.803-1.163-.74-.732-1.164-1.754-1.164-2.803 0-1.041.424-2.063 1.164-2.803Zm-29.029-32.5c7.69 0 13.945 6.257 13.945 13.948 0 7.689-6.257 13.943-13.945 13.943-7.69 0-13.946-6.256-13.946-13.943 0-7.691 6.256-13.948 13.946-13.948Zm-27.012 37.823c0-1.04.423-2.062 1.163-2.803.741-.74 1.762-1.164 2.803-1.164s2.063.423 2.803 1.164c.741.74 1.164 1.763 1.164 2.803s-.423 2.062-1.164 2.803c-.74.74-1.762 1.164-2.803 1.164s-2.062-.423-2.803-1.164c-.741-.741-1.163-1.763-1.163-2.803Z" style="fill:#129a58;fill-rule:nonzero"/>
  <path d="M1064.52 1048.76c3.316 0 6.012-2.696 6.012-6.01 0-3.317-2.697-6.015-6.012-6.015-3.316 0-6.013 2.698-6.013 6.015 0 3.314 2.698 6.01 6.013 6.01Z" style="fill:#efd18d;fill-rule:nonzero"/>
  <path d="M1040.66 1143.38c0 3.314 2.698 6.011 6.012 6.011 3.317 0 6.013-2.697 6.013-6.011 0-3.317-2.697-6.015-6.013-6.015-3.314.002-6.012 2.7-6.012 6.015Z" style="fill:#ff5240;fill-rule:nonzero"/>
  <path d="M1090.35 1123.42c0 3.317 2.698 6.013 6.012 6.013 3.317 0 6.013-2.697 6.013-6.013 0-3.314-2.698-6.012-6.013-6.012-3.314 0-6.012 2.698-6.012 6.012Z" style="fill:#fff;fill-rule:nonzero"/>
  <path d="M990.065 1229.5h102.545v12.568H990.065z" style="fill:#e1b658"/>
  <path d="M1063.41 988.292c2.755-2.641 6.184-5.928 12.811-5.928s10.056 3.287 12.81 5.928c2.339 2.241 3.884 3.722 7.325 3.722 3.44 0 4.984-1.481 7.322-3.722 2.756-2.64 6.186-5.927 12.814-5.927s10.057 3.287 12.812 5.927c2.339 2.242 3.884 3.723 7.325 3.723 3.441 0 4.985-1.481 7.325-3.722 1.231-1.18 2.599-2.487 4.325-3.575-11.399-9.755-21.924-24.2-30.682-38.604-2.334 2.504-4.87 4.962-7.602 7.351.201.939.311 1.912.311 2.911 0 7.69-6.256 13.945-13.945 13.945-2.624 0-5.071-.741-7.17-2.006-15.739 9.319-31.683 15.392-41.761 18.721.466.424.91.847 1.336 1.254 2.337 2.242 3.883 3.722 7.322 3.722 3.438.002 4.982-1.479 7.322-3.72Zm52.002-20.726c.732-.74 1.754-1.164 2.803-1.164 1.041 0 2.063.423 2.804 1.164.74.74 1.163 1.763 1.163 2.803s-.422 2.062-1.163 2.803c-.741.74-1.763 1.164-2.804 1.164-1.04 0-2.062-.423-2.803-1.164-.74-.74-1.163-1.763-1.163-2.803s.423-2.063 1.163-2.803Z" style="fill:#129a58;fill-rule:nonzero"/>
  <path d="M1122.18 1042.75c0 3.314 2.698 6.01 6.013 6.01 3.316 0 6.012-2.696 6.012-6.01 0-3.317-2.698-6.015-6.012-6.015-3.315 0-6.013 2.698-6.013 6.015Z" style="fill:#ff5240;fill-rule:nonzero"/>
  <path d="M1090.35 956.376c0 3.315 2.698 6.013 6.012 6.013 3.317 0 6.013-2.698 6.013-6.013 0-3.314-2.698-6.012-6.013-6.012-3.314 0-6.012 2.697-6.012 6.012Z" style="fill:#fff;fill-rule:nonzero"/>
  <path d="M964.239 1229.5h17.89v12.568h-17.89zM964.239 1212.2h17.89v9.361h-17.89z" style="fill:#e1b658"/>
  <path d="M1082.41 956.376c0-7.689 6.256-13.944 13.946-13.944 3.761 0 7.172 1.502 9.682 3.93 2.67-2.411 5.12-4.886 7.335-7.397-7.563-13.235-13.476-25.734-17.018-33.674-7.052 15.806-23.489 49.672-43.668 71.457 8.868-3.301 20.04-8.073 31.06-14.447-.848-1.801-1.337-3.805-1.337-5.925Zm11.14-29.673c.74-.74 1.763-1.164 2.803-1.164 1.049 0 2.071.423 2.803 1.164.742.74 1.164 1.763 1.164 2.803s-.423 2.062-1.164 2.803c-.731.74-1.753 1.164-2.803 1.164-1.04 0-2.062-.423-2.803-1.164-.74-.731-1.164-1.754-1.164-2.803 0-1.04.424-2.062 1.164-2.803ZM1123.82 994.02c-2.339-2.242-3.884-3.723-7.325-3.723-3.441 0-4.985 1.481-7.325 3.723-2.755 2.64-6.184 5.927-12.811 5.927-6.628 0-10.057-3.287-12.813-5.927-2.338-2.241-3.882-3.722-7.322-3.722s-4.983 1.481-7.322 3.722c-1.255 1.202-2.653 2.535-4.425 3.634 7.251 7.988 24.768 25.96 49.907 43.28.894-6.835 6.74-12.135 13.814-12.135 7.689 0 13.944 6.258 13.944 13.948 0 4.838-2.478 9.105-6.231 11.606 9.843 5.51 20.476 10.625 31.811 14.918-12.91-18.796-25.939-47.028-35.496-69.877-3.892-1.049-6.339-3.393-8.406-5.374Zm-24.657 21.646c-.732.731-1.754 1.155-2.804 1.155-1.04 0-2.062-.423-2.803-1.155-.74-.74-1.163-1.763-1.163-2.803 0-1.049.423-2.071 1.163-2.812.74-.731 1.763-1.164 2.803-1.164 1.05 0 2.072.432 2.804 1.164.741.74 1.163 1.763 1.163 2.812.001 1.039-.423 2.062-1.163 2.803Zm26.627 0c-.731.74-1.753 1.164-2.803 1.164-1.04 0-2.062-.423-2.803-1.164-.74-.74-1.164-1.763-1.164-2.803 0-1.049.423-2.071 1.164-2.812.74-.731 1.763-1.155 2.803-1.155 1.049 0 2.071.423 2.803 1.155.742.74 1.164 1.763 1.164 2.812.001 1.039-.422 2.062-1.164 2.803Z" style="fill:#129a58;fill-rule:nonzero"/>
  <path d="M990.065 1212.2h102.545v9.361H990.065z" style="fill:#e1b658"/>
  <path d="M1169.49 1156.52h32.851v10.244h-32.851zM1169.49 1174.69h32.851v67.376h-32.851z" style="fill:#ff5240"/>
  <path d="M1146.04 1137.37c-3.316 0-6.012 2.698-6.012 6.015 0 3.314 2.697 6.01 6.012 6.01 3.316 0 6.013-2.696 6.013-6.01 0-3.317-2.698-6.015-6.013-6.015Z" style="fill:#efd18d;fill-rule:nonzero"/>
  <path d="M1210.27 1174.69h10.999v67.376h-10.999z" style="fill:#ff5240"/>
  <path d="M1154.17 1097.62c-28.853 30.496-68.888 48.956-98.071 59.191-18.395 6.452-34.555 10.469-45.474 12.796 1.612 1.268 3.044 2.637 4.419 3.954 4.052 3.885 7.253 6.953 14.063 6.953 6.812 0 10.012-3.068 14.066-6.953 4.479-4.293 9.557-9.158 19.556-9.158 9.998 0 15.074 4.865 19.552 9.158 4.053 3.884 7.254 6.952 14.066 6.952 6.812 0 10.012-3.068 14.066-6.952 4.478-4.294 9.556-9.159 19.555-9.159 10.001 0 15.078 4.865 19.557 9.158 3.624 3.472 6.575 6.285 12.026 6.845v-27.859c0-2.19 1.776-3.967 3.967-3.967h13.166c-9.252-16.033-18.002-35.391-24.514-50.959Zm-53.243 68.052c-.751.74-1.763 1.164-2.812 1.164-1.04 0-2.062-.423-2.803-1.164-.741-.741-1.164-1.763-1.164-2.803 0-1.049.423-2.071 1.164-2.812.74-.731 1.763-1.155 2.803-1.155 1.049 0 2.071.423 2.812 1.155.731.74 1.155 1.772 1.155 2.812 0 1.04-.424 2.063-1.155 2.803Zm16.271-19.488c-.741.731-1.763 1.154-2.804 1.154-1.047 0-2.071-.423-2.811-1.154-.731-.741-1.155-1.763-1.155-2.812 0-1.041.423-2.063 1.155-2.803.74-.732 1.763-1.164 2.811-1.164 1.041 0 2.063.432 2.804 1.164.74.74 1.163 1.762 1.163 2.803-.001 1.049-.423 2.071-1.163 2.812Zm26.038-31.212c.731-.74 1.753-1.163 2.803-1.163 1.047 0 2.071.423 2.803 1.163.74.74 1.163 1.763 1.163 2.804 0 1.04-.422 2.062-1.163 2.803-.732.74-1.763 1.163-2.803 1.163-1.041 0-2.063-.423-2.803-1.163-.742-.74-1.164-1.763-1.164-2.803 0-1.041.422-2.064 1.164-2.804Zm2.804 42.347c-7.69 0-13.945-6.255-13.945-13.943 0-7.69 6.257-13.948 13.945-13.948 7.691 0 13.946 6.258 13.946 13.948 0 7.688-6.256 13.943-13.946 13.943Z" style="fill:#129a58;fill-rule:nonzero"/>
  <path d="M1055.38 1204.27h41.2c2.19 0 3.967 1.776 3.967 3.967v33.827h9.882v-53.617h-55.049v15.823Z" style="fill:#bdf3ff;fill-rule:nonzero"/>
  <path d="M1210.27 1156.52h10.999v10.244h-10.999z" style="fill:#ff5240"/>
  <path d="M1118.37 1188.45h9.392v53.617h-9.392z" style="fill:#bdf3ff"/>
  <path d="M1135.69 1229.5h25.869v12.568h-25.869zM1135.69 1212.2h25.869v9.361h-25.869z" style="fill:#efd18d"/>
  <path d="M1064.52 1056.69c7.69 0 13.945-6.256 13.945-13.943 0-7.691-6.257-13.948-13.945-13.948-7.69 0-13.946 6.257-13.946 13.948 0 7.689 6.256 13.943 13.946 13.943Zm0-19.958c3.316 0 6.012 2.698 6.012 6.015 0 3.314-2.697 6.01-6.012 6.01-3.316 0-6.013-2.696-6.013-6.01 0-3.317 2.698-6.015 6.013-6.015ZM1146.04 1129.43c-7.69 0-13.945 6.258-13.945 13.948 0 7.689 6.257 13.943 13.945 13.943 7.691 0 13.946-6.255 13.946-13.943 0-7.691-6.256-13.948-13.946-13.948Zm0 19.959c-3.316 0-6.012-2.697-6.012-6.011 0-3.317 2.697-6.015 6.012-6.015 3.316 0 6.013 2.698 6.013 6.015 0 3.315-2.698 6.011-6.013 6.011ZM1118.21 974.335c1.041 0 2.062-.423 2.803-1.164.74-.74 1.163-1.762 1.163-2.803 0-1.04-.422-2.062-1.163-2.803-.741-.74-1.762-1.163-2.803-1.163-1.048 0-2.071.422-2.803 1.163-.74.74-1.164 1.763-1.164 2.803 0 1.041.423 2.063 1.164 2.803.741.741 1.764 1.164 2.803 1.164ZM1096.36 933.473c1.049 0 2.071-.423 2.803-1.164.742-.74 1.164-1.763 1.164-2.803s-.423-2.062-1.164-2.803c-.731-.74-1.753-1.164-2.803-1.164-1.04 0-2.062.423-2.803 1.164-.74.74-1.164 1.763-1.164 2.803 0 1.049.423 2.071 1.164 2.803.741.74 1.763 1.164 2.803 1.164ZM1096.36 1008.89c-1.04 0-2.062.432-2.803 1.164-.74.74-1.164 1.763-1.164 2.812 0 1.04.423 2.062 1.164 2.803.74.731 1.763 1.155 2.803 1.155 1.049 0 2.071-.423 2.803-1.155.742-.74 1.164-1.763 1.164-2.803 0-1.049-.423-2.071-1.164-2.812-.732-.732-1.754-1.164-2.803-1.164ZM1122.98 1008.9c-1.04 0-2.062.423-2.803 1.155-.74.74-1.164 1.763-1.164 2.812 0 1.04.423 2.062 1.164 2.803.74.74 1.763 1.164 2.803 1.164 1.049 0 2.071-.423 2.803-1.164.741-.74 1.164-1.763 1.164-2.803 0-1.049-.423-2.071-1.164-2.812-.732-.732-1.754-1.155-2.803-1.155ZM1096.36 1068.07c1.049 0 2.071-.423 2.803-1.164.742-.74 1.164-1.754 1.164-2.803 0-1.04-.423-2.062-1.164-2.803-.731-.74-1.753-1.164-2.803-1.164-1.04 0-2.062.423-2.803 1.164-.74.74-1.164 1.763-1.164 2.803 0 1.049.423 2.071 1.164 2.803.741.741 1.763 1.164 2.803 1.164ZM1044.28 1069.42c.741-.74 1.164-1.763 1.164-2.803s-.423-2.062-1.164-2.803c-.74-.74-1.762-1.164-2.803-1.164s-2.062.423-2.803 1.164c-.74.74-1.163 1.763-1.163 2.803s.423 2.062 1.163 2.803c.741.74 1.762 1.164 2.803 1.164s2.063-.424 2.803-1.164ZM1122.98 1100.16c1.049 0 2.071-.422 2.803-1.154.741-.74 1.164-1.763 1.164-2.812 0-1.041-.423-2.063-1.164-2.803-.731-.74-1.753-1.164-2.803-1.164-1.04 0-2.062.423-2.803 1.164-.74.74-1.164 1.762-1.164 2.803 0 1.049.423 2.071 1.164 2.812.741.732 1.763 1.154 2.803 1.154ZM1068.36 1100.16c1.041 0 2.063-.422 2.803-1.163.74-.731 1.164-1.754 1.164-2.803 0-1.041-.423-2.063-1.164-2.803-.74-.74-1.762-1.164-2.803-1.164-1.049 0-2.072.423-2.812 1.164-.731.74-1.154 1.762-1.154 2.803 0 1.049.422 2.071 1.154 2.803.74.741 1.762 1.163 2.812 1.163ZM1066.16 1123.91c1.041 0 2.063-.423 2.803-1.163.741-.741 1.164-1.754 1.164-2.803 0-1.041-.423-2.063-1.164-2.804-.74-.74-1.762-1.163-2.803-1.163-1.049 0-2.062.423-2.812 1.163-.731.741-1.154 1.763-1.154 2.804 0 1.04.422 2.062 1.154 2.803.74.74 1.762 1.163 2.812 1.163ZM1046.67 1117.41c1.05 0 2.073-.423 2.813-1.164.731-.74 1.163-1.763 1.163-2.803 0-1.049-.431-2.071-1.163-2.803-.74-.74-1.763-1.164-2.813-1.164-1.04 0-2.062.423-2.803 1.164-.74.731-1.164 1.754-1.164 2.803 0 1.04.423 2.062 1.164 2.803.741.741 1.764 1.164 2.803 1.164ZM1098.12 1158.91c-1.04 0-2.062.423-2.803 1.155-.74.74-1.164 1.763-1.164 2.812 0 1.04.423 2.062 1.164 2.803.74.74 1.763 1.163 2.803 1.163 1.049 0 2.062-.422 2.812-1.163.731-.74 1.155-1.763 1.155-2.803 0-1.041-.423-2.071-1.155-2.812-.742-.732-1.763-1.155-2.812-1.155ZM1114.4 1139.41c-1.047 0-2.071.431-2.811 1.163-.731.74-1.155 1.763-1.155 2.803 0 1.05.423 2.071 1.155 2.812.74.731 1.763 1.155 2.811 1.155 1.041 0 2.063-.423 2.804-1.155.74-.74 1.163-1.762 1.163-2.812 0-1.04-.423-2.062-1.163-2.803-.741-.732-1.763-1.163-2.804-1.163ZM1146.04 1121.75c1.04 0 2.071-.423 2.803-1.164.74-.74 1.163-1.763 1.163-2.803 0-1.041-.422-2.063-1.163-2.803-.732-.74-1.754-1.164-2.803-1.164s-2.071.423-2.803 1.164c-.742.74-1.164 1.762-1.164 2.803 0 1.04.423 2.062 1.164 2.803.74.741 1.762 1.164 2.803 1.164Z" style="fill:#4f413b;fill-rule:nonzero"/>
  <path d="M1225.19 1131.79c-2.245-1.686-6.186-2.917-12.191.796-3.901 2.411-7.012 5.56-9.323 9.4-2.312-3.84-5.422-6.99-9.321-9.399-6.007-3.715-9.944-2.483-12.19-.797-.926.695-1.661 1.562-2.244 2.528-7.123-13.605-13.715-28.442-18.841-40.748 3.605-.632 7.398-1.552 10.981-2.693 12.116-3.858 14.006-7.536 14.373-9.965.273-1.805-.083-4.997-5.134-6.952-14.554-16.558-30.815-51.793-40.447-74.523 3.997-1.024 6.491-3.405 8.591-5.417 2.338-2.242 3.884-3.722 7.325-3.722 2.19 0 3.967-1.776 3.967-3.967 0-.012-.004-.022-.004-.034.014-1.287-.596-2.555-1.743-3.329-29.523-19.935-55.668-81.323-58.66-88.525v-4.634h3.803c2.19 0 3.967-1.775 3.967-3.966 0-2.191-1.776-3.967-3.967-3.967h-3.803v-3.803c0-2.19-1.776-3.967-3.967-3.967-2.19 0-3.967 1.776-3.967 3.967v3.805h-3.804c-2.19 0-3.967 1.775-3.967 3.966 0 2.191 1.776 3.967 3.967 3.967h3.804v4.633c-2.992 7.203-29.138 68.59-58.661 88.525-1.147.774-1.756 2.043-1.743 3.33 0 .011-.004.022-.004.033 0 2.19 1.774 3.965 3.964 3.967v.001c.003 0 .005-.001.008-.001 3.436.002 4.98 1.482 7.316 3.722 2.1 2.012 4.596 4.395 8.595 5.417-9.774 23.065-26.376 59.023-41.091 75.258-1.471 1.623-1.348 4.132.275 5.602.759.689 1.713 1.028 2.663 1.028h.001c5.292 0 7.822 2.426 11.027 5.498 1.998 1.915 4.268 4.088 7.356 5.638-14.621 35.259-28.609 61.197-39.544 73.261-1.471 1.623-1.347 4.132.276 5.603.759.686 1.71 1.025 2.659 1.027v.001c.045 0 .091-.008.136-.01 6.718.04 9.907 3.09 13.934 6.948 4.479 4.294 9.555 9.159 19.554 9.159 10 0 15.076-4.865 19.555-9.158 4.053-3.884 7.255-6.953 14.067-6.953 6.811 0 10.011 3.069 14.063 6.953.422.405.856.816 1.293 1.226h-26.675c-2.19 0-3.967 1.776-3.967 3.967v19.789h-31.251c.291-.68.554-1.411.777-2.212 1.227-4.419 1.302-12.834-3.721-16.605-2.386-1.792-6.587-3.086-13.048.907-4.481 2.77-8.019 6.426-10.585 10.921-2.567-4.496-6.105-8.152-10.586-10.921-6.46-3.994-10.66-2.698-13.047-.908-5.023 3.772-4.947 12.187-3.72 16.606.224.801.486 1.532.777 2.211h-2.77c-2.19 0-3.967 1.776-3.967 3.967v37.793c0 2.19 1.776 3.967 3.967 3.967h264.962c2.19 0 3.966-1.776 3.966-3.967v-93.482c0-1.208-.55-2.276-1.401-3.002.335-.722.634-1.511.879-2.389 1.132-4.079 1.185-11.859-3.494-15.371Zm-243.056 110.279h-17.89v-12.568h17.89v12.568Zm0-20.5h-17.89v-9.362h17.89v9.362Zm-4.592-17.295c-4.365 0-6.542-.427-7.627-4.335-.889-3.198-.281-7.296.839-8.137.357-.273 1.753-.148 4.112 1.311 5.357 3.31 8.003 7.773 9.372 11.162h-6.696v-.001Zm209.386-66.141c.089-.07 1.083-.142 3.254 1.201 4.413 2.727 6.747 6.345 8.023 9.251h-7.493c-2.405-.198-3.674-.944-4.397-3.547-.789-2.84-.177-6.312.613-6.905Zm-19.207-68.862c-11.335-4.294-21.968-9.408-31.811-14.918 3.753-2.502 6.231-6.769 6.231-11.606 0-7.691-6.257-13.948-13.945-13.948-7.073 0-12.92 5.3-13.813 12.134-25.14-17.319-42.657-35.292-49.907-43.279 1.772-1.099 3.17-2.433 4.425-3.635 2.338-2.241 3.881-3.721 7.322-3.721 3.439 0 4.983 1.48 7.322 3.721 2.756 2.641 6.186 5.928 12.813 5.928 6.627 0 10.056-3.287 12.811-5.928 2.338-2.241 3.883-3.722 7.325-3.722 3.44 0 4.985 1.481 7.324 3.722 2.069 1.982 4.515 4.326 8.407 5.374 9.557 22.85 22.585 51.081 35.496 69.878Zm-33.513-26.524c0 3.314-2.697 6.01-6.012 6.01-3.316 0-6.012-2.696-6.012-6.01 0-3.317 2.697-6.015 6.012-6.015 3.315 0 6.012 2.698 6.012 6.015Zm-37.846-137.455c3.542 7.94 9.455 20.439 17.019 33.674-2.217 2.512-4.667 4.986-7.336 7.397-2.511-2.428-5.923-3.93-9.682-3.93-7.69 0-13.946 6.256-13.946 13.944 0 2.12.489 4.124 1.34 5.925-11.021 6.373-22.193 11.145-31.061 14.446 20.175-21.784 36.614-55.651 43.666-71.456Zm6.012 51.085c0 3.315-2.697 6.013-6.012 6.013-3.316 0-6.013-2.698-6.013-6.013 0-3.314 2.698-6.012 6.013-6.012s6.012 2.697 6.012 6.012Zm-53.608 31.916c-.426-.408-.87-.831-1.337-1.254 10.078-3.33 26.023-9.404 41.762-18.722 2.099 1.265 4.545 2.007 7.17 2.007 7.69 0 13.945-6.256 13.945-13.945 0-.999-.11-1.972-.311-2.912 2.732-2.387 5.268-4.846 7.602-7.35 8.758 14.403 19.283 28.849 30.682 38.603-1.726 1.087-3.094 2.395-4.325 3.576-2.339 2.24-3.884 3.721-7.325 3.721-3.441 0-4.985-1.481-7.325-3.722-2.755-2.641-6.185-5.928-12.813-5.928-6.627 0-10.057 3.287-12.813 5.928-2.338 2.241-3.882 3.721-7.322 3.721s-4.985-1.48-7.325-3.722c-2.754-2.641-6.184-5.928-12.81-5.928-6.627 0-10.056 3.287-12.812 5.928-2.337 2.242-3.883 3.722-7.322 3.722-3.438-.001-4.983-1.482-7.321-3.723Zm-18.531 92.804c-2.363-2.265-5.116-4.888-9.146-6.416 13.424-17.48 27.376-46.91 37.758-71.369 13.238 14.69 56.083 57.918 117.531 77.381-5.204 2.617-16.88 5.902-24.924 5.902-5.294 0-7.826-2.426-11.032-5.498-3.58-3.432-8.037-7.704-16.519-7.704-8.48 0-12.937 4.272-16.516 7.704-3.205 3.072-5.738 5.498-11.031 5.498s-7.823-2.426-11.029-5.498c-3.58-3.433-8.037-7.704-16.517-7.704-8.481 0-12.938 4.272-16.518 7.704-3.205 3.072-5.736 5.498-11.029 5.498s-7.823-2.426-11.028-5.498Zm-25.11 81.514c12.678-17.825 25.418-45.582 34.726-68.128.459.027.928.045 1.412.045 8.48 0 12.938-4.272 16.518-7.705 3.205-3.071 5.736-5.498 11.029-5.498 5.292 0 7.822 2.426 11.027 5.498 3.581 3.433 8.037 7.705 16.518 7.705 8.482 0 12.939-4.272 16.52-7.705 3.204-3.071 5.735-5.497 11.027-5.497 5.294 0 7.826 2.426 11.032 5.498 2.837 2.72 6.231 5.957 11.733 7.188-10.87 11.128-23.357 20.605-36.4 28.652-.396-7.337-6.473-13.188-13.907-13.188-7.69 0-13.946 6.255-13.946 13.944 0 4.672 2.317 8.804 5.854 11.337-9.509 4.657-18.999 8.648-28.09 12.049.278-1.098.443-2.241.443-3.424 0-7.691-6.257-13.948-13.945-13.948-7.69 0-13.945 6.257-13.945 13.948 0 4.412 2.067 8.346 5.277 10.903-13.611 4.111-25.176 6.765-32.883 8.326Zm97.249-39.191c0 3.317-2.697 6.013-6.012 6.013-3.316 0-6.013-2.697-6.013-6.013 0-3.314 2.698-6.012 6.013-6.012s6.012 2.698 6.012 6.012Zm-49.686 19.96c0 3.314-2.696 6.011-6.012 6.011-3.316 0-6.012-2.697-6.012-6.011 0-3.317 2.697-6.015 6.012-6.015 3.316.002 6.012 2.7 6.012 6.015Zm-48.309 49.732c2.358-1.458 3.753-1.581 4.114-1.31 1.12.84 1.728 4.938.84 8.137-1.086 3.908-3.262 4.335-7.628 4.335h-6.697c1.368-3.388 4.015-7.851 9.371-11.162Zm88.238 48.957h-102.55v-12.568h102.55v12.568Zm-.001-20.5H990.067v-9.362h102.55v9.361h-.001v.001Zm17.815 20.5h-9.882v-33.828c0-2.19-1.776-3.966-3.967-3.966h-41.199v-15.823h55.048v53.617Zm17.326 0h-9.392v-53.617h9.392v53.617Zm33.801 0h-25.869v-12.568h25.869v12.568Zm0-20.5h-25.869v-9.362h25.869v9.362Zm0-17.295h-25.869v-19.789c0-2.19-1.776-3.967-3.967-3.967h-17.104c.436-.409.867-.82 1.29-1.225 4.054-3.884 7.255-6.953 14.067-6.953 6.813 0 10.015 3.069 14.07 6.953 4.163 3.989 8.847 8.467 17.513 9.082v15.899Zm0-51.722v27.859c-5.45-.559-8.401-3.372-12.026-6.845-4.479-4.293-9.557-9.158-19.557-9.158-9.999 0-15.077 4.865-19.555 9.158-4.054 3.885-7.255 6.953-14.066 6.953-6.812 0-10.012-3.068-14.066-6.953-4.479-4.292-9.555-9.158-19.553-9.158-10 0-15.077 4.866-19.555 9.159-4.053 3.885-7.254 6.953-14.066 6.953-6.811 0-10.011-3.068-14.064-6.953-1.375-1.318-2.807-2.688-4.419-3.955 10.919-2.325 27.079-6.344 45.474-12.796 29.182-10.235 69.218-28.695 98.071-59.19 6.512 15.567 15.261 34.926 24.515 50.96h-13.167c-2.19 0-3.966 1.776-3.966 3.966Zm40.784 89.517h-32.852v-67.375h32.852v67.375Zm0-75.308h-32.852v-10.243h32.852v10.243Zm18.931 75.308h-10.999v-67.375h10.999v67.375Zm0-75.308h-10.999v-10.243h10.999v10.243Zm-.233-21.724c-.722 2.604-1.992 3.35-4.397 3.548h-7.492c1.273-2.905 3.603-6.523 8.019-9.251 2.171-1.341 3.165-1.269 3.258-1.2.788.592 1.4 4.064.612 6.903Z" style="fill:#4f413b;fill-rule:nonzero"/>
  <path d="M160.789 223.288c-4.525 0-6.655 1.864-9.349 4.224-2.962 2.592-6.645 5.817-13.589 5.817-6.945 0-10.63-3.226-13.591-5.817-2.696-2.36-4.825-4.224-9.351-4.224-4.526 0-6.655 1.864-9.352 4.224-2.152 1.884-4.692 4.098-8.586 5.169 8.263 13.988 23.487 23.397 40.877 23.397 17.389 0 32.615-9.41 40.876-23.398-3.892-1.07-6.432-3.284-8.583-5.168-2.696-2.36-4.826-4.224-9.352-4.224Z" style="fill:#bdf3ff;fill-rule:nonzero"/>
  <path d="M52.067 55.907h23.487v10.829H52.067z" style="fill:#e1b658"/>
  <path d="M64.753 73.171h-1.887c-6.802.671-12.844 8.553-16.264 19.849h34.415c-3.42-11.296-9.462-19.178-16.264-19.849Z" style="fill:#129a58;fill-rule:nonzero"/>
  <path d="M43.651 113.922c0 5.066.49 9.947 1.368 14.47H82.6c.879-4.523 1.368-9.404 1.368-14.47 0-5.066-.49-9.947-1.368-14.47H45.019c-.878 4.523-1.368 9.403-1.368 14.47Z" style="fill:#ff5240;fill-rule:nonzero"/>
  <path d="M63.809 154.724c7.185 0 13.636-8.08 17.212-19.899H46.598c3.576 11.819 10.026 19.899 17.211 19.899Z" style="fill:#129a58;fill-rule:nonzero"/>
  <path d="M137.065 161.207c-17.061.279-31.956 9.606-40.094 23.378 3.892 1.072 6.433 3.284 8.586 5.168 2.694 2.36 4.824 4.224 9.348 4.224 4.527 0 6.656-1.864 9.353-4.226 2.96-2.59 6.643-5.816 13.587-5.816s10.628 3.225 13.588 5.817c2.697 2.36 4.826 4.224 9.353 4.224 4.526 0 6.655-1.864 9.352-4.224 2.153-1.884 4.693-4.098 8.589-5.168-8.138-13.773-23.034-23.099-40.094-23.378h-1.568v.001Z" style="fill:#bdf3ff;fill-rule:nonzero"/>
  <path d="m224.202 95.253-3.435-6.959-3.434 6.958a3.2171 3.2171 0 0 1-2.422 1.76l-7.682 1.117 5.558 5.418c.759.739 1.104 1.804.926 2.847l-1.313 7.648 6.869-3.611a3.203 3.203 0 0 1 1.497-.369c.515 0 1.028.122 1.497.369l6.871 3.613-1.312-7.649a3.2172 3.2172 0 0 1 .924-2.847l5.558-5.418-7.681-1.117c-1.047-.154-1.953-.811-2.421-1.76ZM160.785 200.41c-6.945 0-10.63-3.226-13.59-5.816-2.697-2.361-4.825-4.225-9.352-4.225-4.524 0-6.654 1.864-9.349 4.224-2.961 2.592-6.645 5.817-13.59 5.817-6.943 0-10.627-3.224-13.586-5.816-2.256-1.975-4.12-3.598-7.317-4.077-2.317 5.584-3.6 11.702-3.6 18.116 0 6.413 1.286 12.53 3.602 18.115 3.198-.48 5.062-2.102 7.318-4.077 2.961-2.591 6.644-5.817 13.588-5.817 6.945 0 10.628 3.225 13.589 5.817 2.697 2.36 4.826 4.225 9.353 4.225 4.526 0 6.656-1.864 9.352-4.224 2.959-2.592 6.644-5.817 13.587-5.817 6.945 0 10.628 3.226 13.589 5.818 2.254 1.974 4.119 3.596 7.314 4.075 2.316-5.585 3.602-11.701 3.602-18.114 0-6.414-1.283-12.532-3.6-18.116-3.2.478-5.064 2.102-7.321 4.077-2.961 2.59-6.645 5.815-13.589 5.815Z" style="fill:#ff5240;fill-rule:nonzero"/>
  <path d="M233.093 83.045 220.767 58.07l-12.325 24.975a3.2138 3.2138 0 0 1-2.421 1.76l-27.564 4.005 19.944 19.442c.759.739 1.104 1.804.925 2.847l-4.709 27.45 24.653-12.959c.468-.247.982-.37 1.497-.37.513 0 1.028.123 1.496.37l24.655 12.96-4.71-27.45a3.2195 3.2195 0 0 1 .926-2.848l19.944-19.441-27.564-4.005a3.2196 3.2196 0 0 1-2.421-1.761Zm11.182 11.843c.378 1.165.064 2.443-.814 3.298l-9.012 8.787 2.128 12.405a3.2172 3.2172 0 0 1-1.279 3.146c-.56.407-1.224.613-1.891.613-.513 0-1.026-.122-1.497-.369l-11.143-5.858-11.141 5.858c-1.083.57-2.396.475-3.388-.244a3.216 3.216 0 0 1-1.279-3.147l2.129-12.404-9.015-8.787a3.2183 3.2183 0 0 1-.815-3.298c.379-1.164 1.386-2.013 2.597-2.188l12.458-1.811 5.57-11.286a3.2173 3.2173 0 0 1 2.884-1.794c1.225 0 2.342.695 2.884 1.793l5.572 11.287 12.457 1.81c1.209.176 2.216 1.026 2.595 2.189Z" style="fill:#efd18d;fill-rule:nonzero"/>
  <path d="M123.849 141.338h28.005v13.435h-28.005z" style="fill:#e1b658"/>
  <path d="M223.651 79.602a3.2164 3.2164 0 0 0-2.884-1.793 3.215 3.215 0 0 0-2.884 1.794l-5.57 11.286-12.459 1.811c-1.21.175-2.217 1.025-2.596 2.188a3.22 3.22 0 0 0 .814 3.298l9.015 8.787-2.129 12.404a3.2188 3.2188 0 0 0 1.279 3.147c.993.72 2.306.814 3.388.244l11.141-5.858 11.143 5.858a3.2227 3.2227 0 0 0 3.388-.244 3.2159 3.2159 0 0 0 1.28-3.146l-2.129-12.405 9.013-8.787a3.2154 3.2154 0 0 0 .813-3.298 3.2138 3.2138 0 0 0-2.596-2.188l-12.457-1.811-5.57-11.287Zm5.096 23.944a3.2133 3.2133 0 0 0-.925 2.847l1.312 7.649-6.871-3.613a3.214 3.214 0 0 0-1.496-.369c-.515 0-1.029.122-1.497.369l-6.868 3.611 1.312-7.647a3.2148 3.2148 0 0 0-.926-2.847l-5.558-5.419 7.682-1.116a3.22 3.22 0 0 0 2.422-1.76l3.434-6.958 3.435 6.959a3.2183 3.2183 0 0 0 2.422 1.759l7.681 1.116-5.559 5.419Z" style="fill:#4f413b;fill-rule:nonzero"/>
  <path d="m270.453 83.381-32.34-4.7-14.131-28.63v-86.193h37.446c1.776 0 3.217-1.44 3.217-3.216 0-1.777-1.441-3.217-3.216-3.217H35.095c-1.776 0-3.217 1.44-3.217 3.217 0 1.776 1.441 3.216 3.217 3.216h25.499v85.618H48.85c-1.776 0-3.216 1.44-3.216 3.216v17.263c0 1.776 1.44 3.216 3.216 3.216h1.343c-7.822 8.131-12.974 23.169-12.974 40.752 0 26.487 11.681 47.234 26.591 47.234 14.911 0 26.592-20.747 26.592-47.234 0-17.577-5.147-32.618-12.966-40.752h1.334c1.776 0 3.216-1.44 3.216-3.216V52.692c0-1.776-1.44-3.216-3.216-3.216H67.026v-85.618h67.605v171.048h-14.002c-1.777 0-3.217 1.441-3.217 3.217v19.868c0 .266.042.523.104.77-19.656 8.041-33.547 27.356-33.547 49.872 0 29.708 24.17 53.877 53.879 53.877 29.709 0 53.879-24.169 53.879-53.877 0-22.516-13.888-41.84-33.545-49.881.06-.246.101-.498.101-.762v-19.867c0-1.776-1.44-3.217-3.217-3.217h-14.001V-36.142h76.485v86.193l-14.128 28.63-32.341 4.7a3.2184 3.2184 0 0 0-2.596 2.188 3.2158 3.2158 0 0 0 .814 3.298l23.401 22.81-5.526 32.207c-.206 1.207.289 2.427 1.28 3.146.56.407 1.224.614 1.891.614.512 0 1.025-.122 1.497-.37l28.925-15.205 28.927 15.205c1.084.569 2.396.476 3.387-.245.991-.719 1.486-1.939 1.28-3.145l-5.526-32.208 23.4-22.81c.877-.853 1.192-2.132.814-3.297a3.2182 3.2182 0 0 0-2.596-2.188ZM63.809 154.724c-7.185 0-13.635-8.08-17.211-19.899h34.423c-3.576 11.819-10.027 19.899-17.212 19.899Zm20.159-40.802c0 5.066-.489 9.947-1.367 14.47H45.019c-.879-4.523-1.368-9.404-1.368-14.47 0-5.066.49-9.947 1.368-14.47H82.6c.879 4.523 1.368 9.403 1.368 14.47Zm-2.951-20.903H46.602c3.42-11.296 9.461-19.177 16.263-19.848h1.888c6.802.671 12.844 8.553 16.264 19.848Zm-5.464-37.11v10.829H52.067V55.909h23.486Zm62.295 200.169c-17.39 0-32.614-9.409-40.877-23.397 3.893-1.071 6.434-3.285 8.586-5.169 2.697-2.36 4.826-4.224 9.352-4.224 4.526 0 6.655 1.864 9.351 4.224 2.961 2.592 6.646 5.817 13.591 5.817 6.944 0 10.627-3.226 13.589-5.817 2.696-2.36 4.824-4.224 9.349-4.224 4.526 0 6.655 1.864 9.352 4.225 2.151 1.884 4.691 4.097 8.583 5.167-8.261 13.988-23.486 23.398-40.876 23.398Zm47.446-47.445c0 6.413-1.286 12.529-3.602 18.114-3.196-.479-5.059-2.101-7.314-4.075-2.961-2.592-6.645-5.818-13.589-5.818-6.944 0-10.628 3.225-13.587 5.817-2.696 2.36-4.826 4.224-9.352 4.224-4.527 0-6.656-1.864-9.353-4.225-2.961-2.591-6.644-5.817-13.589-5.817-6.944 0-10.628 3.225-13.589 5.817-2.255 1.974-4.119 3.597-7.317 4.077-2.316-5.585-3.602-11.702-3.602-18.115 0-6.414 1.283-12.532 3.6-18.116 3.198.479 5.061 2.102 7.316 4.076 2.96 2.592 6.644 5.817 13.586 5.817 6.946 0 10.63-3.226 13.59-5.817 2.696-2.36 4.826-4.224 9.35-4.224 4.526 0 6.655 1.864 9.352 4.224 2.961 2.591 6.645 5.817 13.59 5.817 6.944 0 10.628-3.225 13.589-5.817 2.256-1.974 4.121-3.598 7.32-4.077 2.318 5.587 3.601 11.704 3.601 18.118Zm-6.568-24.047c-3.895 1.069-6.437 3.284-8.589 5.168-2.697 2.36-4.826 4.224-9.352 4.224-4.527 0-6.656-1.864-9.353-4.224-2.961-2.591-6.644-5.817-13.589-5.817-6.943 0-10.626 3.225-13.587 5.816-2.696 2.361-4.826 4.226-9.352 4.226-4.524 0-6.653-1.864-9.348-4.224-2.153-1.884-4.694-4.097-8.586-5.168 8.138-13.773 23.034-23.099 40.093-23.378h1.568c17.061.277 31.957 9.604 40.095 23.377Zm-26.877-43.247v13.435h-28.004v-13.435h28.004Zm91.285-33.088a3.2167 3.2167 0 0 0-.926 2.847l4.71 27.451-24.655-12.96c-.468-.246-.982-.37-1.496-.37s-1.029.123-1.497.37l-24.653 12.959 4.709-27.45a3.2133 3.2133 0 0 0-.925-2.847l-19.944-19.442 27.564-4.005a3.2144 3.2144 0 0 0 2.421-1.76l12.325-24.975 12.326 24.975a3.215 3.215 0 0 0 2.421 1.759l27.564 4.006-19.944 19.442Z" style="fill:#4f413b;fill-rule:nonzero"/>
  <clipPath id="a">
    <path d="M908.312-17.393H1175v266.688H908.312z"/>
  </clipPath>
  <g clip-path="url(#a)">
    <path d="M1074.29 93.78c.635-2.516.253-5.13-1.078-7.359l-12.527-20.989c-1.771-2.968-4.894-4.74-8.355-4.74-1.742 0-3.461.476-4.969 1.376l-62.34 37.205c-4.599 2.746-6.108 8.725-3.364 13.326l12.529 20.989c1.77 2.967 4.894 4.738 8.355 4.738 1.742 0 3.461-.476 4.969-1.375l62.338-37.207c2.229-1.329 3.807-3.448 4.442-5.964Z" style="fill:#fff;fill-rule:nonzero"/>
    <path d="M1035.93 130.12a2.743 2.743 0 0 1 2.442-1.495c.021 0 .042.001.062.001l14.683.328 6.679-13.078c.479-.938 1.431-1.509 2.504-1.495l11.391.255-4.754-7.964-54.912 32.774 2.063 3.457 13.164.295 6.678-13.078Z" style="fill:#ff5240;fill-rule:nonzero"/>
    <path d="M1042.65 141.414c.479-.939 1.442-1.511 2.505-1.495l14.672.333 6.673-13.074c.479-.939 1.446-1.517 2.504-1.495l11.436.259-3.429-5.746-13.113-.294-6.679 13.08c-.479.936-1.421 1.511-2.504 1.494l-14.682-.329-6.678 13.077a2.7447 2.7447 0 0 1-2.443 1.496c-.02 0-.04 0-.061-.001l-11.443-.256 3.415 5.722 13.156.299 6.671-13.07Z" style="fill:#129a58;fill-rule:nonzero"/>
    <path d="m1095.26 150.759-3.372-5.651c-3.174 6.658-6.956 21.319 10.086 36.632 4.32-14.676-6.498-30.656-6.616-30.828a2.4754 2.4754 0 0 1-.098-.153Z" style="fill:#e1b658;fill-rule:nonzero"/>
    <path d="M1083.83 154.062c.644-6.779 3.292-11.942 4.803-14.406l-4.865-8.151-13.158-.299-6.672 13.074c-.479.939-1.466 1.505-2.505 1.495l-14.672-.333-6.669 13.071a2.7432 2.7432 0 0 1-2.442 1.496h-.064l-11.434-.261 14.197 23.785c.367.615.479 1.35.312 2.046l-6.877 28.634c7.572-.791 23.73-.037 40.036 16.184 1.527-2.311 17.847-27.107 25.924-43.325-14.512-12.308-16.707-24.674-15.914-33.01Z" style="fill:#ff5240;fill-rule:nonzero"/>
    <path d="M1032.49 219.917c-1.298 8.758 3.294 19.266 14.994 22.815 12.007 3.642 19.595-2.879 23.306-7.602-16.792-17.292-33.215-16.112-38.3-15.213Z" style="fill:#e1b658;fill-rule:nonzero"/>
    <path d="M1073.62 103.812c2.971-2.09 5.083-5.13 5.98-8.689.995-3.937.395-8.026-1.686-11.513l-12.527-20.99c-2.729-4.572-7.734-7.413-13.065-7.413-2.733 0-5.423.744-7.78 2.151l-4.288 2.558-6.667-16.255c-.341-1.155-2.196-6.683-6.878-9.015V-14.65c0-1.515-1.228-2.743-2.742-2.743-1.515 0-2.743 1.229-2.743 2.743v48.306c-2.019.198-4.145.957-6.364 2.281-4.075 2.432-6.336 5.492-6.721 9.095-.594 5.554 3.737 10.169 4.63 11.055l11.142 13.583-41.71 24.894c-7.195 4.297-9.556 13.648-5.263 20.846l12.53 20.99c2.729 4.572 7.735 7.413 13.065 7.413 2.346 0 4.659-.552 6.759-1.597l25.766 43.169-7.592 31.607c-3.24 13.498 4.678 26.821 18.42 30.989 3.025.918 5.828 1.314 8.417 1.314 15.33-.001 23.064-13.913 24.049-15.818 1.579-2.383 19.306-29.245 27.273-45.966 8.572-17.989-4.583-37.984-5.707-39.637l-26.298-44.062Zm-56.706-51.322a2.7979 2.7979 0 0 0-.241-.258c-.959-.91-3.382-3.877-3.076-6.635.198-1.789 1.569-3.454 4.076-4.95 2.505-1.496 4.623-1.913 6.291-1.238 2.573 1.04 4.033 4.581 4.376 5.847.031.118.069.233.115.345l7.037 17.157-6.818 4.07-11.76-14.338Zm-9.412 84.462c-1.508.899-3.226 1.375-4.969 1.375-3.461 0-6.585-1.771-8.355-4.738L981.649 112.6c-2.745-4.601-1.235-10.58 3.364-13.326l62.34-37.205c1.508-.9 3.226-1.376 4.969-1.376 3.461 0 6.584 1.772 8.355 4.74l12.527 20.989c1.331 2.229 1.713 4.843 1.078 7.359-.635 2.517-2.213 4.635-4.442 5.965l-62.338 37.206Zm6.525 2.494 54.912-32.775 4.754 7.964-11.391-.254c-1.074-.014-2.025.557-2.504 1.494l-6.679 13.079-14.683-.329h-.062c-1.028 0-1.972.576-2.442 1.495l-6.678 13.078-13.164-.296-2.063-3.456Zm5.382 9.018 11.443.256c.02.001.041.001.061.001 1.029 0 1.974-.576 2.443-1.496l6.678-13.077 14.682.329c1.083.017 2.025-.558 2.504-1.494l6.679-13.079 13.113.293 3.429 5.746-11.436-.259c-1.057-.022-2.025.556-2.504 1.495l-6.673 13.074-14.672-.333c-1.063-.016-2.026.556-2.505 1.495l-6.669 13.071-13.156-.3-3.417-5.722Zm28.069 94.268c-11.7-3.549-16.292-14.057-14.994-22.816 5.085-.899 21.507-2.079 38.299 15.214-3.71 4.723-11.299 11.244-23.305 7.602Zm26.333-12.335c-16.306-16.221-32.465-16.975-40.036-16.184l6.877-28.634c.167-.696.055-1.431-.312-2.046l-14.197-23.785 11.434.261h.064c1.028 0 1.973-.576 2.442-1.496l6.669-13.071 14.672.333c1.039.01 2.027-.556 2.505-1.495l6.672-13.074 13.158.299 4.865 8.151c-1.512 2.464-4.16 7.628-4.803 14.406-.792 8.336 1.402 20.702 15.913 33.01-8.075 16.218-24.395 41.014-25.923 43.325Zm28.154-48.657c-17.043-15.313-13.26-29.974-10.086-36.632l3.372 5.651c.03.051.064.104.098.153.119.172 10.936 16.151 6.616 30.828Z" style="fill:#4f413b;fill-rule:nonzero"/>
  </g>
</svg>
