<svg xmlns="http://www.w3.org/2000/svg" xml:space="preserve" style="fill-rule:evenodd;clip-rule:evenodd;stroke-linejoin:round;stroke-miterlimit:2" viewBox="0 0 1587 1340">
  <path d="M0 0h1586.99v1339.26H0z" style="fill:none"/>
  <path d="M625.976 13.153c39.916 2.542 78.458 12.542 115.583 27.084 18.75 7.041 34.583 18.083 52.833 28 6.875-7.542 13.875-16 22.209-21.875 16.291-12.042 40.041-13.084 58.75-6.959 30.958 10.542 48.916 43.375 49.625 74.792.583 28.417-16.5 54.5-37.75 72.083 20.375 30.75 43.125 59.709 64.625 89.667 8.5 10.458 5.5 21.5 5.5 34.083-5.625 72.5-22.042 142.25-59.584 205.209-5.291 9.083-12.916 17.5-16.625 27.375 4.125 11.333 11.459 21.791 17.167 32.458 15.75 29.708 29.083 60.708 43.958 90.792 63.334-165.542 160.084-323.792 287.792-447.542 26.042-25.667 59.167-52.792 95.333-61.708 38.084-8.792 73.792 5.791 108 20.958 19.959 8.708 34.709 22.5 50.459 37.167 45.708 47.25 73.625 106.708 88.25 170.375 8.416 39.458 8.416 80.958 4.916 121-11.666 85.5-50.833 162.791-105.166 229-94.584 115.833-225.042 202.958-360.625 263.708-30.625 14.917-63.084 25.625-94.459 39-7.791 19.5-17.291 38.042-27.458 56.375 43.792 20.667 85.625 44.667 124.208 74 10.917 9.042 16.917 23.625 18.292 37.458 1.625 17.792-5.75 35.125-13.917 50.542-13.916 24.375-33.416 45.458-59.625 56.708-19.291 9.292-41.583 11.417-60.958 1.167-23.583-12.458-44.542-31-64.958-48.042-23.25-20.958-45.459-41.5-62-68.375-4.667 1.792-9.209 3.75-13.75 5.875 3.291 4.667 13.25 9.709 8.625 16.5-25.667 40.209-53.834 79.167-79.75 119.209h-10.209c-17.708-8.959-32.666-20.667-48.666-32.209-21.584 7.334-43.75 15.459-66.875 10.25-14.959-3.166-32.875-12.208-37.667-27.875-6.167-16.5-.792-31.458 2.792-47.75-9.167-5.5-16.5-11.791-27.875-11.458-23.167-.292-46.334.042-69.5.25 5.166 16.667 15.958 37.625 11.916 55.167-2.875 17.083-19.875 26.583-34.958 31.333-21 6.792-41.833.417-61.583-7.167-13.959-5.916-28.834-11.875-39.584-22.875-20.25-21.625-33.833-46.708-46.5-73.25-29.458-2.958-56.5-12.666-84.708-20.708-16.75 30.042-39.208 54.833-65.5 76.792-18.208 14.916-36.875 31.083-57.625 42.458-16.625 9.25-36.5 10.917-54.5 4.75-36.417-12-65.917-43.958-78.708-79.625-9.334-23.583-5.209-55.667 16.208-71.417 39.458-28.208 80.167-53.833 124.958-72.75-7.833-15.416-15.75-30.375-21.416-46.833-14.042-39.083-15.542-83.25-10-124.083 2.041-17.667 11.25-32.459 3.75-49.125-13.334-35.792-26.75-71.375-37.792-107.959 26.083-.791 50.833 5.292 76.75 6.584 12.917-39.959 26.625-79.5 43.708-117.875 16.25-40.125 38.042-77.209 59.167-114.792-7.958-16.083-19.375-30.25-27-46.625-17.167-31.917-30.542-65.333-40.5-100.167-5.083-15 4-27.5 8.833-41.291 10.375-27.667 22.334-54.667 32.292-82.5-13-7.292-25.375-13.709-35.5-25-27.792-28.875-28.375-80.375-1.458-109.917 15-16.583 38.083-25.542 60.291-21.25 13.375 2.5 26.209 11 37.834 17.75 46.625-52.042 109.541-86.417 177.25-102.208 46.5-11.625 94.958-17.334 142.875-14.709Z" style="fill:#040103;fill-rule:nonzero"/>
  <path d="M731.059 54.862c27.542 11.875 56.875 27.041 76.792 50-25.084-5.625-46.417-18.709-70.667-26.709-22.958-7.875-47-16.416-70.917-20.5-45.833-7.875-90.541-4.25-136.166 2.75-51.625 8.834-105 25.167-148.459 55.167-23.083 15.833-43.25 35.292-57.083 59.833-19.208 33.625-30.125 73.542-44.5 109.584-14.458 38.125-34.75 73.666-59.25 106.166-2.458-16.041 8.333-32.791 13.833-47.708 16.792-42.958 34-85.875 49.459-129.375 7-19.375 11.833-38.5 23.458-55.708 16-23.459 37.583-43.709 60.667-60.084 46.666-32.666 102.083-53.458 158.458-61.083 68.333-10.375 139.667-8.792 204.375 17.667Z" style="fill:#85644e;fill-rule:nonzero"/>
  <path d="M666.267 57.653c23.917 4.084 47.959 12.625 70.917 20.5 24.25 8 45.583 21.084 70.667 26.709 3.333 4.125 6.416 8.416 9.416 12.791 11.875 38.75 30.792 74.459 41.875 113.5 9.5 30.042 11.334 60.209 13.292 91.417 2.083 36.875-1 73.5-12.667 108.667-23.916 71.583-61.708 135.083-106.208 195.583 27.417-4.458 51.208-17.167 74.208-32.167 16.709 24.25 27.459 50.834 40.917 76.875 33.667 72.917 58.417 153.709 60.875 234.375 3.375 53.042-3.25 105.459-31.125 151.584-15.458 23.958-32.667 46.083-55.25 63.708l-1.875-11.833c6.458-19.5 11.667-38.834 12.917-59.417-4.042 11.25-7.792 22.542-12 33.75-15.25 18.958-22.542 41.375-34.792 62.042-15.917 27.708-32 56.333-52 81.333-20.375 26.5-59.458 38.958-91.083 27.708-9.042-2.708-11.5-11.208-16.459-18.416 13.709-27.917 27.792-53.334 32.084-84.75 7.666-53.584 10.291-108.209 10.125-162.292-1.375 8.708-2.834 17.5-3.834 26.25-1.833-21.167.292-42.542-1.708-63.625-47.417-58.292-142.042-64.125-197.708-14.083-19.084-13.292-38.459-26.209-57.709-39.25-25.625-15.125-30.75-53.625-49.083-75.834-13-9.291-31.083-12.75-46.25-17.291.75 9.541 1.25 19.083 1.583 28.625-15.25-11.375-31.541-21.209-46.666-32.792-9.5-6.875-17.417-14.208-29.292-16.542-23.75-4.916-48-7.625-71.958-11.541 7.333-31.917 19.791-60.834 31.5-91.417 18.041-43.542 38.5-85.792 63.25-125.958 19.458 21.791 38.625 43.25 62.625 60.25 39.583 29.541 86.541 45.041 135.833 46.791-47.833-7.125-93.125-24.75-130.208-56.291-65.875-54.167-104.625-135.584-129.667-215.459 24.5-32.5 44.792-68.041 59.25-106.166 14.375-36.042 25.292-75.959 44.5-109.584 13.833-24.541 34-44 57.083-59.833 43.459-30 96.834-46.333 148.459-55.167 45.625-7 90.333-10.625 136.166-2.75Z" style="fill:#765337;fill-rule:nonzero"/>
  <path d="M854.934 52.778c35.917 2 58.208 40.834 51.833 74.167-3 18.833-14.75 30.375-27.166 43.625-26.084-29.792-41.959-65.542-70.25-93.625 13.75-12.958 24.708-25.917 45.583-24.167ZM817.267 117.653c40.625 57.542 80.5 115.834 123.542 171.584-.25 21.75-1.833 43.25-5.25 64.708-8.833 56.458-24.917 115.667-55.458 164.5-29.417 48.25-74.209 86.917-126.542 108.375 44.5-60.5 82.292-124 106.208-195.583 11.667-35.167 14.75-71.792 12.667-108.667-1.958-31.208-3.792-61.375-13.292-91.417-11.083-39.041-30-74.75-41.875-113.5Z" style="fill:#54322d;fill-rule:nonzero"/>
  <path d="M255.017 128.695c14.042-.667 26.917 8 38.792 14.458-4.208 7.25-8.417 14.292-12.167 21.792-9.541-8.542-16.208-19.417-30.75-17.833-22.541 1.416-30.333 18-42.625 33.791l-.916-9.291c4.666-22.917 24.083-41.292 47.666-42.917Z" style="fill:#84644f;fill-rule:nonzero"/>
  <path d="M250.892 147.112c14.542-1.584 21.209 9.291 30.75 17.833-11.5 28.583-20.291 58.167-32.041 86.708-12.917-7.75-25.042-14.541-33.375-27.666-10.875-15.667-12.167-34.084-8.875-52.375l.916 9.291c12.292-15.791 20.084-32.375 42.625-33.791Z" style="fill:#765137;fill-rule:nonzero"/>
  <path d="M1363.1 173.778c30.291 4.709 61.041 15.625 85.75 34.125 37.666 28.625 65.666 72.334 85.458 114.75-40.542 4.959-80.708 12.292-121.167 17.917-36.125-51.958-74.916-107.375-123.333-148.542 22.083-14.416 46.708-22.25 73.292-18.25Z" style="fill:#201710;fill-rule:nonzero"/>
  <path d="M1289.81 192.028c48.417 41.167 87.208 96.584 123.333 148.542 40.459-5.625 80.625-12.958 121.167-17.917 1.875 4.125 3.583 8.292 5.125 12.459-.333 3.458-.708 6.916-1.083 10.416-37.125 6.417-74.584 9.459-111.375 17.542 25.833 49.042 50.333 97.5 65.083 151.25 2.625 7.5 4.25 17.833 9.833 23.625 16.834 2.708 33.959 3.083 50.75 6.583-1.75 6.875-3.583 13.709-5.666 20.459-13.334-.25-26.75-.625-40.084-.209 2.834 22.834 7.375 45.459 12.125 67.959-6.041 12.166-12.666 23.833-20.041 35.25-8.167-31.667-6.625-63.709-14.834-95.292-.666-3.833-2.166-6.875-4.5-9.042-12-2.458-24.833-1.958-37.041-2-49.917.792-99.25.25-149.084 4.667 4.625 14.917 9.667 29.75 14.875 44.5 12.834 36.542 21.459 73.917 30.667 111.458 39.958 3.459 79.333-2.958 119.25 2.167-6.667 8.125-13.625 16-20.625 23.792-30.958-2.584-62.375-2.959-93.292 0 1.959 27.5 7.125 54.625 8.459 82.25-6.542 5.416-13.209 10.666-19.917 15.875-5.833-32.542-7.417-65.542-13.167-98.084-30.041-2.833-59.625.334-89.666.375-36.5 1.084-73.084 1.792-109.542 3.875 3.458 29.167 10.167 57.667 14.083 86.75 2.875 20.834 5.334 41.709 8.292 62.5 33.208 2.5 63.458-.916 95.458 10.417-8.333 5.292-16.625 10.542-25.291 15.292-22.792.166-45.542-1.5-68.334-.792.917 11.958 1.792 23.958 2.625 35.958-7.416 3.834-14.875 7.625-22.416 11.292-1.292-15.583-2.709-31.125-4.167-46.667-31.75.25-63.083 4.542-94.792 5.709l-1.25-9.584c0-4.208.042-8.375.125-12.541 30.875-3.667 61.875-5.375 92.875-7.375-2.083-49.917-12.041-99.667-21.125-148.709-38.916-.541-78.875 4.542-117.583 9.459-1.417-4.042-2.75-8.042-4-12.125-.042-3.75-.083-7.5-.083-11.292 38.333-4.625 76.791-7.25 115.25-10.5-6.417-43.375-18.5-86.292-30.959-128.333-26.708 5.5-51.625 16.041-77.75 23.541l-2.25-6.125c2.959-7.083 6.334-13.958 9.709-20.875 21.5-6.583 43-13.041 64.166-20.708-6.791-22.333-13.708-44.625-20.083-67.042 4.625-8.375 9.417-16.625 14.333-24.833 12.209 28.125 18.75 57.75 29 86.542 30.584-4.25 60.584-11.5 91.125-16 30.042-4.792 60.334-7.375 90.417-11.917-21.75-47.333-45.583-95.417-76.792-137.333-34.083 6.125-65.625 20.041-99.958 22.625 6.042-9.542 12.375-18.792 18.917-28 22.458-4.334 44.458-9.709 66.416-16.084-9-12.666-18.208-25.125-29.125-36.25 5.292-6.75 10.625-13.458 16.084-20.041 13.041 17.125 25.833 34.333 39.666 50.833 44.334-8 88.25-18.042 132.792-25.125 19.833-3.042 39.667-6.125 59.375-9.958-13.333-28.25-33.333-50-53.042-74.834-18.458-23.25-40.125-43.5-59.166-66.333 5.458-4.167 10.916-8.333 16.708-12.042Z" style="fill:#413023;fill-rule:nonzero"/>
  <path d="M1273.1 204.07c19.041 22.833 40.708 43.083 59.166 66.333 19.709 24.834 39.709 46.584 53.042 74.834-19.708 3.833-39.542 6.916-59.375 9.958-44.542 7.083-88.458 17.125-132.792 25.125-13.833-16.5-26.625-33.708-39.666-50.833C1190.6 284.82 1228.6 241.612 1273.1 204.07Z" style="fill:#201710;fill-rule:nonzero"/>
  <path d="M673.351 228.528c17.041-7.041 37.75-5.833 50.958 8.125 17.333 17.209 23.167 51.334 7.958 71.334-18.083 24.083-62.791 20.291-76.25-6.959-13.291-23.708-9.708-60.25 17.334-72.5Z" style="fill:#010001;fill-rule:nonzero"/>
  <path d="M673.309 249.278c8.542-5.666 19.542-1.875 24 6.959 5.542 10.916-4.958 24.916-17.208 22.791-15-1.25-21.125-22.541-6.792-29.75Z" style="fill:#fcfcfc;fill-rule:nonzero"/>
  <path d="M423.642 258.695c12.334-2.625 25.459-2.625 36.125 4.958 28.042 18.042 30.334 67.542 1.334 85.792-19.584 13.208-50.917 10.75-63.25-11.208-14.625-27.125-8.834-71.459 25.791-79.542Z" style="fill:#010001;fill-rule:nonzero"/>
  <path d="M461.059 279.362c.5 10.208 4.625 20.125-6.542 26.125-15.5 8.958-30.583-10.875-19.791-24.209 8.041-9.833 16.208-3.833 26.333-1.916Z" style="fill:#fcfcfc;fill-rule:nonzero"/>
  <path d="M651.851 350.778c19.333 13.75 29.875 35.625 29.625 59.292.666 22.792-9.042 40.292-18.459 60.125-15.166 7.75-31.166 13.542-47.208 19.125-5.458-9.292-11.375-18.667-15.708-28.542-4.417-10.625-4.917-23.625-6.167-35 17.625-12.791 34.25-27.666 41.667-48.833.041-14.042-14.209-19.917-26.042-21.667-26.833-3.833-58.458-.083-81.167 15.792-7 4.833-11.125 11.375-8.541 20.042 13.208 18.708 31.916 30.125 53.166 37.916 2.709 24.5 1.209 44.375-4.916 68.167-10.875-.792-21.834-1.292-32.667-2.708-19-12.709-35.583-27.5-45.667-48.417-9.291-19.375-12.166-41.667-1.708-61.25 13.792-25.417 40.083-42.083 67.708-48.792 33-7.541 67.834-5.375 96.084 14.75Z" style="fill:#b2875d;fill-rule:nonzero"/>
  <path d="M1539.43 335.112c8.458 22.125 13.042 45.875 17.833 69.041 8.375 46.875 5.209 94.042-4.625 140.375-16.791-3.5-33.916-3.875-50.75-6.583-5.583-5.792-7.208-16.125-9.833-23.625-14.75-53.75-39.25-102.208-65.083-151.25 36.791-8.083 74.25-11.125 111.375-17.542.375-3.5.75-6.958 1.083-10.416Z" style="fill:#201710;fill-rule:nonzero"/>
  <path d="M785.351 344.112c22.666-5.375 51.291-4.417 69.375 12.166 11.666 12.334 9 31.167-1.292 43.459-25.458 30.333-73.25 42.791-109.417 25.25-13.5-6.667-23.125-23.084-16.166-37.792 9.166-25.25 33.125-36.625 57.5-43.083Z" style="fill:#9e5837;fill-rule:nonzero"/>
  <path d="M1137.39 349.528c10.917 11.125 20.125 23.584 29.125 36.25-21.958 6.375-43.958 11.75-66.416 16.084 12.625-17.792 23.75-35.375 37.291-52.334Z" style="fill:#1f150e;fill-rule:nonzero"/>
  <path d="M609.559 355.278c11.833 1.75 26.083 7.625 26.042 21.667-7.417 21.167-24.042 36.042-41.667 48.833 1.25 11.375 1.75 24.375 6.167 35 4.333 9.875 10.25 19.25 15.708 28.542 16.042-5.583 32.042-11.375 47.208-19.125 13.25-7.458 15.834-21.042 24.959-32.917l10.208-.5c5.583 13.167-3.542 24.792-9.833 35.792-7.584 12.875-24.917 18.167-37.75 24.417-4.875 17.875-10.75 35.041-17.75 52.166-22.209.75-45.292 7.417-67.25 5.292-11.292-12.625-19.459-28.042-29.667-41.542-13.542-2.25-27.875-2.25-38.75-11.583-9-7.333-18-16.042-23.625-26.292-2.542-8.208 1.958-14.416 10.583-11.75 10.875 6.917 18.375 19.209 28.959 26.459 6.916 2.916 14.958 3.5 22.333 4.75 10.833 1.416 21.792 1.916 32.667 2.708 6.125-23.792 7.625-43.667 4.916-68.167-21.25-7.791-39.958-19.208-53.166-37.916-2.584-8.667 1.541-15.209 8.541-20.042 22.709-15.875 54.334-19.625 81.167-15.792Z" style="fill:#020102;fill-rule:nonzero"/>
  <path d="M1400.85 366.903c13.416 22.417 26.041 45.25 36.75 69.084 15.041 33.458 29.583 66.333 36.375 102.458-63.334-1.375-126.584.333-189.792 4.708-12.583-23.75-23.042-48.458-36.083-71.958-12.334-23.667-27.084-45.875-40.042-69.208 32.542-7.917 65.542-13.125 98.417-19.417 31.416-5.708 62.666-11.875 94.375-15.667Z" style="fill:#201710;fill-rule:nonzero"/>
  <path d="M351.976 394.445c32-6.625 65.625-3.25 89.708 20.75 11.833 11.583 10.958 31.708-.625 43.125-16.542 16.917-42.458 21.458-65.167 20.417-24.541-.292-55.291-13.292-64.583-37.625-6.25-24.375 19.542-42.75 40.667-46.667Z" style="fill:#9e5837;fill-rule:nonzero"/>
  <path d="M1181.14 407.237c31.209 41.916 55.042 90 76.792 137.333-30.083 4.542-60.375 7.125-90.417 11.917-30.541 4.5-60.541 11.75-91.125 16-10.25-28.792-16.791-58.417-29-86.542 11.25-18.667 22.375-37.458 33.792-56.083 34.333-2.584 65.875-16.5 99.958-22.625Z" style="fill:#201710;fill-rule:nonzero"/>
  <path d="M591.726 484.737c4.541 8.125 8.958 16.791 15.041 23.833 8.417 3 19-2.625 27.209-4.958-3.209 11.083-6.584 22.125-10.25 33.083-6.042.333-12.125.625-18.167.917-3.583-11.667-7.208-23.334-11-34.917a2782.745 2782.745 0 0 0-3.25 37.125c-6.333.792-12.667 1.542-19 2.292-6-8.959-12-17.875-18.125-26.75 9.083.5 18.167 1.041 27.25 1.375 3.625-10.625 6.958-21.292 10.292-32Z" style="fill:#fcfcfc;fill-rule:nonzero"/>
  <path d="M594.559 502.695c3.792 11.583 7.417 23.25 11 34.917 6.042-.292 12.125-.584 18.167-.917-10.792.917-21.625 1.833-32.417 3.125 1-12.375 2.083-24.75 3.25-37.125Z" style="fill:#9f9f9f;fill-rule:nonzero"/>
  <path d="M1033.06 510.778c6.375 22.417 13.292 44.709 20.083 67.042-21.166 7.667-42.666 14.125-64.166 20.708 13.791-29.75 28.708-58.791 44.083-87.75Z" style="fill:#1f160e;fill-rule:nonzero"/>
  <path d="M868.601 559.112c3.958 5.833 7.625 11.791 11.125 17.916 38.333 70.625 67.125 144.667 91.25 221.209 12.708 40.416 26.541 78.333 33.666 120.291 5.375 28.834 8.084 57.5 2.375 86.542-9.166 53.792-42.833 100.958-82.833 136.708-23.833 22.375-55.333 36.459-84.542 50.834-6.958-6.167-14-12.25-21.125-18.292 8.209-21.458 15.375-43.208 22.792-64.958l1.875 11.833c22.583-17.625 39.792-39.75 55.25-63.708 27.875-46.125 34.5-98.542 31.125-151.584-2.458-80.666-27.208-161.458-60.875-234.375-13.458-26.041-24.208-52.625-40.917-76.875 15.209-10.25 27.542-23.166 40.834-35.541Z" style="fill:#54332e;fill-rule:nonzero"/>
  <path d="M1442.6 561.653c12.208.042 25.041-.458 37.041 2 2.334 2.167 3.834 5.209 4.5 9.042 8.209 31.583 6.667 63.625 14.834 95.292-12.709 19.416-26.584 38.083-40.667 56.458-39.917-5.125-79.292 1.292-119.25-2.167-9.208-37.541-17.833-74.916-30.667-111.458-5.208-14.75-10.25-29.583-14.875-44.5 49.834-4.417 99.167-3.875 149.084-4.667Z" style="fill:#201710;fill-rule:nonzero"/>
  <path d="M1506.89 564.778c13.334-.416 26.75-.041 40.084.209-7.209 23.416-17 45.833-27.959 67.75-4.75-22.5-9.291-45.125-12.125-67.959Z" style="fill:#1e150d;fill-rule:nonzero"/>
  <path d="M1267.56 568.737c20.792 49 36.792 102.416 46.917 154.666-66.375.959-132.584 3.75-198.917 5.709-10-44.209-21.875-87.959-31.917-132.167 59.5-14.833 122.709-24.708 183.917-28.208ZM1059.27 601.987c12.459 42.041 24.542 84.958 30.959 128.333-38.459 3.25-76.917 5.875-115.25 10.5 0 3.792.041 7.542.083 11.292-5.583-17.459-12.625-34.5-17.708-52.125-3.667-11.875.5-22.084 4.125-33.334 5.666-15.833 11.291-31.75 17.791-47.25l2.25 6.125c26.125-7.5 51.042-18.041 77.75-23.541ZM1230.1 748.653c30.041-.041 59.625-3.208 89.666-.375 5.75 32.542 7.334 65.542 13.167 98.084-30.292 23.416-62.375 45.083-94.542 65.833-32-11.333-62.25-7.917-95.458-10.417-2.958-20.791-5.417-41.666-8.292-62.5-3.916-29.083-10.625-57.583-14.083-86.75 36.458-2.083 73.042-2.791 109.542-3.875Z" style="fill:#201710;fill-rule:nonzero"/>
  <path d="M1344.39 748.237c30.917-2.959 62.334-2.584 93.292 0-25.417 29.833-55.25 55.833-84.833 82.25-1.334-27.625-6.5-54.75-8.459-82.25Z" style="fill:#1f160f;fill-rule:nonzero"/>
  <path d="M1096.64 754.778c9.084 49.042 19.042 98.792 21.125 148.709-31 2-62 3.708-92.875 7.375a628.569 628.569 0 0 0-.125 12.541c-3.625-20.791-7.583-41.208-13.833-61.375-10.292-32.791-19.083-65.875-31.875-97.791 38.708-4.917 78.667-10 117.583-9.459Z" style="fill:#201710;fill-rule:nonzero"/>
  <path d="M167.184 782.987c26.75 2.458 52.958 7.708 79.458 11.875 10.709 2.083 20.792 3.25 28.084 12.25 11.5 14.333 19.166 32.041 28.166 48.041-21.25-10.416-41.75-22.125-62.791-32.916-.042 6.166 0 12.291.125 18.416-27.5-10.541-49.792-29.291-76.5-41.416 1.291-5.375 2.333-10.834 3.458-16.25Z" style="fill:#8a613b;fill-rule:nonzero"/>
  <path d="M163.726 799.237c26.708 12.125 49 30.875 76.5 41.416.166 4.5.5 8.959.833 13.459-13.375.041-26.708.166-40.083.625 5.75 19.125 22.291 23.916 33.416 38.708 4.334 8.875 5.584 19.542 7.667 29.167-19.292.125-38.708 1.458-58 .583-13.708-.417-27.542-9.167-31.875-22.542-8.667-22.333-16.583-44.916-25.042-67.291 15.292-9.334 29.834-16.167 36.584-34.125Z" style="fill:#a67b52;fill-rule:nonzero"/>
  <path d="M302.017 826.362c10.917 6.25 23.334 12.291 32.334 21.166 6.125 7.334 8.166 18.459 11.291 27.375 2.084-.125 4.125-.25 6.167-.375 1.958-5 3.875-9.958 5.833-14.958 7.917-2.292 15.834-4.583 23.709-6.917 14.041 24.959 24.166 51.375 40.458 75.084 3.958-4.125 7.958-8.25 11.917-12.375 11.458 7.541 24.708 14.625 34.083 24.708 2.25 14.875-1.875 31.042-2.708 46.042-34.709-23.167-69.292-46.5-104.084-69.5-31.958-20.959-64.916-45.292-98.916-63.167-2.375 3.917-4.75 7.875-7.125 11.792.208-7.125.333-14.25.5-21.375 22.791 10.833 43.75 24.333 67.375 33.458-.792-19.917-12.75-32.833-20.834-50.958Z" style="fill:#401f0a;fill-rule:nonzero"/>
  <path d="M348.642 823.695c6.584 2.458 13.167 4.917 19.75 7.417-1.416 4.625-2.833 9.25-4.25 13.875-4-1-7.958-2-11.958-3-1.208-6.084-2.375-12.209-3.542-18.292Z" style="fill:#856a58;fill-rule:nonzero"/>
  <path d="M262.101 853.445c34 17.875 66.958 42.208 98.916 63.167 34.792 23 69.375 46.333 104.084 69.5-.5 8.75-.625 17.625-.75 26.375 23.708 11.333 42.041 26.25 69.666 26.416 24.917 5.542 43.167 22.834 64.25 36.417 20.542 14.292 42.917 26.333 62.5 41.875 6.25 4.583 7.417 10.708 9.167 17.875-5.208 35.333-20.625 66.208-40.042 95.75-42.375-28.333-84.625-56.833-126.833-85.458-1.042-5.917-2.083-11.834-3.125-17.75-26.542-2.375-53.167-3.584-79.625-6.709-3.542-8.5-7-17-10.292-25.583 8.959-3.958 13.709-5.458 18.042-14.833-12.583-1.5-23.833-.584-34.292-8.875-65.708-45.375-132.458-89.209-198.041-134.75 20.875-.125 41.5.125 62.125-3.5-3.125-14.125-5.334-28.667-9.667-42.5-2.917-9.125-12.583-16.292-19.292-22.792 8.667-.833 17.459-1.5 26.084-2.833 2.375-3.917 4.75-7.875 7.125-11.792Z" style="fill:#603813;fill-rule:nonzero"/>
  <path d="M684.559 951.945c2 21.083-.125 42.458 1.708 63.625-1.083 18.5-3.416 36.875-5.666 55.25-65.084-43.542-128.709-89.292-193.75-132.958 55.666-50.042 150.291-44.209 197.708 14.083Z" style="fill:#b2875d;fill-rule:nonzero"/>
  <path d="M142.892 918.862c9.584 4.875 18.75 11.208 27.625 17.333 72.459 49.875 146.167 98.042 218.209 148.5-10.167 2.333-20.334 4.625-30.459 6.917 4.667 15.916 15.834 26.875 28.375 37.041 5.334 4.334 11.75 3.959 18.292 4.709 21.292 1.333 42.75 2.458 63.958 4.916l2.584 4c1.125 27.792 7.25 56.875 3.25 84.417-2.25 13.625-9.75 32.417-24.334 36.708-15.833 3.75-34.333-.5-50.333-2.625-25.75-33-38.333-69.666-55-107.333-15-33.917-27.708-68.292-39.625-103.375 5.792 52.458 27 95.792 42.375 145.125-30.625-4.958-60.042-13.958-87.667-28.208-50.333-25-87.625-70.084-106.75-122.584-16-39.25-16.583-84.125-10.5-125.541Z" style="fill:#765337;fill-rule:nonzero"/>
  <path d="M1120.81 927.278c1.458 15.542 2.875 31.084 4.167 46.667-32.417 14.417-64.75 30-98.542 40.917 2.125-27.459 4.292-54.5-.417-81.875 31.709-1.167 63.042-5.459 94.792-5.709Z" style="fill:#1f160f;fill-rule:nonzero"/>
  <path d="M1144.77 926.695c22.792-.708 45.542.958 68.334.792-21.459 12.583-43.5 23.958-65.709 35.166-.833-12-1.708-24-2.625-35.958Z" style="fill:#1f150d;fill-rule:nonzero"/>
  <path d="M481.684 950.612c33.917 23.5 68.042 46.708 101.875 70.333-.917 2.5-1.833 5-2.75 7.542-18.333-1.209-36.792-2.042-55.083-3.917-17-1.167-33.709-13.333-48.667-21.042 1.458-17.625 3-35.25 4.625-52.916Z" style="fill:#a57b54;fill-rule:nonzero"/>
  <path d="M600.809 1030.19c26.167 17.417 52.667 35 77.708 54.042-2.708 16.958-5.541 33.916-8.583 50.833-1.75-7.167-2.917-13.292-9.167-17.875-19.583-15.542-41.958-27.583-62.5-41.875-21.083-13.583-39.333-30.875-64.25-36.417 14.875.917 30.417 3.667 45.292 1.917 7.5-2.375 14.417-7.125 21.5-10.625Z" style="fill:#401f0a;fill-rule:nonzero"/>
  <path d="M842.226 1083.69c-10.917 36.708-27.917 72.667-42.917 108.042-9.958 23.625-22.25 46.166-36.917 67.208-19.25 28.958-56.625 44.917-90.708 43.417-15.583-.709-31.292-7.584-35.25-24-2.333-13.709 6.042-29.667 11.458-42 4.959 7.208 7.417 15.708 16.459 18.416 31.625 11.25 70.708-1.208 91.083-27.708 20-25 36.083-53.625 52-81.333 12.25-20.667 19.542-43.084 34.792-62.042Z" style="fill:#53322d;fill-rule:nonzero"/>
  <path d="M379.601 1097.61c15.541 2.375 21.416 9.541 28.541 22.791-15.875-1.625-24.083-7.375-28.541-22.791Z" style="fill:#765e50;fill-rule:nonzero"/>
  <path d="M159.184 1112.69c14.833 13.875 26.583 29.583 42.333 42.667 15.584 12.958 33.042 23.916 49.834 35.291-17.542 34.375-50.834 61.667-80.917 84.959-15.375 10.916-32.792 27.583-52.792 26.75-19.541.375-35.958-8.667-50.083-21.375-19.667-16.917-36.583-41.5-39.708-67.667-.542-20.75 13.625-32.5 29.125-43.375 32.208-21.333 65.958-43.5 102.208-57.25ZM984.017 1112.36c35.25 14.416 68.125 35.625 99.75 56.625 13.625 9.625 27.834 18.75 30.084 36.791 2.166 19.334-9.209 40.042-20.292 55.167-16.167 21.458-39.292 41.375-67.625 41.458-21.417.709-37.917-13.833-53.667-26.25-30-24.75-62.416-50.916-85.041-82.791 15.75-11 32.166-21.209 47.25-33.084 18.458-14.5 32-32.583 49.541-47.916Z" style="fill:#201710;fill-rule:nonzero"/>
  <path d="M471.476 1142.28c12.041 18.042 18.125 37.542 27.833 56.875 9.25 20.25 19.292 41.042 24.542 62.75 1.541 9.042 3.291 22.125-4.875 28.584-13.042 11.916-30.5 13.541-47.334 11.208-28.125-4.958-54.5-17.25-71.583-40.917 16 2.125 34.5 6.375 50.333 2.625 14.584-4.291 22.084-23.083 24.334-36.708 4-27.542-2.125-56.625-3.25-84.417Z" style="fill:#54322d;fill-rule:nonzero"/>
  <path d="M495.892 1156.9c28.292 18.042 55.584 37.709 83.709 56.042-19.917.375-39.834.333-59.75.292-8.125-18.709-16.542-37.334-23.959-56.334Z" style="fill:#b08660;fill-rule:nonzero"/>
  <path d="M815.809 1187.44c13.792 8.833 26.417 18.917 39.375 28.875-6.792 11.75-14.042 23.208-22.25 34.083-10.917-9.916-22.125-18.416-34.75-26.041 5.25-12.584 10.833-25.042 17.625-36.917Z" style="fill:#41200c;fill-rule:nonzero"/>
  <path d="M798.184 1224.36c12.625 7.625 23.833 16.125 34.75 26.041-18.583 25.125-35.375 51.584-53.292 77.25-13.541-8-26.916-16.166-40.041-24.791 28.375-19.667 44.25-47.959 58.583-78.5Z" style="fill:#603714;fill-rule:nonzero"/>
</svg>
