<svg xmlns="http://www.w3.org/2000/svg" xml:space="preserve" width="105" height="105"
  style="fill-rule:evenodd;clip-rule:evenodd;stroke-linejoin:round;stroke-miterlimit:2">
  <path d="M1.937 19.482H102.23v84.637H1.937z" style="fill:none" />
  <path
    d="M41.497 20.314c2.522.16 4.958.792 7.304 1.711 1.185.445 2.186 1.143 3.339 1.77.434-.477.877-1.011 1.404-1.383 1.029-.761 2.53-.826 3.712-.439 1.957.666 3.092 2.741 3.137 4.726.036 1.796-1.043 3.444-2.386 4.556 1.288 1.943 2.725 3.773 4.084 5.666.537.661.348 1.359.348 2.154-.356 4.582-1.393 8.99-3.766 12.969-.334.574-.816 1.106-1.051 1.73.261.716.725 1.377 1.085 2.051.996 1.878 1.838 3.837 2.778 5.738C65.488 51.101 71.602 41.1 79.673 33.28c1.646-1.622 3.739-3.337 6.025-3.9 2.406-.556 4.663.366 6.825 1.324 1.261.551 2.194 1.422 3.189 2.349 2.888 2.986 4.653 6.744 5.577 10.767.532 2.494.532 5.117.311 7.647-.738 5.404-3.213 10.288-6.646 14.472-5.978 7.321-14.223 12.827-22.791 16.666-1.935.943-3.987 1.619-5.97 2.465-.492 1.232-1.092 2.404-1.735 3.562 2.768 1.307 5.411 2.823 7.85 4.677.69.571 1.069 1.493 1.156 2.367.102 1.125-.364 2.22-.88 3.194-.879 1.541-2.112 2.873-3.768 3.584-1.219.587-2.628.722-3.852.074-1.491-.787-2.815-1.959-4.105-3.036-1.47-1.325-2.873-2.623-3.919-4.321-.295.113-.582.237-.869.371.208.295.838.614.546 1.043-1.623 2.541-3.403 5.003-5.04 7.533h-.646c-1.119-.566-2.064-1.306-3.075-2.035-1.364.463-2.765.977-4.226.648-.946-.2-2.078-.772-2.381-1.762-.39-1.043-.05-1.988.177-3.018-.58-.347-1.043-.745-1.762-.724-1.464-.018-2.928.003-4.392.016.326 1.053 1.008 2.378.753 3.486-.182 1.08-1.256 1.68-2.21 1.981-1.327.429-2.643.026-3.891-.453-.883-.374-1.823-.751-2.502-1.446-1.28-1.367-2.138-2.952-2.939-4.629-1.861-.187-3.57-.801-5.353-1.309-1.058 1.899-2.478 3.465-4.139 4.853-1.151.943-2.331 1.964-3.642 2.683-1.051.585-2.307.69-3.444.301-2.302-.759-4.166-2.778-4.974-5.032-.59-1.491-.33-3.518 1.024-4.514 2.494-1.782 5.066-3.402 7.897-4.597-.495-.975-.995-1.92-1.354-2.96-.887-2.47-.982-5.261-.631-7.842.128-1.116.71-2.051.237-3.104-.843-2.262-1.691-4.511-2.389-6.823 1.648-.05 3.213.334 4.851.416.816-2.525 1.682-5.024 2.762-7.449 1.027-2.536 2.404-4.88 3.739-7.255-.503-1.016-1.225-1.912-1.706-2.946-1.085-2.017-1.931-4.129-2.56-6.331-.321-.948.253-1.738.558-2.609.656-1.749 1.412-3.455 2.041-5.214-.822-.461-1.604-.866-2.243-1.58-1.757-1.825-1.794-5.079-.093-6.946.948-1.048 2.407-1.614 3.811-1.343.845.158 1.656.695 2.391 1.122 2.946-3.289 6.922-5.462 11.201-6.46 2.939-.734 6.001-1.095 9.03-.929Z"
    style="fill:#040103;fill-rule:nonzero" />
  <path
    d="M48.138 22.95c1.74.75 3.594 1.709 4.853 3.159-1.586-.355-2.934-1.182-4.466-1.687-1.451-.498-2.971-1.038-4.482-1.296-2.897-.498-5.722-.269-8.605.174-3.263.558-6.636 1.59-9.383 3.486-1.458 1.001-2.733 2.231-3.607 3.781-1.214 2.125-1.904 4.648-2.812 6.926-.914 2.409-2.196 4.655-3.745 6.709-.155-1.014.527-2.072.874-3.015 1.062-2.715 2.149-5.427 3.126-8.176.442-1.224.748-2.433 1.483-3.52 1.011-1.483 2.375-2.763 3.834-3.798 2.949-2.064 6.451-3.378 10.014-3.86 4.318-.656 8.826-.556 12.916 1.117Z"
    style="fill:#85644e;fill-rule:nonzero" />
  <path
    d="M44.043 23.126c1.511.258 3.031.798 4.482 1.296 1.532.505 2.88 1.332 4.466 1.687.21.261.405.532.595.809.75 2.449 1.946 4.705 2.646 7.173.6 1.898.716 3.805.84 5.777.132 2.33-.063 4.645-.8 6.867-1.512 4.524-3.9 8.537-6.712 12.361 1.732-.282 3.236-1.085 4.689-2.033 1.056 1.532 1.736 3.212 2.586 4.858 2.128 4.608 3.692 9.714 3.847 14.812.213 3.352-.205 6.665-1.967 9.58-.977 1.514-2.064 2.912-3.491 4.026l-.119-.748c.408-1.232.737-2.454.816-3.755-.255.711-.492 1.425-.758 2.133-.964 1.198-1.425 2.615-2.199 3.921-1.006 1.751-2.022 3.56-3.286 5.14-1.288 1.674-3.758 2.462-5.756 1.751-.572-.171-.727-.708-1.04-1.164.866-1.764 1.756-3.371 2.027-5.356.485-3.386.651-6.838.64-10.256-.087.55-.179 1.106-.242 1.659-.116-1.338.018-2.689-.108-4.021-2.997-3.684-8.977-4.053-12.495-.89-1.206-.84-2.43-1.657-3.647-2.481-1.619-.956-1.943-3.389-3.102-4.792-.821-.588-1.964-.806-2.923-1.093.048.603.08 1.206.101 1.809-.964-.719-1.994-1.34-2.95-2.072-.6-.435-1.1-.898-1.851-1.046-1.501-.31-3.033-.482-4.547-.729.463-2.017 1.25-3.845 1.99-5.778 1.141-2.751 2.434-5.421 3.998-7.96 1.229 1.377 2.441 2.734 3.957 3.808 2.502 1.867 5.47 2.846 8.585 2.957-3.023-.45-5.886-1.564-8.229-3.557-4.163-3.424-6.612-8.569-8.195-13.617 1.549-2.054 2.831-4.3 3.745-6.709.908-2.278 1.598-4.801 2.812-6.926.874-1.55 2.149-2.78 3.607-3.781 2.747-1.896 6.12-2.928 9.383-3.486 2.883-.443 5.708-.672 8.605-.174Z"
    style="fill:#765337;fill-rule:nonzero" />
  <path
    d="M55.966 22.818c2.27.126 3.679 2.58 3.276 4.687-.19 1.19-.932 1.92-1.717 2.757-1.648-1.883-2.652-4.142-4.44-5.917.869-.819 1.562-1.638 2.881-1.527Zm-2.38 4.1c2.567 3.636 5.087 7.32 7.807 10.843-.016 1.375-.116 2.734-.332 4.09-.558 3.568-1.574 7.31-3.504 10.396-1.859 3.049-4.69 5.493-7.997 6.849 2.812-3.824 5.2-7.837 6.712-12.361.737-2.222.932-4.537.8-6.867-.124-1.972-.24-3.879-.84-5.777-.7-2.468-1.896-4.724-2.646-7.173Z"
    style="fill:#54322d;fill-rule:nonzero" />
  <path
    d="M18.053 27.616c.888-.043 1.701.505 2.452.913-.266.459-.532.904-.769 1.378-.603-.54-1.025-1.228-1.944-1.127-1.424.089-1.917 1.137-2.693 2.135l-.058-.587c.295-1.448 1.522-2.61 3.012-2.712Z"
    style="fill:#84644f;fill-rule:nonzero" />
  <path
    d="M17.792 28.78c.919-.101 1.341.587 1.944 1.127-.727 1.806-1.283 3.676-2.025 5.479-.816-.49-1.583-.919-2.109-1.748-.688-.99-.769-2.154-.561-3.31l.058.587c.776-.998 1.269-2.046 2.693-2.135Z"
    style="fill:#765137;fill-rule:nonzero" />
  <path
    d="M88.081 30.465c1.914.297 3.857.987 5.419 2.156 2.38 1.809 4.15 4.572 5.401 7.252-2.562.314-5.101.777-7.658 1.132-2.283-3.283-4.734-6.785-7.794-9.387 1.396-.911 2.952-1.406 4.632-1.153Z"
    style="fill:#201710;fill-rule:nonzero" />
  <path
    d="M83.449 31.618c3.06 2.602 5.511 6.104 7.794 9.387 2.557-.355 5.096-.818 7.658-1.132.118.261.226.524.324.788-.022.218-.045.437-.069.658-2.346.405-4.713.598-7.039 1.108 1.633 3.1 3.181 6.162 4.114 9.559.165.474.268 1.127.621 1.493 1.064.171 2.146.195 3.207.416-.11.435-.226.866-.358 1.293-.842-.016-1.69-.039-2.533-.013.179 1.443.466 2.873.766 4.295-.382.768-.8 1.506-1.266 2.227-.516-2.001-.419-4.026-.938-6.022-.042-.242-.137-.434-.284-.571-.759-.156-1.57-.124-2.341-.127-3.155.05-6.272.016-9.422.295.293.943.611 1.88.94 2.813.811 2.309 1.356 4.671 1.938 7.043 2.526.219 5.014-.187 7.537.137-.422.514-.861 1.011-1.304 1.504-1.956-.163-3.942-.187-5.896 0 .124 1.738.451 3.452.535 5.198-.413.342-.835.674-1.259 1.003-.368-2.056-.468-4.142-.832-6.199-1.898-.179-3.768.022-5.666.024-2.307.069-4.619.113-6.923.245.218 1.843.642 3.644.89 5.482.182 1.317.337 2.636.524 3.95 2.098.158 4.01-.058 6.033.659-.527.334-1.051.666-1.599.966-1.44.01-2.878-.095-4.318-.05.058.756.113 1.514.166 2.272-.469.243-.94.482-1.417.714-.082-.985-.171-1.967-.263-2.949-2.007.016-3.987.287-5.991.361l-.079-.606c0-.266.003-.529.008-.793 1.951-.231 3.91-.339 5.869-.466-.131-3.154-.761-6.298-1.335-9.398-2.459-.034-4.984.287-7.431.598-.089-.255-.173-.508-.252-.766-.003-.237-.006-.474-.006-.714 2.423-.292 4.853-.458 7.284-.663-.406-2.742-1.169-5.454-1.957-8.111-1.688.348-3.262 1.014-4.913 1.488l-.142-.387c.187-.448.4-.882.613-1.319 1.359-.416 2.718-.824 4.055-1.309-.429-1.411-.866-2.82-1.269-4.237.292-.529.595-1.05.906-1.569.771 1.777 1.185 3.649 1.833 5.469 1.932-.269 3.828-.727 5.758-1.011 1.899-.303 3.813-.466 5.715-.753-1.375-2.992-2.881-6.03-4.853-8.679-2.154.387-4.148 1.266-6.318 1.43.382-.604.782-1.188 1.196-1.77 1.419-.274 2.81-.614 4.197-1.017-.569-.8-1.15-1.587-1.84-2.29.334-.427.671-.851 1.016-1.267.824 1.082 1.633 2.17 2.507 3.213 2.802-.506 5.577-1.141 8.392-1.588 1.253-.192 2.507-.387 3.752-.63-.842-1.785-2.106-3.159-3.352-4.729-1.166-1.469-2.536-2.749-3.739-4.192.345-.263.69-.527 1.056-.761Z"
    style="fill:#413023;fill-rule:nonzero" />
  <path
    d="M82.393 32.379c1.203 1.443 2.573 2.723 3.739 4.192 1.246 1.57 2.51 2.944 3.352 4.729-1.245.243-2.499.438-3.752.63-2.815.447-5.59 1.082-8.392 1.588-.874-1.043-1.683-2.131-2.507-3.213 2.346-2.823 4.748-5.553 7.56-7.926Z"
    style="fill:#201710;fill-rule:nonzero" />
  <path
    d="M44.491 33.925c1.077-.445 2.385-.369 3.22.513 1.095 1.088 1.464 3.244.503 4.508-1.143 1.522-3.968 1.283-4.819-.439-.84-1.499-.613-3.808 1.096-4.582Z"
    style="fill:#010001;fill-rule:nonzero" />
  <path d="M44.488 35.236c.54-.358 1.235-.118 1.517.44.35.69-.314 1.575-1.088 1.44-.948-.079-1.335-1.424-.429-1.88Z"
    style="fill:#fcfcfc;fill-rule:nonzero" />
  <path
    d="M28.71 35.831c.779-.166 1.609-.166 2.283.314 1.772 1.14 1.917 4.268.084 5.421-1.238.835-3.218.68-3.997-.708-.924-1.714-.558-4.516 1.63-5.027Z"
    style="fill:#010001;fill-rule:nonzero" />
  <path d="M31.074 37.137c.032.645.293 1.272-.413 1.651-.98.566-1.933-.687-1.251-1.53.508-.621 1.024-.242 1.664-.121Z"
    style="fill:#fcfcfc;fill-rule:nonzero" />
  <path
    d="M43.132 41.651c1.222.869 1.888 2.251 1.872 3.747.042 1.44-.571 2.546-1.167 3.799-.958.49-1.969.856-2.983 1.209-.345-.587-.719-1.18-.993-1.804-.279-.671-.31-1.493-.389-2.212 1.114-.808 2.164-1.748 2.633-3.086.003-.887-.898-1.258-1.646-1.369-1.696-.242-3.694-.005-5.129.998-.443.305-.703.719-.54 1.267.835 1.182 2.017 1.903 3.36 2.396.171 1.548.076 2.804-.311 4.308-.687-.05-1.38-.082-2.064-.171-1.201-.804-2.249-1.738-2.886-3.06-.588-1.225-.769-2.633-.108-3.871.871-1.606 2.533-2.66 4.279-3.084 2.085-.476 4.287-.339 6.072.933Z"
    style="fill:#b2875d;fill-rule:nonzero" />
  <path
    d="M99.224 40.661c.535 1.398.824 2.899 1.127 4.363.529 2.962.329 5.943-.292 8.871-1.061-.221-2.144-.245-3.207-.416-.353-.366-.456-1.019-.622-1.493-.932-3.397-2.48-6.459-4.113-9.559 2.325-.51 4.693-.703 7.039-1.108.023-.221.047-.44.068-.658Z"
    style="fill:#201710;fill-rule:nonzero" />
  <path
    d="M51.569 41.229c1.432-.339 3.241-.279 4.384.769.737.78.569 1.97-.082 2.747-1.609 1.917-4.629 2.704-6.915 1.595-.853-.421-1.461-1.458-1.021-2.388.579-1.596 2.093-2.315 3.634-2.723Z"
    style="fill:#9e5837;fill-rule:nonzero" />
  <path
    d="M73.816 41.572c.69.703 1.272 1.49 1.841 2.29-1.388.403-2.778.743-4.197 1.017.798-1.124 1.501-2.236 2.356-3.307Z"
    style="fill:#1f150e;fill-rule:nonzero" />
  <path
    d="M40.459 41.935c.748.111 1.649.482 1.646 1.369-.469 1.338-1.519 2.278-2.633 3.086.079.719.11 1.541.389 2.212.274.624.648 1.217.993 1.804 1.014-.353 2.025-.719 2.983-1.209.838-.471 1.001-1.329 1.578-2.08l.645-.031c.353.832-.224 1.566-.621 2.262-.48.813-1.575 1.148-2.386 1.543-.308 1.129-.68 2.214-1.122 3.296-1.403.048-2.862.469-4.25.335-.714-.798-1.23-1.772-1.875-2.626-.856-.142-1.761-.142-2.449-.732-.568-.463-1.137-1.013-1.493-1.661-.16-.519.124-.911.669-.743.687.437 1.161 1.214 1.83 1.672.437.185.946.222 1.412.301.684.089 1.377.121 2.064.171.387-1.504.482-2.76.311-4.308-1.343-.493-2.525-1.214-3.36-2.396-.163-.548.097-.962.54-1.267 1.435-1.003 3.433-1.24 5.129-.998Z"
    style="fill:#020102;fill-rule:nonzero" />
  <path
    d="M90.466 42.67c.848 1.416 1.646 2.859 2.323 4.366.95 2.114 1.869 4.192 2.299 6.475-4.003-.087-8 .021-11.995.297-.795-1.501-1.456-3.062-2.28-4.547-.78-1.496-1.712-2.899-2.531-4.374 2.057-.5 4.142-.83 6.22-1.227 1.985-.361 3.96-.751 5.964-.99Z"
    style="fill:#201710;fill-rule:nonzero" />
  <path
    d="M24.181 44.41c2.022-.418 4.147-.205 5.669 1.312.748.732.692 2.003-.04 2.725-1.045 1.069-2.683 1.356-4.118 1.29-1.551-.018-3.494-.84-4.081-2.378-.395-1.54 1.235-2.701 2.57-2.949Z"
    style="fill:#9e5837;fill-rule:nonzero" />
  <path
    d="M76.581 45.219c1.973 2.649 3.479 5.687 4.853 8.679-1.901.287-3.815.45-5.714.753-1.93.284-3.826.742-5.759 1.011-.647-1.82-1.061-3.692-1.832-5.469.711-1.18 1.414-2.367 2.135-3.544 2.17-.164 4.163-1.043 6.317-1.43Z"
    style="fill:#201710;fill-rule:nonzero" />
  <path
    d="M39.332 50.116c.287.514.566 1.062.951 1.507.532.189 1.2-.166 1.719-.314-.203.701-.416 1.399-.648 2.091-.381.021-.766.04-1.148.058-.226-.737-.455-1.475-.695-2.207-.074.782-.142 1.564-.205 2.347-.4.05-.801.097-1.201.144-.379-.566-.758-1.129-1.145-1.69.574.031 1.148.066 1.722.087.229-.672.439-1.346.65-2.023Z"
    style="fill:#fcfcfc;fill-rule:nonzero" />
  <path
    d="M39.511 51.251c.24.732.469 1.47.695 2.207.382-.018.767-.037 1.148-.058-.682.058-1.366.116-2.048.198.063-.783.131-1.565.205-2.347Z"
    style="fill:#9f9f9f;fill-rule:nonzero" />
  <path
    d="M67.223 51.762c.403 1.417.84 2.826 1.269 4.237-1.337.485-2.696.893-4.055 1.309.872-1.88 1.814-3.716 2.786-5.546Z"
    style="fill:#1f160e;fill-rule:nonzero" />
  <path
    d="M56.83 54.817c.25.368.482.745.703 1.132 2.422 4.463 4.242 9.142 5.767 13.98.803 2.554 1.677 4.95 2.127 7.602.34 1.822.511 3.634.15 5.469-.579 3.399-2.707 6.38-5.234 8.64-1.507 1.414-3.497 2.304-5.343 3.212-.44-.39-.885-.774-1.335-1.156.518-1.356.971-2.731 1.44-4.105l.119.748c1.427-1.114 2.514-2.512 3.491-4.026 1.762-2.915 2.18-6.228 1.967-9.58-.155-5.098-1.719-10.204-3.847-14.812-.85-1.646-1.53-3.326-2.586-4.858.961-.648 1.741-1.464 2.581-2.246Z"
    style="fill:#54332e;fill-rule:nonzero" />
  <path
    d="M93.105 54.977c.772.003 1.583-.029 2.341.127.148.137.242.329.285.571.518 1.996.421 4.021.937 6.022-.803 1.227-1.68 2.407-2.57 3.568-2.523-.324-5.011.082-7.536-.137-.582-2.372-1.127-4.734-1.938-7.043-.329-.933-.648-1.87-.94-2.813 3.149-.279 6.267-.245 9.421-.295Z"
    style="fill:#201710;fill-rule:nonzero" />
  <path
    d="M97.168 55.175c.843-.026 1.691-.003 2.533.013-.455 1.48-1.074 2.897-1.767 4.282-.3-1.422-.587-2.852-.766-4.295Z"
    style="fill:#1e150d;fill-rule:nonzero" />
  <path
    d="M82.043 55.425c1.314 3.097 2.325 6.472 2.965 9.774-4.195.061-8.379.237-12.571.361-.632-2.794-1.383-5.559-2.017-8.352 3.76-.938 7.755-1.562 11.623-1.783ZM68.88 57.526c.787 2.657 1.551 5.369 1.956 8.111-2.43.205-4.861.371-7.283.663 0 .24.002.477.005.714-.353-1.104-.798-2.181-1.119-3.294-.232-.751.031-1.396.26-2.107.359-1.001.714-2.006 1.125-2.986l.142.387c1.651-.474 3.226-1.14 4.914-1.488Zm10.796 9.269c1.898-.002 3.768-.203 5.666-.024.364 2.057.464 4.143.832 6.199-1.914 1.48-3.942 2.849-5.974 4.161-2.023-.717-3.935-.501-6.033-.659-.187-1.314-.343-2.633-.524-3.95-.248-1.838-.672-3.639-.89-5.482 2.304-.132 4.616-.176 6.923-.245Z"
    style="fill:#201710;fill-rule:nonzero" />
  <path
    d="M86.899 66.769c1.954-.187 3.939-.163 5.895 0-1.606 1.885-3.491 3.528-5.361 5.198-.084-1.746-.411-3.46-.534-5.198Z"
    style="fill:#1f160f;fill-rule:nonzero" />
  <path
    d="M71.241 67.182c.574 3.1 1.204 6.244 1.335 9.398-1.959.127-3.918.235-5.869.466-.005.264-.008.529-.008.793-.229-1.314-.479-2.604-.874-3.879-.651-2.072-1.206-4.163-2.015-6.18 2.447-.311 4.972-.632 7.431-.598Z"
    style="fill:#201710;fill-rule:nonzero" />
  <path
    d="M12.502 68.965c1.691.155 3.347.487 5.022.75.677.132 1.314.206 1.775.775.726.905 1.211 2.025 1.78 3.036-1.343-.659-2.639-1.399-3.969-2.081-.002.39 0 .777.008 1.164-1.738-.666-3.146-1.851-4.834-2.617.081-.34.147-.685.218-1.027Z"
    style="fill:#8a613b;fill-rule:nonzero" />
  <path
    d="M12.284 69.992c1.688.766 3.096 1.951 4.834 2.617.011.285.032.566.053.851-.845.002-1.688.01-2.533.039.363 1.209 1.409 1.512 2.112 2.447.274.561.353 1.235.484 1.843-1.219.008-2.446.092-3.665.037-.867-.027-1.741-.58-2.015-1.425-.547-1.411-1.048-2.838-1.582-4.252.966-.59 1.885-1.022 2.312-2.157Z"
    style="fill:#a67b52;fill-rule:nonzero" />
  <path
    d="M21.023 71.706c.69.395 1.475.777 2.044 1.338.387.463.516 1.166.713 1.73.132-.008.261-.016.39-.024.124-.316.245-.629.369-.945.5-.145 1-.29 1.498-.437.887 1.577 1.527 3.246 2.557 4.745.25-.261.503-.522.753-.782.724.476 1.561.924 2.154 1.561.142.94-.119 1.962-.171 2.91-2.194-1.464-4.379-2.939-6.578-4.392-2.02-1.325-4.103-2.863-6.251-3.992-.15.247-.3.497-.451.745.014-.45.022-.901.032-1.351 1.44.685 2.765 1.538 4.258 2.115-.05-1.259-.806-2.075-1.317-3.221Z"
    style="fill:#401f0a;fill-rule:nonzero" />
  <path
    d="M23.97 71.538c.416.155.832.31 1.248.468-.089.293-.179.585-.269.877-.252-.063-.502-.126-.755-.189-.077-.385-.15-.772-.224-1.156Z"
    style="fill:#856a58;fill-rule:nonzero" />
  <path
    d="M18.501 73.418c2.148 1.129 4.231 2.667 6.251 3.992 2.199 1.453 4.384 2.928 6.578 4.392-.032.553-.04 1.114-.048 1.667 1.499.716 2.657 1.659 4.403 1.669 1.575.35 2.728 1.443 4.06 2.302 1.299.903 2.713 1.664 3.95 2.646.395.29.469.677.58 1.13-.329 2.233-1.304 4.184-2.531 6.051a1477.497 1477.497 0 0 1-8.015-5.401l-.198-1.122c-1.677-.15-3.36-.226-5.032-.424-.224-.537-.442-1.074-.65-1.616.566-.251.866-.345 1.14-.938-.795-.095-1.506-.037-2.167-.561-4.153-2.867-8.371-5.638-12.516-8.516 1.319-.007 2.623.008 3.926-.221-.197-.892-.337-1.811-.611-2.686-.184-.576-.795-1.029-1.219-1.44.548-.053 1.103-.095 1.648-.179.151-.248.301-.498.451-.745Z"
    style="fill:#603813;fill-rule:nonzero" />
  <path
    d="M45.199 79.643c.126 1.332-.008 2.683.108 4.021-.069 1.169-.216 2.33-.358 3.491-4.113-2.752-8.134-5.643-12.245-8.402 3.518-3.163 9.498-2.794 12.495.89Z"
    style="fill:#b2875d;fill-rule:nonzero" />
  <path
    d="M10.967 77.552c.606.308 1.185.708 1.746 1.095 4.579 3.152 9.237 6.196 13.79 9.385-.642.147-1.285.292-1.925.437.295 1.006 1.001 1.699 1.793 2.341.338.274.743.25 1.156.298 1.346.084 2.702.155 4.042.31l.164.253c.071 1.756.458 3.594.205 5.335-.142.861-.616 2.049-1.538 2.32-1 .237-2.17-.032-3.181-.166-1.627-2.085-2.422-4.403-3.476-6.783-.948-2.144-1.751-4.316-2.504-6.533.366 3.315 1.707 6.054 2.678 9.171-1.935-.313-3.794-.882-5.54-1.782-3.181-1.58-5.538-4.429-6.746-7.747-1.011-2.481-1.048-5.317-.664-7.934Z"
    style="fill:#765337;fill-rule:nonzero" />
  <path
    d="M72.769 78.084c.092.982.181 1.964.263 2.949-2.049.911-4.092 1.896-6.228 2.586.135-1.735.272-3.444-.026-5.174 2.004-.074 3.984-.345 5.991-.361Z"
    style="fill:#1f160f;fill-rule:nonzero" />
  <path
    d="M74.283 78.047c1.44-.045 2.878.06 4.318.05-1.356.795-2.749 1.514-4.152 2.222-.053-.758-.108-1.516-.166-2.272Z"
    style="fill:#1f150d;fill-rule:nonzero" />
  <path
    d="M32.378 79.558c2.143 1.486 4.3 2.952 6.438 4.445-.058.158-.116.316-.174.477-1.158-.077-2.325-.129-3.481-.248-1.074-.073-2.13-.842-3.075-1.329.092-1.114.189-2.228.292-3.345Z"
    style="fill:#a57b54;fill-rule:nonzero" />
  <path
    d="M39.906 84.587c1.654 1.101 3.329 2.212 4.911 3.415-.171 1.072-.35 2.144-.542 3.213-.111-.453-.185-.84-.58-1.13-1.237-.982-2.651-1.743-3.95-2.646-1.332-.858-2.485-1.951-4.06-2.302.94.058 1.922.232 2.862.122.474-.15.911-.451 1.359-.672Z"
    style="fill:#401f0a;fill-rule:nonzero" />
  <path
    d="M55.163 87.969c-.69 2.319-1.764 4.592-2.712 6.827-.63 1.494-1.406 2.918-2.333 4.248-1.217 1.83-3.579 2.838-5.733 2.744-.985-.045-1.977-.48-2.227-1.517-.148-.866.381-1.875.724-2.654.313.455.468.992 1.04 1.163 1.998.711 4.468-.076 5.756-1.751 1.264-1.579 2.28-3.388 3.286-5.14.774-1.306 1.235-2.722 2.199-3.92Z"
    style="fill:#53322d;fill-rule:nonzero" />
  <path d="M25.926 88.848c.983.15 1.354.603 1.804 1.441-1.003-.103-1.522-.466-1.804-1.441Z"
    style="fill:#765e50;fill-rule:nonzero" />
  <path
    d="M11.997 89.801c.937.877 1.68 1.87 2.675 2.697.985.818 2.088 1.511 3.149 2.23-1.108 2.172-3.212 3.897-5.113 5.369-.972.69-2.073 1.743-3.337 1.69-1.235.024-2.272-.547-3.165-1.35-1.243-1.069-2.312-2.623-2.509-4.277-.034-1.311.861-2.054 1.84-2.741 2.036-1.348 4.169-2.749 6.46-3.618Zm52.127-.021c2.227.911 4.305 2.252 6.304 3.579.861.608 1.759 1.185 1.901 2.325.137 1.222-.582 2.53-1.283 3.486-1.021 1.356-2.483 2.615-4.273 2.62-1.354.045-2.396-.874-3.392-1.659-1.896-1.564-3.944-3.217-5.374-5.232.995-.695 2.033-1.34 2.986-2.091 1.166-.916 2.022-2.059 3.131-3.028Z"
    style="fill:#201710;fill-rule:nonzero" />
  <path
    d="M31.733 91.671c.761 1.14 1.145 2.373 1.759 3.594.584 1.28 1.219 2.594 1.551 3.966.097.571.208 1.398-.308 1.806-.825.754-1.928.856-2.992.709-1.777-.314-3.444-1.09-4.524-2.586 1.011.134 2.181.403 3.181.166.922-.271 1.396-1.459 1.538-2.32.253-1.741-.134-3.579-.205-5.335Z"
    style="fill:#54322d;fill-rule:nonzero" />
  <path
    d="M33.276 92.596c1.788 1.14 3.512 2.383 5.29 3.541-1.259.024-2.518.021-3.776.019-.514-1.183-1.046-2.36-1.514-3.56Z"
    style="fill:#b08660;fill-rule:nonzero" />
  <path
    d="M53.494 94.525c.871.558 1.669 1.195 2.488 1.825-.429.742-.888 1.466-1.406 2.154-.69-.627-1.398-1.164-2.196-1.646.331-.795.684-1.583 1.114-2.333Z"
    style="fill:#41200c;fill-rule:nonzero" />
  <path
    d="M52.38 96.858c.798.482 1.506 1.019 2.196 1.646-1.175 1.588-2.236 3.26-3.368 4.882-.856-.506-1.701-1.022-2.531-1.567 1.794-1.243 2.797-3.031 3.703-4.961Z"
    style="fill:#603714;fill-rule:nonzero" />
  <path
    d="M85.859 95.498c0-.625.508-1.134 1.133-1.134.626 0 1.134.509 1.134 1.134 0 .096-.013.189-.036.278.739-.276 1.511-.601 2.284-.979-.288-.206-.476-.542-.476-.922 0-.625.509-1.134 1.134-1.134.604 0 1.098.476 1.131 1.073 1.06-.655 2.075-1.425 2.959-2.33-.447-.1-.723-.363-.954-.584-.261-.25-.466-.447-.897-.447-.43 0-.636.197-.896.447-.292.279-.654.626-1.343.626-.69 0-1.052-.347-1.343-.626-.261-.25-.467-.447-.897-.447s-.636.197-.897.447c-.291.279-.653.626-1.343.626-.039 0-.077-.001-.114-.004-.757 1.834-1.793 4.09-2.824 5.54.627-.127 1.567-.343 2.674-.678a1.1288 1.1288 0 0 1-.429-.886Zm7.11-4.064a.325.325 0 0 1 .228-.095c.085 0 .168.035.228.095s.094.143.094.228a.324.324 0 0 1-.094.228.324.324 0 0 1-.228.094.324.324 0 0 1-.228-.094.325.325 0 0 1-.095-.228c0-.085.035-.168.095-.228Zm-4.442 0c.06-.06.143-.095.229-.095.084 0 .168.035.228.095s.094.143.094.228a.324.324 0 0 1-.094.228.3247.3247 0 0 1-.457 0 .3284.3284 0 0 1-.094-.228c0-.085.035-.168.094-.228Zm-.179 1.931c.061-.06.143-.095.229-.095.084 0 .167.035.228.095.06.06.094.143.094.228a.324.324 0 0 1-.094.228.3247.3247 0 0 1-.457 0 .3284.3284 0 0 1-.094-.228c0-.085.035-.168.094-.228Zm-1.584-.529a.3247.3247 0 0 1 .457 0c.059.06.094.143.094.228 0 .085-.035.168-.094.228-.06.06-.143.095-.229.095a.3268.3268 0 0 1-.228-.095.324.324 0 0 1-.094-.228c0-.085.034-.168.094-.228Z"
    style="fill:#129a58;fill-rule:nonzero" />
  <path
    d="M87.449 90.434c.291-.279.654-.626 1.343-.626.69 0 1.052.347 1.343.626.26.25.466.447.897.447.43 0 .636-.197.896-.447.292-.279.654-.626 1.343-.626.69 0 1.052.347 1.343.626.261.25.467.447.897.447.654 0 1.603-.267 2.027-.479-4.996-1.583-8.48-5.097-9.556-6.292-.844 1.989-1.978 4.382-3.07 5.803.328.124.552.337.744.521.26.25.466.447.896.447.431 0 .637-.197.897-.447Zm3.355-1.609a.325.325 0 0 1 .228-.095c.085 0 .168.035.228.095s.094.143.094.228c0 .085-.034.167-.094.228a.324.324 0 0 1-.228.094.324.324 0 0 1-.228-.094.325.325 0 0 1-.095-.228c0-.085.035-.168.095-.228Zm-2.36-2.643c.625 0 1.134.509 1.134 1.135 0 .625-.509 1.133-1.134 1.133-.625 0-1.134-.509-1.134-1.133 0-.626.509-1.135 1.134-1.135Zm-2.196 3.076c0-.085.034-.168.094-.228a.325.325 0 0 1 .228-.095c.085 0 .168.034.228.095.06.06.095.143.095.228 0 .084-.035.167-.095.228a.324.324 0 0 1-.228.094.324.324 0 0 1-.228-.094.3276.3276 0 0 1-.094-.228Z"
    style="fill:#129a58;fill-rule:nonzero" />
  <path
    d="M88.443 87.805c.27 0 .489-.219.489-.488 0-.27-.219-.49-.489-.49-.269 0-.488.22-.488.49 0 .269.219.488.488.488Z"
    style="fill:#efd18d;fill-rule:nonzero" />
  <path
    d="M86.504 95.498c0 .269.219.489.488.489.27 0 .489-.22.489-.489a.489.489 0 0 0-.489-.489c-.269 0-.488.22-.488.489Z"
    style="fill:#ff5240;fill-rule:nonzero" />
  <path
    d="M90.543 93.875c0 .27.22.489.489.489.27 0 .489-.219.489-.489 0-.269-.219-.489-.489-.489-.269 0-.489.22-.489.489Z"
    style="fill:#fff;fill-rule:nonzero" />
  <path d="M82.39 102.5h8.337v1.022H82.39z" style="fill:#e1b658" />
  <path
    d="M88.353 82.889c.224-.215.503-.482 1.042-.482s.817.267 1.041.482c.19.182.316.303.596.303.279 0 .405-.121.595-.303.224-.215.503-.482 1.042-.482s.818.267 1.042.482c.19.182.315.303.595.303.28 0 .405-.121.596-.303.1-.096.211-.202.351-.291-.926-.793-1.782-1.967-2.494-3.138-.19.203-.396.403-.618.597.016.077.025.156.025.237 0 .625-.509 1.134-1.134 1.134-.213 0-.412-.06-.583-.163-1.279.757-2.576 1.251-3.395 1.522.038.034.074.069.109.102.19.182.315.302.595.302.279.001.405-.12.595-.302Zm4.228-1.685a.325.325 0 0 1 .228-.095c.085 0 .168.035.228.095s.095.143.095.228c0 .084-.035.167-.095.228a.324.324 0 0 1-.228.094.324.324 0 0 1-.228-.094.3276.3276 0 0 1-.094-.228c0-.085.034-.168.094-.228Z"
    style="fill:#129a58;fill-rule:nonzero" />
  <path d="M93.131 87.317c0 .269.22.488.489.488.27 0 .489-.219.489-.488 0-.27-.219-.49-.489-.49-.269 0-.489.22-.489.49Z"
    style="fill:#ff5240;fill-rule:nonzero" />
  <path
    d="M90.543 80.294c0 .27.22.489.489.489.27 0 .489-.219.489-.489 0-.269-.219-.489-.489-.489-.269 0-.489.22-.489.489Z"
    style="fill:#fff;fill-rule:nonzero" />
  <path d="M80.29 102.5h1.455v1.022H80.29V102.5Zm0-1.407h1.455v.761H80.29v-.761Z" style="fill:#e1b658" />
  <path
    d="M89.898 80.294c0-.625.509-1.134 1.134-1.134.306 0 .583.122.787.32.217-.196.416-.397.596-.602-.615-1.076-1.095-2.092-1.383-2.737-.574 1.285-1.91 4.038-3.551 5.809.721-.268 1.63-.656 2.526-1.174-.069-.147-.109-.31-.109-.482Zm.906-2.412c.06-.061.143-.095.228-.095.085 0 .168.034.227.095a.3203.3203 0 0 1 0 .455.321.321 0 0 1-.227.095.3208.3208 0 0 1-.228-.095.3203.3203 0 0 1 0-.455Zm2.461 5.473c-.19-.183-.316-.303-.596-.303-.28 0-.405.12-.595.303-.224.214-.503.481-1.042.481s-.818-.267-1.042-.481c-.19-.183-.315-.303-.595-.303-.28 0-.405.12-.595.303-.102.097-.216.206-.36.295.589.65 2.014 2.111 4.058 3.519.072-.556.547-.987 1.123-.987.625 0 1.133.509 1.133 1.134 0 .394-.201.741-.506.944.8.448 1.664.864 2.586 1.213-1.05-1.528-2.109-3.824-2.886-5.681-.316-.086-.515-.276-.683-.437Zm-2.005 1.759a.324.324 0 0 1-.228.094.324.324 0 0 1-.228-.094.3235.3235 0 0 1 0-.456c.06-.059.143-.095.228-.095.085 0 .168.035.228.095s.095.143.095.229c0 .084-.035.167-.095.227Zm2.165 0a.3208.3208 0 0 1-.456 0 .3245.3245 0 0 1-.095-.227c0-.086.035-.169.095-.229.06-.059.143-.094.228-.094.085 0 .168.034.228.094s.094.143.094.229a.3193.3193 0 0 1-.094.227Z"
    style="fill:#129a58;fill-rule:nonzero" />
  <path d="M82.39 101.093h8.337v.761H82.39z" style="fill:#e1b658" />
  <path d="M96.978 96.566h2.671v.833h-2.671v-.833Zm0 1.478h2.671v5.478h-2.671v-5.478Z" style="fill:#ff5240" />
  <path
    d="M95.071 95.009c-.269 0-.489.22-.489.489 0 .27.22.489.489.489.27 0 .489-.219.489-.489 0-.269-.219-.489-.489-.489Z"
    style="fill:#efd18d;fill-rule:nonzero" />
  <path d="M100.293 98.044h.894v5.478h-.894z" style="fill:#ff5240" />
  <path
    d="M95.732 91.778c-2.346 2.479-5.601 3.98-7.973 4.812-1.496.525-2.81.851-3.697 1.04.131.103.247.215.359.322.329.316.59.565 1.143.565.554 0 .814-.249 1.144-.565.364-.349.777-.745 1.59-.745.813 0 1.225.396 1.589.745.33.316.59.565 1.144.565.554 0 .814-.249 1.144-.565.364-.349.777-.745 1.59-.745.813 0 1.225.396 1.59.745.294.282.534.511.977.556v-2.265c0-.178.145-.322.323-.322h1.07c-.752-1.304-1.463-2.878-1.993-4.143Zm-4.329 5.532a.3208.3208 0 0 1-.456 0 .3245.3245 0 0 1-.095-.227c0-.086.035-.169.095-.229.06-.059.143-.094.228-.094.085 0 .168.034.228.094s.094.144.094.229c0 .084-.034.167-.094.227Zm1.323-1.584a.3284.3284 0 0 1-.228.094.3284.3284 0 0 1-.228-.094.3247.3247 0 0 1 0-.457c.06-.059.143-.094.228-.094.085 0 .168.035.228.094.06.061.095.144.095.228 0 .086-.035.169-.095.229Zm2.117-2.538a.324.324 0 0 1 .228-.094c.085 0 .169.034.228.094.06.061.095.144.095.228a.325.325 0 0 1-.095.228.3233.3233 0 0 1-.228.095.3268.3268 0 0 1-.228-.095.324.324 0 0 1-.094-.228c0-.084.034-.167.094-.228Zm.228 3.443c-.625 0-1.134-.508-1.134-1.133 0-.626.509-1.134 1.134-1.134.626 0 1.134.508 1.134 1.134 0 .625-.509 1.133-1.134 1.133Z"
    style="fill:#129a58;fill-rule:nonzero" />
  <path d="M87.7 100.449h3.35c.178 0 .323.144.323.322v2.75h.803v-4.359H87.7v1.287Z"
    style="fill:#bdf3ff;fill-rule:nonzero" />
  <path d="M100.293 96.566h.894v.833h-.894z" style="fill:#ff5240" />
  <path d="M92.822 99.162h.764v4.359h-.764z" style="fill:#bdf3ff" />
  <path d="M94.23 102.5h2.103v1.022H94.23V102.5Zm0-1.407h2.103v.761H94.23v-.761Z" style="fill:#efd18d" />
  <path
    d="M88.443 88.45c.626 0 1.134-.509 1.134-1.134 0-.625-.509-1.134-1.134-1.134-.625 0-1.133.509-1.133 1.134 0 .625.508 1.134 1.133 1.134Zm0-1.623c.27 0 .489.22.489.489 0 .27-.219.489-.489.489a.4889.4889 0 0 1-.488-.489c0-.269.219-.489.488-.489Zm6.628 7.537c-.625 0-1.134.509-1.134 1.134 0 .625.509 1.133 1.134 1.133.626 0 1.134-.508 1.134-1.133s-.509-1.134-1.134-1.134Zm0 1.623c-.269 0-.489-.22-.489-.489 0-.27.22-.489.489-.489.27 0 .489.219.489.489 0 .269-.219.489-.489.489Zm-2.262-14.233c.084 0 .167-.034.227-.094a.3208.3208 0 0 0 0-.456.3245.3245 0 0 0-.227-.095c-.086 0-.169.034-.228.095a.325.325 0 0 0-.095.228c0 .084.034.167.095.228.06.06.143.094.228.094Zm-1.777-3.322c.085 0 .168-.034.228-.095a.325.325 0 0 0 .095-.228c0-.084-.035-.167-.095-.227a.3191.3191 0 0 0-.228-.095.3226.3226 0 0 0-.228.55c.06.06.144.095.228.095Zm0 6.132c-.084 0-.168.035-.228.094-.06.06-.094.144-.094.229 0 .084.034.167.094.228.06.059.144.094.228.094.085 0 .168-.035.228-.094.06-.06.095-.144.095-.228 0-.085-.035-.169-.095-.229a.3284.3284 0 0 0-.228-.094Zm2.164 0a.332.332 0 0 0-.228.094c-.06.06-.094.144-.094.229 0 .084.034.168.094.228.061.06.144.094.228.094.086 0 .169-.034.228-.094.061-.06.095-.144.095-.228 0-.085-.034-.168-.095-.229a.3248.3248 0 0 0-.228-.094Zm-2.164 4.811c.085 0 .168-.034.228-.095.06-.06.095-.142.095-.227a.325.325 0 0 0-.095-.228.3233.3233 0 0 0-.228-.095.3226.3226 0 0 0 0 .645Zm-4.234.11a.324.324 0 0 0 .094-.228.324.324 0 0 0-.094-.228.325.325 0 0 0-.228-.095.325.325 0 0 0-.228.095.325.325 0 0 0-.095.228c0 .085.035.168.095.228s.143.094.228.094a.324.324 0 0 0 .228-.094Zm6.398 2.499c.086 0 .169-.034.228-.094a.3208.3208 0 0 0 0-.456.3215.3215 0 0 0-.228-.095c-.084 0-.167.035-.228.095a.324.324 0 0 0-.094.228c0 .085.034.168.094.228.061.06.144.094.228.094Zm-4.44 0c.084 0 .167-.034.228-.094a.324.324 0 0 0 .094-.228.324.324 0 0 0-.094-.228.3286.3286 0 0 0-.228-.095c-.086 0-.169.035-.229.095a.3284.3284 0 0 0-.094.228c0 .085.034.168.094.228s.143.094.229.094Zm-.179 1.931c.084 0 .167-.034.228-.094.06-.061.094-.143.094-.228a.324.324 0 0 0-.094-.228.3243.3243 0 0 0-.228-.095c-.086 0-.168.034-.229.095a.3284.3284 0 0 0-.094.228c0 .084.035.167.094.228.06.06.143.094.229.094Zm-1.585-.528c.086 0 .169-.035.229-.095.059-.06.094-.143.094-.228 0-.085-.035-.168-.094-.228a.3247.3247 0 0 0-.457 0 .324.324 0 0 0-.094.228c0 .085.034.168.094.228s.144.095.228.095Zm4.183 3.374c-.084 0-.167.034-.228.094a.324.324 0 0 0-.094.228c0 .085.034.168.094.228s.144.095.228.095c.085 0 .168-.035.229-.095.059-.06.094-.143.094-.228 0-.084-.035-.168-.094-.228a.3282.3282 0 0 0-.229-.094Zm1.324-1.586c-.085 0-.169.035-.229.095a.3284.3284 0 0 0-.094.228c0 .085.035.168.094.228.06.06.144.094.229.094.084 0 .168-.034.228-.094a.324.324 0 0 0 .094-.228.324.324 0 0 0-.094-.228.3268.3268 0 0 0-.228-.095Zm2.572-1.436c.085 0 .169-.034.228-.094.06-.06.095-.144.095-.228a.325.325 0 0 0-.095-.228.3215.3215 0 0 0-.228-.095.325.325 0 0 0-.228.095.324.324 0 0 0-.094.228c0 .084.034.168.094.228.061.06.144.094.228.094Z"
    style="fill:#4f413b;fill-rule:nonzero" />
  <path
    d="M101.506 94.556c-.182-.137-.503-.237-.991.064-.317.196-.57.453-.758.765a2.2517 2.2517 0 0 0-.758-.764c-.488-.303-.808-.202-.991-.065-.075.056-.135.127-.182.205-.579-1.106-1.115-2.312-1.532-3.313.293-.051.602-.126.893-.219.985-.313 1.139-.612 1.168-.81.023-.147-.006-.406-.417-.565-1.183-1.346-2.505-4.211-3.288-6.059.324-.083.527-.277.698-.44.19-.183.316-.303.596-.303a.322.322 0 0 0 .322-.323v-.002a.3228.3228 0 0 0-.142-.271c-2.4-1.621-4.526-6.612-4.769-7.197v-.377h.309c.178 0 .323-.144.323-.323 0-.178-.145-.322-.323-.322h-.309v-.309c0-.178-.145-.323-.323-.323-.178 0-.322.145-.322.323v.309h-.31a.322.322 0 0 0-.322.323c0 .178.144.322.322.322h.31v.377c-.244.585-2.369 5.576-4.77 7.197a.3219.3219 0 0 0-.141.271c0 .001-.001.002-.001.003 0 .178.145.322.323.322.28 0 .405.121.595.303.171.163.374.357.699.44-.795 1.875-2.145 4.799-3.341 6.119-.12.132-.11.336.022.455.062.056.14.084.217.084.43 0 .636.197.897.447.162.156.347.332.598.458-1.189 2.867-2.326 4.976-3.215 5.957-.12.132-.11.336.022.455.062.056.139.083.216.084.004 0 .008-.001.011-.001.546.003.806.251 1.133.565.364.349.777.744 1.59.744.813 0 1.226-.395 1.59-.744.329-.316.59-.565 1.144-.565.553 0 .813.249 1.143.565.034.033.069.066.105.1h-2.169c-.178 0-.322.144-.322.322v1.609h-2.541c.024-.055.045-.115.063-.18.1-.359.106-1.043-.302-1.35-.194-.146-.536-.251-1.061.074-.365.225-.652.522-.861.888-.209-.366-.496-.663-.861-.888-.525-.325-.866-.219-1.06-.074-.409.307-.403.991-.303 1.35.018.065.04.125.063.18h-.225c-.178 0-.322.144-.322.322v3.073c0 .178.144.323.322.323h21.542c.179 0 .323-.145.323-.323v-7.6c0-.098-.045-.185-.114-.244.027-.059.052-.123.071-.195.092-.331.097-.964-.284-1.249Zm-19.761 8.966h-1.454V102.5h1.454v1.022Zm0-1.667h-1.454v-.761h1.454v.761Zm-.373-1.406c-.355 0-.532-.035-.62-.353-.073-.26-.023-.593.068-.661.029-.022.142-.012.334.106.436.27.651.632.762.908h-.544Zm17.024-5.378c.007-.005.088-.011.264.098.359.222.549.516.652.752h-.609c-.195-.016-.298-.077-.357-.288-.064-.231-.015-.513.05-.562Zm-1.562-5.598c-.922-.349-1.786-.765-2.586-1.213.305-.204.506-.55.506-.944 0-.625-.508-1.134-1.134-1.134-.575 0-1.05.431-1.123.987-2.044-1.408-3.468-2.87-4.057-3.519.144-.089.258-.198.36-.295.19-.183.315-.303.595-.303.279 0 .405.12.595.303.224.214.503.481 1.042.481s.818-.267 1.042-.481c.19-.183.315-.303.595-.303.28 0 .405.12.596.303.168.161.367.351.683.436.777 1.858 1.836 4.153 2.886 5.682Zm-2.725-2.157c0 .27-.219.489-.489.489a.4889.4889 0 0 1-.488-.489c0-.269.219-.489.488-.489.27 0 .489.22.489.489Zm-3.077-11.175c.288.645.769 1.661 1.384 2.738-.18.204-.379.405-.596.601-.205-.197-.482-.32-.788-.32-.625 0-1.134.509-1.134 1.134 0 .172.04.335.109.482-.896.518-1.804.906-2.525 1.174 1.64-1.771 2.977-4.524 3.55-5.809Zm.489 4.153c0 .27-.219.489-.489.489a.4897.4897 0 0 1-.489-.489c0-.269.22-.489.489-.489.27 0 .489.22.489.489Zm-4.358 2.595c-.035-.033-.071-.068-.109-.102.819-.271 2.116-.765 3.395-1.522.171.103.37.163.583.163.625 0 1.134-.509 1.134-1.134 0-.081-.009-.16-.025-.236.222-.195.428-.394.618-.598.712 1.171 1.568 2.345 2.494 3.138-.14.089-.251.195-.351.291-.191.182-.316.303-.596.303-.28 0-.405-.121-.595-.303-.224-.215-.503-.482-1.042-.482s-.818.267-1.042.482c-.19.182-.316.303-.595.303-.28 0-.406-.121-.596-.303-.224-.215-.503-.482-1.041-.482-.539 0-.818.267-1.042.482-.19.182-.316.303-.595.303-.28 0-.405-.121-.595-.303Zm-1.507 7.545c-.192-.184-.416-.397-.744-.521 1.092-1.422 2.226-3.814 3.07-5.803 1.076 1.194 4.56 4.709 9.556 6.291-.423.213-1.373.48-2.027.48-.43 0-.636-.197-.897-.447-.291-.279-.653-.626-1.343-.626-.689 0-1.051.347-1.342.626-.261.25-.467.447-.897.447-.431 0-.636-.197-.897-.447-.291-.279-.653-.626-1.343-.626-.689 0-1.052.347-1.343.626-.26.25-.466.447-.896.447-.431 0-.636-.197-.897-.447Zm-2.042 6.628c1.031-1.45 2.067-3.706 2.824-5.539.037.002.075.003.115.003.689 0 1.051-.347 1.343-.626.26-.25.466-.447.896-.447s.636.197.897.447c.291.279.653.626 1.343.626.689 0 1.052-.347 1.343-.626.26-.25.466-.447.896-.447.431 0 .637.197.897.447.231.221.507.484.954.584-.884.905-1.899 1.676-2.959 2.33-.032-.597-.526-1.072-1.131-1.072-.625 0-1.134.508-1.134 1.133 0 .38.189.716.476.922-.773.379-1.544.703-2.284.98.023-.09.036-.183.036-.279 0-.625-.508-1.134-1.133-1.134-.626 0-1.134.509-1.134 1.134 0 .359.168.679.429.887-1.107.334-2.047.55-2.674.677Zm7.907-3.187c0 .27-.219.489-.489.489a.4897.4897 0 0 1-.489-.489c0-.269.22-.489.489-.489.27 0 .489.22.489.489Zm-4.04 1.623c0 .269-.219.489-.488.489-.27 0-.489-.22-.489-.489 0-.27.219-.489.489-.489.269 0 .488.22.488.489Zm-3.927 4.043c.191-.118.305-.128.334-.106.091.068.141.401.069.661-.089.318-.266.353-.621.353h-.544c.111-.276.326-.638.762-.908Zm7.174 3.981H82.39V102.5h8.338v1.022Zm0-1.667H82.39v-.761h8.338v.761Zm1.448 1.667h-.803v-2.751c0-.178-.145-.322-.323-.322h-3.349v-1.286h4.475v4.359Zm1.409 0h-.764v-4.359h.764v4.359Zm2.748 0H94.23V102.5h2.103v1.022Zm0-1.667H94.23v-.761h2.103v.761Zm0-1.406H94.23V98.84c0-.178-.145-.323-.323-.323h-1.39c.035-.033.07-.066.104-.099.33-.316.59-.565 1.144-.565.554 0 .814.249 1.144.565.339.324.719.688 1.424.738v1.293Zm0-4.205v2.265c-.443-.046-.683-.274-.978-.557-.364-.349-.777-.744-1.59-.744-.813 0-1.226.395-1.59.744-.329.316-.59.566-1.143.566-.554 0-.814-.25-1.144-.566-.364-.349-.777-.744-1.59-.744-.813 0-1.226.395-1.59.744-.329.316-.589.566-1.143.566s-.814-.25-1.144-.566c-.111-.107-.228-.218-.359-.321.888-.189 2.202-.516 3.697-1.041 2.373-.832 5.628-2.333 7.974-4.812.529 1.266 1.24 2.84 1.993 4.143h-1.071c-.178 0-.322.145-.322.323Zm3.316 7.278h-2.671v-5.478h2.671v5.478Zm0-6.123h-2.671v-.833h2.671v.833Zm1.539 6.123h-.894v-5.478h.894v5.478Zm0-6.123h-.894v-.833h.894v.833Zm-.019-1.766c-.059.211-.162.272-.358.288h-.609c.104-.236.293-.53.652-.752.177-.109.258-.103.265-.097.064.048.114.33.05.561Z"
    style="fill:#4f413b;fill-rule:nonzero" />
  <path
    d="M14.967 20.692c-.368 0-.541.151-.76.343-.241.211-.54.473-1.105.473-.564 0-.864-.262-1.105-.473-.219-.192-.392-.343-.76-.343s-.541.151-.76.343c-.175.153-.382.333-.698.42.671 1.138 1.909 1.903 3.323 1.903s2.652-.765 3.323-1.903c-.316-.087-.523-.267-.697-.42-.22-.192-.393-.343-.761-.343Z"
    style="fill:#bdf3ff;fill-rule:nonzero" />
  <path d="M6.128 7.083h1.91v.88h-1.91z" style="fill:#e1b658" />
  <path d="M7.159 8.487h-.153c-.553.054-1.044.695-1.323 1.613h2.799c-.279-.918-.77-1.559-1.323-1.613Z"
    style="fill:#129a58;fill-rule:nonzero" />
  <path
    d="M5.444 11.8c0 .412.039.809.111 1.176H8.61c.072-.367.111-.764.111-1.176 0-.412-.039-.809-.111-1.177H5.555c-.072.368-.111.765-.111 1.177Z"
    style="fill:#ff5240;fill-rule:nonzero" />
  <path d="M7.082 15.117c.585 0 1.109-.657 1.4-1.618H5.683c.291.961.815 1.618 1.399 1.618Z"
    style="fill:#129a58;fill-rule:nonzero" />
  <path
    d="M13.038 15.644c-1.387.023-2.598.781-3.259 1.901.316.087.523.267.698.42.219.192.392.344.76.344s.541-.152.76-.344c.241-.211.54-.473 1.105-.473.564 0 .864.262 1.105.473.219.192.392.343.76.343s.541-.151.76-.343c.175-.153.382-.333.699-.42-.662-1.12-1.873-1.878-3.26-1.901h-.128Z"
    style="fill:#bdf3ff;fill-rule:nonzero" />
  <path
    d="m20.123 10.282-.279-.566-.28.566a.2597.2597 0 0 1-.196.143l-.625.091.452.44a.26.26 0 0 1 .075.232l-.107.622.559-.294a.261.261 0 0 1 .243 0l.559.294-.107-.622a.2655.2655 0 0 1 .075-.232l.452-.44-.624-.091a.2613.2613 0 0 1-.197-.143Zm-5.156 8.55c-.565 0-.864-.263-1.105-.473-.219-.192-.392-.344-.76-.344s-.541.152-.76.344c-.241.21-.541.473-1.105.473-.565 0-.864-.263-1.105-.473-.183-.161-.335-.293-.595-.332a3.844 3.844 0 0 0-.293 1.473c0 .522.105 1.019.293 1.473.26-.039.412-.171.595-.332.241-.21.54-.472 1.105-.472s.864.262 1.105.472c.219.192.392.344.76.344s.541-.152.761-.343c.24-.211.54-.473 1.104-.473.565 0 .864.262 1.105.473.183.16.335.292.595.331.188-.454.293-.951.293-1.473 0-.521-.105-1.019-.293-1.473-.26.039-.412.171-.595.332-.241.21-.541.473-1.105.473Z"
    style="fill:#ff5240;fill-rule:nonzero" />
  <path
    d="m20.846 9.289-1.002-2.03-1.002 2.03a.2625.2625 0 0 1-.197.144l-2.241.325 1.621 1.581c.062.06.09.147.075.231l-.382 2.232 2.004-1.053c.038-.021.08-.031.122-.031.041 0 .083.01.121.031l2.005 1.053-.383-2.232a.2617.2617 0 0 1 .075-.231l1.622-1.581-2.241-.325a.2625.2625 0 0 1-.197-.144Zm.909.963a.261.261 0 0 1-.066.268l-.733.715.173 1.008a.2622.2622 0 0 1-.104.256.26.26 0 0 1-.275.02l-.906-.476-.906.476a.2623.2623 0 0 1-.276-.02.2642.2642 0 0 1-.104-.256l.173-1.008-.732-.715a.2614.2614 0 0 1-.067-.268.2646.2646 0 0 1 .211-.178l1.013-.147.453-.917c.044-.09.135-.146.235-.146.099 0 .19.056.234.146l.453.917 1.013.147c.098.015.18.084.211.178Z"
    style="fill:#efd18d;fill-rule:nonzero" />
  <path d="M11.964 14.029h2.277v1.092h-2.277z" style="fill:#e1b658" />
  <path
    d="M20.078 9.01a.2602.2602 0 0 0-.234-.146c-.1 0-.191.056-.235.146l-.453.917-1.013.147a.2646.2646 0 0 0-.211.178.263.263 0 0 0 .066.268l.733.715-.173 1.008c-.016.098.024.198.104.256.081.059.188.066.276.02l.906-.476.906.476c.087.046.194.039.275-.02.08-.058.121-.158.104-.256l-.173-1.008.733-.715a.261.261 0 0 0 .066-.268.2646.2646 0 0 0-.211-.178l-1.013-.147-.453-.917Zm.414 1.946a.2655.2655 0 0 0-.075.232l.107.622-.559-.294a.262.262 0 0 0-.243 0l-.558.293.106-.621a.26.26 0 0 0-.075-.232l-.452-.44.625-.091a.263.263 0 0 0 .197-.143l.279-.566.279.566c.038.077.112.131.197.143l.624.091-.452.44Z"
    style="fill:#4f413b;fill-rule:nonzero" />
  <path
    d="m23.883 9.317-2.629-.382-1.149-2.328V-.401h3.044a.2614.2614 0 1 0 .001-.523H4.748c-.144 0-.262.117-.262.262 0 .144.118.261.262.261h2.073V6.56h-.955c-.144 0-.261.117-.261.262v1.403c0 .145.117.262.261.262h.109c-.636.661-1.054 1.883-1.054 3.313 0 2.153.949 3.84 2.162 3.84 1.212 0 2.162-1.687 2.162-3.84 0-1.429-.419-2.652-1.055-3.313h.109c.144 0 .261-.117.261-.262V6.822c0-.145-.117-.262-.261-.262h-.955V-.401h5.496v13.907h-1.138c-.144 0-.261.117-.261.261v1.616c0 .021.003.042.008.062-1.598.654-2.727 2.225-2.727 4.055 0 2.416 1.965 4.381 4.38 4.381s4.381-1.965 4.381-4.381c0-1.83-1.13-3.402-2.728-4.055a.257.257 0 0 0 .008-.062v-1.616c0-.144-.117-.261-.261-.261h-1.138V-.401h6.218v7.008l-1.149 2.328-2.629.382a.2614.2614 0 0 0-.211.178.262.262 0 0 0 .066.268l1.903 1.854-.45 2.619a.265.265 0 0 0 .104.256c.046.033.1.05.154.05.042 0 .084-.01.122-.031l2.352-1.236 2.351 1.236a.262.262 0 0 0 .276-.019.263.263 0 0 0 .104-.256l-.449-2.619 1.902-1.854a.262.262 0 0 0 .066-.268.2587.2587 0 0 0-.211-.178Zm-16.801 5.8c-.584 0-1.108-.657-1.399-1.618h2.799c-.291.961-.815 1.618-1.4 1.618ZM8.721 11.8c0 .412-.039.809-.111 1.176H5.555c-.072-.367-.111-.764-.111-1.176 0-.412.039-.809.111-1.177H8.61c.072.368.111.765.111 1.177Zm-.239-1.7H5.683c.279-.918.77-1.559 1.323-1.613h.153c.553.054 1.044.695 1.323 1.613Zm-.445-3.017v.881H6.128v-.881h1.909Zm5.065 16.275c-1.414 0-2.652-.765-3.323-1.903.316-.087.523-.267.698-.42.219-.192.392-.343.76-.343s.541.151.76.343c.241.211.541.473 1.105.473.565 0 .864-.262 1.105-.473.219-.192.392-.343.76-.343s.541.151.761.343c.174.153.381.333.697.42-.671 1.138-1.909 1.903-3.323 1.903ZM16.96 19.5c0 .522-.105 1.019-.293 1.473-.26-.039-.412-.171-.595-.331-.241-.211-.54-.473-1.105-.473-.564 0-.864.262-1.104.472-.22.192-.393.344-.761.344s-.541-.152-.76-.344c-.241-.21-.54-.473-1.105-.473s-.864.263-1.105.473c-.183.161-.335.293-.595.332a3.844 3.844 0 0 1-.293-1.473c0-.521.105-1.019.293-1.473.26.039.412.171.595.332.241.21.54.473 1.104.473.565 0 .865-.263 1.105-.473.22-.192.393-.344.761-.344s.541.152.76.344c.241.21.54.473 1.105.473.564 0 .864-.263 1.105-.473.183-.161.335-.293.595-.332.188.454.293.952.293 1.473Zm-.534-1.955c-.317.087-.524.267-.699.42-.219.192-.392.344-.76.344s-.541-.152-.761-.344c-.24-.21-.54-.473-1.104-.473-.565 0-.864.262-1.105.473-.219.192-.392.344-.76.344s-.541-.152-.76-.344c-.175-.153-.382-.333-.698-.42.661-1.12 1.872-1.878 3.259-1.901h.128c1.387.023 2.598.781 3.26 1.901Zm-2.186-3.516v1.092h-2.276v-1.092h2.276Zm7.422-2.69c-.061.06-.09.146-.075.231l.383 2.232-2.005-1.054a.261.261 0 0 0-.243 0l-2.004 1.054.382-2.232a.258.258 0 0 0-.075-.231l-1.621-1.581 2.241-.326a.259.259 0 0 0 .197-.143l1.002-2.03 1.002 2.03c.038.077.112.131.197.143l2.241.326-1.622 1.581Z"
    style="fill:#4f413b;fill-rule:nonzero" />
  <path
    d="M89.238 10.162a.7882.7882 0 0 0-.088-.598l-1.018-1.707c-.144-.241-.398-.385-.68-.385-.141 0-.281.039-.404.112l-5.068 3.025c-.374.223-.497.709-.274 1.083l1.019 1.707c.144.241.398.385.679.385.142 0 .282-.039.404-.112l5.069-3.025c.181-.108.309-.28.361-.485Z"
    style="fill:#fff;fill-rule:nonzero" />
  <path
    d="M86.119 13.117a.2225.2225 0 0 1 .198-.122h.006l1.193.027.543-1.063a.2228.2228 0 0 1 .204-.122l.926.021-.386-.648-4.465 2.665.168.281 1.07.024.543-1.063Z"
    style="fill:#ff5240;fill-rule:nonzero" />
  <path
    d="M86.665 14.035a.2257.2257 0 0 1 .204-.122l1.193.028.542-1.063a.2221.2221 0 0 1 .204-.122l.93.021-.279-.467-1.066-.024-.543 1.063c-.039.077-.116.123-.204.122l-1.193-.027-.543 1.063a.223.223 0 0 1-.199.122h-.005l-.93-.021.277.465 1.07.025.542-1.063Z"
    style="fill:#129a58;fill-rule:nonzero" />
  <path
    d="m90.943 14.795-.274-.46c-.259.542-.566 1.734.82 2.979.351-1.194-.529-2.493-.538-2.507a.0834.0834 0 0 1-.008-.012Z"
    style="fill:#e1b658;fill-rule:nonzero" />
  <path
    d="M90.013 15.063c.053-.551.268-.971.391-1.171l-.396-.663-1.069-.024-.543 1.063c-.039.076-.119.122-.204.122L87 14.363l-.543 1.062a.2225.2225 0 0 1-.198.122h-.005l-.93-.021 1.154 1.933c.03.05.039.11.026.167l-.56 2.328c.616-.064 1.93-.003 3.256 1.316.124-.188 1.451-2.204 2.107-3.523-1.18-1-1.358-2.006-1.294-2.684Z"
    style="fill:#ff5240;fill-rule:nonzero" />
  <path
    d="M85.839 20.418c-.105.712.268 1.566 1.219 1.855.977.296 1.593-.235 1.895-.619-1.365-1.405-2.7-1.31-3.114-1.236Z"
    style="fill:#e1b658;fill-rule:nonzero" />
  <path
    d="M89.183 10.978c.242-.17.414-.417.486-.707.081-.32.033-.652-.137-.936l-1.018-1.706a1.2426 1.2426 0 0 0-1.062-.603c-.223 0-.441.061-.633.175l-.348.208-.543-1.322c-.027-.093-.178-.543-.559-.733V1.347c0-.124-.1-.223-.223-.223s-.223.099-.223.223v3.927c-.164.016-.337.078-.517.185-.331.198-.515.447-.547.74-.048.451.304.827.377.899l.906 1.104-3.391 2.024c-.585.349-.777 1.11-.428 1.695l1.018 1.706c.222.372.629.603 1.063.603.19 0 .378-.045.549-.13l2.095 3.51-.617 2.57c-.264 1.097.38 2.18 1.497 2.519.246.075.474.107.685.107 1.246 0 1.875-1.131 1.955-1.286.128-.194 1.57-2.378 2.217-3.737.697-1.463-.372-3.088-.464-3.223l-2.138-3.582Zm-4.61-4.173c-.006-.007-.013-.014-.02-.021-.078-.074-.275-.315-.25-.539.016-.146.128-.281.332-.403.203-.121.375-.155.511-.1.209.084.328.372.356.475.002.01.005.019.009.028l.572 1.395-.554.331-.956-1.166Zm-.765 6.867a.7936.7936 0 0 1-.404.112c-.282 0-.536-.144-.68-.385l-1.018-1.707c-.223-.374-.101-.86.273-1.083l5.069-3.025a.7882.7882 0 0 1 .404-.112c.281 0 .535.144.679.386l1.018 1.706c.109.181.14.394.088.598a.7852.7852 0 0 1-.361.485l-5.068 3.025Zm.53.203 4.465-2.665.386.648-.926-.021a.2228.2228 0 0 0-.204.122l-.543 1.063-1.193-.027h-.005a.223.223 0 0 0-.199.122l-.543 1.063-1.07-.024-.168-.281Zm.438.733.93.021h.005a.223.223 0 0 0 .199-.122l.543-1.063 1.193.027c.088.001.165-.045.204-.121l.543-1.064 1.066.024.279.467-.93-.021a.2221.2221 0 0 0-.204.122l-.542 1.063-1.193-.027a.223.223 0 0 0-.204.121l-.542 1.063-1.069-.025-.278-.465Zm2.282 7.665c-.951-.289-1.325-1.143-1.219-1.855.413-.074 1.748-.17 3.114 1.236-.302.384-.919.915-1.895.619Zm2.141-1.003c-1.326-1.319-2.64-1.38-3.255-1.316l.559-2.328a.2267.2267 0 0 0-.026-.167l-1.154-1.933.93.021h.005c.084 0 .16-.047.199-.122l.542-1.062 1.193.027c.084 0 .164-.046.203-.122l.543-1.063 1.07.024.395.663c-.123.2-.338.62-.39 1.171-.065.678.114 1.684 1.293 2.684-.656 1.319-1.983 3.335-2.107 3.523Zm2.289-3.956c-1.386-1.245-1.078-2.437-.82-2.979l.274.46c.002.004.005.008.008.012.01.014.889 1.313.538 2.507Z"
    style="fill:#4f413b;fill-rule:nonzero" />
</svg>