<svg xmlns="http://www.w3.org/2000/svg" xml:space="preserve" width="105" height="105"
  style="fill-rule:evenodd;clip-rule:evenodd;stroke-linejoin:round;stroke-miterlimit:2">
  <path d="M.036 8.16h104.095v87.846H.036z" style="fill:none" />
  <path
    d="M41.095 9.023c2.618.167 5.147.823 7.582 1.777 1.23.461 2.268 1.186 3.465 1.836.451-.494.91-1.049 1.457-1.435 1.068-.789 2.626-.858 3.854-.456 2.03.691 3.208 2.845 3.255 4.906.038 1.864-1.083 3.575-2.477 4.728 1.337 2.017 2.829 3.916 4.239 5.881.558.686.361 1.411.361 2.236-.369 4.755-1.446 9.331-3.908 13.46-.347.596-.847 1.148-1.091 1.796.271.743.752 1.429 1.126 2.129 1.033 1.949 1.908 3.982 2.884 5.955 4.154-10.858 10.5-21.238 18.877-29.355 1.708-1.684 3.881-3.463 6.253-4.048 2.498-.577 4.84.38 7.084 1.375 1.309.571 2.277 1.476 3.31 2.438 2.998 3.099 4.829 6.999 5.788 11.175.552 2.588.552 5.31.323 7.937-.765 5.608-3.335 10.678-6.898 15.02-6.204 7.598-14.762 13.313-23.655 17.298-2.009.978-4.138 1.681-6.196 2.558-.511 1.279-1.134 2.495-1.801 3.698 2.873 1.355 5.617 2.93 8.147 4.854.717.593 1.11 1.549 1.2 2.457.107 1.167-.377 2.304-.913 3.315-.912 1.599-2.191 2.982-3.911 3.719-1.265.61-2.727.749-3.998.077-1.547-.817-2.922-2.033-4.261-3.151-1.525-1.375-2.981-2.722-4.066-4.485-.307.117-.605.246-.902.385.216.306.869.637.565 1.083-1.683 2.637-3.531 5.192-5.231 7.819h-.669c-1.162-.588-2.143-1.356-3.192-2.113-1.416.481-2.87 1.014-4.387.672-.981-.207-2.156-.8-2.471-1.828-.404-1.082-.052-2.063.183-3.132-.601-.361-1.082-.773-1.828-.752-1.519-.019-3.039.003-4.559.017.339 1.093 1.047 2.468.782 3.618-.189 1.121-1.304 1.744-2.293 2.056-1.377.445-2.744.027-4.039-.471-.916-.388-1.892-.778-2.597-1.5-1.328-1.418-2.219-3.064-3.05-4.805-1.932-.194-3.706-.83-5.556-1.358-1.099 1.971-2.572 3.597-4.296 5.037-1.195.978-2.419 2.039-3.78 2.785-1.091.607-2.394.716-3.575.312-2.389-.788-4.324-2.884-5.163-5.223-.612-1.547-.341-3.652 1.063-4.685 2.589-1.85 5.259-3.531 8.197-4.772-.514-1.011-1.033-1.992-1.405-3.071-.921-2.564-1.019-5.461-.656-8.139.134-1.159.738-2.13.246-3.223-.875-2.347-1.755-4.681-2.479-7.081 1.711-.052 3.334.347 5.034.432.848-2.621 1.747-5.215 2.867-7.732 1.066-2.632 2.496-5.064 3.881-7.529-.522-1.055-1.271-1.985-1.771-3.059-1.126-2.093-2.003-4.285-2.656-6.57-.334-.984.262-1.804.579-2.708.681-1.815 1.465-3.586 2.118-5.412-.852-.478-1.664-.899-2.328-1.64-1.823-1.894-1.861-5.272-.096-7.209.984-1.088 2.498-1.676 3.955-1.394.877.164 1.719.721 2.481 1.164 3.059-3.414 7.185-5.668 11.627-6.704 3.05-.763 6.228-1.137 9.371-.965Z"
    style="fill:#040103;fill-rule:nonzero" />
  <path
    d="M47.988 11.759c1.807.779 3.731 1.774 5.037 3.28-1.645-.369-3.045-1.228-4.635-1.752-1.506-.517-3.083-1.077-4.652-1.345-3.006-.517-5.939-.279-8.931.18-3.387.58-6.888 1.651-9.738 3.619-1.514 1.038-2.837 2.315-3.745 3.925-1.259 2.205-1.975 4.823-2.918 7.188-.949 2.5-2.28 4.831-3.887 6.963-.161-1.052.547-2.151.908-3.129 1.101-2.818 2.23-5.633 3.244-8.486.459-1.271.776-2.525 1.538-3.654 1.05-1.539 2.466-2.867 3.98-3.941 3.061-2.143 6.696-3.507 10.393-4.007 4.483-.68 9.162-.577 13.406 1.159Z"
    style="fill:#85644e;fill-rule:nonzero" />
  <path
    d="M43.738 11.942c1.569.268 3.146.828 4.652 1.345 1.59.524 2.99 1.383 4.635 1.752.219.27.421.552.618.839.779 2.541 2.019 4.884 2.746 7.444.623 1.971.744 3.95.872 5.997.137 2.418-.065 4.821-.831 7.127-1.568 4.696-4.047 8.861-6.966 12.829 1.798-.292 3.359-1.126 4.867-2.11 1.096 1.591 1.801 3.335 2.684 5.043 2.209 4.783 3.832 10.082 3.993 15.373.222 3.479-.213 6.918-2.041 9.943-1.014 1.571-2.143 3.023-3.624 4.179l-.123-.776c.423-1.279.765-2.548.847-3.898-.265.738-.511 1.479-.787 2.214-1.001 1.244-1.479 2.714-2.282 4.07-1.044 1.817-2.099 3.695-3.411 5.334-1.337 1.739-3.9 2.556-5.975 1.818-.593-.178-.754-.735-1.079-1.208.899-1.831 1.823-3.498 2.104-5.559.503-3.515.675-7.098.664-10.645-.09.571-.185 1.148-.251 1.722-.12-1.389.019-2.791-.112-4.174-3.11-3.823-9.317-4.206-12.968-.924-1.252-.871-2.523-1.719-3.786-2.574-1.68-.992-2.017-3.518-3.219-4.974-.853-.61-2.039-.837-3.034-1.134.049.625.082 1.251.104 1.877-1-.746-2.069-1.391-3.061-2.151-.623-.451-1.142-.932-1.921-1.085-1.558-.322-3.149-.5-4.72-.757.481-2.093 1.298-3.99 2.066-5.996 1.183-2.856 2.525-5.627 4.149-8.262 1.276 1.429 2.533 2.837 4.107 3.952 2.597 1.938 5.677 2.954 8.91 3.069-3.137-.467-6.108-1.623-8.541-3.692-4.32-3.553-6.862-8.894-8.505-14.133 1.607-2.132 2.938-4.463 3.887-6.963.943-2.365 1.659-4.983 2.918-7.188.908-1.61 2.231-2.887 3.745-3.925 2.85-1.968 6.351-3.039 9.738-3.619 2.992-.459 5.925-.697 8.931-.18Z"
    style="fill:#765337;fill-rule:nonzero" />
  <path
    d="M56.113 11.622c2.356.131 3.818 2.679 3.4 4.865-.197 1.235-.967 1.992-1.782 2.862-1.711-1.955-2.752-4.3-4.608-6.142.902-.85 1.621-1.7 2.99-1.585Zm-2.47 4.256c2.664 3.774 5.28 7.597 8.103 11.254-.016 1.427-.12 2.837-.344 4.245-.58 3.703-1.635 7.587-3.638 10.79-1.929 3.165-4.868 5.701-8.3 7.108 2.919-3.968 5.398-8.133 6.966-12.829.766-2.306.968-4.709.831-7.127-.128-2.047-.249-4.026-.872-5.997-.727-2.56-1.967-4.903-2.746-7.444Z"
    style="fill:#54322d;fill-rule:nonzero" />
  <path
    d="M16.763 16.602c.921-.044 1.766.525 2.545.948-.277.476-.553.938-.799 1.43-.625-.561-1.063-1.274-2.017-1.17-1.478.093-1.989 1.181-2.795 2.216l-.061-.609c.307-1.503 1.58-2.709 3.127-2.815Z"
    style="fill:#84644f;fill-rule:nonzero" />
  <path
    d="M16.492 17.81c.954-.104 1.392.609 2.017 1.17-.754 1.874-1.331 3.815-2.101 5.687-.847-.508-1.643-.954-2.189-1.815-.714-1.027-.798-2.235-.583-3.435l.061.609c.806-1.035 1.317-2.123 2.795-2.216Z"
    style="fill:#765137;fill-rule:nonzero" />
  <path
    d="M89.445 19.559c1.987.309 4.004 1.025 5.625 2.238 2.471 1.878 4.307 4.745 5.605 7.527-2.659.325-5.293.806-7.947 1.175-2.37-3.408-4.914-7.043-8.09-9.743 1.448-.946 3.064-1.459 4.807-1.197Z"
    style="fill:#201710;fill-rule:nonzero" />
  <path
    d="M84.638 20.756c3.176 2.7 5.72 6.335 8.09 9.743 2.654-.369 5.288-.85 7.948-1.175.122.271.235.544.336.817-.022.227-.047.454-.071.684-2.436.42-4.893.62-7.306 1.15 1.695 3.217 3.302 6.395 4.269 9.921.172.492.279 1.17.645 1.55 1.104.177 2.228.202 3.329.432-.115.45-.235.899-.372 1.342-.874-.017-1.754-.041-2.629-.014.186 1.498.484 2.982.795 4.457-.396.798-.83 1.564-1.314 2.313-.536-2.078-.435-4.179-.973-6.251-.044-.251-.142-.451-.295-.593-.787-.161-1.629-.128-2.43-.131-3.274.052-6.51.016-9.779.306.304.978.634 1.951.976 2.919.842 2.397 1.408 4.848 2.011 7.311 2.621.227 5.204-.194 7.822.142-.437.533-.893 1.049-1.352 1.56-2.031-.169-4.092-.194-6.12 0 .129 1.804.468 3.583.555 5.395-.429.356-.866.7-1.306 1.042-.383-2.135-.487-4.299-.864-6.434-1.97-.186-3.911.022-5.881.025-2.395.071-4.794.117-7.186.254.227 1.913.667 3.782.924 5.69.189 1.367.35 2.736.544 4.1 2.178.164 4.162-.061 6.261.683-.546.347-1.09.691-1.658 1.003-1.495.011-2.988-.098-4.483-.052.06.784.118 1.571.173 2.359-.487.251-.976.5-1.471.74-.085-1.022-.178-2.041-.273-3.061-2.083.017-4.138.298-6.218.375l-.082-.629c0-.276.003-.549.008-.823 2.026-.24 4.059-.352 6.092-.483-.136-3.275-.789-6.538-1.385-9.755-2.553-.035-5.174.298-7.713.621-.093-.265-.18-.528-.262-.795a60.525 60.525 0 0 1-.006-.741c2.515-.303 5.037-.476 7.56-.689-.421-2.845-1.214-5.66-2.031-8.418-1.752.361-3.386 1.053-5.1 1.545l-.147-.402c.194-.465.415-.916.637-1.369 1.41-.432 2.82-.856 4.208-1.359-.445-1.465-.899-2.927-1.317-4.397.303-.55.618-1.091.94-1.629.801 1.845 1.23 3.788 1.902 5.676 2.007-.278 3.974-.754 5.978-1.049 1.97-.314 3.957-.484 5.93-.782-1.426-3.104-2.99-6.258-5.037-9.008-2.235.402-4.304 1.315-6.556 1.484.396-.626.811-1.232 1.241-1.836 1.473-.285 2.916-.637 4.356-1.055-.59-.831-1.194-1.648-1.91-2.378.347-.443.697-.883 1.055-1.315.855 1.124 1.694 2.252 2.601 3.335 2.908-.525 5.789-1.184 8.711-1.648 1.3-.2 2.601-.402 3.894-.654-.874-1.853-2.186-3.279-3.479-4.908-1.211-1.525-2.632-2.853-3.881-4.351.358-.273.716-.547 1.096-.79Z"
    style="fill:#413023;fill-rule:nonzero" />
  <path
    d="M83.542 21.546c1.249 1.498 2.67 2.826 3.881 4.351 1.293 1.629 2.604 3.055 3.479 4.908-1.293.252-2.594.454-3.895.654-2.921.464-5.802 1.123-8.71 1.648-.907-1.083-1.746-2.211-2.602-3.335 2.436-2.929 4.928-5.764 7.847-8.226Z"
    style="fill:#201710;fill-rule:nonzero" />
  <path
    d="M44.203 23.15c1.118-.462 2.476-.382 3.342.533 1.137 1.129 1.52 3.367.522 4.679-1.186 1.58-4.118 1.331-5.001-.456-.872-1.555-.637-3.952 1.137-4.756Z"
    style="fill:#010001;fill-rule:nonzero" />
  <path d="M44.2 24.511c.56-.371 1.282-.123 1.574.457.364.716-.325 1.634-1.129 1.495-.983-.082-1.385-1.479-.445-1.952Z"
    style="fill:#fcfcfc;fill-rule:nonzero" />
  <path
    d="M27.824 25.129c.809-.172 1.67-.172 2.369.325 1.84 1.184 1.99 4.43.088 5.627-1.285.867-3.34.706-4.149-.735-.959-1.779-.58-4.687 1.692-5.217Z"
    style="fill:#010001;fill-rule:nonzero" />
  <path d="M30.278 26.485c.033.669.303 1.32-.429 1.713-1.017.588-2.006-.713-1.298-1.588.527-.645 1.063-.251 1.727-.125Z"
    style="fill:#fcfcfc;fill-rule:nonzero" />
  <path
    d="M42.792 31.169c1.269.902 1.96 2.337 1.944 3.889.043 1.495-.593 2.643-1.211 3.944-.995.508-2.044.888-3.097 1.254-.358-.609-.746-1.224-1.03-1.872-.29-.697-.322-1.549-.404-2.296 1.156-.839 2.246-1.814 2.733-3.203.002-.921-.932-1.306-1.709-1.421-1.76-.251-3.834-.005-5.324 1.036-.459.317-.729.746-.56 1.315.867 1.227 2.094 1.976 3.488 2.487.177 1.607.079 2.91-.323 4.471-.713-.052-1.432-.085-2.143-.178-1.246-.833-2.334-1.804-2.995-3.176-.609-1.27-.798-2.733-.112-4.017.905-1.667 2.629-2.761 4.441-3.201 2.165-.494 4.45-.352 6.302.968Z"
    style="fill:#b2875d;fill-rule:nonzero" />
  <path
    d="M101.011 30.141c.555 1.452.856 3.009 1.17 4.529.549 3.075.342 6.168-.303 9.208-1.102-.23-2.225-.255-3.329-.432-.366-.38-.473-1.058-.645-1.55-.968-3.526-2.575-6.704-4.269-9.921 2.413-.53 4.87-.73 7.305-1.15.025-.23.049-.457.071-.684Z"
    style="fill:#201710;fill-rule:nonzero" />
  <path
    d="M51.549 30.732c1.487-.353 3.364-.29 4.551.798.765.809.59 2.044-.085 2.85-1.67 1.99-4.805 2.807-7.177 1.657-.886-.438-1.517-1.515-1.06-2.479.601-1.657 2.172-2.403 3.771-2.826Z"
    style="fill:#9e5837;fill-rule:nonzero" />
  <path
    d="M74.64 31.087c.716.73 1.32 1.547 1.911 2.378-1.441.418-2.884.77-4.357 1.055.828-1.167 1.558-2.321 2.446-3.433Z"
    style="fill:#1f150e;fill-rule:nonzero" />
  <path
    d="M40.018 31.464c.777.115 1.711.5 1.709 1.421-.487 1.389-1.577 2.364-2.733 3.203.082.747.114 1.599.404 2.296.284.648.672 1.263 1.03 1.872 1.053-.366 2.102-.746 3.097-1.254.869-.489 1.039-1.38 1.637-2.159l.67-.033c.366.864-.233 1.626-.645 2.348-.498.844-1.635 1.191-2.476 1.601-.32 1.173-.706 2.299-1.165 3.422-1.457.049-2.971.486-4.411.347-.741-.828-1.276-1.839-1.946-2.725-.888-.147-1.828-.147-2.542-.76-.59-.481-1.18-1.052-1.549-1.724-.167-.539.128-.946.694-.771.713.454 1.205 1.26 1.899 1.736.454.191.982.229 1.465.311.711.093 1.43.126 2.143.178.402-1.561.5-2.864.323-4.471-1.394-.511-2.621-1.26-3.488-2.487-.169-.569.101-.998.56-1.315 1.49-1.041 3.564-1.287 5.324-1.036Z"
    style="fill:#020102;fill-rule:nonzero" />
  <path
    d="M91.921 32.227c.88 1.47 1.709 2.968 2.411 4.531.987 2.195 1.94 4.351 2.386 6.721-4.154-.091-8.303.021-12.449.308-.825-1.557-1.511-3.178-2.367-4.72-.809-1.552-1.776-3.009-2.626-4.539 2.134-.519 4.299-.861 6.455-1.274 2.061-.374 4.111-.779 6.19-1.027Z"
    style="fill:#201710;fill-rule:nonzero" />
  <path
    d="M23.123 34.033c2.099-.434 4.304-.213 5.884 1.361.776.76.719 2.08-.041 2.829-1.085 1.11-2.785 1.407-4.274 1.339-1.61-.019-3.627-.872-4.237-2.468-.41-1.599 1.282-2.804 2.668-3.061Z"
    style="fill:#9e5837;fill-rule:nonzero" />
  <path
    d="M77.51 34.872c2.047 2.75 3.61 5.904 5.037 9.008-1.973.298-3.96.468-5.931.782-2.003.295-3.971.771-5.977 1.049-.672-1.888-1.101-3.831-1.902-5.676.738-1.225 1.468-2.457 2.217-3.679 2.252-.169 4.32-1.082 6.556-1.484Z"
    style="fill:#201710;fill-rule:nonzero" />
  <path
    d="M38.849 39.956c.298.533.587 1.101.986 1.563.552.197 1.247-.172 1.785-.325-.21.727-.432 1.451-.672 2.17-.397.022-.796.041-1.192.06-.235-.765-.473-1.531-.721-2.29-.077.811-.148 1.623-.214 2.435-.415.052-.83.101-1.246.15-.393-.588-.787-1.172-1.189-1.755.596.033 1.192.069 1.788.091.237-.697.456-1.397.675-2.099Z"
    style="fill:#fcfcfc;fill-rule:nonzero" />
  <path
    d="M39.035 41.134c.248.759.486 1.525.721 2.29.396-.019.795-.038 1.192-.06-.708.06-1.419.12-2.127.205.066-.812.137-1.624.214-2.435Z"
    style="fill:#9f9f9f;fill-rule:nonzero" />
  <path
    d="M67.797 41.664c.418 1.47.872 2.932 1.317 4.397-1.388.503-2.798.927-4.208 1.359.904-1.952 1.883-3.857 2.891-5.756Z"
    style="fill:#1f160e;fill-rule:nonzero" />
  <path
    d="M57.01 44.834c.259.383.5.774.729 1.175 2.515 4.633 4.403 9.489 5.986 14.51.833 2.651 1.741 5.138 2.208 7.89.353 1.892.53 3.772.156 5.677-.601 3.528-2.81 6.622-5.433 8.967-1.564 1.468-3.63 2.391-5.546 3.334a89.601 89.601 0 0 0-1.385-1.2c.538-1.407 1.008-2.834 1.495-4.26l.123.776c1.481-1.156 2.61-2.608 3.624-4.179 1.828-3.025 2.263-6.464 2.041-9.943-.161-5.291-1.784-10.59-3.993-15.373-.883-1.708-1.588-3.452-2.684-5.043.998-.672 1.807-1.519 2.679-2.331Z"
    style="fill:#54332e;fill-rule:nonzero" />
  <path
    d="M94.66 45.001c.801.003 1.642-.03 2.43.131.153.142.251.342.295.593.538 2.072.437 4.173.973 6.251-.834 1.273-1.744 2.498-2.668 3.703-2.618-.336-5.201.085-7.822-.142-.604-2.463-1.169-4.914-2.011-7.311-.342-.968-.672-1.941-.976-2.919 3.269-.29 6.505-.254 9.779-.306Z"
    style="fill:#201710;fill-rule:nonzero" />
  <path
    d="M98.877 45.206c.875-.027 1.755-.003 2.629.014-.473 1.535-1.115 3.006-1.834 4.443-.311-1.475-.609-2.959-.795-4.457Z"
    style="fill:#1e150d;fill-rule:nonzero" />
  <path
    d="M83.179 45.465c1.363 3.215 2.413 6.718 3.077 10.145-4.354.063-8.697.246-13.048.375-.655-2.9-1.434-5.77-2.093-8.669 3.903-.973 8.049-1.621 12.064-1.851Zm-13.663 2.181c.817 2.758 1.61 5.573 2.031 8.418-2.523.213-5.045.386-7.56.689 0 .249.003.495.006.741-.366-1.146-.828-2.263-1.162-3.419-.24-.779.033-1.449.271-2.187.372-1.038.74-2.083 1.167-3.099l.147.402c1.714-.492 3.348-1.184 5.1-1.545Zm11.205 9.621c1.971-.003 3.911-.211 5.882-.025.377 2.135.481 4.299.864 6.434-1.987 1.536-4.092 2.957-6.202 4.318-2.099-.744-4.083-.519-6.261-.683-.194-1.364-.355-2.733-.544-4.1-.257-1.908-.697-3.777-.924-5.69 2.392-.137 4.791-.183 7.185-.254Z"
    style="fill:#201710;fill-rule:nonzero" />
  <path
    d="M88.218 57.239c2.028-.194 4.089-.169 6.119 0-1.667 1.957-3.624 3.663-5.564 5.395-.088-1.812-.426-3.591-.555-5.395Z"
    style="fill:#1f160f;fill-rule:nonzero" />
  <path
    d="M71.967 57.668c.596 3.217 1.249 6.48 1.386 9.755-2.033.131-4.067.243-6.092.483-.005.275-.008.549-.008.823-.238-1.364-.497-2.703-.907-4.026-.675-2.151-1.252-4.321-2.091-6.414 2.539-.323 5.16-.656 7.712-.621Z"
    style="fill:#201710;fill-rule:nonzero" />
  <path
    d="M11.002 59.519c1.754.161 3.473.505 5.212.779.702.136 1.363.213 1.842.803.754.94 1.257 2.102 1.847 3.151-1.394-.683-2.738-1.451-4.118-2.159-.003.405 0 .806.008 1.208-1.804-.691-3.266-1.921-5.018-2.716.085-.353.153-.711.227-1.066Z"
    style="fill:#8a613b;fill-rule:nonzero" />
  <path
    d="M10.775 60.585c1.752.795 3.214 2.025 5.018 2.716.011.295.033.588.054.883-.877.003-1.751.011-2.629.041.377 1.254 1.462 1.569 2.192 2.539.284.582.366 1.282.503 1.913-1.265.008-2.539.096-3.804.038-.899-.027-1.807-.601-2.091-1.478-.569-1.465-1.088-2.946-1.643-4.414 1.003-.612 1.957-1.06 2.4-2.238Z"
    style="fill:#a67b52;fill-rule:nonzero" />
  <path
    d="M19.846 62.364c.716.41 1.53.806 2.121 1.388.402.481.535 1.211.74 1.796.137-.008.271-.017.405-.025.128-.328.254-.653.382-.981.52-.15 1.039-.301 1.556-.454.921 1.637 1.585 3.37 2.653 4.925.26-.27.522-.541.782-.811.752.494 1.621.959 2.236 1.62.147.976-.123 2.036-.178 3.02-2.277-1.519-4.545-3.05-6.827-4.558-2.096-1.375-4.258-2.971-6.488-4.144-.156.257-.312.517-.468.774.014-.468.022-.935.033-1.402 1.495.71 2.87 1.596 4.419 2.194-.051-1.306-.836-2.153-1.366-3.342Z"
    style="fill:#401f0a;fill-rule:nonzero" />
  <path
    d="M22.904 62.189c.432.161.864.322 1.296.486-.093.304-.186.607-.279.91-.263-.065-.522-.131-.785-.196-.079-.399-.155-.801-.232-1.2Z"
    style="fill:#856a58;fill-rule:nonzero" />
  <path
    d="M17.228 64.14c2.23 1.173 4.392 2.769 6.488 4.144 2.282 1.508 4.55 3.039 6.827 4.558-.033.574-.041 1.156-.049 1.73 1.555.744 2.757 1.722 4.569 1.733 1.635.364 2.832 1.498 4.215 2.389 1.347.937 2.815 1.727 4.099 2.746.41.301.487.703.602 1.173-.342 2.317-1.353 4.343-2.627 6.28-2.779-1.858-5.551-3.727-8.319-5.605-.069-.388-.137-.776-.205-1.164-1.741-.156-3.488-.235-5.223-.44-.232-.558-.459-1.115-.675-1.678.588-.26.899-.358 1.183-.973-.825-.099-1.563-.039-2.249-.583-4.31-2.976-8.688-5.851-12.99-8.838 1.369-.008 2.722.008 4.075-.23-.205-.926-.35-1.88-.634-2.787-.192-.599-.826-1.069-1.266-1.495.569-.055 1.146-.099 1.711-.186.156-.257.312-.517.468-.774Z"
    style="fill:#603813;fill-rule:nonzero" />
  <path
    d="M44.938 70.601c.131 1.383-.008 2.785.112 4.174-.071 1.213-.224 2.418-.372 3.624-4.269-2.857-8.442-5.857-12.708-8.722 3.651-3.282 9.858-2.899 12.968.924Z"
    style="fill:#b2875d;fill-rule:nonzero" />
  <path
    d="M9.408 68.431c.629.32 1.23.735 1.812 1.137 4.753 3.272 9.588 6.431 14.313 9.741-.667.153-1.333.303-1.998.453.307 1.044 1.039 1.763 1.862 2.43.35.284.77.26 1.2.309 1.396.087 2.804.161 4.195.322l.169.263c.074 1.823.476 3.73.213 5.537-.147.894-.639 2.126-1.596 2.408-1.038.246-2.252-.033-3.301-.173-1.689-2.164-2.515-4.569-3.608-7.04-.984-2.225-1.817-4.479-2.599-6.781.38 3.441 1.771 6.284 2.78 9.52-2.009-.326-3.939-.916-5.751-1.851-3.301-1.639-5.747-4.597-7.002-8.04-1.049-2.575-1.088-5.518-.689-8.235Z"
    style="fill:#765337;fill-rule:nonzero" />
  <path
    d="M73.553 68.983c.095 1.02.188 2.039.273 3.061-2.126.946-4.247 1.968-6.463 2.684.139-1.801.281-3.575-.028-5.37 2.08-.077 4.135-.358 6.218-.375Z"
    style="fill:#1f160f;fill-rule:nonzero" />
  <path
    d="M75.124 68.945c1.495-.046 2.988.063 4.483.052-1.408.825-2.854 1.571-4.31 2.307-.055-.788-.112-1.575-.173-2.359Z"
    style="fill:#1f150d;fill-rule:nonzero" />
  <path
    d="M31.631 70.514c2.224 1.541 4.463 3.063 6.682 4.613-.06.164-.12.328-.18.495-1.203-.08-2.414-.134-3.613-.257-1.115-.077-2.211-.875-3.193-1.38.096-1.156.197-2.312.304-3.471Z"
    style="fill:#a57b54;fill-rule:nonzero" />
  <path
    d="M39.445 75.733c1.716 1.143 3.454 2.296 5.097 3.545-.178 1.113-.364 2.225-.563 3.335-.115-.471-.192-.872-.602-1.173-1.284-1.019-2.752-1.809-4.099-2.747-1.383-.891-2.58-2.025-4.215-2.388.976.06 1.996.24 2.971.125.492-.155.946-.467 1.411-.697Z"
    style="fill:#401f0a;fill-rule:nonzero" />
  <path
    d="M55.28 79.243c-.716 2.407-1.831 4.766-2.815 7.086-.653 1.55-1.46 3.029-2.422 4.409-1.262 1.899-3.714 2.946-5.95 2.848-1.022-.047-2.052-.498-2.312-1.575-.153-.899.397-1.945.752-2.754.325.472.486 1.03 1.079 1.208 2.075.737 4.638-.08 5.975-1.818 1.312-1.64 2.367-3.517 3.411-5.335.803-1.355 1.281-2.826 2.282-4.069Z"
    style="fill:#53322d;fill-rule:nonzero" />
  <path d="M24.935 80.156c1.019.156 1.405.626 1.872 1.495-1.041-.107-1.58-.484-1.872-1.495Z"
    style="fill:#765e50;fill-rule:nonzero" />
  <path
    d="M10.477 81.145c.973.91 1.744 1.94 2.777 2.799 1.022.85 2.167 1.568 3.269 2.314-1.151 2.255-3.335 4.045-5.308 5.573-1.009.716-2.151 1.809-3.463 1.755-1.282.024-2.358-.569-3.285-1.402-1.29-1.11-2.399-2.722-2.604-4.439-.036-1.361.893-2.132 1.91-2.845 2.113-1.399 4.326-2.853 6.704-3.755Zm54.103-.022c2.312.946 4.469 2.337 6.543 3.714.894.632 1.826 1.23 1.973 2.414.142 1.268-.604 2.626-1.331 3.618-1.06 1.408-2.577 2.714-4.435 2.72-1.405.046-2.487-.908-3.521-1.722-1.967-1.624-4.094-3.34-5.578-5.431 1.034-.721 2.11-1.391 3.1-2.17 1.21-.951 2.099-2.137 3.249-3.143Z"
    style="fill:#201710;fill-rule:nonzero" />
  <path
    d="M30.961 83.086c.79 1.183 1.189 2.462 1.826 3.73.607 1.329 1.265 2.692 1.61 4.116.101.593.215 1.452-.32 1.875-.856.782-2.001.888-3.105.735-1.845-.325-3.575-1.131-4.695-2.683 1.049.139 2.263.418 3.301.172.957-.282 1.449-1.514 1.596-2.408.263-1.807-.139-3.714-.213-5.537Z"
    style="fill:#54322d;fill-rule:nonzero" />
  <path
    d="M32.563 84.045c1.855 1.183 3.646 2.473 5.49 3.676-1.306.024-2.612.022-3.919.019-.533-1.227-1.085-2.449-1.571-3.695Z"
    style="fill:#b08660;fill-rule:nonzero" />
  <path
    d="M53.547 86.048c.905.579 1.733 1.241 2.583 1.894-.446.771-.921 1.522-1.46 2.236-.716-.651-1.451-1.208-2.279-1.709.344-.825.71-1.642 1.156-2.421Z"
    style="fill:#41200c;fill-rule:nonzero" />
  <path
    d="M52.391 88.47c.828.5 1.563 1.057 2.279 1.708-1.219 1.648-2.32 3.383-3.495 5.067-.889-.525-1.766-1.061-2.627-1.626 1.861-1.29 2.903-3.146 3.843-5.149Z"
    style="fill:#603714;fill-rule:nonzero" />
</svg>