<svg xmlns="http://www.w3.org/2000/svg" xml:space="preserve" style="fill-rule:evenodd;clip-rule:evenodd;stroke-linejoin:round;stroke-miterlimit:2" viewBox="0 0 3291 3850">
  <path d="M0 0h3290.87v3849.55H0z" style="fill:none"/>
  <path d="M1240.73 55.209c8.292-1.084 16.625-1.625 25-1.834 67.958-1.708 136.208-1.333 204.167-.041 40.458 3.375 80.958 7.625 121.083 14.166 16.542 3.084 33.167 5.5 49.583 9.375 11.209 2.459 22.375 5.042 33.75 6.709 25.917 5.625 46.625 19.041 70.25 30.208 64.417 30.542 123.125 76.875 174.542 125.875 36.875 39.375 74.167 81.917 98.833 130.167 7.375 13.708 9.459 29.666 18 42.541 24.709-13.708 48.334-27.666 75.875-35.458 4.167-1.458 8.292-2.875 12.459-4.333 6.791-1.584 13.666-3.084 20.458-4.75 31-5.584 61.458-.584 90.958 9.375 31.792 11.625 53.709 37.625 75.5 62.166 13.084 14.917 21.125 31.834 30.584 49.084 9.208 24.375 14.625 49.208 14.375 75.416 0 42.667 4.041 88.334-16.625 127.292-21.667 42.958-61.125 68.25-97.417 100.583 4.292 12.75 8.125 25.667 12 38.542 6.917 26.875 16.958 52.417 27 78.25 13.917 34.25 33.125 64.083 52.667 95.208 12.583 19.959 29.375 37.75 44.708 55.709 14.583 17 33.167 31.083 46.292 49.166 5.208 15.75.875 35.959-4.667 51.209-14.333 44.833-36.792 83.541-60.708 123.625-.167-10.25-3.625-18.542 2.5-27.667 19.916-31.208 34.416-64.792 48.333-98.958-6.542-1.584-13.125-3.167-19.667-4.75 1.542-12 3.834-26.042.5-37.917-7.791-11.208-20.416-19.208-30.041-28.917-28.375-28.166-52.334-60.125-71.459-95.208-37.916-60.042-58.458-129.375-75.875-197.625-1.333-8.292-5.208-21.292 3.459-26.833 14.875-11.75 31.083-21.417 44.875-34.667 22.708-21.208 47.333-41.458 56.416-72.458 8.875-32.334 13.125-69 4.709-101.875-11.292-45.209-28.959-87.584-63.667-119.875-35.458-33.167-89.875-47.084-135.375-27.25-38.458 13.208-74.292 23.416-102.083 55.375-5.75-5.084-11.417-10.25-16.917-15.584 2.542-5.666 6.542-11.541 7.75-17.625-1.542-13.458-7.417-26.75-13.792-38.583-23-37.542-48.625-73.083-78.5-105.5-56.041-62.958-127.458-115.042-204.833-148.667-76.458-29.958-155.917-42.791-237.583-47.541-48.334-2.625-94.875-12.417-141.625-8.334-57.959 5.459-119.459 5.125-176.625 16.417-67 14.917-128.167 50.292-176.042 99.25-17.667 18.625-32.375 39.5-51.5 56.833-6.292 6.667-17.292 15.334-17.875 25 3.542 7.667 8.917 14.667 13.833 21.542-4.666 6.708-9.375 13.375-14.083 20.042-22.333-20.334-38.458-42.542-64-59.375-26.125-17.834-59.667-21.917-90.417-17.709-31.166 3.834-58.375 28.834-77.541 52.125C648.563 337.167 640.98 396 660.23 444.167c6.833 17.208 17.792 30.833 28.792 45.417-.042 5.416-1.667 10.75 2.875 14.75 10.875 10.041 23.333 18.208 33.875 28.666-5.625-1.458-11.209-3-16.834-4.541-2.375 2.666-4.708 5.291-7.041 7.958-44.25-29.625-75.125-77.375-79.917-130.875-1.458-27.125-2.625-52.667 7.208-78.583 16.084-46.959 49-83.834 93.542-105.667 11.708-4.042 22.917-8.542 35.042-11.208 15.541-3.834 33.458-2 49.416-1.709C822.313 213 837.23 217 851.522 223.917c16.583 7.625 29.5 19.125 47.75 23.292 31.666-35.625 62.708-69.917 98.75-101.625 52.625-45 116.791-73.834 184.583-87.084 19.167-.875 39.25-.166 58.125-3.291Z" style="fill:#5a361a;fill-rule:nonzero"/>
  <path d="M1336.52 83c46.75-4.083 93.291 5.709 141.625 8.334 81.666 4.75 161.125 17.583 237.583 47.541 77.375 33.625 148.792 85.709 204.833 148.667l-.666 9.25c-19-14.833-37.834-29.333-59.667-39.875C1794.895 225 1726.811 192.792 1656.936 173c-27.791-7.625-58.333-9.25-87-12.666-78.083-9.709-159.958-3.042-237.541 8.333-62.084 9.25-123.042 25-181.75 47.167-55.75 23.5-107.834 56.333-153.084 96.541-30.541 26.667-62.791 55.834-85.375 89.667-16.541 23.958-33.75 47.25-48.583 72.375-23.833 40-46.958 78.083-80.667 110.833-49.875 46.25-102.75 86.667-165.916 113.084-7.042 3.083-13.5 1.333-20.792.625 32.708-19.209 62-43.25 89.25-69.5 25.375-24.584 45.042-54.292 59.583-86.375 2.084-7 7.792-14.667-2.166-18.167-20.917-9.25-36.875-20.125-53.875-35.333-11-14.584-21.959-28.209-28.792-45.417-19.25-48.167-11.667-107 22.042-147.042 19.166-23.291 46.375-48.291 77.541-52.125 30.75-4.208 64.292-.125 90.417 17.709 25.542 16.833 41.667 39.041 64 59.375 4.708-6.667 9.417-13.334 14.083-20.042-4.916-6.875-10.291-13.875-13.833-21.542.583-9.666 11.583-18.333 17.875-25 19.125-17.333 33.833-38.208 51.5-56.833 47.875-48.958 109.042-84.333 176.042-99.25C1217.061 88.125 1278.561 88.459 1336.52 83Z" style="fill:#7f5c43;fill-rule:nonzero"/>
  <path d="M1569.94 160.334c28.667 3.416 59.209 5.041 87 12.666 69.875 19.792 137.959 52 203.292 83.917 21.833 10.542 40.667 25.042 59.667 39.875l.666-9.25c29.875 32.417 55.5 67.958 78.5 105.5 6.375 11.833 12.25 25.125 13.792 38.583-1.208 6.084-5.208 11.959-7.75 17.625 5.5 5.334 11.167 10.5 16.917 15.584 14.333 11.75 21.291 31 28.75 47.583 13.708 33.917 27.166 68.083 38.416 102.875 21.417 63.417 31.584 132.083 36.292 198.625 5.333 74.5 15.458 142-2.292 216.25-14.458 54.167-41.583 105.583-72.5 152.083-9.333 14.792-23.041 28.834-29.041 45.334-1.667 20.291 5.166 40.708 3.791 61.291-1.625 56.959-23.375 119.25-71.791 153-14.125-20.708-28.792-39.541-50.709-52.625-34.5-20.75-76.625-27.583-116.375-26.666-60.75.708-122 19.583-171.916 54.333-49.125 34.542-89.167 85.042-107.959 142.375-17.583 52.75-23.041 110.375-14 165.333 11.25 60.584 42.125 116.5 86.334 159.334 17.583 18.708 39 33.166 56.333 52.041 44.542 50.542 83.583 101.125 131 148.084 37.667 38.291 80.208 71.416 126.5 98.666 59.25 35.334 123.458 63.084 192.667 70.292 12.041 1.417 24.083 2.625 36.166 3.708 4.375 31.417 12.709 62.375 21.042 92.959 14.208 49.583 38.083 94.625 66.417 137.416 27.958 35.959 44.625 76.959 59.75 119.5 9.25 25.292 17.25 51 18.375 78.084 1.458 36.375-6.334 73.958-17.084 108.583-13.708 42.125-28.416 83.833-46.875 124.125-15.958 34.917-26.625 71.708-46.208 103.583-5.667 9.542-11.792 18.75-17.708 28.125-15 23.125-25.709 48.25-41.959 70.667-17.416 25.833-38.833 48.5-56.416 74.208-71.209 38.209-149.75 67.875-225.209 96.5-33.541 12.75-68.958 17.542-102.791 29.209-16.417 5.708-33.334 8.833-50.417 11.791 10.042-13.041 19.208-25.541 21.125-42.458 11.083-93.917-4.833-189.792-27.875-280.833-19.667-70.292-39.25-138.292-71.375-203.959-53.958-108.791-133.667-204.083-228.667-279.5-51.458-39.791-110.416-70.916-172.666-89.958-45.792-14.583-94.959-15.25-141.542-3.958-51 12.833-98.083 34.25-143.625 60.25-46.917 27.541-92.333 59.708-130.708 98.458-42.917 43.417-83.292 92.333-111.959 146.417-51.458 94.458-91.916 196.125-115.75 301.125-9.625 43.875-10 86.291-11.916 130.958-.667 12.583.625 24.75 3.25 37.083-43.459-15.541-85.084-35.083-122.875-61.75-78.834-52.5-147.75-123.5-193.709-206.625-26.333-41.416-45-86.125-64.958-130.791-27.25-59.084-50-120.917-65.458-184.167-3.917-14.875-5.959-30.042-6.792-45.417-1.458-26.875-5.792-52.208-1.667-79.25 3.334-28.916 17.625-51.458 30.792-76.75 18.792-33.708 39.292-66.458 58.208-100.083 21.25-41.542 43.375-82.458 62.875-124.875 17.625-41.292 36.417-81.75 50.5-124.5 24.709-56.167 36.375-115.25 56.584-173.042 7.083-19.125 9.833-37.083 22.875-53.208.583 10.5.708 21.042-.209 31.542-6.541 69.958-16.458 138.083-17.125 208.5-1.583 74.833 9.75 149.75 29.375 221.833 18.542 65.292 45.375 128.708 92.459 178.75 35.708 37.333 83.333 58.042 133.833 65.917 67.958 10.583 137.292-5.792 195.25-42.209 59.042-34.875 106.042-88.833 130.417-153.166 25.125-60.542 23.458-128.042 15.708-191.959-8.375-43.833-15.917-87.625-26.542-130.958-12.416-50.083-31.375-101.583-38.416-152.333-2.167-17.917-4.834-36.167-1.667-54.084 3.417-22.208 11.958-48.333 8.667-70.75-3.75-9.458-15.209-16.125-23-22.25.458 15.625 1.416 31.375-.667 46.959-3.125 24.125-8.875 46.291-8.417 70.916.5 33.959 8.459 69 17.709 101.542 10.375 37 21 73.917 30.708 111.083 13.75 60.834 24.125 120.5 22.042 183.209-.042 83.708-42.542 166.375-109.334 216.5-54.041 41.875-122.541 68-191.5 63.125-45.708-3.209-95-18.917-129.416-50.209-34.75-31.791-60.125-75.416-77.042-119.083-25.292-62.708-38.417-129.292-45.583-196.292-9.084-96.25 4.625-189.125 14.041-284.875 3.334-33.75-2.416-65.375 6.334-98.833 9.625-38.708 20.166-79.458 38.791-114.917 11.917-22.75 29.125-39.166 47.334-56.708 33.041-31.083 70.541-55.875 110.5-77.042 16.666-8.416 36.458-28.041 55.958-24.291 15.667 1.416 27.75 9.833 38.167 21.041 33.791 35.75 69.583 69.584 107.333 101.125 12.667 10.417 26 24.084 41.625 29.334 16.458 5.833 34.125 9.041 51.292 12.125-20.292-20.459-42.834-38.75-64.875-57.209-53-45.458-102.667-94.333-151.75-144-74.25-81.708-133.542-176.541-175.167-278.791-11.75-38.375-22.958-77.5-28.583-117.209-9.042-42.541-19.459-84.333-22.334-127.958-7.291-54.375-15.166-109.542-16-164.458 41.709-7.75 75.667-27.875 112.584-47.459 16.833-9.083 30.333-22 46.458-32.166 7.292.708 13.75 2.458 20.792-.625C680.19 671.917 733.065 631.5 782.94 585.25c33.709-32.75 56.834-70.833 80.667-110.833 14.833-25.125 32.042-48.417 48.583-72.375 22.584-33.833 54.834-63 85.375-89.667 45.25-40.208 97.334-73.041 153.084-96.541 58.708-22.167 119.666-37.917 181.75-47.167 77.583-11.375 159.458-18.042 237.541-8.333Z" style="fill:#775237;fill-rule:nonzero"/>
  <path d="M769.815 293.625c26.334-1.75 49.875 11.084 72.417 23 8.125 4.834 21.417 12.209 22.208 22.75 1.209 11.417-12.625 18.542-22.333 14.375-14.75-6.916-25.375-19.708-42-24.708-19.375-5.458-41.708-5.292-59 6.125-21.583 14.208-35.292 45.042-34.25 70.458 1.875 26.417 20.833 37.667 36.167 55.959 6.083 6.25 1.458 17.541-6.459 19.708-8.666 1.875-18.291-4.042-24.708-9.458-22.583-19.959-36.667-50.792-31.667-81.167 4.292-25.208 14.542-52.583 33.542-70.417 15.667-14.875 33.833-26.125 56.083-26.625Z" style="fill:#59361a;fill-rule:nonzero"/>
  <path d="M2259.48 436.709c34.708 32.291 52.375 74.666 63.667 119.875 8.416 32.875 4.166 69.541-4.709 101.875-9.083 31-33.708 51.25-56.416 72.458-13.792 13.25-30 22.917-44.875 34.667-8.667 5.541-4.792 18.541-3.459 26.833 17.417 68.25 37.959 137.583 75.875 197.625 19.125 35.083 43.084 67.042 71.459 95.208 9.625 9.709 22.25 17.709 30.041 28.917 3.334 11.875 1.042 25.917-.5 37.917-21.958 57.458-54.666 106.958-85.291 159.875-19 27.958-38.375 55.791-58.625 82.916-12.292 17-17.209 35.417-34.417 48.875-42.5 35.042-83.083 72.334-125.5 107.459-32.542-17.084-66.875-35.167-94.583-59.584-16.375-14.333-26.667-31.875-38.5-49.75 48.416-33.75 70.166-96.041 71.791-153 1.375-20.583-5.458-41-3.791-61.291 6-16.5 19.708-30.542 29.041-45.334 30.917-46.5 58.042-97.916 72.5-152.083 17.75-74.25 7.625-141.75 2.292-216.25-4.708-66.542-14.875-135.208-36.292-198.625-11.25-34.792-24.708-68.958-38.416-102.875-7.459-16.583-14.417-35.833-28.75-47.583 27.791-31.959 63.625-42.167 102.083-55.375 45.5-19.834 99.917-5.917 135.375 27.25Z" style="fill:#654233;fill-rule:nonzero"/>
  <path d="M2226.94 502.584c24.584 15.791 40.334 41.708 47.542 69.583 11.208 40.625-10.292 88.042-47.75 107.042-8.958 4.583-19.458 6.375-29.125 2.875-5.958-1.334-9.5-8.167-6.417-13.5 11.084-17 37.375-26.459 46.542-45.292 9.5-25.083-.417-57.292-15.458-78.417-13.292-19.833-37.417-29.458-60.792-26.791-14.333 2-27.292 11.625-41.542 12.916-9.375-1.625-10.791-13.666-8.958-21.291 5.292-11.959 20.417-19.334 32.375-22.792 28.792-8.042 58.875.042 83.583 15.667Z" style="fill:#583518;fill-rule:nonzero"/>
  <path d="M689.024 489.584c17 15.208 32.958 26.083 53.875 35.333 9.958 3.5 4.25 11.167 2.166 18.167-14.541 32.083-34.208 61.791-59.583 86.375-27.25 26.25-56.542 50.291-89.25 69.5-16.125 10.166-29.625 23.083-46.458 32.166-36.917 19.584-70.875 39.709-112.584 47.459.834 54.916 8.709 110.083 16 164.458 2.875 43.625 13.292 85.417 22.334 127.958 5.625 39.709 16.833 78.834 28.583 117.209 41.625 102.25 100.917 197.083 175.167 278.791 49.083 49.667 98.75 98.542 151.75 144 22.041 18.459 44.583 36.75 64.875 57.209-17.167-3.084-34.834-6.292-51.292-12.125-15.625-5.25-28.958-18.917-41.625-29.334-37.75-31.541-73.542-65.375-107.333-101.125-10.417-11.208-22.5-19.625-38.167-21.041-19.5-3.75-39.292 15.875-55.958 24.291-39.959 21.167-77.459 45.959-110.5 77.042-18.209 17.542-35.417 33.958-47.334 56.708-18.625 35.459-29.166 76.209-38.791 114.917-8.75 33.458-3 65.083-6.334 98.833-9.416 95.75-23.125 188.625-14.041 284.875 7.166 67 20.291 133.584 45.583 196.292 16.917 43.667 42.292 87.292 77.042 119.083 34.416 31.292 83.708 47 129.416 50.209 68.959 4.875 137.459-21.25 191.5-63.125 66.792-50.125 109.292-132.792 109.334-216.5 2.083-62.709-8.292-122.375-22.042-183.209-9.708-37.166-20.333-74.083-30.708-111.083-9.25-32.542-17.209-67.583-17.709-101.542-.458-24.625 5.292-46.791 8.417-70.916 2.083-15.584 1.125-31.334.667-46.959 7.791 6.125 19.25 12.792 23 22.25 3.291 22.417-5.25 48.542-8.667 70.75-3.167 17.917-.5 36.167 1.667 54.084 7.041 50.75 26 102.25 38.416 152.333 10.625 43.333 18.167 87.125 26.542 130.958 7.75 63.917 9.417 131.417-15.708 191.959-24.375 64.333-71.375 118.291-130.417 153.166-57.958 36.417-127.292 52.792-195.25 42.209-50.5-7.875-98.125-28.584-133.833-65.917-47.084-50.042-73.917-113.458-92.459-178.75-19.625-72.083-30.958-147-29.375-221.833.667-70.417 10.584-138.542 17.125-208.5.917-10.5.792-21.042.209-31.542-13.042 16.125-15.792 34.083-22.875 53.208-20.209 57.792-31.875 116.875-56.584 173.042-14.083 42.75-32.875 83.208-50.5 124.5-19.5 42.417-41.625 83.333-62.875 124.875-18.916 33.625-39.416 66.375-58.208 100.083-13.167 25.292-27.458 47.834-30.792 76.75-4.125 27.042.209 52.375 1.667 79.25.833 15.375 2.875 30.542 6.792 45.417 15.458 63.25 38.208 125.083 65.458 184.167 19.958 44.666 38.625 89.375 64.958 130.791 45.959 83.125 114.875 154.125 193.709 206.625 37.791 26.667 79.416 46.209 122.875 61.75 31.541 10.042 61.833 23.084 93.875 31.625 51.458 16.209 104.166 25.25 156.166 39.209 99.709 26.083 200.875 46 303.042 59.541 48.792 4.417 96.042 13.5 145.083 14.167 70.334 6.708 141.917 3.708 212.5 4 29.334.542 58.167-4.542 87.5-4.125 25.292.208 49.75-3.542 74.917-5.792 20.208-1.916 38.875-8.375 58.625-12.25 17.083-2.958 34-6.083 50.417-11.791 33.833-11.667 69.25-16.459 102.791-29.209 75.459-28.625 154-58.291 225.209-96.5 39.875-19.541 77.5-45.083 112.875-71.833 22.625-19.417 48.291-35.833 66.458-58.667 13.917-16.666 28.958-32.291 42.458-49.333 21.167-26.917 43.584-50.833 61.084-80.5 22.916-38.167 48.083-78.708 62.125-121.042 22.25-66.75 30.791-136.458 16.375-205.875-9.917-44.083-22.75-87-42.792-127.625-13.167-29.458-27.542-58-42.333-86.625-29.709-65.083-57.375-131.333-81.542-198.666-24.5 17.583-47.125 35.833-75.833 46.625-31 12.541-61.5 12.208-94.375 12.583-69.209-7.208-133.417-34.958-192.667-70.292-46.292-27.25-88.833-60.375-126.5-98.666-47.417-46.959-86.458-97.542-131-148.084-17.333-18.875-38.75-33.333-56.333-52.041-44.209-42.834-75.084-98.75-86.334-159.334-9.041-54.958-3.583-112.583 14-165.333 18.792-57.333 58.834-107.833 107.959-142.375 49.916-34.75 111.166-53.625 171.916-54.333 39.75-.917 81.875 5.916 116.375 26.666 21.917 13.084 36.584 31.917 50.709 52.625 11.833 17.875 22.125 35.417 38.5 49.75 27.708 24.417 62.041 42.5 94.583 59.584 42.417-35.125 83-72.417 125.5-107.459 17.208-13.458 22.125-31.875 34.417-48.875 20.25-27.125 39.625-54.958 58.625-82.916 30.625-52.917 63.333-102.417 85.291-159.875 6.542 1.583 13.125 3.166 19.667 4.75-13.917 34.166-28.417 67.75-48.333 98.958-6.125 9.125-2.667 17.417-2.5 27.667-8.625 17.125-18.167 33.458-28.75 49.416-27.125 43.375-56.334 91.917-95.084 125.792-29.833 27.292-56.916 57.125-89.75 81.167-10.875 7.916-21.291 16.416-31.583 25.083 28.417 18.75 58.875 35.667 86.167 55.917 15.291 11.458 32.166 19.875 46.458 32.833 27.917 25.125 54.833 51.417 75.5 82.958 24.583 37.959 39.25 82.584 45.417 127.167 7.083 48.208 2.083 96.75-8.417 144.042-13.625 58.791-39.792 114.291-79.333 160.125l.583 4.416c12.167 52.709 33.083 104.459 57.708 152.542 9.584 20.458 19.917 40.417 30.75 60.208 20.667 38.292 39.709 77.125 52.917 118.667 11.167 29.333 16.417 60.125 26.333 89.792 4.334 13.333 7.459 26.958 10.375 40.625 1.709 13.916 2.959 27.875 3.709 41.833 2.541 61.833-18.959 113.625-38.459 170.542-3 8.375-6.291 16.583-9.791 24.75-12 26-22.917 53.583-38.25 77.666-16.417 26.25-33.834 51.542-55.125 74.042-34.584 37.833-68.959 83.5-114.584 113-1.25 2.292-2.5 4.542-3.75 6.833-7.583 2.917-14.958 6.167-22 10.25-29 20.125-55.708 42-87.333 58.375-81.833 42.875-167.25 79.792-255 108.709-18.167 6.666-36.25 12.25-55.417 15.333-4.833 2.583-10.958 5.5-13.958 10.208-2.417 5.667-2.208 12.625-2.667 18.667-7-3.917-14.083-7.667-21.125-11.5-9.833.25-19.416 1-29.166 2.375-6.875 1.833-13.834 3.458-20.75 5.25-12.5 2.667-24.917 5.333-37.584 7.25-24.916 4.5-50.208 5.583-75.166 9.458-34.959.125-69.084 6.542-104.042 5.25-50 1.167-100 .834-150 .459-18.458-.542-36.625.375-54.292-3.084-18.041-1.041-36-1.25-54.041-2.625-16.042-3.583-33.542-3-50.042-4.25-24.833-3.333-49.917-6.458-74.917-8.416-26.208-4.792-52.75-9.209-79.208-12.542-30.458-6.208-61.042-11.625-91.458-18-12.75-2.125-25.292-4.958-37.792-8.208-26.375-5.875-52.833-11.167-78.833-18.459-1.709 3.959-3.5 7.875-5.334 11.75-4.916-11.291-6.666-15.666-19.5-18.416-24.791-5.292-49.666-9.959-74.041-17.167-86.834-23.333-179.709-45.958-257.25-92.625-24.334-12.292-46.209-24.917-66.584-43.333-7.291-5.792-15.25-9.667-23.916-12.834l3.375-4c-19.125-16.5-38.667-32.75-56.584-50.625-62.5-64.791-110.458-145.333-146.791-227.291-29.75-69.542-61.459-140.417-78.125-214.084-12.417-49.458-13.667-99.25-10.834-149.916 3.959-33.5 23.459-66.584 40.209-95.334 27.75-46.5 54.791-93.25 79-141.708 22.958-42.542 40.333-87.375 60.541-131.167 23.334-43.75 39.125-91 53.292-138.416 21.75-69.459 49.333-136.875 71.875-206 14.083-50.667 28.417-110.375 60.667-152.875 40.625-49.542 91.291-84.667 146.75-115.792 18.75-10.083 39.166-22.292 51.416-40.208 2.459-8.834-5.708-15.25-10.208-21.792-67.542-81.583-119.792-176.583-157.292-275.417-6.083-15.458-10.416-31.416-12.75-47.875-7.875-49.5-22.958-98.166-27.708-148.083-5.25-38.25-12.917-75.333-14.875-114.375-2.583-33.917-9.417-72.917 1.708-105.625 7.417-2.042 14.834-4.083 22.292-6 8.333-2.833 16.75-5.417 25.083-8.125 47.792-22.542 93.625-50 136.292-81.167 37.042-26.083 76.417-55.291 104.125-91.625 5.875-7.291 7.417-15.5 8.875-24.541-3.167-2.084-6.333-4.167-9.458-6.292 2.333-2.667 4.666-5.292 7.041-7.958 5.625 1.541 11.209 3.083 16.834 4.541-10.542-10.458-23-18.625-33.875-28.666-4.542-4-2.917-9.334-2.875-14.75Z" style="fill:#573518;fill-rule:nonzero"/>
  <path d="M1293.23 520c14.375 5 19.583 21.25 23.708 34.417 6.917 25.833 7.292 57.625-10.375 79.5-19.958 26.708-54.625 36.958-86.666 37.958-23.334.625-50 1.667-72.167-6.666-11.042-4.25-20.5-14.084-16.417-26.667 6.292-27 32.542-40.542 52.334-56.833 22.583-17.709 45.291-35.625 69.166-51.584 11.459-7.375 26.667-14.541 40.417-10.125ZM1496.15 540.459c13.833-3.209 26.166 2.333 37.625 9.541 17.791 11.5 32.833 29.084 46.666 45 13.125 15.667 27.792 33.25 35.084 52.584 6.916 17 1.625 37.875-11.667 50.291-9.417 8.542-26.083 8.459-38.125 9.167-21.875.083-45.667.667-64.625-12.042-14-9.291-28.917-19.5-33.792-36.5-7.625-24.708-5.666-52.875-1.291-78.041 3.5-17.875 10.791-35.125 30.125-40Z" style="fill:#654233;fill-rule:nonzero"/>
  <path d="M1423.11 570.209c-2.583 15.208-7.375 29.875-9.625 45.083-2.417 18.833 1.625 39.167 2.125 58.417-11.833-16.959-9.833-36-9.125-55.667 2.083-17.75 2.708-34.917 16.625-47.833Z" style="fill:#5f3b1f;fill-rule:nonzero"/>
  <path d="M1245.57 722.584c-9.083 15.333-24.416 16.916-39.791 22.958-68.125 24.25-138.875 40.583-210.875 47.583-15.375 1.125-33.209 2.667-47.959-2.333-.625-3.125-1.041-6.292-1.25-9.5 15.25-5.125 33.125-1 49.125-3.208 71-6.792 141.375-23.375 208.417-47.584 14.833-4.708 26.708-14.5 42.333-7.916Z" style="fill:#583519;fill-rule:nonzero"/>
  <path d="M1338.86 774.917c-2.958 27.583-16.75 55.083-27.375 80.542-21.625 51.791-55.958 98.375-98.958 134.375-23.375 19.333-50.417 31.041-80.375 35.458-61.542 9.708-122.334-9.042-174.792-40.625-49.917-29.125-90.458-74-130.875-114.875-7.292-7.583-15.917-15.167-21.208-24.333-4.167-11.792 5.5-25.25 10.916-35.25 92.75 29.291 198.209 51.291 295 31.75 68.542-12.792 132.084-50.334 188.125-90.375 16.334-11.292 41.834 3.333 39.542 23.333ZM1436.15 773.084c11.125 5.5 20.041 16.291 29.458 24.291 41.833 36.792 90 70.709 142.167 91 96.458 37.5 207.208 33.334 307.958 18.25 5.417-.708 10.875-1 16.292-.875 7.5 8.667 9.375 21.667 7.708 32.667-3.708 7.542-12.583 12.958-19 18.083-41.333 28.959-77.792 58.417-121.5 82.542-32.833 18.042-68.083 30.125-104.583 38.333-1.834-2.958-3.667-5.916-5.584-8.833-.625 3.75-1.208 7.458-1.75 11.208-37.708 2.792-73.5 4.959-110.333-5.916-30.542-8.084-57.375-23.209-79.25-46.084-34.667-35.875-60.5-80.416-76.292-127.666-6.041-19.417-11.208-39.125-16.291-58.792-3.792-16.208-7.625-35-4.459-51.5 3.5-14.167 22.625-20.917 35.459-16.708Z" style="fill:#583519;fill-rule:nonzero"/>
  <path d="M1571.82 786.209c13.875 4.416 26.542 13.208 39.834 19.208 37.25 17.083 76.416 29.458 116.708 36.875 27.208 5.625 54.458 6.167 81.958 10.042.084 3.791.125 7.583.209 11.375-47.209 2.833-95.667-7.25-140.917-20.125-35.75-11.709-74.083-24.959-104.375-47.792 2.083-3.333 4.25-6.5 6.583-9.583Z" style="fill:#583519;fill-rule:nonzero"/>
  <path d="M1258.07 835c2.25 7.792 4.334 13.417 0 21.042-14.083 28.625-32.666 55.5-54.333 78.958-10.292-11.041-22.542-17.875-36.292-23.75-8 8.625-13.375 17.417-26.791 15.917-14.334-1-20.709-10.583-28.375-21.167-26.375 3.334-54.042 11.5-70.834 33.542-9.083 11.625-10.208 24.708-10.5 38.958-41.541-14.333-80.25-37.375-112.041-67.75-13.417-13.125-27.709-22.583-35.334-40.125 68.084 13.209 133.042 25.792 203 18.334 60.709-5.75 117.709-25.834 171.5-53.959ZM1473.36 866.334c31.208 20.708 62.292 40.666 97.333 54.416 79.417 34.917 171.959 41.334 257.542 34.375 9.042-.583 17.583-1.208 25.833 3.417-47.208 38.5-100.416 67.5-160.125 81.125-3.125-.833-6.25-1.708-9.333-2.625 1.417-13.292 2.708-25.5-4.958-37.125-15.584-24.875-40.125-34.875-67.042-43-10.333 9.833-18.792 19-34.5 17.208-12.708-.583-15.958-10.083-23.333-18.375-15.667 1.917-28.625 7.875-41.292 17.167-18.958-26.833-34.542-56.75-44.125-88.208-2.875-7.625.667-11.875 4-18.375Z" style="fill:#d8c9be;fill-rule:nonzero"/>
  <path d="M1112.27 906c7.666 10.584 14.041 20.167 28.375 21.167 13.416 1.5 18.791-7.292 26.791-15.917 13.75 5.875 26 12.709 36.292 23.75-20.667 21.875-42.792 40.709-72.75 47.959-32.75 7.208-67.917 4.666-100.042-4.459.292-14.25 1.417-27.333 10.5-38.958 16.792-22.042 44.459-30.208 70.834-33.542ZM1554.77 955.75c7.375 8.292 10.625 17.792 23.333 18.375 15.708 1.792 24.167-7.375 34.5-17.208 26.917 8.125 51.458 18.125 67.042 43 7.666 11.625 6.375 23.833 4.958 37.125 3.083.917 6.208 1.792 9.333 2.625-37.666 5.875-79.5 4.875-115.208-9.625-28.208-11.792-47.583-32.958-65.25-57.125 12.667-9.292 25.625-15.25 41.292-17.167Z" style="fill:#28180b;fill-rule:nonzero"/>
  <path d="M754.565 1053.17c15.875-3.667 32.167-3.333 48.125-.208 53.625 11.583 97.875 49.458 121.375 98.541 8.625 19.167 12.959 41.542 8.917 62.417-4.792 29.917-23.917 56.875-51.458 69.917-32.209 16.333-70.667 10.583-102.167-4.459-51.958-23.958-94.875-81.916-90.25-140.708 2.583-39.125 25.458-76.375 65.458-85.5Z" style="fill:#8f5a4d;fill-rule:nonzero"/>
  <path d="M1379.98 1062.38c29.042 9.042 55.833 26.459 79.417 45.375 46.916 42.459 81.083 97.959 93.833 160.25 7.5 31.709 8.333 64.292.625 96.042-7.292 28.75-31.542 51.875-58.25 63.25-23.958 10.5-51.75 9-76.75 3.5-37.75-19.25-69.792-50.375-92.958-85.583-12.167-15.917-5.459-42.625-4.209-61.417 36.417-6.542 66.125-31.542 83.375-63.667 7.667-14.5 9.542-32.958 12.917-49-12.083-20.583-25.917-38.666-51.625-40.791-34.5-3.167-76.292-12.125-109.667-1.334-14.791 4.042-24.833 13.584-34.708 24.709 4.292 17.125 6.208 35.5 12.708 51.583 12.417 29.792 29.084 56.458 58.917 71.292-.208 15.333.417 31.083-1.958 46.208-3.334 6.875-11.75 11.5-17.834 15.792-28.458 17.666-54.375 35.708-87.583 43.5-21.375 3.916-43.917 7.458-63.5-4.5-28.125-17.084-42.875-52.5-42.083-84.542.708-23.958 5.458-48.208 14.625-70.417 14.958-34.666 33.708-66.708 61.083-93.083 32.5-30.5 66.167-56.75 109.958-68.625 37.709-11.917 75.959-8.375 113.667 1.458Z" style="fill:#b78657;fill-rule:nonzero"/>
  <path d="M1689.07 1068.54c1.917 2.917 3.75 5.875 5.584 8.833 12.333 22.084 23.75 44.584 37.25 66 14.208 23.417 25.666 46.125 20.916 74.5l-1.458 2.917c-7.208 10.5-14.125 20.042-27.083 23.458-13.667 3.167-30.834 0-39.209-12.25-11-13.541-8.875-31-8.291-47.291 2.583-34.834 6.166-70.334 10.541-104.959.542-3.75 1.125-7.458 1.75-11.208Z" style="fill:#6092ae;fill-rule:nonzero"/>
  <path d="M1989.57 1164.92c19.5 37.292 12.25 84.583-14.833 116.25-36.833 42.583-96.542 65.625-152.167 51.542-31.875-6.667-56.708-33.209-66.416-63.542-4-15.5-3.834-32.458-4.792-48.375l1.458-2.917c10.5-21.416 20.042-41.708 37.584-58.5 24.833-24.333 57.125-41.833 91.666-47 41.959-6.083 87.042 15.125 107.5 52.542Z" style="fill:#8f5a4d;fill-rule:nonzero"/>
  <path d="M1366.36 1130.33c25.708 2.125 39.542 20.208 51.625 40.791-3.375 16.042-5.25 34.5-12.917 49-17.25 32.125-46.958 57.125-83.375 63.667-1.25 18.792-7.958 45.5 4.209 61.417 23.166 35.208 55.208 66.333 92.958 85.583-18.042 26-39.583 48.875-56.042 76.042-8.625 12.666-16 28.583-27.791 38.5-26.25 3.833-55.875-5.084-81.834-9.667-9.458-2.75-21.291-2.375-25.125-13.292-17.041-44.5-32.291-91.25-45.291-137.166l3.458-3.125c33.208-7.792 59.125-25.834 87.583-43.5 6.084-4.292 14.5-8.917 17.834-15.792 2.375-15.125 1.75-30.875 1.958-46.208-29.833-14.834-46.5-41.5-58.917-71.292-6.5-16.083-8.416-34.458-12.708-51.583 9.875-11.125 19.917-20.667 34.708-24.709 33.375-10.791 75.167-1.833 109.667 1.334Z" style="fill:#28180c;fill-rule:nonzero"/>
  <path d="M1690.52 1168.92c10.666 9.75 7.416 16.25.375 26.792-.542-8.959-.709-17.834-.375-26.792Z" style="fill:#afc2cd;fill-rule:nonzero"/>
  <path d="M1691.98 1213.67c6.458 2.667 13 5.792 19.75 7.708 8.167-.333 16.417-2.25 24.5-3.5-8.375 9.75-18.167 14.875-31.125 10.584-7.417-2.25-9.208-8.792-13.125-14.792Z" style="fill:#c4cfd5;fill-rule:nonzero"/>
  <path d="M1287.73 1380.75c-3.708 27.959-4.625 56.292-3.25 84.417 3.833.333 7.667.708 11.5 1.042-1.167 10.625-1.875 21.291-2.375 31.958-4.792 0-12.833 3-16.625-.167-1-11.041 1.375-22.416 1.625-33.5.042-16.583-.125-33.166.5-49.75-3.542.375-7.125.75-10.667 1.084-13.958 1.416-27.791 3.375-41.583 5.791-.875-7.041-1.833-14.083-2.708-21.125 22.666-3.125 42-12.958 63.583-19.75Z" style="fill:#c3c3c4;fill-rule:nonzero"/>
  <path d="M1309.69 1389.58c14.292 9.666 29.584 18.458 41.584 30.375 7.833 7.708 16.416 14.291 25.5 20.458-12.375 23.042-27.709 44.542-42.417 66.167l-3.083-7.25c-13.542.041-27.209.75-40.625 2.833l.916 7.083c13.25 1.75 27.5.792 40.834.042a245.0046 245.0046 0 0 1-6.375 6.75c-25.667 1-50.625-2.25-76.084-4.833-2.333-3.167-4.666-6.375-6.833-9.709 11.833 3.584 21.833 4.75 34.208 3.709-7.166-4.25-14.666-7.667-22.333-10.959-4.583-7.666-9-15.458-13.458-23.208-1.375 5.208-2.75 10.458-4.042 15.708-10.167-27.666-17.542-56.125-26.667-84.125 4.459-.75 8.875-1.458 13.334-2.125.875 7.042 1.833 14.084 2.708 21.125 13.792-2.416 27.625-4.375 41.583-5.791.334 17.083 1.042 34.083 2.167 51.125 2.667-.834 5.333-1.625 8-2.459-.25 11.084-2.625 22.459-1.625 33.5 3.792 3.167 11.833.167 16.625.167.5-10.667 1.208-21.333 2.375-31.958 2.458-4.875 5.083-9.334 6.167-14.75 3.708-20.584 7.708-40.875 7.541-61.875Z" style="fill:#e3e1e2;fill-rule:nonzero"/>
  <path d="M1778.23 1387.46c40.417-1.584 82.833 2.708 117.333 25.666 31.292 21.542 45.334 61.667 73.25 89.292 37.834 37.917 91.417 61.125 137.834 87.25 31.541 16.125 61.25 35.333 90.083 55.792 42.458 32.333 88.792 71.208 114.458 118.791 38.917 71.709 43.792 154.334 26.084 233-14.917 68-47.584 133.042-100.667 179.167-33.833 30-74.667 50.625-120.583 51.917-70.084 3.333-142.875-27.834-202.709-62.042-62.333-35.417-117.125-81.875-164.25-135.75-35.833-39.292-69.041-80.958-104.416-120.542-17.75-15.708-36.792-29.541-52.875-47.208-49.167-49.458-79.625-116.25-80.042-186.417-.917-69.458 20.25-142.583 67.375-194.958 48.917-58 123.875-91.167 199.125-93.958Z" style="fill:#775237;fill-rule:nonzero"/>
  <path d="M1317.44 1407.25c20.417 8.75 33.25 24.625 48.125 40.25-3.791 3.167-7.625 6.292-11.5 9.334-1.708-4.417-3.458-8.875-5.125-13.334-9.458-6.041-23.208-11.875-29.041-21.75-1.042-4.791-1.834-9.625-2.459-14.5Z" style="fill:#bebebe;fill-rule:nonzero"/>
  <path d="M1279.11 1414.75c-.625 16.584-.458 33.167-.5 49.75-2.667.834-5.333 1.625-8 2.459-1.125-17.042-1.833-34.042-2.167-51.125 3.542-.334 7.125-.709 10.667-1.084Z" style="fill:#f3f2f3;fill-rule:nonzero"/>
  <path d="M1241.52 1471.04c4.458 7.75 8.875 15.542 13.458 23.208 7.667 3.292 15.167 6.709 22.333 10.959-12.375 1.041-22.375-.125-34.208-3.709-2.083-4.791-3.958-9.75-5.625-14.75 1.292-5.25 2.667-10.5 4.042-15.708Z" style="fill:#f6f6f6;fill-rule:nonzero"/>
  <path d="m1331.27 1499.33 3.083 7.25-1.958 2.708c-13.334.75-27.584 1.708-40.834-.042l-.916-7.083c13.416-2.083 27.083-2.792 40.625-2.833Z" style="fill:#f3f3f4;fill-rule:nonzero"/>
  <path d="M2280.61 2172.38c52.083 18.834 102.833 40.834 152.708 64.875 90.792 42.75 174.167 95.667 256.459 152.792 27.958 17.417 51.5 40.375 79.541 57.625 46.375 32.333 91.292 66.542 133.875 103.75 52.792 51.375 105.5 102.75 155.875 156.5 19.5 20.292 34.417 43 49.125 66.875 36.167 57.875 75.209 116.833 99.584 180.625 7 17.667 11.75 35.875 17.416 54 8.875 26.083 10.417 53 15.917 79.833 4.458 19.459-3.667 34.209-6.75 53.292-11.542 63.25-48.625 122.208-92.583 168.125-15.875 19.042-34.375 35-52.917 51.333-31.333 30.542-68.708 53.25-100.167 83.292-17.875 17.333-40.333 30.75-62.416 42.167-46.834 20.916-92.209 39.875-143.875 45-24.917 1.791-50.042 1.666-75 1.166-16.584-.666-32.042-.166-47.834-5.833-21.25-7.667-41.583-14.125-61.083-25.792-26.375-14.916-48.417-38.083-66.917-61.75-40-52.958-77.041-109.916-104.958-170.208-19.792-39.583-35.667-80.792-54.542-120.75-17.916-41.958-36.875-82.75-51.291-126.25 21.291-22.5 38.708-47.792 55.125-74.042 15.333-24.083 26.25-51.666 38.25-77.666 53.875 21.791 109.333 38.25 164.708 55.75-14.583 36.791-33.875 70.291-53.958 104.25-16.834 29.25-37.959 56.625-60.292 81.875-39.458-18.75-75.042-44.875-114.5-63.459 5.958 15.042 10.292 33.25 24.875 42.334 22.333 15.083 46.833 26.5 68.833 42.166-13.583 11.834-28.166 22.042-43.541 31.417 3.75 8.375 7.5 16.75 11.25 25.083 23.291-9.875 41.833-25.666 62.333-39.958 105.5 55.125 216.167 105.458 329.625 141.833 14.625 5.042 31.583 8.834 44.625 17.167-34.625 54.833-79.625 107.125-129.667 148.5-20.5 17.625-44.625 28.833-66.25 44.792 16.834 3.166 38.209 12.25 53.584.958 72.791-44.667 131.708-114.417 177.791-185.458 35.125 9.541 69.584 21.25 104.709 30.666 18.75 4.75 37.5 12.667 56.75 14.709 11.833-3.667 21.833-14.834 31.083-22.667-22.292-10.708-45.708-15.042-69.125-22.458-34.75-10.542-70.083-18.875-104.625-30.125 39.542-71.875 72.25-146.625 95.5-225.375 4-14 8.583-27.75 13.625-41.417 65.5 7.542 131.583 16.75 197.583 20.667-1.458-11.959-3.541-23.625-6.875-35.209-60.583-6.541-121.75-10.375-181.958-19.875 13.583-60.291 28.042-119.791 38.667-180.791 2.833-17.792 9.583-36.209 9.208-54.209-5.083-12.625-16.333-23.291-25.167-33.416-10.708 27.041-12.166 57.875-18.708 86.416-12.708 59.167-22.375 119.709-40.083 177.584-107.125-14.709-213.792-38.25-318.75-64.042-13.042-3.208-27.334-6-39.417-11.917 2.542-13.541 9.458-26.625 14.083-39.625 23.334-65.375 43.125-131.916 59.5-199.416 3.25-13.209 5.667-27.125 10.584-39.834 1.958-6.083 9.125-7.041 14.333-9.166 34.125-10.125 68.583-19.917 102.125-31.875 20.792-7.459 42.083-12.459 62.125-22-9-8.334-18.167-18.417-29.125-24.084-4.542-.958-9.875 1.209-14.25 2.375-39.167 13.75-78.542 27.917-118.542 38.917-6.375 2.292-4.375-7.292-3.791-10.625 8.5-38.667 18.958-76.833 26.125-115.833-9.375-7.292-18.834-14.459-28.959-20.709-14.25 53.125-23.666 107.75-38.708 160.667-71.667 21.333-146 37.625-220.083 47.5-.959-3.042-1.834-6.125-2.709-9.208-2.916-13.667-6.041-27.292-10.375-40.625-9.916-29.667-15.166-60.459-26.333-89.792-13.208-41.542-32.25-80.375-52.917-118.667 2.292-15.375 2.209-33 8.209-47.416 7.375-8.917 17.916-15.5 26.708-23.084 17.25-14.541 33.458-30.416 49.667-46.125-9.417-4.333-22.667-14.541-33.042-12.958-13.833 10.25-24.792 23.875-38.708 34.167 1-17.875 2.416-35.667 3.75-53.5-9.5-4.375-19.084-8.917-28.792-12.792-6.042 26.458-6.583 52.375-9.375 79.125-.708 8.542-4.958 15.167-9.167 22.375-24.625-48.083-45.541-99.833-57.708-152.542Z" style="fill:#221811;fill-rule:nonzero"/>
  <path d="M2255.73 2193.83c24.167 67.333 51.833 133.583 81.542 198.666 14.791 28.625 29.166 57.167 42.333 86.625 20.042 40.625 32.875 83.542 42.792 127.625 14.416 69.417 5.875 139.125-16.375 205.875-14.042 42.334-39.209 82.875-62.125 121.042-17.5 29.667-39.917 53.583-61.084 80.5-13.5 17.042-28.541 32.667-42.458 49.333-18.167 22.834-43.833 39.25-66.458 58.667-35.375 26.75-73 52.292-112.875 71.833 17.583-25.708 39-48.375 56.416-74.208 16.25-22.417 26.959-47.542 41.959-70.667 5.916-9.375 12.041-18.583 17.708-28.125 19.583-31.875 30.25-68.666 46.208-103.583 18.459-40.292 33.167-82 46.875-124.125 10.75-34.625 18.542-72.208 17.084-108.583-1.125-27.084-9.125-52.792-18.375-78.084-15.125-42.541-31.792-83.541-59.75-119.5-28.334-42.791-52.209-87.833-66.417-137.416-8.333-30.584-16.667-61.542-21.042-92.959-12.083-1.083-24.125-2.291-36.166-3.708 32.875-.375 63.375-.042 94.375-12.583 28.708-10.792 51.333-29.042 75.833-46.625Z" style="fill:#654233;fill-rule:nonzero"/>
  <path d="M2356.86 2223.42c9.708 3.875 19.292 8.417 28.792 12.792-1.334 17.833-2.75 35.625-3.75 53.5 13.916-10.292 24.875-23.917 38.708-34.167 10.375-1.583 23.625 8.625 33.042 12.958-16.209 15.709-32.417 31.584-49.667 46.125-8.792 7.584-19.333 14.167-26.708 23.084-6 14.416-5.917 32.041-8.209 47.416-10.833-19.791-21.166-39.75-30.75-60.208 4.209-7.208 8.459-13.833 9.167-22.375 2.792-26.75 3.333-52.667 9.375-79.125Z" style="fill:#3e2c1e;fill-rule:nonzero"/>
  <path d="M1203.15 2434.79c62.25 19.042 121.208 50.167 172.666 89.958 95 75.417 174.709 170.709 228.667 279.5 32.125 65.667 51.708 133.667 71.375 203.959 23.042 91.041 38.958 186.916 27.875 280.833-1.917 16.917-11.083 29.417-21.125 42.458-19.75 3.875-38.417 10.334-58.625 12.25-25.167 2.25-49.625 6-74.917 5.792-29.333-.417-58.166 4.667-87.5 4.125-70.583-.292-142.166 2.708-212.5-4-49.041-.667-96.291-9.75-145.083-14.167-102.167-13.541-203.333-33.458-303.042-59.541-52-13.959-104.708-23-156.166-39.209-32.042-8.541-62.334-21.583-93.875-31.625-2.625-12.333-3.917-24.5-3.25-37.083 1.916-44.667 2.291-87.083 11.916-130.958 23.834-105 64.292-206.667 115.75-301.125 28.667-54.084 69.042-103 111.959-146.417 38.375-38.75 83.791-70.917 130.708-98.458 45.542-26 92.625-47.417 143.625-60.25 46.583-11.292 95.75-10.625 141.542 3.958Z" style="fill:#b2875c;fill-rule:nonzero"/>
  <path d="M2720.19 2435.25c10.125 6.25 19.584 13.417 28.959 20.709-7.167 39-17.625 77.166-26.125 115.833-.584 3.333-2.584 12.917 3.791 10.625 40-11 79.375-25.167 118.542-38.917 4.375-1.166 9.708-3.333 14.25-2.375 10.958 5.667 20.125 15.75 29.125 24.084-20.042 9.541-41.333 14.541-62.125 22-33.542 11.958-68 21.75-102.125 31.875-5.208 2.125-12.375 3.083-14.333 9.166-4.917 12.709-7.334 26.625-10.584 39.834-16.375 67.5-36.166 134.041-59.5 199.416-4.625 13-11.541 26.084-14.083 39.625 12.083 5.917 26.375 8.709 39.417 11.917 104.958 25.792 211.625 49.333 318.75 64.042 17.708-57.875 27.375-118.417 40.083-177.584 6.542-28.541 8-59.375 18.708-86.416 8.834 10.125 20.084 20.791 25.167 33.416.375 18-6.375 36.417-9.208 54.209-10.625 61-25.084 120.5-38.667 180.791 60.208 9.5 121.375 13.334 181.958 19.875 3.334 11.584 5.417 23.25 6.875 35.209-66-3.917-132.083-13.125-197.583-20.667-5.042 13.667-9.625 27.417-13.625 41.417-23.25 78.75-55.958 153.5-95.5 225.375 34.542 11.25 69.875 19.583 104.625 30.125 23.417 7.416 46.833 11.75 69.125 22.458-9.25 7.833-19.25 19-31.083 22.667-19.25-2.042-38-9.959-56.75-14.709-35.125-9.416-69.584-21.125-104.709-30.666-46.083 71.041-105 140.791-177.791 185.458-15.375 11.292-36.75 2.208-53.584-.958 21.625-15.959 45.75-27.167 66.25-44.792 50.042-41.375 95.042-93.667 129.667-148.5-13.042-8.333-30-12.125-44.625-17.167-113.458-36.375-224.125-86.708-329.625-141.833-20.5 14.292-39.042 30.083-62.333 39.958-3.75-8.333-7.5-16.708-11.25-25.083 15.375-9.375 29.958-19.583 43.541-31.417-22-15.666-46.5-27.083-68.833-42.166-14.583-9.084-18.917-27.292-24.875-42.334 39.458 18.584 75.042 44.709 114.5 63.459 22.333-25.25 43.458-52.625 60.292-81.875 20.083-33.959 39.375-67.459 53.958-104.25-55.375-17.5-110.833-33.959-164.708-55.75 3.5-8.167 6.791-16.375 9.791-24.75 55.334 18.916 110.917 36.833 167.375 52.125 36-86 58.959-173.834 82.125-264.042-27.75 3.833-53.916 12.917-81.375 18.375-42.916 9.542-86.125 16.833-129.666 23-.75-13.958-2-27.917-3.709-41.833.875 3.083 1.75 6.166 2.709 9.208 74.083-9.875 148.416-26.167 220.083-47.5 15.042-52.917 24.458-107.542 38.708-160.667Z" style="fill:#3e2c1e;fill-rule:nonzero"/>
  <path d="M2673.44 2634.67c-23.166 90.208-46.125 178.042-82.125 264.042-56.458-15.292-112.041-33.209-167.375-52.125 19.5-56.917 41-108.709 38.459-170.542 43.541-6.167 86.75-13.458 129.666-23 27.459-5.458 53.625-14.542 81.375-18.375ZM2612.44 2939.17c12-1.333 25.375 4.583 36.917 7.542 91.583 25.666 185.625 44.75 279.208 61.541 14.625 3 31.917 3.042 45.25 9.959-9 46.958-28.625 92.875-45.291 137.583-18.459 41.667-36.542 85.083-62 123-52.25-14.5-104.125-33.75-155.292-52-73.875-28.458-147.083-59.917-216.708-97.583 13.083-18.459 28-35.459 40.708-54.209 19.083-27.291 35.542-56.75 51.458-86 9.042-16.25 15.042-34.708 25.75-49.833Z" style="fill:#221811;fill-rule:nonzero"/>
  <path d="M384.94 3147.58c-33.833 39.166-70.25 75.75-110.583 108.208-22.5 17.833-42.625 37.792-62.875 58.083-27.958 27.709-47.333 64.292-56.542 102.417-5.833 29.042-5.875 61.958.292 90.958 13.958 56.125 50.167 107.125 95.25 142.792 48.375 36.167 99.083 65.667 161.333 66.625 37.5 2 74.417-13.792 103.417-36.667 24.208-22.541 48.917-46.916 66.75-74.833 22.458-31.917 43.917-64.458 65.958-96.625 35.667-49.625 67.584-101.542 102.209-151.833 12.833-17.75 24.666-35.5 32.666-56 12.834 2.75 14.584 7.125 19.5 18.416-6.125 10.875-15.166 19.75-21.5 30.584-21.875 37.541-47.083 72.75-68.833 110.416-11.875 21.375-28.958 37.375-42.667 57.542-30.791 45.542-59.083 92-94.125 134.5-30.416 38.75-66 71.5-113.666 87.333-37.5 4.667-75.375 4.125-112.334-4.208-5.666-1.5-11.375-2.792-17.125-4.042-8.875-2.583-17.666-5.333-26.541-7.916l-.625-1.584c-13.834-5.291-26.917-12.083-39.834-19.25-51.416-39.666-94.458-91.333-119.583-151.583-1.792-5.333-3.583-10.708-5.375-16.042-12.833-34.125-11.375-68.625-10.458-104.375.625-20.166 7.75-39.916 14-58.958 25.083-58.417 67.833-99.125 115.375-139.458 24.958-23.209 51.25-42 74.708-67 9.292-9.917 18.417-20.042 27.292-30.334 8.666 3.167 16.625 7.042 23.916 12.834Z" style="fill:#29180c;fill-rule:nonzero"/>
  <path d="M2206.19 3136.04c-.375 3.833-.75 7.708-1.083 11.542 20.625 27.958 36.167 59 58.458 85.958 26.875 39.083 59.792 72.458 92.625 106.417 42 41.708 84.417 84.125 106.75 140 6.042 18.333 12.834 35.166 13.917 54.708 1 19.375.917 39.042-.042 58.417-.666 18.75-8.166 37.208-14.041 54.916-17.875 40.667-44.792 73.5-78.917 101.625-18.792 8.084-34.5 20.959-52.708 30-37.959 19.792-80.792 34.459-123.709 36.75-24.75 2-48.166 5.75-72.833 0-26-4.208-47.958-16.458-72.208-25.541-28.125-16.917-51.417-42.709-72.459-67.584-45.791-60.875-82.708-129.625-123.375-194.041-22-33.709-41.5-68.875-63.708-102.459-12.625-18.75-21.792-39.458-34.125-58.375l-2.667-3.958c.459-6.042.25-13 2.667-18.667 3-4.708 9.125-7.625 13.958-10.208 38.709 63.958 75 129.5 113.542 193.542 16.125 30.583 34.375 59.625 52.875 88.75 26.708 46.041 56.417 89.125 94.333 126.708 25.75 25.667 61 42.125 96.334 49.375 23.375 3.458 47.791 3.167 71.25.833 65.125-11 126.333-36.125 175.875-80.541 28.125-28.584 52.25-61 62.125-100.542 10.541-42.083 8.333-90.417-11.792-129.458-28.25-61.584-89.583-112.084-134.875-161.167-29.958-30.792-53.833-65.417-79.417-99.792-15.416-22.541-30.25-45.708-42.5-70.125 7.042-4.083 14.417-7.333 22-10.25 1.25-2.291 2.5-4.541 3.75-6.833Z" style="fill:#29190c;fill-rule:nonzero"/>
  <path d="M384.94 3147.58c20.375 18.416 42.25 31.041 66.584 43.333 77.541 46.667 170.416 69.292 257.25 92.625 24.375 7.208 49.25 11.875 74.041 17.167-8 20.5-19.833 38.25-32.666 56-34.625 50.291-66.542 102.208-102.209 151.833-22.041 32.167-43.5 64.708-65.958 96.625-17.833 27.917-42.542 52.292-66.75 74.833-29 22.875-65.917 38.667-103.417 36.667-62.25-.958-112.958-30.458-161.333-66.625-45.083-35.667-81.292-86.667-95.25-142.792-6.167-29-6.125-61.916-.292-90.958 9.209-38.125 28.584-74.708 56.542-102.417 20.25-20.291 40.375-40.25 62.875-58.083 40.333-32.458 76.75-69.042 110.583-108.208ZM2180.44 3153.12c12.25 24.417 27.084 47.584 42.5 70.125 25.584 34.375 49.459 69 79.417 99.792 45.292 49.083 106.625 99.583 134.875 161.167 20.125 39.041 22.333 87.375 11.792 129.458-9.875 39.542-34 71.958-62.125 100.542-49.542 44.416-110.75 69.541-175.875 80.541-23.459 2.334-47.875 2.625-71.25-.833-35.334-7.25-70.584-23.708-96.334-49.375-37.916-37.583-67.625-80.667-94.333-126.708-18.5-29.125-36.75-58.167-52.875-88.75-38.542-64.042-74.833-129.584-113.542-193.542 19.167-3.083 37.25-8.667 55.417-15.333 87.75-28.917 173.167-65.834 255-108.709 31.625-16.375 58.333-38.25 87.333-58.375Z" style="fill:#4b3423;fill-rule:nonzero"/>
</svg>
