<svg xmlns="http://www.w3.org/2000/svg" xml:space="preserve" style="fill-rule:evenodd;clip-rule:evenodd;stroke-linejoin:round;stroke-miterlimit:2" viewBox="0 0 3779 3876">
  <path d="M0 0h3778.93v3875.48H0z" style="fill:none"/>
  <path d="M1328.55 60.244c19.542-3 38.167-2.083 57.875-2.167 47.209.209 94.584-.208 141.792 1.542 42.792 6.542 86.542 5.667 128.958 14.25 69.042 9 137.584 25.667 204.542 44.458 12.417 3.709 24.417 8.334 35.542 15 29.333 17.209 60.666 33.209 88.125 53.084 72.875 52.208 138 117.625 186.416 193.291 17.584 28.292 33.584 55.459 38.834 88.959 6.875-1.209 13.625-2 19.958-5.292 21.583-10.375 44.583-18.458 68.125-23 27.125-5.75 56.167-4 83.625-1.625 9.792 3.167 19.458 6.208 29.542 8.542 32.666 13.333 56.125 37.75 77.125 65.25 10.291 12.541 18.541 26.041 25.916 40.416 7.584 19.25 15.375 36.792 15.709 57.959.833 47.416 4 90.583-12.625 136.125-12.542 32.166-37.459 56.583-65.125 76.291-16.292 11.375-31.417 23.959-48.667 33.917 1.583 19.917 7.792 38.417 11.833 57.833 1.542 5.459 2.959 10.959 4.334 16.417 12.416 43.167 28.416 84.625 51.5 123.292 24.541 46.916 58.375 83.416 93 122.75 12.541 13.791 6.416 34.75.041 50-17 46.875-46.458 87.291-74.291 128.125-18.667 28.541-40.042 54.833-60.875 81.916-17.417 19.667-34.25 39.459-50.584 60.042.667 8.542.417 16.542 5.084 24.125 12.125 22.208 21.291 46.917 21.5 72.5.625 34.667 1.25 69.625-1.25 104.208-7.209 56.292-12.375 114.084-35.542 166.584-16.625 42.875-27.917 86.75-44.25 129.666-9.5 20.334-15.958 39.292-11.25 62.125 11.5 56.667 31.25 111.75 43.458 168.25 3.125.375 6.209.792 9.334 1.167-8.75 18.292 5.375 33.875 10.25 51.458 14.916 47.625 35.583 92.75 52.958 139.417 18.125 49.042 42.042 95.167 57 145.458 5.708 18.75 10.792 37.709 16.25 56.542 6.708 27.208 9.375 55.5 10.125 83.458-1.667 41.625-8 83.417-20.167 123.334-16.375 50-40.791 97.958-72.125 140.25-11.333 12.333-22.666 23.5-30.5 38.625-25.583 30.583-49.291 62.208-78.375 89.708-25.875 27.542-56.625 46.708-85.125 70.083l.625 6.292c-2.666-1.625-5.416-3.125-8.208-4.583-6.208 2.625-12.125 5.666-18.125 8.75-21.375 11.75-41.625 25.625-63.25 36.875-58.167 28.958-120.25 51.416-181.875 72.5-40.458 13.666-82.208 23.291-123.375 35.375-16.042 4.916-32.458 6.916-49.042 8.75-5.208 2.916-13.333 6.5-15.416 12.458-.834 6 .25 12.375.875 18.333-6.209-4.75-12.709-9.125-19.334-13.291l-3.875-.417c-9-5.417-16.541-2.958-26-.833-28.041 2.083-55 8.833-83.125 9.75-77.791 1.875-155.541 1.166-233.375-.042-7.083-.333-14.083-1.333-21.083-2.542-20.75-1.75-41.583-.5-62.042-3.541-12.541-1.875-25.125-2.709-37.75-3.584-93.666-12.416-187.083-24.916-279.083-47.041-12.542-2.417-24.917-5.417-37.208-8.667-9.834-2.333-19.625-4.833-29.5-6.875-22.167-5.833-44.375-11.5-66.417-17.917-8.458-2.083-16.833-4.583-25.25-6.916-9.792-2.792-19.375-6-29.333-8.25-9.5-3.084-19.042-5.834-28.792-8.042a656.929 656.929 0 0 1-6.625 13.25c-1.875-6.083-3.458-12.458-6.083-18.25-3.875-1.583-7.834-2.958-11.875-4.042-42.375-10.25-84.084-24.583-125.542-37.916-52.125-16.792-103.333-36.209-152.875-59.5-28.5-13.667-54.208-31.875-81.75-47.667-16.75-9.375-29.333-22.917-43.458-35.458-5.917-4.125-12.25-7.417-18.75-10.5-.542-2.167-1.084-4.375-1.625-6.542-45.792-37.583-81.5-82.792-114.084-131.917-34.875-55.5-63.083-115-85.541-176.5-31.459-83.208-62.5-167.125-66.542-256.833.125-28.5-2.417-54.625 4-82.625 7.458-40.833 34.125-74.958 57.042-108.458 41.666-57.959 80.083-118.375 114.791-180.75 15.75-29.959 30.792-60.125 48.625-88.875 13-21.459 21.709-44.709 33.25-66.875 2-5.209 8.167-12.667 3.834-17.875-20.5-31.167-37.792-63.459-47.834-99.584-5.583-18.083-7.875-36.75-12.625-55.083-2.333-35.833-1.708-72.167.167-108 4.958-28.833 4.958-58.792 9.75-87.75 1.417-29 5.333-57.667 6.125-86.708 3.5-31.5 11.583-61.625 19.333-91.417 9.584-43 25.084-84.917 40.709-126.042 8.291-22.041 19.541-42.875 34.208-61.333 25.667-33.375 63.083-55.208 102.417-68.708 4.375-1.459 8.75-2.875 13.125-4.292 11.375-2.125 22.416-5.417 33.583-8.458 12.042-1.042 24.083-1.584 36.208-1.834-3.291-14.666-7.125-28.75-12.208-42.916-.75-5.5-1.583-11-2.458-16.459-5.959-20.583-6.959-41.458-10.5-62.458-3.584-29.167-9.584-57.833-12.084-87.167-2.166-34.916-6.958-69.75-9.291-104.666 0-34.625-1.459-69.417 0-104 3.541-7.167 6.833-14.417 10-21.709 27.291-1.916 50.416-8.25 75.291-19.291 30.334-13.75 61.167-27.167 90.084-43.834 49.791-29.416 105.041-58.041 142.833-102.708 5.5-6.083 6.583-12.458 7.5-20.333-27.208-17.625-49.5-42.834-65.083-71.167-18.709-35.458-21.584-73.583-18.375-112.958 2.916-9.875 5.833-19.667 8.291-29.625 22.375-53.334 68.417-96.709 125.792-108.834 20.875-3.166 42.625-2.458 63.625-.541 33.417 6.208 64.708 26.541 91.417 46.833 12.5-7.958 22.791-17.917 33.083-28.458 32.125-29.834 64.958-57.959 102.125-81.459 43.125-26.041 90.667-42.791 139.958-52.583Z" style="fill:#59361a;fill-rule:nonzero"/>
  <path d="M1411.42 91.911c90.209-1.459 177.542 9.416 266.625 21.666 72.584 10 143.75 28.75 211.375 56.959 52.167 23.75 99.875 56.75 142.875 94.458 27.334 22.917 51.459 49.708 73.875 77.333-7.041-1.25-13.208-2.5-18.833-7.25-14.958-11.833-30.042-23.083-46.917-32.041-39.333-21.417-75.916-44.542-116.958-62.375-55.625-26.125-114.5-49.875-174.542-63.417-63.5-16.5-128.75-22.583-194.25-22.417-59.166 1.625-117.791 9.042-176 19.459-26.75 4.916-53.125 8.041-79.208 16.166-37.375 11.625-78.75 22.042-112.792 41.709-56.833 35.666-100.25 94.541-139.416 148.083-18.125 23.667-34.125 48.833-52.5 72.333-20.459 26.167-36.584 53.5-61 76.5-49.25 47.459-110.584 83.792-173.625 109.75-7.834 3.584-15.334 2.459-23.625 1.709 24.5-14 47.833-29.875 70.458-46.75 37.458-27 70.583-55.625 86.625-100.459-13.917-12.541-31.375-19.25-45.125-31.833-18.208-16.083-33.917-34.375-43.708-56.833-10.625-21.875-9.792-49.25-8.709-73.042 2.5-42.708 30.709-81.083 66.25-103.25 38.459-25.125 91.625-27.042 131.292-3.75 27.875 18.625 52.458 47.292 75.458 70.458 5.167-5 10.334-10.041 15.417-15.125-1.5-10.083-4.833-21.375-2.958-31.458 8.833-15.042 25-26.333 37.5-38.333 40-37.167 83.583-69.709 134.125-91.084 50.291-27.666 102.416-27.833 158.291-27.166Z" style="fill:#7f5c43;fill-rule:nonzero"/>
  <path d="M1554.67 154.827c65.5-.166 130.75 5.917 194.25 22.417 60.042 13.542 118.917 37.292 174.542 63.417 41.042 17.833 77.625 40.958 116.958 62.375 16.875 8.958 31.959 20.208 46.917 32.041 5.625 4.75 11.792 6 18.833 7.25 26.959 32.167 50.209 67.167 69.875 104.209 5.542 11.416 11.084 23.958 12.625 36.666-.666 7.834-4.708 15.292-5.916 23.125 1.416 5.209 6.708 9.417 10.333 13.209 12.958 10.375 19.042 19.125 24.625 34.791 24.625 69.459 48.125 137.167 57.25 210.75 6.208 37.5 3.833 74.667 5.583 112.375 7.667 88.209 3.042 181.125-30.083 264.209-14.667 40-37.458 74.125-62.708 108.166-7.5 10.5-20.167 20.084-24.292 32.375-6.625 39.5-4.792 82.209-17 120.584-32.417 5.5-63.708 13.458-92.708 29.458-27.5 15.25-54.75 34.083-75.375 58.042-42.834 52.458-66.75 113.541-83.042 178.666-5.5 25.625-9.5 51.542-13.833 77.334-1.292 5.625-2.042 12.208-5.292 17-6.5 4.875-14.875 7.75-22.583 10.041-31.667 8.667-63.834 10.625-96.5 10.459-16.209-.334-29.042 6.958-42.417 15.166-12.458 8.167-21.458 18.125-37.208 19.375-27.375 2.584-55.25.584-82.75 1.292-29.625 1.042-58.334-6.042-88-4.167 22.958 12.25 47.125 20.459 71.791 28.417 38.542 12.583 78.125 10.083 116.709 24.917 33.583 13.208 65.625 30.875 96.916 48.791 11.375 6.084 19.375 14.959 27.125 25 4.125 3.334 8.459 6.209 13.042 8.625 14.458-5.041 23.625-21.458 31.417-33.75 12.166-21.083 26-43.083 33.25-66.416 6-19.25 3.958-36.959 6.083-56.792 5.5-44.333 12.167-88.417 22.042-132.042 7.541-30.625 19.125-60.333 31.625-89.208 10.583-24.458 26.083-45.125 42.958-65.5 21.458-26.25 54.375-45.042 83.833-61.042 25.5 17.125 46.375 41.875 61.584 68.417 15.666 26.667 33.666 49.75 46.666 78.083 25.5 57.334 36.375 116.875 42.459 178.959 4.25 66.25-3.834 132.791-18.167 197.458-11.125 55.5-30.458 109.125-59.708 157.708-9.459 14.5-12.709 30.25-16.75 46.709-2 5.666-3.834 11.375-5.459 17.208 6.209 29.542 22.334 55.208 34.334 83.75 18.875 42.542 41.291 83 63.208 123.958 23.875 51.417 51.375 100.875 72.25 153.292 16.75 39.792 33.917 82.625 40.458 125.458 5.584 35.042 2.959 69.667-3.5 104.417-5.791 30.583-11.458 62.375-21.25 91.917-17.75 52.916-43.416 102.958-77.166 147.5-25.792 33.125-45.542 69.666-74 100.875-24.084 26.041-47.792 52.958-74.125 76.75-22.625 11.375-46.084 20.666-69.792 29.416-101.167 38.167-205.875 67.375-312.208 86.917-27.042 3.125-53.209 10.583-80.209 13.583-43.041 3.334-85.958 4.084-129.083 1.667-45.875.083-92.375-1.375-138.125-4.917 3.208-1.25 6.417-2.458 9.667-3.625 29.083-1 57.791 2.084 86.791 3.459 67.209-.125 132.917 3.958 199.75-5.75 8.709-4.292 13.417-16.959 16.959-25.459 14.166-37.333 10.125-73.416 10.666-112.458.667-45.833-.125-91.667.042-137.5.375-28.458-6.208-54.833-9.25-83.208-6.292-39.5-19.167-78.125-31.417-116.084-25.666-66.875-61.291-126.791-101.958-185.5-20.833-31.75-46.125-59-71.208-87.333-19.459-22.083-41.625-41.958-64.959-59.917-37.416-26.666-71.583-54.291-113.833-73.5-75.792-36.166-165.75-41.541-246.5-20.166-30.75 7.625-60.167 18.75-88.542 32.791-115.041 52.084-206.416 141.667-277.083 244.917-12.792 19.708-27.125 37.5-37.75 58.042-13.292 25.958-27.833 50.833-38.5 78.083-20.833 51.875-45.792 105.917-60.083 159.917-9.167 40.541-20.834 84.916-20.209 126.583 3.792 3.333 7.917 6.208 12.25 8.833-104.958-39.833-196.083-113.041-265.291-200.625-23.875-30.5-42.875-63.5-60.625-97.791-28.834-52.334-48.5-111.042-71.042-166.625-20.75-59.292-40.375-122.25-45.583-185.042-.792-38.083-3.417-85.125 15.5-119.417 26.333-47.791 62.083-91.125 91.583-137.666 26-42.542 53.167-83.459 76.417-127.75 20.708-42.042 45-81.5 62.083-125.334 5.792-16.041 15.375-30.666 20.625-46.791-5.083-10.709-12.833-20.167-18.583-30.625-23.25-42.459-37.792-89.167-42.167-137.459-3.042-27.875.583-54.208 1.958-81.958 1.875-39.417 8.25-78.792 11.959-118.083 1.625-19.5 1.166-38.959 3.541-58.417 3.875-36.792 14.459-69.708 23.042-105.5 7.208-30.25 17.917-58.792 28.375-87.958 10.167-26.875 19.5-52.209 38.792-74.084 28.5-33.166 68.666-51.083 110.541-60.666 29.917-7.625 61.5-8.542 90.334 3.458 20.75 11.333 39.125 27.667 56.833 43.208 37.875 33.375 64.333 77.5 79.125 125.584 16.583 56 14.042 111.375 6.5 168.541-5.875 49.042-19.917 94.334-34.083 141.375-7.334 24.209-18.125 49.917-19.084 75.167-1.333 29.083 2.5 58.875 5.959 87.708 1.125 10.709 5.166 20.167 9.791 29.75 4.709-2 9.834-3.833 14.125-6.583 4.375-4.083 4.125-12.292 4.667-17.833.75-21.042 2.917-41.292 12.667-60.292 10.875-26.333 31.708-42.5 46.333-66.25 7.542-11.042 15.708-26.083 30.292-28.167 20.708-1.041 41.166 4.75 62.041 3.584 22.834-1 45.375.958 68.084 2.833-10.917-16.333-25.459-28.75-38.625-43.167l8.333-2.541c7.375 3.291 14.792 6.541 22.292 9.625-15.959-27.584-36.375-53.959-62.084-73.125-39.333-31.709-68.375-71.75-92.916-115.542-9.709-16.375-6.584-38.625-8.917-57.333-8.5-97.917-68.458-185.709-152.625-234.917-9.542-5.583-21.583-9.25-29.708-16.708-4.459-8.75-6.209-19.25-8.459-28.792-5.583-27.458-12.458-54.167-15.416-82.125-5.25-48.5-15.209-95.333-17.334-144.25-4.791-55.292-9.333-109.458-7.916-165.083 24.833-5.042 49.333-9.584 72.666-19.834 39.042-15.125 75.875-33.916 112.709-53.666 8.291.75 15.791 1.875 23.625-1.709 63.041-25.958 124.375-62.291 173.625-109.75 24.416-23 40.541-50.333 61-76.5 18.375-23.5 34.375-48.666 52.5-72.333 39.166-53.542 82.583-112.417 139.416-148.083 34.042-19.667 75.417-30.084 112.792-41.709 26.083-8.125 52.458-11.25 79.208-16.166 58.209-10.417 116.834-17.834 176-19.459Z" style="fill:#775237;fill-rule:nonzero"/>
  <path d="M907.049 255.077c24.834-3.75 48.542 7.709 69.459 19.834 13.291 7.958 29.791 17.583 37.291 31.666-.875 5.5-2.5 10.917-4.916 16.209-26.209.125-39.292-16.875-61.042-27.542-13.375-7.583-30.833-10.542-45.542-5.833-33.75 16.958-58.416 53.75-50.791 92.583 1.875 14.708 13.75 21.292 20.875 33.292-1.417 5.875-5.209 11.333-7.917 16.708-13.333-5.542-24.333-12.833-31.375-25.833-20.333-38.417-8.292-88.625 21.708-118.5 13.959-14 32.375-28.875 52.25-32.584Z" style="fill:#573418;fill-rule:nonzero"/>
  <path d="M1346.13 391.577c11.208-4.208 26.333-3.166 37.083 2 15.042 8.5 20.833 26.25 23.708 42.292 3.375 20.208 6.25 43.875-3.5 62.75-8.583 17.917-26.083 30.708-46.125 31.875-22.583 1.458-45.666.75-68.208-.875-13.292-1.708-30.917-3.417-38.542-16.167-5.5-9.25-5.333-16.708.042-25.875 13.292-22.583 33.667-41.916 51.75-60.75 12.75-12.625 27-28.25 43.792-35.25ZM1663.09 409.286c14.958-3.209 30.75-3.709 42.875 7.041 24.75 20.709 45.5 47 65.167 72.5 8.083 11.084 19.041 24.75 20.375 38.792-.167 12.917-10.209 21.583-22.167 24.125-18.75 3.667-38.875 2.25-57.917 1.917-17.458-.875-38-1.084-53.458-10-13.958-8.209-26.583-20.292-29.625-36.875-4.083-21.042-.167-44 6.5-64.167 4.583-13.625 13.833-28.75 28.25-33.333ZM2344.8 468.411c22.417 1.791 45.875 7.25 65.5 18.583 31.417 18.958 55.875 51.042 70.125 84.542 14.292 35.583 25.334 75.875 19.375 114.416-3.583 27.334-11.25 57.917-30.583 78.584-29.208 29.625-63.125 51.333-98.458 72.75 6.791 53.875 21.666 107.208 39.458 158.375 8.875 26 22.292 49.083 34.75 73.375 20.375 41.375 52.583 78.583 82.583 113.333 4.625 6.167 9.417 11.25 7.834 19.583-2.584 21.084-12.084 41.959-22.667 60.209-23.792 40.041-50.667 75.833-77.708 114.041-26.917 33.25-53.209 68.584-85.375 96.959-24.334-21.125-49.167-44.542-77.542-60.292-15.083-8.333-30.792-12.583-48-13.042-25.5-.75-52.583-1.791-77.625 2.959 12.208-38.375 10.375-81.084 17-120.584 4.125-12.291 16.792-21.875 24.292-32.375 25.25-34.041 48.041-68.166 62.708-108.166 33.125-83.084 37.75-176 30.083-264.209-1.75-37.708.625-74.875-5.583-112.375-9.125-73.583-32.625-141.291-57.25-210.75-5.583-15.666-11.667-24.416-24.625-34.791 12.25-6.292 23.75-13.75 35.583-20.75 20.375-11.917 43.542-16.167 66.042-22.209 16.917-4.333 32.292-9.583 50.083-8.166Z" style="fill:#654233;fill-rule:nonzero"/>
  <path d="M2353.17 552.452c32.459 6.375 66.667 25.542 80.417 57.042 9.667 21.333 16.875 47.208 13 70.708-6.583 30.334-26.333 57.542-56.5 67.709-11.5 4.666-21.625 1.625-33.333.041-.042-3.958.041-7.916.25-11.875 7.125-11.25 23.166-17.291 33.916-24.791 19.125-11.084 30.334-34.125 26.667-56.042-3.25-18.958-10.708-40.958-26.958-52.667-15.584-11.416-35.084-18.833-54.125-21.583-13.542-2-27.834 4.833-41.292 6.792-5.125-3.5-8.583-9.875-12.5-14.625 17.417-21.25 44.625-26 70.458-20.709Z" style="fill:#583519;fill-rule:nonzero"/>
  <path d="M1236.3 559.411c22.834-.75 49.084 2.708 67.625 17.208 33.042 23.958 52.25 58.792 65.625 96.542 17.959 50.833 18.209 109.541 14.125 162.833-7.666 57.208-21.166 113.458-49.75 164.083-16.083 29.459-38.541 62.084-71.25 74.334-24.375 10.208-49 21-76.041 20-20.542-.875-42.667-2.459-62.042-9.667-54.125-20.625-106-44.75-151.25-81.542-34.458-27.208-60.5-65.166-76.917-105.666-18.583-52.334-17.666-113.834 2.834-165.542 15.375-44.25 63.333-73.917 107.958-80.583 33.917-3.292 70.083 8.333 97.583 28.25 10.167-18.25 16.792-38.292 27.75-56.042 23.042-35.292 61.542-60.083 103.75-64.208Z" style="fill:#573417;fill-rule:nonzero"/>
  <path d="M1287.88 596.994c27.458 16.458 43.875 44.417 55.791 73.25 11.584 29.833 20.459 62.625 20.125 94.833-.083 28.5 2.125 59.459-3.916 87.25-10.125 50.167-21.5 97.334-49.292 141.125-16.542 26.75-43.958 47.334-71.458 61.834-26.292 14.25-59.084 15.375-87.917 9.833-32.375-8.708-63.458-24.167-93.583-38.708-50.125-24.709-100.709-62.25-127.417-112.459-14.75-23.541-20.375-50.666-23.917-77.833-4.125-31.75 3.625-65.375 14.709-95 11.666-29.958 39.708-47.042 68.166-58.583 28.667-11.959 62.959-6.417 90.584 5.791 12.708 5.542 23.583 20.792 38.208 16.375 10.958-14.541 16.292-33.708 24.833-49.875 15-32.166 46.875-57.5 81.125-66.083 20.459-3.125 46.417-4.5 63.959 8.25Z" style="fill:#a76163;fill-rule:nonzero"/>
  <path d="M1783.34 603.827c18.167 4.125 34.417 12.25 49.208 23.459 24.667 17.791 46.084 38.75 57.417 67.583 9.375 23.083 10.375 45.5 14 69.792 21.542-4.334 44.125-13 65.833-8.667 38.709 8 74.417 18.75 101.834 48.958 27.375 28.917 33.125 67.625 31.5 106-4.167 35.667-15 72.417-35 102.542-22.25 30.708-49.709 60.125-81.792 80.708-29.375 18.125-64.292 29.875-96.875 40.875-34.375 11.459-67.75 13.334-103 19.834-23.875 4.666-47.083 1.666-70.792-2.584-28.041-5.708-49.375-23.958-71.583-40.75-21.042-15.833-32.25-38.208-42.167-61.958-17.916-46.292-23.125-93.667-25.416-142.833-1.334-36.25 4.541-73.667 11.416-109.209 7.875-40.833 23.125-80.041 44.75-115.541 13.292-21.709 32.25-40.375 52.209-56 27.125-20.334 65.041-31.709 98.458-22.209Z" style="fill:#583517;fill-rule:nonzero"/>
  <path d="M1816.84 647.202c25.708 19.459 47.958 44 55.958 76 7.167 21.959 5.125 44.334 14.75 65.542 14.75.583 26.667-5.125 40.5-8.5 22.917-1.583 49.375-2.5 70.959 6.5 30.708 11.208 56.666 34.917 71.833 63.708 10.125 23.792 11.167 52.125 5.917 77.25-7.25 36.125-21.667 70.167-47.125 97.292-23.042 23.917-47.667 45.25-77.959 59.417-37.875 17.5-78.125 30.833-119.291 37.75-32.167 6-63 10.375-95.834 6.791-43.75-8.208-75.041-36.791-99.375-72.5-32.625-45.791-37.166-112-36.375-166.375 2.334-34.25 3.959-70 13.709-103.041 10.458-42.334 29.875-85.125 59.791-117.334 17.834-18.791 40.167-36.041 66.25-40.75 25.625-7.208 55.167 3.667 76.292 18.25Z" style="fill:#a76163;fill-rule:nonzero"/>
  <path d="M1696.26 687.411c17.166-11.584 43.5 8.833 43.083 27.666.583 13.334 1.708 30.542-7.25 41.542-8.417 10.5-18.333 21.042-33.042 19.75-15 .417-25.958-14.917-27.583-28.583-3.042-21.292 5.167-49.125 24.792-60.375ZM946.674 763.161c10.084-7.667 21-3.917 29.5 3.791 19.167 19.125 15.25 57.417-7.916 71.625-10.25 7.667-22.959-.666-29.209-9.416-13.416-19.709-13.875-51.667 7.625-66Z" style="fill:#ce7f82;fill-rule:nonzero"/>
  <path d="M1660.05 816.994c8.417 6.833 2.042 18 .459 26.625-6.834 20.167-9.292 40.75-11.584 61.833-3.625-4.625-9.166-8.916-9.708-15.125-2.542-20.125-1.167-42.541 6.958-61.333 3.292-5.167 6.084-14.542 13.875-12Z" style="fill:#cb7d80;fill-rule:nonzero"/>
  <path d="M988.549 904.536c11.584 9.208 20.417 21.416 32.625 30.125 13.834 9.916 29.334 17.25 43.084 27.375-34.917 8.125-67.834-13.917-87.417-41.125-5.333-6.542 4.5-18.292 11.708-16.375Z" style="fill:#cc7e80;fill-rule:nonzero"/>
  <path d="M2948.92 1000.54c16.959.5 34-1.125 50.042 2.666 30.833 3.042 61.625 8.917 91.5 17.084 2.917.583 5.833 1.166 8.75 1.791 5.25 2.25 10.5 4.417 15.792 6.542 5.916 1.958 11.791 4.083 17.666 6.208 6.959 2.875 13.917 5.792 20.917 8.542 11.083 4.167 21.625 9.542 32.5 14.25 33.792 14.833 65.958 32.75 96.25 53.917 24.625 18 46.417 39.833 70.458 58.541 38.542 27.625 75.209 57.459 111.167 88.334 29.625 23.625 54.667 50.625 82.042 76.375 50.083 51.25 94.625 110.625 125 175.708 3.458 8.625 7.083 17.125 10.625 25.75 3.875 12.792 8.583 24.75 14.25 36.833 2.958 7 5.791 14 8.458 21.125 1.542 20.792.708 41.625 2.167 62.375 5.416 24.5 1.541 46.792-.917 71.084-.667 28.208-5.75 55.541-9.958 83.375-6.375 23.458-10.75 47.333-18.209 70.541-1.458 4.125-2.916 8.25-4.416 12.334-1.25 4.208-2.542 8.416-3.875 12.625-1.459 4.125-2.917 8.25-4.417 12.375-1.333 4.125-2.708 8.25-4.083 12.333-2.875 6.958-5.75 13.917-8.584 20.875-2.041 5.917-4.166 11.792-6.166 17.708-2.084 5.25-4.125 10.5-6.209 15.709-2.166 5.791-4.375 11.583-6.583 17.375-6.292 13.625-11.5 27.666-16.458 41.833-4.125 9.75-8.542 19.25-12.334 29.125-6.666 14.125-13.875 28.167-22.625 41.167-32.083 47.458-64.541 95.125-100.208 140-24.25 32.916-48.792 65.583-74.875 97.125-32.458 35.583-66.042 69.791-101.333 102.625-25 26.625-53.834 48.708-79.417 74.708-91.5 80.917-187.625 163.917-290.167 230.583-50.541 34.042-104.208 63.625-157.208 93.584-26.75 13.166-52.5 28.041-80 39.666-3.875 2.375-7.708 4.709-11.583 7.084l-4.459.708c-5.666 2.958-11.291 6.042-16.916 9.125-18.417 7.625-35.959 17.125-54.542 24.375-5.208 2.167-10.458 4.333-15.708 6.458-7 2.75-14.042 5.459-21.084 8.084-4.083 1.458-8.166 2.916-12.25 4.458-15.541 5-30.833 10.5-46.208 16.083-7.125 2.375-14.292 4.667-21.5 6.709-5.292 2.25-10.542 4.5-15.833 6.791-2.959.417-5.917.875-8.875 1.334-5.292 2.333-10.625 4.666-15.917 7.083-2.958.417-5.917.833-8.875 1.208-4.333 1.334-8.542 3.084-12.625 5.209-4.167 1.25-8.292 2.5-12.458 3.666-9.875 3.834-19.167 3.709-29.584 3.084 7.834-15.125 19.167-26.292 30.5-38.625 31.334-42.292 55.75-90.25 72.125-140.25 12.167-39.917 18.5-81.709 20.167-123.334-.75-27.958-3.417-56.25-10.125-83.458-.333-6-.542-11.958-.708-17.958 68.333 9.416 134.458 37.291 194.708 70.125 13.625 8.333 27.792 13.875 30.917 31.375 7.416 33.916 15.708 67.625 23.541 101.458 2.25 8.833 5.542 17.292 8.875 25.75 12.917-6.333 25.167-13.458 37.209-21.375-4.334-26.417-13.084-51.625-18.042-77.833 24.125 12.958 40.167 34.875 62.292 50 14.25-.417 29.333-13.875 41.208-21.25-7.25-7.709-14.708-15.209-22.958-21.875-25.542-20.459-48.667-43.084-75.959-61.459-9-6.75-21.125-13.541-24.541-24.916-6.375-19.542-10.167-39.917-15.667-59.75-27.542-113.084-60.5-223.542-107.542-330.209-9.541-21.541-22.166-40.583-27.583-63.833 19.042-1.125 38.083-1.417 57.125.458 26.5 2.75 52.917 2.459 79.333 6.334 34.75 5.166 69.792 8.5 104.459 14.166 72.25 13.125 144.75 28.292 215.708 47.292 14.958 4.125 30.875 7.208 45.042 13.583 6.208 2.584 8.125 7.959 11.041 13.5 12.375 27.292 21.375 56.834 32.042 84.792 10.167 25.958 20.083 52 30 78.083 6.208 17.709 12 35.417 20.333 52.292 13.917-8.083 23.834-17.5 33.709-30.083-20.042-60.625-46.209-119.25-67.125-179.584 28.583 5.25 55.5 16.084 83.666 24.292 36.167 10.875 70.875 26.125 107.375 35.792 12.084-11.167 22.834-22.834 32.667-36.042-22-11.583-45.5-16.458-68.75-24.667-51.375-17.416-102.792-34.583-155.042-49.25-10.291-3.75-20.875-5-25.583-16.25-15.583-33.875-26.833-69.833-41.792-104.041-17.208-38.875-31.458-78.792-49.5-117.25-16.791-34.875-31.458-70.667-49.083-105.167-9.625-21.958-23.25-40.875-30.542-63.75 53.834-16.417 108.875-28.958 163.459-42.5 75.625-16.958 150.541-32.875 227.083-44.667 16.75-3.208 33.208-5.333 50.25-5.708 31.375 70.75 57.542 143.958 84 216.667 18.375 47.041 32.542 95.875 52.292 142.375 11.416-11.625 20.291-25.042 25.125-40.667 2.166-6.708-1.292-15.125-3.292-21.542-14.333-38.791-28.958-77.458-42.542-116.5-12.833-35.291-27.291-69.958-39.875-105.333-9.541-27.292-22.708-53.083-32.25-80.375 12.209-2.792 24.375-5.458 36.875-6.542 43.25-3.791 86.459-8.666 129.75-11.833 18.334-.958 36.5-2.583 54.667-5.417 1.208-15.416 1.042-30.208-.542-45.583-79.833 2.833-159.666 12.292-238.916 22.208-14.5-21.416-21.875-45.208-33.209-68.166-46.583-98.209-99.708-194.667-161.625-284.042-2.375-3.083-2.833-6.042-1.416-8.833 10.083-4.667 21.375-7.292 32.083-10.25 48-12.959 95.958-26.292 143.833-39.709 7.875-2.333 14.709-6.041 22.042-9.666-13.083-12.709-26.75-23.834-42.083-33.667-63.084 16.208-125.334 35.667-188.167 52.625-14.417-14-24.958-30.625-37.292-46.25-60.833-71.375-122.541-137.667-199.958-191.625-12.083-8.042-24.333-18.708-38.208-23.333-16.25-2.75-34.875 1.625-50.792 5 9.375 8.916 19.625 15.833 30.917 22.125 38.125 22.208 71.083 50.25 103.791 79.583 54.125 50.875 106 106.25 149.25 166.708-50.166 20.042-102.541 34.375-152.666 54.709-82 32.75-162.5 71.333-239.792 114.083-15.292 8.042-29.708 18.333-45.625 25-5.167 2.708-9.333-1.292-13.542-3.833-24.041-17.167-50.125-42.542-79.5-49-3.25 10.583-6.083 21.291-8.666 32.083 21.833 15.042 44.083 26.333 62.083 46.292-26.292 18.916-55.125 34.666-81.292 53.958-18.166 11.417-19.541 40.625-23.208 59.833 44.458-28.541 88.167-58.708 133.875-85.25 18.542 14.25 31.917 32.459 47.083 49.959 25.709 29.875 48.625 63.375 70.75 95.916 12.042 17.292 24.25 34.417 34.75 52.709 11.709 20.5 25.042 39.583 34.667 61.166-25.458 10.834-52.083 17.459-78.125 26.834-41.292 13.25-81.208 29.833-121.708 45.208-43.042 17.208-85.875 34.792-127.167 56.042-16.792 8.958-36.833 15.5-51.417 27.833-7.5 10.583-6.958 27.875-8.583 40.542 13.542-5.209 26.708-11.167 39.667-17.709 36.166-17.958 73.5-32.333 110.708-47.916 84.5-34.375 170.75-64.542 258.083-90.875 10 13.541 17.125 28.458 24.167 43.666 41.292 80.084 76.208 164.417 110.583 247.667 10 26.792 22.875 51.917 31.167 79.208-7.708-.833-15.25-1.583-22.833-3.5-101.709-28.25-205.75-48.583-310.709-60.041-22.25-2.459-44.583-2.709-66.833-4.875-37.375-3.667-73.458-.792-111.167-1.625-25.375-29.459-42-68.792-71.958-93.292-3.917 14-13.167 34.875-3.333 48.125 10.875 15.75 23.125 30.083 31.166 47.708-14.333 3.5-28.458 5-43.208 5.459-10.875 1-23.25 1-31.417 9.375-14.75 14.375-29.5 29.083-42.666 44.958 43.916-8.125 86.125-18.208 131.166-19.458 8-.584 11.292 3.958 14.917 10.083 24.875 46.25 42.667 94.042 61.958 142.792 30.834 90.916 58.167 183.666 78.542 277.5-22.292-8.125-42.458-20.5-64.583-29.042-27.75-11.292-56.5-19.458-85.584-26.792-24-5.958-47.458-6.333-72.083-9.875-14.958-50.291-38.875-96.416-57-145.458-17.375-46.667-38.042-91.792-52.958-139.417-4.875-17.583-19-33.166-10.25-51.458 18.5-18.292 41.125-32.458 59.541-50.875 18.209-19.042 33.084-40.625 45.25-63.917 4.125-12.666 8.542-25.25 12.125-38.083 7.792-50.042 18.125-99.625 24.542-149.917 1-9.708 2.042-19.375 3.083-29.083 4.417-26.375 8.542-52.917 12.459-79.375 3.333-16.625 6.291-33.292 9.5-49.958 5.416-33.5 13-66.917 20.791-99.959 1.459-6.875 2.875-13.791 4.334-20.708.875-4.25 1.708-8.5 2.583-12.75 2.833-11.167 6.083-22.208 8.542-33.458 3.875-15.375 8-30.667 12.5-45.834 4.541-15.166 8.541-30.458 12.291-45.833 6.834-20.542 12.625-41.375 18-62.333 1.667-5.5 3.209-11 4.542-16.542.792-2.875 1.583-5.708 2.375-8.542 2.042-6.791 4-13.625 6.042-20.458 2.375-9.875 5.583-19.5 8.666-29.208.625-2.875 1.292-5.75 1.917-8.625 1.583-4.167 3.083-8.292 4.5-12.459 2.542-8.541 5.292-17 8.042-25.416 2.791-8.334 5.666-16.667 8.208-25.042 2.042-5.25 4.125-10.458 6.292-15.625 4-9.833 8.083-19.583 12.166-29.375 2.875-6.958 5.709-13.917 8.459-20.958 9.833-21.709 20.625-43 31.541-64.209 21.709-37.458 37.959-74.083 69.5-105 18.167-19.791 40.917-31.875 65.125-42.666 4.042-1.542 8.167-3 12.25-4.417 10.042-2.583 19.375-6.792 29.125-10.25 19.375-3.167 38.709-5.417 58.375-4.833Z" style="fill:#221811;fill-rule:nonzero"/>
  <path d="M2935.63 1033.54c13.875 4.625 26.125 15.291 38.208 23.333 77.417 53.958 139.125 120.25 199.958 191.625 12.334 15.625 22.875 32.25 37.292 46.25 62.833-16.958 125.083-36.417 188.167-52.625 15.333 9.833 29 20.958 42.083 33.667-7.333 3.625-14.167 7.333-22.042 9.666-47.875 13.417-95.833 26.75-143.833 39.709-10.708 2.958-22 5.583-32.083 10.25-1.417 2.791-.959 5.75 1.416 8.833 61.917 89.375 115.042 185.833 161.625 284.042 11.334 22.958 18.709 46.75 33.209 68.166 79.25-9.916 159.083-19.375 238.916-22.208 1.584 15.375 1.75 30.167.542 45.583-18.167 2.834-36.333 4.459-54.667 5.417-43.291 3.167-86.5 8.042-129.75 11.833-12.5 1.084-24.666 3.75-36.875 6.542 9.542 27.292 22.709 53.083 32.25 80.375 12.584 35.375 27.042 70.042 39.875 105.333 13.584 39.042 28.209 77.709 42.542 116.5 2 6.417 5.458 14.834 3.292 21.542-4.834 15.625-13.709 29.042-25.125 40.667-19.75-46.5-33.917-95.334-52.292-142.375-26.458-72.709-52.625-145.917-84-216.667-17.042.375-33.5 2.5-50.25 5.708-76.542 11.792-151.458 27.709-227.083 44.667-54.584 13.542-109.625 26.083-163.459 42.5 7.292 22.875 20.917 41.792 30.542 63.75 17.625 34.5 32.292 70.292 49.083 105.167 18.042 38.458 32.292 78.375 49.5 117.25 14.959 34.208 26.209 70.166 41.792 104.041 4.708 11.25 15.292 12.5 25.583 16.25 52.25 14.667 103.667 31.834 155.042 49.25 23.25 8.209 46.75 13.084 68.75 24.667-9.833 13.208-20.583 24.875-32.667 36.042-36.5-9.667-71.208-24.917-107.375-35.792-28.166-8.208-55.083-19.042-83.666-24.292 20.916 60.334 47.083 118.959 67.125 179.584-9.875 12.583-19.792 22-33.709 30.083-8.333-16.875-14.125-34.583-20.333-52.292-9.917-26.083-19.833-52.125-30-78.083-10.667-27.958-19.667-57.5-32.042-84.792-2.916-5.541-4.833-10.916-11.041-13.5-14.167-6.375-30.084-9.458-45.042-13.583-70.958-19-143.458-34.167-215.708-47.292-34.667-5.666-69.709-9-104.459-14.166-26.416-3.875-52.833-3.584-79.333-6.334-19.042-1.875-38.083-1.583-57.125-.458 5.417 23.25 18.042 42.292 27.583 63.833 47.042 106.667 80 217.125 107.542 330.209 5.5 19.833 9.292 40.208 15.667 59.75 3.416 11.375 15.541 18.166 24.541 24.916 27.292 18.375 50.417 41 75.959 61.459 8.25 6.666 15.708 14.166 22.958 21.875-11.875 7.375-26.958 20.833-41.208 21.25-22.125-15.125-38.167-37.042-62.292-50 4.958 26.208 13.708 51.416 18.042 77.833-12.042 7.917-24.292 15.042-37.209 21.375-3.333-8.458-6.625-16.917-8.875-25.75-7.833-33.833-16.125-67.542-23.541-101.458-3.125-17.5-17.292-23.042-30.917-31.375-60.25-32.834-126.375-60.709-194.708-70.125.166 6 .375 11.958.708 17.958-5.458-18.833-10.542-37.792-16.25-56.542 24.625 3.542 48.083 3.917 72.083 9.875 29.084 7.334 57.834 15.5 85.584 26.792 22.125 8.542 42.291 20.917 64.583 29.042-20.375-93.834-47.708-186.584-78.542-277.5-19.291-48.75-37.083-96.542-61.958-142.792-3.625-6.125-6.917-10.667-14.917-10.083-45.041 1.25-87.25 11.333-131.166 19.458 13.166-15.875 27.916-30.583 42.666-44.958 8.167-8.375 20.542-8.375 31.417-9.375 14.75-.459 28.875-1.959 43.208-5.459-8.041-17.625-20.291-31.958-31.166-47.708-9.834-13.25-.584-34.125 3.333-48.125 29.958 24.5 46.583 63.833 71.958 93.292 37.709.833 73.792-2.042 111.167 1.625 22.25 2.166 44.583 2.416 66.833 4.875 104.959 11.458 209 31.791 310.709 60.041 7.583 1.917 15.125 2.667 22.833 3.5-8.292-27.291-21.167-52.416-31.167-79.208-34.375-83.25-69.291-167.583-110.583-247.667-7.042-15.208-14.167-30.125-24.167-43.666-87.333 26.333-173.583 56.5-258.083 90.875-37.208 15.583-74.542 29.958-110.708 47.916-12.959 6.542-26.125 12.5-39.667 17.709 1.625-12.667 1.083-29.959 8.583-40.542 14.584-12.333 34.625-18.875 51.417-27.833 41.292-21.25 84.125-38.834 127.167-56.042 40.5-15.375 80.416-31.958 121.708-45.208 26.042-9.375 52.667-16 78.125-26.834-9.625-21.583-22.958-40.666-34.667-61.166-10.5-18.292-22.708-35.417-34.75-52.709-22.125-32.541-45.041-66.041-70.75-95.916-15.166-17.5-28.541-35.709-47.083-49.959-45.708 26.542-89.417 56.709-133.875 85.25 3.667-19.208 5.042-48.416 23.208-59.833 26.167-19.292 55-35.042 81.292-53.958-18-19.959-40.25-31.25-62.083-46.292 2.583-10.792 5.416-21.5 8.666-32.083 29.375 6.458 55.459 31.833 79.5 49 4.209 2.541 8.375 6.541 13.542 3.833 15.917-6.667 30.333-16.958 45.625-25 77.292-42.75 157.792-81.333 239.792-114.083 50.125-20.334 102.5-34.667 152.666-54.709-43.25-60.458-95.125-115.833-149.25-166.708-32.708-29.333-65.666-57.375-103.791-79.583-11.292-6.292-21.542-13.209-30.917-22.125 15.917-3.375 34.542-7.75 50.792-5Z" style="fill:#3d2c1e;fill-rule:nonzero"/>
  <path d="M1521.17 1073.2c23.917 11.959 47.167 26.292 67.25 44.042 28.792 26.208 52.125 58.625 68.834 93.75 18.208 39.167 30.125 80.667 28.208 124.25-7.125 4.167-14.25 8.292-21.333 12.417.375 7.041.708 14.125 1.041 21.166-5.541 10.792-9.125 23.834-16.833 33.209-7.917 5.958-19.083 8.333-28.333 11.916-18.042 5.917-38.334 16-57.459 16.167-25.625-1.625-45.416-14.208-64.833-29.833-22.833-16.042-43.125-34.334-62.917-53.917-2.708-22.292-6.625-43.542-2.291-65.958 26.166.583 45.791-13.209 64.208-30.042 10.458-10.375 19.583-22.625 25.625-36.167 7.042-16.666 7.583-33.208 8.167-51.041-12.625-12.709-24.5-30.042-43.667-32.292-16.75-1.917-33.625-3.292-50.417-5-31.166-1.167-60.25-3.833-87.958 13.292-7.583 5.791-17.542 10.208-14.708 21.5 2.875 20.041 8 42 19.5 58.958 16.291 22.458 31.333 44.042 56.666 57.208-.708 16.709.584 34.042-2.166 50.584-15.584 14.416-36.709 24-55.625 33.5-24.667 9.458-46.667 25.125-74 16.416-33.625-9.791-52.125-35.25-67.042-65.166-1.958-10.875-3.792-21.75-5.792-32.584-4.5-1.875-8.958-3.791-13.458-5.666 6-26.375 11.167-51.25 23.667-75.542 22-43.333 55.75-76.958 94.583-105.417 60.125-42.791 144.375-53 211.083-19.75Z" style="fill:#b78657;fill-rule:nonzero"/>
  <path d="M896.216 1062.74c24.458-3.25 48.25 2.292 69.375 14.792 26.792 14.791 45.917 37.958 60.625 64.375 12.917 23.875 15.542 51.333 11.667 77.875-3.792 26.916-21.5 50.958-44.917 64.333-18.583 10.417-41.667 11.208-62.167 7.25-51.416-12-94.375-52.958-108.083-104.083-7.125-27.959-3.667-58.167 11.125-83.042 13-22.292 36.875-37.958 62.375-41.5Z" style="fill:#8f5a4d;fill-rule:nonzero"/>
  <path d="M1436.42 1125.87c16.792 1.708 33.667 3.083 50.417 5 19.167 2.25 31.042 19.583 43.667 32.292-.584 17.833-1.125 34.375-8.167 51.041-6.042 13.542-15.167 25.792-25.625 36.167-18.417 16.833-38.042 30.625-64.208 30.042-4.334 22.416-.417 43.666 2.291 65.958 19.792 19.583 40.084 37.875 62.917 53.917 19.417 15.625 39.208 28.208 64.833 29.833 19.125-.167 39.417-10.25 57.459-16.167 9.25-3.583 20.416-5.958 28.333-11.916 7.708-9.375 11.292-22.417 16.833-33.209l2.375-4.625c2.084-5.666 3.625-11.541 5.75-17.25 5.917-2.875 12.917-3.833 19.25-5.541.292 13.166 1.125 25.458-4.708 37.708-8.708 19.042-15.583 41.5-35.958 51.125-24.125 11.083-50 19.375-75.709 25.958-18 4.917-32.291-1.833-49.5-6.416-19.208 29.875-40.708 58.125-59.291 88.458-34.917 1.875-69.334-1.167-103.834-5.958-7.958-1.25-13.125-12.792-17.625-18.542-11.25-15.375-12.25-32.792-20.375-49.583-9.208-19.25-12.708-40.084-20.75-59.875-19.416 2.75-38.291 4.583-56.291-5.25-15.75-8.959-27.292-26.75-39.167-40.209-15.667-17.583-25.375-38.041-32.792-60.166 6.667-7.917 13.5-12.875 22.709-17.75 2.416 11.708 5.791 21 11.833 31.25 14.917 29.916 33.417 55.375 67.042 65.166 27.333 8.709 49.333-6.958 74-16.416 18.916-9.5 40.041-19.084 55.625-33.5 2.75-16.542 1.458-33.875 2.166-50.584-25.333-13.166-40.375-34.75-56.666-57.208-11.5-16.958-16.625-38.917-19.5-58.958-2.834-11.292 7.125-15.709 14.708-21.5 27.708-17.125 56.792-14.459 87.958-13.292Z" style="fill:#27170b;fill-rule:nonzero"/>
  <path d="M1983.67 1162.37c40.209-8.792 89.584 1.833 114.5 36.875 22.334 33.458 21.584 83.125-5 114.167-37.208 47.291-105.5 66.583-161.625 44.291-32.125-12.875-54-45.666-54.666-80.083.291-27.667 11.958-54.458 31.416-74 20.667-20.625 46.459-35.75 75.375-41.25Z" style="fill:#8f5a4d;fill-rule:nonzero"/>
  <path d="M3198.22 1348.74c17.542 18.917 30.667 42.375 44.833 63.875 28.584 47.125 57.459 93.917 81.792 143.458 25.542 46.875 47.667 95.25 69.208 144.084-15.916 6.666-32.458 7.875-49.291 10.458-119.417 20.958-237.792 45.417-354.167 79.75-13.375 4.25-26.75 8-40.333 11.333-14.417-20.958-26.042-43.5-39.709-64.916-35.208-54.542-71.375-107.834-113.25-157.584-12.791-14.875-26.25-29.166-38.833-44.25 12.625-9.541 25.917-17.5 40.042-24.666 104.375-56.5 213.666-102.167 326.083-140.084 24.208-7.541 48.625-17.291 73.625-21.458Z" style="fill:#221811;fill-rule:nonzero"/>
  <path d="M1406.51 1377.66c-1.584 27.5-2.417 54.958-1.292 82.458 5.042-.667 10.042-1.375 15.042-2.125-1.167 12.667-2.084 25.333-3.417 38-5.917.667-11.875 1.333-17.792 1.958 3.084-28.916-1.041-57.333-.166-86.25-18.125 3.25-35.625 3.917-52.459 12.334.167 10.791-.166 21.625-.291 32.416-7.125-18.375-14.292-36.791-21.375-55.208 17.625-4.167 35.666-6.625 51.958-13.458 9.792-3.834 19.708-7.167 29.792-10.125Z" style="fill:#c6c5c6;fill-rule:nonzero"/>
  <path d="M1429.92 1385.58c27.125 12.667 46.25 34.25 70.959 50.084 0 1.875 0 3.791-.042 5.666-12.292 15.709-22.292 32.75-34 48.917-2.125-16.792.5-32.333 5-48.458-11.667-7.875-23.625-15.209-35.833-22.209-3.417 2.792-6.834 5.542-10.25 8.292.416-4.417.833-8.833 1.208-13.25l2.375-3.417c.125-8.541.25-17.083.583-25.625Z" style="fill:#c6c6c7;fill-rule:nonzero"/>
  <path d="M1398.88 1411.7c-.875 28.917 3.25 57.334.166 86.25 5.917-.625 11.875-1.291 17.792-1.958 1.333-12.667 2.25-25.333 3.417-38 .875-7.583 2.5-15 4.541-22.333.334-2.625.667-5.209.959-7.792 3.416-2.75 6.833-5.5 10.25-8.292 12.208 7 24.166 14.334 35.833 22.209-4.5 16.125-7.125 31.666-5 48.458-4.333 6.333-8.5 12.75-12.708 19.208-27.125.834-54.667 1.042-81.75-1.208-13.375-12.917-18.959-34.958-26.25-51.792.125-10.791.458-21.625.291-32.416 16.834-8.417 34.334-9.084 52.459-12.334Z" style="fill:#e5e3e4;fill-rule:nonzero"/>
  <path d="M2165.51 1423.33c32.583-6 64.625 4.167 93.125 19.5 37.083 22.542 70.041 53.334 93.375 90.042 20.708 33.125 26.208 73.042 22.625 111.375-2.209 22.333-2 44.833-4.584 67.083-6.791 45.584-11.75 90.125-28.916 133.334-25.584 64.708-39.709 130.583-69.959 192.625-12 25.75-26.25 49.958-46.458 70.208-25.458 25.417-52.583 50.167-85.083 66.292 4.041-16.459 7.291-32.209 16.75-46.709 29.25-48.583 48.583-102.208 59.708-157.708 14.333-64.667 22.417-131.208 18.167-197.458-6.084-62.084-16.959-121.625-42.459-178.959-13-28.333-31-51.416-46.666-78.083-15.209-26.542-36.084-51.292-61.584-68.417 25.417-12.375 54.292-18.291 81.959-23.125Z" style="fill:#654233;fill-rule:nonzero"/>
  <path d="M783.299 1480.62c13.459 17.5 23.834 36.875 37.75 53.917 29.042 35.291 63.209 65.333 103.167 87.75l-8.333 2.541c13.166 14.417 27.708 26.834 38.625 43.167-22.709-1.875-45.25-3.833-68.084-2.833-20.875 1.166-41.333-4.625-62.041-3.584-14.584 2.084-22.75 17.125-30.292 28.167-14.625 23.75-35.458 39.917-46.333 66.25-9.75 19-11.917 39.25-12.667 60.292-3.458-32.75-12.167-63.542-8.042-97.125 2.792-23.875 13.959-43.334 21.125-67.084 9.209-30.583 15.917-61.916 23.25-92.958 6.417-25.958 7.542-52.25 11.875-78.5ZM1875.09 1793.74c4.25 31.25-6.625 61.25-22.042 87.958-12 21.25-28.25 36.125-33.75 60.875-7.75-10.041-15.75-18.916-27.125-25-31.291-17.916-63.333-35.583-96.916-48.791-38.584-14.834-78.167-12.334-116.709-24.917-24.666-7.958-48.833-16.167-71.791-28.417 29.666-1.875 58.375 5.209 88 4.167 27.5-.708 55.375 1.292 82.75-1.292 15.75-1.25 24.75-11.208 37.208-19.375-.708 3.5-1.417 7.042-2.167 10.542 31.584.458 63.25.542 94.792-.458 24.25-.792 44.667-8.959 67.75-15.292Z" style="fill:#6e4a35;fill-rule:nonzero"/>
  <path d="M2288.3 2078.99c7.959 13.708 9.084 27.875 12.875 42.875 5.334 21.708 12.292 43 18.292 64.542 20.667 79.583 49.5 157.25 78.5 234.083 8.792 23.792 20.5 46.083 30.583 69.292 23.167 56.208 45.625 109.125 54.5 170 9 82.875-13 167.291-54.208 239.125-26.5 41.666-54.833 83.708-89.542 119-40.416 43.916-84.458 86.875-134.375 120-35.208 23.25-71.708 44.416-110.541 61 26.333-23.792 50.041-50.709 74.125-76.75 28.458-31.209 48.208-67.75 74-100.875 33.75-44.542 59.416-94.584 77.166-147.5 9.792-29.542 15.459-61.334 21.25-91.917 6.459-34.75 9.084-69.375 3.5-104.417-6.541-42.833-23.708-85.666-40.458-125.458-20.875-52.417-48.375-101.875-72.25-153.292-21.917-40.958-44.333-81.416-63.208-123.958-12-28.542-28.125-54.208-34.334-83.75 7.084 2.667 12.709 7.958 20.417 4.792 15.458-4.875 29.875-14.5 43.167-23.584 36.791-25.333 63.041-58.75 90.541-93.208Z" style="fill:#654233;fill-rule:nonzero"/>
  <path d="M1296.22 2438.7c42.25 19.209 76.417 46.834 113.833 73.5 23.334 17.959 45.5 37.834 64.959 59.917 25.083 28.333 50.375 55.583 71.208 87.333 40.667 58.709 76.292 118.625 101.958 185.5 12.25 37.959 25.125 76.584 31.417 116.084 3.042 28.375 9.625 54.75 9.25 83.208-.167 45.833.625 91.667-.042 137.5-.541 39.042 3.5 75.125-10.666 112.458-3.542 8.5-8.25 21.167-16.959 25.459-66.833 9.708-132.541 5.625-199.75 5.75-29-1.375-57.708-4.459-86.791-3.459-18.5.125-36.75-1.125-55.084-3.416-178.291-16.667-354-53.084-525.125-105.459-58.125-19.166-117.541-33-175-54.375-27.208-8.75-53-20.708-79.625-31-4.333-2.625-8.458-5.5-12.25-8.833-.625-41.667 11.042-86.042 20.209-126.583 14.291-54 39.25-108.042 60.083-159.917 10.667-27.25 25.208-52.125 38.5-78.083 10.625-20.542 24.958-38.334 37.75-58.042 70.667-103.25 162.042-192.833 277.083-244.917 28.375-14.041 57.792-25.166 88.542-32.791 80.75-21.375 170.708-16 246.5 20.166Z" style="fill:#b2875c;fill-rule:nonzero"/>
  <path d="M358.383 3051.54c-6.417 18.208-20.667 26.25-33.834 39.166-34.583 32.292-72.916 57.375-110.75 85.125-29.25 23.417-58.208 43.917-78.333 76.042-21.083 31.417-33.625 66.833-34.375 104.875-2.375 48.333 15.833 91.333 41.75 131.042 27.833 41.125 65.458 70.916 107.417 96.625 31.041 18.833 66.625 32.125 102.791 36.041 45.292 5.042 91.875-12.541 126.209-41.708 17.75-15.208 36.291-30.917 51.166-49 24.917-30.583 49.459-61.5 74.167-92.292 44.958-53.875 86.375-110.666 131.042-164.791 10.583-12.375 18.916-26.125 26.375-40.584 4.041 1.084 8 2.459 11.875 4.042 2.625 5.792 4.208 12.167 6.083 18.25-7.333 8.167-15.458 15.292-21.75 24.375-20.083 28.375-40.917 56.292-62.042 83.917-10.666 13.875-18.333 28.125-30.208 40.25-19.167 20.041-37.708 40.416-53.792 63.083-29 36.292-56.666 73.25-89.833 106-25.375 27.5-54.792 50.625-89.5 65.167-8.542 2.625-17.042 5.458-25.542 8.333-31.25 2.042-61.208 3.958-91.75-4.75-16.041-3.875-31.75-8.792-48-12.042l.125-3.166c-4.166 0-8.333.041-12.5.083l-.125-5.583-7.958 2.416-.375-6.291-8.25 2.166-.125-6.583-8.083 2.833.25-5.625c-4.25-.291-8.5-.583-12.792-.875l.125-5.791c-14.25-4.75-21.583-15.375-33.458-24-5.667-4.959-11.167-10.042-16.125-15.709-23.584-28-46.5-55.333-62.25-88.708-1.292-2.792-2.625-5.542-3.917-8.333-6.292-13.709-11.375-27.542-15.25-42.167-9.625-27.583-7.333-54.667-7.417-83.333-.083-22.5 7.167-42.209 14.084-63.167 18.083-42.792 48.666-78.75 84.5-107.792 23.625-21.125 49.875-38.166 75.416-57.125 31.167-20.916 58.417-45.833 86.209-70.916 6.5 3.083 12.833 6.375 18.75 10.5Z" style="fill:#29190d;fill-rule:nonzero"/>
  <path d="M358.383 3051.54c14.125 12.541 26.708 26.083 43.458 35.458 27.542 15.792 53.25 34 81.75 47.667 49.542 23.291 100.75 42.708 152.875 59.5 41.458 13.333 83.167 27.666 125.542 37.916-7.459 14.459-15.792 28.209-26.375 40.584-44.667 54.125-86.084 110.916-131.042 164.791-24.708 30.792-49.25 61.709-74.167 92.292-14.875 18.083-33.416 33.792-51.166 49-34.334 29.167-80.917 46.75-126.209 41.708-36.166-3.916-71.75-17.208-102.791-36.041-41.959-25.709-79.584-55.5-107.417-96.625-25.917-39.709-44.125-82.709-41.75-131.042.75-38.042 13.292-73.458 34.375-104.875 20.125-32.125 49.083-52.625 78.333-76.042 37.834-27.75 76.167-52.833 110.75-85.125 13.167-12.916 27.417-20.958 33.834-39.166Z" style="fill:#4b3423;fill-rule:nonzero"/>
  <path d="M2218.97 3166.29c2.792 1.458 5.542 2.958 8.208 4.583 18.042 27.792 31.792 57.75 51.542 84.5 32.208 49.417 72.542 94.917 113.208 137.5 24.167 28.708 50.417 58.458 66.542 92.583 3.5 8.584 7.333 17.084 10.833 25.709 2.584 11.25 6.792 21.958 9.792 33.083 4.083 40.25 3.875 79.5-12.333 117.25-13.709 31.667-33.584 59.958-59.25 83.083-21.917 22.167-48 35.834-74.875 50.75-9.709 4.125-19.5 8.125-29 12.584-11.167 4.041-22.667 7.125-33.917 10.875-6.875 1.625-13.792 2.875-20.75 4.083-7 1.75-13.917 3.625-20.792 5.875-33.291 1.208-67.041 2.833-100.291 0-15.5-3.833-30.75-7.875-45.375-14.5-59.625-23.375-104.5-80.542-136.042-134.25-26.25-42.5-48.792-86.75-73.292-130.125-15.625-30.167-34.25-58.625-49.791-88.917-8.959-16-17.709-32.083-27.167-47.833-10.542-17.167-17.583-36.167-27.458-53.792-.625-5.958-1.709-12.333-.875-18.333 2.083-5.958 10.208-9.542 15.416-12.458 15.584 23.75 27.209 49.125 40.5 74.166 29.792 56.417 60.084 112.5 89.167 169.25 31.458 54.25 61.5 116.459 103.792 162.709 21.041 24.75 46.583 45.041 77.333 56.291 56.792 22.125 122.125 16.375 179.458-.833 55.25-16.833 109.417-46.458 144.584-93.417 35.625-43.458 45.625-101.208 34.208-155.458-6.292-24.375-18.208-47.5-31.833-68.583-40.792-60.459-95.917-105.917-138.5-165.625-29.292-41.792-59.625-85.75-81.167-132 6-3.084 11.917-6.125 18.125-8.75Z" style="fill:#2a190d;fill-rule:nonzero"/>
  <path d="M2200.84 3175.04c21.542 46.25 51.875 90.208 81.167 132 42.583 59.708 97.708 105.166 138.5 165.625 13.625 21.083 25.541 44.208 31.833 68.583 11.417 54.25 1.417 112-34.208 155.458-35.167 46.959-89.334 76.584-144.584 93.417-57.333 17.208-122.666 22.958-179.458.833-30.75-11.25-56.292-31.541-77.333-56.291-42.292-46.25-72.334-108.459-103.792-162.709-29.083-56.75-59.375-112.833-89.167-169.25-13.291-25.041-24.916-50.416-40.5-74.166 16.584-1.834 33-3.834 49.042-8.75 41.167-12.084 82.917-21.709 123.375-35.375 61.625-21.084 123.708-43.542 181.875-72.5 21.625-11.25 41.875-25.125 63.25-36.875Z" style="fill:#4b3423;fill-rule:nonzero"/>
</svg>
