<svg xmlns="http://www.w3.org/2000/svg" xml:space="preserve" style="fill-rule:evenodd;clip-rule:evenodd;stroke-linejoin:round;stroke-miterlimit:2" viewBox="0 0 4034 2500">
  <path d="M0 0h4033.82v2499.64H0z" style="fill:none"/>
  <path d="M1970.93 56.189c50.625 7 100.875 22.375 148.625 40.291 26.166 9.625 50.583 23.834 75.958 36.084 32.583 15.416 58.542 45.458 82.708 71.541 21.625 22.792 42.542 46.25 64.375 68.917 18.834 19.292 31.292 46.25 44.75 69.542 38.667-19.042 76.667-35.917 120-40.709 17.25-.625 35.125 4.292 51.5 9.334 32.875 9.958 59.25 39.5 79.75 65.875 20.125 25.25 26.209 56.625 32 87.75 2.792 26.541 8.959 51.916-6.208 76.083-27.208 41.917-61.083 80.875-94 118.375-11.5 12.25-4.917 27.875-3.042 42.458 3.417 23.834 9.5 46.084 21.417 67.125 28.333 55.167 77.542 97.834 122.458 139.709 9.125 8.833 21.125 18.125 16.375 32.5-11.333 38.125-31.083 73.916-44.625 110.875 18.959.791 37.792-.167 56.75.083 3.25.917 6.459 1.833 9.667 2.792-3.667 1.958-7.375 3.875-11.083 5.75-29.334-.125-58.25 3.458-87.625.791-.959-3.5-1.917-7-2.834-10.5 11.667-31.375 28.084-60.5 38.959-92.125-15.25-18.541-32.334-35.041-46.417-54.375-37.208-50.708-69.292-104.875-96.917-161.375-10.916-22.5-24.583-43.166-16.916-69.291 8.791-33.917 32.666-49.834 56.458-72.459 23-23.583 50.458-54.416 53.875-88.458 6.875-51.917-19.875-104.708-58.625-138.042-22.125-19.291-50.208-28.416-79.5-24.75-46.667 5.375-90.667 31.5-133.833 49.5-5.709-2.5-16.417-2.791-17.792-10.083-.583-12.917 14-27.542 6.875-40.042-6.542-15.583-17.5-29.833-28-43.041-18.875-22.875-37.375-45.5-59.833-65.084-38.209-43.208-89.375-76.083-141.167-100.75-52.917-23.916-111.5-36.666-169-43.166-40.792-5-82.083-3.75-124-4.209-38.208.5-74.042-1.208-110.792 3.792-47.416 5.708-99.083 11.542-142.166 33.75-55.709 28.292-103 73.417-138.084 124.792-9.666 12.958-3.166 26.458-1 40.833-5.833 2.458-11.458 9.542-17.875 5.167-8.666-4.375-16.333-11.334-23.833-17.417-23.833-20.292-51.875-38-82-47.042-19.5-5.625-38.625-1-56.208 8.084-21.792 11.416-41.875 27.708-56.042 47.958-13.333 19-18.25 42.75-14.542 65.625 6.709 44.042 31.542 86.583 71.417 108.333 9.375 6.25 24.208 11.542 30 21.375-1.083 14.459-9.458 29-17.333 40.875-24.542 35.5-59.584 64.417-93.5 90.667-34.959 24.458-69.792 48.833-105.625 72.042-16.375 8.333-36.125 13.75-50.5 25.208-4.334 9.917-3.875 22.333-4.25 32.958-.25 22.834 1.5 45.584 6.666 67.834 10.167 44.166 18.25 88.708 22.792 133.791-6.208 4.75-11.958 9.917-17.792 15.125-4.458-1.916-8.875-3.833-13.375-5.583 4-54-9-102.875-20.833-154.917-9.167-40.791-20.542-82.5-13.792-124.5 19.875-4.791 38.75-12 58.125-18.416 21.417-7 41.042-19.584 61.625-29.792 30.167-15.292 55.167-35.167 82.625-54.708 23.084-17 44.875-32.959 56.375-60.334 5.042-11.708 9.25-29.791-1.416-39.666-14.625-14.792-33.042-24.667-46.542-40.875-16.292-16.375-26.375-36.042-34-57.625-11.042-26.5-5.417-58.25 5.458-83.917 15.875-35.458 43.625-66.292 78.042-84.583 22.292-11.959 46.625-11.959 71.25-10.084 23.625 2.375 39.375 16.584 59.583 26.792 9 4.708 19.625 6.625 28.625.917 10.584-6.625 18.417-18 26.917-27.209 44.375-48.833 100.125-85.875 158.292-116.208 40.833-21.833 90.125-23.583 135.375-28.5 83.541-3.625 163.375-10.833 247.25-1.458Z" style="fill:#59361a;fill-rule:nonzero"/>
  <path d="M1832.01 93.105c41.917.459 83.208-.791 124 4.209 57.5 6.5 116.083 19.25 169 43.166 51.792 24.667 102.958 57.542 141.167 100.75-68.5-34-137.75-64.25-211.834-84-71.708-20.833-144.166-22.916-218.208-18.916-47.833 4.791-95.375 15.916-141.625 28.791-34.083 9.625-67.542 18.75-100.25 32.667-36.625 15.958-70.958 29.75-98.75 59.792-41.833 43.916-73.5 102.083-104.167 154.083-18.458 30.958-33.166 61.208-57.958 87.958-20.917 22.5-36.167 45.792-59.917 65.125-29.166 23.917-60.625 45.042-93.75 63.042.125-3.292.209-6.583.334-9.875 33.916-26.25 68.958-55.167 93.5-90.667 7.875-11.875 16.25-26.416 17.333-40.875-5.792-9.833-20.625-15.125-30-21.375-39.875-21.75-64.708-64.291-71.417-108.333-3.708-22.875 1.209-46.625 14.542-65.625 14.167-20.25 34.25-36.542 56.042-47.958 17.583-9.084 36.708-13.709 56.208-8.084 30.125 9.042 58.167 26.75 82 47.042 7.5 6.083 15.167 13.042 23.833 17.417 6.417 4.375 12.042-2.709 17.875-5.167-2.166-14.375-8.666-27.875 1-40.833 35.084-51.375 82.375-96.5 138.084-124.792 43.083-22.208 94.75-28.042 142.166-33.75 36.75-5 72.584-3.292 110.792-3.792Z" style="fill:#7f5c43;fill-rule:nonzero"/>
  <path d="M1836.13 138.314c74.042-4 146.5-1.917 218.208 18.916 74.084 19.75 143.334 50 211.834 84 22.458 19.584 40.958 42.209 59.833 65.084 10.5 13.208 21.458 27.458 28 43.041 7.125 12.5-7.458 27.125-6.875 40.042 1.375 7.292 12.083 7.583 17.792 10.083 22.5 3.084 26.041 24 34.75 41.292 20.708 49.917 39.958 100.542 50.583 153.625 9.417 43.792 10.958 86.042 15.458 130.875 5.292 53.875 7.5 109.083-5.125 162.167-4.583 18.625-8.458 37.791-15.208 55.75-4.542 14.541-21.208 18.708-33.458 24.708-30.125 12.375-58.542 28.375-83.792 49 .167-18.167 1.417-40.667-12.167-54.75-20.416-22.25-49.875-37.958-80.083-40.583-11.792-1.209-20.625 4.333-29.875 10.708 36.583-69.208 40.417-158-.75-226.125-20.917-35.25-56.708-57.625-96.542-65.375-31.291-5.542-63.5-8.792-94.458.25-27.875 8.25-53.75 16.125-74.083 38.167-21.292 23.25-46.459 45.375-59 74.208-19.917 44.25-24 95.958-11.375 142.833 6.666 24.792 21.583 46.125 41.541 62.125 23.709 19.042 50.959 37.042 80.792 44.375 20.583 5.25 42.167 6.709 63.25 4.417-7.208 19.417-11.417 38.083-12.125 58.875-28.917-4.292-57.917-4.708-86.917-7.625 7.375-.25 14.75-.792 22.125-1.333-6.333-16.084-14.5-30.792-26.791-43.084-24.292-24.833-52.584-51.875-85.125-65-27.75-11.791-59.209-9.25-88.709-9.083-27.625.708-59.75 1.083-85.375 12.458-24.583 10.834-42.625 33-58.25 54.084 19 8.125 38.542 8.958 58.792 10.875l-2.875 4c-32.125 1-57.75-12.25-88.833-15.75-23.042-2.709-45.917-5.792-68.875-9.125-1.417-3.084-2.834-6.167-4.25-9.25 40.416 3.125 78.625-10.584 111.375-33.584 25.208-17.791 48.125-41.416 57.583-71.458 13.583-43.167 12.958-92.208-4.542-134.208-10.291-23.834-26.416-45.417-43.541-64.834-23.625-26.5-57.5-40.208-92.167-44.458-36.292-3.75-74.583 1.042-107.958 16.167-34.375 15.625-59.667 45.166-74.25 79.5-13.542 32.583-20.209 68.25-17.375 103.5 1.916 25.166 6.916 52.208 19.416 74.375-39.916-.459-80.583 18.166-100.583 53.666-62.083-5.208-124.125-10.541-186.458-11.333-15.542-29.875-23.125-61.583-30.209-94.25-6.5-30.625-9.708-62.042-6.583-93.292 2.542-26.958 15.625-48.125 21.542-75.041 35.833-23.209 70.666-47.584 105.625-72.042-.125 3.292-.209 6.583-.334 9.875 33.125-18 64.584-39.125 93.75-63.042 23.75-19.333 39-42.625 59.917-65.125 24.792-26.75 39.5-57 57.958-87.958 30.667-52 62.334-110.167 104.167-154.083 27.792-30.042 62.125-43.834 98.75-59.792 32.708-13.917 66.167-23.042 100.25-32.667 46.25-12.875 93.792-24 141.625-28.791Z" style="fill:#775237;fill-rule:nonzero"/>
  <path d="M1364.47 296.98c7.375 4.25 17.875 10.5 17.959 20.084.208 7.791-4.584 15.208-12.959 14.625-19.791-3.084-40.666-21.167-62.541-21.667-26.584-1.167-49.125 24.75-52 49.667-2.209 20.75 16.5 38.791 21.875 57.625.75 5.75-5.167 11.958-7.5 17.041-10.584-5.25-20.5-8.958-26.792-19.708-12.083-19.833-19.083-44.792-17.833-68.042 1.708-27.583 20.25-52.5 46.416-61.583 31.417-11.625 64.709-2.667 93.375 11.958Z" style="fill:#5b381d;fill-rule:nonzero"/>
  <path d="M2498.76 349.98c29.292-3.666 57.375 5.459 79.5 24.75 38.75 33.334 65.5 86.125 58.625 138.042-3.417 34.042-30.875 64.875-53.875 88.458-23.792 22.625-47.667 38.542-56.458 72.459-7.667 26.125 6 46.791 16.916 69.291 27.625 56.5 59.709 110.667 96.917 161.375 14.083 19.334 31.167 35.834 46.417 54.375-10.875 31.625-27.292 60.75-38.959 92.125-10.791 13.834-25.833 9.417-41.333 10.792-32.417-.583-63.083 9.083-95.375 9.792-34.792.875-69.25 4.833-104.125 3.75-33.333-1-66.208 3-99.417 4 13.834-18.417 18.667-39.709 20.542-62.292 25.25-20.625 53.667-36.625 83.792-49 12.25-6 28.916-10.167 33.458-24.708 6.75-17.959 10.625-37.125 15.208-55.75 12.625-53.084 10.417-108.292 5.125-162.167-4.5-44.833-6.041-87.083-15.458-130.875-10.625-53.083-29.875-103.708-50.583-153.625-8.709-17.292-12.25-38.208-34.75-41.292 43.166-18 87.166-44.125 133.833-49.5Z" style="fill:#654232;fill-rule:nonzero"/>
  <path d="M2502.55 409.272c29.166 1.333 60.041 14.75 77.916 38.375 16.75 21.708 22.667 51.208 13.75 77.375-7.208 20.875-22 39.375-41.083 50.583-7.125 4.042-16 7.75-24.333 6.917-7.375-1.167-13.667-7.083-13.292-14.917 11.25-15.583 33.125-24.875 42.083-41.75 13.25-28.125-5.625-71.583-37.875-76.5-18.125-3.791-39.208 3.625-57.041 2.542-9.75.333-18.667-16.542-11.209-23.583 11.209-14.834 33.459-19.834 51.084-19.042Z" style="fill:#5c391e;fill-rule:nonzero"/>
  <path d="M1916.93 476.689c13.875-4.667 29.375-3.5 40.75 6.333 14.041 12.167 24.791 28.625 35.416 43.708 8.292 12.792 17.792 27.542 13.75 43.459-5.083 20.291-25.208 32.625-45.625 30.541-27.5-1.916-53.583-22.083-69.875-43.208-10.5-13.25-8.5-28.125-4.083-43.25 4.875-15.708 13.167-31.833 29.667-37.583Z" style="fill:#654233;fill-rule:nonzero"/>
  <path d="M3109.05 486.522c34.25 6.875 68.625 14.375 101 27.667 25.708 10.458 49.833 24.375 74.541 37.666 45.584 25.042 91.459 49.542 137.167 74.25-19.917 18.542-43.375 23.625-67.75 33.667-26.667 10.25-52.167 22.833-79.417 31.625-52.333-53.167-100.5-107.333-161.791-151.083-29.209-22-62.167-37.25-92.042-58.125 30.417-7.125 58.25-1.042 88.292 4.333Z" style="fill:#221911;fill-rule:nonzero"/>
  <path d="M3020.76 482.189c29.875 20.875 62.833 36.125 92.042 58.125 61.291 43.75 109.458 97.916 161.791 151.083 27.25-8.792 52.75-21.375 79.417-31.625 24.375-10.042 47.833-15.125 67.75-33.667 22.583 11.5 43.708 25.125 64.333 39.792-30.375 5.042-60.083 15.375-89.666 23.833-31.584 10.334-63.75 20.417-93.792 34.75 17.958 25.542 38.25 48.917 54.25 75.834 16.625 27.75 34.5 54.833 50.375 83 6.417 10.916 12.625 24.041 22.25 32.458 19.333 4.875 41.125 1.875 61 2.75 60.875 2.167 122.083 4.875 183 2.875-1.292-4.417-2.667-8.792-4.125-13.167 4.667 4.75 9.583 9.25 14.708 13.542-33.333 5.625-63.791 1.917-97.916 2.375-37.542.167-74.917-.833-112.417-2.625-50-2.292-100.042-.792-150.083-2.333-27-.709-53 3.958-79.25 9.875 15.125-5.167 29.75-10.459 45.833-11.917 31.042-3.083 62.125 1.667 93.333-.75-9.416-27.542-28.458-52.917-44.416-77.458-23.334-33.417-44.792-71.375-74.334-99.667-25.625 8.333-50.083 20.583-74.625 31.667-57.875 28.5-116.458 56.5-169.916 92.5-35.542 24.083-75.334 44.458-107.125 73.458 13.958 14.792 28.625 28.917 42.333 43.958 7.625 8.542 16.542 15.167 26.375 21-16.042 3.375-32.125 6.542-48.083 10.334-14-21.959-32.542-39.625-55.834-51.5-22.916 12.75-39.083 30.875-59.916 46.416-12.709 9.584-24.875 19.667-36.25 30.834 17.083-.584 34.041-1.459 51-3.792-19.75 4.292-37.417 10.75-57.959 7.042 3.25-18.959 8.167-37.5 12.25-56.25 24.125-7.625 41.834-25.542 55.334-46.334-14.542-10-28.75-17.416-45.417-23.416 2.5-16.5 4.958-33 7.458-49.459 28.292 11 51.042 29.834 77.459 44.167 36.75-21.292 69.916-48.208 106.541-69.875 68.125-44 138.834-83.375 213.292-115.625 12.708-5.333 24.75-11.75 36.5-19-49.083-59.833-108.75-115.708-172.5-159.75-26.417-17.667-56.583-36.25-87.958-42.875 13.458-7.75 27.791-16.708 42.958-20.583Z" style="fill:#3d2c1d;fill-rule:nonzero"/>
  <path d="M1641.88 493.814c14.792-2.459 31.25-3.292 45.75 1.208 29.833 10.917 45.375 48.25 27.792 76.042-11.709 20.333-32.917 23.041-54.417 21.5-23.708-1.375-43.875-16.084-56.375-35.625-8.958-14.167-7-34.334 3.667-47.042 8.208-9.375 21.666-13.875 33.583-16.083Z" style="fill:#654233;fill-rule:nonzero"/>
  <path d="M2977.8 502.772c31.375 6.625 61.541 25.208 87.958 42.875 63.75 44.042 123.417 99.917 172.5 159.75-11.75 7.25-23.792 13.667-36.5 19-74.458 32.25-145.167 71.625-213.292 115.625-36.625 21.667-69.791 48.583-106.541 69.875-26.417-14.333-49.167-33.167-77.459-44.167 8.5-75.083 32.792-144.583 56.834-215.625 11.166-29.041 25.583-56.916 41.25-83.75 15.791-28.833 48.291-46.125 75.25-63.583Z" style="fill:#221811;fill-rule:nonzero"/>
  <path d="M2108.72 640.772c39.834 7.75 75.625 30.125 96.542 65.375 41.167 68.125 37.333 156.917.75 226.125-13.333 14.917-27.708 28.458-45.208 38.417-31.209 18.208-70.542 25.583-105.417 36.458-21.083 2.292-42.667.833-63.25-4.417-29.833-7.333-57.083-25.333-80.792-44.375-19.958-16-34.875-37.333-41.541-62.125-12.625-46.875-8.542-98.583 11.375-142.833 12.541-28.833 37.708-50.958 59-74.208 20.333-22.042 46.208-29.917 74.083-38.167 30.958-9.042 63.167-5.792 94.458-.25ZM1556.88 638.647c34.667 4.25 68.542 17.958 92.167 44.458 17.125 19.417 33.25 41 43.541 64.834 17.5 42 18.125 91.041 4.542 134.208-9.458 30.042-32.375 53.667-57.583 71.458-32.75 23-70.959 36.709-111.375 33.584-32.625-6.459-69.125-10.959-98.459-26.417-21.833-11.042-38.875-28.917-53-48.583-12.5-22.167-17.5-49.209-19.416-74.375-2.834-35.25 3.833-70.917 17.375-103.5 14.583-34.334 39.875-63.875 74.25-79.5 33.375-15.125 71.666-19.917 107.958-16.167Z" style="fill:#5c381a;fill-rule:nonzero"/>
  <path d="M3486.09 665.897c32.5 19.75 54.292 48.125 78.584 76.542 41.791 51.208 79.791 104.041 104.708 165.791 1.458 4.375 2.833 8.75 4.125 13.167-60.917 2-122.125-.708-183-2.875-19.875-.875-41.667 2.125-61-2.75-9.625-8.417-15.833-21.542-22.25-32.458-15.875-28.167-33.75-55.25-50.375-83-16-26.917-36.292-50.292-54.25-75.834 30.042-14.333 62.208-24.416 93.792-34.75 29.583-8.458 59.291-18.791 89.666-23.833Z" style="fill:#211810;fill-rule:nonzero"/>
  <path d="M1511.01 669.23c28.958-1.583 56.375-2.083 83.708 9.125-24.833 20.5-35.25 59.042-27.416 89.625 13.916 3.709 29.041 4.25 36.916 18.25 9.709 13.125.292 29.542-7.333 41.209-4.375 8-13.75 13.666-7.583 23.291 12.208 20.125 30.916 35.834 51.166 47.459 3.834 2.208 7.667 4.375 11.5 6.583-13.75 13.167-28.708 24.042-46.125 31.917-20.25 9.208-42.875 20.208-65.375 20.291-41.125 1.25-80.166.834-113.75-26.125-31.625-23.791-39.583-64.083-42.041-101.375-.375-40.583 10.041-87.125 37.208-118.541 22.625-26.625 55.083-38.5 89.125-41.709ZM2023.38 670.522c26.25-2.75 52-4.208 77.542 3.833-20.459 27-24.5 59.084-20.042 91.875 9.292 5.834 21.458 7.042 30.292 13.334 6.833 8.416 8.541 20.708 5.916 31.041-3.875 12.834-19.208 20.334-23.916 31.792 2.833 27.208 30.5 46.375 55.583 51.083 17.042 3.25 31.292-2.5 46.5-9.208-4.417 18.625-16.917 35.875-29 50.375-25.917 28-63.583 39.042-100.917 39.417-26.291 0-54.5 2.291-79.041-7.709-31.084-12.5-61.334-33.166-79.959-61.458-16.166-26.125-15.125-54.5-14.041-84.042.583-17.833 8.208-33.041 15.75-48.791 13.25-26 23.916-50.417 47.25-69.25 19.25-15.167 43.25-29.625 68.083-32.292Z" style="fill:#d8c9be;fill-rule:nonzero"/>
  <path d="M2132.05 679.355c21.5 9.917 36.875 27.959 46.833 49.125 14.417 31.084 19.375 67.084 23.417 100.834 2.708 19.416-2.959 36.416-7.042 54.958-15.208 6.708-29.458 12.458-46.5 9.208-25.083-4.708-52.75-23.875-55.583-51.083 4.708-11.458 20.041-18.958 23.916-31.792 2.625-10.333.917-22.625-5.916-31.041-8.834-6.292-21-7.5-30.292-13.334-4.458-32.791-.417-64.875 20.042-91.875 10.166 1.709 21.458 1.375 31.125 5ZM1631.22 705.189c23.792 28.75 45.375 62.208 48.875 100.291 2.334 25.25-4.625 58-16.416 80.417-4.75 9.833-14 9.167-23.209 12.292-20.25-11.625-38.958-27.334-51.166-47.459-6.167-9.625 3.208-15.291 7.583-23.291 7.625-11.667 17.042-28.084 7.333-41.209-7.875-14-23-14.541-36.916-18.25-7.834-30.583 2.583-69.125 27.416-89.625 15.042 6.042 26.209 14.25 36.5 26.834Z" style="fill:#28180b;fill-rule:nonzero"/>
  <path d="M1074.43 691.939c-5.917 26.916-19 48.083-21.542 75.041-3.125 31.25.083 62.667 6.583 93.292 7.084 32.667 14.667 64.375 30.209 94.25-13.542-.542-27-2.25-40.542-2.792-4.542-45.083-12.625-89.625-22.792-133.791-5.166-22.25-6.916-45-6.666-67.834.375-10.625-.084-23.041 4.25-32.958 14.375-11.458 34.125-16.875 50.5-25.208Z" style="fill:#69452e;fill-rule:nonzero"/>
  <path d="M3264.84 739.272c29.542 28.292 51 66.25 74.334 99.667 15.958 24.541 35 49.916 44.416 77.458-31.208 2.417-62.291-2.333-93.333.75-16.083 1.458-30.708 6.75-45.833 11.917-12.667 3.958-25.334 8-38 12.041-60.125 15.209-119.625 33.125-179.25 50.292-15.084 3.5-30.209 7-45.292 10.458-9.833-5.833-18.75-12.458-26.375-21-13.708-15.041-28.375-29.166-42.333-43.958 31.791-29 71.583-49.375 107.125-73.458 53.458-36 112.041-64 169.916-92.5 24.542-11.084 49-23.334 74.625-31.667Z" style="fill:#221811;fill-rule:nonzero"/>
  <path d="M1376.72 912.189c14.125 19.666 31.167 37.541 53 48.583 29.334 15.458 65.834 19.958 98.459 26.417 1.416 3.083 2.833 6.166 4.25 9.25-50.542-5.334-100.459-14.875-151.042-20.167-35-4.5-70.208-6.125-105.25-10.417 20-35.5 60.667-54.125 100.583-53.666Z" style="fill:#8a403c;fill-rule:nonzero"/>
  <path d="M2797.01 915.189c16.667 6 30.875 13.416 45.417 23.416-13.5 20.792-31.209 38.709-55.334 46.334 4.584-23.084 6.167-46.5 9.917-69.75Z" style="fill:#221811;fill-rule:nonzero"/>
  <path d="M2235.88 921.564c30.208 2.625 59.667 18.333 80.083 40.583 13.584 14.083 12.334 36.583 12.167 54.75-1.875 22.583-6.708 43.875-20.542 62.292-48.75.666-97.75-2.709-146.458-4.625-39.375-1.209-78.583-5.459-117.875-8.542.708-20.792 4.917-39.458 12.125-58.875 34.875-10.875 74.208-18.25 105.417-36.458 17.5-9.959 31.875-23.5 45.208-38.417 9.25-6.375 18.083-11.917 29.875-10.708Z" style="fill:#8c413c;fill-rule:nonzero"/>
  <path d="M3323.68 919.189c50.041 1.541 100.083.041 150.083 2.333 37.5 1.792 74.875 2.792 112.417 2.625 34.125-.458 64.583 3.25 97.916-2.375 22.959 16.458 49.125 24.208 70.5 43.458-28.375 2.209-56.666 1.959-85.083 1.459-34.875-.625-69.25 5.541-104.167 4.75-34.958.833-69.25-5.625-104.166-4.542-21.167.625-42.084-.708-63.125-2.875-27.542-2.792-54.917.125-82.459-2.292-47.458-3.875-94.833-6.666-142.416-3.416 10.875-6 21.916-12.167 33.25-17.209 12.666-4.041 25.333-8.083 38-12.041 26.25-5.917 52.25-10.584 79.25-9.875Z" style="fill:#6c383c;fill-rule:nonzero"/>
  <path d="M1777.84 939.897c29.5-.167 60.959-2.708 88.709 9.083 32.541 13.125 60.833 40.167 85.125 65 12.291 12.292 20.458 27 26.791 43.084-7.375.541-14.75 1.083-22.125 1.333-17.041-2.083-33.833-5.75-50.916-7.583-13.834-1.834-28.959-2.5-42.125-7.209-5.625-12.333-3.334-29.833-4.584-43.5-10.833-8.25-20.125-19.125-34.708-19.208-22.25-.917-44.917-.5-67.167.458-23.083 1.625-44.875 8.459-58.583 28.25-1.75 2.584-3.5 5.125-5.25 7.709-20.25-1.917-39.792-2.75-58.792-10.875 15.625-21.084 33.667-43.25 58.25-54.084 25.625-11.375 57.75-11.75 85.375-12.458Z" style="fill:#b78657;fill-rule:nonzero"/>
  <path d="M3206.43 941.105c-11.334 5.042-22.375 11.209-33.25 17.209 47.583-3.25 94.958-.459 142.416 3.416 27.542 2.417 54.917-.5 82.459 2.292 21.041 2.167 41.958 3.5 63.125 2.875 34.916-1.083 69.208 5.375 104.166 4.542 34.917.791 69.292-5.375 104.167-4.75 28.417.5 56.708.75 85.083-1.459 10.709 9.334 20.709 19.709 30.417 30.125-29.917 11.834-59.167 10.584-90.542 13.5-23.583 2-47.166 3.667-70.833 4.292-30.875.708-60.917 3.75-91.75 2.875-65.833-2.583-131.625-5.958-197.417-9.792-67.375-6.5-135.291-10-202.333-19-20.125-2.5-38.625-8.166-58.75-4.666-15.458 2.583-30.792 5.875-46.208 8.833 59.625-17.167 119.125-35.083 179.25-50.292Z" style="fill:#663732;fill-rule:nonzero"/>
  <path d="M1049.13 951.73c13.542.542 27 2.25 40.542 2.792 62.333.792 124.375 6.125 186.458 11.333 35.042 4.292 70.25 5.917 105.25 10.417 50.583 5.292 100.5 14.833 151.042 20.167 22.958 3.333 45.833 6.416 68.875 9.125 31.083 3.5 56.708 16.75 88.833 15.75l2.875-4c1.75-2.584 3.5-5.125 5.25-7.709.708 3.084 1.458 6.125 2.167 9.209 51.75 8.791 104 17.5 156.208 22.791 1.083-13.791 1.833-27.666 2.083-41.5 1.25 13.667-1.041 31.167 4.584 43.5 13.166 4.709 28.291 5.375 42.125 7.209 17.083 1.833 33.875 5.5 50.916 7.583 29 2.917 58 3.333 86.917 7.625 39.292 3.083 78.5 7.333 117.875 8.542 48.708 1.916 97.708 5.291 146.458 4.625 33.209-1 66.084-5 99.417-4 34.875 1.083 69.333-2.875 104.125-3.75 32.292-.709 62.958-10.375 95.375-9.792 15.5-1.375 30.542 3.042 41.333-10.792.917 3.5 1.875 7 2.834 10.5 29.375 2.667 58.291-.916 87.625-.791 37.833 11.125 79.083 11.833 118.208 16.125 156.208 15.5 310.542 34.583 467.333 44.75 81.667 6.375 163.792 7.25 245.667 7.458 67.833-1.708 135.625-6.375 203.125-13.333 31.75-3.042 61.917-10.25 94-9.542 15.333 27 29.833 54.417 41.958 83.042-24.541 0-47.916-5.209-72.375-6.625-58.958-2.792-117.75-.292-176.5 4.666-38.791 2.917-76.416 11.709-114.833 17.375-91.542 15.667-178 41.625-267.292 66.25-107.875 32.417-213.333 67.709-324.416 88.459-78.625 14.916-158.334 24.25-238.084 30.25-42.916 1.708-85.958 1.375-128.916 1.25-61.792.958-126.125-12.334-186.417-25.125-39.5-7.75-76.542-12.125-111.458-34.125-34.959-22.792-70.375-47.875-108.459-66.417-98.208-47.333-200.333-84.292-308.333-101.375-117.542-23.875-235.625-32.125-354.917-41.333-61.583-7.584-123.458-16.5-183.875-30.834-58.791-14.875-116.333-41.708-171.958-65.75-43.458-19.166-84.833-42.125-129.417-58.875 5.834-5.208 11.584-10.375 17.792-15.125Z" style="fill:#5e3b2c;fill-rule:nonzero"/>
  <path d="M557.009 953.189c43.083 1.166 87.833-2.167 130.458 4.375 46.125 12.208 91.792 25.5 140.417 24.208 30.417 0 57-10.792 86.542-15.75 15.5-1.708 31.416-2.667 46.916-1 10.542 1.125 20.875 8 30.167 12.917 21.75 12.375 44.708 18.291 67.417 28.625 29.458 13.25 57.875 28.75 87.5 41.75 69.958 30.458 135.291 61.5 210.916 76.166 40.542 7.417 81.5 13.584 122.292 19.75 70.542 7.625 141.542 11.625 212.208 18 52.167 5.584 104.042 14.209 155.75 22.917 40.375 7.708 80.209 13.708 119.667 25.5 51.583 14.083 101.792 32.333 150.875 53.5 25.25 11.125 49.875 19.375 72.625 35.5-27.25-2.042-51.875-10.833-78.083-17.583-71.292-18.834-144.667-31.084-217.084-45.084-124.583-20.791-250.291-34.583-374.958-55.041-54.125-9.167-108.958-15.125-163.667-19.834-68.833-4.208-135.5-17.25-205.375-10.333-56.5 1.125-113.291 5.625-169.75 3.333-40.083-1.791-71-19.25-106.333-35.75-55.083-26.5-116.417-36-177.083-37.583-17.334-.292-33.834-4.583-50.167-10.083-31.5-10.584-63.417-19.375-94.542-30.875-13.791-4.917-26.583-9.834-41.5-9.667-24.5-.208-48.791-.292-73-4.5-24.541-4.208-49.25-6.417-74.166-6.25-10.792.708-20.709 1.583-29.459 8.583-14.625 11.125-29.958 20.209-45.916 29.209-15.125 8.625-21.542 22.333-29.625 36.916-22.709 43.125-45.542 86.75-63.709 132-45.666 111.417-76.041 229.417-92.458 348.667-3.5 26.625 1.542 50.625 4.958 76.833 3.709 26.375 5.667 51.667 14.75 76.875 16.5 45.667 42.375 82.75 68.792 122.917 28.542 42.083 52.625 87.875 67.5 136.625 3.917 12.958 8.667 25.333 14.292 37.667 13.583.25 25.291-2.584 36.208 7.625 27.875 24.791 53.292 52.416 80.583 77.833 10.792 9.583 21.292 17.833 36.667 16.375 18.75-.792 35.75-14.292 53.208-6.583 31.625 12.125 63 24.541 95.667 33.666 20.667 6.5 43.958 10.875 62.958 21.25 10 7.25 18.709 14.834 30.959 18.125 55.333 15.542 116.833 12.667 174.083 12.459 50.458.416 100.625-4.125 151-7 46.208-6.667 93.875-5.667 139.333-16-5.25-5.667-10.5-12.042-16.833-16.459-16.875-3.375-35.875 1.042-52.917 2.625-63.541 8.625-127.291 11.709-191.25 15.334-50.916 1.25-102.166 2.25-153.083-.709-27.042-1.75-53-6.416-76.25-21.125-13.958-8.791-28.125-17.208-42.042-26.083-6.25-4.5-13.708-9.125-15.708-17.083-3.125-11.875-2.542-25.042-3.042-37.25-.208-29.542-6.041-58.125-5.25-87.709.334-28.333 6.792-53.75 10.459-81.75 5.458-40.083 9.666-80.291 12.833-120.625 17.25 16.125 31.875 32 54.542 40.625 31.916 14.042 62.625 10.167 96.625 10.459 64.333-.209 124.875-24.75 187.541-35.875 35.959-6.417 71.5-15.375 107.625-20.875 31.459-5.084 65.334 2.5 96.917 6.625 66.333 7.416 131.958 20.541 198.125 29.166 46.958 6.25 95.708 14.709 143.042 15.792 72.166 3 144.958 1.583 216.666-7.042 73.959-9 147.459-18.708 219.667-37.666 84.792-22.042 169.083-44.459 255.625-59.084 93.5-13.875 188.458-25 282.917-29.708 50.166-.125 100-3.917 150.125-1 165.458-.167 331.375 41.875 495.208 65.833 19.958 2.75 39.917 5.417 59.708 9.584-27.708 11.583-56.916 17.041-85.625 26.416-66.291 19.084-131.416 41.834-195.583 67.084-59.875 23.958-114.458 54.375-171.792 82.416-51.583 25.167-107.541 40.292-164.541 45.959-40.084 2.833-80.584.916-120.709.708-25.25.042-50.041-3.5-75.125-5.167-112.375-3.083-219.916-6.25-330.75 17.209-30.166 6.75-59.958 14.583-89.708 23-33.792 9.625-69.542 14.291-104.333 21.125-164.042 30.75-329.209 53.916-494.209 78.416.417 2.917.875 5.875 1.292 8.792-15.792-12-31.292-24.167-48.625-33.958-43.833-25.334-82.458-52.125-129.333-70.625-44.792-17.792-90.542-33.5-137.167-45.792-28.667-7.792-56.125-11.5-82.958-25.333-38.167-19.542-77.292-35.542-119.75-42.792-44.334-7.125-86.334-13.875-131.25-7.25-23.417 3.667-51.625 6.792-71.709 20.208-13.25 8.375-10.125 29.209-11.041 42.625 19.583.5 39.041-.708 58.541-2.666 71.25-5.375 141.75-.792 212.25 9.958 20.834 3.208 42.959 5.625 62.875 12.542 16.959 5.833 30.334 16.041 44.042 27.208 35.375 29.375 69.917 56.5 100.333 91.333 12.167 14.25 24.5 28.25 37.959 41.292 16.75 16.167 28.625 34.625 46.583 49.208 23.875 19.375 50.375 35 79.667 44.667 37.708 12.458 77.458 19.208 116.75 24.208 25.208 2.25 50.166 4.375 75.083 9.125-60.875 7.917-119.875 16.417-178.167 36.75-32.958 12.042-67.291 17.917-100.708 28.292-24.042 7.458-48.125 14.333-73 18.417-63.167 10.5-126.083 23.958-187.667 41.541-23.25 7.375-46.541 13.709-70.666 17.375-34.084 5.375-67.459 13.875-101.25 20.5-17.667 4-32.75-1.375-49.625-5.916-50.584-14.709-99.167-29.5-146.167-53.834-37.208-18.708-69.833-42.708-103.583-66.833-38.834-27.25-73.542-63.458-107.167-97.042-79.583-79.791-148.167-170.166-200.75-270-12.75-24.958-27.375-50.166-35.667-77-16.333-57.416-24.291-114.333-32.208-173.291-2.25-18-5.417-36.959-5.167-55.084.209-15.333 6.959-28.458 6.167-43.958-2.083-55.667-4.792-108.292 8-162.875 22.542-102.875 46.625-207.833 84.292-306.333 9.25-22.542 15.708-44.542 33.291-62.209 29.292-30.416 59.417-60.416 91.5-87.875 9.959-9.041 21.792-12.166 34.75-14.25 83.417-14.958 168.709-26.166 253.542-23.541Z" style="fill:#5e3b2c;fill-rule:nonzero"/>
  <path d="M1017.97 961.272c4.5 1.75 8.917 3.667 13.375 5.583 44.584 16.75 85.959 39.709 129.417 58.875 55.625 24.042 113.167 50.875 171.958 65.75 60.417 14.334 122.292 23.25 183.875 30.834 119.292 9.208 237.375 17.458 354.917 41.333 108 17.083 210.125 54.042 308.333 101.375 38.084 18.542 73.5 43.625 108.459 66.417 34.916 22 71.958 26.375 111.458 34.125 60.292 12.791 124.625 26.083 186.417 25.125 42.958.125 86 .458 128.916-1.25 79.75-6 159.459-15.334 238.084-30.25 111.083-20.75 216.541-56.042 324.416-88.459 89.292-24.625 175.75-50.583 267.292-66.25 38.417-5.666 76.042-14.458 114.833-17.375 58.75-4.958 117.542-7.458 176.5-4.666 24.459 1.416 47.834 6.625 72.375 6.625 5.959 14 11.25 28.416 16.667 42.625-16 3.708-32.125 6.75-48.167 10.083-25.25 5.208-48.083 15.458-72.833 22.208-16 4.417-31.917 8.959-47.417 15 27.584 5.375 52-1.375 79.417-3.5 35.458-3.916 67.708-1.75 101.625-11.583 4.708 12.917 8.5 26.333 12.417 39.542-31.292 8.25-62.75 14.791-93.5 25.041-6.625.334-13.209.459-19.834.584 7.917-6.5 15.875-13 23.834-19.542-19.5.375-38.875 1.292-58.334 2.792-34.875 2.916-67.958-1.584-102.625 6.208-51.458 11.208-101.625 19.083-151.916 34.875-41.667 13.208-79.584 26.875-124.292 23.833-14.958-.083-33.75-5.75-47.625.584-37.75 17.166-71.708 41.791-107.792 61.416-11.791 2.625-23.625 5-35.583 6.542-4.208-.333-8.458-.667-12.667-1.042 12.542-12.125 26.459-22.458 40.542-32.666 49.75-37.667 105.333-69.959 164.875-89.292 43.917-14.958 88.958-24.292 134.625-31.875 67.542-11.292 134.333-26.208 199.792-46.375 29.708-9.625 57.75-15.417 85.5-29-59.167-2-119.209-3.208-178.042 4.417-71.125 8.166-142.042 19.083-211.25 37.208-150.083 33.958-293.667 89.5-443.292 123.583-62 14.959-124.916 22.334-187.791 32.042-111.084 13.042-223.292 15.375-334.792 6.667-35.25-2.667-72.333-4.042-106.542-12.75-28.875-7.167-56.541-14.417-82.125-30.167-50-31.917-116.083-41.583-172.875-56.292-85.833-23.25-174.291-39.416-261.916-54.458-79.125-11.75-158.542-22.083-237.875-32.625-79.75-12-158.917-25.958-239.125-35.083-38.5-3.625-77.042-6.875-115.5-10.792-42.75-4.625-85.834-2.75-129.667-2.792-60.208-.541-119.125 7.917-179.5 3.334-29.792-4.625-56-16.459-82.958-29.209-27.917-13.25-54.459-9.833-84.709-13.583-76.25-7.667-151.791-13.583-227.083-28.417-10.25-2.041-20.5-4.541-30.667-7.041-7.375-14.334-13.75-29.917-27.041-39.834-20.792-16-48.875-25.166-72.75-36.375 24.166-.208 48.25-.666 72.416-2.208 14.917-.167 27.709 4.75 41.5 9.667 31.125 11.5 63.042 20.291 94.542 30.875 16.333 5.5 32.833 9.791 50.167 10.083 60.666 1.583 122 11.083 177.083 37.583 35.333 16.5 66.25 33.959 106.333 35.75 56.459 2.292 113.25-2.208 169.75-3.333 69.875-6.917 136.542 6.125 205.375 10.333 54.709 4.709 109.542 10.667 163.667 19.834 124.667 20.458 250.375 34.25 374.958 55.041 72.417 14 145.792 26.25 217.084 45.084 26.208 6.75 50.833 15.541 78.083 17.583-22.75-16.125-47.375-24.375-72.625-35.5-49.083-21.167-99.292-39.417-150.875-53.5-39.458-11.792-79.292-17.792-119.667-25.5-51.708-8.708-103.583-17.333-155.75-22.917-70.666-6.375-141.666-10.375-212.208-18-40.792-6.166-81.75-12.333-122.292-19.75-75.625-14.666-140.958-45.708-210.916-76.166-29.625-13-58.042-28.5-87.5-41.75-22.709-10.334-45.667-16.25-67.417-28.625-9.292-4.917-19.625-11.792-30.167-12.917-15.5-1.667-31.416-.708-46.916 1 34.375-5.042 68.958-.5 103.541-4.75Z" style="fill:#c18a4f;fill-rule:nonzero"/>
  <path d="M2877.97 960.689c23.292 11.875 41.834 29.541 55.834 51.5-33.417 8.333-67.209 15.208-101 21.958-16.959 2.333-33.917 3.208-51 3.792 11.375-11.167 23.541-21.25 36.25-30.834 20.833-15.541 37-33.666 59.916-46.416Z" style="fill:#231912;fill-rule:nonzero"/>
  <path d="M3132.13 987.23c67.042 9 134.958 12.5 202.333 19 65.792 3.834 131.584 7.209 197.417 9.792 30.833.875 60.875-2.167 91.75-2.875 23.667-.625 47.25-2.292 70.833-4.292 31.375-2.916 60.625-1.666 90.542-13.5 13 14 25.917 28.125 38.625 42.417 17.5 19.625 29.667 45.333 43 68.25-32.083-.708-62.25 6.5-94 9.542-67.5 6.958-135.292 11.625-203.125 13.333-81.875-.208-164-1.083-245.667-7.458-156.791-10.167-311.125-29.25-467.333-44.75-39.125-4.292-80.375-5-118.208-16.125 3.708-1.875 7.416-3.792 11.083-5.75-3.208-.959-6.417-1.875-9.667-2.792 12.209-2.25 23.75-6 35.125-10.833 20.542 3.708 38.209-2.75 57.959-7.042 33.791-6.75 67.583-13.625 101-21.958 15.958-3.792 32.041-6.959 48.083-10.334 15.083-3.458 30.208-6.958 45.292-10.458 15.416-2.958 30.75-6.25 46.208-8.833 20.125-3.5 38.625 2.166 58.75 4.666Z" style="fill:#713a45;fill-rule:nonzero"/>
  <path d="M1756.84 981.355c22.25-.958 44.917-1.375 67.167-.458 14.583.083 23.875 10.958 34.708 19.208-.25 13.834-1 27.709-2.083 41.5-52.208-5.291-104.458-14-156.208-22.791-.709-3.084-1.459-6.125-2.167-9.209 13.708-19.791 35.5-26.625 58.583-28.25Z" style="fill:#27170c;fill-rule:nonzero"/>
  <path d="M365.051 1020.4c2.916 2.792 5.833 5.542 8.75 8.333-20.25 6.709-39.625 14.042-56.334 27.792-35.791 28.917-65.625 69.542-76.916 114.625-7.667 30.042-13.084 60.333-22.959 89.833-13.833 44.292-37.083 83.75-51 128.042-11.708 37.458-19.458 76.417-27.333 114.833-9.083 44.084-12.958 88.625-6.833 133.417 9 63.208 28 123.458 66.375 175.25 18.916 27.5 43.708 44.792 58.666 74.792 19.959 39.625 43.834 77.333 70.667 112.666 22.75 29.584 48.125 56 83.042 70.959 21.875 8.875 48.416 11.375 69.416-1.167 19.292-11.583 35.5-29.083 49.667-46.333 19.958-24.542 28.083-54.709 36.583-84.625 13-49.792 24.292-99.5 25.125-151.084 1.125-65.333-5.875-131.875-9.083-197.333-6.75-60.583-9.167-121.375-17.625-181.792-6.25-37.083 7.917-69.75 9.667-108.625 2.916 7.5 5.833 14.959 8.416 22.542 2.834 59.792 16.5 118 19.625 177.667 3.875 41.916-.75 83.041 7.5 124.666 26.334 7.625 50.334 17.75 74.417 30.75 29.375 15.75 61.083 20.875 91.583 33.417 27.584 11.167 56.125 16.667 85.167 22.5 81.708 16.417 162.417 35.75 244.75 48.375 71.208 13.5 142.75 24.458 214.417 34.833 38.25 6.584 76.708 10.917 115.333 14.417 29.25 2.417 58.125 6.167 87.542 5.708 36.333-.416 70.916 1.209 106.916-2.625 54.209-4.458 108.25-8.541 161.917-17.958 111.417-15.5 216.208-53.958 325.042-72.542 100-19.833 198.958-29.625 300.541-38.666 30.792-2.792 62.125-1.584 93.084-2.459 43.083-1.083 86.083-.083 129.166.417 42.375-.083 85.042 5.542 127 11.458 77.417 9.625 154.375 23.292 231.084 37.542 47.25 8.25 94.916 17.333 142.666 22.083 71.417 5.834 141.375 11.709 213.042 5 66.833-2.875 133.125-10.583 198.417-25.125 66.666-16.166 133.25-37.416 200.833-48.833 50.708-10.5 101.875-16.708 153.625-18.667 28.083-.333 57.208 5.209 85.208 8.584-.208 7.625-.416 15.25-.708 22.875l-7.208-.125c-27-5.834-53.709-10.5-81.459-9.292-53.75 2.25-107.333 8.625-159.75 20.958-77.875 14.5-152.291 41.25-230.291 55.292-51.417 8.333-102.75 15.292-154.875 17.042-18.375.541-36.834 1.416-55.209.916-21.625-.625-40.75-9.25-62.208-10.208-26.375-1.167-49.208 7.833-75.375 5.208-19.583-2-39.125-3.458-58.75-4.875-163.833-23.958-329.75-66-495.208-65.833-50.125-2.917-99.959.875-150.125 1-94.459 4.708-189.417 15.833-282.917 29.708-86.542 14.625-170.833 37.042-255.625 59.084-72.208 18.958-145.708 28.666-219.667 37.666-71.708 8.625-144.5 10.042-216.666 7.042-47.334-1.083-96.084-9.542-143.042-15.792-66.167-8.625-131.792-21.75-198.125-29.166-31.583-4.125-65.458-11.709-96.917-6.625-36.125 5.5-71.666 14.458-107.625 20.875-62.666 11.125-123.208 35.666-187.541 35.875-34-.292-64.709 3.583-96.625-10.459-22.667-8.625-37.292-24.5-54.542-40.625-3.167 40.334-7.375 80.542-12.833 120.625-3.667 28-10.125 53.417-10.459 81.75-.791 29.584 5.042 58.167 5.25 87.709.5 12.208-.083 25.375 3.042 37.25 2 7.958 9.458 12.583 15.708 17.083 13.917 8.875 28.084 17.292 42.042 26.083-1.708 4.25-3.417 8.5-5.042 12.75-19-10.375-42.291-14.75-62.958-21.25-32.667-9.125-64.042-21.541-95.667-33.666-17.458-7.709-34.458 5.791-53.208 6.583-15.375 1.458-25.875-6.792-36.667-16.375-27.291-25.417-52.708-53.042-80.583-77.833-10.917-10.209-22.625-7.375-36.208-7.625-5.625-12.334-10.375-24.709-14.292-37.667-14.875-48.75-38.958-94.542-67.5-136.625-26.417-40.167-52.292-77.25-68.792-122.917-9.083-25.208-11.041-50.5-14.75-76.875-3.416-26.208-8.458-50.208-4.958-76.833 16.417-119.25 46.792-237.25 92.458-348.667 18.167-45.25 41-88.875 63.709-132 8.083-14.583 14.5-28.291 29.625-36.916 15.958-9 31.291-18.084 45.916-29.209 8.75-7 18.667-7.875 29.459-8.583Z" style="fill:#c28b50;fill-rule:nonzero"/>
  <path d="M365.051 1020.4c24.916-.167 49.625 2.042 74.166 6.25 24.209 4.208 48.5 4.292 73 4.5-24.166 1.542-48.25 2-72.416 2.208 23.875 11.209 51.958 20.375 72.75 36.375 13.291 9.917 19.666 25.5 27.041 39.834 10.167 2.5 20.417 5 30.667 7.041-8.208-.5-16.458-.666-24.708-.541 5.541 36.875 15.416 73.125 22.333 109.791 5.958 32.042 11.792 64.292 15.458 96.667-2.583-7.583-5.5-15.042-8.416-22.542-1.75 38.875-15.917 71.542-9.667 108.625 8.458 60.417 10.875 121.209 17.625 181.792 3.208 65.458 10.208 132 9.083 197.333-.833 51.584-12.125 101.292-25.125 151.084-8.5 29.916-16.625 60.083-36.583 84.625-14.167 17.25-30.375 34.75-49.667 46.333-21 12.542-47.541 10.042-69.416 1.167-34.917-14.959-60.292-41.375-83.042-70.959-26.833-35.333-50.708-73.041-70.667-112.666-14.958-30-39.75-47.292-58.666-74.792-38.375-51.792-57.375-112.042-66.375-175.25-6.125-44.792-2.25-89.333 6.833-133.417 7.875-38.416 15.625-77.375 27.333-114.833 13.917-44.292 37.167-83.75 51-128.042 9.875-29.5 15.292-59.791 22.959-89.833 11.291-45.083 41.125-85.708 76.916-114.625 16.709-13.75 36.084-21.083 56.334-27.792-2.917-2.791-5.834-5.541-8.75-8.333Z" style="fill:#975f2f;fill-rule:nonzero"/>
  <path d="M472.134 1076.77c20.25 10.875 41 22.417 52.458 43.25 20.459 37 28.209 81.25 22.625 123.042-9.625-23.375-13.75-47.292-25.5-69.792-12.166-23.542-23.875-46.75-43.666-64.917-16.375-14.833-35.334-29.75-58.375-30.75-28.042-1.708-52.042 11.375-71.959 29.959-27.125 25.666-48.083 59.875-65.875 92.458-17.416 31.625-25.166 65.792-45.666 95.917 3.333-19.084 8.916-37.459 14.666-55.917 6.542-21 9.75-42.708 15.542-63.875 7.625-28.333 25.417-54.333 44.958-75.75 18.334-19.583 39.125-36.875 66.125-42.25 31.625-6.625 66.625 4.083 94.667 18.625Z" style="fill:#c38c51;fill-rule:nonzero"/>
  <path d="M545.551 1116.06c8.25-.125 16.5.041 24.708.541 75.292 14.834 150.833 20.75 227.083 28.417 30.25 3.75 56.792.333 84.709 13.583 26.958 12.75 53.166 24.584 82.958 29.209 12.5 1.958 25.125 2.791 37.792 2.833 43.041-.333 86.166-1.042 129.208 0 93.5 5.708 186.5 15.875 279.792 24.042 72.416 5.25 144.583 13.75 217 18.458 79.333 10.542 158.75 20.875 237.875 32.625 87.625 15.042 176.083 31.208 261.916 54.458 56.792 14.709 122.875 24.375 172.875 56.292 25.584 15.75 53.25 23 82.125 30.167 34.209 8.708 71.292 10.083 106.542 12.75 111.5 8.708 223.708 6.375 334.792-6.667 62.875-9.708 125.791-17.083 187.791-32.042 149.625-34.083 293.209-89.625 443.292-123.583 69.208-18.125 140.125-29.042 211.25-37.208 58.833-7.625 118.875-6.417 178.042-4.417-27.75 13.583-55.792 19.375-85.5 29-65.459 20.167-132.25 35.083-199.792 46.375-45.667 7.583-90.708 16.917-134.625 31.875-59.542 19.333-115.125 51.625-164.875 89.292-14.083 10.208-28 20.541-40.542 32.666 4.209.375 8.459.709 12.667 1.042-32.292 4.25-64.625 6.125-96.667 12.292-96.5 12.333-188.291 38.416-282.833 59.666-81.083 19.084-167.083 18.625-248.625 2.25-81.083-15.041-162.708-30.541-241.917-53.791-23.708-6.209-47.208-12.375-69.625-22.542-32.166-14.75-65.25-27.125-98.416-39.292-35.125-12.625-70.834-21.833-108.375-21.541-62.75-2.334-124.459 20.416-181.542 44.333-23.167 9.292-44.583 21.458-66.042 34-19.083 11.125-39.583 10.708-60.958 9.292-13.583-1.042-26.542-4.75-39.042-9.917-59.208-24.708-110.208-59.208-165.333-88.792-17.042-9.416-32.208-21.208-49.542-29.625-26.75-12.875-55.208-20.083-84.541-23.958-46.875-6.333-93.792-12-140.792-17.375-41.583-5-83.083-5.333-124.833-9-53-4.792-109.917-8.708-162.625 0-34.334 5.25-69.209 8.125-104 7.833-17.459.042-35.584-3.541-52.875-1.416-14.792 3.25-28.417 13.125-42.292 19.25-52.25 23.875-112.75 30.458-169.375 22.583-25.583-2.042-39.292-34.583-55.458-51.625-1.5 11.333-2.917 22.708-3.584 34.125-3.666-32.375-9.5-64.625-15.458-96.667-6.917-36.666-16.792-72.916-22.333-109.791Z" style="fill:#5e3b2c;fill-rule:nonzero"/>
  <path d="M431.759 1119.94c16.375 3.333 29.75 20.375 38.5 33.666 20.917 33.5 33.792 72.875 43.208 111 5.834 28.25 13.125 54.125-1.916 81.042-10.125-10.167-18.334-20.875-24.792-33.708-13.417-25.667-28.583-51.292-54.333-66.375-20.167-11.75-45.959-10.959-65.209 2.333-23.5 16.333-42.583 39.75-55.958 64.917-20 38.5-32.25 81.416-43.417 123.166-16.833 63.167-26.708 127.875-25.25 193.417-1.375 56.292 6.959 112.208 23.5 165.958 4.792 15.375 8.709 30.875 11.375 46.709-16.5-24.334-24.916-50.917-33.625-78.667-18.833-61.042-19.583-128.583-24.916-192.25-2.334-44-3.042-89.375 4.791-132.875 5.709-32.75 18.709-60.75 29.125-92 13.959-41.75 30.125-83.583 54.959-120.208 23.208-34.334 45.916-66.584 80.541-90.5 12-8.25 28.375-17.417 43.417-15.625Z" style="fill:#c28a50;fill-rule:nonzero"/>
  <path d="M1144.51 1184.48c43.833.042 86.917-1.833 129.667 2.792 38.458 3.917 77 7.167 115.5 10.792 80.208 9.125 159.375 23.083 239.125 35.083-72.417-4.708-144.584-13.208-217-18.458-93.292-8.167-186.292-18.334-279.792-24.042-43.042-1.042-86.167-.333-129.208 0-12.667-.042-25.292-.875-37.792-2.833 60.375 4.583 119.292-3.875 179.5-3.334Z" style="fill:#975f30;fill-rule:nonzero"/>
  <path d="M3925.26 1231.69c4.167 10.75 8.542 21.416 12.625 32.208-33.917 9.833-66.167 7.667-101.625 11.583-27.417 2.125-51.833 8.875-79.417 3.5 15.5-6.041 31.417-10.583 47.417-15 24.75-6.75 47.583-17 72.833-22.208 16.042-3.333 32.167-6.375 48.167-10.083Z" style="fill:#5b382b;fill-rule:nonzero"/>
  <path d="M413.759 1272.15c21.708 8.125 37.458 28.708 47.542 48.792 15.958 32 25.375 68.916 34.125 103.5 13.5 52.125 21.75 105.625 27.5 159.083 5.583 48.958 2.541 96 3.958 145.875.208 45.292 1.625 92.875-5.875 137.5-4.708 32.042-8.75 68.75-25 97.333-11.208 19.25-30.375 38.584-53.042 42.667-19.25 3.125-40.791 1.708-56.5-11.083-21.125-17.125-35.25-42.167-45.875-66.792 14.542 4.375 30 10.708 45.209 11.583 18.791.459 34.791-9.25 46.583-23.291 18.583-22.459 34.25-49.375 44.208-76.792 16.917-48.333 21.75-97.667 21.25-148.625 1.209-70.25-2.916-138.708-21.416-206.792-8.292-27.5-20.334-59.25-41.792-79.25-12.958-12.25-29.917-19.291-47.667-13.708-16.541 5.583-30.666 20.75-42.208 33.375-23.042 24.875-32.875 60.042-41.083 92.208-9.042 42.834-12.709 87.334-8.292 131 2.5 26 4.917 53.959 20.583 75.917 11.334 16.208 31.375 28.708 51.709 23.708 13.416-5.541 24.5-17.916 35.708-27.041-4.333 24.416-9.75 50.5-26.208 69.916-7.459 8.584-19.584 16.959-31.417 12.584-17-6.292-28.5-24.417-35.125-40.459-9.917-24.958-16.292-51.416-21.792-77.625-6.916-33.041-5.333-64.458-5.375-98.041-.25-40.959 8.584-79.584 14.084-121.417 7.333-46.333 15.666-98.958 39.75-139.833 10.083-17.417 22.708-36.542 39.875-47.667 11.166-7 23.583-11.708 36.583-6.625Z" style="fill:#c28a50;fill-rule:nonzero"/>
  <path d="M586.926 1288.4c16.166 17.042 29.875 49.583 55.458 51.625 56.625 7.875 117.125 1.292 169.375-22.583 13.875-6.125 27.5-16 42.292-19.25 17.291-2.125 35.416 1.458 52.875 1.416 34.791.292 69.666-2.583 104-7.833 52.708-8.708 109.625-4.792 162.625 0 41.75 3.667 83.25 4 124.833 9 47 5.375 93.917 11.042 140.792 17.375 29.333 3.875 57.791 11.083 84.541 23.958 17.334 8.417 32.5 20.209 49.542 29.625 55.125 29.584 106.125 64.084 165.333 88.792 12.5 5.167 25.459 8.875 39.042 9.917 21.375 1.416 41.875 1.833 60.958-9.292 21.459-12.542 42.875-24.708 66.042-34 57.083-23.917 118.792-46.667 181.542-44.333 37.541-.292 73.25 8.916 108.375 21.541 33.166 12.167 66.25 24.542 98.416 39.292 22.417 10.167 45.917 16.333 69.625 22.542 79.209 23.25 160.834 38.75 241.917 53.791 81.542 16.375 167.542 16.834 248.625-2.25 94.542-21.25 186.333-47.333 282.833-59.666 32.042-6.167 64.375-8.042 96.667-12.292 11.958-1.542 23.792-3.917 35.583-6.542 45.917-8.958 92.917-14.5 139.209-21.916 78.916-11.75 157.5-26.042 235.416-43.209 45.917-9.5 91.917-18.166 137.459-29.458 25.5-6.667 51.416-7.875 76.5-16.167 30.75-10.25 62.208-16.791 93.5-25.041 1.583 5.333 3.166 10.666 4.666 16-100.083 36.5-200.625 57.208-304.541 78.75-98.459 21.5-197.75 38.583-297.584 52.333-30.083 4.292-60.291 10.417-90.458 14-26.208 3.333-50.583.625-75.625 11-2.917.917-5.875 1.833-8.792 2.708-76.458 7.834-151.541 22.959-225.958 41.959-58.375 13.541-113.458 30.75-173.583 35.583-67.042 8.042-131.167-.667-197-13.083-65.334-12.667-131.042-24.917-195.25-42.5-16.167-4.209-32.584-6.417-48.875-9.834-23.125-4.791-44.209-15.333-67.417-20.083-42.583-9-86-13.583-129.542-12.917-56.541-.958-112.666 3.542-167.75 16.584-36.375 8.166-71.791 19.416-107.208 30.875-20.375 6.666-41.333 9.666-62.583 11.583-25.25 2.208-49.542 7.875-74.834 8.917-38.416 1.625-76.291-1.417-114.375-6.292-92.125-11.25-184.666-18.708-277.5-20.167-48.541-3.791-96.75-.541-145.208 2.5-71.875 6.334-143.917 20.542-214.75 34.209-25.583 5.041-51.458 6.333-77.458 6.125-34.792-.25-69.125 1.125-103.667 5.458-22 2.75-41.875 10.167-63.292 15.125-31.125 7.125-62.75 12-93.958 18.792-8.208 2.208-20.042 5-24.875 12.666-2.208 10.084-2 20.834-2.417 31.125-8.25-41.625-3.625-82.75-7.5-124.666-3.125-59.667-16.791-117.875-19.625-177.667.667-11.417 2.084-22.792 3.584-34.125Z" style="fill:#4b3229;fill-rule:nonzero"/>
  <path d="M231.967 1304.65c-7.75 27.542-18.333 54.083-26.625 81.458-19.083 61.625-31.25 124.334-29.458 189.125-1.75 57.459 6.375 114.792 24.208 169.459 6.875 19.791 14.542 39.125 19.042 59.666-21.458-24.416-34.958-56.708-45.333-87.208-11.209-38.792-20.834-80.667-19.542-121.208.458-54.917 14.042-106.709 26-160.417 10.417-46.208 28.917-89.542 51.708-130.875Z" style="fill:#c48d52;fill-rule:nonzero"/>
  <path d="M3860.8 1309.52c-7.959 6.542-15.917 13.042-23.834 19.542 6.625-.125 13.209-.25 19.834-.584-25.084 8.292-51 9.5-76.5 16.167-45.542 11.292-91.542 19.958-137.459 29.458-77.916 17.167-156.5 31.459-235.416 43.209-46.292 7.416-93.292 12.958-139.209 21.916 36.084-19.625 70.042-44.25 107.792-61.416 13.875-6.334 32.667-.667 47.625-.584 44.708 3.042 82.625-10.625 124.292-23.833 50.291-15.792 100.458-23.667 151.916-34.875 34.667-7.792 67.75-3.292 102.625-6.208 19.459-1.5 38.834-2.417 58.334-2.792Z" style="fill:#5e3b2c;fill-rule:nonzero"/>
  <path d="M3954.97 1319.44c1.542 5.375 3.042 10.791 4.5 16.208-38.541 8.208-75.583 20.542-113.875 32.292-49.958 15.833-100.791 28.833-150.583 45.208-85.5 28.25-170.75 57.167-256.042 86.167-23.791 8.916-46.625 18.958-71.916 23.333-47.459 8.583-95.292 15.875-143.375 19.75-34.584 2.917-70.625 1.042-105.459 1.208-27.5-.041-54.375 5.875-81.916 6-39.042.167-77.875 2.917-116.834 4.667-123.875 6.792-241.291 30.708-362.458 54.5-25.875 5.667-54.625 6.458-79.083 16.708-11.375 4.667-16.417 13.917-22.5 23.834 29.791 1.041 59.291-3.334 89.083-2.584 30.542.625 61.042 2.834 91.5 4.834 70.625 5.791 142.583 21.083 212.667 32.041 19.291 2.917 38.791 4.5 58.375 4.375 39.833.125 80.75-11.083 120.791-17.041 106.25-18.792 214.5-16.792 320.834.125 28.625 4.708 56.916 9.083 85 15.208 16.208 3.417 31.583 6.708 48.25 5.75 19.041-1.125 38.166-5.958 56.791-10.083 32.709-7.75 65.834-15.959 97.417-27.667 23-9.208 45.583-16.708 70.75-15.792 58.625 1.084 116.833-3.583 175.333-5.708 23.917-1.333 45.084-8.375 68.834-13.792 13.75-3 26.416-8.5 38.75-15.166 1.041-15.292 2.333-30.834 2.458-46.167 1.5 38.458 1.125 76.958-.042 115.417-28-3.375-57.125-8.917-85.208-8.584-51.75 1.959-102.917 8.167-153.625 18.667-67.583 11.417-134.167 32.667-200.833 48.833-65.292 14.542-131.584 22.25-198.417 25.125-71.667 6.709-141.625.834-213.042-5-47.75-4.75-95.416-13.833-142.666-22.083-76.709-14.25-153.667-27.917-231.084-37.542-41.958-5.916-84.625-11.541-127-11.458-43.083-.5-86.083-1.5-129.166-.417-30.959.875-62.292-.333-93.084 2.459-101.583 9.041-200.541 18.833-300.541 38.666-108.834 18.584-213.625 57.042-325.042 72.542-53.667 9.417-107.708 13.5-161.917 17.958-36 3.834-70.583 2.209-106.916 2.625-29.417.459-58.292-3.291-87.542-5.708-38.625-3.5-77.083-7.833-115.333-14.417-71.667-10.375-143.209-21.333-214.417-34.833-82.333-12.625-163.042-31.958-244.75-48.375-29.042-5.833-57.583-11.333-85.167-22.5-30.5-12.542-62.208-17.667-91.583-33.417-24.083-13-48.083-23.125-74.417-30.75.417-10.291.209-21.041 2.417-31.125 4.833-7.666 16.667-10.458 24.875-12.666 31.208-6.792 62.833-11.667 93.958-18.792 21.417-4.958 41.292-12.375 63.292-15.125 34.542-4.333 68.875-5.708 103.667-5.458 26 .208 51.875-1.084 77.458-6.125 70.833-13.667 142.875-27.875 214.75-34.209 48.458-3.041 96.667-6.291 145.208-2.5 92.834 1.459 185.375 8.917 277.5 20.167 38.084 4.875 75.959 7.917 114.375 6.292 25.292-1.042 49.584-6.709 74.834-8.917 21.25-1.917 42.208-4.917 62.583-11.583 35.417-11.459 70.833-22.709 107.208-30.875 55.084-13.042 111.209-17.542 167.75-16.584 43.542-.666 86.959 3.917 129.542 12.917 23.208 4.75 44.292 15.292 67.417 20.083 16.291 3.417 32.708 5.625 48.875 9.834 64.208 17.583 129.916 29.833 195.25 42.5 65.833 12.416 129.958 21.125 197 13.083 60.125-4.833 115.208-22.042 173.583-35.583 74.417-19 149.5-34.125 225.958-41.959-14.208 23.542-35.958 40.209-50.416 63.667 12.5-.708 22.875 0 32.083-9.875 21.583-21.5 44.958-40.792 67.5-61.25-13.5 1.167-27.083 2.292-40.375 4.75 25.042-10.375 49.417-7.667 75.625-11 30.167-3.583 60.375-9.708 90.458-14 99.834-13.75 199.125-30.833 297.584-52.333 103.916-21.542 204.458-42.25 304.541-78.75Z" style="fill:#5e3b2c;fill-rule:nonzero"/>
  <path d="M3959.47 1335.65c18.834 72.375 29.417 147.292 32.792 222-.125 15.333-1.417 30.875-2.458 46.167-12.334 6.666-25 12.166-38.75 15.166-23.75 5.417-44.917 12.459-68.834 13.792-58.5 2.125-116.708 6.792-175.333 5.708-25.167-.916-47.75 6.584-70.75 15.792-31.583 11.708-64.708 19.917-97.417 27.667-18.625 4.125-37.75 8.958-56.791 10.083-16.667.958-32.042-2.333-48.25-5.75-28.084-6.125-56.375-10.5-85-15.208-106.334-16.917-214.584-18.917-320.834-.125-40.041 5.958-80.958 17.166-120.791 17.041-19.584.125-39.084-1.458-58.375-4.375-70.084-10.958-142.042-26.25-212.667-32.041-30.458-2-60.958-4.209-91.5-4.834-29.792-.75-59.292 3.625-89.083 2.584 6.083-9.917 11.125-19.167 22.5-23.834 24.458-10.25 53.208-11.041 79.083-16.708 121.167-23.792 238.583-47.708 362.458-54.5 38.959-1.75 77.792-4.5 116.834-4.667 27.541-.125 54.416-6.041 81.916-6 34.834-.166 70.875 1.709 105.459-1.208 48.083-3.875 95.916-11.167 143.375-19.75 25.291-4.375 48.125-14.417 71.916-23.333 85.292-29 170.542-57.917 256.042-86.167 49.792-16.375 100.625-29.375 150.583-45.208 38.292-11.75 75.334-24.084 113.875-32.292Z" style="fill:#493732;fill-rule:nonzero"/>
  <path d="M1497.59 1380.73c18.375-1.083 35.5-2 52.834 5.542 22.166 9.833 42.416 24.25 63.375 36.458 21.708 13.292 44.125 24.625 64.333 40.292-39.125-2-79.083-14.625-113.625-32.833-23.208-14.542-48.167-29.292-66.917-49.459Z" style="fill:#5e3b2c;fill-rule:nonzero"/>
  <path d="M2056.84 1408.77c44.709-3.083 93.959 2.417 134.292 23.083-90.375-4.25-178.833 1.042-265.708 28.125-29.125 8.5-55.667 21.25-85.5 27.209 23.916-18.584 54.541-30.5 82.416-42.25 43.125-15.875 88.417-33.625 134.5-36.167Z" style="fill:#5f3b2c;fill-rule:nonzero"/>
  <path d="M409.592 1418.02c14.292 6.208 24.459 22.542 31.167 35.958 14.75 31.167 22.625 66.25 25.917 100.417 3.541 37.667 8.958 74.542 8.791 112.5-.375 25.875 2.959 48.875-5.416 73.875-9.292-28.833-4.25-56.5-9.459-85.917-6.916-40.166-17.041-79.5-32.333-117.333-7.083-17-12-37.333-23.333-52-5.334-6.833-19.125-12.583-26.209-5.333-8.833 8.375-12.916 22.583-16.291 33.958-7.834 30.542-14.75 59.917-11.375 91.667 4.833 2.416 9.666 4.833 14.541 7.166 8.75-34.125 7.459-72.75 27.209-101.5 7.416 23.459 11.958 47.5 14.625 71.917 4 34.583-5.125 71.25-18.417 103.083-6.25 13.584-17.292 32.625-32.708 36.875-11.709-.083-21.959-11-26.292-21.125-8.667-19.791-11.458-42.958-12.292-64.416-.791-41.209-1.25-80.875 10.125-120.875 8-33.917 22.625-65.125 47.917-89.584 9.167-8.291 21.5-14.375 33.833-9.333Z" style="fill:#c28b50;fill-rule:nonzero"/>
  <path d="M3227.13 1470.77c-22.542 20.458-45.917 39.75-67.5 61.25-9.208 9.875-19.583 9.167-32.083 9.875 14.458-23.458 36.208-40.125 50.416-63.667 2.917-.875 5.875-1.791 8.792-2.708 13.292-2.458 26.875-3.583 40.375-4.75Z" style="fill:#bb854d;fill-rule:nonzero"/>
  <path d="M554.884 1558.4c3 16.625 4.708 33.167 5.375 50.042 2.958 73.083 12.083 141.125 6.625 215.333-.292 6.417-4.083 10.25-7.792 15.042-9.958-45.917-3.666-95.875-6.541-142.792-1.042-45.125-6.792-93.208 2.333-137.625Z" style="fill:#be874e;fill-rule:nonzero"/>
  <path d="M610.842 1647.56c24.834 9.916 47.125 24.458 71.709 35.125 36.291 16.791 74.541 24.708 112.625 37.791 71.416 19.167 144.875 30.792 216.708 48.125-34.208 13.417-67.542 12.917-103.417 21.917-62.083 15.417-120.041 31.542-184.875 29.417-26.416-.25-51.25-2.167-74.5-15.917-14.166-8.5-29.208-18.833-38.833-32.458-7.208-11.5-4.875-29.125-5.042-42.209 1.25-27 .417-55.208 5.625-81.791Z" style="fill:#5e3b2c;fill-rule:nonzero"/>
  <path d="M439.217 1670.19c7.125 24.375 5.917 47.791 8 72.75 1.584 20.75 4.125 40.125 1 60.958-3.125 20-8.458 40.083-16.333 58.75-5.5 12.458-12.708 23.417-26.25 27.958-24.417 8.042-48.958-1.666-68.667-16.125-30.25-21.625-45.041-59.125-47.583-95.25 15.292 17.834 27.625 41.75 50.042 50.959 19.541 8.75 41.291 2.291 55.75-12.625 19.958-19.834 28.333-52.084 33.25-78.959 4.625-23.541 2.083-47.125 10.791-68.416Z" style="fill:#c28b50;fill-rule:nonzero"/>
  <path d="M3902.84 1686.52c27.75-1.208 54.459 3.458 81.459 9.292-21.334 25.208-48.459 43.208-77.542 58.291-28.667 14.417-62.917 21.042-94.333 26.625-104.209 18.667-209.75 21.917-313.25 49-66.834 18.417-133.292 39.959-195.042 71.792-59 31.542-113.375 71.708-164.25 114.917-26.75 21.75-51.75 45.333-75.667 70.166-23.625 24.75-50.916 46.292-78.041 67.875-12.417 10.042-26.792 14.292-42.584 15.5-128.041 12.75-264.458-16.458-393.166-5.208-35.917 3.375-72.292 9.458-107.417 17.792-52.792 13.916-104.417 35.25-153.958 58.125-27.917 12.5-48.5 29.958-78.584 37.125-64.583-8.459-128.291-10.875-193.375-8.792-33.25-13.083-67.708-17.625-102.958-21.417-32.083-3.666-61.958-13.583-94.5-14.291-61.125-1.709-122.417-.167-183.583-.667-30.5-.458-61.084-4-91.417-7.083-34.667-3.625-67.625-13.125-100.167-25.25-33.333-12.167-62.75-31.334-95.208-45.625 25.75 3.833 54.542-4.084 80.375-7.292 162.542-22.458 325.083-47.625 486-80.167 12.958-2.5 26.125-4.208 39-7.166 21.625-4.625 38.417-18.792 60.458-22.792 33.625-6.625 67.875-10.708 101.959-14.375 54.125-6.5 110.375-4.5 164.958-4.458 92.167-.042 177.875 14.458 270.667 6.25 52.375-5.042 103.875-17.542 151.958-39.209 59.5-26.666 116.917-60.791 177.5-85.416 72.875-29.875 147.5-54.667 223.042-76.75 62.916-20.084 122.375-38.625 189.333-40.25 21.25-.167 42.25-1.084 63.417-3.25 52.125-1.75 103.458-8.709 154.875-17.042 78-14.042 152.416-40.792 230.291-55.292 52.417-12.333 106-18.708 159.75-20.958Z" style="fill:#5e3b2c;fill-rule:nonzero"/>
  <path d="m3984.3 1695.81 7.208.125c-1.417 20.541-2.708 41.041-3.458 61.625-11 .041-21.417.083-31.709 4.583-30.583 12.917-53.458 38.167-80.25 57.208-39.291 29.375-88.875 45.875-135.25 60.5-68.75 20.459-138.208 38.417-208.041 54.625-49.959 11.542-99.209 23.167-147.917 39.375-45 14.584-88.667 32.375-131.75 51.875-44.333 20.084-81.75 46.334-123.583 72.042-24.75 16.208-50 28.833-72.417 48.417 26.292-3.667 51.042-12 76.375-19.417 55.542-16 110.167-35.25 165.583-51.583 27.584-7.042 54.834-9 80.334-23.084 99.208-49.166 205.375-64.916 315.041-67.625 65.709-1.416 130-3.416 190.917-31.125 16.583-7.583 25.292-21.375 34-36.583 14.125-25.583 30.375-48.167 41.208-75.458 6.792-17.375 14.584-33.25 24.084-49.334-.584 14.834-.792 29.667-2.167 44.459-3.708 39.791-3.667 80.541-10.5 119.958-10.875 48.583-24 96.667-38.125 144.417-23 5.833-44.458 13.166-67.917 17.083-53.541 9.25-107.625 5.417-162.083 11.833-18 .125-36-.75-54.042-.291-15.333-.167-30.666-1.167-45.916-.375-16.209.375-32.125 2.166-47.459 7.833-51.208 18.542-102.583 36.917-154.041 54.792-80.375 30.041-161.417 58.25-242.375 86.75-41.125 14.958-82.834 28.333-124.584 41.541-11.791 3.834-22.916 9-34.291 13.875-37.792-.5-74-6.458-112.167-11.458-71.583-9.917-135.917-31.708-207.542-37.583-52.583-5-105.125 1.833-156.5 12.666-32.833 6.875-63.958 4.125-97.125 4.584-16.833.041-33.958.375-50.75-.667-55.458-8.333-110.875-17.083-166.625-23.583 30.084-7.167 50.667-24.625 78.584-37.125 49.541-22.875 101.166-44.209 153.958-58.125 35.125-8.334 71.5-14.417 107.417-17.792 128.708-11.25 265.125 17.958 393.166 5.208 15.792-1.208 30.167-5.458 42.584-15.5 27.125-21.583 54.416-43.125 78.041-67.875 23.917-24.833 48.917-48.416 75.667-70.166 50.875-43.209 105.25-83.375 164.25-114.917 61.75-31.833 128.208-53.375 195.042-71.792 103.5-27.083 209.041-30.333 313.25-49 31.416-5.583 65.666-12.208 94.333-26.625 29.083-15.083 56.208-33.083 77.542-58.291Z" style="fill:#713a45;fill-rule:nonzero"/>
  <path d="M3988.05 1757.56c-.709 11.5-2 22.958-3.375 34.416-9.5 16.084-17.292 31.959-24.084 49.334-10.833 27.291-27.083 49.875-41.208 75.458-8.708 15.208-17.417 29-34 36.583-60.917 27.709-125.208 29.709-190.917 31.125-109.666 2.709-215.833 18.459-315.041 67.625-25.5 14.084-52.75 16.042-80.334 23.084-55.416 16.333-110.041 35.583-165.583 51.583-25.333 7.417-50.083 15.75-76.375 19.417 22.417-19.584 47.667-32.209 72.417-48.417 41.833-25.708 79.25-51.958 123.583-72.042 43.083-19.5 86.75-37.291 131.75-51.875 48.708-16.208 97.958-27.833 147.917-39.375 69.833-16.208 139.291-34.166 208.041-54.625 46.375-14.625 95.959-31.125 135.25-60.5 26.792-19.041 49.667-44.291 80.25-57.208 10.292-4.5 20.709-4.542 31.709-4.583Z" style="fill:#5e3b2c;fill-rule:nonzero"/>
  <path d="M3106.38 1770.86c19.625 1.417 39.167 2.875 58.75 4.875 26.167 2.625 49-6.375 75.375-5.208 21.458.958 40.583 9.583 62.208 10.208 18.375.5 36.834-.375 55.209-.916-21.167 2.166-42.167 3.083-63.417 3.25-66.958 1.625-126.417 20.166-189.333 40.25-75.542 22.083-150.167 46.875-223.042 76.75-60.583 24.625-118 58.75-177.5 85.416-48.083 21.667-99.583 34.167-151.958 39.209-92.792 8.208-178.5-6.292-270.667-6.25-54.583-.042-110.833-2.042-164.958 4.458-34.084 3.667-68.334 7.75-101.959 14.375-22.041 4-38.833 18.167-60.458 22.792-12.875 2.958-26.042 4.666-39 7.166-160.917 32.542-323.458 57.709-486 80.167-25.833 3.208-54.625 11.125-80.375 7.292-4.917-2.459-9.625-5.292-14.25-8.292-.417-2.917-.875-5.875-1.292-8.792 165-24.5 330.167-47.666 494.209-78.416 34.791-6.834 70.541-11.5 104.333-21.125 29.75-8.417 59.542-16.25 89.708-23 110.834-23.459 218.375-20.292 330.75-17.209 25.084 1.667 49.875 5.209 75.125 5.167 40.125.208 80.625 2.125 120.709-.708 57-5.667 112.958-20.792 164.541-45.959 57.334-28.041 111.917-58.458 171.792-82.416 64.167-25.25 129.292-48 195.583-67.084 28.709-9.375 57.917-14.833 85.625-26.416-19.791-4.167-39.75-6.834-59.708-9.584Z" style="fill:#9b6131;fill-rule:nonzero"/>
  <path d="M3824.72 1810.56c-14 9.166-28.291 16.25-44.208 21.5-104.208 36.208-215.292 60.25-322.417 86.416-76.125 18.834-149.5 46.209-220.708 78.875-23.25 10.75-44.542 25-67.833 35.75 9.416-9.958 19.291-19.375 30.375-27.458 49.041-35.5 96.875-68.917 152.875-92.958 43.916-18.75 89.5-34.042 135.333-47.375 85.542-24.459 169.458-31.209 257.083-43.042 26.625-3.417 52.75-9.208 79.5-11.708Z" style="fill:#5e3b2c;fill-rule:nonzero"/>
  <path d="M817.176 1927.9c42.458 7.25 81.583 23.25 119.75 42.792 26.833 13.833 54.291 17.541 82.958 25.333 46.625 12.292 92.375 28 137.167 45.792 46.875 18.5 85.5 45.291 129.333 70.625 17.333 9.791 32.833 21.958 48.625 33.958 4.625 3 9.333 5.833 14.25 8.292 32.458 14.291 61.875 33.458 95.208 45.625 32.542 12.125 65.5 21.625 100.167 25.25 30.333 3.083 60.917 6.625 91.417 7.083 61.166.5 122.458-1.042 183.583.667 32.542.708 62.417 10.625 94.5 14.291 35.25 3.792 69.708 8.334 102.958 21.417-42.291 1-84.375 5.5-126.75 5.375-47.708-.333-93.916-2.333-141.666 1.333-52.625 1.375-105.75.5-158.292 4.625-51.083 1.709-102.125 6.542-153.125 10-24.917-4.75-49.875-6.875-75.083-9.125-39.292-5-79.042-11.75-116.75-24.208-29.292-9.667-55.792-25.292-79.667-44.667-17.958-14.583-29.833-33.041-46.583-49.208-13.459-13.042-25.792-27.042-37.959-41.292-30.416-34.833-64.958-61.958-100.333-91.333-13.708-11.167-27.083-21.375-44.042-27.208-19.916-6.917-42.041-9.334-62.875-12.542-70.5-10.75-141-15.333-212.25-9.958-19.5 1.958-38.958 3.166-58.541 2.666.916-13.416-2.209-34.25 11.041-42.625 20.084-13.416 48.292-16.541 71.709-20.208 44.916-6.625 86.916.125 131.25 7.25Z" style="fill:#4b322a;fill-rule:nonzero"/>
  <path d="M482.217 2021.86c-8.583 10.834-15.541 20.875-30.541 22.459-5.5.208-17.292-.125-13.667-8.542 13.417-7.208 29.458-10.625 44.208-13.917Z" style="fill:#bc844b;fill-rule:nonzero"/>
  <path d="M1011.3 2021.31c30.541 5.625 60.291 16.875 89.75 26.583 65.208 22.375 124.833 56.042 181.708 94.583-19.417 3.292-38.708 7.25-58.292 9.375-25.458 3.459-49.25 2.792-73.333 13.167-28.583-30.458-53.917-65.833-85.083-94.625-18.167-17.125-38.125-30.208-54.75-49.083Z" style="fill:#5e3b2c;fill-rule:nonzero"/>
  <path d="M3933.88 2100.81c-10 34.333-20.792 68.458-31.167 102.708-3.25 8.125-3.833 17.333-13.416 20.292-30.917 12.375-62.417 23.083-94.834 30.666-91.416 22.292-183.041 44.042-275.333 62.542-41.583 8.125-82.208 17.083-124.708 19.583-51.5 3.709-101.584 16-153.042 20.084-16.042.833-32.083-.334-48-2.5 23.083-7.167 47.083-7.834 70.375-13.959 65.125-16.083 128.167-46.666 185.5-81.125 33-19.666 65.917-38.791 97.25-61.125 16.417-11.708 33.333-22.333 51.25-31.625 36.875-8.416 70.875-23.458 106.125-36.625 54.458-6.416 108.542-2.583 162.083-11.833 23.459-3.917 44.917-11.25 67.917-17.083Z" style="fill:#602716;fill-rule:nonzero"/>
  <path d="M3603.93 2129.06c-28.917 22.041-59.417 41.708-89.834 61.625-17 11.041-32.791 22.666-51.125 31.583-20.791-.583-35.25 10.333-54.5 17.25-38.208 14.792-76.333 29.75-114.875 43.625-26.75 9.708-52.375 20.458-79.875 28.125-16.666 4.583-33.041 9.792-48.708 17.167 4.583.708 9.167 1.333 13.708 1.875-58.458 8.416-118.875 11.5-177.541 3.541 11.375-4.875 22.5-10.041 34.291-13.875 41.75-13.208 83.459-26.583 124.584-41.541 80.958-28.5 162-56.709 242.375-86.75 51.458-17.875 102.833-36.25 154.041-54.792 15.334-5.667 31.25-7.458 47.459-7.833Z" style="fill:#5e3b2c;fill-rule:nonzero"/>
  <path d="M3603.93 2129.06c15.25-.792 30.583.208 45.916.375-17.833 11.583-34.666 24.791-52.083 36.916-17.917 9.292-34.833 19.917-51.25 31.625-31.333 22.334-64.25 41.459-97.25 61.125-57.333 34.459-120.375 65.042-185.5 81.125-23.292 6.125-47.292 6.792-70.375 13.959 15.917 2.166 31.958 3.333 48 2.5-37.708 4.75-75.25 2.458-112.792-2.417-58.958-6.583-118.041-12-177.041-18.125-115.917-11.042-232.459-25.083-348.709-31.458-42.875-3.375-86.208-1.459-129.166-1.834-31.917-.333-64.959 2.417-96.584-1.458 16.792 1.042 33.917.708 50.75.667 33.167-.459 64.292 2.291 97.125-4.584 51.375-10.833 103.917-17.666 156.5-12.666 71.625 5.875 135.959 27.666 207.542 37.583 38.167 5 74.375 10.958 112.167 11.458 58.666 7.959 119.083 4.875 177.541-3.541 54.5-6.834 109.209-17.625 159.459-40.542 42.916-19.542 85.75-40.917 124.791-67.5 18.334-8.917 34.125-20.542 51.125-31.583 30.417-19.917 60.917-39.584 89.834-61.625Z" style="fill:#9b6331;fill-rule:nonzero"/>
  <path d="M3649.84 2129.44c18.042-.459 36.042.416 54.042.291-35.25 13.167-69.25 28.209-106.125 36.625 17.417-12.125 34.25-25.333 52.083-36.916Z" style="fill:#58382d;fill-rule:nonzero"/>
  <path d="M1282.76 2142.48c10.375 5.625 20.375 11.792 30.375 18-13.25 4-26.417 7.917-40.25 9.459-34.167 3.916-68.125 9.333-102.333 13a359.269 359.269 0 0 1-19.417-17.917c24.083-10.375 47.875-9.708 73.333-13.167 19.584-2.125 38.875-6.083 58.292-9.375Z" style="fill:#9b6231;fill-rule:nonzero"/>
  <path d="M1313.13 2160.48c52.917 35.334 111.583 64.25 172.958 81.292 28.167 8.208 57.292 7.292 85.167 16.417-28.583 7.375-55.958 4.875-85.083 5.333-40.709.583-82.167-3.208-122.709-7.75-47.166-6.458-93.25-13.292-136.875-33.417-20.75-9.541-38.416-25-56.041-39.416 34.208-3.667 68.166-9.084 102.333-13 13.833-1.542 27-5.459 40.25-9.459Z" style="fill:#5e3b2c;fill-rule:nonzero"/>
  <path d="M644.509 2164.11c23.25 14.709 49.208 19.375 76.25 21.125 50.917 2.959 102.167 1.959 153.083.709 63.959-3.625 127.709-6.709 191.25-15.334 17.042-1.583 36.042-6 52.917-2.625 6.333 4.417 11.583 10.792 16.833 16.459-45.458 10.333-93.125 9.333-139.333 16-50.375 2.875-100.542 7.416-151 7-57.25.208-118.75 3.083-174.083-12.459-12.25-3.291-20.959-10.875-30.959-18.125 1.625-4.25 3.334-8.5 5.042-12.75Z" style="fill:#9c6231;fill-rule:nonzero"/>
  <path d="M3462.97 2222.27c-39.041 26.583-81.875 47.958-124.791 67.5-50.25 22.917-104.959 33.708-159.459 40.542-4.541-.542-9.125-1.167-13.708-1.875 15.667-7.375 32.042-12.584 48.708-17.167 27.5-7.667 53.125-18.417 79.875-28.125 38.542-13.875 76.667-28.833 114.875-43.625 19.25-6.917 33.709-17.833 54.5-17.25Z" style="fill:#5c2313;fill-rule:nonzero"/>
</svg>
