<svg xmlns="http://www.w3.org/2000/svg" xml:space="preserve" style="fill-rule:evenodd;clip-rule:evenodd;stroke-linecap:round;stroke-linejoin:round;stroke-miterlimit:1.5" viewBox="0 0 3459 3955">
  <path d="M0 0h3458.82v3954H0z" style="fill:none"/>
  <path d="m1131.5 2271.64-128.192-244.26s63.892-57.406 47.961-129.318c-15.93-71.912-31.213-95.95-22.195-116.693 9.018-20.742 59.9-159.482 11.407-220.343-48.492-60.862-82.14-98.386-82.14-98.386s62.787-73.983 25.533-130.207c-37.254-56.223-76.888-99.096-145.328-112.044-68.439-12.948-109.324-13.718-109.324-13.718l-68.99 4.628s-96.582-224.773-93.586-217.728" style="fill:none;stroke:#fff;stroke-width:29.17px"/>
  <path d="M1733.97 55.606c124.166-4.333 247.5 2.625 371.041 14.75 72.542 7.209 143.584 21.709 214.417 38.584 31.458 7.333 59.542 20.333 88.75 33.625 21.167 9.708 39.542 23.125 58.042 37.083 29.875 22.792 59.541 46.042 88.25 70.292 34.208 28.75 61.458 61.75 91.791 95.458 36.792 41.833 59.125 89.292 90.292 134.875 8.333 11.792 15.458 30.5 28.542 37.458 22.958 6.834 37.791-8.208 56.583-18 38-20.208 81.75-32.083 124.917-31.875 22.083-.041 45.958-.708 67.25 5.584 47.708 12.958 91.208 44.25 121.208 83.291 16.375 27.167 25 59.292 37.083 88.584 17.709 44.375 14.459 86.541 15.084 133.208-.375 19.958.416 38.375-5.584 57.625-5.416 18.458-17.5 33.208-30.125 47.25-20.541 22.5-43.25 42.833-64.375 64.792-12.666 13.291-27.583 22.791-42.125 33.708-10.958 29.792-2.958 59.333 6.042 88.333 18.25 53.917 45.125 106.375 72.583 156.209 30.75 55 69.375 104.375 111.375 151.166 12 15.25 27.667 27.667 38.75 43.375 1.209 12.125-3.416 25.542-6.5 37.125-9.208 33.25-24.791 62.375-40.375 93.084-29.458 54.75-64.541 106.833-99.083 158.5-18.042 27.541-40.583 50.75-62.75 74.833-45.083 46.833-87.75 95.167-135.542 139.333-48.666 43.25-99.375 83.959-148.958 126.084-35.625 31.416-71.917 61.916-109.958 90.375-12.292 8.625-18.75 25.833-13.167 40 8.542 14.5 20.125 27.208 29.75 41.041 18.417 23.875 30.5 51.209 51.292 73.375 6.041-14.166 12.25-28.041 21.208-40.666 24.208-34.709 52.833-66.875 82.167-97.292 7.083-7.167 13.833-13.75 23.833-16.542 23.875-7.041 51.792-4.75 76.75-5.333 25.167-1.125 51.042 10.75 74.333 19.458 37.917 14.459 73.417 32.459 106.75 55.542 49.167 34 95.667 69.458 135.917 114 32.208 32.25 62 66.542 87.542 104.417 15.541 25.416 25.541 54.458 36.583 82.041 8.542 21.125 6.875 41.792 7.167 64-.125 15.667.375 30.292-3.709 45.5-10.083 42.709-29 81.959-49.416 120.625-35.084 63.875-72.667 126.417-111.792 187.875-19.125 28.834-35.917 56.709-60.25 81.584-49.833 51.375-105.875 97.291-159.375 144.791-33.5 29.792-69.833 55.459-106.458 81.084-46.209 32.833-96.167 60.625-146.959 85.541-62.958 27.125-127.916 42.584-188.375 79.709.875 8.791.667 16.791 6.209 24.208 23.541 35.5 54.875 67.958 81.416 101.917 22.75 28.875 44.709 58.666 64.834 89.416 17.416 27.667 14.166 55.75 14.125 86.959-.292 18.333-6.834 37.208-13.5 54.166-7.167 18.875-24.667 34.542-38.125 49.417-21.625 21.125-43.042 42.417-72.292 52.083-35.167 11.834-73.292 22.167-110.375 13.25-33.958-4.458-60.5-29-82.25-53.666-24.083-30.667-46.375-63.042-64.833-97.459-17.834-33.333-39.667-63.875-56.584-97.5-9.041-17.875-14.833-36.208-27.208-51.958-7.75-9.75-15.917-19.042-23.042-29.292-10 .584-19.5.625-29.208 3.209-51.208 16.416-104.75 32.583-158.458 37.625-27.959 1.125-55.459 5.291-83.5 4.5-30.584-.459-61.209.208-91.75-.667-26.417-1.958-52.625-3.042-79.084-3.333-78.333-4.542-154.833-15.375-232.416-26.209-48.25-6.333-96.709-11.291-145.042-16.916-22-2.5-44.667-10.959-66.75-9.792-8.75 9.208-14.542 21.542-21.458 32.125-19 29.083-40.834 57.625-57.417 88.083-18.833 28.375-38.458 56.334-57.208 84.834-15.334 24.75-39.625 44.625-62.667 62-26.917 16.666-63.083 24.208-94.458 20.583-42.584-6.958-80.917-28.417-113.875-55.625-12.75-10.667-21.792-26.208-30.542-40.208-9.417-15.667-19.667-31.917-25.667-49.209-11.791-37.833-6.541-79.25 7.917-115.541 16.375-38.625 43.833-64.792 72.208-94.375 17.75-18.25 40.417-31.75 57.625-50.375 5.584-5.459 5.792-11.959 7.084-19.209-24.959-13.166-44.417-32.458-67.209-48.583-9.75-6.75-17.875-15.125-25.791-23.833-25.959-28.459-53.334-54.875-76.75-85.584-21.042-27.833-43.292-56.416-58.209-87.708-15.916-32.75-33.416-65.167-47-98.958-19.625-47.834-33.625-98.209-47.583-147.917-9.333-32.25-12.625-65.542-7.5-98.792 7.583-34.666 19.25-68.625 33.125-101.25 14.083-33.375 35.083-62.541 49.5-95.75 5.75-13.458 12.042-26.875 16.667-40.75 2.25-6.666-1.334-11.75-5.709-16.416-14.75-14.334-31.083-27.459-47-40.459-25-20.25-46.541-45.416-69-68.625-26.416-27.708-54.125-54.25-80.208-82.25-43.208-47.708-82.833-99.333-118.5-152.916-9.083-12.084-26.292-18.792-40.208-23.334-17.042-5.25-29.917-15.041-44.875-24.25-12.042-7.583-23.417-14.625-31.917-26.375-18.583-25.916-32.958-54.458-40.125-85.666-8.542-32.834-6.333-69.792-5.875-103.667.125-21.292 2.667-45.375-3.458-65.917-7.334-15.666-23.917-23.666-29-41.833-11.375-36.292-18.125-75-18.459-113.083 0-25.125-4.833-49.792-4.333-75 .875-40.417-15.375-73.375-26.75-111.792-6.458-23.292-17.625-43.25-13.917-67.458 3.75-26.209 8.417-52.542 15.334-78.125 5.541-19.75 13.291-40.375 29.916-53.5 7.417-5.875 18.625-9 24.709-16.167 7.166-13.792 4.875-32.833 4.291-47.958-2.875-19.375-2.916-40.375-9.5-58.875-4.208-12.459-18.666-17.959-28.791-25.042-18.417-10.958-31.75-26.125-48.084-39.667-27.875-23.708-50.708-50.916-76.125-77.916-39.666-42.209-77.25-90.209-103.416-141.959-2.5-24.416 1.333-54.333 17.25-74.125 14.958-20.125 30.375-38.958 50.583-54.083 25.125-19.667 55.75-31.125 86.25-39.333 18.792-4.75 36.625-9.209 56.167-7.959 26.583 1.209 53.958 3.334 79.708 10.5 31.833 9.584 62.167 25.292 90.625 42.25 17.833 10.667 36.458 21.459 50.417 37.084 19.125 21.166 29.625 45.541 46.5 70.083 11.708 16.458 20 34.708 30.833 51.625l2.875 5.042c-4.292-1.125-8.625-2.334-12.958-3.334-3.625 3.042-7.084 6.25-10.584 9.459-22.208-37-44.541-79.209-72.666-112.667-18.667-21.5-41.709-37.125-66.875-50.042-28.917-14.666-55.25-29.25-87.917-34.125-58.333-10.625-119.042 2.334-169.25 33.417-23.125 14.25-42.25 35.625-57.375 58-9.208 13.5-14.375 31.25-11.708 47.5 5.041 16.167 17.791 30.5 27.083 44.5 23.333 34.417 49.625 66.75 78.125 97 32.625 34.917 65.458 71.292 102.708 101.375 13.834 11.458 33.459 20.708 43.459 35.75 7.208 13.792 8.666 31.083 10.958 46.333 2.917 25.209 1.042 50.334 5.083 75.459-4.5 8.75-8.458 18.333-16.25 24.75-11.375 9.708-24.958 16.333-33.666 28.916-9.75 14.167-14.292 32.959-18.042 49.542-3.708 17.625-7.542 36.667-6.708 54.75.666 15.25 6.666 30.583 11.625 44.958 7.833 39.334 31.083 78.209 29.333 117.459-2.333 59.458 1 121.416 17.542 178.875 4.916 18.583 20.208 25.541 29.541 40.916 6.375 12.417 6.334 29.084 6.542 42.75.5 40.292-6 76.5.625 116.709 5.083 36.583 20.458 70.291 41.583 100.291 6.792 9.25 15.792 14.75 25.334 20.75 15.125 9.209 29.125 18.834 46.041 24.709 15.042 5.708 29.084 9.75 40.292 22.166 14.458 16.417 24.667 36.417 38.042 53.75 29.291 38.542 58.916 76.667 91.791 112.25 29.834 32.042 61.375 62.459 91.459 94.209 29.125 31.791 62.125 59.083 95.916 85.666 7.584-8.625 15.542-16.541 24.542-23.666-7.917 25.916-9.292 53.208-16.917 78.958-25.958 65-63.875 126.25-87.25 192.625-7.5 20.583-7.791 41.708-6.333 63.292 1.583 42.708 16.542 86.666 30.875 126.708 7.5 20.083 13.25 41.458 22.625 60.542 25.458 48.875 46.333 97.75 76.5 144.416 24.625 36.667 48.583 72 78.917 104.417 24.75 25.75 50.708 49.625 80 70.125 44.208 30.917 91.666 61.292 141.541 82.167 51.167 22.333 104.917 37.041 159.459 48.5 50.666 10.875 100.166 25.541 151.083 35.25 35.75 7.75 71.958 12.666 108.25 17.125 65.208 8.458 130.375 17.75 195.833 24.166 36 2.667 72.292 2.667 108.334 1.584 46.083-.417 91.916 1.5 137.541-3 44.084-1.75 90.125-5.792 132.459-19 14.166-3.834 28.5-6.75 43-9.042 15.25 1.458 30.25-.417 45.458-.667 9.167-.083 16.458 5.209 23.625 10.25 16.083 19.417 30.167 40.084 39.958 63.417 16.459 38.208 40.75 70.125 60.042 106.875 18.792 35.458 41.667 68.5 66 100.417 27.5 34.375 69.75 56.541 114.458 47.666 24.292-5.166 49.834-11.5 71.667-23.666 24.708-16.084 46.917-36.667 65.208-59.792 16.584-20.167 24.667-47.292 27.625-72.875 1.625-23.875-1.666-51.167-15.333-71.417-30.917-46.25-65.417-89.5-101.458-131.833-16.167-19.75-34.292-39.542-46.542-62.042-4.708-7.75-1.375-14.333-.583-22.666 1.875-9.959-2.667-20.542 7.541-26.167 33.375-22.375 75.959-36.875 112.667-51.333 34.875-15.75 71.458-24 104.208-44.75 8.917-4.959 17.959-9.667 27-14.459 7.25-3.833 14.459-7.833 21.584-11.916 9.916-5.75 19.75-11.625 29.5-17.625 31.5-20.334 61.666-42.792 92.25-64.5 39.916-29.417 75.833-64.375 113.666-96.459 8.542-7.458 17.25-14.75 25.75-22.25 23.959-22 48.75-43.583 70.625-67.666 7.167-7.959 13.917-16.209 20.292-24.792 37.167-53.542 71.5-109.25 104.083-165.75 6.292-10.583 12.959-20.875 19.084-31.583 29.208-52.209 57.291-103.042 72.458-161.459 4.458-22.583 4.708-48.958.583-71.583-9.416-28.333-22-59.667-35.291-86.417-30.667-50.791-73-93.333-113.125-135.416-9.625-9.209-19.792-17.917-30.042-26.417-31.333-25.292-64.375-49.5-98.042-71.542-41.791-26.291-89.75-44.791-136.5-60.208-26.541-5.875-56.75-.25-83.291 3.958-11.709 7.625-21.542 19.25-30.917 29.542-23.5 26.25-47.583 53.667-66.667 83.333-19.375 31.25-19.875 69.875-16.041 105.292 1.083 21.375 7.125 41.542-6.084 60.375-17.291 22.75-31.958 47.208-49.041 70.125-8.125 12.833-24.042 27.583-20.375 43.833-2.334-1-4.667-1.916-7-2.833-31.417 43.792-64.417 86.375-99.792 127.042-18.583 20.875-37.417 41.75-57.958 60.75-16.459 15.208-36.542 21.916-56.959 30.125-33.75 13.583-69.041 20.916-105.125 24.708-31.25 2.875-61.291 6.292-92.541.833-24.875-4.333-50.709-10.125-73.417-21.416-41.958-24.25-65.5-63.292-85.167-106.167-20.5-44.625-23.25-97.458-19.208-145.75 5.625-61.667 31-124.167 79.917-163.958 25.416-20.459 50.375-40.959 73.291-64.292 5.875-5.583 12.584-13.167 20.5-15.458 15.042-4.459 30.875-6.542 46.334-9.125-9.125 15.875-19.5 29.333-32.5 42.25-27.959 27.708-57 54.291-88.042 78.541-16.875 13.084-28.958 30.167-38.5 49.084-19.417 36.333-25.75 75.625-28.542 116.291-3.666 51.709 17.834 102.334 46.125 144.5 11.667 17.917 25.584 33.417 45.542 42.084 50.875 21 107.125 26.5 161.25 16.625 36.708-7.042 71.833-19.5 105.708-35.167 13.917-6.25 25.375-15.792 35.5-27.083 25.25-27.875 51.917-53.75 74.292-84.167 43.458-54.708 82.083-112.292 121.875-169.625 8.833-13.125 18.917-24.417 18.542-41.25-.5-53.333-24.959-103.417-55.459-145.958-11.291-15.417-21.708-35.917-39.875-43.709-33.416-15.083-67.291-21.666-102.916-28.833 31.208-20.5 62.458-41.125 92.333-63.542 25.042-13.833 47.875-30.791 71.667-46.583 89.625-62.25 175.166-128.792 253.958-204.417 42.792-41.208 81.583-88.291 120.042-133.958 27.208-32.042 51.541-65.708 73.208-101.708 15.042-29.125 33.625-56.042 48.25-85.375 14.625-26.709 25.25-55 37.875-82.625 5.708-13.209 12.125-28.125 12.958-42.625-1.25-5.042-4.958-9.459-8.166-13.459-39.834-43.625-85-88.708-113.959-140.416-13.041-22-27.625-42.167-39.166-65.084-16.709-34.291-29.625-70.541-43.75-106-10.25-25.75-12.542-52.833-21.042-79.041-3.208-11.125-8.625-24.584-6.583-36.209 1.166-7.583 10.625-12.708 16.208-17.041 27.083-18.084 52.375-38.792 75.417-61.834 13.541-13.708 29.708-27.5 38.708-44.625 12-22.875 19.167-47.875 21.958-73.541 2.542-24.625 4.584-49.459-1.541-73.709-14.084-55.5-33.417-108.75-73.917-150.708-21.708-20.917-46.292-40.5-75.792-48.792-28.625-8.208-60.625-11.416-89.958-5.333-37.375 11.542-73.542 23.625-108.917 40.375-18.666 8.833-32.583 21.625-49.125 33.583-13.208-18.75-15.416-41.166-27-60.583-11.083-19.417-23.291-37.75-35.333-56.375-15-23.167-27.417-46.167-45.417-67.333-15.458-17.959-29.791-36.542-47.041-52.875-14.625-14.375-28.709-29.625-44.5-42.792-50.875-39.5-98.667-77.792-157.25-106.375-27.167-12.875-51.209-28.875-80.542-36.917-68.625-20.625-139.208-36.916-210.042-47.708-41.291-6.792-82.708-5.958-124.25-10-26.583.125-52.708-2.5-79.166-4.25-70.792-.833-141.709-.5-212.5.542-50.417-.917-101.25 11.041-150.584 20.625-21.291 4.708-41.416 7.25-58.666 21.791-17.667 14.584-38.459 21.834-57.417 34.25-26.958 17.542-53.292 34.292-76.833 56.459-29.25 25.916-51.834 55.583-77.834 84.75-19.375 21.833-32.458 46.583-47.291 71.458-35.709-25.708-70.625-66.25-114.625-76.583-42.959-10.792-91.875-7.5-130.209 16.25-38.791 20.625-63.541 54.75-82.416 93.416-17.834 46.959-9.5 98.209 5.875 144.542 16.583 39.167 54 71.125 88.458 94.583 13.292 9.5 36.833 10.959 45.417 25.209 4.166 26.916-18.584 58.333-33.667 79.291-20.75 30.209-49.75 49.25-74.792 75.084-15.791 16.541-34.291 29-52.5 42.583-29.875 19.25-57.75 40.708-88.583 58.167-41.708 22.541-78.333 47.958-124.375 62.125-11.542 3.291-23.583 4.791-35 8.375-5.5.583-3.958 9-4.125 12.833 1.417 18.75 6.458 37.417 9.458 56 4.834 27.292 4.625 52.583 13.084 79.167 4.208 14.666 11.458 26.041 9.291 41.833-10.708-15.792-20.083-31.833-24-50.75-9.583-41.458-26.916-77.458-41.625-116.792-6.291-16.625-15.833-31.625-21.833-48.416 34.417 6.416 63.917-3.959 95.792-14.917 57.166-17.042 105.416-48.292 153.166-83.083 36.084-26.292 68.084-56.625 102.834-84.709 29.125-25.625 57.125-57.5 71.416-94-18.791-32.958-49.75-42.083-75.541-68.333-20.042-20.458-39.084-44.75-48.917-71.958-7.792-19.167-13.958-38.375-14.292-59.292-4.333-33.167-2.875-67.917 6.542-100.083 19.458-56.625 67.25-101 120.958-125.292 42.125-15.875 91.209-20.917 134.667-7.333 31.625 7.541 59.292 18.916 87.417 35.125 12.875 6.625 19.666 3.958 28.375-6.417 40.25-51.542 84.916-98.417 137.166-137.958 9.792-7.417 20.25-13.75 31.125-19.417 27.292-14.25 54.792-29.292 83.084-41.292 28.416-12.125 59.791-18.5 90.041-24.291 52-9.625 105.459-18.667 158.334-20.959Z" style="fill:#59371c;fill-rule:nonzero"/>
  <path d="M1696.6 93.565c70.791-1.042 141.708-1.375 212.5-.542 26.458 1.75 52.583 4.375 79.166 4.25 41.542 4.042 82.959 3.208 124.25 10 70.834 10.792 141.417 27.083 210.042 47.708 29.333 8.042 53.375 24.042 80.542 36.917 58.583 28.583 106.375 66.875 157.25 106.375 15.791 13.167 29.875 28.417 44.5 42.792 5.166 8.25 9.416 16.958 13.541 25.75-10.625-6.375-20.5-13.709-30.25-21.292-16.875-13.042-35-19.25-53.958-29.792-15.417-8.5-30.958-16.708-47.208-23.541-32-13.375-62.792-29.292-95.042-42.125-28.208-12.209-57.583-20.292-86.458-30.75-76.042-27.417-153.917-42.209-233.959-52.125-60.291-5-118.75-8.792-179.25-2.417-71 4-142.75 19.5-211.833 35.083-52.417 13.917-109.542 25.459-160.5 47.417-28.417 12-57.333 21.75-84.458 36.75-21.625 12.042-43.542 21.542-60.917 39.125-21.708 21.958-43.542 42.125-61.708 67.25-28.917 41.417-58.209 82.083-81.959 126.833-22.875 38.25-43.375 77.667-68.25 114.667-29 50.667-55.916 98.208-101.958 135.875-27.125 26.292-57.25 48.333-87.625 70.583-22.542 15.875-47.333 26.875-70.833 41.792-12.5 8.042-25.084 14.542-38.875 20.083 5.208-7.791 10.375-15.541 16.166-22.958 18.209-13.583 36.709-26.042 52.5-42.583 25.042-25.834 54.042-44.875 74.792-75.084 15.083-20.958 37.833-52.375 33.667-79.291-8.584-14.25-32.125-15.709-45.417-25.209-34.458-23.458-71.875-55.416-88.458-94.583-15.375-46.333-23.709-97.583-5.875-144.542 18.875-38.666 43.625-72.791 82.416-93.416 38.334-23.75 87.25-27.042 130.209-16.25 44 10.333 78.916 50.875 114.625 76.583 14.833-24.875 27.916-49.625 47.291-71.458 26-29.167 48.584-58.834 77.834-84.75 23.541-22.167 49.875-38.917 76.833-56.459 18.958-12.416 39.75-19.666 57.417-34.25 17.25-14.541 37.375-17.083 58.666-21.791 49.334-9.584 100.167-21.542 150.584-20.625Z" style="fill:#7f5c43;fill-rule:nonzero"/>
  <path d="M2071.51 167.19c80.042 9.916 157.917 24.708 233.959 52.125 28.875 10.458 58.25 18.541 86.458 30.75 32.25 12.833 63.042 28.75 95.042 42.125 16.25 6.833 31.791 15.041 47.208 23.541 18.958 10.542 37.083 16.75 53.958 29.792 9.75 7.583 19.625 14.917 30.25 21.292-4.125-8.792-8.375-17.5-13.541-25.75 17.25 16.333 31.583 34.916 47.041 52.875 18 21.166 30.417 44.166 45.417 67.333 12.042 18.625 24.25 36.958 35.333 56.375 11.584 19.417 13.792 41.833 27 60.583 11.167 17.334 21.042 35.25 28.625 54.459 25.584 62.375 53.375 125.458 72.125 190.25 19.209 81.791 30.542 165.625 35.084 249.5 6.833 68.041 12.458 134.666-2.042 202.333-16.542 69.083-41.458 133.5-68.458 199-16.792 39-40.709 72.208-64.834 106.708 22.709 19.209 41.959 40.875 53.042 68.875 23.875 52.667 17.917 117.292-.042 170.834-28.541 88.625-80.625 160.666-138.5 232.166-17.708 22.125-38.583 40.5-53.333 65-29.875 22.417-61.125 43.042-92.333 63.542 35.625 7.167 69.5 13.75 102.916 28.833 18.167 7.792 28.584 28.292 39.875 43.709 30.5 42.541 54.959 92.625 55.459 145.958.375 16.833-9.709 28.125-18.542 41.25-39.792 57.333-78.417 114.917-121.875 169.625-22.375 30.417-49.042 56.292-74.292 84.167-10.125 11.291-21.583 20.833-35.5 27.083-33.875 15.667-69 28.125-105.708 35.167-54.125 9.875-110.375 4.375-161.25-16.625-19.958-8.667-33.875-24.167-45.542-42.084-28.291-42.166-49.791-92.791-46.125-144.5 2.792-40.666 9.125-79.958 28.542-116.291 9.542-18.917 21.625-36 38.5-49.084 31.042-24.25 60.083-50.833 88.042-78.541 13-12.917 23.375-26.375 32.5-42.25-15.459 2.583-31.292 4.666-46.334 9.125-7.916 2.291-14.625 9.875-20.5 15.458-22.916 23.333-47.875 43.833-73.291 64.292-48.917 39.791-74.292 102.291-79.917 163.958-4.042 48.292-1.292 101.125 19.208 145.75 19.667 42.875 43.209 81.917 85.167 106.167 22.708 11.291 48.542 17.083 73.417 21.416 31.25 5.459 61.291 2.042 92.541-.833 36.084-3.792 71.375-11.125 105.125-24.708 20.417-8.209 40.5-14.917 56.959-30.125 20.541-19 39.375-39.875 57.958-60.75 17.083 26.625 31.208 54.708 49.667 80.5 26.416 37.25 51.041 73.333 66.458 116.791 16.833 45.584 18.833 96.834 10.958 144.459-4.833 42.708-13.666 84.666-29.416 124.75-10.709 28.458-25.417 53.791-40.625 80-14.209 23.625-26.792 46.583-45.167 67.416-19.292 22.042-39.875 43.792-62.458 62.459-26.042 21.833-54.459 40.416-80 62.875-26.5 15.583-53.417 29.791-81.5 42.333-41.417 19.792-82.792 38.375-126.709 52.083-13.666 4.167-27.041 9.209-40.416 14.292-14.5 2.292-28.834 5.208-43 9.042 6.791-20.917 12.708-41.584 12-63.875-.292-56.959-5.084-114-8.75-170.834-.917-32.166-10.5-63.833-15.5-95.625-12.75-51.791-31.917-103.041-58.584-149.333-18.708-36.25-42.458-67.542-66.125-100.583-31.25-44.917-71.833-84.459-112.791-120.5-50.834-34.834-96.959-70.125-157.542-86.375-38.833-10.959-77.042-10-116.875-7.709-42.167 4.584-83.583 19-120.583 39.5-73.334 39.042-138.334 95.792-186.709 163.334-25.208 32.75-46.291 68.916-65.666 105.291-26.417 46.375-43.917 99-58.459 150.167-11.375 38.625-24.083 78.625-30.375 118.458-4.416 37.834-9.083 75.292-7 113.459-49.875-20.875-97.333-51.25-141.541-82.167-29.292-20.5-55.25-44.375-80-70.125-30.334-32.417-54.292-67.75-78.917-104.417-30.167-46.666-51.042-95.541-76.5-144.416-9.375-19.084-15.125-40.459-22.625-60.542-14.333-40.042-29.292-84-30.875-126.708-1.458-21.584-1.167-42.709 6.333-63.292 23.375-66.375 61.292-127.625 87.25-192.625 7.625-25.75 9-53.042 16.917-78.958-9 7.125-16.958 15.041-24.542 23.666-33.791-26.583-66.791-53.875-95.916-85.666-.542-31.042 5.541-60.709 13.166-90.625 11.875-41.667 24.625-80.917 50.542-116.292 29-39.542 70.958-71 112.833-95.708 30.625-20.084 63-36.917 95.167-54.375 2.917.833 5.792 1.708 8.708 2.541 27.542 46.167 53.75 93.084 75.584 142.25 12.208 25.334 21.208 51.959 32.75 77.542 3.916-6.25 8.416-12.667 11.083-19.542 1.25-10.708-1.833-22.333-4.208-32.708 2.291 5.958 4.583 11.917 6.875 17.833 12.833-3.041 9.916-11.5 6.958-21.458-10.667-27.667-23.75-54.5-36.083-81.458 30.041-24.334 67.833-37.917 106.666-35.084 22.25 1.5 44.625 4.042 66.667 7.417 35.667 5.292 69.875 16.792 105.667 21.458 6.541 1.417 13.083 2.709 19.625 3.959-22.334-15.959-46.5-28.292-69.792-42.75-18.042-10.917-35.25-23.125-53.125-34.334-29.042-18.416-58.583-34.708-86.167-55.458-40.625-30.75-82.041-59.667-118.916-95-3.292-2.333-6.584-4.625-9.917-6.917 3.417-22.75-.5-46.708-3.5-69.708-3.917-26.542-18.792-49.292-14.667-74.792 2.792-16.958 10.625-33.416 16.167-49.625 7.583-20.083 12.5-40.791 17.583-61.625 5.042-15.458 5.834-30.75 5.209-46.875 20.708 30.042 49.625 53.292 84 65.75 28.041 8.875 60.083 16.084 89.083 7.959 27.542-8.167 54.042-23.792 67.75-50 15.167-26.125 14.125-57.292 12.125-86.459-5.167-42.166-31.792-78.958-63.125-106.208-33.417-27.625-78.792-49.25-123.083-44.042-35.667 3.5-68 25.042-85.959 55.875-12.5 22.167-13.541 45.25-18.25 69.75-20.208-29.291-42.791-55.541-69.291-79.416 9.833-13.084 19.083-26 24.458-41.667 7.083-18.875 6.583-38.792 5.167-58.583-2.959-36.167-22.584-70.125-49.542-93.875-47.708-43.042-109.458-66.5-173.125-71.209-36.417-.541-74.125-1.666-110 5.167-2.167-3.375-4.375-6.75-6.542-10.125 2.167-15.792-5.083-27.167-9.291-41.833-8.459-26.584-8.25-51.875-13.084-79.167-3-18.583-8.041-37.25-9.458-56 .167-3.833-1.375-12.25 4.125-12.833 11.417-3.584 23.458-5.084 35-8.375 46.042-14.167 82.667-39.584 124.375-62.125 30.833-17.459 58.708-38.917 88.583-58.167-5.791 7.417-10.958 15.167-16.166 22.958 13.791-5.541 26.375-12.041 38.875-20.083 23.5-14.917 48.291-25.917 70.833-41.792 30.375-22.25 60.5-44.291 87.625-70.583 46.042-37.667 72.958-85.208 101.958-135.875 24.875-37 45.375-76.417 68.25-114.667 23.75-44.75 53.042-85.416 81.959-126.833 18.166-25.125 40-45.292 61.708-67.25 17.375-17.583 39.292-27.083 60.917-39.125 27.125-15 56.041-24.75 84.458-36.75 50.958-21.958 108.083-33.5 160.5-47.417 69.083-15.583 140.833-31.083 211.833-35.083 60.5-6.375 118.959-2.583 179.25 2.417Z" style="fill:#775237;fill-rule:nonzero"/>
  <path d="M1026.6 365.981c31.125-7.5 65.75 2.75 93.125 17.959 18.708 10 43.791 18.666 55.916 36.875 5.167 7.791 2.292 15.25-4.25 21-14.125 4.625-28.291 1.5-40.958-5.584-23.125-13.208-48.375-27.625-75.458-30.541-20.042-1.542-37.209 8.083-50.5 22.375-17.75 18.708-35.792 44.416-35.75 71.25-.5 19.25-.292 39.333 10.458 56.083 6.708 9.167 17.625 15.125 25 23.833 1.042 10.042-5.542 16.75-10.333 24.875-18.417-9-35.375-16.5-45.167-35.791-13.667-28.375-21.833-63.959-13.5-94.959 6.208-23.416 16.042-47.375 32.333-65.666 16.959-18.709 33.75-35.334 59.084-41.709Z" style="fill:#563317;fill-rule:nonzero"/>
  <path d="M3007.64 509.606c29.5 8.292 54.084 27.875 75.792 48.792 40.5 41.958 59.833 95.208 73.917 150.708 6.125 24.25 4.083 49.084 1.541 73.709-2.791 25.666-9.958 50.666-21.958 73.541-9 17.125-25.167 30.917-38.708 44.625-23.042 23.042-48.334 43.75-75.417 61.834-5.583 4.333-15.042 9.458-16.208 17.041-2.042 11.625 3.375 25.084 6.583 36.209 8.5 26.208 10.792 53.291 21.042 79.041 14.125 35.459 27.041 71.709 43.75 106 11.541 22.917 26.125 43.084 39.166 65.084 28.959 51.708 74.125 96.791 113.959 140.416 3.208 4 6.916 8.417 8.166 13.459-.833 14.5-7.25 29.416-12.958 42.625-12.625 27.625-23.25 55.916-37.875 82.625-14.625 29.333-33.208 56.25-48.25 85.375-21.667 36-46 69.666-73.208 101.708-38.459 45.667-77.25 92.75-120.042 133.958-78.792 75.625-164.333 142.167-253.958 204.417-23.792 15.792-46.625 32.75-71.667 46.583 14.75-24.5 35.625-42.875 53.333-65 57.875-71.5 109.959-143.541 138.5-232.166 17.959-53.542 23.917-118.167.042-170.834-11.083-28-30.333-49.666-53.042-68.875 24.125-34.5 48.042-67.708 64.834-106.708 27-65.5 51.916-129.917 68.458-199 14.5-67.667 8.875-134.292 2.042-202.333-4.542-83.875-15.875-167.709-35.084-249.5-18.75-64.792-46.541-127.875-72.125-190.25-7.583-19.209-17.458-37.125-28.625-54.459 16.542-11.958 30.459-24.75 49.125-33.583 35.375-16.75 71.542-28.833 108.917-40.375 29.333-6.083 61.333-2.875 89.958 5.333Z" style="fill:#654233;fill-rule:nonzero"/>
  <path d="M2938.22 610.565c28.041-4.167 57.208 8.375 83 18.625 37.958 18.125 54.5 53.166 66.25 91.458 16 49.25-8.792 107.583-53.5 132.75-13.334 7.583-28.75 13.833-44.334 10.667-8.041-1.625-15.916-11-10.041-18.792 8.75-12.542 25.666-20.292 38.041-29 27.084-16.667 42.917-52.625 34.125-83.625-4.583-18.208-12.583-36.625-25-50.917-15.208-17.833-41.958-23.625-63.791-29-26.459-6.583-51.042 0-75.584 10.084-4.75-6.125-13.375-13.584-13.166-21.792 12.833-19.292 41.958-28.333 64-30.458Z" style="fill:#573418;fill-rule:nonzero"/>
  <path d="M1700.85 682.898c17.291 1.833 31 17.333 38.916 31.708 9.959 19.209 12.667 42.792 16.25 63.959 5.5 30.458-10 65.041-37.25 80.166-22.75 12.5-53.625 11.959-79.041 13.667-24.834.958-55.667 3.667-78.084-8.833-14.875-8.167-19.541-25.459-12.125-40.584 14.375-29.291 33.667-53.583 55.5-77.541 17.584-21.709 33-43.834 57.584-59 11.291-5.542 26.083-4.917 38.25-3.542ZM2114.68 694.106c12.292 3.834 19.583 12.792 26.833 22.834 22.542 32.708 38.875 67.375 54.625 103.625 6.834 16.5 17.625 35.791 17.042 53.875-1.667 15.125-18.375 26.916-33.208 26.166-27.709.084-56.25-11.458-82.917-18.458-28.75-8.125-54.792-18.708-72.25-44.375-19-24.917-13.875-57-2.958-84.167 9.75-22.083 22.75-47.166 44.583-59.416 14.667-9.25 32.833-4.5 48.25-.084Z" style="fill:#654233;fill-rule:nonzero"/>
  <path d="M296.557 777.106c32.667 4.875 59 19.459 87.917 34.125 25.166 12.917 48.208 28.542 66.875 50.042 28.125 33.458 50.458 75.667 72.666 112.667 15.417 26.958 26.375 57.208 37.25 86.25 12.375 32.333 28.084 64 35.875 97.458 5.959 25.75 16.042 50.417 32.459 71.292 7.291 8.666 17.291 17.125 29.333 16.625 23.75-1.125 47.042-6.167 71-5.667 49.958-.917 99.5 10.417 144.833 31.167 31.292 16.291 60.042 42.375 76.834 73.625 11.958 19.875 6.625 46.875.041 67.75-5.666 18.916-25.916 31.041-30.666 49.375.458 25.75 20.166 35.75 35.916 52.291 24 24.959 46.25 52.792 62.5 83.459 16.417 29.541 10.584 66.375 2.667 97.625-6.667 28.333-20.583 54.75-25.917 83.291-6.291 44.084 20.125 77.167 19.375 122.375-1 28.25-5.416 60.125-20.375 84.709-7.041 12.541-21 24.625-23.791 38.791-.334 23.334 18.083 46.209 29.791 65.375-2.916-.833-5.791-1.708-8.708-2.541-32.167 17.458-64.542 34.291-95.167 54.375-41.875 24.708-83.833 56.166-112.833 95.708-25.917 35.375-38.667 74.625-50.542 116.292-7.625 29.916-13.708 59.583-13.166 90.625-30.084-31.75-61.625-62.167-91.459-94.209-32.875-35.583-62.5-73.708-91.791-112.25-13.375-17.333-23.584-37.333-38.042-53.75-11.208-12.416-25.25-16.458-40.292-22.166-16.916-5.875-30.916-15.5-46.041-24.709-9.542-6-18.542-11.5-25.334-20.75-21.125-30-36.5-63.708-41.583-100.291-6.625-40.209-.125-76.417-.625-116.709-.208-13.666-.167-30.333-6.542-42.75-9.333-15.375-24.625-22.333-29.541-40.916-16.542-57.459-19.875-119.417-17.542-178.875 1.75-39.25-21.5-78.125-29.333-117.459 6.833 11.584 13.75 23.209 21.583 34.125 4.667 5.792 8.208 11.75 16.5 11.834 22.208 1.333 44.417-2.375 66.75-.667 29.208 2.125 56.167 1.875 84.083 11.458-17.75 1.375-36.083.917-53.541 4.167-17.75 3.5-29.917 16-41.959 28.5-25.041 26.417-43.916 61.833-44.166 98.917-1.625 41.958 16.958 80.75 43.041 112.541 6.625 7.709 13.834 17.125 23 21.834 13.25 4.541 27.5 5.708 40.75 10.5 22.792 8.583 43.959 21.166 61.459 38.208-30.334-11.708-58.792-22.375-91.917-22.5-11 1-22.958 6.333-25.667 18.167-18.166 59.75-1.5 116.666 19.792 172.875 6.292 17.541 17.583 31.541 30.292 44.875 14.541 15.083 27.208 32.041 47 40.416 18.875 8.209 38.625 14.625 58.25 20.875 27.625 7.959 53.791 16.625 82.958 13.125 27.042-3.291 54.5-7.208 80.708-14.875 45.292-14.166 90-34.833 133.167-54.666 36.333-16.667 69.792-37.709 103.792-58.542 27.708-17.083 55.625-34.833 66.625-67.292 13.875-39.666 23-90.75 3.75-130.041-7.25-14.792-14.75-33.459-31-40.125-18.959-9.125-36.709-10.875-57.167-6-38.125 8.625-76.625 13.166-115.167 19.291-17.25 2.625-34.125 8.875-51.5 10.084-10.25.75-20.375-7.625-23.166-17.209.291-9 6.958-13.083 14.541-16.125 25.667-10.125 52.542-17.833 79.084-25.208 32.208-9.125 63.25-21.458 93.833-34.917 24.333-10.875 51.25-18.666 70.25-38.25 10.792-11.25 23.458-26.375 23.583-42.75 1.125-39.75-17.25-80.708-49.75-104.291-22.041-15.792-47.375-26.834-74.958-26.542-27.542.125-56.458 11.333-82.833 19-46.959 14-94.25 33.667-141.75 42.5-11.125 1.333-21.459 4.083-29.167-6.333-7-7.542-.958-17.375 4.458-23.792 14.834-16.042 37.334-26.25 57.167-34.667 56.708-22.5 116.042-44.041 176.917-51.25 21.916-2.583 42.541-9.791 56.875-27.333 6.916-11.583 5.625-28.75 3.75-41.667-5.417-33.75-31.417-63.166-57.459-83.75-27-20.208-53.666-40.583-87.916-45.916-36.375-5.75-71.417-11.834-108.375-10.959-27.625.667-55.875-1.041-83.25 2.5-83.75 13.042-166.709 45.209-250.209 46.959-4.041-25.125-2.166-50.25-5.083-75.459 44.958-11.291 87.708-27.333 130-46.083 30.458-14.708 64.25-34.292 81.458-64.5 8.834-15.458 16.334-33.708 10.25-51.542-10.5-36.166-38.5-61.958-70.375-79.958-48.25-27.667-99.375-40.583-149.75-62.75-52.5-21.583-106.25-47.208-151.791-81.375-17.209-12.542-28.25-29.417-43.042-44.25 50.208-31.083 110.917-44.042 169.25-33.417Z" style="fill:#684429;fill-rule:nonzero"/>
  <path d="M127.307 810.523c14.792 14.833 25.833 31.708 43.042 44.25 45.541 34.167 99.291 59.792 151.791 81.375 50.375 22.167 101.5 35.083 149.75 62.75 31.875 18 59.875 43.792 70.375 79.958 6.084 17.834-1.416 36.084-10.25 51.542-17.208 30.208-51 49.792-81.458 64.5-42.292 18.75-85.042 34.792-130 46.083-2.292-15.25-3.75-32.541-10.958-46.333-10-15.042-29.625-24.292-43.459-35.75-37.25-30.083-70.083-66.458-102.708-101.375-28.5-30.25-54.792-62.583-78.125-97-9.292-14-22.042-28.333-27.083-44.5-2.667-16.25 2.5-34 11.708-47.5 15.125-22.375 34.25-43.75 57.375-58Z" style="fill:#775237;fill-rule:nonzero"/>
  <path d="M534.599 964.481c4.333 1 8.666 2.209 12.958 3.334l-2.875-5.042c6.792 6.708 14.333 10.625 16.125 20.792 5 23 11.833 45.25 22.708 66.208 13.209 23.458 22.542 49.625 32.209 74.75 7.583 19.5 8.291 39.125 18.041 57.75 6.542 12.667 13.875 26.625 24.5 36.333 22.667.834 44.667-5.75 67.5-4.916 52.542-2.459 107.959 6.875 155.209 30.5 24.041 13.125 49.75 28.041 68 48.708 23.708 25.5 39.875 58.375 37.125 93.958-2.042 31.459-16.334 58.459-39.459 79.5 32.792 27 60.375 59.5 83.75 94.834 16.334 25.5 27.542 53.291 27.375 84 1.75 46.666-19.375 86.833-32.458 129.541-10.083 46.167 14.292 76 17.333 120.334 3.709 49.666-14.666 95.833-45.083 134.333 3.042 10 10.75 18.75 16 27.708 39.333 64.292 75.167 129.917 102.792 200.167 2.375 10.375 5.458 22 4.208 32.708-2.667 6.875-7.167 13.292-11.083 19.542-11.542-25.583-20.542-52.208-32.75-77.542-21.834-49.166-48.042-96.083-75.584-142.25-11.708-19.166-30.125-42.041-29.791-65.375 2.791-14.166 16.75-26.25 23.791-38.791 14.959-24.584 19.375-56.459 20.375-84.709.75-45.208-25.666-78.291-19.375-122.375 5.334-28.541 19.25-54.958 25.917-83.291 7.917-31.25 13.75-68.084-2.667-97.625-16.25-30.667-38.5-58.5-62.5-83.459-15.75-16.541-35.458-26.541-35.916-52.291 4.75-18.334 25-30.459 30.666-49.375 6.584-20.875 11.917-47.875-.041-67.75-16.792-31.25-45.542-57.334-76.834-73.625-45.333-20.75-94.875-32.084-144.833-31.167-23.958-.5-47.25 4.542-71 5.667-12.042.5-22.042-7.959-29.333-16.625-16.417-20.875-26.5-45.542-32.459-71.292-7.791-33.458-23.5-65.125-35.875-97.458-10.875-29.042-21.833-59.292-37.25-86.25 3.5-3.209 6.959-6.417 10.584-9.459Z" style="fill:#583518;fill-rule:nonzero"/>
  <path d="M1404.97 1022.73c40.875-2.625 85.583-3.458 124.541 10.5 36.459 10.584 69.834 27.625 101.459 48.459 31.083 19.208 56.25 50.208 78.25 78.958-19.125 14.542-38.875 28.125-58.584 41.833-19.5-13.833-37.75-29.083-58.041-40.875-19.792-11.583-40.834-21.125-62.167-29.5-60.042-23.291-127.417-24-188.625-4.666-47.792 14.916-90.708 48.125-124.792 84.041-20.833 21.334-36.958 46.292-57.125 68.125-10.083-19.916-20.125-40-28.958-60.541-2.25-6.834-6.75-14.417-2.375-21.292 8.917-16.042 23.708-29.458 36.667-42.292 25.25-23.333 50.958-46.958 79.041-66.833 46.959-34.667 103-57.458 160.709-65.917ZM2263.26 1088.4c54.542 1.208 106.667 18.292 154.417 44 61.708 32.917 108.875 86.792 148.458 143.333 15.459 22.292 25.084 47.042 33.667 72.584-23.083 25.541-46.083 51.833-70.542 76-14.458-42.5-32.083-87.625-58.208-124.5-29.208-42.792-71.25-78.334-120.042-96.625-51.5-21.084-107.458-28.417-162.75-23.5-63.416 1.583-125.583 16.875-178.833 52.375-15.25-15.25-29.917-31.042-44.958-46.417-2.709-3.417-7.709-7.417-7.459-12.083 15.625-11.542 33.5-20.042 49.917-30.417 42.792-26.333 93.25-37.708 141.75-48.583 36.833-8.375 76.958-6.75 114.583-6.167Z" style="fill:#43270e;fill-rule:nonzero"/>
  <path d="M659.099 1266.98c36.958-.875 72 5.209 108.375 10.959 34.25 5.333 60.916 25.708 87.916 45.916 26.042 20.584 52.042 50 57.459 83.75 1.875 12.917 3.166 30.084-3.75 41.667-14.334 17.542-34.959 24.75-56.875 27.333-60.875 7.209-120.209 28.75-176.917 51.25-19.833 8.417-42.333 18.625-57.167 34.667-5.416 6.417-11.458 16.25-4.458 23.792 7.708 10.416 18.042 7.666 29.167 6.333 47.5-8.833 94.791-28.5 141.75-42.5 26.375-7.667 55.291-18.875 82.833-19 27.583-.292 52.917 10.75 74.958 26.542 32.5 23.583 50.875 64.541 49.75 104.291-.125 16.375-12.791 31.5-23.583 42.75-19 19.584-45.917 27.375-70.25 38.25-30.583 13.459-61.625 25.792-93.833 34.917-26.542 7.375-53.417 15.083-79.084 25.208-7.583 3.042-14.25 7.125-14.541 16.125 2.791 9.584 12.916 17.959 23.166 17.209 17.375-1.209 34.25-7.459 51.5-10.084 38.542-6.125 77.042-10.666 115.167-19.291 20.458-4.875 38.208-3.125 57.167 6 16.25 6.666 23.75 25.333 31 40.125 19.25 39.291 10.125 90.375-3.75 130.041-11 32.459-38.917 50.209-66.625 67.292-34 20.833-67.459 41.875-103.792 58.542-43.167 19.833-87.875 40.5-133.167 54.666-26.208 7.667-53.666 11.584-80.708 14.875-29.167 3.5-55.333-5.166-82.958-13.125-19.625-6.25-39.375-12.666-58.25-20.875-19.792-8.375-32.459-25.333-47-40.416-12.709-13.334-24-27.334-30.292-44.875-21.292-56.209-37.958-113.125-19.792-172.875 2.709-11.834 14.667-17.167 25.667-18.167 33.125.125 61.583 10.792 91.917 22.5-17.5-17.042-38.667-29.625-61.459-38.208-13.25-4.792-27.5-5.959-40.75-10.5-9.166-4.709-16.375-14.125-23-21.834-26.083-31.791-44.666-70.583-43.041-112.541.25-37.084 19.125-72.5 44.166-98.917 12.042-12.5 24.209-25 41.959-28.5 17.458-3.25 35.791-2.792 53.541-4.167-27.916-9.583-54.875-9.333-84.083-11.458-22.333-1.708-44.542 2-66.75.667-8.292-.084-11.833-6.042-16.5-11.834-7.833-10.916-14.75-22.541-21.583-34.125-4.959-14.375-10.959-29.708-11.625-44.958-.834-18.083 3-37.125 6.708-54.75 3.75-16.583 8.292-35.375 18.042-49.542 8.708-12.583 22.291-19.208 33.666-28.916 7.792-6.417 11.75-16 16.25-24.75 83.5-1.75 166.459-33.917 250.209-46.959 27.375-3.541 55.625-1.833 83.25-2.5Z" style="fill:#775237;fill-rule:nonzero"/>
  <path d="M1776.68 1406.9c47.125-4.25 92.708-2.667 135.708 19.167 29.25 15.958 58.667 28.458 83 49.458 54.042 44.542 91.875 104.375 114.292 170.333 12.25 31.667 15.542 63.75 18.5 97.334-9.708 5.5-19.167 11.291-28.375 17.583.542 4.583 1 9.167 1.417 13.75-3.584-5.625-7.209-11.25-10.834-16.875-3.5 17.625-6.791 40.375-18.375 54.708-9.833 7.584-23.541 10.75-35 15.209-18.333 5.958-37.708 15.791-57.041 17.083-21.917.25-44.292-7.917-62.042-20.667-27-19.083-59.292-39.708-79.792-65.958-7.541-14.667-7.958-34.042-7.541-50.25-.542-5.583 5.25-7.375 9.25-9.5 14.916-6.292 29.375-11.167 41.333-22.625 17.125-16.125 33.625-33.667 46.917-53.083 15.125-21.875 21.541-48.25 20.958-74.667-.083-10.542-6.792-17.583-13.125-25.208-11.167-12.292-23.5-24.875-37.917-33.334-14.791-8.625-30.541-9.75-47.25-10.75-38.25-1.875-76.041-5.625-114 2.459-25.458 5.583-47.416 20.791-62.041 42.291-2.292 3.834-5.959 8.917-5.334 13.584 1.625 13.125 6.084 26 9.625 38.708 7.834 28.833 29.709 53.5 48.5 76.083 12.167 14.792 26.709 26.584 42.709 36.959-.084 15.291.583 32.416-4.25 47-4.084 6.375-11.667 10.916-17.959 14.916-28.041 17.125-59.25 24.25-86.125 43.542 10.875.625 21.75 1.167 32.625 1.167-21.333 14.458-44.416 12.5-68.916 10.416-24.542-2.75-41.584-22.666-58-39.083-14.042-27.542-31.875-48-33.167-80.042-5.75-.791-11.5-1.583-17.208-2.375 4.125-35.416 12.916-69.791 29.083-101.666 11.458-24.292 27.458-43.959 43.125-65.5 10.958-14.667 24.5-24.875 38.292-36.625 18.291-15.209 36.541-30.917 57.458-42.417 28.292-15.583 59.542-26.417 91.5-31.125Z" style="fill:#b78657;fill-rule:nonzero"/>
  <path d="M1142.35 1419.86c44.291-5.208 89.666 16.417 123.083 44.042 31.333 27.25 57.958 64.042 63.125 106.208 2 29.167 3.042 60.334-12.125 86.459-13.708 26.208-40.208 41.833-67.75 50-29 8.125-61.042.916-89.083-7.959-34.375-12.458-63.292-35.708-84-65.75.625 16.125-.167 31.417-5.209 46.875.125-26.875.667-55.916-6.708-81.875-5.583-18.833-14.542-36.125-25.542-52.375 4.709-24.5 5.75-47.583 18.25-69.75 17.959-30.833 50.292-52.375 85.959-55.875Z" style="fill:#8f5a4d;fill-rule:nonzero"/>
  <path d="M1850.77 1478.61c16.709 1 32.459 2.125 47.25 10.75 14.417 8.459 26.75 21.042 37.917 33.334 6.333 7.625 13.042 14.666 13.125 25.208.583 26.417-5.833 52.792-20.958 74.667-13.292 19.416-29.792 36.958-46.917 53.083-11.958 11.458-26.417 16.333-41.333 22.625-4 2.125-9.792 3.917-9.25 9.5-.417 16.208 0 35.583 7.541 50.25 20.5 26.25 52.792 46.875 79.792 65.958 17.75 12.75 40.125 20.917 62.042 20.667 19.333-1.292 38.708-11.125 57.041-17.083 11.459-4.459 25.167-7.625 35-15.209 11.584-14.333 14.875-37.083 18.375-54.708 3.625 5.625 7.25 11.25 10.834 16.875-3.334 11.542-6.5 22.958-8.5 34.792-5.209 9.625-9 18.916-19.959 23.125-19.208 7.291-38.625 14.041-57.75 21.583-35.833 14-75.916 6.208-105.458-17.833-19.083-16.25-41.25-27.292-59-44.959-9.792-9.458-20.042-18.25-30.792-26.625-5.5-26.291-5.75-52.75-5.333-79.5 28.833-.958 54.333-15.125 73.958-35.625 15.625-16.041 32.459-36.208 38.167-58.291 3.417-17.959 2.25-37.125 2.583-55.417-17-17.125-31.5-35.458-57.375-37.958-36.125-2-72.583-1.792-108.75-1.667-29.333-.375-59.875 11.375-77.083 35.958 1.583 14.834 6.292 29.417 10.125 43.792 8.542 30 31.208 53.792 51.625 76.542 10.792 12.375 24.292 19.833 38.708 27.166.125 20.875-.458 41.709-.25 62.584-27.958 22.291-58.708 39.333-91.625 53.125-10.875 0-21.75-.542-32.625-1.167 26.875-19.292 58.084-26.417 86.125-43.542 6.292-4 13.875-8.541 17.959-14.916 4.833-14.584 4.166-31.709 4.25-47-16-10.375-30.542-22.167-42.709-36.959-18.791-22.583-40.666-47.25-48.5-76.083-3.541-12.708-8-25.583-9.625-38.708-.625-4.667 3.042-9.75 5.334-13.584 14.625-21.5 36.583-36.708 62.041-42.291 37.959-8.084 75.75-4.334 114-2.459Z" style="fill:#c18e5c;fill-rule:nonzero"/>
  <path d="M2569.35 1477.32c35.333-4.542 73.083-4.292 103.625 16.541 42.708 29.625 64.541 88.334 52.875 138.792-7.084 27.75-23.125 53.875-40.292 76.5-25.417 28.917-59.083 52.875-96.417 63.458-24.125 7.542-45.833 15.334-71.666 10.625-29.792-5.958-57.667-15.5-78.375-38.916-32.334-33.459-38.084-83.875-24.75-127.042 8.041-27.583 24-49 41.208-71.5 27.083-35.875 70.208-59.542 113.792-68.458Z" style="fill:#8f5a4d;fill-rule:nonzero"/>
  <path d="M1763.02 1496.15c36.167-.125 72.625-.333 108.75 1.667 25.875 2.5 40.375 20.833 57.375 37.958-.333 18.292.834 37.458-2.583 55.417-5.708 22.083-22.542 42.25-38.167 58.291-19.625 20.5-45.125 34.667-73.958 35.625l-3.625.334c.75 17.5 0 34.5-3.333 51.75-1.584-17.959-2.042-36-2.292-54-2.417-1.584-4.875-3.167-7.292-4.75-.958 3.416-1.875 6.875-2.833 10.291-2.875-3.041-5.708-6.166-8.667-9.125-14.416-7.333-27.916-14.791-38.708-27.166-20.417-22.75-43.083-46.542-51.625-76.542-3.833-14.375-8.542-28.958-10.125-43.792 17.208-24.583 47.75-36.333 77.083-35.958Z" style="fill:#28180c;fill-rule:nonzero"/>
  <path d="M1786.39 1679.61c2.959 2.959 5.792 6.084 8.667 9.125.958-3.416 1.875-6.875 2.833-10.291 2.417 1.583 4.875 3.166 7.292 4.75.25 18 .708 36.041 2.292 54 3.333-17.25 4.083-34.25 3.333-51.75l3.625-.334c-.417 26.75-.167 53.209 5.333 79.5 10.75 8.375 21 17.167 30.792 26.625 17.75 17.667 39.917 28.709 59 44.959 29.542 24.041 69.625 31.833 105.458 17.833 19.125-7.542 38.542-14.292 57.75-21.583 10.959-4.209 14.75-13.5 19.959-23.125 8.875-15.667 15.958-29.792 15.416-48.417 6.5-3.667 13-7.292 19.5-10.875 13.709 15.167 5.959 30.417 1.292 47.5-8.917 24.25-15.583 46.833-39.083 60.958-21.209 10.959-44.167 19.792-66.584 28-29.541 10.459-59.75 9.542-89.708 1.625-11.292 22.334-26.792 41.75-39.417 63.292-9.458 15.708-19.916 30.708-30.291 45.833-29.542.542-58.834 1.459-88.167-2.583-13.458-1.917-28.292.042-41.25-3.875-9.542-6.208-14.917-19.042-22.083-27.833-11.667-13.792-9.792-31.5-19.375-46.959-14.042-24.375-19.584-50.541-27.709-77.125-20.958-.125-43.916 3.292-64.333-1.708-23.625-8.417-40.875-33.708-57.333-51.583-17.5-18.5-33.375-40.625-40.459-65.334-4.916-13.458 13.959-23.75 23.334-29.666 6.958 27.791 20.541 55.791 41.125 76.083 16.416 16.417 33.458 36.333 58 39.083 24.5 2.084 47.583 4.042 68.916-10.416 32.917-13.792 63.667-30.834 91.625-53.125-.208-20.875.375-41.709.25-62.584Z" style="fill:#201107;fill-rule:nonzero"/>
  <path d="M1786.93 1802.86c-.583 30.709-2.833 61.917-.333 92.542 2.166 9.5 3.708 11.208 13.916 10.208 3.75-11.708 7.042-23.625 10.625-35.375 2.292 14.709.709 23.667-4.541 37.25-5.084 14-2.334 28.667-7.959 42.584-6.916.041-13.791-.209-20.75-.792 1.334-9.125 2.917-18.292 3.959-27.458 2.666-21.875-5.125-42.084-1.167-64.125 2.958-16.334 3.083-31.209 1.292-47.667-3.667-.417-7.334-.75-11.042-1.083 5.333-2.084 10.667-4.084 16-6.084Z" style="fill:#c3c2c3;fill-rule:nonzero"/>
  <path d="M1797.77 1804.19c4.125 7.083 7.959 14.291 11.834 21.5 1.458-5.375 2.916-10.792 4.375-16.167 2.666 1.917 5.333 3.792 8 5.667l-6.875-2.625c.333 19.583.708 38.458-3.959 57.666-3.583 11.75-6.875 23.667-10.625 35.375-6.541-10.291-10.333-18.583-9.416-31.25 1.166-22.75-1.375-48.708 6.666-70.166Z" style="fill:#100301;fill-rule:nonzero"/>
  <path d="M1770.93 1808.94c3.708.333 7.375.666 11.042 1.083 1.791 16.458 1.666 31.333-1.292 47.667-3.958 22.041 3.833 42.25 1.167 64.125-1.042 9.166-2.625 18.333-3.959 27.458-7.541-.917-15.666-1.667-22.791-4.458-6.042-4.959-9.459-13.667-12.959-20.5-6.416-14.334-14-27.917-22.291-41.25-.042 7-.084 14.041-.417 21.041l-2.5 3.875c-7.042-18.666-12.125-37.083-22.667-54.291l-.291-2.125c1.083-5 2.208-10 3.333-14.959l10.5.75c1.833 7.75 3.667 15.459 5.5 23.209 17.125-7.667 34.292-9.459 52.667-10.709 2.458 20.125-.917 47.417 12.25 63.584 1.125-23.375-1.584-46.459 1.708-69.75.667-6.792 1-13.584 1.292-20.375-6.792.875-13.625 1.75-20.459 2.583 1.5-4.958 3.042-9.917 4.625-14.833 1.834-.75 3.709-1.459 5.542-2.125Z" style="fill:#e5e2e3;fill-rule:nonzero"/>
  <path d="m1815.1 1812.57 6.875 2.625 2.791 1.708-8.625-2.375c-.125 11.708.125 23.375.959 35 3.958 3.292 11.958 6.542 11.416 12.792-.333 15.916-7.166 32.25-11.875 47.416-3.375-.75-6.708-1.5-10.041-2.25 5.25-13.583 6.833-22.541 4.541-37.25 4.667-19.208 4.292-38.083 3.959-57.666Z" style="fill:#fdfdfe;fill-rule:nonzero"/>
  <path d="M1765.39 1811.07c-1.583 4.916-3.125 9.875-4.625 14.833 6.834-.833 13.667-1.708 20.459-2.583-.292 6.791-.625 13.583-1.292 20.375-4.625 2.125-9.292 4.166-13.958 6.166-18.375 1.25-35.542 3.042-52.667 10.709-1.833-7.75-3.667-15.459-5.5-23.209l-10.5-.75c-1.125 4.959-2.25 9.959-3.333 14.959-2.209-6.667-3.709-13.25-4.959-20.125 5.375-.584 10.709-1.167 16.084-1.75 20.5-4.875 40.708-10.75 60.291-18.625Z" style="fill:#c1c1c1;fill-rule:nonzero"/>
  <path d="m1816.14 1814.52 8.625 2.375c30.167 16.167 54 40.292 83.334 57.792-19.625 23.458-35.875 50-52.125 75.875-.75-3.959-1.459-7.959-2.209-11.917-17.625 12.208-35.208 8.125-55.125 11.417 5.625-13.917 2.875-28.584 7.959-42.584 3.333.75 6.666 1.5 10.041 2.25 4.709-15.166 11.542-31.5 11.875-47.416.542-6.25-7.458-9.5-11.416-12.792-.834-11.625-1.084-23.292-.959-35Z" style="fill:#e0dedf;fill-rule:nonzero"/>
  <path d="M1829.52 1836.48c21.75 9.334 37.875 28.709 58.709 40.292-6.625 13.125-13.834 22.458-24.792 32.25 3.125-9.458 6.625-18.792 10.25-28.083-13.25-13.792-33.125-18-45.875-31.25.25-4.417.833-8.834 1.708-13.209Z" style="fill:#b3b1b1;fill-rule:nonzero"/>
  <path d="M1779.93 1843.69c-3.292 23.291-.583 46.375-1.708 69.75-13.167-16.167-9.792-43.459-12.25-63.584 4.666-2 9.333-4.041 13.958-6.166Z" style="fill:#fefefe;fill-rule:nonzero"/>
  <path d="M1719.85 1883.07c8.291 13.333 15.875 26.916 22.291 41.25 3.5 6.833 6.917 15.541 12.959 20.5 7.125 2.791 15.25 3.541 22.791 4.458 6.959.583 13.834.833 20.75.792 19.917-3.292 37.5.791 55.125-11.417.75 3.958 1.459 7.958 2.209 11.917-3.417 4.625-7.125 9-10.834 13.375-31.666.541-63.666 1-95.25-.75-12.75-9.875-18.583-29.209-26.208-43.042l.5-5.958-5.125-.125.375-9.959c.333-7 .375-14.041.417-21.041Z" style="fill:#fafafb;fill-rule:nonzero"/>
  <path d="M1054.81 1935.48c3.333 2.292 6.625 4.584 9.917 6.917-3.5 18.917-8.834 37.292-10.875 56.458-2.709 23-8.875 45.25-18.584 66.209-6.666-11.042-13.5-22-20.708-32.75 20.792-28.417 36.375-61.542 40.25-96.834Z" style="fill:#512f11;fill-rule:nonzero"/>
  <path d="M1064.72 1942.4c36.875 35.333 78.291 64.25 118.916 95 27.584 20.75 57.125 37.042 86.167 55.458 17.875 11.209 35.083 23.417 53.125 34.334 23.292 14.458 47.458 26.791 69.792 42.75-6.542-1.25-13.084-2.542-19.625-3.959-41.417-22.416-88.125-33.458-130.25-54.791-40.375-20.875-80-43.875-116.875-70.542-21.625-15.167-41.834-32.292-63.542-47.333-2.917 1.833-5.75 3.666-8.583 5.541 2.041-19.166 7.375-37.541 10.875-56.458Z" style="fill:#5b371a;fill-rule:nonzero"/>
  <path d="M1062.43 1993.32c21.708 15.041 41.917 32.166 63.542 47.333 36.875 26.667 76.5 49.667 116.875 70.542 42.125 21.333 88.833 32.375 130.25 54.791-35.792-4.666-70-16.166-105.667-21.458-22.042-3.375-44.417-5.917-66.667-7.417-38.833-2.833-76.625 10.75-106.666 35.084-18.167-36.375-38-72.167-58.834-107.125 9.709-20.959 15.875-43.209 18.584-66.209 2.833-1.875 5.666-3.708 8.583-5.541Z" style="fill:#654233;fill-rule:nonzero"/>
  <path d="M2955.51 2156.4c-10.583-.333-21.125.25-31.666.875 9.208 8.333 18.833 16.167 28.666 23.75 37.959 29.792 70.709 65.375 101.875 102.125 9.959 11.375 17.834 26.25 29.834 35.5 10.75-1.125 21.458-5.125 31.75-8.375 24.416-8.375 49.75-13.458 74.083-22.125 10.25 8.5 20.417 17.208 30.042 26.417-11.709 1.625-23.292 3.583-34.625 7.041-27.75 8.584-56.084 15-83.709 24.125 42.334 65.209 79.584 133.25 109.917 204.875 3.75 8 7.208 18.209 14 24.084 11.5.458 23.333-1.459 34.708-2.875 35.834-5.209 72-6.459 107.959-10.834.166-8.208.375-16.375.166-24.583 4.125 22.625 3.875 49-.583 71.583.083-5.5.083-10.958 0-16.416-44.333 3.125-89.042 6.458-132.875 13.958 10 28.917 22.042 57 31.542 86.125 10.208 26.542 15.5 52.875 28.875 77.792-6.125 10.708-12.792 21-19.084 31.583-24.5-63.292-42.125-129.75-69.375-191.917-21.166 1.042-42.333 5.209-63.208 8.792-74.958 13.792-149.792 30.292-222.875 52.042 37.625 73.875 69.417 150.416 97.458 228.375 2.959 7.541 5.959 16 11.125 22.291 7.334 4.584 16.5 6.834 24.75 9.25 39.792 10.667 78.917 23.959 118.042 36.917-6.375 8.583-13.125 16.833-20.292 24.792-36.333-12.084-72.625-25.459-109.875-34.375 6.5 25.958 17.459 49.541 25.875 74.916 3.209 9.709 8.042 18.5 13.375 27.125-8.5 7.5-17.208 14.792-25.75 22.25-10.041-34.583-24.333-67.375-35.791-101.541-3.917-10.667-7.209-22.584-13.667-32-7.917-5.25-18.292-7.334-27.333-9.875-50.834-12.417-100.584-24.5-152.292-31.292-.083-9.458-.583-18.875-1.25-28.292 57.25 7.125 113.042 20.292 169.042 33.709-2.709-8.959-5.459-17.875-8.834-26.625-20.916-52.875-42.375-106.875-66.791-158.584-8-16.583-15.625-34.083-25.667-49.375-35.667 9.125-70.333 22.5-105.208 34.334-2.792-8.042-5.792-16-9-23.834 33.125-14.041 67.833-23.083 101.416-35.875-19.208-37.291-43.5-72.208-67.5-106.625-15.583-20.333-31.791-40.75-50.083-58.791-19.333 9.083-37.542 20.791-54.625 33.666l.5 7.625c-1.958-6.291-3.5-12.708-5.083-19.083 17.083-22.917 31.75-47.375 49.041-70.125 4.5 5.042 8.459 17.708 17.25 12.542 52.959-28.584 106.125-56.084 161.625-79.667 40.709-17.583 83.292-28.833 124.834-43.875-23.834-35.083-53-66.917-83.375-96.458-23.584-24.25-49.417-45.875-78.25-63.625-6.875-4.292-14.459-6.167-22.375-7.459 26.541-4.208 56.75-9.833 83.291-3.958Z" style="fill:#3e2d1e;fill-rule:nonzero"/>
  <path d="M2923.85 2157.27c10.541-.625 21.083-1.208 31.666-.875 46.75 15.417 94.709 33.917 136.5 60.208 33.667 22.042 66.709 46.25 98.042 71.542-24.333 8.667-49.667 13.75-74.083 22.125-10.292 3.25-21 7.25-31.75 8.375-12-9.25-19.875-24.125-29.834-35.5-31.166-36.75-63.916-72.333-101.875-102.125-9.833-7.583-19.458-15.417-28.666-23.75ZM2872.22 2160.36c7.916 1.292 15.5 3.167 22.375 7.459 28.833 17.75 54.666 39.375 78.25 63.625 30.375 29.541 59.541 61.375 83.375 96.458-41.542 15.042-84.125 26.292-124.834 43.875-55.5 23.583-108.666 51.083-161.625 79.667-8.791 5.166-12.75-7.5-17.25-12.542 13.209-18.833 7.167-39 6.084-60.375-3.834-35.417-3.334-74.042 16.041-105.292 19.084-29.666 43.167-57.083 66.667-83.333 9.375-10.292 19.208-21.917 30.917-29.542Z" style="fill:#221811;fill-rule:nonzero"/>
  <path d="M3220.1 2314.57c40.125 42.083 82.458 84.625 113.125 135.416 13.291 26.75 25.875 58.084 35.291 86.417.209 8.208 0 16.375-.166 24.583-35.959 4.375-72.125 5.625-107.959 10.834-11.375 1.416-23.208 3.333-34.708 2.875-6.792-5.875-10.25-16.084-14-24.084-30.333-71.625-67.583-139.666-109.917-204.875 27.625-9.125 55.959-15.541 83.709-24.125 11.333-3.458 22.916-5.416 34.625-7.041Z" style="fill:#211811;fill-rule:nonzero"/>
  <path d="M3074.43 2354.32c24.167 29.041 41.458 65.458 60.833 97.833 21.375 41.583 43.084 83.417 59.417 127.25-84.708 14.208-168.75 31.833-251.625 54.375-11.5 3-23.542 8.667-35.458 9.042-11.792-13.625-18.834-31.459-28.917-46.459-27.958-42.666-57.917-84.958-92.75-122.375 21.708-14.75 45.125-26.041 68.625-37.5 61.708-30.666 126.125-54.291 191.5-75.75 9-2.791 18.917-6.25 28.375-6.416ZM2762.68 2486.82c18.292 18.041 34.5 38.458 50.083 58.791 24 34.417 48.292 69.334 67.5 106.625-33.583 12.792-68.291 21.834-101.416 35.875-22.167-54.041-47.209-106.458-70.292-160l-.5-7.625c17.083-12.875 35.292-24.583 54.625-33.666Z" style="fill:#221811;fill-rule:nonzero"/>
  <path d="M2703.47 2509.02c1.583 6.375 3.125 12.792 5.083 19.083 23.083 53.542 48.125 105.959 70.292 160 3.208 7.834 6.208 15.792 9 23.834 19.875 53.833 33.5 109.166 37.458 166.541.667 9.417 1.167 18.834 1.25 28.292-.708 31.083-3 62.042-9.042 92.583-4.916 26.917-6.833 53.5-16.541 79.334-12 32.333-11.959 62.291-31.375 91.541-6.959 11.042-13.25 22.375-18.709 34.25-20.875 51.125-55.958 89.709-95.041 127.542 3.833-.25 7.708-.542 11.583-.833-36.708 14.458-79.292 28.958-112.667 51.333-10.208 5.625-5.666 16.208-7.541 26.167-17.75.083-29.959 9.333-45.084 17-44.125 24.875-89.75 47.666-136.041 68.25-32.334 15.916-65.417 30.041-99.917 40.666-7.167-5.041-14.458-10.333-23.625-10.25-15.208.25-30.208 2.125-45.458.667 13.375-5.083 26.75-10.125 40.416-14.292 43.917-13.708 85.292-32.291 126.709-52.083 28.083-12.542 55-26.75 81.5-42.333 30.833-12.375 59.791-29.75 89.166-45.417 47.334-28.292 94.084-56.542 130-99 61.917-75.958 93.917-165.458 114.792-260.042 8.458-34.25 14.208-68.791 13.708-104.166-1.541-79.084-22.041-154.375-53.583-226.5-17.375-43.5-39.083-84.959-56.708-128.334-3.667-16.25 12.25-31 20.375-43.833Z" style="fill:#543215;fill-rule:nonzero"/>
  <path d="M2676.1 2550.02c2.333.917 4.666 1.833 7 2.833 17.625 43.375 39.333 84.834 56.708 128.334 31.542 72.125 52.042 147.416 53.583 226.5.5 35.375-5.25 69.916-13.708 104.166-20.875 94.584-52.875 184.084-114.792 260.042-35.916 42.458-82.666 70.708-130 99-29.375 15.667-58.333 33.042-89.166 45.417 25.541-22.459 53.958-41.042 80-62.875 22.583-18.667 43.166-40.417 62.458-62.459 18.375-20.833 30.958-43.791 45.167-67.416 15.208-26.209 29.916-51.542 40.625-80 15.75-40.084 24.583-82.042 29.416-124.75 7.875-47.625 5.875-98.875-10.958-144.459-15.417-43.458-40.042-79.541-66.458-116.791-18.459-25.792-32.584-53.875-49.667-80.5 35.375-40.667 68.375-83.25 99.792-127.042Z" style="fill:#654233;fill-rule:nonzero"/>
  <path d="M3367.93 2591.57c.083 5.458.083 10.916 0 16.416-15.167 58.417-43.25 109.25-72.458 161.459-13.375-24.917-18.667-51.25-28.875-77.792-9.5-29.125-21.542-57.208-31.542-86.125 43.833-7.5 88.542-10.833 132.875-13.958Z" style="fill:#211811;fill-rule:nonzero"/>
  <path d="M3207.01 2609.11c27.25 62.167 44.875 128.625 69.375 191.917-32.583 56.5-66.916 112.208-104.083 165.75-39.125-12.958-78.25-26.25-118.042-36.917-8.25-2.416-17.416-4.666-24.75-9.25-5.166-6.291-8.166-14.75-11.125-22.291-28.041-77.959-59.833-154.5-97.458-228.375 73.083-21.75 147.917-38.25 222.875-52.042 20.875-3.583 42.042-7.75 63.208-8.792ZM2893.06 2677.61c10.042 15.292 17.667 32.792 25.667 49.375 24.416 51.709 45.875 105.709 66.791 158.584 3.375 8.75 6.125 17.666 8.834 26.625-56-13.417-111.792-26.584-169.042-33.709-3.958-57.375-17.583-112.708-37.458-166.541 34.875-11.834 69.541-25.209 105.208-34.334Z" style="fill:#221811;fill-rule:nonzero"/>
  <path d="M1629.93 2739.23c39.833-2.291 78.042-3.25 116.875 7.709 60.583 16.25 106.708 51.541 157.542 86.375 40.958 36.041 81.541 75.583 112.791 120.5 23.667 33.041 47.417 64.333 66.125 100.583 26.667 46.292 45.834 97.542 58.584 149.333 5 31.792 14.583 63.459 15.5 95.625 3.666 56.834 8.458 113.875 8.75 170.834.708 22.291-5.209 42.958-12 63.875-42.334 13.208-88.375 17.25-132.459 19-45.625 4.5-91.458 2.583-137.541 3-36.042 1.083-72.334 1.083-108.334-1.584-65.458-6.416-130.625-15.708-195.833-24.166-36.292-4.459-72.5-9.375-108.25-17.125-50.917-9.709-100.417-24.375-151.083-35.25-54.542-11.459-108.292-26.167-159.459-48.5-2.083-38.167 2.584-75.625 7-113.459 6.292-39.833 19-79.833 30.375-118.458 14.542-51.167 32.042-103.792 58.459-150.167 19.375-36.375 40.458-72.541 65.666-105.291 48.375-67.542 113.375-124.292 186.709-163.334 37-20.5 78.416-34.916 120.583-39.5Z" style="fill:#b2875c;fill-rule:nonzero"/>
  <path d="M2826.56 2906.77c51.708 6.792 101.458 18.875 152.292 31.292 9.041 2.541 19.416 4.625 27.333 9.875 6.458 9.416 9.75 21.333 13.667 32 11.458 34.166 25.75 66.958 35.791 101.541-37.833 32.084-73.75 67.042-113.666 96.459-30.584 21.708-60.75 44.166-92.25 64.5-20.5-14.167-38.25-31.584-58.709-45.792-10.041-6.708-15.416-16.333-21.416-26.417 19.416-29.25 19.375-59.208 31.375-91.541 9.708-25.834 11.625-52.417 16.541-79.334 6.042-30.541 8.334-61.5 9.042-92.583ZM3042.14 2957.19c37.25 8.916 73.542 22.291 109.875 34.375-21.875 24.083-46.666 45.666-70.625 67.666-5.333-8.625-10.166-17.416-13.375-27.125-8.416-25.375-19.375-48.958-25.875-74.916Z" style="fill:#221811;fill-rule:nonzero"/>
  <path d="M2769.6 3170.23c6 10.084 11.375 19.709 21.416 26.417 20.459 14.208 38.209 31.625 58.709 45.792-9.75 6-19.584 11.875-29.5 17.625-9.417-12.209-18.917-21-32.084-29.084 1.709 14.25 5.375 27.667 10.5 41-9.041 4.792-18.083 9.5-27 14.459-6.916-27.542-11.708-55-20.75-81.959 5.459-11.875 11.75-23.208 18.709-34.25Z" style="fill:#3e2c1e;fill-rule:nonzero"/>
  <path d="M2750.89 3204.48c9.042 26.959 13.834 54.417 20.75 81.959-32.75 20.75-69.333 29-104.208 44.75-3.875.291-7.75.583-11.583.833 39.083-37.833 74.166-76.417 95.041-127.542Z" style="fill:#221811;fill-rule:nonzero"/>
  <path d="M2788.14 3230.98c13.167 8.084 22.667 16.875 32.084 29.084-7.125 4.083-14.334 8.083-21.584 11.916-5.125-13.333-8.791-26.75-10.5-41Z" style="fill:#1e150f;fill-rule:nonzero"/>
  <path d="M2547.22 3408.69c-.792 8.333-4.125 14.916.583 22.666 12.25 22.5 30.375 42.292 46.542 62.042 36.041 42.333 70.541 85.583 101.458 131.833 13.667 20.25 16.958 47.542 15.333 71.417-2.958 25.583-11.041 52.708-27.625 72.875-18.291 23.125-40.5 43.708-65.208 59.792-21.833 12.166-47.375 18.5-71.667 23.666-44.708 8.875-86.958-13.291-114.458-47.666-24.333-31.917-47.208-64.959-66-100.417-19.292-36.75-43.583-68.667-60.042-106.875-9.791-23.333-23.875-44-39.958-63.417 34.5-10.625 67.583-24.75 99.917-40.666 46.291-20.584 91.916-43.375 136.041-68.25 15.125-7.667 27.334-16.917 45.084-17ZM1059.72 3415.02c29.625 14.167 57.75 31.542 86.916 46.625 20.084 9.792 41.334 17.208 61.959 25.792 39.666 16.125 80.625 26.916 121.75 38.333-18.5 37.417-47.5 70.792-68 106.333-17.667 31.375-40.834 59.084-59.667 89.834-11.5 19-26.708 34.208-44.208 47.666-22.667 19.709-56.625 30.25-86.334 28.459-36.833-6-72.25-25.125-101.291-48.125-24-18.959-35.667-44.084-50.417-70.125-15.875-27.25-14.667-63-6.083-92.417 14-47.958 51.625-87.417 88.625-119.292 20.666-16.541 39.208-33.25 56.75-53.083Z" style="fill:#4b3423;fill-rule:nonzero"/>
</svg>
