<svg xmlns="http://www.w3.org/2000/svg" xml:space="preserve" style="fill-rule:evenodd;clip-rule:evenodd;stroke-linejoin:round;stroke-miterlimit:2" viewBox="0 0 3756 3749">
  <path d="M0 0h3755.37v3748.99H0z" style="fill:none"/>
  <path d="M1204.17 60.625c77.708-1.542 155.666-1.458 233.375.25 19.416 3.292 39.291 2.5 58.5 6.583 21 .75 41.416 3.709 62.166 6.792 17.959 3.875 36.167 6.292 54.209 9.75 15.291 3.292 30.958 5.083 46.083 9.042 3.375.291 10.417 3.875 10.417 3.875 24.458 2.375 47.666 8.333 68.541 21.75l15.25 7.083c39.417 16.417 76.625 40.292 111.209 65.125 45.375 31.417 86.166 68.667 122.708 109.958 31.792 34.084 61.917 72.667 81.125 115.375 3.042 10.792 6.5 21.5 10.167 32.084 4.5-.209 9-.459 13.541-.709 6.834-4.958 13.917-9.541 21.167-13.833 7.083-2.542 14.042-5.208 21-8 14.75-5.875 30.083-9.458 45.292-13.792 4.208-1.625 8.375-3.333 12.541-5.166 30.959-2.167 61.125-1.917 91.25 6.458 5.959 2.083 11.875 4.25 17.834 6.25 14.083 6.458 27.583 13.625 39.208 24.083 27.333 24.667 51.042 53.125 68.042 85.917 1.333 4.625 2.583 9.292 3.75 13.917 0 0 6.958 19.458 8.458 29.125 0 0 5.208 85.125 2.292 127.541-3 9.875-5.75 19.875-8.25 29.917-5.417 11.375-10.625 22.417-18.584 32.292-28.208 33.083-60.791 56.5-94.625 83.291 2.084 7.25 4.292 14.459 6.459 21.667 5.916 17.875 11.25 36 16.625 54.042 2.125 5.166 4.125 10.375 6.125 15.541 2.958 7.209 5.833 14.459 9.125 21.542l.666 4.208c15.167 32.5 31.459 62.375 50.834 92.542 17.125 31.042 41.25 55.125 63.916 81.917 14.292 15.208 29.917 29.083 43.792 44.708 2.667 26.333-6.167 48.458-15.667 72.25-2.791 6.875-5.666 13.792-8.5 20.667-17.708 34.125-38.125 66.791-58.416 99.375-21 29.458-39.125 60.333-62.625 87.5-16.334 19.791-35.667 36.333-52.334 55.833-14.291 16.292-28.166 33.042-42.708 49.083-14.792 15.042-30 29.584-44.333 45.042.333 4.292.666 8.583 1.041 12.875-2.541-3.25-5.083-6.542-7.625-9.833-3.125 1.541-6.25 3.083-9.375 4.583 9.084-22.5 25.375-37.375 41.334-54.917 11.166-11.25 22.375-21.458 28.791-36.333-9.041 5-17.541 10.833-25.875 16.917l-1.291-8.042c11.75-12 24.666-22.667 36.166-34.833 15.834-16.584 26.292-37.084 41.917-53.959 21.292-23.5 41.875-47.416 59.125-74.125 27.875-43.375 59.375-89.833 78.458-137.791 4.334-13.584 11.25-31.667 7.5-45.792-10.875-16.167-27.916-27.875-40.166-43.208-22.292-27.417-44.75-49.875-60.625-80.75-12.917-25.292-30.542-46.042-40.417-72.042-14.042-39-26.417-78.417-37.042-118.458-3.75-15.25-18-36.167-12.208-51.542 9.167-10.292 22.5-17.125 33.375-25.625 23.292-17.792 46.708-37 65.417-59.708 21.125-24.542 25.75-61.875 26.541-93.084 1.5-32.666-8.708-61.416-20.875-91.166-20.041-46.417-57.166-90.792-104.958-109.792-27.375-8.125-62.667-15.792-89.542-2.917-29.541 11.209-58.583 17.125-86.125 34.542-11.25 7.625-21.5 16.667-32.5 24.708-4.833-4.291-10.708-8.5-13.583-14.458 1.292-7.208 4.25-14 6.958-20.833-7.083-32.709-25.583-57.334-43.958-84.334-16.292-23.041-36.167-44.5-54.792-65.75-38.791-40.708-81.708-78.083-128.416-109.5-33.917-20.833-69.042-39.958-105.5-55.958-50.042-20.542-100-28.417-152.584-38.75-45-8.833-90.208-8.542-135.5-14.167-47.833-6.583-97.416-2.208-145.791-5.041-30.375-2.125-60.667 1.958-91.125 1.791-36.584 3.459-76.584 5.084-111.334 16.584-18.916 6.291-32.375 18.083-50.958 27.041-39.667 17.084-74.5 48.584-105.5 78.209-16.917 17.958-36.208 34.25-51.292 53.75-9.125 10.291-1.958 26.041-.041 38.083-4.5 6.875-9.084 13.75-13.709 20.583-15.583-12.666-27.875-28.416-43.958-40.5-23.417-18.083-40.875-37.75-71.583-43.041-27.834-3.5-60.667-3.834-86.042 9.791-41.75 20.875-77.25 61-85.875 107.667-6.083 27-.5 57.042 8.792 82.708 12.583 27.667 34.166 52.125 58.75 69.834 13.166 9.875 28.875 15.708 41.875 25.666 4.208 13.084-5.667 29.584-11.584 40.875-17.333 31.417-44.416 48.667-69.666 72.792-14.167 13.5-29.875 24.875-45.584 36.5-30.583 16.625-58.833 36.917-89.666 53.167-40.459 21.166-79.625 40.916-126 44.666 2.625 41.209 7.458 82.875 12.291 123.959 12.125 63.708 14.959 123 36.417 185.291 4.375 19.209 10.333 36.709 18.083 54.75 7.792 17.834 9.084 37.625 17.125 55.125 6.417 14.042 20.209 19.959 27.625 33.625 8.625 14.959 17.375 29.834 26.209 44.625 9.041 14.542 8.041 31.334 16.708 45.834 11.167 18.875 23.5 37 38 53.5 9.5 10.666 16.542 22.833 22.958 35.541-3.25-.416-6.541-.833-9.791-1.25-1.625-4.583-3.25-9.166-4.875-13.75-2.875-.958-5.709-1.958-8.542-2.958l-5.708-2.167c-20.167-24.75-38.584-51.166-56.042-77.916-32.125-53.292-64.583-107.667-89.208-164.875-3.542-8.292-7.167-16.5-11.084-24.625l-.5-3.875c-2.833-7.042-5.25-14.209-8.041-21.25l-.5-3.667c-2.584-6.917-4.5-14.042-6.875-21.042-1.875-12.583-4.875-25.041-8.209-37.291-2.5-11.167-4.958-22.375-6.833-33.667-2.167-11.083-3.208-22.333-5.167-33.458-1.416-14.167-4.083-27.917-7.333-41.75-1.75-8.334-2.708-16.584-3.958-25.042-3.375-16.208-2.709-32.458-4-49.625-4.542-21.708-3.042-44.708-4.084-66.833-.708-12.167 3.375-21.084 9.584-31.084 4.791-.291 9.583-.625 14.375-.958 10.916-3.792 22.041-6.833 33.083-10.292 5.833-2.166 11.708-4.375 17.583-6.541 9.334-4.917 18.625-9.834 28-14.667 60.042-30.542 116.542-67.375 169.25-109.292 20-14.791 37.834-32 51.5-52.916 3.917-4.917 2.875-13.167 3.417-19.25-35.75-20.25-64.625-51.292-82.708-88.209-1.625-4.125-3.25-8.25-4.917-12.375-.458-2.791-.917-5.583-1.375-8.416-2.583-6.834-4.625-13.834-7.125-20.709-.958-32.958-4.417-63.625 5.125-95.875 2.833-5.75 5.417-11.625 8.042-17.458 10.666-23.625 28.333-40.292 46.375-58.25 17.041-17.083 39.916-26.625 62.541-33.875 4.334-1.417 8.625-2.958 12.875-4.625 24.584-.833 51.292-3.583 75.375 2.333 2.75.625 5.5 1.209 8.25 1.834 5.5 2.5 11 4.958 16.459 7.541l6.875 2.917c20 6.542 35.083 20.958 54.75 27.875 33-37.667 69.333-72.625 107.5-104.958 36.75-28.375 78.541-50.417 122.041-66.459 8.417-2.5 16.792-5.25 25.167-7.958 31.958-10.708 66.708-13.667 100.292-13.5Z" style="fill:#573315;fill-rule:nonzero"/>
  <path d="M1200.54 94.208c30.458.167 60.75-3.916 91.125-1.791 48.375 2.833 97.958-1.542 145.791 5.041 45.292 5.625 90.5 5.334 135.5 14.167 52.584 10.333 102.542 18.208 152.584 38.75 36.458 16 71.583 35.125 105.5 55.958 46.708 31.417 89.625 68.792 128.416 109.5l2.25 17.5c-26.041-21.833-47.458-44.333-79.583-57.625-68.708-31.041-134.167-64.75-207.375-84.541-46.75-12.542-94.125-24.334-141.917-32.084-36.083-3.083-71.583-7.333-107.833-6.25-38.417-1.083-76.042 3.75-114.292 6.917-79.25 12.583-157.666 29.458-235.583 48.625-22.958 5.583-45.083 14.167-65.25 26.583-16.417 10.167-30.708 25.167-45.667 37.667-40.791 33.792-73.958 78.375-101.75 123.167-24.25 38.208-48.791 76.166-73.666 113.875-18.084 27.666-34.042 56.333-59.584 77.875-21.041 17.875-42.833 34.833-63.625 53-26.625 23.333-55.833 37.208-85.958 56.125-13.583 8.583-27.333 15.291-42.417 20.833 8.5-8.917 16.917-18 25.625-26.75 15.709-11.625 31.417-23 45.584-36.5 25.25-24.125 52.333-41.375 69.666-72.792 5.917-11.291 15.792-27.791 11.584-40.875-13-9.958-28.709-15.791-41.875-25.666-24.584-17.709-46.167-42.167-58.75-69.834-9.292-25.666-14.875-55.708-8.792-82.708 8.625-46.667 44.125-86.792 85.875-107.667 25.375-13.625 58.208-13.291 86.042-9.791 30.708 5.291 48.166 24.958 71.583 43.041 16.083 12.084 28.375 27.834 43.958 40.5 4.625-6.833 9.209-13.708 13.709-20.583-1.917-12.042-9.084-27.792.041-38.083 15.084-19.5 34.375-35.792 51.292-53.75 31-29.625 65.833-61.125 105.5-78.209 18.583-8.958 32.042-20.75 50.958-27.041 34.75-11.5 74.75-13.125 111.334-16.584Z" style="fill:#805d44;fill-rule:nonzero"/>
  <path d="M1425 152.833c36.25-1.083 71.75 3.167 107.833 6.25 47.792 7.75 95.167 19.542 141.917 32.084 73.208 19.791 138.667 53.5 207.375 84.541 32.125 13.292 53.542 35.792 79.583 57.625l-2.25-17.5c18.625 21.25 38.5 42.709 54.792 65.75 18.375 27 36.875 51.625 43.958 84.334-2.708 6.833-5.666 13.625-6.958 20.833 2.875 5.958 8.75 10.167 13.583 14.458 17.625 11.959 23.875 29.542 31.709 48.334 19.833 50.416 41.458 97.416 53.791 150.583 10.5 47.458 21.375 92.708 25.209 141.542 1.625 41.708 6.083 83.333 8.875 125 2.208 50.25-1.834 102.333-16.292 150.708-7.417 25.375-10.708 50.167-22.417 74.208-17.333 36.334-39.416 70.875-63.666 102.917-12.917 16.792-7.042 33.208-10.209 52.708-4.291 25.5-9.041 52.625-19.5 76.292-10.833 25.292-19.25 49.375-37.416 70.667-25.417 32-57.625 53.333-79.125 87.583-16.209 24.833-36.25 46.333-57.834 66.542-17.125.708-33.875 2.75-49.75 9.583-31.708 13.875-66.083 19.875-99.041 30.708-66.334 12.5-132.709 19.667-200 25.084-33.25 2.208-66.625-.5-99.875 1.583-32.042 3.333-63.625-2-95.959-1.625-18.458.375-35.458-7.125-51.458 3.667 36.375 13.958 79.125 16.375 117.667 20.666 29.958 3.667 60 .5 89.958 4.667 27.542 3.958 53.917-.417 81.333-2.042 31.334-.875 62.542-3.708 93.792-6.375 28.583-3.875 57-9.25 85.292-14.916 24.5-4.834 47.291-13.584 70.916-21.292 2.417 3.625 4.834 7.208 7.209 10.833-42.417 17.542-79.334 50.417-113.834 80.375-33.041 28.584-63.333 59.084-87.833 95.459-7.333 11.458-14.917 22-26.542 29.541-25.833-18.541-51.708-36.25-80.958-49.083-43.5-23.125-90.583-35.708-138.833-44.25-41.75-6.125-83.792-8.542-125.875-4.458-25.084 2.708-50.084 1.25-75.042 5-61 8.25-120.417 26.375-175.583 53.75-17.75 9.166-33.542 21.083-52.459 28.125-19.583-46.959-45.916-91.084-67.416-137.167-13.5-29.75-35.125-47-42.084-78.167-8.875-34.958-12.916-71.041-20-106.416 8.959 1.125 17.959 2.125 26.959 2.958-12.584-17.042-30.084-22.083-48.084-31.333-41.5-19.792-78.833-44.75-117.083-69.875-37.542-22.834-70.167-51.375-102.375-81-19.75-17.417-33.625-38.084-49.5-58.834-23.875-31.166-45.042-64.333-63.917-98.791-13.541-24.709-27.291-48.084-38.541-73.792-11.334-24.792-17.334-50.375-33.167-73.042-21.458-62.291-24.292-121.583-36.417-185.291-4.833-41.084-9.666-82.75-12.291-123.959 46.375-3.75 85.541-23.5 126-44.666 30.833-16.25 59.083-36.542 89.666-53.167-8.708 8.75-17.125 17.833-25.625 26.75 15.084-5.542 28.834-12.25 42.417-20.833 30.125-18.917 59.333-32.792 85.958-56.125 20.792-18.167 42.584-35.125 63.625-53 25.542-21.542 41.5-50.209 59.584-77.875 24.875-37.709 49.416-75.667 73.666-113.875 27.792-44.792 60.959-89.375 101.75-123.167 14.959-12.5 29.25-27.5 45.667-37.667 20.167-12.416 42.292-21 65.25-26.583 77.917-19.167 156.333-36.042 235.583-48.625 38.25-3.167 75.875-8 114.292-6.917Z" style="fill:#775237;fill-rule:nonzero"/>
  <path d="M738.417 297.875C767 308.792 793.75 321.833 813 346.583c-8.083 6.167-13.25 12.917-24.458 10.584-18.417-4.459-34.25-18.959-51.792-26.375-14.042-6.5-32.792-12.417-46.708-2.625-17.25 12.166-33.125 28.791-43.25 47.375-8.667 15.166-9.084 34.791-5.917 51.541 3.792 16.709 17 25.292 29.167 35.75-4.417 6.459-6.709 16.75-15.709 17.917-21.083-7.375-34.625-30.833-38.791-51.708-3.292-21.542-3.292-45.417 4.375-66.084 8.291-23.625 28.166-43.125 48.125-57.458 20.791-14.667 46.833-15.458 70.375-7.625Z" style="fill:#533013;fill-rule:nonzero"/>
  <path d="M1554.58 403.917c18.417 28.041 31.625 60.25 41.917 92.083 5 15.958 12.208 29.292 9.542 46.542-39.125-9.834-78.834-14.584-118.542-21.042-27.625-3.625-44.75-36.208-36.167-61.792 7.625-23.833 20.75-47.916 38.917-65.291 17-18.667 52.333-11.25 64.333 9.5ZM1207.88 393.042c17.333.958 29.667 13.291 39.083 26.666 10.167 15.042 22.375 32.459 25.334 50.625 3.416 23.209-3.292 48.042-24.042 61.125-19.5 11.417-44.667 15.167-66.042 22.5-10.25 3.292-20.125 7.584-30.333 10.959-4.917.916-13.708 5.583-17.583 1.25-9.209-6.542-9.417-16.084-8-26.292 5.458-33.333 16.708-66.208 27.25-98.25 4.333-11.917 9.375-26.875 19.166-35.417 9.75-7.541 22.792-12.875 35.167-13.166Z" style="fill:#654233;fill-rule:nonzero"/>
  <path d="M1289.12 401.208c7.125 3.25 12.042 7.5 16 14.292 14.583 24.583 21.333 56.125 14.083 84.042-1.333 6.666-8 6.875-13.166 9.916-.375-17 .708-34.333-1.209-51.208-2.041-17.875-13.041-35.125-20-51.75 1.375-1.792 2.834-3.583 4.292-5.292Z" style="fill:#5b3e28;fill-rule:nonzero"/>
  <path d="M2273 444.875c47.792 19 84.917 63.375 104.958 109.792 12.167 29.75 22.375 58.5 20.875 91.166-.791 31.209-5.416 68.542-26.541 93.084-18.709 22.708-42.125 41.916-65.417 59.708-10.875 8.5-24.208 15.333-33.375 25.625-5.792 15.375 8.458 36.292 12.208 51.542 10.625 40.041 23 79.458 37.042 118.458 9.875 26 27.5 46.75 40.417 72.042 15.875 30.875 38.333 53.333 60.625 80.75 12.25 15.333 29.291 27.041 40.166 43.208 3.75 14.125-3.166 32.208-7.5 45.792-19.083 47.958-50.583 94.416-78.458 137.791-17.25 26.709-37.833 50.625-59.125 74.125-15.625 16.875-26.083 37.375-41.917 53.959-11.5 12.166-24.416 22.833-36.166 34.833-15.542 14.958-28.625 29.792-49 38.458-38.542 16.542-79.584 27.417-119 41.792-37.667 4.292-73.084 18.083-110.792 23.042-28.292 3.5-55.667 7.5-84.042 8.25 21.584-20.209 41.625-41.709 57.834-66.542 21.5-34.25 53.708-55.583 79.125-87.583 18.166-21.292 26.583-45.375 37.416-70.667 10.459-23.667 15.209-50.792 19.5-76.292 3.167-19.5-2.708-35.916 10.209-52.708 24.25-32.042 46.333-66.583 63.666-102.917 11.709-24.041 15-48.833 22.417-74.208 14.458-48.375 18.5-100.458 16.292-150.708-2.792-41.667-7.25-83.292-8.875-125-3.834-48.834-14.709-94.084-25.209-141.542-12.333-53.167-33.958-100.167-53.791-150.583-7.834-18.792-14.084-36.375-31.709-48.334 11-8.041 21.25-17.083 32.5-24.708 27.542-17.417 56.584-23.333 86.125-34.542 26.875-12.875 62.167-5.208 89.542 2.917Z" style="fill:#654233;fill-rule:nonzero"/>
  <path d="M2196.92 529.75c30.083-7.667 60.333 1.292 87.125 15.083 27.916 14.459 44.75 47.417 53.125 76.417 13.666 44.042-16.125 96.333-59.459 109.917-10.791 2.5-32.416 4.166-30.333-12.875 12.25-15 34.958-21.625 48.083-34.959 13.334-17.041 20.209-41.083 11.584-61.833-6.417-16.625-15.125-34.542-31.417-43.5-14.625-8.375-31.208-15.25-47.583-19.167-17.792-4.291-35.459 5.334-53.084 7-5.708-2.5-9.291-10.25-13.25-14.958 11.209-8.833 20.959-17.5 35.209-21.125Z" style="fill:#563316;fill-rule:nonzero"/>
  <path d="M1142.33 653c14.25 5.042 26.959 15 39.625 23.333 22.042 14.584 42.959 28 59.375 49.292 27.625 36.25 52.792 77.958 57.584 124.167 4.166 31.625 7.666 67.833-5.292 97.833-17.5 44.125-51.292 82.542-87.333 112.75-28.917 21.292-58.292 39.958-93.625 48.458-35.667 12.042-71.625 11.125-108.542 7.084-39.958-5.084-75.417-22.667-107.75-45.959-23.542-16.958-37.458-45.541-49.292-71.291-15.583-36-28.958-76.625-28.875-116.167.042-26-.958-53.083 6.75-77.917 8.667-28.875 17.875-55.791 38.417-78.666 23-26.542 51.792-38.625 81.5-55.542 24.458-14.042 51.958-23.5 80.083-25.833 40.625-2.25 78.084-4.75 117.375 8.458Z" style="fill:#5f3b1e;fill-rule:nonzero"/>
  <path d="M1604.12 644.583c14.583-2.125 30.292-.666 45.042.042 25.75 1.375 53.166 3.125 77.666 11.708 18 6.709 34.417 18.25 51.542 27.042 34.042 17.917 64.5 40.5 86.375 72.583 19.375 27 28.208 58.75 34.792 90.917 10.75 67.958-10.125 138.083-43.334 197.083-12.75 21.417-29 44.792-51.25 57.084-16.5 9.333-33.916 17.625-51.75 24.041-21 7.667-43.708 6.209-65.708 6.375-25.5.25-50.125-3.833-75-8.958-16.583-3.292-30.25-11.292-45.792-17.208-31.666-10.875-62.125-20.625-89.583-40.709-25.208-17.416-42.833-41.708-58.208-67.791-15-27.459-27-60.875-23.584-92.542 3.667-45.125 11.334-94.292 32-135.042 17.917-36.833 48.542-67.5 84.417-86.958 16.208-8.875 33.417-13.292 50.042-21.167 13.666-6.25 27.333-14.333 42.333-16.5Z" style="fill:#5b3619;fill-rule:nonzero"/>
  <path d="M1079.17 670.125c24.791-.792 44.083 9.125 66.791 16.958 28.25 9.375 53.417 30.334 73.75 51.584 32.042 34.375 54.667 75.583 53.042 123.833-2.5 38.125-3.417 75.75-24.25 109-2.25-7.917-4.458-15.875-6.417-23.917 9.959-20.583 11.417-41.75 13.417-64.208 1.792-25.75.292-50.917-11.583-74.333-11.209-30.959-31.542-58.709-57.709-78.709-20.5-16.375-45.291-28.125-69.791-37.166-15.917-6.209-32.959-4.25-49.75-4.375-18.5.541-37.667-.5-55.959 2.416-40.208 8.75-76.083 31.584-102.416 63-7.042 8.75-11 19.625-15.459 29.875-.375-4.291-.75-8.625-1.125-12.916-4.125 5.5-8.25 11.041-12.458 16.5 4.292-19.042 10.292-36.5 24.542-50.542 24.083-23.792 53.083-44.917 85.208-56.375 27.75-10.167 60.875-9.75 90.167-10.625Z" style="fill:#553011;fill-rule:nonzero"/>
  <path d="M1066.67 688.792c16.791.125 33.833-1.834 49.75 4.375 24.5 9.041 49.291 20.791 69.791 37.166 26.167 20 46.5 47.75 57.709 78.709 3 33.458 7.791 65.625 2.708 99.291.333 6.917-3.708 11.584-12.167 13.959l-1.083-5.25c-.792-3.459-1.583-6.959-2.417-10.417 2.417-20.375 7.459-38.458 4.042-59.208-4.625-28.834-13.958-59.709-33.667-82-22.5-26.042-51.625-42.125-83.375-54.25-26.416-10.875-60.5-5.292-88.708-4.125-36.25 1.541-70.333 17.541-96.167 42.75-14 13.75-23 34-31.791 51.416-9.167 18.209-11.375 36.542-16.125 56.167-10.417 42-2.917 86.917 16.666 125.125 1.584-1.583 3.167-3.167 4.75-4.75-.75 12.667-1.5 25.375-2.375 38.042-11.166-14.875-21-30.292-26.625-48.167-12.791-32.583-11.125-71.542-9.041-106 4.25-27.417 12.083-52.625 24.291-77.542 4.459-10.25 8.417-21.125 15.459-29.875 26.333-31.416 62.208-54.25 102.416-63 18.292-2.916 37.459-1.875 55.959-2.416Z" style="fill:#e6d9d0;fill-rule:nonzero"/>
  <path d="M1712.17 701.667c44.5 15.333 81.916 42.416 115 75.375 23.75 22.791 32.125 58.208 36.208 89.75 1.708 26.916 3.708 58.958-8.333 83.791 1.333-46.708 7.541-88.375-9.292-133.5-9.042-27.5-28.833-44.5-50.542-62.166-33.916-26.125-68.166-48.125-111.875-52.709-40.291-5.083-76.333 5.125-114.583 15.917-35.833 10.875-66.333 31.792-89.375 61.333-18.917 24.5-27.583 52.625-33.542 82.584-5.583 34.75-4.25 69.625 9.25 102.458.542 6.75-.375 13.292-1.083 19.958-21.875-51.625-24.458-108.5-4.333-161.208 16.666-47.5 55.166-85.542 101.125-105.208 23.875-10.5 48.75-14.417 74.458-20.292 28.708-6.875 58.833-4.458 86.917 3.917Z" style="fill:#a48c7a;fill-rule:nonzero"/>
  <path d="M1117.96 711.167c31.75 12.125 60.875 28.208 83.375 54.25 19.709 22.291 29.042 53.166 33.667 82 3.417 20.75-1.625 38.833-4.042 59.208-14.333-22.667-29.708-35-54.583-44.875.042 7.375.125 14.75.375 22.125-7.125 15.042-13 29.417-30.333 34.792-14.584 2.083-28.75 2.541-40.167-8.292-15.25-14.208-15.75-31.875-16.458-51.417-18.167-.416-34.709 2.25-51.917 8.084-7.042 3.333-14.208 6.375-21.208 9.791l-4.334.209c-25.416 13.291-50.833 26.666-70.208 48.375-11.167 12.083-19.833 25.833-27.25 40.458-4.375 14.542-6.208 26.875-2.375 41.875l1.75 2.792.917 18.291c-3.75-4.291-7.417-8.625-10.959-13.041.875-12.667 1.625-25.375 2.375-38.042-1.583 1.583-3.166 3.167-4.75 4.75-19.583-38.208-27.083-83.125-16.666-125.125 4.75-19.625 6.958-37.958 16.125-56.167 8.791-17.416 17.791-37.666 31.791-51.416 25.834-25.209 59.917-41.209 96.167-42.75 28.208-1.167 62.292-6.75 88.708 4.125Z" style="fill:#d8c9be;fill-rule:nonzero"/>
  <path d="M1683.33 702.208c43.709 4.584 77.959 26.584 111.875 52.709 21.709 17.666 41.5 34.666 50.542 62.166 16.833 45.125 10.625 86.792 9.292 133.5-6 16.417-11.584 32.792-19.75 48.334-8.667 17.416-20.25 32.416-30.834 48.625-3.625.208-7.25.416-10.875.666 1.417-5.958 2.75-11.958 4-17.958 1.25-12.708 1.084-25.417-.291-38.125 1.25 11.958 2.166 23.958 3.083 35.958 10.292-22.666 25.958-41.625 33.542-65.208 16.708-47.875 16.833-100.958-2.167-148.167-8.125-19.416-22.583-32.416-37.958-46.041-32.584-28.5-71.084-49.042-114.625-53.667-34.667-5.5-63.25 5.25-96.5 12.625-41.584 9.667-79 33.542-101 70.667-25.834 43.291-25.542 87.541-27.667 135.875-.708 10.291.542 20.083 1.083 30.333-13.5-32.833-14.833-67.708-9.25-102.458 5.959-29.959 14.625-58.084 33.542-82.584 23.042-29.541 53.542-50.458 89.375-61.333 38.25-10.792 74.292-21 114.583-15.917Z" style="fill:#e7dad1;fill-rule:nonzero"/>
  <path d="M2958.33 703.75c26.792 3.083 50.709 1.458 75.959 12.167l-7 2.416c-47.834-7.333-95.584-10.75-143.875-6-13.292 1.709-26.525 2.648-39.9 3.44 7.292-5.542 12.733-8.148 21.9-8.856 31.25-2.75 61.458-6.125 92.916-3.167Z" style="fill:#261509;fill-rule:nonzero;stroke:#261509;stroke-width:.42px"/>
  <path d="M1679.17 715c43.541 4.625 82.041 25.167 114.625 53.667 15.375 13.625 29.833 26.625 37.958 46.041 19 47.209 18.875 100.292 2.167 148.167-7.584 23.583-23.25 42.542-33.542 65.208-.917-12-1.833-24-3.083-35.958l-.5-4.5c-11.292-14.792-20.417-29.375-35.042-41.375-3.083-3.125-7.042-3.833-11.792-2.083-12.25 9.708-23.5 20.333-36.75 28.791-9.208.25-18.458.417-27.666.667-7.5-6.958-14.375-14.25-20.959-22.083-1.125-20.542-.583-40.667.875-61.209-28.125-10.75-55.875-20.458-86.291-22.166-19.209-.917-39.209-1.292-58.25 1.833l-4.334 1.125c-3 .792-5.958 1.542-8.916 2.333-17.667 9.584-33.667 19-42.875 37.75-4.084 7.417-7.709 15.084-10.792 22.959 2.125-48.334 1.833-92.584 27.667-135.875 22-37.125 59.416-61 101-70.667 33.25-7.375 61.833-18.125 96.5-12.625Z" style="fill:#d8c9be;fill-rule:nonzero"/>
  <path d="M2843.38 715.625c13.375-.792 26.75-1.583 40.042-3.292 48.291-4.75 96.041-1.333 143.875 6l7-2.416c1.666-.542 13.291 1.375 13.291 1.375s14.292 5.583 21.292 5.791c0 0 34.042 12.167 37.542 12.459 0 0 8.208 3.916 12.416 3.708l24.5 8 29.25 12.083s14 8.375 20.75 10.417l33.375 14.958 8.25 4.167 6.5 4.875c24.542 16.25 48.584 33 70.959 52.125 21.416 18.542 45.958 31.25 68.708 48.25 42.208 27.958 81.417 60.542 120.667 92.5 64.916 49.667 120 114.458 165.666 181.958 5.5 9.5 11.5 18.75 18 27.584l4.834 6.291 4.291 8.417 2.334 7.875c2.041 6.833 4.291 13.583 6.333 20.417 0 0 6.125 14.125 8 21 0 0 7.934 16.258 11.184 24.717 0 0 5.066 19.824 5.274 29.491 0 0 5.917 126.417 3.459 189.792-.917 13.25-4.125 26.166-5.167 39.458l-5.741 20.703c-3.654 23.489-11.134 45.63-16.634 68.672-2.458 10.167-5.792 20.167-9.75 29.833 0 0-4.583 12.917-4.875 16.417-3.875 11.042-7.375 22.167-11.417 33.125-.291 3.458-3.5 10.75-3.5 10.75-2.125 6.375-4.375 12.667-6.625 19-3.375 10.083-6.208 20.375-8.208 30.833l-10 25.125c-13.375 36.917-33.792 67.209-54.25 100.209-22.167 34.5-42.208 70.583-66.667 103.416-33.458 47.959-64.583 99.792-104.208 142.875-9.708 11.334-19.583 22.5-29.167 33.959-17.666 21.125-39.125 38.25-56.583 59.625-13.042 16.208-28.042 30.333-42.667 45.041-31 31.542-62.458 62.584-95.25 92.25-39.208 40.5-81.166 77.459-124.958 112.875-28.708 25.792-58.167 50.5-90.167 72.125-40.333 30.375-83.208 56.584-125.291 84.5-31.209 21.792-65.584 41.5-99.75 58.25l-14.042 7.417c-7.583 5-15.375 9.5-23.417 13.708l-8.5 5.292c-12.625 6.208-24.875 13.167-37.375 19.542l-8.666 5.5c-12.375 5.083-24.864 9.41-37.28 14.41l-7.72 2.631s-14.292 8.375-21.292 10.25c0 0-8.292 3.459-12.458 3.459l-7.834 2.958s-8.666 5.417-12.791 5.417c0 0-17.459 8.416-21.042 8.625l-9.772 5.751c-6.958 2.042-12.311 5.54-19.27 7.54l-8.166 1.584s-6.834 6.083-10.25 6.416c-4.917 1.667-9.834 3.25-14.792 4.792l-8.125 1.667s-8.875 5.25-13.125 5.208l-4.208 4.625c-8.834-1.875-17.667-3.583-26.5-5.458 9.791-10.375 20.333-20.042 29.791-30.709 2.375 2.75 4.75 5.542 7.125 8.334 20.209-16.709 42.834-23 66.5-33.417 51.667-19.042 99-45.5 149.209-67.292 41.75-18.208 81.041-44.041 119.875-67.833 14.083-8.042 27.833-16.417 40.75-26.333-6.542-27.25-16.375-53.459-23.459-80.542 26.75 13.667 44.875 33.917 68.667 53.458 14.667-8.583 27.667-19.166 41-29.666 20.667-13.5 41.958-25.625 60.917-41.709 27.833-23.875 56.083-47.75 85.583-69.583-1.042 4.625-2.042 9.208-2.958 13.875 30.25-15.958 49.125-39.875 74.625-61.833 9.458-8 17.916-16.667 24.833-26.959-12.208 7.084-23.542 15.084-34.417 24.125 17.625-29.291 43.584-45.333 66.959-68.791 14.166-15.667 28.416-31.25 43.166-46.375 16.167-8.167 25.834-21.625 37.459-34.834 8-8.916 16.041-17.833 24.25-26.583 17.041-18.208 37.916-30.833 53.583-50.625 12.25-15.5 23.875-31.125 38.333-44.667.417-2.75.834-5.458 1.25-8.166 14.834-13.084 26.084-26.792 36.417-43.584 25.083-39.333 56.125-74 80.25-113.916 20.625-29 34.667-61.5 56.167-89.792 7.041-9.792 14.291-18.042 15.041-30.667 15-13.416 19.667-30.833 27.875-48.375 12.084-22.875 16.084-48.75 26.292-72.625 14.583-49.208 32.042-97.708 44.25-147.125 4.25-27.291 13.5-53.166 15.042-80.625 1.541-21.208 4.625-41.875 3.833-63.208-.792-17.75-1.167-35.542-2.75-53.208-6.75-50.792-10.917-97.875-36.667-143.5-14.833-32.334-33.291-62.542-55.666-90.209-8.125-9.958-17.167-19.291-24.917-29.583-10.667-13.792-10.583-30.625-22.667-43.792-18.958-21.166-39.125-41.791-62-58.75-19.541-14.5-36.416-30.041-57.333-42.583-1.208 2.458-2.417 4.917-3.625 7.417-1.792-.959-3.625-1.959-5.458-2.917-14.959-15.083-33.25-24.458-50.292-36.667-51.833-38.041-105.792-72.666-160.458-106.375-26.125-14.666-52.875-28.166-80.084-40.708-47.875-24.917-101.458-35.875-154.083-45.958-33.542-4.459-66.875-9.542-100.083-2.709-19.584 2.417-38.292 5.375-56.834 12.459-32.333 8.208-60.125 26.583-83.833 49.541-25.167 25.542-39.708 59.125-54.167 91.334-18.75 43.083-39.333 85.083-53.75 129.958-12.75 28.542-12.416 58.125-19.291 88-3.792 17.625-3.25 33.75-9.209 50.542-3.708 10.541-7.083 21.083-9.791 31.875-2.875 11.541-8.125 23.708-8.125 35.625 16.708 17 45.375 24.791 60.583 43.666-.125 6.75-8.292 10.209-12.958 14-23.709 14.792-46.042 31.292-67.709 48.875-19.916 12.625-18.125 43.959-20.416 64.792-10.459 51.292-17.959 102.958-25.792 154.708-1.792 17.167-1.083 34.209-3.208 51.459-2.917 25.083-11.292 47.708-10.584 73.375.459 23.041-.5 45.791-3.666 68.666-1.917 14.792-3.875 29.584-5.5 44.417 5.791-1.583 11.583-3.125 17.291-4.917-6 5.542-11.791 11.417-17.625 17.167-.416 15.625-3.458 30.083 3.459 44.667-3.459.333-6.917.625-10.375.958-2.042 12.458-4.042 24.958-5.917 37.417 15.292 22 33.708 36.458 44.125 60.75-21 3.916-42.708 4.291-63.458 9.125-13.334 2.791-19.5 13.375-28.167 22.708-7.958 9.542-16.625 16.75-27.417 22.833-12.125 7.209-28.208 13.125-35.5 25.75-6.125 9.75-12.166 19.459-19.208 28.542-3.333-5.333-6.917-10.542-10.5-15.708 1.833-3.709 3.625-7.417 5.583-11.084 20.292-21.416 43.084-40.5 63.584-61.875 19.166-15.958 29.583-37.041 40.458-58.958 9.833-20.125 14.083-41.583 16.625-63.625 4.167-35.875 8.75-71.708 12.208-107.625.125-39.292 4.292-77.5 8.25-116.458 1-16.375 1.334-32.75 1.667-49.125 0 0 8.958-44.042 8.542-66.75 0 0 7.958-33.042 8.416-50 0 0 3.667-16.417 3.792-24.834 0 0 7.75-33.166 8.958-50.083 0 0 3.084-11.167 3-16.917 0 0 7.417-30.166 9.667-45.416 0 0 7.542-27.584 8.292-41.709 0 0 3.25-11 3.25-16.541 0 0 4.416-9.334 4.916-14 7.459-21.5 8.709-45.167 12.834-67.542 1.291-4.875 2.5-9.792 3.625-14.708 0 0 3.666-12.292 4.083-18.459 2.583-6.708 4.458-13.625 6.792-20.416 2.875-14.25 6.875-28.334 11.166-42.209 1.167-6.25 2.292-12.458 3.167-18.75 0 0 3.5-9.75 3.625-14.708 2.708-6.792 4.833-13.833 7.625-20.583.167-3.459 3.542-10.375 3.542-10.375 3.291-11.167 6.958-22.209 10.333-33.375 0 0 3.375-6.917 3.667-10.209 1.75-4.916 3.458-9.875 5.041-14.833l2.375-5.875c3.292-5.583 5.875-11.5 9.167-17.083l6.542-14.667c3.625-9.625 7.5-19.167 11.041-28.792l2.25-8.041 4.042-8.584 4.25-8.125 7.083-9.166c7.375-19.5 18.167-36.75 29.792-53.959 12.5-17.583 24.5-34.041 42.042-47.041 19.125-14.125 40.708-25.167 62.958-33.5 0 0 8.167-2.959 12.083-3.084 2.917-2.291 5.75-4.666 8.792-6.833Z" style="fill:#261509;fill-rule:nonzero"/>
  <path d="M2995.88 741.667c52.625 10.083 106.208 21.041 154.083 45.958 27.209 12.542 53.959 26.042 80.084 40.708 54.666 33.709 108.625 68.334 160.458 106.375-29.208 12.417-59.917 20.584-89.417 32.334-34.375 12.041-69.041 25.875-104.25 35.125-10.458-6.209-18.125-18.209-25.666-27.542-19.792-26.792-43.334-47-66.625-70.875-50-48.25-102.75-97.208-162.209-133.417-16.041-9.708-31.916-19.583-46.541-31.375 33.208-6.833 66.541-1.75 100.083 2.709Z" style="fill:#221811;fill-rule:nonzero"/>
  <path d="M2895.79 738.958c14.625 11.792 30.5 21.667 46.541 31.375 59.459 36.209 112.209 85.167 162.209 133.417 23.291 23.875 46.833 44.083 66.625 70.875 7.541 9.333 15.208 21.333 25.666 27.542 35.209-9.25 69.875-23.084 104.25-35.125 29.5-11.75 60.209-19.917 89.417-32.334 17.042 12.209 35.333 21.584 50.292 36.667-45.625 20.375-94.125 29.125-140.959 45.917-23.041 8.208-47.333 15.291-68.875 27 2.709 12.833 16.625 23.5 23.709 34.416 43.125 59.375 83.833 120.834 119.083 185.167 16.167 26.875 31.792 54.125 47.375 81.375 11.125 19.375 17.667 43.083 31.625 60.458 5.25 7.792 14.458 4.75 22.25 4.042 36-6.625 71.875-13.375 108.292-17.667 42-5.125 83.708-12.75 125.833-16.791 1.583 17.666 1.958 35.458 2.75 53.208-77.208 9.083-154.667 20.167-231.167 33.875 5.25 23 17.542 41.792 27 63.042 29.667 68.916 59.459 137.791 89.042 206.791 8.292 20.167 14.958 40.75 25.708 59.875-8.208 17.542-12.875 34.959-27.875 48.375-26.125-51.583-42.416-106.875-67.25-159-23.375-53.416-45.041-107.5-69-160.666-7.708-16.334-13.875-35.834-25.875-49.542-7.125-2.25-16.625 1.667-23.875 3-24.791 7.125-50.208 10.417-75.333 15.958-66.542 14.834-132.292 33.334-197.833 51.959-29.875 7.125-59.542 13.25-87.875 25.583-23.625 10.333-48.75 14.542-71.709 26.375 35.167 55.292 64.5 114.708 94.417 172.917 20.833 49.625 48 96.833 70.25 146.166 10.625 25.25 21.542 50.209 34.042 74.625 3.625 6.375 7.666 14.792 14.875 17.667 10.125 4.375 21.5 6.625 32.208 9.292 74.583 17.541 147.417 40.458 221.5 60.041-10.333 16.792-21.583 30.5-36.417 43.584-46.541-20.375-96.916-33-146.166-45-17.625-4.667-34.917-9.792-53.167-11.792 8.708 25.5 21.292 49.667 31.417 74.667 18.625 36.666 31 75.875 50.5 112.166-11.625 13.209-21.292 26.667-37.459 34.834-21.125-54.875-44.875-108.75-68.041-162.75-9.459-22.167-17.959-45.292-29.917-66.209-5.542-10.375-15.083-11.916-25.417-15-70.583-17.041-142.041-29.041-213.791-40.166-42.667-5.167-84.25-12.375-127.167-14.459-58-6.041-116.833-3.75-175.083-3.291 4.916 21.041 17.666 34.833 27.541 53.583 17.709 31.042 31.542 63.75 45.375 96.625 42.125 94.583 72.334 192.583 102.875 291.292 4.125 13.083 5.834 30.083 14.459 41.041 13.833 12.792 32 20.5 46.666 32.542 27.625 21.833 54.792 43.958 83.792 64.042-13.333 10.5-26.333 21.083-41 29.666-23.792-19.541-41.917-39.791-68.667-53.458 7.084 27.083 16.917 53.292 23.459 80.542-12.917 9.916-26.667 18.291-40.75 26.333-9.959-31.958-17.792-64.5-28.167-96.375-5.167-15.458-8.083-32.667-15.75-47.083-8.25-11.875-24.792-18.75-37.375-25.042-25.042-10.917-48.958-24.417-74.667-32.958-39.083-13.375-78.958-23.334-119.458-31.542-2.25 3.083-4.458 6.167-6.625 9.333-4.375-13.125-7.875-26.5-12.5-39.5 21.25-3.166 42.292-3.833 63.375 1.125 36.708 8.125 75.167 15.125 110.292 28.375 20.541 7.375 39.541 18 60.625 24.167-6.25-26.083-17.042-50.542-23.917-76.417-10.833-40.916-24.458-81.166-38.833-121-15.959-37.208-26.75-75.708-45.542-111.75-15.833-29.583-25.833-61.416-43.208-90.208-8.917-14.583-15.5-31.958-26.917-44.667-10.375-3.333-23.333-.125-33.917 1.042-38.041 5.125-73.666 17.125-111.125 25.25.334-4.458.667-8.917 1-13.417 10.792-6.083 19.459-13.291 27.417-22.833 8.667-9.333 14.833-19.917 28.167-22.708 20.75-4.834 42.458-5.209 63.458-9.125-10.417-24.292-28.833-38.75-44.125-60.75 1.875-12.459 3.875-24.959 5.917-37.417 3.458-.333 6.916-.625 10.375-.958 15.5 20.208 32.208 39.208 46.791 60.125 8.459 12.25 17.375 24 27.042 35.333 40.417-7.042 83-5.042 124.083-5.417 106.917-.833 215.709 16.042 320.667 34.5 24.458 4.5 49.5 11.584 74.458 15.375 6.25.417 11.75 2.625 16.875-2.208-5.708-20.75-18.916-39.292-26.958-59.375-12.792-31.083-29.458-60.208-42.458-91.208-22.459-46.625-45.084-93.167-69.167-139-9.833-17.667-21.833-33.917-31.208-51.875-7.292-13.875-14.042-27.584-24.667-39.334-27.083 9.125-52.875 21.709-79.792 31.417-67.833 26.875-134.833 50.917-199.791 84.542-40.167 21.958-84.209 39-121.709 65.291-5.708 1.792-11.5 3.334-17.291 4.917 1.625-14.833 3.583-29.625 5.5-44.417 39.666-19.666 76.333-45.291 116.583-64.041 46.708-21.417 93.75-42.042 140.125-64.167 24.875-11.875 50.625-21 76.042-31.542 19.458-8.291 39.583-13.458 58.166-23.833-20.333-27.75-36.916-57.75-58.125-84.833-12.833-16.5-24.166-34.084-36.958-50.625-33.375-40.417-68.708-86.042-107.708-121.334-9.667-8.541-14.459-1.416-23.417 3.292-41.458 28.458-82.292 57.292-121.458 88.875 2.291-20.833.5-52.167 20.416-64.792 21.667-17.583 44-34.083 67.709-48.875 4.666-3.791 12.833-7.25 12.958-14-15.208-18.875-43.875-26.666-60.583-43.666 0-11.917 5.25-24.084 8.125-35.625 32.25 14.416 62.5 35.458 91.208 55.916 40.542-27.75 81.625-54.5 125.167-77.333 39.416-20 76.166-44.292 116.208-63.083 65.083-29.5 128.375-59.084 196.167-83.167 5.458-2.083 10.25-4.625 15-8.042-7.625-15.125-22.625-27.125-33.792-40.041-37.083-42.125-77.667-80.709-120.042-117.459-24.583-21.958-51.25-39.708-78.291-59.375-25.959-18.583-54.084-32.708-81.584-48.666 18.542-7.084 37.25-10.042 56.834-12.459Z" style="fill:#3f2d1e;fill-rule:nonzero"/>
  <path d="M2838.96 751.417c27.5 15.958 55.625 30.083 81.584 48.666 27.041 19.667 53.708 37.417 78.291 59.375 42.375 36.75 82.959 75.334 120.042 117.459 11.167 12.916 26.167 24.916 33.792 40.041-4.75 3.417-9.542 5.959-15 8.042-67.792 24.083-131.084 53.667-196.167 83.167-40.042 18.791-76.792 43.083-116.208 63.083-43.542 22.833-84.625 49.583-125.167 77.333-28.708-20.458-58.958-41.5-91.208-55.916 2.708-10.792 6.083-21.334 9.791-31.875 5.959-16.792 5.417-32.917 9.209-50.542 6.875-29.875 6.541-59.458 19.291-88 14.417-44.875 35-86.875 53.75-129.958 14.459-32.209 29-65.792 54.167-91.334 23.708-22.958 51.5-41.333 83.833-49.541Z" style="fill:#221811;fill-rule:nonzero"/>
  <path d="M1243.92 809.042c11.875 23.416 13.375 48.583 11.583 74.333-2 22.458-3.458 43.625-13.417 64.208l-3.75 7.25-.375-4.583c-1.291-9.292-2.166-18.667-3.5-27.958 8.459-2.375 12.5-7.042 12.167-13.959 5.083-33.666.292-65.833-2.708-99.291Z" style="fill:#ab9889;fill-rule:nonzero"/>
  <path d="M857.417 848.333c.5 18.375-2.459 37.417.25 55.584l7.75 10.208c1.75-17.458 1.041-35.083 3.125-52.5-2.084 34.458-3.75 73.417 9.041 106 5.625 17.875 15.459 33.292 26.625 48.167 3.542 4.416 7.209 8.75 10.959 13.041l-.917-18.291c9.375 13.958 17.958 27.625 31.167 38.375l-7.959 1.833c6.625 6.083 13.584 11.792 20.792 17.125.958 4.125 1.917 8.25 2.833 12.375-36.291-17.458-70.25-49.542-90-84.667-18.458-35.166-25.125-77.125-25.75-116.5-.583-12.458 5.125-21.166 12.084-30.75Z" style="fill:#522b0e;fill-rule:nonzero"/>
  <path d="M1089.79 858.958c.708 19.542 1.208 37.209 16.458 51.417 11.417 10.833 25.583 10.375 40.167 8.292 17.333-5.375 23.208-19.75 30.333-34.792-.25-7.375-.333-14.75-.375-22.125 24.875 9.875 40.25 22.208 54.583 44.875.834 3.458 1.625 6.958 2.417 10.417l1.083 5.25c1.334 9.291 2.209 18.666 3.5 27.958l.375 4.583c-8.583 21.334-16.875 41.667-33.541 58.209-20.125 22.041-45.709 32.333-73.25 41.791-47.625 11.25-95.542 10.834-144.084 9.542-16.125-.5-28.458-7.917-42.041-15.458-13.209-10.75-21.792-24.417-31.167-38.375l-1.75-2.792c-3.833-15-2-27.333 2.375-41.875 7.417-14.625 16.083-28.375 27.25-40.458 19.375-21.709 44.792-35.084 70.208-48.375l4.334-.209c7-3.416 14.166-6.458 21.208-9.791 17.208-5.834 33.75-8.5 51.917-8.084ZM1507.67 873.458c2.958-.791 5.916-1.541 8.916-2.333l4.334-1.125c19.041-3.125 39.041-2.75 58.25-1.833 30.416 1.708 58.166 11.416 86.291 22.166-1.458 20.542-2 40.667-.875 61.209 6.584 7.833 13.459 15.125 20.959 22.083 9.208-.25 18.458-.417 27.666-.667 13.25-8.458 24.5-19.083 36.75-28.791 4.75-1.75 8.709-1.042 11.792 2.083 14.625 12 23.75 26.583 35.042 41.375l.5 4.5c1.375 12.708 1.541 25.417.291 38.125-8.166 9.542-16.625 21.083-27.25 27.875-10.166 6.375-21.916 10.542-33.625 12.875-35.708 6.375-71.416 6.792-107.583 5.333-40-2.458-81.75-9.666-116.125-31.541-18.625-13.542-36.208-31.5-45.875-52.625-11.333-26.084-5.667-53.834-2.333-80.959 9.208-18.75 25.208-28.166 42.875-37.75Z" style="fill-rule:nonzero"/>
  <path d="M1464.79 911.208c-3.334 27.125-9 54.875 2.333 80.959 9.667 21.125 27.25 39.083 45.875 52.625 34.375 21.875 76.125 29.083 116.125 31.541 36.167 1.459 71.875 1.042 107.583-5.333 11.709-2.333 23.459-6.5 33.625-12.875 10.625-6.792 19.084-18.333 27.25-27.875-1.25 6-2.583 12-4 17.958 3.625-.25 7.25-.458 10.875-.666-8.625 12.75-15.041 25.041-29.75 31.75-31.625 15.25-68.166 25.083-103.416 24-36.792-3.084-74.292-14.417-109.917-23.625-19.167-5.125-37.417-13.542-53.667-24.959-24.791-18.125-45.833-39.583-53.708-70.25.708-6.666 1.625-13.208 1.083-19.958-.541-10.25-1.791-20.042-1.083-30.333 3.083-7.875 6.708-15.542 10.792-22.959Z" style="fill:#654234;fill-rule:nonzero"/>
  <path d="M3449.88 966.875c20.917 12.542 37.792 28.083 57.333 42.583 22.875 16.959 43.042 37.584 62 58.75 12.084 13.167 12 30 22.667 43.792 7.75 10.292 16.792 19.625 24.917 29.583 22.375 27.667 40.833 57.875 55.666 90.209 25.75 45.625 29.917 92.708 36.667 143.5-42.125 4.041-83.833 11.666-125.833 16.791-36.417 4.292-72.292 11.042-108.292 17.667-7.792.708-17 3.75-22.25-4.042-13.958-17.375-20.5-41.083-31.625-60.458-15.583-27.25-31.208-54.5-47.375-81.375-35.25-64.333-75.958-125.792-119.083-185.167-7.084-10.916-21-21.583-23.709-34.416 21.542-11.709 45.834-18.792 68.875-27 46.834-16.792 95.334-25.542 140.959-45.917 1.833.958 3.666 1.958 5.458 2.917 1.208-2.5 2.417-4.959 3.625-7.417Z" style="fill:#211810;fill-rule:nonzero"/>
  <path d="m937.458 1050.75 7.959-1.833c13.583 7.541 25.916 14.958 42.041 15.458 48.542 1.292 96.459 1.708 144.084-9.542l10.458 5.084c-28.625 13.791-63.167 17.5-94.667 21.541-31.666.25-62.916 7.625-89.083-13.583-7.208-5.333-14.167-11.042-20.792-17.125Z" style="fill:#5e3d30;fill-rule:nonzero"/>
  <path d="M3185.58 1060.08c11.167 9.459 19.542 22.667 28.459 34.209 43.125 56.75 81.833 117.041 116.666 179.208 17.209 29.792 36.834 59.125 50.667 90.667 8.083 20.125 19.333 38.25 31.25 56.25-11.5 4.583-23.125 8.208-35.292 10.541-45.166 8.625-89.833 21.375-134.583 32.209-82.125 20.875-165 42.958-244.583 72.208-13.834 4.917-27.292 11.667-41.459 15.375-5.041 1.833-7.25-2.125-10.625-5.125-10.291-12.208-17.5-27.042-26.666-40.125-26.875-38.25-52.792-77-82.875-112.875-30.5-41.375-66.584-77.208-102.542-113.708 37.875-31.542 86.208-53.834 129.375-78.334 26.708-15.583 54.417-29.041 82.125-42.75 62.333-32.041 125.375-61.375 192.417-82.375 15.625-4.75 31.375-13.708 47.666-15.375Z" style="fill:#221811;fill-rule:nonzero"/>
  <path d="M395.875 1097.83c15.833 22.667 21.833 48.25 33.167 73.042 11.25 25.708 25 49.083 38.541 73.792 18.875 34.458 40.042 67.625 63.917 98.791 15.875 20.75 29.75 41.417 49.5 58.834 32.208 29.625 64.833 58.166 102.375 81 38.25 25.125 75.583 50.083 117.083 69.875 18 9.25 35.5 14.291 48.084 31.333-9-.833-18-1.833-26.959-2.958 7.084 35.375 11.125 71.458 20 106.416 6.959 31.167 28.584 48.417 42.084 78.167 21.5 46.083 47.833 90.208 67.416 137.167 6.459 15.916 13.542 31.583 20.834 47.125l-3.584 3.916c-9.083 9.709-11 21.334-11.75 34.167-6.666-16.083-12.333-32.458-18.041-48.917-12.584-34.833-32-64.375-47.75-97.458-9.667-20.417-23.125-38.25-33.75-58.167-11.459-21.625-28.334-38.291-38.417-60.708-14-29.875-18.25-65.875-24.125-98.25-3.583-18.583-4-34.875-1.083-53.625-60.209-19.417-116.709-52.333-169.084-87.458-13-8.25-24.5-20.75-38.666-26.667-20.75-3.958-44-2.5-63 7.458-19.084 9.75-38.125 18.25-58.334 25.459-23.666 8.416-41.583 23.125-61.583 37.708-11.625 9.083-23.542 19.792-27.542 34.542-2.916 9.958-5.583 19.916-9.583 29.5-12.292 24.25-24.75 47.125-30.083 74.166-5.792 30.167-12.125 61.792-6.417 92.209 5 29.666 7.583 60.291 15.458 88.958 11.084 39 26.917 75.75 40.625 113.708 17.834 47.917 31.542 97.459 51.459 144.417 22.791 45.458 48.875 88.708 76.75 131.208 18.75 32.334 43.541 58.084 69.291 84.875 27.917 24.25 63.292 43.917 100.459 48.459 36.083 7.041 69.083-.334 104.25-8.334 22.083-5.041 42.958-12.958 63.375-22.583 16.916-8.083 35.416-13.417 45.666-30.333 11.917-19.125 20.875-39.334 35.917-56.5 4.625-5.334 9.542-10.459 14.25-15.792-6.875 34.167-23.667 66.625-47.042 92.375-20.833 19.25-48.791 31.75-74.75 42.458-27.166 11.292-55.625 13.25-83.5 21.792 8.792 1.917 17.542 3.792 26.459 5.167-10.459 1.833-20.375 5.25-30.334 8.833-4.541.208-9.083.208-13.625.208-12.625-.25-25.291-.458-37.875-1.375-23.625-3.166-47.75-8.583-69.666-18-23.875-10.208-46.125-20.75-64.667-39.458-23.583-23.792-44.083-51.208-62.958-78.792-28.042-39.5-44.542-90.416-68.959-131.541-16.208-28.667-25.291-59.667-40.416-88.834-12.75-24.583-25.459-50.083-35.459-75.958-5.583-15.292-10.125-30.625-18.625-44.667-8.875 13.709-14.833 28.584-21.208 43.5 2-20 10.875-36.625 17.125-55.25 5.542-39.25 1.917-81.875-14.083-118.416-.292 11.083-.25 22.166.25 33.25-2.709-6.459-5.709-12.75-8.625-19.125-3.334-27.959-7.459-54.542-3.167-82.75 4-24 1.667-47.417 1.417-71.459-.5-22.708 12.291-43.625 23.291-62.666 25.709-41.459 57.084-79.834 99.625-104.875 33.25-22.834 69.625-39.042 105-58 0 0 9.417-11.625 14.709-16.042-.042-4.625-.125-9.25-.167-13.875 2.833 1 5.667 2 8.542 2.958 1.625 4.584 3.25 9.167 4.875 13.75 3.25.417 6.541.834 9.791 1.25-6.416-12.708-13.458-24.875-22.958-35.541-14.5-16.5-26.833-34.625-38-53.5-8.667-14.5-7.667-31.292-16.708-45.834-8.834-14.791-17.584-29.666-26.209-44.625-7.416-13.666-21.208-19.583-27.625-33.625-8.041-17.5-9.333-37.291-17.125-55.125-7.75-18.041-13.708-35.541-18.083-54.75Z" style="fill:#5c3719;fill-rule:nonzero"/>
  <path d="M1295.79 1101.62c83.625-5.583 165.333 42.75 215.5 107.333 17.166 24.709 31.708 51.084 50 75.125 27.958 39.209 47.041 85.5 38.916 134.459-6.958 26.708-23 54.458-47.166 69-22.292 14.166-47.375 23.208-74.125 19.125-9.917-2.292-18.75-10.625-27.084-16.292-16.75-12.625-35.25-20.333-53.416-30.375-21.625-11.75-40.709-27.25-62.125-39.292-8.709-7.458-19.084-11.916-20.292-24.583-2.75-18.375-3.375-37.083-5.792-55.5 10.417-1.792 20.584-4.333 30.334-8.417 18.208-9.666 33.416-23.25 46.375-39.166 22.125-21.125 28.583-53 22.583-82.125-9.75-13.125-26.75-26.917-42.417-31.959-22.958-5.416-47.75-4.708-71.25-5.333-31.458-.542-66.958 4.875-90.666 27.375-3.459 3.75-10.25 9.917-8.542 15.5 6.833 34.583 21.5 66.958 50.333 88.667 6.417 6.5 12.709 12.833 19.667 18.791 6.542 5.75 13.208 11.375 19.833 17-1.166 21.709-1.625 43.125 3.042 64.459-30.917 34.708-71.958 61.25-112.75 82.958-16.583 9.542-34.125 2.458-50.75-3.25-25.667-9.167-43.583-32.292-56.958-55-13.917-24.333-21.084-51.375-15.417-79.375 4.458-19.708 12.042-38.625 16.75-58.333 5.833-23.334 16.708-44.209 28.833-64.834 13.25-22.791 33.542-39.333 51.375-60.25 19.209-22.75 47.084-37 74.292-48 22.458-8.208 46.917-17.041 70.917-17.708Z" style="fill:#b78657;fill-rule:nonzero"/>
  <path d="M742.75 1138.04c27.5-6.292 58.792 2.166 83.458 14.791 28.459 16.125 58.959 38.584 71.959 69.667 9.291 22.333 14.166 50 6.416 73.417-5.875 18.25-17 35.458-31.916 47.583-17.834 13.958-41.959 20.167-64.334 19.667-47.625-2.125-94.041-22.334-122.291-61.834-27.625-37.625-32.5-92.083-1.792-129.5 14.375-19.583 35.542-28.416 58.5-33.791Z" style="fill:#8f5a4d;fill-rule:nonzero"/>
  <path d="M1295.83 1173.62c23.5.625 48.292-.083 71.25 5.333 15.667 5.042 32.667 18.834 42.417 31.959 6 29.125-.458 61-22.583 82.125 12.5-24.459 21.458-48.875 18.458-76.917-9.5-16.333-27.375-31.958-47-33.333-20.708-2.125-41.75-1.375-62.542-1.917-27.333-.542-60.166 3.083-82.958 19.5-4.25 3.708-12.75 9.333-10.667 15.875 2.542 12.5 7.042 24.708 11.375 36.667 7.167 19.916 21.167 33.458 33.375 52.25-28.833-21.709-43.5-54.084-50.333-88.667-1.708-5.583 5.083-11.75 8.542-15.5 23.708-22.5 59.208-27.917 90.666-27.375Z" style="fill:#785636;fill-rule:nonzero"/>
  <path d="M1295.83 1180.88c20.792.542 41.834-.208 62.542 1.917 19.625 1.375 37.5 17 47 33.333 3 28.042-5.958 52.458-18.458 76.917-12.959 15.916-28.167 29.5-46.375 39.166-9.709-2.041-19.459-4-29.167-6 15.125-7.166 32.917-12.416 46.042-22.916 18.083-15.625 30.625-37.459 32.166-61.625.667-10.875 2.417-24.917-6.291-33.292-9.75-10.625-28-11.292-41.542-12.333-36.833-1.875-75.833-6.042-110.5 9.5-4.875 2.416-15.667 7.75-13.333 14.666 6.416 26.792 18.958 53.542 38.375 73.459 9.416 10.333 21.083 18 30.916 27.833 4.334 4.125.292 6.083-1.541 10.458-6.375-2.625-12.75-5.166-19.042-8-6.958-5.958-13.25-12.291-19.667-18.791-12.208-18.792-26.208-32.334-33.375-52.25-4.333-11.959-8.833-24.167-11.375-36.667-2.083-6.542 6.417-12.167 10.667-15.875 22.792-16.417 55.625-20.042 82.958-19.5Z" style="fill:#100601;fill-rule:nonzero"/>
  <path d="M1888.96 1185.12c35.625-6.458 72.792-3.458 101.959 19.875 20.958 16.083 29.333 40.333 31.958 65.792 2.792 24.125-6.833 49.833-19.542 70.041-19.416 25.542-44.416 46.209-76.25 53.834-33.916 10.5-69.75 8.375-101.666-7.25-34.834-18.959-55.709-60.834-46.334-99.959 3.917-26.375 26.709-45.5 43.25-65.125 17.125-20.166 40.792-32.375 66.625-37.208Z" style="fill:#8f5a4d;fill-rule:nonzero"/>
  <path d="M1341.75 1196.04c13.542 1.041 31.792 1.708 41.542 12.333 8.708 8.375 6.958 22.417 6.291 33.292-1.541 24.166-14.083 46-32.166 61.625-13.125 10.5-30.917 15.75-46.042 22.916 9.708 2 19.458 3.959 29.167 6-9.75 4.084-19.917 6.625-30.334 8.417l-1.625.25c-.916 10.25-1.791 20.5-1.916 30.792-1-13.875-2.417-27.209-9.209-39.625-3 20.083-3.833 40.375-2.791 60.666-4.542-19.333 2.5-44.5-9-60.75 1.833-4.375 5.875-6.333 1.541-10.458-9.833-9.833-21.5-17.5-30.916-27.833-19.417-19.917-31.959-46.667-38.375-73.459-2.334-6.916 8.458-12.25 13.333-14.666 34.667-15.542 73.667-11.375 110.5-9.5Z" style="fill:#28180c;fill-rule:nonzero"/>
  <path d="M2705.17 1307.46c39 35.292 74.333 80.917 107.708 121.334 12.792 16.541 24.125 34.125 36.958 50.625 21.209 27.083 37.792 57.083 58.125 84.833-18.583 10.375-38.708 15.542-58.166 23.833-25.417 10.542-51.167 19.667-76.042 31.542-46.375 22.125-93.417 42.75-140.125 64.167-40.25 18.75-76.917 44.375-116.583 64.041 3.166-22.875 4.125-45.625 3.666-68.666-.708-25.667 7.667-48.292 10.584-73.375 2.125-17.25 1.416-34.292 3.208-51.459 7.833-51.75 15.333-103.416 25.792-154.708 39.166-31.583 80-60.417 121.458-88.875 8.958-4.708 13.75-11.833 23.417-3.292Z" style="fill:#221811;fill-rule:nonzero"/>
  <path d="M1297.46 1332.04c6.792 12.416 8.209 25.75 9.209 39.625.833 12.75 1.75 25.458 2.166 38.166-4.625-4.041-9.166-8.041-13.583-12.291l-.583-4.834c-1.042-20.291-.209-40.583 2.791-60.666Z" style="fill:#010101;fill-rule:nonzero"/>
  <path d="m1308.58 1340.88 1.625-.25c2.417 18.417 3.042 37.125 5.792 55.5 1.208 12.667 11.583 17.125 20.292 24.583 25.875 26.292 61.333 44.834 93.708 61.875 19.875 11.542 36.167 27.084 57.875 35.667-14.042 23.792-32.75 44.417-55.708 59.875-13 8.833-31 11.708-46.042 15.75-.083-2.25-.167-4.542-.167-6.792 28.125-12.458 51.459-31 73.834-51.75.333-3.958.666-7.875 1.041-11.791-5.25-.167-10.541-.334-15.791-.542-4.209-3.667-8.459-7.375-12.75-10.958-2.75-2.334-5.542-4.709-8.292-7.042-2.958 2.5-6 5-8.875 7.625-3.292-5.125-6.583-10.208-9.833-15.333-4.25 4.875-8.209 9.708-12.875 14.166.333-3.833.708-7.625 1.041-11.458-21.75-12.542-41.625-28.25-62.375-42.375-4.916-3.917-9.916-7.625-15.375-10.792-7.166 17.792-2.375 39.375-5.541 58.334.708-18.667-.584-36.875-3.792-55.292-3.833-1.083-7.708-2.167-11.583-3.25-2.792-.75-5.667-1.458-8.5-2.125-14.625 6.292-24.459 17.333-34.834 28.958-6.375 5.375-12.958 10.459-19 16.25-2.958.042-5.958.125-8.958.25-1.083 6.959-2.208 13.875-3.333 20.834-3.917-4.584-7.875-9.167-11.792-13.75-1.292 5.166-2.542 10.291-3.667 15.458-14.75 5.25-28.958 11.833-43.75 16.958-.333 3.25-.625 6.542-.916 9.792 3.291 2.167 6.583 4.292 9.833 6.458 14.125 9.334 27.708 18.625 40.292 30.042l-.5 10.792c-25.834-9.709-48.917-29.25-68.084-48.792 6.459-11.875 11.834-23.25 22-32.542 11.5-10.625 26.917-18.416 40.459-26.25 25-14.166 48.125-32.166 70.208-50.5 9.875-9.291 20.542-16 21-30.916 4.417 4.25 8.958 8.25 13.583 12.291-.416-12.708-1.333-25.416-2.166-38.166.125-10.292 1-20.542 1.916-30.792Z" style="fill:#2b1d18;fill-rule:nonzero"/>
  <path d="M3711.88 1428.5c.792 21.333-2.292 42-3.833 63.208-1.542 27.459-10.792 53.334-15.042 80.625-12.208 49.417-29.667 97.917-44.25 147.125-10.208 23.875-14.208 49.75-26.292 72.625-10.75-19.125-17.416-39.708-25.708-59.875-29.583-69-59.375-137.875-89.042-206.791-9.458-21.25-21.75-40.042-27-63.042 76.5-13.708 153.959-24.792 231.167-33.875Z" style="fill:#211811;fill-rule:nonzero"/>
  <path d="M1286.29 1444.5c2.833.667 5.708 1.375 8.5 2.125-.042 27.417-4.042 58.25 4.458 84.583 5.917-8.166 10.375-15.75 10.917-26.041 3.166-18.959-1.625-40.542 5.541-58.334 5.459 3.167 10.459 6.875 15.375 10.792l-12.708-2.292c.375 10.75.833 21.459.5 32.209-.875 9.458-2.667 18.75-4.583 28.041-1.417 4.875-2.875 9.792-4.375 14.667-5.625 1.708-11.125 3.583-16.709 5.375-1-3.708-1.916-7.417-2.75-11.167-2-20.375-4-40.875-4.5-61.333-.041-4.667-.166-9.375-.416-14.083-11.25 9.125-19.334 21.5-34.084 24.416 10.375-11.625 20.209-22.666 34.834-28.958Z" style="fill:#837a76;fill-rule:nonzero"/>
  <path d="M1306.38 1449.88c3.208 18.417 4.5 36.625 3.792 55.292-.542 10.291-5 17.875-10.917 26.041-8.5-26.333-4.5-57.166-4.458-84.583 3.875 1.083 7.75 2.167 11.583 3.25Z" style="fill:#010000;fill-rule:nonzero"/>
  <path d="M585.667 1457.25c14.166 5.917 25.666 18.417 38.666 26.667 52.375 35.125 108.875 68.041 169.084 87.458-2.917 18.75-2.5 35.042 1.083 53.625 5.875 32.375 10.125 68.375 24.125 98.25 10.083 22.417 26.958 39.083 38.417 60.708 10.625 19.917 24.083 37.75 33.75 58.167 15.75 33.083 35.166 62.625 47.75 97.458 5.708 16.459 11.375 32.834 18.041 48.917 32.875 80.375 25.667 169.75-9.958 247.875-4.708 5.333-9.625 10.458-14.25 15.792-15.625-13.834-32.833-11.167-51.833-15.875-25.292-5.167-44.625-18.209-68.709-26.417-29-9.917-56.583-18-82.916-34.417-42.792-28.166-84.5-55.166-119.5-93.166-37.042-34.542-67.75-74.042-97.667-114.792-22.125-35.083-45.5-70.167-63-107.833-17.25-39.75-38.333-77.25-52-118.542-15.167-39.208-18.792-79.083-27.542-119.75-1.916-9.708-3.125-19.542-3.583-29.458 4-9.584 6.667-19.542 9.583-29.5 4-14.75 15.917-25.459 27.542-34.542 20-14.583 37.917-29.292 61.583-37.708 20.209-7.209 39.25-15.709 58.334-25.459 19-9.958 42.25-11.416 63-7.458Z" style="fill:#775237;fill-rule:nonzero"/>
  <path d="M1285.54 1449.04c.25 4.708.375 9.416.416 14.083-3.375 11.375-9.75 21.458-13.416 32.625-2.125 14.542 2.75 28.417 6.708 42.208 3.708-4.5 7.458-9 11.208-13.5.834 3.75 1.75 7.459 2.75 11.167-1.416 10.083-2.833 20.125-4 30.208-7-.541-14.666-1.333-21.125-4.208-11.666-18.833-19.958-40.167-28.291-60.667 5.833-1.208 11.666-2.458 17.458-3.666-1.75-2.542-3.5-5.042-5.25-7.584-6.5-.041-13-.083-19.542 0 6.042-5.791 12.625-10.875 19-16.25 14.75-2.916 22.834-15.291 34.084-24.416Z" style="fill:#e1dede;fill-rule:nonzero"/>
  <path d="m1318.38 1455.33 12.708 2.292c20.75 14.125 40.625 29.833 62.375 42.375-.333 3.833-.708 7.625-1.041 11.458l-5.334 5.042c-12.791 15.417-20.166 34.667-32.333 50.833-.75-5-1.458-10-2.208-15.041-13.667 8.583-23.75 11.708-40.084 12.458-4.291-12.5-7.458-21.667-2.541-34.5 1.5-4.875 2.958-9.792 4.375-14.667 1.125 7.584 2.541 15.125 4.041 22.667 10.542-14.5 12.792-30.875 16.459-47.917 8.75 6.209 17.291 12.667 25.666 19.375-4.041 9.209-7.25 18.334-9.666 28.084 8.458-9.25 17.541-19.292 23.208-30.5-6.5-12.709-25.25-21.167-36.667-29.709-3.958 2.084-7.916 4.209-11.833 6.375-2.208 1.209-4.417 2.375-6.625 3.584.333-10.75-.125-21.459-.5-32.209Z" style="fill:#e2e0e1;fill-rule:nonzero"/>
  <path d="M1285.96 1463.12c.5 20.458 2.5 40.958 4.5 61.333-3.75 4.5-7.5 9-11.208 13.5-3.958-13.791-8.833-27.666-6.708-42.208 3.666-11.167 10.041-21.25 13.416-32.625Z" style="fill:#fcfcfc;fill-rule:nonzero"/>
  <path d="M3432.46 1471.25c12 13.708 18.167 33.208 25.875 49.542 23.959 53.166 45.625 107.25 69 160.666 24.834 52.125 41.125 107.417 67.25 159-.75 12.625-8 20.875-15.041 30.667-21.5 28.292-35.542 60.792-56.167 89.792-24.125 39.916-55.167 74.583-80.25 113.916-74.083-19.583-146.917-42.5-221.5-60.041-10.708-2.667-22.083-4.917-32.208-9.292-7.209-2.875-11.25-11.292-14.875-17.667-12.5-24.416-23.417-49.375-34.042-74.625-22.25-49.333-49.417-96.541-70.25-146.166-29.917-58.209-59.25-117.625-94.417-172.917 22.959-11.833 48.084-16.042 71.709-26.375 28.333-12.333 58-18.458 87.875-25.583 65.541-18.625 131.291-37.125 197.833-51.959 25.125-5.541 50.542-8.833 75.333-15.958 7.25-1.333 16.75-5.25 23.875-3Z" style="fill:#221811;fill-rule:nonzero"/>
  <path d="M1337.33 1477.58c11.417 8.542 30.167 17 36.667 29.709-5.667 11.208-14.75 21.25-23.208 30.5 2.416-9.75 5.625-18.875 9.666-28.084-8.375-6.708-16.916-13.166-25.666-19.375-3.084-2.166-6.167-4.291-9.292-6.375 3.917-2.166 7.875-4.291 11.833-6.375Z" style="fill:#bebbba;fill-rule:nonzero"/>
  <path d="M1325.5 1483.96c3.125 2.084 6.208 4.209 9.292 6.375-3.667 17.042-5.917 33.417-16.459 47.917-1.5-7.542-2.916-15.083-4.041-22.667 1.916-9.291 3.708-18.583 4.583-28.041 2.208-1.209 4.417-2.375 6.625-3.584Z" style="fill:#fefefe;fill-rule:nonzero"/>
  <path d="M1232.46 1489.71c6.542-.083 13.042-.041 19.542 0 1.75 2.542 3.5 5.042 5.25 7.584-5.792 1.208-11.625 2.458-17.458 3.666 8.333 20.5 16.625 41.834 28.291 60.667 6.459 2.875 14.125 3.667 21.125 4.208 7.75-.208 15.5-.541 23.25-1.083 16.334-.75 26.417-3.875 40.084-12.458.75 5.041 1.458 10.041 2.208 15.041l-2.583 3.5-.25 6.292-8.042-.542.25 4.75c-27.458.584-54.958.75-82.458.334-6.292-8.917-12.5-17.875-18.584-26.959l1.459-6.375-5.792-.75 1.75-7.875-6.167-.333 2-7.833-4.25-.25c-1.958-7.042-4.083-14.042-6-21.084l-3.75.5c.334-6.916.75-13.833 1.167-20.75 3-.125 6-.208 8.958-.25Z" style="fill:#f9f9f9;fill-rule:nonzero"/>
  <path d="M1223.5 1489.96c-.417 6.917-.833 13.834-1.167 20.75l3.75-.5c1.917 7.042 4.042 14.042 6 21.084l4.25.25-2 7.833 6.167.333-1.75 7.875 5.792.75-1.459 6.375c6.084 9.084 12.292 18.042 18.584 26.959 27.5.416 55 .25 82.458-.334l-.25-4.75 8.042.542.25-6.292 2.583-3.5c12.167-16.166 19.542-35.416 32.333-50.833l5.334-5.042c4.666-4.458 8.625-9.291 12.875-14.166 3.25 5.125 6.541 10.208 9.833 15.333-12.75 16.458-20.75 36.042-32.292 53.542-8.333 12.583-14.083 26.25-19.208 40.416-29.542.209-59.083-.25-88.625.209-11.75.291-22.292-1.084-33.458-4.709-9.792-30.541-30.709-58.291-36.834-89.583 1.125-5.167 2.375-10.292 3.667-15.458 3.917 4.583 7.875 9.166 11.792 13.75 1.125-6.959 2.25-13.875 3.333-20.834Z" style="fill:#080302;fill-rule:nonzero"/>
  <path d="M1432.29 1512.04c4.291 3.583 8.541 7.291 12.75 10.958 5.25.208 10.541.375 15.791.542-.375 3.916-.708 7.833-1.041 11.791-22.375 20.75-45.709 39.292-73.834 51.75-.083-7.875-.083-15 4.25-21.875 8.792-14.875 17.125-30.208 26.5-44.708 3.625-6 9.5-6.167 15.584-8.458Z" style="fill:#996053;fill-rule:nonzero"/>
  <path d="M1196.38 1522.21c9.083 17.584 18.792 34.5 24.792 53.459-3.667.041-7.334.041-11 .083-12.584-11.417-26.167-20.708-40.292-30.042-.625-3.666-1.25-7.333-1.917-11 9.459-4.25 18.917-8.416 28.417-12.5Z" style="fill:#9c6254;fill-rule:nonzero"/>
  <path d="M1309.92 1530.25c-4.917 12.833-1.75 22 2.541 34.5-7.75.542-15.5.875-23.25 1.083 1.167-10.083 2.584-20.125 4-30.208 5.584-1.792 11.084-3.667 16.709-5.375Z" style="fill:#c1c0c0;fill-rule:nonzero"/>
  <path d="M2267.96 1527.88c-6.416 14.875-17.625 25.083-28.791 36.333-15.959 17.542-32.25 32.417-41.334 54.917 3.125-1.5 6.25-3.042 9.375-4.583 2.542 3.291 5.084 6.583 7.625 9.833 19.75 11.042 36.417 25.958 51.625 42.5 24.209 27.417 44.584 57.625 59.542 91.042 7.667 17.833 14 36.083 20 54.5 1.042 6.375 2.042 12.708 2.958 19.083-3.291 2.25-6.583 4.5-9.875 6.75 2.209 24.708 6.584 47.792-.333 72.125-3.625 13-4.708 26.292-6.292 39.667-1.791 14.916-7.291 26.75-6.583 41.416.625 13.209 1.958 26.375 3.208 39.5-3.583 1.625-7.125 3.334-10.625 5.042-10.833 17.25-18.208 36.417-28.666 53.917-22.417 38.583-46.959 76-71.292 113.375-23.583 33.75-43.958 71.458-71.833 101.666-18.417 20.667-35.042 42.375-55.792 60.917-26.333 23.75-48.458 48.042-77.75 68.125-15.75 10.75-31.917 21.042-48.167 31.042-21.25 13.208-47.208 19.875-71.5 25.166-32.166 7-64.125 6.709-96.75 7.917l-5.833.792c.875-2.875 1.708-5.792 2.542-8.709-10.709-.833-19.542-1.166-28.25-8.375-12-8.875-24.125-13.666-38.667-16.791-34.583-7.584-67.208-20.5-95.875-41.5-17.208-13.25-33.583-27.584-50.625-41-16.042-12.709-29.083-28.042-36.208-47.459-17.042-44.875-21.292-95.875-17.459-143.458 2.209-40.208 8.625-80 17.5-119.25 8.917-34.333 31-67.167 44.042-100.542-3.083-1.291-6.125-2.541-9.208-3.833-3.5 4.542-7 9.125-10.5 13.667.125-5.75.291-11.5.541-17.209 16.542-12.958 20.875-31.958 31.125-50.25 11.625-7.541 19.209-18.083 26.542-29.541 24.5-36.375 54.792-66.875 87.833-95.459 34.5-29.958 71.417-62.833 113.834-80.375 1.958-.916 3.875-1.833 5.833-2.75 5.042-10.375 9.625-17.25 19.417-23.583 10.625-6.875 17-15.958 23.291-26.708 24.459-2.292 48.959-3.875 73.375-6.625 27-2.959 51.834-12.167 78.667-17.042 15.625-2.708 29.958-8.25 44.167-15.125 39.416-14.375 80.458-25.25 119-41.792 20.375-8.666 33.458-23.5 49-38.458l1.291 8.042c8.334-6.084 16.834-11.917 25.875-16.917Z" style="fill:#5f3a1c;fill-rule:nonzero"/>
  <path d="M365.625 1591.92c.458 9.916 1.667 19.75 3.583 29.458 8.75 40.667 12.375 80.542 27.542 119.75 13.667 41.292 34.75 78.792 52 118.542 17.5 37.666 40.875 72.75 63 107.833 29.917 40.75 60.625 80.25 97.667 114.792 35 38 76.708 65 119.5 93.166 26.333 16.417 53.916 24.5 82.916 34.417 24.084 8.208 43.417 21.25 68.709 26.417 19 4.708 36.208 2.041 51.833 15.875-15.042 17.166-24 37.375-35.917 56.5-10.25 16.916-28.75 22.25-45.666 30.333-20.417 9.625-41.292 17.542-63.375 22.583-35.167 8-68.167 15.375-104.25 8.334-37.167-4.542-72.542-24.209-100.459-48.459-25.75-26.791-50.541-52.541-69.291-84.875-27.875-42.5-53.959-85.75-76.75-131.208-19.917-46.958-33.625-96.5-51.459-144.417-13.708-37.958-29.541-74.708-40.625-113.708-7.875-28.667-10.458-59.292-15.458-88.958-5.708-30.417.625-62.042 6.417-92.209 5.333-27.041 17.791-49.916 30.083-74.166Z" style="fill:#654233;fill-rule:nonzero"/>
  <path d="M2930.12 1606.08c10.625 11.75 17.375 25.459 24.667 39.334 9.375 17.958 21.375 34.208 31.208 51.875 24.083 45.833 46.708 92.375 69.167 139 13 31 29.666 60.125 42.458 91.208 8.042 20.083 21.25 38.625 26.958 59.375-5.125 4.833-10.625 2.625-16.875 2.208-24.958-3.791-50-10.875-74.458-15.375-104.958-18.458-213.75-35.333-320.667-34.5-41.083.375-83.666-1.625-124.083 5.417-9.667-11.333-18.583-23.083-27.042-35.333-14.583-20.917-31.291-39.917-46.791-60.125-6.917-14.584-3.875-29.042-3.459-44.667 5.834-5.75 11.625-11.625 17.625-17.167 37.5-26.291 81.542-43.333 121.709-65.291 64.958-33.625 131.958-57.667 199.791-84.542 26.917-9.708 52.709-22.292 79.792-31.417Z" style="fill:#221811;fill-rule:nonzero"/>
  <path d="M2072.79 1617c-14.209 6.875-28.542 12.417-44.167 15.125-26.833 4.875-51.667 14.083-78.667 17.042-24.416 2.75-48.916 4.333-73.375 6.625-6.291 10.75-12.666 19.833-23.291 26.708-9.792 6.333-14.375 13.208-19.417 23.583-1.958.917-3.875 1.834-5.833 2.75-2.375-3.625-4.792-7.208-7.209-10.833-23.625 7.708-46.416 16.458-70.916 21.292-28.292 5.666-56.709 11.041-85.292 14.916-31.25 2.667-62.458 5.5-93.792 6.375-27.416 1.625-53.791 6-81.333 2.042-29.958-4.167-60-1-89.958-4.667-38.542-4.291-81.292-6.708-117.667-20.666 16-10.792 33-3.292 51.458-3.667 32.334-.375 63.917 4.958 95.959 1.625 33.25-2.083 66.625.625 99.875-1.583 67.291-5.417 133.666-12.584 200-25.084 32.958-10.833 67.333-16.833 99.041-30.708 15.875-6.833 32.625-8.875 49.75-9.583 28.375-.75 55.75-4.75 84.042-8.25 37.708-4.959 73.125-18.75 110.792-23.042Z" style="fill:#654126;fill-rule:nonzero"/>
  <path d="M2145.88 1655.38c27.25.875 48.958 13 71.25 27.25 15.833 10.458 34.125 18.583 48.375 31.042 8.833 7.791 13.292 17.666 17.875 28.25 10.458 25.75 23.625 49.458 30.625 76.583 6.542 25.125 15.25 53.667 12.5 79.667-3.458 34.5-14.75 68.416-29.458 99.708-14.834 27.958-32.709 54.417-50.709 80.417-27.5 31.583-57.625 60.208-92.416 83.708-13.375 8.917-27.834 16.583-40.709 26.167-12.208 9.083-21.208 20.041-31.458 31.125-24.5 26.375-49.125 51-79.958 70.083-67.625 39.583-146.584 57.708-224.542 47-30.917-5.458-60.792-9.5-88.958-23.917-35.375-16.458-61.875-49.625-78.917-83.875-11.917-23.041-12.25-45.208-30.167-64.5-3.416 27.834 2.375 53.709 8.792 80.584 6.667 28.791 25.083 55.916 39.5 81.958 15.208 27.125 40.125 44.583 56.667 70.75-7.209.167-13.75 1.083-20.334-2.667-36.291-18.791-60.833-47.416-85.416-79.083-8.125-17.333-16.5-33.792-22.125-52.208-22.875-74.792-14.5-160 24.083-228.209 7.917-16.625 11.458-34.5 19.583-51.166 21.875-44.25 50.834-81.25 80.334-120.459 60.583-75.541 144.375-122.041 235.625-150.833 38.041-14.333 77.125-25.083 115.333-38.917 36.75-11 76.083-19.708 114.625-18.458Z" style="fill:#775237;fill-rule:nonzero"/>
  <path d="M307.042 1798.42c16 36.541 19.625 79.166 14.083 118.416-6.25 18.625-15.125 35.25-17.125 55.25-8.5 21.125-19.542 41.167-28.417 62.167-13.125 31.583-30.666 60.875-46 91.542-14.083 23.833-27.541 47.625-40.333 72.208-31.125 49.792-66.208 100.042-92.792 152.458-10.583 20.417-12.333 42.625-13.416 65.292.875 46.75 6.791 91.583 20.75 136.292 6.958 29.916 22.666 56 31.041 85.291 7.917 28.834 24.584 55.709 37.459 82.792 17.125 31.875 30.291 65.083 48.958 95.875 16.083 26.667 34.333 52.042 51.208 78.25 15.084 21.542 31.167 43.958 51.334 61.083 55.25 43.5 116.916 77.584 183 101.542 9.666 3.5 19.458 6.625 29.166 9.958 9.5 5 18.584 10.25 28.792 13.834 38.042 12.666 76.458 24.041 115.167 34.583-6.625 1.208-13.167 2.542-19.709 4 19.334 11.542 43.834 15 65.459 21.083 24.708 4.5 48 8 70.125 20.875-5.167 2.25-10.417 4.417-15.5 6.875l-4.042 6.959c-3.208-5.25-6.458-10.5-9.75-15.75-26.667-1.667-51.75-8.875-77.458-15.417-42.417-10.375-84.209-23.708-126.125-36.042-38.542-12.5-78.25-25.416-114.334-43.916-45.041-22.167-88.25-44.875-128.083-75.709-5.5-4.791-12.708-1.25-19-.291.333-4.459.667-8.917.958-13.375-29.333-23.042-47.097-59.188-70.555-88.021-1.946-5.44-3.808-7.696-5.32-12.729-18.125-23.959-30.541-50-44.458-76.459-6.958-13.208-13.458-26.666-18.958-40.541l-2-8.417S142 2711.67 132.542 2694.67c-1.084-18.334-10.25-31.709-16.75-48.292-12.625-33.042-27-64.917-34.625-99.667-11.334-36.833-14-74.416-18.334-112.416-2.583-21.709.334-44.334 3.959-65.75 11.875-49.667 43.291-83.209 66.75-126.167 11.791-21.375 26.75-40.583 38.833-61.708 25.583-46.959 52.958-92.084 74.625-141.167 6.583-15.208 14.042-29.875 21.708-44.583 8.667-16.375 12-34.584 21.125-50.792 10.292-18.667 19.959-39.833 23.042-61.083 1-17-3.583-34.459-5.583-51.375-.5-11.084-.542-22.167-.25-33.25Z" style="fill:#543013;fill-rule:nonzero"/>
  <path d="M1380.04 1820.88c48.25 8.542 95.333 21.125 138.833 44.25 29.25 12.833 55.125 30.542 80.958 49.083-10.25 18.292-14.583 37.292-31.125 50.25l-2.416-1.583-4.084-2.667c4.834-1.625 9.667-3.291 14.5-4.916-14.666-17.792-33.5-26.084-52.875-37.584-20.041-11.5-40.75-21.666-62.708-29.041-42.5-14.417-85.583-28.292-130.5-32.375-56.708-4.417-112.625-4.5-168.208 9.291-59.417 12.375-115.25 36.125-167.417 66.917-8.292 5.167-16.083 11.125-23.083 17.917-7.292-15.542-14.375-31.209-20.834-47.125 18.917-7.042 34.709-18.959 52.459-28.125 55.166-27.375 114.583-45.5 175.583-53.75 24.958-3.75 49.958-2.292 75.042-5 42.083-4.084 84.125-1.667 125.875 4.458Z" style="fill:#433124;fill-rule:nonzero"/>
  <path d="m2348.96 1831.5 2.375-1.667c9.125 36.459 5.709 71.334-.791 107.709-1.584 8.166-2.625 16.416-4.125 24.583-8.459 24.958.375 45 7.333 68.625 3.333-.125 6.708-.208 10.083-.292-1.958 3.667-3.75 7.375-5.583 11.084 3.583 5.166 7.167 10.375 10.5 15.708 14.458 27.917 20.667 58.375 34.375 86.333 16 31.917 28.167 65.459 43.833 97.542 14.125 33.958 33.125 65.458 47.125 99.5 5.667 13.375 12.167 26.333 17.542 39.833 4.625 13 8.125 26.375 12.5 39.5 15.5 40.292 20.667 82.917 19.792 125.875.125 93.417-31.917 179.375-80.459 258-9.458 10.667-20 20.334-29.791 30.709 8.833 1.875 17.666 3.583 26.5 5.458-9.042 3.792-18.292 4.167-27.917 4.417-32.958 41.166-63.5 91.791-104.792 124.791-17.875 16.875-34.333 34.459-55.5 47.417.584 5.583 1.25 11.125 2 16.667-4.333-3.417-8.791-6.792-13.375-9.959-4.5 3.042-8.833 6.334-13.208 9.5-27.375 18.667-53.583 37.459-83.042 52.5-56.125 29.375-114.166 53.75-173.041 76.875-40.917 16.167-83.584 26.709-125 41.709-15.959 5.958-32.417 8.333-49.209 10.625-6.791 1.916-10.541 9.333-14.833 14.5-6.042-6.584-5-7.25-14.375-4.125-8 1.958-17.542 5.875-25.792 4.291-8.083-2.916-15.208-8.958-22.125-13.916-20.416 3.041-40.625 5.25-61.25 6.166 14.375-5.791 26.417-13.25 42.084-15.333 18.875-2.542 36.916-6.833 55.208-12.167 59.25-14.958 121.625-30 178.917-51.791 32.291-14.334 66.166-24.25 98.375-38.792 28.791-12.792 57.375-23.333 83.833-40.042 44.667-25.25 89.167-46.875 127.583-81.833 48.125-37.958 85.125-83.167 124.959-129.417 22.208-25.291 37.375-53.416 55.875-81.375 21.416-32.833 37.583-69.333 51.125-106.041 18.708-59.542 23.375-123.917 14.583-185.625-7.125-34.959-17.25-71.25-32.5-103.584-15.375-29.916-25.958-61.5-43.042-90.458-18.958-32.417-32.875-68.208-47.125-103-11.583-28.417-25.083-56-36.166-84.625-8.459-21.708-19.125-43.75-23.334-66.417-1.25-13.125-2.583-26.291-3.208-39.5-.708-14.666 4.792-26.5 6.583-41.416 1.584-13.375 2.667-26.667 6.292-39.667 6.917-24.333 2.542-47.417.333-72.125 3.292-2.25 6.584-4.5 9.875-6.75Z" style="fill:#593518;fill-rule:nonzero"/>
  <path d="M1330.62 1856.29c44.917 4.083 88 17.958 130.5 32.375 21.958 7.375 42.667 17.541 62.708 29.041 19.375 11.5 38.209 19.792 52.875 37.584-4.833 1.625-9.666 3.291-14.5 4.916-40.666-26.25-83.291-48.625-129.416-63.666-10.917-2.834-21.834-5.584-32.792-8.334-13.667-3.625-27.5-6.5-41.417-9-26.875-4.333-52.166-2.791-79.416-3.208-38.75.667-74.584-2.042-112.459 7.792-9.75 2.333-19.5 4.791-29.333 6.875-6.833 2.166-13.708 4.208-20.5 6.458-2.792.625-5.625 1.25-8.417 1.875-30.416 11.167-60.333 22.958-88.708 38.792-15.417 3.375-27.25 12.25-39.875 21.125-3.833-1.584-7.667-3.084-11.542-4.584l3.584-3.916c7-6.792 14.791-12.75 23.083-17.917 52.167-30.792 108-54.542 167.417-66.917 55.583-13.791 111.5-13.708 168.208-9.291Z" style="fill:#38251b;fill-rule:nonzero"/>
  <path d="M1279.17 1876c27.25.417 52.541-1.125 79.416 3.208 13.917 2.5 27.75 5.375 41.417 9 10.958 2.75 21.875 5.5 32.792 8.334 46.125 15.041 88.75 37.416 129.416 63.666l4.084 2.667c-.834 8.958-1.667 17.292-6.167 25.25-10.542 20-18.208 41.167-27.875 61.542-6.583 13.708-9.875 28.166-13.625 42.833-1.667-7.667-3.75-15.167-5.792-22.75-2.541-.083-5.083-.208-7.625-.292 14.834-32.958 27.917-66.541 44.167-98.875-26.542-18.875-57.542-32.041-87.375-44.875-34.958-15.125-73.75-21.083-111.333-28.291-47.959-9.417-99.834-4.959-148.167-.084-35.375 3.209-67.625 13.542-101.375 24.292-35.792 12.625-74.25 27.167-105 49.708 5.458 20.709 10.667 41.5 14.792 62.542 4.333 22.375 10.458 43.208 9.291 66.167-.875 20.75-7.166 39.083-13.916 58.458-1.959-7.667-3.834-15.333-5.5-23.042 3.5-18.916 7.333-36.791 4.666-56.208-6.166-38.5-14.833-76.083-26.541-113.292 14.166-8.666 27.833-17.791 40.833-28.166 28.375-15.834 58.292-27.625 88.708-38.792 2.792-.625 5.625-1.25 8.417-1.875 6.792-2.25 13.667-4.292 20.5-6.458 9.833-2.084 19.583-4.542 29.333-6.875 37.875-9.834 73.709-7.125 112.459-7.792Z" style="fill:#d3d8ee;fill-rule:nonzero"/>
  <path d="M1350.67 1897.42c37.583 7.208 76.375 13.166 111.333 28.291 29.833 12.834 60.833 26 87.375 44.875-16.25 32.334-29.333 65.917-44.167 98.875-22.75-1.333-45.166-.125-67.75 2.417-48.833 2.833-98.166 4.542-146.583 11.875-30.625 2.5-60.375 5.167-89.75 14.917-13.125 4.666-25.667 12.708-37.917 19.375-31.791 17.208-64.958 37.166-90.208 63.291-16.75 17.125-31.333 35-39.25 58-11.333 32.917-19.958 67.834-38.917 97.709-13.833 21.541-29.875 41.666-48.625 59.166-19.541 18.125-35.375 39.5-54.541 58-8.375 7.792-10.084 17.625-13.375 28.125-15.25-11.666-29.167-33.125-49.25-34.041-18.542-3.5-33.584 10.666-45.375 22.875-9.75 10.375-13.417 24.041-8.084 37.541 6.875 16.542 24.459 28.959 39.459 37.709 11.875 8.791 26.916-1.625 39.666-3.625-11.416 19.875-29.208 30.666-49.083 40.625 6.083 34.333 28.958 67.416 47.167 96.541 19.083 32.125 41.041 60.834 62.583 91.5 34.25 50.959 82.042 94.084 129 133.125 9.125 8.125 18.667 15.709 29.417 21.667 40.541 22.75 84.375 41.292 130.458 48.708 67.958 9.5 136.083 13.792 204.667 14.5-64.292 16.292-130.709 13.042-195.875 4.875-46.084-7.625-87.584-23.541-130.459-39.916-28.125-9.334-50-25.625-74.541-41.542-51.5-32.583-98.792-74.5-134-124.417-50.542-65.083-80.875-141.666-100.5-221.083-3-13.625-5.792-27.292-9.5-40.75-4.084 10.667-7.084 21.583-8.584 32.917-13.791-50.292-13.541-100.959-12.375-152.667 44.167-.292 89.375-16.25 128.417-36.125 20.042-9.917 38.375-20.75 52-39 23.917-31.083 38.583-71.542 53.042-107.833 11.666-28.584 17.541-58.459 24.25-88.459 1.666 7.709 3.541 15.375 5.5 23.042 6.75-19.375 13.041-37.708 13.916-58.458 1.167-22.959-4.958-43.792-9.291-66.167-4.125-21.042-9.334-41.833-14.792-62.542 30.75-22.541 69.208-37.083 105-49.708 33.75-10.75 66-21.083 101.375-24.292 48.333-4.875 100.208-9.333 148.167.084Z" style="fill:#c9cce0;fill-rule:nonzero"/>
  <path d="M1251.83 1927.62c13.334-3.583 27.459-2.083 37.875 7.667 10.334 9.333 22.834 21.666 26.125 35.583.625 25.083-15.333 45.792-34.833 59.792-9.083 6.75-22.417 7.333-32.833 3.708-13.042-6.208-24.459-16.792-33.084-28.292-9.375-12.875-10.083-29.458-1.833-43.125 8.833-14.625 22.417-29.041 38.583-35.333Z" style="fill:#dde1f8;fill-rule:nonzero"/>
  <path d="M325.208 1928.58c8.5 14.042 13.042 29.375 18.625 44.667 10 25.875 22.709 51.375 35.459 75.958 15.125 29.167 24.208 60.167 40.416 88.834 24.417 41.125 40.917 92.041 68.959 131.541 18.875 27.584 39.375 55 62.958 78.792 18.542 18.708 40.792 29.25 64.667 39.458 21.916 9.417 46.041 14.834 69.666 18 3.625 41.959 2.125 82.834 11.709 124 8.041 58.459 21.166 115.125 44.458 169.5 11.583 27.5 26.875 53.042 37.333 81-6.833-9.25-13.333-18.625-18.291-29-12.75-26.708-26.25-52.166-36.042-80.166-11.083-31.459-19.708-63.834-27.083-96.334-3.792-15.458-3.959-31.041-4.417-46.875-8.292 3.5-13.542 7.375-18.292 15-21.25 32.709-40.166 66.834-61 99.834-21.416 38.75-39 79.916-50.875 122.583-19.958 57.417-42.333 118.792-50.875 179.333-3.458 19.75-6.75 39.334-7.125 59.459 0 19-5.25 35.125 1.334 52.708-66.084-23.958-127.75-58.042-183-101.542-20.167-17.125-36.25-39.541-51.334-61.083-16.875-26.208-35.125-51.583-51.208-78.25-18.667-30.792-31.833-64-48.958-95.875-12.875-27.083-29.542-53.958-37.459-82.792-8.375-29.291-24.083-55.375-31.041-85.291-13.959-44.709-19.875-89.542-20.75-136.292 1.083-22.667 2.833-44.875 13.416-65.292 26.584-52.416 61.667-102.666 92.792-152.458 12.792-24.583 26.25-48.375 40.333-72.208 15.334-30.667 32.875-59.959 46-91.542 8.875-21 19.917-41.042 28.417-62.167 6.375-14.916 12.333-29.791 21.208-43.5Z" style="fill:#775237;fill-rule:nonzero"/>
  <path d="M1019.75 1937.79c-13 10.375-26.667 19.5-40.833 28.166 11.708 37.209 20.375 74.792 26.541 113.292 2.667 19.417-1.166 37.292-4.666 56.208-6.709 30-12.584 59.875-24.25 88.459-14.459 36.291-29.125 76.75-53.042 107.833-13.625 18.25-31.958 29.083-52 39-39.042 19.875-84.25 35.833-128.417 36.125l-5.625.125c9.959-3.583 19.875-7 30.334-8.833 36.416-5.084 71.708-16.792 104.125-34.209 16.083-8.708 34.916-18.458 46.125-33.25 13-17 23-36.833 31.625-56.333 16.041-36.625 30.541-72.375 38.041-111.833 4.792-26.209 13.25-52.792 10.417-79.292-5.083-40.708-16.125-79.25-26.25-118.708 2.667-1.875 5.333-3.75 8-5.625 12.625-8.875 24.458-17.75 39.875-21.125Z" style="fill:#8f7c76;fill-rule:nonzero"/>
  <path d="M1256.33 1940.67c10.167-2.334 18.792-1.084 27 5.541 7.459 6.125 18.292 15.209 19.584 25.292-.375 14.292-7.209 29.667-15.75 41-9.292 12.333-25 12.333-38.667 9.042-9.333-5-19.5-15.209-24.542-24.459-9.583-23.916 9.917-49.583 32.375-56.416Z" style="fill:#746d70;fill-rule:nonzero"/>
  <path d="M1247.04 1951.58c8.416-4.291 19.083-4.625 28.25-3.083 9.458 4.5 17.166 13.167 21.958 22.417-3.083 17.166-11.75 47.75-34.667 44.5-17.916 2.583-33.875-15.459-35.291-32.084.416-11.916 9.666-25.583 19.75-31.75Z" style="fill:#100201;fill-rule:nonzero"/>
  <path d="M968.333 1954.33c3.875 1.5 7.709 3 11.542 4.584-2.667 1.875-5.333 3.75-8 5.625 10.125 39.458 21.167 78 26.25 118.708 2.833 26.5-5.625 53.083-10.417 79.292-7.5 39.458-22 75.208-38.041 111.833-8.625 19.5-18.625 39.333-31.625 56.333-11.209 14.792-30.042 24.542-46.125 33.25-32.417 17.417-67.709 29.125-104.125 34.209-8.917-1.375-17.667-3.25-26.459-5.167 27.875-8.542 56.334-10.5 83.5-21.792 25.959-10.708 53.917-23.208 74.75-42.458 23.375-25.75 40.167-58.208 47.042-92.375 35.625-78.125 42.833-167.5 9.958-247.875.75-12.833 2.667-24.458 11.75-34.167Z" style="fill:#4f2705;fill-rule:nonzero"/>
  <path d="M1280.62 1970.21c5.292 14.125-8.917 28.084-17.542 37.542-7.125-5.75-19.375-11.25-20.625-21.25-4.541-19.333 28.459-35.917 38.167-16.292Z" style="fill:#291a0d;fill-rule:nonzero"/>
  <path d="m1566.29 1962.88 2.416 1.583c-.25 5.709-.416 11.459-.541 17.209 3.5-4.542 7-9.125 10.5-13.667 3.083 1.292 6.125 2.542 9.208 3.833-13.042 33.375-35.125 66.209-44.042 100.542-8.875 39.25-15.291 79.042-17.5 119.25-3.833 47.583.417 98.583 17.459 143.458 7.125 19.417 20.166 34.75 36.208 47.459 17.042 13.416 33.417 27.75 50.625 41 28.667 21 61.292 33.916 95.875 41.5 14.542 3.125 26.667 7.916 38.667 16.791-1.875 3.792-3.709 7.584-5.542 11.375-16.375-7.541-33.667-10.833-51.167-14.541-33.583-8.709-67.916-23.917-93.541-47.75-23.542-23.459-52.375-37.25-72.75-64.459-10.792-13.791-15.709-29.208-21.167-45.541-6.833-20.542-9.167-41.75-13.792-62.792-1.833-28.958-1.583-58.125.25-87.083 3.375-14.084 3.834-28.375 3.584-42.792l1.833-3.333c2.042-6.875 3.375-13.959 5.292-20.875.166-3.834.333-7.709.458-11.542 3.75-14.667 7.042-29.125 13.625-42.833 9.667-20.375 17.333-41.542 27.875-61.542 4.5-7.958 5.333-16.292 6.167-25.25Z" style="fill:#572f0f;fill-rule:nonzero"/>
  <path d="M2612.42 1981.42c58.25-.459 117.083-2.75 175.083 3.291 42.917 2.084 84.5 9.292 127.167 14.459 71.75 11.125 143.208 23.125 213.791 40.166 10.334 3.084 19.875 4.625 25.417 15 11.958 20.917 20.458 44.042 29.917 66.209 23.166 54 46.916 107.875 68.041 162.75-14.75 15.125-29 30.708-43.166 46.375-23.375 23.458-49.334 39.5-66.959 68.791-11.375 11.125-25 18.167-38.625 26.042-10.541 6.125-16.25 15.292-23.458 24.75-29.5 21.833-57.75 45.708-85.583 69.583-18.959 16.084-40.25 28.209-60.917 41.709-29-20.084-56.167-42.209-83.792-64.042-14.666-12.042-32.833-19.75-46.666-32.542-8.625-10.958-10.334-27.958-14.459-41.041-30.541-98.709-60.75-196.709-102.875-291.292-13.833-32.875-27.666-65.583-45.375-96.625-9.875-18.75-22.625-32.542-27.541-53.583Z" style="fill:#221811;fill-rule:nonzero"/>
  <path d="M2567.5 1990.08c11.417 12.709 18 30.084 26.917 44.667 17.375 28.792 27.375 60.625 43.208 90.208 18.792 36.042 29.583 74.542 45.542 111.75 14.375 39.834 28 80.084 38.833 121 6.875 25.875 17.667 50.334 23.917 76.417-21.084-6.167-40.084-16.792-60.625-24.167-35.125-13.25-73.584-20.25-110.292-28.375-21.083-4.958-42.125-4.291-63.375-1.125-5.375-13.5-11.875-26.458-17.542-39.833-14-34.042-33-65.542-47.125-99.5-15.666-32.083-27.833-65.625-43.833-97.542-13.708-27.958-19.917-58.416-34.375-86.333 7.042-9.083 13.083-18.792 19.208-28.542 7.292-12.625 23.375-18.541 35.5-25.75-.333 4.5-.666 8.959-1 13.417 37.459-8.125 73.084-20.125 111.125-25.25 10.584-1.167 23.542-4.375 33.917-1.042Z" style="fill:#211710;fill-rule:nonzero"/>
  <path d="M2318.46 2036c3.5-1.708 7.042-3.417 10.625-5.042 4.209 22.667 14.875 44.709 23.334 66.417 11.083 28.625 24.583 56.208 36.166 84.625 14.25 34.792 28.167 70.583 47.125 103 17.084 28.958 27.667 60.542 43.042 90.458 15.25 32.334 25.375 68.625 32.5 103.584 8.792 61.708 4.125 126.083-14.583 185.625-13.542 36.708-29.709 73.208-51.125 106.041-18.5 27.959-33.667 56.084-55.875 81.375-39.834 46.25-76.834 91.459-124.959 129.417-38.416 34.958-82.916 56.583-127.583 81.833 43.458-48.625 90.042-97.875 119.75-156.333 15.083-29.042 37.292-52.333 51.167-82.125 17.125-37.167 36.583-77 44.5-117.125 9.041-45.125 16.208-91 19.583-136.917-1.25-43.041-7.125-87.625-23.5-127.708-16.625-41.958-36.75-81.958-56.625-122.417-11.875-23.875-26.708-45.791-39.208-69.291-8.292-15.25-15.834-31.334-25.459-45.584-2.916-.916-5.875-1.75-8.833-2.541 24.333-37.375 48.875-74.792 71.292-113.375 10.458-17.5 17.833-36.667 28.666-53.917Z" style="fill:#654233;fill-rule:nonzero"/>
  <path d="M3207.38 2061.62c18.25 2 35.542 7.125 53.167 11.792 49.25 12 99.625 24.625 146.166 45-.416 2.708-.833 5.416-1.25 8.166-14.458 13.542-26.083 29.167-38.333 44.667-15.667 19.792-36.542 32.417-53.583 50.625-8.209 8.75-16.25 17.667-24.25 26.583-19.5-36.291-31.875-75.5-50.5-112.166-10.125-25-22.709-49.167-31.417-74.667Z" style="fill:#221811;fill-rule:nonzero"/>
  <path d="M1505.21 2069.46c2.542.084 5.084.209 7.625.292 2.042 7.583 4.125 15.083 5.792 22.75-.125 3.833-.292 7.708-.458 11.542-1.917 6.916-3.25 14-5.292 20.875l-1.833 3.333c-13.584 19.75-11.459 47.25-19.125 70.625-6.875 21.125-12.625 41.25-11.334 63.833-.125 56.709 18.584 113.584 50.584 160.209 16.208 24.041 39.416 41.958 61.791 59.958 38.5 30.25 84 48.208 132 56.792 29.834 5.166 60.584 15 90.334 4.208 3.791-1.5 7.541-3.083 11.291-4.667 1.792 8.334 3.542 16.667 5.084 25.084 0 5.125-.084 10.291-.25 15.416-.125 3.292-.209 6.542-.334 9.792l-3.833.083c-.083 6.875-.208 13.792-.292 20.709l-4.166.083c.041 5.542.083 11.083.125 16.583l-3.167.167c-1.875 9.708-4.25 19.333-6.167 29l-3.041.125c-.209 3.5-.417 7-.667 10.5-3.292 8.875-6.375 17.833-9.083 26.917l-3.834.458 1.292 5.833c-15.667 30.584-29.542 61.542-50.125 89.334l-2.208 3.166c-30.334 48-72.959 88.167-117.334 123.167-24.833 18.208-51.875 39.75-81.25 49.5-20.25 2.5-39.25 8.5-59.875 8.333-28.083.292-55.208 6.167-83.291 7.25-17 .625-34 .792-51 1.875-26.375 1.917-51.625-5.541-78.167-5.75-49.708-4.625-97.292-9.458-143.708-28.083-31.292-11-57.417-29.542-86.917-44.167-46.958-39.041-94.75-82.166-129-133.125-21.542-30.666-43.5-59.375-62.583-91.5-18.209-29.125-41.084-62.208-47.167-96.541 19.875-9.959 37.667-20.75 49.083-40.625-12.75 2-27.791 12.416-39.666 3.625-15-8.75-32.584-21.167-39.459-37.709-5.333-13.5-1.666-27.166 8.084-37.541 11.791-12.209 26.833-26.375 45.375-22.875 20.083.916 34 22.375 49.25 34.041 3.291-10.5 5-20.333 13.375-28.125 19.166-18.5 35-39.875 54.541-58 18.75-17.5 34.792-37.625 48.625-59.166 18.959-29.875 27.584-64.792 38.917-97.709 7.917-23 22.5-40.875 39.25-58 25.25-26.125 58.417-46.083 90.208-63.291 12.25-6.667 24.792-14.709 37.917-19.375 29.375-9.75 59.125-12.417 89.75-14.917 48.417-7.333 97.75-9.042 146.583-11.875 22.584-2.542 45-3.75 67.75-2.417Z" style="fill:#fff;fill-rule:nonzero"/>
  <path d="M2246.33 2078.29c-31.166 60.666-72 117.666-112.75 171.958-20.25 30.75-45.583 56.833-69.75 84.458-19.708 22.084-41.958 41.875-66.333 58.709-19.833 13.416-37.417 27.083-60.333 34.916-31.625 10.625-62.375 21.917-95.417 24.834-34.25 4.333-70.875-1.125-104.792-6.75-15.416-2.084-27.333-10-39.708-18.667-26.375-17.25-54.833-31.333-82-47.25-22.125-12.542-29.75-42.292-36.833-64.875 24.583 31.667 49.125 60.292 85.416 79.083 6.584 3.75 13.125 2.834 20.334 2.667-16.542-26.167-41.459-43.625-56.667-70.75-14.417-26.042-32.833-53.167-39.5-81.958-6.417-26.875-12.208-52.75-8.792-80.584 17.917 19.292 18.25 41.459 30.167 64.5 17.042 34.25 43.542 67.417 78.917 83.875 28.166 14.417 58.041 18.459 88.958 23.917 77.958 10.708 156.917-7.417 224.542-47 30.833-19.083 55.458-43.708 79.958-70.083 10.25-11.084 19.25-22.042 31.458-31.125 12.875-9.584 27.334-17.25 40.709-26.167 34.791-23.5 64.916-52.125 92.416-83.708Z" style="fill:#654233;fill-rule:nonzero"/>
  <path d="m1258.42 2104 4.125-.875c4.958-.417 9.875-.875 14.791-1.333 12.292 18.916 5.75 42.208 8.75 64.833 4.167 27.583 2.667 55.333 6.417 82.958 2.75 42.875 9.208 85.75 9.542 128.75-1.125 12.542-2.959 24.959-4.167 37.5-4.292-30.208-2.708-60.458-5.625-90.708-7.042-71.417-13.542-143.083-16.083-214.75-11.042.875-22.084 1.833-33.125 2.833-.792-9.958 8.541-6.25 15.375-9.208Z" style="fill:#544944;fill-rule:nonzero"/>
  <path d="M1243.04 2113.21c11.041-1 22.083-1.958 33.125-2.833 2.541 71.667 9.041 143.333 16.083 214.75 2.917 30.25 1.333 60.5 5.625 90.708.375 8.084.792 16.167 1.167 24.25-15.5 4.959-30.25 4.209-46.209 2.625-2.708-25.166-7.208-49.125-5.25-74.666l-3.5 1.416c-.791-85.416-1.166-170.833-1.041-256.25Z" style="fill:#0f0201;fill-rule:nonzero"/>
  <path d="M1261 2126.71c7.458 17.417 6.333 34.334 7.625 52.917 2.333 63.75 12.292 127.542 13.375 191.208 0 18.542 3.667 37.292 2.583 55.75-4.958 4.084-10.208 2.625-16.25 3.167-4.541-39.042-3.375-78.167-6.625-117.25-2.708-34.708-1.083-69.167-2.083-104.167-.208-26.916-2.042-55 1.375-81.625Z" style="fill:#2c1b0e;fill-rule:nonzero"/>
  <path d="M1511.04 2128.25c.25 14.417-.209 28.708-3.584 42.792-1.833 28.958-2.083 58.125-.25 87.083 4.625 21.042 6.959 42.25 13.792 62.792 5.458 16.333 10.375 31.75 21.167 45.541 20.375 27.209 49.208 41 72.75 64.459 25.625 23.833 59.958 39.041 93.541 47.75 17.5 3.708 34.792 7 51.167 14.541 4.667 4.542 9.333 9.042 14.042 13.584 5-.292 9.958-.542 14.958-.834l2.25-7.041 5.833-.792c13.917-.875 27.292-.833 40.459 4.333-2.459 20.084 1.166 42.709-5.5 61.834-1.542-8.417-3.292-16.75-5.084-25.084-3.75 1.584-7.5 3.167-11.291 4.667 2.25-10.958 5.458-17.708-3.75-26.667-10.959 1.625-21.792 6.125-32.584 8-11.416-2.666-21.25-12.5-32.041-17.333-16.334-7.333-35.417-9.208-52.584-14.5-28.416-8.417-57.083-21.875-79.333-41.708-14-12.459-27.542-25.25-42.708-36.292-18.75-13.917-36.292-26.958-49.084-47-21.916-35.292-27.041-72.875-33-113.042-3.208 2.459-6.416 4.917-9.625 7.375-1.291-22.583 4.459-42.708 11.334-63.833 7.666-23.375 5.541-50.875 19.125-70.625Z" style="fill:#d1d6ed;fill-rule:nonzero"/>
  <path d="M2218.5 2203.29c2.958.791 5.917 1.625 8.833 2.541 9.625 14.25 17.167 30.334 25.459 45.584 12.5 23.5 27.333 45.416 39.208 69.291 19.875 40.459 40 80.459 56.625 122.417 16.375 40.083 22.25 84.667 23.5 127.708-3.375 45.917-10.542 91.792-19.583 136.917-7.917 40.125-27.375 79.958-44.5 117.125-13.875 29.792-36.084 53.083-51.167 82.125-29.708 58.458-76.292 107.708-119.75 156.333-26.458 16.709-55.042 27.25-83.833 40.042-32.209 14.542-66.084 24.458-98.375 38.792-57.292 21.791-119.667 36.833-178.917 51.791-18.292 5.334-36.333 9.625-55.208 12.167-15.667 2.083-27.709 9.542-42.084 15.333-34.666 1.542-69 6.417-103.583 8.75-75.167.584-150.083 2.292-225.25.167-71.583-4.542-142.75-8.333-213.583-20.375-45.084-5.208-89.917-11.708-134.334-20.917-33.833-6.625-67.958-10.916-101.458-19.333-38.375-9.458-75.917-14.542-113.292-27.417-35.125-11.791-71.125-19.291-107.291-27.083-38.709-10.542-77.125-21.917-115.167-34.583-10.208-3.584-19.292-8.834-28.792-13.834 39.334 10.209 77.084 25 116.334 35.5 34.416 9.917 69.666 15.792 104.166 25.209 80 23.458 160.542 40.5 242.584 54.833 49.916 11.333 100.541 16.5 151.166 23.458 57.5 8.959 116.334 11.75 174.667 16.5 87.792 2.917 174.917 1.042 262.667.209 28.708-.917 57.208-6.209 85.791-8.834 11.667-2.291 24.75-.958 30.667-13.208 24.875-48.042 11.25-103.5 10.542-154.667 1.583-37-6.125-73.083-4.5-110.083-3.125-1.083-6.25-2.125-9.375-3.167 44.5-42.416 84.708-87.833 115.416-141.375 40.959-63.333 59.709-135 71.5-208.75 2.709-30.625 5.959-61.458 5.875-92.25 24.292-5.291 50.25-11.958 71.5-25.166 16.25-10 32.417-20.292 48.167-31.042 29.292-20.083 51.417-44.375 77.75-68.125 20.75-18.542 37.375-40.25 55.792-60.917 27.875-30.208 48.25-67.916 71.833-101.666Z" style="fill:#775237;fill-rule:nonzero"/>
  <path d="M1490.21 2255.33c5.959 40.167 11.084 77.75 33 113.042 12.792 20.042 30.334 33.083 49.084 47 15.166 11.042 28.708 23.833 42.708 36.292 22.25 19.833 50.917 33.291 79.333 41.708 17.167 5.292 36.25 7.167 52.584 14.5 10.791 4.833 20.625 14.667 32.041 17.333 10.792-1.875 21.625-6.375 32.584-8 9.208 8.959 6 15.709 3.75 26.667-29.75 10.792-60.5.958-90.334-4.208-48-8.584-93.5-26.542-132-56.792-22.375-18-45.583-35.917-61.791-59.958-32-46.625-50.709-103.5-50.584-160.209 3.209-2.458 6.417-4.916 9.625-7.375Z" style="fill:#c7cade;fill-rule:nonzero"/>
  <path d="M3176.12 2374.33c-6.917 10.292-15.375 18.959-24.833 26.959-25.5 21.958-44.375 45.875-74.625 61.833.916-4.667 1.916-9.25 2.958-13.875 7.208-9.458 12.917-18.625 23.458-24.75 13.625-7.875 27.25-14.917 38.625-26.042 10.875-9.041 22.209-17.041 34.417-24.125Z" style="fill:#35261a;fill-rule:nonzero"/>
  <path d="M1302.04 2378.33c2.25 20.875 4.208 41.459 4.166 62.5-17.25 11.667-36.208 17.084-53.375 1.875 15.959 1.584 30.709 2.334 46.209-2.625-.375-8.083-.792-16.166-1.167-24.25 1.208-12.541 3.042-24.958 4.167-37.5Z" style="fill:#7e7570;fill-rule:nonzero"/>
  <path d="M723.833 2407.21c-.208 40.084-.125 81.917 6.959 121.417 6.958 39.25 15.958 78.75 28.541 116.625 11.625 35.792 31.792 70.208 51.042 102.458 23.292 39.292 50.792 76.459 82.417 109.417 37.916 37.667 79.666 72 125.083 100.292 14.708 9.416 29.833 18.125 46 24.875 36.458 14.666 71 31.375 109.667 39.875 43.583 9.291 88.708 18.875 133.166 17.166 49.417-1.666 100.875-4.791 148.917-17.25 46-14.166 92.708-32 133.458-57.916 60.709-42.334 126.584-93.75 165.5-157.667 16.084-24.25 31.625-48.208 43.667-74.833 31.833-58.875 48.708-123.542 55.333-189.917.917-16.208 6.792-30.792-3.375-44.958-6.875 21.708-5.708 43.5-9.083 65.666-.792 7.375-5.542 11.584-9.708 17.25.166-5.125.25-10.291.25-15.416 6.666-19.125 3.041-41.75 5.5-61.834-13.167-5.166-26.542-5.208-40.459-4.333 32.625-1.208 64.584-.917 96.75-7.917.084 30.792-3.166 61.625-5.875 92.25-11.791 73.75-30.541 145.417-71.5 208.75-30.708 53.542-70.916 98.959-115.416 141.375-8.584 8.792-17.292 17.459-27.042 25-36.75 28.709-76.75 56.792-120.375 73.917-36.042 14.417-73.458 27.167-111.667 34-66.375 10.875-136.75 8.542-204.083 8.292-47.333.875-92.417-14.25-136.875-29.167-57.083-19.667-106.667-50.625-155.542-85.458-38.875-31.834-74.541-67-109-103.542-21.5-23.333-38.708-49.25-56.625-75.292-10.458-27.958-25.75-53.5-37.333-81-23.292-54.375-36.417-111.041-44.458-169.5-9.584-41.166-8.084-82.041-11.709-124 12.584.917 25.25 1.125 37.875 1.375Z" style="fill:#423024;fill-rule:nonzero"/>
  <path d="m737.458 2407 5.625-.125c-1.166 51.708-1.416 102.375 12.375 152.667 1.125 5.375 2.417 10.666 3.875 15.916.459 3.792.875 7.542 1.25 11.292 1.709 27.625 13.209 54.833 22.917 80.458 15.875 35.292 35.625 69.542 55.958 102.417 21.084 29.292 42.25 60.042 68.834 84.625 21.958 20.958 45.041 41.875 70 59.292 32.791 22.916 64.208 45.416 101.333 60.916 23.333 9.417 43.917 20.875 68.583 23.584 14.667 3 29.042 7.458 43.542 11.25 31.417 5.666 63.75 10.583 95.75 9.958 53 1.208 106.708-2.708 158.583-14.042 21.667-4.75 41.834-13.291 62.5-21.083 13.709-5.208 27.167-9.667 38.75-19 29.375-9.75 56.417-31.292 81.25-49.5 44.375-35 87-75.167 117.334-123.167l2.208-3.166c2.125 5.75 4.292 11.458 6.458 17.208-38.916 63.917-104.791 115.333-165.5 157.667-40.75 25.916-87.458 43.75-133.458 57.916-48.042 12.459-99.5 15.584-148.917 17.25-44.458 1.709-89.583-7.875-133.166-17.166-38.667-8.5-73.209-25.209-109.667-39.875-16.167-6.75-31.292-15.459-46-24.875-45.417-28.292-87.167-62.625-125.083-100.292-31.625-32.958-59.125-70.125-82.417-109.417-19.25-32.25-39.417-66.666-51.042-102.458-12.583-37.875-21.583-77.375-28.541-116.625-7.084-39.5-7.167-81.333-6.959-121.417 4.542 0 9.084 0 13.625-.208Z" style="fill:#3b281a;fill-rule:nonzero"/>
  <path d="M2530.75 2410.62c40.5 8.208 80.375 18.167 119.458 31.542 25.709 8.541 49.625 22.041 74.667 32.958 12.583 6.292 29.125 13.167 37.375 25.042 7.667 14.416 10.583 31.625 15.75 47.083 10.375 31.875 18.208 64.417 28.167 96.375-38.834 23.792-78.125 49.625-119.875 67.833-50.209 21.792-97.542 48.25-149.209 67.292-23.666 10.417-46.291 16.708-66.5 33.417-2.375-2.792-4.75-5.584-7.125-8.334 48.542-78.625 80.584-164.583 80.459-258 .875-42.958-4.292-85.583-19.792-125.875 2.167-3.166 4.375-6.25 6.625-9.333Z" style="fill:#211710;fill-rule:nonzero"/>
  <path d="M814.167 2460.33c11.75-1.666 25.666-.291 35.708 6.417 12.417 10.792 19.292 29.375 11.667 44.875-6.25 12.083-17.375 25.125-32.292 24.333-19.167 2.625-35.792-14.291-43.25-30.166-6.083-19.25 9.833-40.625 28.167-45.459Z" style="fill:#6a6062;fill-rule:nonzero"/>
  <path d="M1271.92 2465.08c18.166.209 34.416 25.459 21.041 40.792-5.666 8.917-14.125 11.125-23.583 13.917-7.375-8.417-19.583-15.5-18.625-28.125-1.292-12.042 10.417-23.5 21.167-26.584Z" style="fill:#9a938d;fill-rule:nonzero"/>
  <path d="M805.417 2471.88c9.541-6.75 25.375-4.542 35.958-1.417 15.542 6.5 19.458 34.25 9 46.292-11.958 17.708-41.125 14.25-52-2.958-10.333-12.917-5.958-32.584 7.042-41.917Z" style="fill:#0f0200;fill-rule:nonzero"/>
  <path d="m1176.96 2474.08-.375-5.625h20.709c5.833 5.709 11.625 11.417 17.416 17.125.417 10.5.709 20.959.334 31.459-8.542 1.916-16.959 4.291-25.417 6.541l-.25 2.25c-11.083 3.584-22.042 7.417-33.167 10.75l.209 2.084c-7 1.916-13.917 4.041-20.917 6v2.375c-6.958 1.958-13.917 4.041-20.875 5.958l.208 3.417c-4.291-.042-8.625-.125-12.916-.167l.041 5.833-7.875-3.125-.041 4.542c-7.084 1.917-14.042 4.042-21.084 6.042l.084 3.458c-4.25-.042-8.542-.125-12.792-.208l.458 3.666c-8.416 1.959-16.833 4.125-25.333 5.959l.333 3.625c-6.083.083-12.208.083-18.291.083.416-4.25.833-8.542 1.25-12.792 59.416-23.708 117.458-49.541 177.708-70.916-1.708-4.875-3.667-9.625-5.833-14.334-14.959 1.167-29.875 11.125-43.459 17.25-46.291 22.709-94.333 29.709-137.458 58.875l-4.25 2.5c.25-7.041.542-14.083.833-21.125 9.542-5.708 19.042-11.375 29.084-16.208l.291-3.667 7.917 2.792.125-5.583c4.208-.042 8.458-.042 12.667-.042l.291-5.625 7.917 3.208-.208-5.875h13l.041-5.625 7.959 3.167-.084-4.792c7.125-1.958 14.167-4.125 21.25-6.083l-.5-3.583c4.417.166 8.834.333 13.25.5l-.375-5.917 8.125 3.25-.041-4.833c7.083-1.959 14.083-4.167 21.166-6.125l-.458-3.542c4.375.125 8.75.208 13.125.333l-.458-5.791 8.166 2.625.459-6.542 8.041 2.458Z" style="fill:#1d0c04;fill-rule:nonzero"/>
  <path d="M1270.17 2472.29c8.416-.75 13.625 4.958 20.208 9.125-.042 6.916-.042 13.791 0 20.708-6.667 4.333-11.542 9.917-20.25 9-6.042-4.125-14.458-11.417-13.875-19.458-1.375-8.125 7.75-15.625 13.917-19.375Z" style="fill:#0b0301;fill-rule:nonzero"/>
  <path d="M817.583 2479.75c10.167-5.625 28.792 7.917 25.75 20.333-1.666 15.292-21.791 21.375-31.625 9.125-9.625-9.791-4.666-23 5.875-29.458Z" style="fill:#2a1a0e;fill-rule:nonzero"/>
  <path d="M1765.17 2481.83c8.708 7.209 17.541 7.542 28.25 8.375-.834 2.917-1.667 5.834-2.542 8.709l-2.25 7.041c-5 .292-9.958.542-14.958.834-4.709-4.542-9.375-9.042-14.042-13.584 1.833-3.791 3.667-7.583 5.542-11.375Z" style="fill:#230b02;fill-rule:nonzero"/>
  <path d="M1190.54 2488.08c2.166 4.709 4.125 9.459 5.833 14.334-60.25 21.375-118.292 47.208-177.708 70.916-.417 4.25-.834 8.542-1.25 12.792-2.167-.042-4.334-.042-6.5-.083-.417-7.292-.834-14.542-1.292-21.834 43.125-29.166 91.167-36.166 137.458-58.875 13.584-6.125 28.5-16.083 43.459-17.25Z" style="fill:#2e1e12;fill-rule:nonzero"/>
  <path d="M1850.21 2496.79c10.167 14.166 4.292 28.75 3.375 44.958-6.625 66.375-23.5 131.042-55.333 189.917-12.042 26.625-27.583 50.583-43.667 74.833-2.166-5.75-4.333-11.458-6.458-17.208 20.583-27.792 34.458-58.75 50.125-89.334l-1.292-5.833 3.834-.458c2.708-9.084 5.791-18.042 9.083-26.917.25-3.5.458-7 .667-10.5l3.041-.125c1.917-9.667 4.292-19.292 6.167-29l3.167-.167c-.042-5.5-.084-11.041-.125-16.583l4.166-.083c.084-6.917.209-13.834.292-20.709l3.833-.083c.125-3.25.209-6.5.334-9.792 4.166-5.666 8.916-9.875 9.708-17.25 3.375-22.166 2.208-43.958 9.083-65.666Z" style="fill:#2f1a0c;fill-rule:nonzero"/>
  <path d="M764.042 2526.62c3.708 13.458 6.5 27.125 9.5 40.75 19.625 79.417 49.958 156 100.5 221.083 35.208 49.917 82.5 91.834 134 124.417 24.541 15.917 46.416 32.208 74.541 41.542-2.375 3.75-4.708 7.541-7.25 11.208-22.041-9.042-43.125-22.792-63.333-35.458-42.875-26.917-81.708-59.709-116.792-96.125-27.041-30.875-51.333-64.125-70.833-100.334-21-35.875-39.875-72.208-49.958-112.833-3.75-11.667-4.125-26.125-13.834-34.125-.375-3.75-.791-7.5-1.25-11.292-1.458-5.25-2.75-10.541-3.875-15.916 1.5-11.334 4.5-22.25 8.584-32.917Z" style="fill:#dce2f6;fill-rule:nonzero"/>
  <path d="M693.625 2527.96c.458 15.834.625 31.417 4.417 46.875 7.375 32.5 16 64.875 27.083 96.334 9.792 28 23.292 53.458 36.042 80.166 4.958 10.375 11.458 19.75 18.291 29 17.917 26.042 35.125 51.959 56.625 75.292 34.459 36.542 70.125 71.708 109 103.542 48.875 34.833 98.459 65.791 155.542 85.458 44.458 14.917 89.542 30.042 136.875 29.167 67.333.25 137.708 2.583 204.083-8.292 38.209-6.833 75.625-19.583 111.667-34 43.625-17.125 83.625-45.208 120.375-73.917 9.75-7.541 18.458-16.208 27.042-25 3.125 1.042 6.25 2.084 9.375 3.167-1.625 37 6.083 73.083 4.5 110.083.708 51.167 14.333 106.625-10.542 154.667-5.917 12.25-19 10.917-30.667 13.208-28.583 2.625-57.083 7.917-85.791 8.834-87.75.833-174.875 2.708-262.667-.209-58.333-4.75-117.167-7.541-174.667-16.5-50.625-6.958-101.25-12.125-151.166-23.458-82.042-14.333-162.584-31.375-242.584-54.833-34.5-9.417-69.75-15.292-104.166-25.209-39.25-10.5-77-25.291-116.334-35.5-9.708-3.333-19.5-6.458-29.166-9.958-6.584-17.583-1.334-33.708-1.334-52.708.375-20.125 3.667-39.709 7.125-59.459 8.542-60.541 30.917-121.916 50.875-179.333 11.875-42.667 29.459-83.833 50.875-122.583 20.834-33 39.75-67.125 61-99.834 4.75-7.625 10-11.5 18.292-15Z" style="fill:#b2875c;fill-rule:nonzero"/>
  <path d="M760.583 2586.75c9.709 8 10.084 22.458 13.834 34.125 10.083 40.625 28.958 76.958 49.958 112.833 19.5 36.209 43.792 69.459 70.833 100.334 35.084 36.416 73.917 69.208 116.792 96.125 20.208 12.666 41.292 26.416 63.333 35.458 25.917 11.708 51.917 21.458 78.959 30.167l-6.084 2.25c-24.666-2.709-45.25-14.167-68.583-23.584-37.125-15.5-68.542-38-101.333-60.916-24.959-17.417-48.042-38.334-70-59.292-26.584-24.583-47.75-55.333-68.834-84.625-20.333-32.875-40.083-67.125-55.958-102.417-9.708-25.625-21.208-52.833-22.917-80.458Z" style="fill:#928379;fill-rule:nonzero"/>
  <path d="M1346.88 2893.08c13.375.584 22.625 13.542 29.708 23.5-2.791-1.666-5.541-3.291-8.333-4.916-4.708-3.5-9.292-7.042-13.875-10.667-16.708.75-33.333-2.375-43.458 14.083-5.042 13.75 1.041 31.625 12.25 40.792 6.875 6.417 18.416 4.708 27.25 5.083l.875 7.75c-11.167-.208-20.959.709-30.042-7.041-12.333-10.292-23.667-30.084-18-46.334 8.958-15.041 25.958-24.666 43.625-22.25Z" style="fill:#736864;fill-rule:nonzero"/>
  <path d="M1044.38 2904.58c29.5 14.625 55.625 33.167 86.917 44.167 46.416 18.625 94 23.458 143.708 28.083 26.542.209 51.792 7.667 78.167 5.75 17-1.083 34-1.25 51-1.875 28.083-1.083 55.208-6.958 83.291-7.25 20.625.167 39.625-5.833 59.875-8.333-11.583 9.333-25.041 13.792-38.75 19-20.666 7.792-40.833 16.333-62.5 21.083-51.875 11.334-105.583 15.25-158.583 14.042-32 .625-64.333-4.292-95.75-9.958-14.5-3.792-28.875-8.25-43.542-11.25l6.084-2.25c-27.042-8.709-53.042-18.459-78.959-30.167 2.542-3.667 4.875-7.458 7.25-11.208 42.875 16.375 84.375 32.291 130.459 39.916 65.166 8.167 131.583 11.417 195.875-4.875-68.584-.708-136.709-5-204.667-14.5-46.083-7.416-89.917-25.958-130.458-48.708-10.75-5.958-20.292-13.542-29.417-21.667Z" style="fill:#d2d6ea;fill-rule:nonzero"/>
  <path d="M1354.38 2901c4.583 3.625 9.167 7.167 13.875 10.667 4 9.75 6.542 19.333 3.625 29.875-3.583 7.958-9.875 13.291-16.25 18.958l-5.208.458c-8.834-.375-20.375 1.334-27.25-5.083-11.209-9.167-17.292-27.042-12.25-40.792 10.125-16.458 26.75-13.333 43.458-14.083Z" style="fill:#0a0100;fill-rule:nonzero"/>
  <path d="M1338.33 2909.83c8.375-2.458 18.125 8.292 19.459 16.125 4 10.417-5.834 21.25-16.042 21.917-12.917 1.667-22.875-13.083-19.417-24.875 3.375-6.125 9.5-10.792 16-13.167Z" style="fill:#2a1a0e;fill-rule:nonzero"/>
  <path d="M1368.25 2911.67c2.792 1.625 5.542 3.25 8.333 4.916 13.042 21.292-6.208 43.375-25.291 52.125l-.875-7.75 5.208-.458c6.375-5.667 12.667-11 16.25-18.958 2.917-10.542.375-20.125-3.625-29.875Z" style="fill:#aca59f;fill-rule:nonzero"/>
  <path d="M320.5 2988.21c1.125 2.875 2.167 5.709 3.25 8.542-23.5 21.833-42.708 47.458-67.583 67.417-24.75 20-49.459 40-74.459 59.666-15.708 13.125-29.75 28.375-44.458 42.625-22.417 21.917-35.792 48.042-49.5 75.834-8.333 16.833-11.583 34.833-11.292 53.541.417 22.042-1.375 45.5 3.542 67.125 6.208 21.834 15.833 43.25 28.375 62.25 15.167 22.667 28 45.25 47.75 64.5 23.708 24.959 51.417 42.5 80.708 60.125 24 14.375 49.125 21 75.584 29.084 8.875 4.166 17.208 9.208 25.458 14.5l-10.125 5.708c-55-15.417-108.875-32.083-153.667-69.083-32.958-25-56.625-65.25-80.541-98.834-16.917-22.75-24.584-48.791-30-76.25-5.334-28.75-3.375-56.125-3.584-85.125.125-5.958.334-11.958.459-17.916 0 0 9.5-25.042 13.708-37.334l1.875-7.958 4.708-8.375 5.667-5.75c15.167-18.5 29.042-38.917 45.167-56.792 51.583-52.75 114.916-89.833 164.541-144.875l5.417-2.916c6.292-.959 13.5-4.5 19 .291Z" style="fill:#1e0e04;fill-rule:nonzero"/>
  <path d="M320.5 2988.21c39.833 30.834 83.042 53.542 128.083 75.709 36.084 18.5 75.792 31.416 114.334 43.916 41.916 12.334 83.708 25.667 126.125 36.042 25.708 6.542 50.791 13.75 77.458 15.417-22.958 11.041-28.875 31.541-44.792 50.208-30.083 35.667-50.083 79.458-77.166 118.292-22.75 32.75-47.334 64.041-69.209 97.458-23.833 34.833-46.375 68.667-77.5 97.583-25.625 26.334-54.583 47.5-90.458 57.375-30.083 7.125-64.458 2.667-94.958-1.291-26.459-8.084-51.584-14.709-75.584-29.084-29.291-17.625-57-35.166-80.708-60.125-19.75-19.25-32.583-41.833-47.75-64.5-12.542-19-22.167-40.416-28.375-62.25-4.917-21.625-3.125-45.083-3.542-67.125-.291-18.708 2.959-36.708 11.292-53.541 13.708-27.792 27.083-53.917 49.5-75.834 14.708-14.25 28.75-29.5 44.458-42.625 25-19.666 49.709-39.666 74.459-59.666 24.875-19.959 44.083-45.584 67.583-67.417-1.083-2.833-2.125-5.667-3.25-8.542Z" style="fill:#4b3423;fill-rule:nonzero"/>
  <path d="M2260.58 3023.33c4.584 3.167 9.042 6.542 13.375 9.959l5.292 4.375c13.292 20.083 24.417 41.458 38.875 60.583 20.333 25.708 38.125 53.917 60.958 76.833 32.375 32.917 63.75 66.75 95.917 99.875 23.458 27 65.583 90 65.583 90l3.75 8.417 8.167 24.417c-.208 4.125 3.25 12.708 3.25 12.708 1.833 38.042 4.667 79.5-4.542 116.625l-7.25 18.833c-8.041 15.834-17.416 30.792-27.083 45.667-20.167 27.292-45.042 51.375-73.208 70.333-37.125 24.917-79.334 46.792-123.542 55.084-31.417 5.5-63.333 7.25-95.167 5.583-15.916-2.125-47.583-11.583-47.583-11.583-5.708-.334-11.375-.667-17.042-1l-7.833-2.459s-10.909-5.241-15.138-7.397c-1.345-2.845-2.404-4.561-3.154-7.353 3.042-4.041 5.959-8.208 8.834-12.375 5.416.709 10.791 1.459 16.166 2.334 23.334 7.458 45.125 15.166 69.959 15.666 24.416.625 50.458.875 74.25-4.958 46.875-10.958 93.875-22.917 132.541-53.292 16.709-13.791 33.5-24.125 46.334-40.833 14.458-18.917 29.833-35.625 39.375-56.708 21.208-49.167 23.083-104.959 2.458-154.667-11.958-27.625-31.917-50.875-49.875-74.833-30.792-42.709-75-76.167-108.875-116.5-16.042-18.792-33.625-35.667-46.917-56.75-15.75-24.709-35.791-45.709-49.916-71.25-6.875-12.084-13.875-24-21.167-35.834 4.375-3.166 8.708-6.458 13.208-9.5Z" style="fill:#221208;fill-rule:nonzero"/>
  <path d="M2247.38 3032.83c7.292 11.834 14.292 23.75 21.167 35.834 14.125 25.541 34.166 46.541 49.916 71.25 13.292 21.083 30.875 37.958 46.917 56.75 33.875 40.333 78.083 73.791 108.875 116.5 17.958 23.958 37.917 47.208 49.875 74.833 20.625 49.708 18.75 105.5-2.458 154.667-9.542 21.083-24.917 37.791-39.375 56.708-12.834 16.708-29.625 27.042-46.334 40.833-38.666 30.375-85.666 42.334-132.541 53.292-23.792 5.833-49.834 5.583-74.25 4.958-24.834-.5-46.625-8.208-69.959-15.666-14.875-8.542-30-17.167-43.708-27.542-30.667-24.833-53.375-54.75-76.542-86.292-18.875-23.708-32.666-50.25-49.666-75.208-24.834-36.917-45.709-77.208-68.542-114.75-26.208-41.083-47.042-85.208-73.75-126.083-8.75-12.417-15.208-32.584-29.917-38.375 16.792-2.292 33.25-4.667 49.209-10.625 41.416-15 84.083-25.542 125-41.709 58.875-23.125 116.916-47.5 173.041-76.875 29.459-15.041 55.667-33.833 83.042-52.5Z" style="fill:#4b3423;fill-rule:nonzero"/>
  <path d="M660.208 3119.25c6.542-1.458 13.084-2.792 19.709-4 36.166 7.792 72.166 15.292 107.291 27.083 37.375 12.875 74.917 17.959 113.292 27.417 33.5 8.417 67.625 12.708 101.458 19.333 44.417 9.209 89.25 15.709 134.334 20.917 70.833 12.042 142 15.833 213.583 20.375 75.167 2.125 150.083.417 225.25-.167 34.583-2.333 68.917-7.208 103.583-8.75 20.625-.916 40.834-3.125 61.25-6.166 6.917 4.958 14.042 11 22.125 13.916 8.25 1.584 17.792-2.333 25.792-4.291l-5.667 4.25c-17.5 2.291-34.666.833-51.875 5.958-15.958 4.75-31.875 5.458-48.416 5.208 0 0-18.459 3.959-27.584 4.542-11.875 3.125-23.875 3.25-36.041 3.125 0 0-91.125 5.292-137.084 4.333l-66.416-.458c-24.5 3.125-48.584.208-73.125.292-37.5.791-75.084-5.5-112.459-8.084-23.958.084-47.541-3.125-71.083-7.291-11.125-.875-22.208-1.625-33.125-4.167-9.75-.917-19.5-1.708-29.25-2.667-11.583-2.958-35.167-6.375-35.167-6.375-12.625-1.583-37.791-8.083-37.791-8.083-24.042-1.125-70.417-12.75-70.417-12.75-6.333-.833-12.667-1.917-18.958-3.042-23.625-5.333-47.292-10.458-70.834-16.041-6.333-1.25-19-5.625-19-5.625-13.541-.959-26-3.334-39-7.167-8-1.958-16.041-2.708-24.291-2.792 5.083-2.458 10.333-4.625 15.5-6.875-22.125-12.875-45.417-16.375-70.125-20.875-21.625-6.083-46.125-9.541-65.459-21.083Z" style="fill:#512b0d;fill-rule:nonzero"/>
  <path d="M766.5 3159.29c3.292 5.25 6.542 10.5 9.75 15.75-10.042 16.75-20.75 33-30.042 50.208-16.25 29.042-39.666 52.667-56.333 81.333-20.5 34.625-44.042 67.292-64.75 101.834-28 46.208-65.958 87.208-101.167 128.041-25.416 29.417-54.291 49.709-90.875 63.084-3.875 1.083-7.791 1.916-11.791 2.666-20.375.917-38.917 5.542-58.834 4.292-11.875-.75-23.291-4.25-34.708-7.375l10.125-5.708c-8.25-5.292-16.583-10.334-25.458-14.5 30.5 3.958 64.875 8.416 94.958 1.291 35.875-9.875 64.833-31.041 90.458-57.375 31.125-28.916 53.667-62.75 77.5-97.583 21.875-33.417 46.459-64.708 69.209-97.458 27.083-38.834 47.083-82.625 77.166-118.292 15.917-18.667 21.834-39.167 44.792-50.208ZM1817.08 3214.54c14.709 5.791 21.167 25.958 29.917 38.375 26.708 40.875 47.542 85 73.75 126.083 22.833 37.542 43.708 77.833 68.542 114.75 17 24.958 30.791 51.5 49.666 75.208 23.167 31.542 45.875 61.459 76.542 86.292 13.708 10.375 28.833 19 43.708 27.542-5.375-.875-10.75-1.625-16.166-2.334-2.875 4.167-5.792 8.334-8.834 12.375l-4.666 1.25c-41.375-24.75-72.5-59.583-100.125-98.5-12.917-17.791-26.209-35.166-37.459-54.083-20.291-33.75-45.791-68.25-61.916-104.25-11.459-24.875-27.584-48.208-41.25-72.167-12.334-20.958-22.459-42.875-35.542-63.333-16.625-24.875-29.833-51.083-51-72.708 4.292-5.167 8.042-12.584 14.833-14.5Z" style="fill:#27170c;fill-rule:nonzero"/>
</svg>
